<svg version="1.1" id="Layer_1" xmlns="http://www.w3.org/2000/svg" xmlns:xlink="http://www.w3.org/1999/xlink" x="0px" y="0px" height="100%" viewBox="0 0 1890 1920" enable-background="new 0 0 1890 1920" xml:space="preserve">
<path fill="#FEFEFE" opacity="0" stroke="none" d=" M807.000000,1105.000000   C778.668701,1105.000000 750.837341,1104.998413 723.006042,1105.000977   C716.635559,1105.001587 714.988464,1106.564697 714.988281,1112.699219   C714.986572,1161.362305 714.991638,1210.025269 715.004578,1258.688354   C715.006348,1265.403809 716.680908,1266.999023 723.633301,1266.999268   C818.959717,1267.002197 914.286072,1267.002808 1009.612488,1267.003906   C1011.247375,1267.003906 1012.882324,1267.003906 1014.757812,1267.003906   C1014.757812,1363.013550 1014.757812,1458.747070 1014.757812,1554.748047   C718.997559,1554.748047 423.273560,1554.748047 127.273399,1554.748047   C127.273399,1359.009888 127.273399,1163.283691 127.273399,967.271606   C422.978424,967.271606 718.700745,967.271606 1014.710938,967.271606   C1014.710938,1012.962769 1014.710938,1058.695679 1014.710938,1105.000000   C945.682861,1105.000000 876.591431,1105.000000 807.000000,1105.000000  z"/>
<path fill="#FEFEFE" opacity="0" stroke="none" d=" M491.000000,774.999451   C369.528839,774.999451 248.557678,774.999451 127.290466,774.999451   C127.290466,599.055481 127.290466,423.323181 127.290466,247.294144   C282.952728,247.294144 438.682983,247.294144 594.709595,247.294144   C594.709595,422.957184 594.709595,598.687622 594.709595,774.999451   C560.349731,774.999451 525.924866,774.999451 491.000000,774.999451  z"/>
<path fill="#D1E4EB" opacity="0" stroke="none" d=" M407.002655,1621.002197   C401.528687,1621.002197 396.553955,1621.002197 391.285034,1621.002197   C391.285034,1603.006592 391.285034,1585.273193 391.285034,1567.266357   C400.976074,1567.266357 410.712677,1567.266357 420.892853,1567.266357   C420.892853,1575.014771 420.892853,1582.752930 420.892853,1590.889771   C611.032715,1590.889771 800.732056,1590.889771 990.724854,1590.889771   C990.724854,1601.023315 990.724854,1610.755493 990.724854,1621.002197   C796.294495,1621.002197 601.898193,1621.002197 407.002655,1621.002197  z"/>
<path fill="#D1E4EB" opacity="0" stroke="none" d=" M1443.000000,1230.994751   C1502.468140,1230.994751 1561.436279,1230.994751 1620.709961,1230.994751   C1620.709961,1240.969116 1620.709961,1250.703125 1620.709961,1260.730103   C1461.018311,1260.730103 1301.302002,1260.730103 1141.281250,1260.730103   C1141.281250,1251.047607 1141.281250,1241.311401 1141.281250,1230.994751   C1241.668335,1230.994751 1342.084229,1230.994751 1443.000000,1230.994751  z"/>
<path fill="#D1E4EB" opacity="0" stroke="none" d=" M739.000000,870.994568   C823.110229,870.994568 906.720459,870.994568 990.673767,870.994568   C990.673767,880.914856 990.673767,890.648132 990.673767,900.770142   C901.094421,900.770142 811.387634,900.770142 721.260864,900.770142   C721.260864,918.878235 721.260864,936.611389 721.260864,954.681519   C711.119324,954.681519 701.388428,954.681519 691.323364,954.681519   C691.323364,927.071411 691.323364,899.347778 691.323364,870.994568   C706.996155,870.994568 722.748108,870.994568 739.000000,870.994568  z"/>
<path fill="#D2E4EA" opacity="0" stroke="none" d=" M643.992065,635.089478   C644.001465,633.268311 644.002991,631.935181 644.026062,630.602417   C644.031555,630.282837 644.108765,629.964478 644.197937,629.321289   C653.891785,629.321289 663.633850,629.321289 673.692139,629.321289   C673.692139,737.572021 673.692139,845.957703 673.692139,954.675171   C664.093079,954.675171 654.356873,954.675171 643.992126,954.675171   C643.992126,848.384827 643.992126,741.981201 643.992065,635.089478  z"/>
<path fill="#E3E3E3" opacity="0" stroke="none" d=" M622.219971,583.724487   C605.681030,565.860840 606.756348,535.321106 625.838196,518.635681   C637.501404,508.437164 651.110229,506.171600 666.013550,508.921265   C683.413452,512.131531 694.731873,523.139343 699.256165,539.114502   C706.873230,566.009521 694.521484,590.448120 666.313354,597.413452   C650.306091,601.366089 634.335083,597.426758 622.219971,583.724487  z"/>
<path fill="#E3E3E3" opacity="0" stroke="none" d=" M1038.691406,849.717346   C1044.526001,844.351318 1051.436890,841.810242 1058.626221,841.178467   C1069.210815,840.248413 1079.879395,840.495911 1089.303955,846.758118   C1102.296387,855.390991 1110.366333,866.741272 1111.119751,882.979553   C1111.781250,897.235901 1107.833130,909.376160 1097.333008,919.111633   C1088.821533,927.003296 1079.031616,931.056885 1067.008667,931.240417   C1053.099976,931.452637 1041.838379,926.884399 1032.557739,916.963257   C1024.717285,908.581726 1021.151917,898.716064 1020.781372,887.006287   C1020.314819,872.258728 1026.212280,860.952087 1036.351807,851.166565   C1036.909546,850.628235 1037.708374,850.339661 1038.691406,849.717346  z"/>
<path fill="#E3E3E3" opacity="0" stroke="none" d=" M633.475952,229.799805   C618.934631,223.106171 608.745483,212.982208 605.796875,197.243347   C603.438538,184.655304 604.409973,172.344498 612.207214,161.375259   C625.169312,143.140091 643.875244,138.402298 664.840942,143.973663   C681.359497,148.363266 695.616028,168.682190 695.308716,184.948593   C695.042664,199.033447 691.370972,210.927048 681.079041,220.382874   C673.295227,227.534363 664.315918,232.645218 653.210632,231.951920   C646.737122,231.547791 640.294434,230.651352 633.475952,229.799805  z"/>
<path fill="#E3E3E3" opacity="0" stroke="none" d=" M1659.728882,1273.316528   C1656.671143,1266.953369 1652.215088,1261.114136 1651.298096,1254.763672   C1647.809204,1230.602783 1658.675049,1209.952637 1681.681519,1203.018188   C1709.700684,1194.572876 1735.217896,1208.942993 1740.535278,1237.027954   C1745.329102,1262.347534 1733.287842,1282.620239 1706.489624,1290.693359   C1690.368774,1295.549927 1668.812256,1287.138428 1659.728882,1273.316528  z"/>
<path fill="#E3E3E3" opacity="0" stroke="none" d=" M1066.961670,1561.000000   C1089.617920,1560.077881 1107.982178,1577.980713 1110.724609,1597.314087   C1114.427246,1623.416626 1102.708618,1642.497437 1076.711792,1650.690430   C1060.718872,1655.730713 1040.495728,1647.263916 1029.643311,1633.487671   C1016.126465,1616.328979 1017.865356,1587.191284 1035.718018,1571.750977   C1044.563110,1564.101196 1054.713257,1560.254028 1066.961670,1561.000000  z"/>
<path fill="#E3E3E3" opacity="0" stroke="none" d=" M327.818420,219.329376   C317.658875,212.043228 311.288818,202.687607 308.309814,190.869110   C304.255127,174.783234 311.937897,154.613983 325.469818,144.808533   C341.328278,133.317215 358.163879,132.509613 374.874695,141.189392   C389.244568,148.653259 397.261414,161.136124 398.119965,178.008255   C398.866150,192.671799 394.561554,205.042725 383.658142,214.778961   C376.036194,221.584991 367.312317,225.855347 356.586609,226.163635   C346.348267,226.457886 336.851929,224.969589 327.818420,219.329376  z"/>
<path fill="#E3E3E3" opacity="0" stroke="none" d=" M1110.994995,1253.610840   C1106.899048,1272.600342 1095.896240,1284.578857 1077.627075,1290.175171   C1062.105469,1294.929810 1039.277588,1287.472900 1030.006348,1274.440186   C1027.568359,1271.013184 1026.541016,1267.614258 1026.996826,1263.579102   C1027.511963,1259.017944 1025.989624,1255.742065 1020.979980,1254.731567   C1021.327393,1245.048218 1020.009216,1235.531494 1024.833130,1226.340576   C1035.250366,1206.492920 1053.636353,1198.134399 1076.034546,1201.723145   C1094.741821,1204.720581 1113.095215,1226.791992 1111.045898,1244.660034   C1110.725342,1247.455322 1110.997559,1250.318604 1110.994995,1253.610840  z"/>
<path fill="#D2E4EA" opacity="0" stroke="none" d=" M670.006958,468.960724   C670.007446,472.101990 670.007446,474.748566 670.007446,477.700256   C660.062195,477.700256 650.320007,477.700256 640.285522,477.700256   C640.285522,408.055176 640.285522,338.328125 640.285522,268.295776   C649.913025,268.295776 659.657715,268.295776 670.006531,268.295776   C670.006531,334.965576 670.006531,401.715820 670.006958,468.960724  z"/>
<path fill="#D2E4EB" opacity="0" stroke="none" d=" M1050.993530,1158.984741   C1050.993530,1092.865845 1050.993530,1027.243652 1050.993530,961.309937   C1060.919922,961.309937 1070.654907,961.309937 1080.697021,961.309937   C1080.697021,1030.931274 1080.697021,1100.646606 1080.697021,1170.688354   C1071.094727,1170.688354 1061.363892,1170.688354 1050.993530,1170.688354   C1050.993530,1167.015259 1050.993530,1163.248413 1050.993530,1158.984741  z"/>
<path fill="#D2E4EB" opacity="0" stroke="none" d=" M1081.001953,1519.979492   C1081.002075,1523.787964 1081.002075,1527.099731 1081.002075,1530.713623   C1071.048218,1530.713623 1061.318359,1530.713623 1051.287964,1530.713623   C1051.287964,1461.002686 1051.287964,1391.287109 1051.287964,1321.284058   C1060.971436,1321.284058 1070.705933,1321.284058 1081.001709,1321.284058   C1081.001709,1387.335083 1081.001709,1453.408813 1081.001953,1519.979492  z"/>
<path fill="#D2E4EB" opacity="0" stroke="none" d=" M558.990540,168.998566   C563.466003,168.998596 567.442932,168.998596 571.713501,168.998596   C571.713501,178.953094 571.713501,188.685608 571.713501,198.713043   C522.019653,198.713043 472.305298,198.713043 422.289673,198.713043   C422.289673,189.023865 422.289673,179.290161 422.289673,168.998550   C467.668243,168.998550 513.080139,168.998550 558.990540,168.998566  z"/>
</svg>