<svg version="1.1" id="Layer_1" xmlns="http://www.w3.org/2000/svg" xmlnsXlink="http://www.w3.org/1999/xlink" x="0px" y="0px"
	 height="100%" viewBox="0 0 2940 2340" enable-background="new 0 0 2940 2340" xmLspace="preserve">
<path fill="#FDFDFD" class="lim" id="Lab_Ingles" opacity="0" stroke="none" 
	d="
M1730.000244,1028.335693 
	C1988.991333,1028.335693 2246.982422,1028.323975 2504.973633,1028.366211 
	C2519.666016,1028.368652 2517.633545,1026.310059 2517.644531,1041.032959 
	C2517.709717,1128.696655 2517.677246,1216.360229 2517.677002,1304.023926 
	C2517.677002,1306.357178 2517.516602,1308.703369 2517.708008,1311.020752 
	C2518.018066,1314.771118 2516.697510,1316.667603 2512.693848,1316.363281 
	C2510.374023,1316.187012 2508.029785,1316.336304 2505.696533,1316.336304 
	C2217.373047,1316.336670 1929.049683,1316.345703 1640.726196,1316.308350 
	C1627.821899,1316.306641 1629.706177,1318.150635 1629.697510,1305.280273 
	C1629.637573,1216.616577 1629.650391,1127.953003 1629.684204,1039.289307 
	C1629.689087,1026.396118 1628.474609,1028.406616 1641.003296,1028.366333 
	C1670.335205,1028.271729 1699.667847,1028.335815 1730.000244,1028.335693 
z"/>
<path fill="#FDFDFD" class="lim" id="Salon_23" opacity="0" stroke="none" 
	d="
M957.677490,1156.000244 
	C957.677490,1206.331299 957.677551,1255.662231 957.676941,1304.993286 
	C957.676941,1307.326538 957.583984,1309.663574 957.689514,1311.991943 
	C957.818481,1314.836060 956.736511,1316.384399 953.727722,1316.323975 
	C951.395630,1316.277100 949.061646,1316.336060 946.728455,1316.336060 
	C777.736389,1316.337646 608.744263,1316.337891 439.752167,1316.337891 
	C437.752258,1316.337891 435.747101,1316.239746 433.753723,1316.352539 
	C430.818207,1316.518555 429.479218,1315.292480 429.652130,1312.305542 
	C429.767487,1310.312622 429.665436,1308.307129 429.665436,1306.307251 
	C429.665253,1217.311401 429.649200,1128.315552 429.683838,1039.319702 
	C429.688873,1026.406738 428.453156,1028.367065 440.971680,1028.363892 
	C609.297119,1028.321289 777.622620,1028.335205 945.948059,1028.335083 
	C946.614685,1028.335083 947.281372,1028.334229 947.947998,1028.335327 
	C958.450439,1028.352417 957.674011,1027.487061 957.674988,1038.006470 
	C957.678528,1077.004395 957.677124,1116.002197 957.677490,1156.000244 
z"/>
<path fill="#FDFDFD" class="lim" id="Salon_24" opacity="0" stroke="none" 
	d="
M2379.661865,407.999817 
	C2379.661865,318.678741 2379.661865,230.357681 2379.661865,142.036606 
	C2379.661865,140.703461 2379.662842,139.370300 2379.661865,138.037155 
	C2379.653564,126.861870 2379.291016,128.345505 2389.261230,128.344238 
	C2528.908447,128.326538 2668.555908,128.331741 2808.203125,128.331406 
	C2809.536377,128.331406 2810.883789,128.458969 2812.199951,128.309372 
	C2816.802734,127.786217 2818.044922,130.203079 2817.686279,134.260178 
	C2817.540283,135.913589 2817.665283,137.590881 2817.665283,139.257309 
	C2817.665527,228.244949 2817.665527,317.232605 2817.664795,406.220245 
	C2817.664795,408.219971 2817.570801,410.224213 2817.674805,412.218323 
	C2817.832520,415.241913 2816.366455,416.405945 2813.485352,416.327484 
	C2810.821289,416.254974 2808.153320,416.332947 2805.487061,416.332977 
	C2714.499756,416.334259 2623.512207,416.332245 2532.524902,416.336029 
	C2517.670898,416.336670 2517.675049,416.348053 2517.675781,431.302429 
	C2517.678223,473.296600 2517.687012,515.290771 2517.668701,557.284912 
	C2517.665039,566.156738 2519.033203,566.346252 2509.419189,566.340088 
	C2468.758301,566.313904 2428.097168,566.321533 2387.436279,566.335083 
	C2378.708252,566.337952 2379.669922,566.672241 2379.667969,557.979004 
	C2379.657715,508.319275 2379.662109,458.659576 2379.661865,407.999817 
z"/>
<path fill="#FDFDFD" class="lim" id="Salon_22" opacity="0" stroke="none" 
	d="
M970.510559,1315.480957 
	C969.765137,1240.452271 969.710999,1166.124023 969.663513,1091.795776 
	C969.651855,1073.463257 969.687500,1055.130859 969.651733,1036.798340 
	C969.632812,1027.126587 969.781128,1028.329346 978.499512,1028.335205 
	C979.499451,1028.335815 980.499451,1028.335083 981.499390,1028.335083 
	C1139.492188,1028.335083 1297.484863,1028.320923 1455.477661,1028.359741 
	C1469.417847,1028.363159 1467.635986,1026.579956 1467.644287,1040.543457 
	C1467.697021,1129.206055 1467.681885,1217.868652 1467.657959,1306.531250 
	C1467.655273,1316.740723 1469.205933,1316.336426 1458.176880,1316.336426 
	C1297.517578,1316.337280 1136.858276,1316.337280 976.199036,1316.330200 
	C974.534119,1316.330200 972.869263,1316.233154 970.510559,1315.480957 
z"/>
<path fill="#FDFDFD" class="lim" id="Salon_21" opacity="0" stroke="none" 
	d="
M129.661560,166.001099 
	C129.662704,154.668701 129.799988,144.333420 129.599167,134.004700 
	C129.516846,129.770874 130.889648,127.810196 135.293304,128.297836 
	C137.268845,128.516602 139.288925,128.332748 141.288788,128.332733 
	C229.616226,128.332474 317.943665,128.332352 406.271118,128.332153 
	C407.937683,128.332153 409.620728,128.482742 411.267639,128.302704 
	C415.827789,127.804192 418.313599,129.270203 417.700897,134.331848 
	C417.462311,136.302689 417.664764,138.326828 417.664764,140.326691 
	C417.664856,278.650818 417.681305,416.974945 417.636749,555.299072 
	C417.632751,567.686768 419.567474,566.305786 406.407257,566.311096 
	C318.079803,566.346863 229.752365,566.329529 141.424927,566.328796 
	C129.666870,566.328674 129.662399,566.327209 129.662308,554.975098 
	C129.661194,425.650360 129.661575,296.325592 129.661560,166.001099 
z"/>
<path fill="#FDFDFD" class="lim" id="Computacion" opacity="0" stroke="none" 
	d="
M417.664917,1088.000244 
	C417.664917,1210.991455 417.683594,1332.982544 417.636566,1454.973755 
	C417.631775,1467.438354 419.631439,1466.312134 406.722321,1466.316162 
	C317.728760,1466.344727 228.735199,1466.331299 139.741638,1466.330933 
	C137.741791,1466.330933 135.736435,1466.229614 133.743393,1466.344727 
	C130.797226,1466.514648 129.493942,1465.269043 129.648300,1462.291382 
	C129.768890,1459.964722 129.662064,1457.626465 129.662064,1455.293335 
	C129.661591,1316.636719 129.652802,1177.980103 129.676544,1039.323486 
	C129.678757,1026.401001 128.511795,1028.370728 140.973175,1028.363281 
	C229.300079,1028.310181 317.627045,1028.335205 405.953979,1028.335327 
	C406.620605,1028.335327 407.287201,1028.333740 407.953827,1028.336182 
	C418.500519,1028.376221 417.652771,1027.445190 417.661011,1038.003418 
	C417.673737,1054.335693 417.664703,1070.667847 417.664917,1088.000244 
z"/>
<path fill="#FDFDFD" class="lim" id="Aula_4" opacity="0" stroke="none" 
	d="
M2816.698975,1029.340576 
	C2817.452637,1033.334351 2817.651611,1036.659912 2817.652344,1039.985474 
	C2817.669434,1128.313110 2817.666016,1216.640747 2817.666260,1304.968384 
	C2817.666260,1306.634888 2817.500244,1308.321167 2817.695801,1309.964355 
	C2818.238037,1314.525024 2816.817139,1316.820068 2811.732422,1316.417969 
	C2807.094971,1316.051270 2802.405762,1316.338013 2797.739502,1316.338013 
	C2759.075439,1316.337891 2720.411133,1316.334717 2681.747070,1316.346069 
	C2679.083496,1316.346802 2676.399658,1316.272705 2673.761230,1316.561401 
	C2669.974365,1316.975342 2667.674072,1319.005615 2667.709473,1323.104614 
	C2667.732422,1325.770508 2667.675293,1328.436890 2667.675049,1331.103149 
	C2667.672363,1373.433716 2667.687500,1415.764282 2667.660400,1458.094849 
	C2667.655029,1466.212524 2667.579590,1466.308960 2659.613037,1466.315796 
	C2618.948975,1466.351074 2578.284912,1466.323853 2537.620850,1466.338867 
	C2528.871094,1466.342041 2529.661133,1466.757568 2529.661133,1458.173462 
	C2529.661377,1397.510742 2529.661133,1336.847900 2529.661133,1276.185181 
	C2529.661133,1197.190308 2529.650635,1118.195312 2529.671875,1039.200439 
	C2529.675049,1026.671265 2528.670410,1028.359497 2540.094971,1028.354858 
	C2630.089111,1028.318237 2720.083252,1028.333740 2810.077393,1028.350708 
	C2812.068848,1028.351074 2814.060303,1028.560425 2816.698975,1029.340576 
z"/>
<path fill="#FDFDFD" class="lim" id="Salon_18" opacity="0" stroke="none" 
	d="
M1279.998901,416.334900 
	C1200.004883,416.334869 1121.010864,416.334839 1042.016724,416.334625 
	C1039.683594,416.334625 1037.324463,416.110840 1035.022705,416.378876 
	C1030.397949,416.917328 1029.235718,414.621735 1029.633301,410.560852 
	C1029.827271,408.580078 1029.664429,406.564423 1029.664429,404.564575 
	C1029.664307,316.571136 1029.664185,228.577682 1029.664307,140.584244 
	C1029.664307,138.251083 1029.766357,135.912766 1029.645142,133.585983 
	C1029.456299,129.956604 1030.563721,127.822701 1034.708984,128.296707 
	C1036.682861,128.522430 1038.704102,128.331528 1040.703979,128.331528 
	C1129.364014,128.331436 1218.024170,128.319412 1306.684204,128.345642 
	C1319.145020,128.349335 1317.656250,127.062752 1317.661011,139.736786 
	C1317.694214,228.063538 1317.678711,316.390289 1317.678467,404.717041 
	C1317.678467,406.050262 1317.696533,407.383850 1317.673584,408.716675 
	C1317.544800,416.187500 1317.541870,416.259003 1309.996460,416.316620 
	C1300.331055,416.390472 1290.664673,416.334747 1279.998901,416.334900 
z"/>
<path fill="#FDFDFD" class="lim" id="Salon_17" opacity="0" stroke="none" 
	d="
M1420.000244,128.331741 
	C1482.328735,128.331665 1543.657349,128.331604 1604.985840,128.331467 
	C1606.319092,128.331467 1607.652344,128.342026 1608.985474,128.328522 
	C1618.110107,128.236145 1617.676758,127.995590 1617.675171,137.039673 
	C1617.658813,227.365921 1617.672607,317.692169 1617.653931,408.018402 
	C1617.652344,416.204926 1617.575439,416.314301 1609.688354,416.316620 
	C1518.695557,416.343353 1427.702637,416.343842 1336.709839,416.316254 
	C1329.808472,416.314148 1329.683472,416.190094 1329.681274,409.262024 
	C1329.652466,318.269165 1329.652100,227.276321 1329.678101,136.283463 
	C1329.680420,128.421173 1329.790405,128.354233 1338.006958,128.344269 
	C1365.004639,128.311508 1392.002441,128.331818 1420.000244,128.331741 
z"/>
<path fill="#FDFDFD" class="lim" id="Salon_16" opacity="0" stroke="none" 
	d="
M2067.673340,338.000183 
	C2067.672852,361.331238 2067.722900,383.662476 2067.650146,405.993317 
	C2067.614502,416.933472 2069.337646,416.328827 2057.703857,416.331024 
	C2010.041992,416.340057 1962.380249,416.334839 1914.718384,416.334808 
	C1872.389404,416.334808 1830.060303,416.348450 1787.731323,416.322327 
	C1779.760742,416.317383 1779.678833,416.244049 1779.677002,408.274841 
	C1779.656372,317.617371 1779.653076,226.959915 1779.678955,136.302444 
	C1779.681274,128.421799 1779.792603,128.345352 1787.995850,128.343658 
	C1878.320068,128.324966 1968.644287,128.339050 2058.968506,128.320877 
	C2068.040527,128.319061 2067.686035,127.923485 2067.683350,137.020432 
	C2067.663574,203.680344 2067.673096,270.340240 2067.673340,338.000183 
z"/>
<path fill="#FDFDFD" class="lim" id="Salon_15" opacity="0" stroke="none" 
	d="
M2244.000000,416.334808 
	C2191.671143,416.334961 2140.342041,416.351593 2089.013184,416.321350 
	C2078.708984,416.315277 2079.671387,417.547729 2079.669678,407.574127 
	C2079.654785,317.581787 2079.661377,227.589478 2079.661621,137.597153 
	C2079.661621,136.263931 2079.736084,134.926147 2079.651855,133.598373 
	C2079.421875,129.978699 2080.553467,127.829353 2084.703125,128.300919 
	C2086.677246,128.525238 2088.698486,128.332336 2090.698242,128.332321 
	C2179.357422,128.331894 2268.016357,128.319702 2356.675537,128.345795 
	C2369.127441,128.349457 2367.651855,127.068604 2367.656494,139.738922 
	C2367.689453,228.064728 2367.673828,316.390533 2367.673340,404.716339 
	C2367.673340,406.049561 2367.689453,407.383087 2367.665771,408.715912 
	C2367.532959,416.191711 2367.529785,416.308319 2359.990234,416.316589 
	C2321.660156,416.358704 2283.330078,416.335266 2244.000000,416.334808 
z"/>
<path fill="#FDFDFD" class="lim" id="Salon_19" opacity="0" stroke="none" 
	d="
M729.660706,255.999878 
	C729.660828,215.669632 729.682251,176.339401 729.646118,137.009201 
	C729.637024,127.085205 729.900085,128.331284 738.281189,128.331329 
	C828.607422,128.331741 918.933594,128.322876 1009.259827,128.343582 
	C1017.529480,128.345474 1017.644897,128.432236 1017.647339,136.314087 
	C1017.675232,226.973587 1017.658203,317.633087 1017.677734,408.292603 
	C1017.679504,416.423645 1018.325012,416.346497 1009.414246,416.344757 
	C918.754761,416.326843 828.095215,416.330383 737.435730,416.341827 
	C728.680847,416.342926 729.667175,416.642914 729.665710,407.987946 
	C729.657166,357.658600 729.661011,307.329224 729.660706,255.999878 
z"/>
<path fill="#FDFDFD" class="lim" id="Salon_20" opacity="0" stroke="none" 
	d="
M695.954895,416.334900 
	C610.966003,416.334900 526.971375,416.334900 442.976807,416.334808 
	C440.976929,416.334808 438.976898,416.318451 436.977203,416.336731 
	C429.301025,416.406830 429.608398,416.773102 429.655914,408.524292 
	C429.700104,400.858398 429.664001,393.192017 429.664001,385.525848 
	C429.663910,303.864441 429.663940,222.203018 429.664185,140.541611 
	C429.664185,138.208435 429.772430,135.869431 429.644226,133.543396 
	C429.441498,129.865036 430.653595,127.804482 434.751282,128.302444 
	C436.393402,128.502014 438.080353,128.331375 439.746918,128.331375 
	C528.741211,128.331329 617.735474,128.320694 706.729736,128.344559 
	C718.752197,128.347794 717.667419,127.056030 717.669556,138.782669 
	C717.685730,227.776932 717.678284,316.771210 717.677612,405.765472 
	C717.677551,407.765350 717.545044,409.774597 717.694214,411.763000 
	C717.959045,415.294067 716.219727,416.423492 712.947021,416.355164 
	C707.616638,416.243866 702.282043,416.331329 695.954895,416.334900 
z"/>
<path fill="#FDFDFD" class="lim" id="Bodega" opacity="0" stroke="none" 
	d="
M1629.661377,299.999817 
	C1629.661377,246.005127 1629.661499,193.010422 1629.662109,140.015732 
	C1629.662109,137.682663 1629.761719,135.345184 1629.651123,133.017563 
	C1629.493896,129.709854 1630.772949,128.009415 1634.269653,128.316391 
	C1635.592529,128.432510 1636.934326,128.328506 1638.267578,128.328506 
	C1678.596802,128.328522 1718.926147,128.311676 1759.255371,128.343643 
	C1767.536255,128.350204 1767.655151,128.434387 1767.657593,136.314285 
	C1767.684937,226.971878 1767.667969,317.629456 1767.682129,408.287048 
	C1767.683350,416.325653 1768.410645,416.361755 1759.424316,416.353973 
	C1718.761719,416.318756 1678.099121,416.328644 1637.436523,416.343781 
	C1628.682495,416.347046 1629.668579,416.640350 1629.666260,407.989044 
	C1629.656860,372.325989 1629.661743,336.662903 1629.661377,299.999817 
z"/>
<path fill="#FDFDFD" class="lim" id="Salon_24" opacity="0" stroke="none" 
	d="
M2817.668945,533.993774 
	C2817.667480,543.658020 2817.539795,552.326721 2817.723633,560.988708 
	C2817.802490,564.701294 2816.753418,566.685547 2812.719971,566.358582 
	C2810.733154,566.197632 2808.722412,566.333557 2806.722656,566.333557 
	C2718.062988,566.333313 2629.403320,566.333008 2540.743652,566.332214 
	C2538.410400,566.332214 2536.072266,566.228455 2533.745361,566.349792 
	C2530.802734,566.503418 2529.477295,565.278992 2529.647461,562.298523 
	C2529.761230,560.305420 2529.658691,558.300110 2529.658691,556.300293 
	C2529.658203,516.970093 2529.658203,477.639832 2529.659668,438.309601 
	C2529.659668,436.309814 2529.715332,434.309174 2529.672119,432.310486 
	C2529.607666,429.324310 2531.115479,428.174408 2533.982178,428.320740 
	C2535.976562,428.422455 2537.980957,428.331940 2539.980713,428.331909 
	C2628.973633,428.331635 2717.966797,428.331879 2806.959717,428.332062 
	C2807.292969,428.332062 2807.626465,428.331451 2807.959717,428.332672 
	C2818.505859,428.371277 2817.660889,427.447205 2817.664307,438.003021 
	C2817.675293,469.667206 2817.668945,501.331360 2817.668945,533.993774 
z"/>
<path fill="#FDFDFD" class="lim" id="Banno_Hombres" opacity="0" stroke="none" 
	d="
M2079.658691,717.999817 
	C2079.658691,674.671387 2079.658203,632.342957 2079.658936,590.014587 
	C2079.658936,587.681580 2079.754395,585.344482 2079.648193,583.016479 
	C2079.497314,579.710083 2080.781982,578.009888 2084.277588,578.319397 
	C2085.600342,578.436646 2086.942139,578.332031 2088.275391,578.332031 
	C2128.604004,578.332153 2168.932617,578.315063 2209.261230,578.347778 
	C2217.531982,578.354553 2217.647949,578.440552 2217.650391,586.322083 
	C2217.678223,676.978149 2217.660400,767.634216 2217.681885,858.290283 
	C2217.683838,866.382446 2218.320557,866.353455 2209.411621,866.346985 
	C2168.749756,866.317322 2128.087891,866.326538 2087.426025,866.341003 
	C2078.714844,866.344116 2079.663330,866.689331 2079.661865,857.983704 
	C2079.654785,811.655762 2079.658691,765.327820 2079.658691,717.999817 
z"/>
<path fill="#FDFDFD" class="lim" id="Banno_Mujeres" opacity="0" stroke="none" 
	d="
M1017.668335,638.000183 
	C1017.668335,710.325195 1017.668335,781.650208 1017.668335,852.975159 
	C1017.668335,854.974915 1017.699219,856.975281 1017.662415,858.974365 
	C1017.530640,866.130188 1017.523071,866.207458 1010.726990,866.310974 
	C1004.062683,866.412537 997.395630,866.334717 990.729736,866.334717 
	C956.400391,866.334900 922.071106,866.331116 887.741760,866.337158 
	C879.142517,866.338623 879.653564,867.025879 879.654236,858.299316 
	C879.660889,767.643311 879.649231,676.987244 879.674622,586.331238 
	C879.676819,578.482788 879.782837,578.359619 886.959412,578.352356 
	C927.954590,578.311035 968.949768,578.310608 1009.944946,578.353760 
	C1017.517456,578.361755 1017.618408,578.482849 1017.647400,586.006042 
	C1017.712769,603.003845 1017.668152,620.002075 1017.668335,638.000183 
z"/>
<path fill="#F9F9F9" opacity="0" stroke="none" 
	d="
M1992.000244,1382.315063 
	C2115.926270,1382.315063 2238.852295,1382.299561 2361.778320,1382.336914 
	C2375.259521,1382.340942 2373.543945,1380.703735 2373.687500,1393.788208 
	C2373.738525,1398.451416 2373.550781,1403.121338 2373.732422,1407.777954 
	C2373.870117,1411.302979 2372.259766,1412.519043 2368.980957,1412.368042 
	C2366.654297,1412.260864 2364.318115,1412.356567 2361.986328,1412.356567 
	C2119.798828,1412.357056 1877.611206,1412.357178 1635.423706,1412.356323 
	C1623.646362,1412.356323 1623.644653,1412.352417 1623.642456,1401.023926 
	C1623.641602,1396.360107 1623.736938,1391.693970 1623.622803,1387.033081 
	C1623.542603,1383.756104 1624.696777,1382.064453 1628.220581,1382.289307 
	C1630.874634,1382.458496 1633.548462,1382.315308 1636.213501,1382.315308 
	C1754.475708,1382.314941 1872.737915,1382.315063 1992.000244,1382.315063 
z"/>
<path fill="#FCFCFC" class="lim" opacity="0" stroke="none" 
	d="
M2817.671387,1392.000244 
	C2817.671143,1414.997437 2817.706299,1436.994873 2817.650635,1458.991943 
	C2817.632568,1466.134277 2817.523682,1466.299683 2810.714600,1466.308594 
	C2769.053223,1466.363037 2727.391602,1466.261353 2685.730957,1466.438354 
	C2680.930420,1466.458740 2679.533691,1465.128174 2679.554199,1460.291748 
	C2679.733398,1418.297974 2679.731201,1376.302612 2679.562256,1334.308594 
	C2679.542236,1329.315308 2681.358154,1328.225708 2685.978516,1328.242065 
	C2727.639404,1328.389404 2769.301270,1328.403931 2810.961914,1328.225708 
	C2816.162598,1328.203491 2817.847656,1329.767456 2817.773193,1335.008667 
	C2817.507324,1353.669189 2817.670654,1372.335815 2817.671387,1392.000244 
z"/>
<path fill="#F9F9F9" opacity="0" stroke="none" 
	d="
M1071.999756,1412.357422 
	C908.794556,1412.357666 746.589294,1412.370972 584.384094,1412.332275 
	C571.957642,1412.329224 573.830750,1414.028442 573.656921,1401.990723 
	C573.584839,1396.995728 573.735962,1391.996826 573.621277,1387.003540 
	C573.545471,1383.703369 574.748840,1382.046265 578.248352,1382.289917 
	C580.568420,1382.451416 582.909119,1382.314819 585.240601,1382.314819 
	C767.430054,1382.314575 949.619507,1382.304199 1131.808960,1382.336182 
	C1145.276367,1382.338623 1143.540527,1380.706909 1143.686035,1393.813232 
	C1143.730469,1397.809570 1143.333496,1401.847168 1143.778076,1405.793823 
	C1144.400635,1411.321899 1141.942139,1412.491089 1136.948608,1412.443359 
	C1115.634033,1412.239380 1094.316406,1412.357056 1071.999756,1412.357422 
z"/>
<path fill="#F9F9F9" opacity="0" stroke="none" 
	d="
M998.000122,482.313293 
	C1073.241577,482.313385 1147.482910,482.285614 1221.724365,482.338470 
	C1235.540405,482.348297 1233.499023,480.642456 1233.677856,494.726288 
	C1233.732788,499.053528 1233.540039,503.388123 1233.723633,507.708191 
	C1233.871094,511.176514 1232.379639,512.521667 1229.042603,512.362793 
	C1226.717651,512.252014 1224.382935,512.354980 1222.052490,512.354980 
	C1109.525146,512.355835 996.997742,512.356384 884.470398,512.355042 
	C873.646606,512.354919 873.645020,512.348938 873.640869,501.084991 
	C873.639160,496.424103 873.724609,491.761536 873.622192,487.102966 
	C873.551758,483.896637 874.566833,482.046814 878.149475,482.290985 
	C880.468933,482.449066 882.808289,482.313690 885.138733,482.313660 
	C922.425842,482.313171 959.713013,482.313293 998.000122,482.313293 
z"/>
<path fill="#F9F9F9" opacity="0" stroke="none" 
	d="
M1873.999756,512.355835 
	C1793.105957,512.355957 1713.212280,512.371521 1633.318481,512.338196 
	C1622.351929,512.333618 1623.749023,513.687134 1623.649292,502.939911 
	C1623.599854,497.614166 1623.733154,492.285767 1623.621094,486.961975 
	C1623.550903,483.631073 1624.825195,482.029663 1628.289795,482.292755 
	C1630.275513,482.443481 1632.282349,482.313538 1634.279663,482.313538 
	C1737.142822,482.313354 1840.006104,482.303284 1942.869263,482.327606 
	C1954.875244,482.330444 1953.609619,481.085297 1953.682739,492.872986 
	C1953.709473,497.200378 1953.310791,501.569183 1953.778564,505.845520 
	C1954.391479,511.447723 1951.827026,512.473389 1946.903687,512.435974 
	C1922.936890,512.253601 1898.968018,512.354919 1873.999756,512.355835 
z"/>
<path fill="#F9F9F9" opacity="0" stroke="none" 
	d="
M1533.643188,801.999817 
	C1533.643311,728.440186 1533.624023,655.880615 1533.661743,583.321045 
	C1533.668335,570.396667 1532.433960,572.507935 1544.899902,572.325195 
	C1549.558716,572.256897 1554.221558,572.410461 1558.878418,572.294128 
	C1562.161499,572.212158 1563.892822,573.385803 1563.698730,576.897217 
	C1563.570312,579.219666 1563.692139,581.555542 1563.692139,583.885437 
	C1563.692993,676.415527 1563.713135,768.945618 1563.667725,861.475708 
	C1563.661987,873.312317 1565.485474,872.269043 1553.286133,872.351074 
	C1548.959351,872.380188 1544.607544,872.064819 1540.311768,872.430176 
	C1535.255371,872.860229 1533.434814,871.330322 1533.516724,865.905029 
	C1533.833374,844.940796 1533.643921,823.968933 1533.643188,801.999817 
z"/>
<path fill="#F9F9F9" opacity="0" stroke="none" 
	d="
M1536.179810,1322.265137 
	C1532.737671,1320.529663 1533.684570,1317.972656 1533.683594,1315.787842 
	C1533.636841,1220.587036 1533.633301,1125.386230 1533.658325,1030.185425 
	C1533.660400,1022.457275 1533.771118,1022.410034 1541.046631,1022.327515 
	C1547.037476,1022.259583 1553.031982,1022.419067 1559.020508,1022.287354 
	C1562.447998,1022.211914 1563.877808,1023.653809 1563.703125,1027.029663 
	C1563.582886,1029.353271 1563.693115,1031.688477 1563.693115,1034.018555 
	C1563.693848,1126.556396 1563.712158,1219.094238 1563.670410,1311.632080 
	C1563.665161,1323.243774 1565.490845,1322.288574 1553.139160,1322.347656 
	C1547.813354,1322.373047 1542.487427,1322.341919 1536.179810,1322.265137 
z"/>
<path fill="#FBFBFB" opacity="0" stroke="none" 
	d="
M453.657623,501.598969 
	C451.966522,481.854309 459.729156,467.468079 475.633942,458.155792 
	C490.394379,449.513519 506.311279,449.450134 521.135376,458.040588 
	C535.882141,466.586182 543.283325,479.746613 543.918701,497.374634 
	C544.560242,515.172302 531.762573,535.605896 512.365723,540.890442 
	C480.342957,549.615173 455.026581,527.987671 453.657623,501.598969 
z"/>
<path fill="#FBFBFB" opacity="0" stroke="none" 
	d="
M2431.734131,1354.957031 
	C2443.897949,1351.435425 2455.350098,1350.843506 2466.511230,1355.606567 
	C2485.175537,1363.571167 2495.159424,1381.239014 2493.664307,1403.166992 
	C2492.521240,1419.932617 2479.213379,1436.975952 2461.594482,1441.133911 
	C2434.089111,1447.624756 2410.602295,1435.156860 2404.571533,1408.482178 
	C2399.587402,1386.435181 2406.640381,1366.891479 2431.734131,1354.957031 
z"/>
<path fill="#FBFBFB" opacity="0" stroke="none" 
	d="
M1587.851074,1374.526367 
	C1601.571411,1399.741577 1591.183960,1431.007324 1564.472656,1440.109131 
	C1529.541138,1452.011963 1501.541138,1424.755005 1503.324219,1396.672119 
	C1504.562866,1377.164185 1513.010132,1363.513794 1530.163940,1355.991577 
	C1546.825073,1348.685425 1563.252441,1350.810547 1577.828003,1362.492188 
	C1581.766235,1365.648438 1584.582275,1369.802979 1587.851074,1374.526367 
z"/>
<path fill="#FBFBFB" opacity="0" stroke="none" 
	d="
M1249.730225,1364.240601 
	C1267.074463,1381.072754 1266.526611,1404.573853 1259.235474,1418.002075 
	C1250.441895,1434.197754 1237.175293,1442.694458 1218.054688,1442.529297 
	C1199.347412,1442.367676 1186.123901,1434.044067 1177.930908,1418.000366 
	C1169.043945,1400.597900 1172.120972,1376.888550 1188.950562,1362.614136 
	C1204.616577,1349.326538 1228.347778,1348.491211 1245.310791,1360.636841 
	C1246.660522,1361.603271 1247.918335,1362.698120 1249.730225,1364.240601 
z"/>
<path fill="#FBFBFB" opacity="0" stroke="none" 
	d="
M501.568054,1352.319092 
	C524.241394,1355.474976 538.692749,1368.048584 542.986755,1387.602295 
	C548.131226,1411.028931 534.388428,1435.606323 511.355072,1441.293091 
	C475.640045,1450.110474 453.592346,1422.558350 453.059204,1398.394653 
	C452.571014,1376.270752 472.556702,1349.792114 501.568054,1352.319092 
z"/>
<path fill="#FBFBFB" opacity="0" stroke="none" 
	d="
M817.494019,455.981384 
	C851.198303,472.789062 851.323303,516.252930 825.083374,534.616943 
	C802.399719,550.492126 764.542542,543.807373 755.261353,511.524200 
	C744.921997,475.560547 773.035400,447.163300 807.282654,452.974976 
	C810.468994,453.515656 813.957214,453.612183 817.494019,455.981384 
z"/>
<path fill="#FBFBFB" opacity="0" stroke="none" 
	d="
M1321.523560,453.816711 
	C1350.551880,463.042664 1361.578247,494.939667 1348.805420,518.626404 
	C1340.037720,534.885864 1326.391113,542.887939 1307.323608,542.543091 
	C1289.427368,542.219543 1276.326172,534.310974 1268.576538,519.140442 
	C1260.190918,502.725006 1260.532471,485.802521 1272.142090,470.315979 
	C1283.974243,454.532562 1299.843872,449.755859 1318.753662,453.433044 
	C1319.399780,453.558655 1320.065308,453.584442 1321.523560,453.816711 
z"/>
<path fill="#FBFBFB" opacity="0" stroke="none" 
	d="
M1503.658936,490.744324 
	C1511.043945,450.831299 1554.182129,443.089020 1576.851196,461.724976 
	C1591.309937,473.611328 1596.556152,489.258179 1593.017578,507.149994 
	C1589.594360,524.458069 1578.572510,536.757324 1561.536987,541.144470 
	C1525.828003,550.340576 1501.676270,522.624634 1503.623413,498.620972 
	C1503.811157,496.306793 1503.649414,493.964294 1503.658936,490.744324 
z"/>
<path fill="#FBFBFB" opacity="0" stroke="none" 
	d="
M2012.597900,540.303955 
	C2000.222412,535.291809 1991.112061,527.420837 1986.746216,515.743958 
	C1980.275513,498.436646 1981.746338,481.614288 1994.452637,467.213593 
	C2007.172119,452.797699 2023.617798,449.206909 2041.554077,453.994446 
	C2058.783936,458.593475 2069.594482,470.822052 2072.959229,488.000427 
	C2078.272217,515.124207 2062.501465,534.569214 2042.756592,540.675659 
	C2033.089966,543.665161 2023.158813,543.412781 2012.597900,540.303955 
z"/>
<path fill="#FBFBFB" opacity="0" stroke="none" 
	d="
M2299.860352,542.342651 
	C2278.940186,543.291870 2264.772461,533.700989 2257.132568,516.141357 
	C2249.587891,498.801086 2251.642822,481.511963 2264.724365,466.901733 
	C2277.545654,452.582367 2294.054443,449.197388 2311.928711,454.086945 
	C2329.141846,458.795532 2339.439453,471.293030 2343.181885,488.320190 
	C2349.273926,516.036316 2328.525635,541.975342 2299.860352,542.342651 
z"/>
<path fill="#FBFBFB" opacity="0" stroke="none" 
	d="
M1516.751343,914.705322 
	C1532.911133,898.280701 1561.827026,899.019409 1576.712036,911.567078 
	C1591.024536,923.632141 1596.559570,939.055420 1593.034424,957.012451 
	C1589.631958,974.344360 1578.685791,986.677612 1561.621216,991.109558 
	C1526.027466,1000.353760 1502.558716,972.872498 1503.320190,948.608276 
	C1503.734253,935.412964 1507.557983,924.661011 1516.751343,914.705322 
z"/>
<path fill="#F9F9F9" opacity="0" stroke="none" 
	d="
M1427.999756,1412.360229 
	C1385.093384,1412.361084 1343.187134,1412.352417 1301.280762,1412.370850 
	C1293.308716,1412.374390 1293.577515,1412.926880 1293.634033,1404.907837 
	C1293.676025,1398.921509 1293.729980,1392.932983 1293.617554,1386.948608 
	C1293.555054,1383.612061 1294.832153,1382.029053 1298.286377,1382.290405 
	C1300.270508,1382.440552 1302.275391,1382.312012 1304.270996,1382.312012 
	C1357.152832,1382.311523 1410.034546,1382.311523 1462.916382,1382.311523 
	C1464.579346,1382.311523 1466.254761,1382.443115 1467.902832,1382.286377 
	C1472.096680,1381.887207 1473.961914,1383.430664 1473.758667,1387.901489 
	C1473.471802,1394.207642 1473.442993,1400.549072 1473.766113,1406.851685 
	C1473.999634,1411.406738 1471.994995,1412.470581 1467.911987,1412.420776 
	C1454.942993,1412.262695 1441.970703,1412.360962 1427.999756,1412.360229 
z"/>
<path fill="#F8F8F8" opacity="0" stroke="none" 
	d="
M703.934937,512.359497 
	C662.385559,512.359253 621.824219,512.351257 581.262878,512.365540 
	C573.367432,512.368347 573.576111,513.001770 573.633362,504.889618 
	C573.675598,498.905457 573.729858,492.919312 573.620361,486.936951 
	C573.559143,483.592041 574.864441,482.032990 578.306030,482.292480 
	C580.289368,482.441986 582.293579,482.310852 584.288391,482.310822 
	C627.177063,482.310028 670.065674,482.309784 712.954346,482.310089 
	C714.949158,482.310089 716.948853,482.407227 718.937622,482.299072 
	C722.263733,482.118225 723.787598,483.460999 723.721863,486.928894 
	C723.589600,493.908264 723.566528,500.894470 723.728577,507.872559 
	C723.811951,511.462341 722.072083,512.444397 718.886047,512.376404 
	C714.233704,512.277039 709.577454,512.356323 703.934937,512.359497 
z"/>
<path fill="#F8F8F8" opacity="0" stroke="none" 
	d="
M2185.999023,512.359497 
	C2160.076660,512.359863 2135.152832,512.227722 2110.232422,512.469971 
	C2105.108643,512.519714 2103.126953,511.209412 2103.532715,505.864838 
	C2103.983887,499.917603 2103.828369,493.901764 2103.575439,487.931122 
	C2103.393311,483.633636 2104.940918,482.086029 2109.296631,482.231049 
	C2117.594971,482.507385 2125.908936,482.309753 2134.216553,482.309723 
	C2161.465332,482.309662 2188.713867,482.278900 2215.962646,482.330322 
	C2223.543945,482.344635 2223.588867,482.455841 2223.683105,489.930786 
	C2223.754395,495.578949 2223.441406,501.243317 2223.766602,506.873413 
	C2224.030762,511.444916 2221.963623,512.484924 2217.902100,512.416809 
	C2207.603760,512.244080 2197.300293,512.359497 2185.999023,512.359497 
z"/>
<path fill="#F8F8F8" opacity="0" stroke="none" 
	d="
M1386.574097,482.378906 
	C1413.438721,482.317780 1439.345215,482.289337 1465.251709,482.325592 
	C1473.549438,482.337189 1473.852051,482.425232 1473.601318,490.218842 
	C1473.370239,497.402191 1476.840088,506.645538 1471.957886,511.193573 
	C1467.623413,515.231445 1458.619385,512.271606 1451.683105,512.314758 
	C1431.423584,512.440857 1411.162842,512.392822 1390.902710,512.342957 
	C1383.790527,512.325439 1383.736328,512.233215 1383.651978,505.553131 
	C1383.576416,499.575684 1383.616089,493.596375 1383.652466,487.618164 
	C1383.664185,485.674683 1383.339722,483.546875 1386.574097,482.378906 
z"/>
</svg>