<svg version="1.1" id="Layer_1" xmlns="http://www.w3.org/2000/svg" xmlns:xlink="http://www.w3.org/1999/xlink" x="0px" y="0px" height="100%" viewBox="0 0 2940 2340" enable-background="new 0 0 2940 2340" xml:space="preserve">
<path fill="#FDFDFD" class="lim" opacity="0" id="" stroke="none" d=" M2497.897461,1028.335693   C2504.801025,1028.335693 2510.723145,1028.335693 2517.144043,1028.335693   C2517.144043,1124.445679 2517.144043,1219.631836 2517.144043,1314.839355   C2509.240234,1316.952637 1663.364990,1317.982300 1630.293945,1315.857544   C1630.293945,1220.430298 1630.293945,1124.959839 1630.293945,1028.335693   C1919.159912,1028.335693 2208.037842,1028.335693 2497.897461,1028.335693  z"/>
<path fill="#FDFDFD" class="lim" opacity="0" id="Salon_24" stroke="none" d=" M2379.662842,383.999817   C2379.662842,298.425385 2379.662842,213.850937 2379.662842,128.805725   C2525.769531,128.805725 2670.969727,128.805725 2816.917480,128.805725   C2816.917480,274.240540 2816.917480,419.667206 2816.917480,565.713013   C2671.552002,565.713013 2526.113037,565.713013 2379.662842,565.713013   C2379.662842,505.426819 2379.662842,445.213318 2379.662842,383.999817  z"/>
<path fill="#FDFDFD" class="lim" opacity="0" id="" stroke="none" d=" M721.999817,1316.336914   C624.356812,1316.336914 527.713867,1316.336914 430.368073,1316.336914   C430.368073,1220.576782 430.368073,1125.100952 430.368073,1028.979370   C605.564392,1028.979370 781.019470,1028.979370 957.076355,1028.979370   C957.076355,1124.565552 957.076355,1220.006836 957.076355,1316.336914   C878.821777,1316.336914 800.910828,1316.336914 721.999817,1316.336914  z"/>
<path fill="#FDFDFD" class="lim" opacity="0" id="Salon_22" stroke="none" d=" M1467.671875,1200.000244   C1467.671875,1238.955444 1467.671875,1276.910645 1467.671875,1315.600464   C1301.746094,1315.600464 1136.314941,1315.600464 970.272339,1315.600464   C970.272339,1220.397217 970.272339,1124.932617 970.272339,1028.901001   C1135.768311,1028.901001 1301.212280,1028.901001 1467.671875,1028.901001   C1467.671875,1085.871094 1467.671875,1142.435547 1467.671875,1200.000244  z"/>
<path fill="#FDFDFD" class="lim" opacity="0" id="" stroke="none" d=" M129.661621,144.124557   C129.661621,138.545731 129.661621,133.947250 129.661621,128.844177   C225.666733,128.844177 320.876434,128.844177 416.119171,128.844177   C418.172638,136.031189 419.074219,541.658813 416.999573,565.671021   C321.616455,565.671021 226.176270,565.671021 129.661621,565.671021   C129.661621,425.507904 129.661621,285.306427 129.661621,144.124557  z"/>
<path fill="#FDFDFD" class="lim" opacity="0" id="" stroke="none" d=" M2817.665283,1074.000244   C2817.665283,1204.948975 2817.665283,1334.897705 2817.665283,1465.588501   C2721.745117,1465.588501 2626.312500,1465.588501 2530.270996,1465.588501   C2530.270996,1320.392456 2530.270996,1174.931396 2530.270996,1028.902222   C2625.768799,1028.902222 2721.217285,1028.902222 2817.665283,1028.902222   C2817.665283,1043.856567 2817.665283,1058.428467 2817.665283,1074.000244  z"/>
<path fill="#FDFDFD" class="lim" opacity="0" id="" stroke="none" d=" M237.999863,1466.331177   C201.688644,1466.331177 166.377441,1466.331177 130.364319,1466.331177   C130.364319,1320.573242 130.364319,1175.104736 130.364319,1028.985107   C225.569916,1028.985107 321.023987,1028.985107 417.072174,1028.985107   C417.072174,1174.551514 417.072174,1319.987549 417.072174,1466.331177   C357.485077,1466.331177 298.242493,1466.331177 237.999863,1466.331177  z"/>
<path fill="#FDFDFD" class="lim" opacity="0" id="" stroke="none" d=" M429.664032,401.934753   C429.664001,310.371643 429.664001,219.804474 429.664001,128.785675   C525.803833,128.785675 621.007446,128.785675 716.945190,128.785675   C716.945190,224.283447 716.945190,319.713562 716.945190,415.740173   C621.516052,415.740173 526.072021,415.740173 429.664062,415.740173   C429.664062,411.406982 429.664062,407.168823 429.664032,401.934753  z"/>
<path fill="#FDFDFD" class="lim" opacity="0" id="" stroke="none" d=" M955.999817,416.334839   C880.357788,416.334839 805.715881,416.334839 730.367554,416.334839   C730.367554,320.580566 730.367554,225.109222 730.367554,128.983246   C825.563049,128.983246 921.015259,128.983246 1017.067383,128.983246   C1017.067383,224.551132 1017.067383,319.990814 1017.067383,416.334839   C996.829102,416.334839 976.914490,416.334839 955.999817,416.334839  z"/>
<path fill="#FDFDFD" class="lim" opacity="0" id="" stroke="none" d=" M1317.678711,258.000183   C1317.678711,310.954590 1317.678711,362.909027 1317.678711,415.598328   C1221.751221,415.598328 1126.317749,415.598328 1030.273438,415.598328   C1030.273438,320.388763 1030.273438,224.924347 1030.273438,128.894775   C1125.768433,128.894775 1221.217163,128.894775 1317.678711,128.894775   C1317.678711,171.868683 1317.678711,214.434418 1317.678711,258.000183  z"/>
<path fill="#FDFDFD" class="lim" opacity="0" id="" stroke="none" d=" M1617.666016,170.000549   C1617.666016,252.285980 1617.666016,333.571472 1617.666016,415.595520   C1521.750122,415.595520 1426.317383,415.595520 1330.271851,415.595520   C1330.271851,320.394043 1330.271851,224.929947 1330.271851,128.897308   C1425.765259,128.897308 1521.212524,128.897308 1617.666016,128.897308   C1617.666016,142.520065 1617.666016,155.760345 1617.666016,170.000549  z"/>
<path fill="#FDFDFD" class="lim" opacity="0" id="" stroke="none" d=" M1779.661011,371.999756   C1779.661011,290.426666 1779.661011,209.853500 1779.661011,128.807800   C1875.761597,128.807800 1970.962769,128.807800 2066.164551,128.807693   C2068.104980,136.034698 2068.854980,395.748352 2066.931396,415.708252   C1971.555542,415.708252 1876.116943,415.708252 1779.661011,415.708252   C1779.661011,401.443054 1779.661011,387.221375 1779.661011,371.999756  z"/>
<path fill="#FDFDFD" class="lim" opacity="0" id="" stroke="none" d=" M2359.664062,416.336060   C2266.083984,416.335754 2173.468018,416.335754 2080.256836,416.335754   C2080.256836,320.367920 2080.256836,224.902115 2080.256836,128.884094   C2175.809082,128.884094 2271.258545,128.884094 2367.191162,128.884094   C2367.191162,224.551819 2367.191162,319.740784 2367.191162,415.655823   C2365.008057,415.882202 2362.818359,416.109283 2359.664062,416.336060  z"/>
<path fill="#FDFDFD" class="lim" opacity="0" id="" stroke="none" d=" M2217.662109,861.494690   C2217.174316,863.607117 2216.938965,865.508972 2216.159424,865.767151   C2214.327881,866.373718 2212.236572,866.314636 2210.250244,866.315613   C2168.250977,866.337341 2126.251465,866.331726 2084.252197,866.320374   C2083.000732,866.320007 2081.749023,866.201172 2080.189697,866.121948   C2080.189697,770.057129 2080.189697,674.604614 2080.189697,578.741882   C2125.921875,578.741882 2171.124268,578.741882 2217.667480,578.741882   C2217.667480,672.827942 2217.667480,766.682556 2217.662109,861.494690  z"/>
<path fill="#FDFDFD" class="lim" opacity="0" id="" stroke="none" d=" M898.095215,578.331726   C938.070129,578.331726 977.056152,578.331726 1015.933472,578.331726   C1018.208740,585.969788 1019.144775,839.767761 1017.040833,865.644836   C971.664429,865.644836 926.223816,865.644836 880.219055,865.644836   C880.219055,770.298645 880.219055,674.840149 880.219055,578.331726   C885.964355,578.331726 891.535400,578.331726 898.095215,578.331726  z"/>
<path fill="#FDFDFD" class="lim" opacity="0" id="" stroke="none" d=" M1629.661499,317.999817   C1629.661499,254.424286 1629.661499,191.848755 1629.661499,128.802780   C1675.752197,128.802780 1720.958984,128.802780 1766.162964,128.802780   C1768.108154,136.048264 1768.857178,395.799927 1766.932861,415.717590   C1721.554688,415.717590 1676.111450,415.717590 1629.661499,415.717590   C1629.661499,383.432465 1629.661499,351.216156 1629.661499,317.999817  z"/>
<path fill="#CDE0E7" id="F1-G1" opacity="0" stroke="none" d=" M978.000122,1382.306030   C1143.558105,1382.306030 1308.116211,1382.306030 1473.185791,1382.306030   C1473.185791,1392.499878 1473.185791,1401.689453 1473.185791,1411.626953   C1173.735474,1411.626953 874.312927,1411.626953 574.258606,1411.626953   C574.258606,1402.377075 574.258606,1392.913696 574.258606,1382.306030   C708.574158,1382.306030 842.787109,1382.306030 978.000122,1382.306030  z"/>
<path fill="#CDE0E6" id="B1-C1" opacity="0" stroke="none" d=" M1149.999756,512.363892   C957.692322,512.363892 766.384949,512.363892 574.352295,512.363892   C574.352295,502.625000 574.352295,493.142120 574.352295,482.977997   C873.573120,482.977997 1173.020752,482.977997 1473.086182,482.977997   C1473.086182,492.560944 1473.086182,502.003571 1473.086182,512.363892   C1365.484131,512.363892 1258.241943,512.363892 1149.999756,512.363892  z"/>
<path fill="#CDE0E7" id="G1-H1" opacity="0" stroke="none" d=" M1672.000000,1382.306030   C1906.228882,1382.306030 2139.457764,1382.306030 2373.197754,1382.306030   C2373.197754,1392.496460 2373.197754,1401.687012 2373.197754,1411.627197   C2123.735107,1411.627197 1874.301880,1411.627197 1623.631592,1411.627197   C1623.631592,1407.009399 1623.631714,1402.139771 1623.631714,1397.270142   C1623.631836,1392.656128 1623.631592,1388.041992 1623.631592,1382.306030   C1639.877441,1382.306030 1655.438721,1382.306030 1672.000000,1382.306030  z"/>
<path fill="#CDE0E6" id="C1-D1" opacity="0" stroke="none" d=" M2193.987061,482.312958   C2204.229248,482.312958 2213.473877,482.312958 2223.192139,482.312958   C2223.192139,492.510529 2223.192139,501.699615 2223.192139,511.632202   C2023.726440,511.632202 1824.298462,511.632202 1623.630127,511.632202   C1623.630127,507.007355 1623.630127,502.138397 1623.630127,497.269440   C1623.630127,492.657959 1623.630127,488.046478 1623.630127,482.312958   C1813.908936,482.312958 2003.449341,482.312958 2193.987061,482.312958  z"/>
<path fill="#CEE0E7" id="W-E1" opacity="0" stroke="none" d=" M1083.639404,805.839844   C1083.638062,790.889709 1083.638062,776.929626 1083.638062,762.302734   C1093.537231,762.302734 1103.002563,762.302734 1113.213867,762.302734   C1113.213867,768.430969 1113.213867,774.641113 1113.213867,781.860107   C1203.370483,781.860107 1292.805420,781.860107 1383.278320,781.860107   C1383.278320,832.285767 1383.278320,881.723083 1383.278320,932.204102   C1413.741943,932.204102 1443.190430,932.204102 1473.158203,932.204102   C1473.158203,942.422546 1473.158203,951.607544 1473.158203,960.816711   C1465.740112,962.852295 1379.925049,963.635620 1353.874878,961.808655   C1353.874878,912.469421 1353.874878,863.037231 1353.874878,812.363342   C1349.303711,812.363342 1345.759766,812.363403 1342.215820,812.363403   C1259.912109,812.363525 1177.608398,812.363708 1095.304688,812.362488   C1092.639038,812.362427 1089.971680,812.282288 1087.308105,812.353271   C1083.073242,812.466064 1083.719604,809.427246 1083.639404,805.839844  z"/>
<path fill="#CEE0E7" id="E1-V" opacity="0" stroke="none" d=" M1916.000000,782.301819   C1938.898071,782.301819 1960.796143,782.301819 1983.445801,782.301819   C1983.445801,775.172485 1983.445801,768.968872 1983.445801,762.208984   C1993.672119,762.208984 2003.140625,762.208984 2013.162598,762.208984   C2013.162598,778.574524 2013.162598,794.746704 2013.162598,811.988281   C1923.768921,811.988281 1834.383545,811.988281 1743.918213,811.988281   C1743.918213,862.450256 1743.918213,911.867310 1743.918213,961.814331   C1703.399658,961.814331 1663.964600,961.814331 1624.076416,961.814331   C1624.076416,952.270142 1624.076416,943.052917 1624.076416,932.404541   C1638.843262,932.208008 1653.670410,932.341431 1668.490723,932.317505   C1683.119873,932.293945 1697.749146,932.312378 1713.405029,932.312378   C1713.405029,882.282715 1713.405029,832.828979 1713.405029,782.301819   C1781.288330,782.301819 1848.144165,782.301819 1916.000000,782.301819  z"/>
<path fill="#CEE0E7" id="E1-G1" opacity="0" stroke="none" d=" M1533.627197,1185.999756   C1533.627197,1131.092896 1533.627197,1077.185913 1533.627197,1022.790527   C1543.734741,1022.790527 1552.944458,1022.790527 1562.156738,1022.796143   C1564.124023,1029.970459 1564.892334,1302.029663 1562.937012,1321.708252   C1553.577759,1321.708252 1544.135498,1321.708252 1533.627319,1321.708252   C1533.627319,1276.754150 1533.627319,1231.876953 1533.627197,1185.999756  z"/>
<path fill="#CEE0E7" id="C1-E1" opacity="0" stroke="none" d=" M1533.627197,737.999817   C1533.627197,682.425232 1533.627197,627.850708 1533.627197,572.792542   C1543.732056,572.792542 1552.941895,572.792542 1562.152954,572.792542   C1564.114868,579.995605 1564.859619,852.735474 1562.907227,871.727173   C1553.547485,871.727173 1544.103149,871.727173 1533.627319,871.727173   C1533.627319,827.428284 1533.627319,783.214111 1533.627197,737.999817  z"/>
<path fill="#E0E0E0" id="E1" opacity="0" stroke="none" d=" M1533.198730,904.305664   C1546.583008,901.328369 1558.915161,901.037842 1570.680664,907.593933   C1587.214844,916.807312 1596.010864,934.746765 1593.617065,954.787537   C1591.669067,971.094543 1577.832031,987.952209 1561.016724,991.370178   C1536.539429,996.345642 1514.048828,988.971741 1505.500000,961.674683   C1498.812256,940.320374 1504.384521,921.855469 1525.301636,908.128784   C1527.509766,906.679749 1530.043457,905.727173 1533.198730,904.305664  z"/>
<path fill="#E0E0E0" id="D1" opacity="0" stroke="none" d=" M2279.625488,539.065063   C2261.300537,529.471924 2252.693359,515.328125 2253.504883,495.056488   C2254.218994,477.230652 2262.497559,464.156677 2277.981201,456.951019   C2315.266846,439.599213 2344.562744,470.209808 2344.074219,497.155670   C2343.748047,515.167847 2331.878906,535.427307 2312.538818,540.803040   C2301.845703,543.775208 2290.885742,543.749512 2279.625488,539.065063  z"/>
<path fill="#E0E0E0" id="C1" opacity="0" stroke="none" d=" M1539.072021,542.237000   C1523.908325,538.306335 1512.650757,530.228455 1507.134766,516.399963   C1500.294434,499.251862 1501.495117,482.523651 1513.973877,467.835724   C1526.496338,453.096558 1542.766968,449.353821 1560.786499,453.809082   C1578.121338,458.095093 1588.643433,470.070251 1592.751587,487.229187   C1598.414917,510.883850 1584.939941,534.580200 1561.702148,541.059082   C1554.861206,542.966309 1547.216431,541.990295 1539.072021,542.237000  z"/>
<path fill="#E0E0E0" id="B1" opacity="0" stroke="none" d=" M540.044983,478.536926   C550.419067,505.737488 538.340515,527.870605 521.203369,537.105225   C488.960388,554.479858 451.746765,530.881531 453.365479,497.107819   C454.300323,477.601868 462.601654,463.776703 479.742218,456.144409   C496.323212,448.761200 513.058350,450.356445 527.388123,462.351685   C532.349670,466.504883 535.679443,472.607330 540.044983,478.536926  z"/>
<path fill="#E0E0E0" id="V" opacity="0" stroke="none" d=" M1996.216797,752.340576   C1976.846313,754.525574 1953.086914,732.375305 1953.290405,710.197083   C1953.475586,690.021057 1960.995483,675.357788 1978.656494,666.487305   C2008.557983,651.468872 2042.998901,673.501709 2043.911255,706.877808   C2044.456299,726.816284 2030.072998,746.063782 2012.808350,750.650513   C2007.786499,751.984680 2002.366211,751.819092 1996.216797,752.340576  z"/>
<path fill="#E0E0E0" id="F1" opacity="0" stroke="none" d=" M465.698120,1365.708740   C482.696381,1347.694092 512.164124,1349.462036 526.393433,1361.281128   C540.842651,1373.282959 546.463867,1388.670654 543.157959,1406.585205   C539.961731,1423.905029 529.158325,1436.317017 512.042114,1440.950073   C476.674744,1450.523071 452.680328,1423.398682 453.334473,1399.063843   C453.677216,1386.315308 456.967255,1375.637695 465.698120,1365.708740  z"/>
<path fill="#E0E0E0" id="G1" opacity="0" stroke="none" d=" M1593.677856,1392.735596   C1593.717041,1417.993774 1583.800781,1434.226807 1563.045898,1440.523560   C1527.609497,1451.274292 1503.775269,1423.618042 1503.105225,1399.281494   C1502.483276,1376.690796 1520.109741,1354.491333 1542.818604,1352.336426   C1569.062012,1349.846191 1588.622559,1365.033203 1593.677856,1392.735596  z"/>
<path fill="#E0E0E0" id="H1" opacity="0" stroke="none" d=" M2405.921875,1380.812378   C2417.242188,1356.835693 2437.548096,1348.262817 2461.245850,1353.777588   C2479.014893,1357.912598 2493.111572,1376.197021 2493.770020,1394.526123   C2494.504883,1414.984863 2486.241455,1430.563477 2467.703125,1438.677734   C2442.619385,1449.656982 2414.600586,1439.389648 2405.337646,1412.003662   C2402.018066,1402.188232 2402.480469,1391.692505 2405.921875,1380.812378  z"/>
<path fill="#E0E0E0" id="W" opacity="0" stroke="none" d=" M1068.294189,741.823120   C1046.560059,722.949097 1048.741089,685.768799 1072.374268,670.081970   C1087.520020,660.028748 1103.742065,659.045532 1119.603394,667.237244   C1135.161133,675.272095 1143.015381,688.616882 1143.902100,706.686707   C1144.766113,724.294922 1133.087036,745.357178 1111.984985,750.946899   C1096.665527,755.004883 1081.570190,753.371155 1068.294189,741.823120  z"/>
</svg>