<svg version="1.1" id="Layer_1" xmlns="http://www.w3.org/2000/svg" xmlns:xlink="http://www.w3.org/1999/xlink" x="0px" y="0px" height="100%" viewBox="0 0 2940 2340" enable-background="new 0 0 2940 2340" xml:space="preserve">
<path class="lim" fill="#FDFDFD" opacity="0" stroke="none" d=" M1732.000244,1028.335815   C1994.226562,1028.335815 2255.452881,1028.335815 2517.177734,1028.335815   C2517.177734,1124.514404 2517.177734,1219.701904 2517.177734,1315.614502   C2221.733398,1315.614502 1926.301270,1315.614502 1630.267212,1315.614502   C1630.267212,1220.379272 1630.267212,1124.912354 1630.267212,1028.335815   C1663.885376,1028.335815 1697.442749,1028.335815 1732.000244,1028.335815  z" id="Lab_Ingles"></path>
<path class="lim" fill="#FDFDFD" opacity="0" stroke="none" d=" M2624.000000,128.333649   C2688.897461,128.333649 2752.794922,128.333649 2817.175781,128.333649   C2817.175781,274.516205 2817.175781,419.699280 2817.175781,565.606934   C2671.726562,565.606934 2526.295654,565.606934 2380.263184,565.606934   C2380.263184,420.366089 2380.263184,274.906372 2380.263184,128.333649   C2461.235596,128.333649 2542.117920,128.333649 2624.000000,128.333649  z" id="Salon_24"></path>
<path class="lim" fill="#FDFDFD" opacity="0" stroke="none" d=" M669.999817,1316.336792   C589.689575,1316.336792 510.379395,1316.336792 430.367310,1316.336792   C430.367310,1220.574829 430.367310,1125.098877 430.367310,1028.978271   C605.565369,1028.978271 781.020752,1028.978271 957.077087,1028.978271   C957.077087,1124.567383 957.077087,1220.008667 957.077087,1316.336792   C861.487000,1316.336792 766.243408,1316.336792 669.999817,1316.336792  z" id="Salon_23"></path>
<path class="lim" fill="#FDFDFD" opacity="0" stroke="none" d=" M1467.671753,1082.000244   C1467.671753,1160.286377 1467.671753,1237.572510 1467.671753,1315.597290   C1301.751099,1315.597290 1136.320312,1315.597290 970.275269,1315.597290   C970.275269,1220.402466 970.275269,1124.937744 970.275269,1028.903442   C1135.762451,1028.903442 1301.206543,1028.903442 1467.671753,1028.903442   C1467.671753,1046.525391 1467.671753,1063.762695 1467.671753,1082.000244  z" id="Salon_22"></path>
<path class="lim" fill="#FDFDFD" opacity="0" stroke="none" d=" M217.999863,1466.331055   C188.354919,1466.331055 159.710007,1466.331055 130.363892,1466.331055   C130.363892,1320.572021 130.363892,1175.103516 130.363892,1028.984497   C225.570496,1028.984497 321.024719,1028.984497 417.072571,1028.984497   C417.072571,1174.552612 417.072571,1319.988647 417.072571,1466.331055   C350.817505,1466.331055 284.908691,1466.331055 217.999863,1466.331055  z" id="Computacion_I_II"></path>
<path class="lim" fill="#66c0f4" opacity="0" stroke="none" d=" M129.661713,363.999817   C129.661713,285.091156 129.661713,207.182526 129.661713,128.804153   C225.763229,128.804153 320.967529,128.804153 416.918701,128.804153   C416.918701,274.241486 416.918701,419.668304 416.918701,565.713989   C321.549713,565.713989 226.107666,565.713989 129.661713,565.713989   C129.661713,498.759827 129.661713,431.879852 129.661713,363.999817  z" id="Salon_21"></path>
<path class="lim" fill="#FDFDFD" opacity="0" stroke="none" d=" M2817.665283,1218.000244   C2817.665283,1300.951782 2817.665283,1382.903320 2817.665283,1465.592529   C2721.742432,1465.592529 2626.308594,1465.592529 2530.267578,1465.592529   C2530.267578,1320.385376 2530.267578,1174.924683 2530.267578,1028.899170   C2625.776855,1028.899170 2721.224854,1028.899170 2817.665283,1028.899170   C2817.665283,1091.869873 2817.665283,1154.435059 2817.665283,1218.000244  z" id="Aula_4.0"></path>
<path class="lim" fill="#FDFDFD" opacity="0" stroke="none" d=" M1029.664307,142.164093   C1029.664307,137.247971 1029.664307,133.311401 1029.664307,128.856308   C1125.632324,128.856308 1220.843872,128.856308 1316.102051,128.856308   C1318.204712,135.953751 1319.122803,390.730988 1317.031128,415.656830   C1221.651611,415.656830 1126.211670,415.656830 1029.664307,415.656830   C1029.664307,324.876373 1029.664307,234.010025 1029.664307,142.164093  z" id="Salon_18"></path>
<path class="lim" fill="#FDFDFD" opacity="0" stroke="none" d=" M699.910889,416.334778   C609.619934,416.334747 520.318665,416.334747 430.340942,416.334747   C430.340942,320.518097 430.340942,225.046173 430.340942,128.951874   C525.626953,128.951874 621.082031,128.951874 717.108398,128.951874   C717.108398,224.361023 717.108398,319.541687 717.108398,416.146362   C711.872192,416.207214 706.386353,416.270996 699.910889,416.334778  z" id="Salon_20"></path>
<path class="lim" fill="#FDFDFD" opacity="0" stroke="none" d=" M2134.000000,416.334656   C2115.687500,416.334686 2098.375000,416.334686 2080.362305,416.334686   C2080.362305,320.577728 2080.362305,225.106461 2080.362305,128.982819   C2175.565430,128.982819 2271.017822,128.982819 2367.072754,128.982819   C2367.072754,224.565598 2367.072754,320.004089 2367.072754,416.334656   C2289.481445,416.334656 2212.240723,416.334656 2134.000000,416.334656  z" id="Salon_15"></path>
<path class="lim" fill="#FDFDFD" opacity="0" stroke="none" d=" M1884.000244,128.332001   C1945.563599,128.332001 2006.126953,128.332001 2067.178955,128.332001   C2067.178955,224.508163 2067.178955,319.690369 2067.178955,415.604004   C1971.728149,415.604004 1876.296997,415.604004 1780.262573,415.604004   C1780.262573,320.369751 1780.262573,224.909164 1780.262573,128.332001   C1814.561279,128.332001 1848.780640,128.332001 1884.000244,128.332001  z" id="Salon_16"></path>
<path class="lim" fill="#FDFDFD" opacity="0" stroke="none" d=" M1421.999756,416.334747   C1391.021729,416.334747 1361.043823,416.334747 1330.363892,416.334747   C1330.363892,320.571869 1330.363892,225.099625 1330.363892,128.978058   C1425.567261,128.978058 1521.021240,128.978058 1617.071289,128.978058   C1617.071289,224.559326 1617.071289,319.999268 1617.071289,416.334747   C1552.151611,416.334747 1487.575684,416.334747 1421.999756,416.334747  z" id="Salon_17"></path>
<path class="lim" fill="#FDFDFD" opacity="0" stroke="none" d=" M806.000183,128.331894   C876.896790,128.331894 946.793274,128.331894 1017.175415,128.331894   C1017.175415,224.512695 1017.175415,319.697784 1017.175415,415.609314   C921.727295,415.609314 826.293579,415.609314 730.259521,415.609314   C730.259521,320.370117 730.259521,224.907242 730.259521,128.331894   C755.219849,128.331894 780.109985,128.331894 806.000183,128.331894  z" id="Salon_19"></path>



<path fill="#CDE0E7" opacity="0" stroke="none" d=" M1352.000000,1382.306152   C1392.899170,1382.306152 1432.798462,1382.306152 1473.194092,1382.306152   C1473.194092,1392.517822 1473.194092,1401.707886 1473.194092,1411.636230   C1173.719849,1411.636230 874.296814,1411.636230 574.250305,1411.636230   C574.250305,1402.360229 574.250305,1392.897583 574.250305,1382.306152   C833.254272,1382.306152 1092.127197,1382.306152 1352.000000,1382.306152  z" id="F1-G1"></path>
<path fill="#CDE0E6" opacity="0" stroke="none" d=" M573.631104,501.964722   C573.631409,495.065613 573.631409,489.148376 573.631409,482.788025   C873.799072,482.788025 1173.000977,482.788025 1472.953125,482.788025   C1472.953125,492.266449 1472.953125,501.703674 1472.953125,511.771362   C1173.510620,511.771362 874.066284,511.771362 573.630737,511.771362   C573.630737,508.735535 573.630737,505.841064 573.631104,501.964722  z" id="B1-C1"></path>
<path fill="#CDE0E7" opacity="0" stroke="none" d=" M1838.000000,1382.306152   C2016.896484,1382.306152 2194.792969,1382.306152 2373.198730,1382.306152   C2373.198730,1392.499756 2373.198730,1401.690308 2373.198730,1411.628662   C2123.732178,1411.628662 1874.299316,1411.628662 1623.631714,1411.628662   C1623.631714,1407.006226 1623.631714,1402.136230 1623.631714,1397.266235   C1623.631714,1392.652710 1623.631714,1388.039185 1623.631714,1382.306152   C1695.227051,1382.306152 1766.113525,1382.306152 1838.000000,1382.306152  z" id="G1-H1"></path>
<path fill="#CDE0E6" opacity="0" stroke="none" d=" M1670.000000,512.364075   C1654.355591,512.364075 1639.711426,512.364075 1624.346069,512.364075   C1624.346069,502.588989 1624.346069,493.109344 1624.346069,482.962494   C1823.593872,482.962494 2023.039062,482.962494 2223.093262,482.962494   C2223.093262,492.575317 2223.093262,502.016327 2223.093262,512.364075   C2038.802734,512.364075 1854.901367,512.364075 1670.000000,512.364075  z" id="C1-D1"></path>
<path fill="#CEE0E7" opacity="0" stroke="none" d=" M1289.520996,812.340210   C1220.642822,812.361816 1152.722534,812.361816 1084.220459,812.361816   C1084.220459,742.296936 1084.220459,672.851501 1084.220459,602.857056   C1153.620361,602.857056 1222.814819,602.857056 1292.861206,602.857056   C1292.861206,612.053711 1292.861206,621.485413 1292.861206,632.031006   C1233.711304,632.031006 1174.292969,632.031006 1114.290161,632.031006   C1114.290161,682.551331 1114.290161,731.976929 1114.290161,782.097534   C1173.754639,782.097534 1232.948853,782.097534 1293.355347,782.097534   C1293.999023,791.873047 1293.762207,801.069641 1293.425415,810.247681   C1293.398804,810.973022 1291.504883,811.629883 1289.520996,812.340210  z" id="W-X"></path>
<path fill="#CDE0E7" opacity="0" stroke="none" d=" M1810.420044,782.299072   C1868.363647,782.298279 1925.342285,782.298279 1982.973389,782.298279   C1982.973389,732.349609 1982.973389,682.908508 1982.973389,632.745361   C1973.491577,632.745361 1964.278198,632.745361 1954.344727,632.745361   C1954.344727,622.582336 1954.344727,613.103333 1954.344727,602.958374   C1973.611328,602.958374 1993.067993,602.958374 2013.122192,602.958374   C2013.122192,672.972168 2013.122192,742.766724 2013.122192,812.613647   C1943.387939,812.613647 1873.984619,812.613647 1803.654297,812.613647   C1803.654297,803.317017 1803.766846,795.076599 1803.609253,786.841309   C1803.524536,782.419434 1806.164917,782.080383 1810.420044,782.299072  z" id="V-U"></path>
<path fill="#CDDFE6" opacity="0" stroke="none" d=" M1744.372803,679.999512   C1744.372803,693.570618 1744.372803,706.141968 1744.372803,719.198669   C1734.296143,719.198669 1725.091064,719.198669 1715.860229,719.198669   C1713.808472,712.010559 1713.039917,624.033691 1714.962280,599.648987   C1784.114624,599.558899 1853.371948,599.613403 1923.154053,601.615967   C1923.154053,611.599609 1923.154053,620.805969 1923.154053,631.488037   C1864.056763,632.635864 1804.782471,628.716797 1744.372803,629.948120   C1744.372803,646.589966 1744.372803,662.794861 1744.372803,679.999512  z" id="V-Y"></path>
<path fill="#CEE0E7" opacity="0" stroke="none" d=" M1563.689941,1283.998779   C1563.689941,1296.954590 1563.689941,1308.910645 1563.689941,1321.609619   C1553.742310,1321.609619 1544.306396,1321.609619 1534.241821,1321.609619   C1534.241821,1222.346680 1534.241821,1122.893188 1534.241821,1022.868286   C1543.787720,1022.868286 1553.236084,1022.868286 1563.689941,1022.868286   C1563.689941,1109.886597 1563.689941,1196.442871 1563.689941,1283.998779  z" id="E1-G1"></path>
<path fill="#CEE0E7" opacity="0" stroke="none" d=" M1533.627441,753.999817   C1533.627319,693.092529 1533.627319,633.185364 1533.627319,572.793335   C1543.732788,572.793335 1552.942871,572.793335 1562.151978,572.793335   C1564.112305,579.981506 1564.859497,852.714966 1562.908447,871.726135   C1553.548828,871.726135 1544.104614,871.726135 1533.627441,871.726135   C1533.627441,832.763123 1533.627441,793.881470 1533.627441,753.999817  z" id="C1-E1"></path>
<path fill="#E0E0E0" opacity="0" stroke="none" d=" M1587.857666,924.522705   C1601.101440,948.454590 1592.212769,979.324524 1566.337280,989.434082   C1532.603027,1002.614014 1501.644043,977.208557 1503.355103,946.673096   C1504.425415,927.573669 1512.555176,913.964478 1529.232056,906.367310   C1546.116821,898.675354 1563.013794,900.411987 1577.777100,912.565063   C1581.551270,915.671936 1584.254761,920.079346 1587.857666,924.522705  z" id="E1"></path>
<path fill="#E0E0E0" opacity="0" stroke="none" d=" M1766.192627,772.063782   C1782.051636,794.464966 1773.618896,831.682739 1742.584351,840.733154   C1707.360596,851.005249 1683.760742,823.684509 1683.215698,799.678528   C1682.685181,776.307434 1698.036255,759.222717 1712.833984,754.611328   C1731.722046,748.725403 1752.532593,752.218872 1766.192627,772.063782  z" id="V"></path>
<path fill="#E0E0E0" opacity="0" stroke="none" d=" M1327.957520,776.526733   C1340.574219,754.788574 1360.211670,748.950684 1380.992065,753.721191   C1398.823120,757.814575 1413.047852,776.015076 1413.773560,794.281860   C1414.586426,814.743347 1406.406860,830.321045 1387.903687,838.576050   C1362.930664,849.717712 1334.490356,839.479492 1325.478882,812.172180   C1321.705444,800.737488 1321.844482,788.560669 1327.957520,776.526733  z" id="W"></path>
<path fill="#E0E0E0" opacity="0" stroke="none" d=" M2320.236572,457.377502   C2347.491455,472.824036 2350.126953,506.948853 2333.822998,526.583130   C2321.378418,541.569946 2304.807861,545.464478 2286.974609,541.549194   C2270.219238,537.870544 2258.542725,526.379028 2254.636719,509.551331   C2250.478271,491.635773 2254.183350,474.813507 2269.117920,462.565460   C2284.479736,449.966858 2301.685303,449.155579 2320.236572,457.377502  z" id="D1"></path>
<path fill="#E0E0E0" opacity="0" stroke="none" d=" M453.643921,1396.149536   C454.265839,1369.883545 473.423401,1352.088379 499.838379,1352.326538   C524.488403,1352.548828 543.448975,1372.002319 543.755981,1396.855957   C543.983582,1415.289673 536.143982,1429.343872 520.140808,1437.544922   C487.340088,1454.354370 450.861938,1429.721069 453.643921,1396.149536  z" id="F1"></path>
<path fill="#E0E0E0" opacity="0" stroke="none" d=" M1516.720947,1364.674683   C1533.267212,1348.060181 1562.205078,1349.253174 1576.750977,1361.549072   C1591.058960,1373.644165 1596.545166,1389.090088 1593.047852,1407.035034   C1589.666382,1424.386719 1578.693848,1436.695679 1561.610352,1441.117065   C1525.996948,1450.334473 1502.492920,1422.851074 1503.299438,1398.594238   C1503.739014,1385.377441 1507.562988,1374.650757 1516.720947,1364.674683  z" id="G1"></path>
<path fill="#E0E0E0" opacity="0" stroke="none" d=" M2464.670410,1354.590820   C2479.530273,1361.332886 2489.166504,1371.644043 2492.746338,1387.025391   C2498.213623,1410.517090 2485.814209,1433.770386 2462.788086,1440.629639   C2427.361572,1451.182495 2402.696777,1423.444336 2403.405029,1398.923462   C2404.330566,1366.866699 2428.325195,1346.916992 2460.001221,1353.585327   C2461.302734,1353.859131 2462.616455,1354.074829 2464.670410,1354.590820  z" id="H1"></path>
<path fill="#E0E0E0" opacity="0" stroke="none" d=" M1513.873779,467.955872   C1531.015381,447.361450 1561.848511,449.114899 1576.460083,461.323181   C1590.862305,473.356384 1596.479858,488.741486 1593.121460,506.666595   C1589.876831,523.984619 1579.045776,536.372070 1561.948608,540.993713   C1526.706299,550.520325 1502.434326,523.360718 1503.404663,498.972290   C1503.860840,487.506958 1505.716431,477.255890 1513.873779,467.955872  z" id="C1"></path>
<path fill="#E0E0E0" opacity="0" stroke="none" d=" M472.935913,535.419495   C446.333344,517.486816 447.486908,477.350983 471.668396,460.611969   C486.682373,450.218903 502.846863,449.083771 518.806030,456.854492   C534.945435,464.712891 543.028625,478.306976 543.882996,496.801727   C544.789673,516.431763 530.597534,535.954163 512.828613,540.674500   C499.282684,544.272888 485.844666,543.835510 472.935913,535.419495  z" id="B1"></path>
<path fill="#CDDFE6" opacity="0" stroke="none" d=" M1353.615479,951.894409   C1353.615356,925.025818 1353.615356,899.150635 1353.615356,872.793213   C1363.710205,872.793213 1372.912720,872.793213 1383.604126,872.793213   C1383.860474,892.134827 1383.578003,911.586304 1383.777100,932.308411   C1398.983032,932.308411 1413.816406,932.308411 1428.649902,932.308411   C1443.235596,932.308411 1457.821289,932.308411 1473.050171,932.308411   C1473.050171,942.447144 1473.050171,951.871582 1473.050171,961.833984   C1433.406372,961.833984 1394.000122,961.833984 1353.615479,961.833984   C1353.615479,958.677734 1353.615479,955.782776 1353.615479,951.894409  z" id="W-E1"></path>
<path fill="#CDDFE6" opacity="0" stroke="none" d=" M1743.703003,914.000427   C1743.703003,930.266724 1743.703003,945.533081 1743.703003,960.659241   C1735.325073,962.989685 1659.760254,963.777771 1624.351196,961.989807   C1624.351196,952.608032 1624.351196,943.143311 1624.351196,932.308411   C1638.914673,932.308411 1653.754761,932.308411 1668.594971,932.308411   C1683.198120,932.308411 1697.801270,932.308411 1713.410400,932.308411   C1713.410400,912.258423 1713.410400,892.799316 1713.410400,872.832214   C1723.610352,872.832214 1732.810547,872.832214 1743.477905,872.832214   C1743.946411,886.052612 1743.592041,899.536255 1743.703003,914.000427  z" id="E1-V"></path>
<path fill="#CCDEE5" opacity="0" stroke="none" d=" M1340.640381,602.299316   C1354.575073,602.332458 1367.567383,602.359741 1380.559448,602.428528   C1381.172363,602.431763 1381.783569,602.803894 1383.052002,603.219055   C1383.052002,642.447449 1383.052002,681.872681 1383.052002,721.833557   C1373.388672,721.833557 1363.937988,721.833557 1353.684570,721.833557   C1353.684570,691.960754 1353.684570,662.455322 1353.684570,631.952148   C1347.128540,631.952148 1341.302490,631.952148 1334.323120,631.952148   C1334.323120,622.770203 1334.344604,614.552734 1334.313477,606.335510   C1334.298950,602.509460 1336.828369,602.209961 1340.640381,602.299316  z" id="W-Q"></path>
</svg>