<svg version="1.1" id="Layer_1" xmlns="http://www.w3.org/2000/svg" xmlns:xlink="http://www.w3.org/1999/xlink" x="0px" y="0px"
	 height="100%" viewBox="0 0 2940 2340" enable-background="new 0 0 2940 2340" xml:space="preserve">
<path fill="#FDFDFD" class="lim" id="LDS" opacity="0" stroke="none" 
	d="
M1080.000244,1028.335327 
	C1209.561157,1028.335327 1338.122070,1028.335327 1467.176025,1028.335327 
	C1467.176025,1124.520630 1467.176025,1219.706177 1467.176025,1315.614624 
	C1271.721680,1315.614624 1076.289795,1315.614624 880.259155,1315.614624 
	C880.259155,1220.367554 880.259155,1124.903442 880.259155,1028.335327 
	C946.562012,1028.335327 1012.781067,1028.335327 1080.000244,1028.335327 
z"/>
<path fill="#FDFDFD" class="lim" id="Aula_Sam" opacity="0" stroke="none" 
	d="
M2418.000000,1316.336792 
	C2355.022461,1316.336792 2293.045166,1316.336792 2230.366699,1316.336792 
	C2230.366699,1220.569946 2230.366699,1125.094971 2230.366699,1028.977661 
	C2425.566162,1028.977661 2621.021729,1028.977661 2817.071289,1028.977661 
	C2817.071289,1124.555908 2817.071289,1219.997681 2817.071289,1316.336792 
	C2684.146973,1316.336792 2551.573486,1316.336792 2418.000000,1316.336792 
z"/>
<path fill="#FDFDFD" class="lim" id="Dibujo_02" opacity="0" stroke="none" 
	d="
M2379.661865,345.999817 
	C2379.661865,273.094391 2379.661865,201.188950 2379.661865,128.808990 
	C2525.750977,128.808990 2670.944580,128.808990 2816.145752,128.808990 
	C2818.121582,136.041931 2818.921387,394.186707 2816.908936,416.333771 
	C2813.557129,416.333771 2810.017578,416.333771 2806.478271,416.333771 
	C2715.157715,416.333862 2623.837158,416.332062 2532.516602,416.335938 
	C2517.670898,416.336578 2517.675049,416.348083 2517.676025,431.310669 
	C2517.678467,472.638245 2517.677246,513.965820 2517.677490,555.293396 
	C2517.677490,558.567322 2517.677734,561.841309 2517.677734,565.714600 
	C2471.546631,565.714600 2426.104004,565.714600 2379.661865,565.714600 
	C2379.661865,492.750916 2379.661865,419.875366 2379.661865,345.999817 
z"/>
<path fill="#FDFDFD" class="lim" id="Salon_14" opacity="0" stroke="none" 
	d="
M391.967468,128.332733 
	C400.874207,128.332733 408.787079,128.332733 417.166565,128.332733 
	C417.166565,274.496155 417.166565,419.679749 417.166565,565.597778 
	C321.741241,565.597778 226.306961,565.597778 130.266327,565.597778 
	C130.266327,420.380554 130.266327,274.918182 130.266327,128.332733 
	C217.209793,128.332733 304.091705,128.332733 391.967468,128.332733 
z"/>
<path fill="#FDFDFD" class="lim" id="Lab_bio" opacity="0" stroke="none" 
	d="
M1902.000244,1028.334961 
	C1957.564941,1028.334961 2012.129761,1028.334961 2067.180176,1028.334961 
	C2067.180176,1124.527344 2067.180176,1219.712524 2067.180176,1315.619141 
	C1921.717285,1315.619141 1776.283936,1315.619141 1630.257324,1315.619141 
	C1630.257324,1220.364136 1630.257324,1124.899658 1630.257324,1028.334961 
	C1720.564697,1028.334961 1810.782349,1028.334961 1902.000244,1028.334961 
z"/>
<path fill="#FDFDFD" class="lim" id="Salon_13" opacity="0" stroke="none" 
	d="
M440.105133,416.334412 
	C436.214264,416.334259 433.314545,416.334259 430.051025,416.334259 
	C430.051025,320.176544 430.051025,224.948700 430.051025,129.025604 
	C525.528015,129.025604 620.968506,129.025604 717.044617,129.025604 
	C717.044617,224.492203 717.044617,319.930206 717.044617,416.334564 
	C624.890137,416.334564 532.993164,416.334564 440.105133,416.334412 
z"/>
<path fill="#FDFDFD" class="lim" id="Salon_08" opacity="0" stroke="none" 
	d="
M2337.991455,416.334717 
	C2251.685303,416.334717 2166.377686,416.334717 2080.365723,416.334717 
	C2080.365723,320.585236 2080.365723,225.114563 2080.365723,128.987152 
	C2175.562256,128.987152 2271.013184,128.987152 2367.069824,128.987152 
	C2367.069824,224.559738 2367.069824,319.998260 2367.069824,416.334717 
	C2357.495117,416.334717 2348.242676,416.334717 2337.991455,416.334717 
z"/>
<path fill="#FDFDFD" class="lim" id="Salon_09" opacity="0" stroke="none" 
	d="
M1846.000244,128.331924 
	C1920.229004,128.331924 1993.457886,128.331924 2067.177734,128.331924 
	C2067.177734,224.505264 2067.177734,319.687408 2067.177734,415.602539 
	C1971.730713,415.602539 1876.299561,415.602539 1780.263916,415.602539 
	C1780.263916,320.372437 1780.263916,224.911713 1780.263916,128.331924 
	C1801.887695,128.331924 1823.443848,128.331924 1846.000244,128.331924 
z"/>
<path fill="#FDFDFD" class="lim" id="Salon_10" opacity="0" stroke="none" 
	d="
M1581.997314,128.331818 
	C1594.236694,128.331818 1605.476929,128.331818 1617.179077,128.331818 
	C1617.179077,224.520325 1617.179077,319.705872 1617.179077,415.613647 
	C1521.720093,415.613647 1426.286011,415.613647 1330.255493,415.613647 
	C1330.255493,320.362366 1330.255493,224.899689 1330.255493,128.331818 
	C1413.899780,128.331818 1497.448975,128.331818 1581.997314,128.331818 
z"/>
<path fill="#FDFDFD" class="lim" id="Salon_11" opacity="0" stroke="none" 
	d="
M1317.678711,266.000183 
	C1317.678711,316.288086 1317.678711,365.576019 1317.678711,415.598511 
	C1221.750854,415.598511 1126.317383,415.598511 1030.273193,415.598511 
	C1030.273193,320.388397 1030.273193,224.924011 1030.273193,128.894653 
	C1125.768799,128.894653 1221.217407,128.894653 1317.678711,128.894653 
	C1317.678711,174.535889 1317.678711,219.768021 1317.678711,266.000183 
z"/>
<path fill="#FDFDFD" class="lim" id="Salon_12" opacity="0" stroke="none" 
	d="
M729.660767,353.999817 
	C729.660767,278.424744 729.660767,203.849670 729.660767,128.804092 
	C825.759644,128.804092 920.963440,128.804092 1016.916870,128.804092 
	C1016.916870,224.235596 1016.916870,319.664398 1016.916870,415.715088 
	C921.552734,415.715088 826.111389,415.715088 729.660767,415.715088 
	C729.660767,395.438446 729.660767,375.219147 729.660767,353.999817 
z"/>
<path fill="#FDFDFD" class="lim" id="LBD" opacity="0" stroke="none" 
	d="
M299.999817,1286.329956 
	C243.023422,1286.329956 187.047028,1286.329956 130.365784,1286.329956 
	C130.365784,1200.576538 130.365784,1115.104614 130.365784,1028.982300 
	C225.569885,1028.982300 321.024109,1028.982300 417.072906,1028.982300 
	C417.072906,1114.554077 417.072906,1199.994751 417.072906,1286.329956 
	C378.155762,1286.329956 339.577789,1286.329956 299.999817,1286.329956 
z"/>
<path fill="#FDFDFD" class="lim" id="LNT" opacity="0" stroke="none" 
	d="
M717.680725,1210.000000 
	C717.680725,1225.622437 717.680725,1240.244751 717.680725,1255.599243 
	C671.762634,1255.599243 626.331665,1255.599243 580.211792,1255.599243 
	C580.044800,1253.385498 579.692139,1250.850098 579.687317,1248.313965 
	C579.643188,1224.987183 579.688293,1201.660278 579.645081,1178.333496 
	C579.624939,1167.492065 578.562805,1166.370361 567.576721,1166.355713 
	C525.255188,1166.299316 482.933533,1166.332397 440.611938,1166.332275 
	C437.335510,1166.332153 434.059052,1166.332275 430.224030,1166.332275 
	C430.224030,1120.312744 430.224030,1074.854736 430.224030,1028.863281 
	C525.829163,1028.863281 621.262207,1028.863281 717.680725,1028.863281 
	C717.680725,1089.222778 717.680725,1149.111450 717.680725,1210.000000 
z"/>
<path fill="#FDFDFD" class="lim" id="Cubiculo" opacity="0" stroke="none" 
	d="
M2114.001709,1316.340454 
	C2102.355469,1316.340454 2091.708984,1316.340454 2080.360840,1316.340454 
	C2080.360840,1220.574097 2080.360840,1125.101318 2080.360840,1028.979248 
	C2125.562256,1028.979248 2171.020996,1028.979248 2217.075684,1028.979248 
	C2217.075684,1124.553101 2217.075684,1219.993530 2217.075684,1316.340454 
	C2182.824463,1316.340454 2148.913086,1316.340454 2114.001709,1316.340454 
z"/>
<path fill="#FDFDFD" class="lim" id="Cubiculo" opacity="0" stroke="none" 
	d="
M865.410645,1316.099976 
	C819.913513,1316.300781 775.355286,1316.300781 730.228760,1316.300781 
	C730.228760,1220.387817 730.228760,1124.991577 730.228760,1028.962891 
	C775.570740,1028.962891 820.991211,1028.962891 867.060425,1028.962891 
	C867.266541,1031.555908 867.645325,1034.104248 867.646240,1036.652832 
	C867.677795,1126.879517 867.686035,1217.106323 867.619324,1307.333008 
	C867.617188,1310.188599 866.791382,1313.043823 865.410645,1316.099976 
z"/>
<path fill="#FDFDFD" class="lim" id="Bannos_Hombres" opacity="0" stroke="none" 
	d="
M2079.658691,751.999817 
	C2079.658691,693.758362 2079.658691,636.516907 2079.658691,578.805969 
	C2125.759033,578.805969 2170.963867,578.805969 2216.919678,578.805969 
	C2216.919678,674.242676 2216.919678,769.666809 2216.919678,865.713806 
	C2171.549316,865.713806 2126.105225,865.713806 2079.658691,865.713806 
	C2079.658691,828.096497 2079.658691,790.548218 2079.658691,751.999817 
z"/>
<path fill="#FDFDFD" class="lim" id="Bannos_Mujeres" opacity="0" stroke="none" 
	d="
M879.658325,600.046814 
	C879.658325,592.460815 879.658325,585.867493 879.658325,578.817139 
	C925.731567,578.817139 970.938171,578.817139 1016.151550,578.817139 
	C1018.112061,586.024841 1018.890015,845.048706 1016.946899,865.702454 
	C971.567749,865.702454 926.123779,865.702454 879.658325,865.702454 
	C879.658325,777.452087 879.658325,689.245728 879.658325,600.046814 
z"/>
<path fill="#FDFDFD" class="lim" id="Bodega" opacity="0" stroke="none" 
	d="
M1629.661499,287.999817 
	C1629.661499,234.423386 1629.661499,181.846954 1629.661499,128.801834 
	C1675.754517,128.801834 1720.961182,128.801834 1766.164307,128.801834 
	C1768.106934,136.051682 1768.852661,395.881989 1766.931030,415.718811 
	C1721.552734,415.718811 1676.109375,415.718811 1629.661499,415.718811 
	C1629.661499,373.429352 1629.661499,331.214600 1629.661499,287.999817 
z"/>
<path fill="#FDFDFD" class="lim" id="Dibujo_02" opacity="0" stroke="none" 
	d="
M2777.999023,428.331512 
	C2791.573730,428.331512 2804.148682,428.331512 2817.183350,428.331512 
	C2817.183350,474.514038 2817.183350,519.703247 2817.183350,565.614807 
	C2721.722900,565.614807 2626.288818,565.614807 2530.255859,565.614807 
	C2530.255859,520.368652 2530.255859,474.903351 2530.255859,428.331512 
	C2612.568359,428.331512 2694.783936,428.331512 2777.999023,428.331512 
z"/>
<path fill="#FCFCFC" id="Cubiculo" opacity="0" stroke="none" 
	d="
M2752.000000,1466.335571 
	C2707.690674,1466.335571 2664.381104,1466.335571 2620.364990,1466.335571 
	C2620.364990,1420.587524 2620.364990,1375.113892 2620.364990,1328.981445 
	C2685.565918,1328.981445 2751.016846,1328.981445 2817.069824,1328.981445 
	C2817.069824,1374.545044 2817.069824,1419.984985 2817.069824,1466.335571 
	C2795.493652,1466.335571 2774.246826,1466.335571 2752.000000,1466.335571 
z"/>
<path fill="#FCFCFC" id="Cubiculos_Progra" opacity="0" stroke="none" 
	d="
M381.997803,1376.341675 
	C319.679504,1376.341675 258.360504,1376.341797 197.041534,1376.342041 
	C194.375488,1376.342163 191.708923,1376.312256 189.043503,1376.354370 
	C178.479889,1376.520996 177.705643,1377.238647 177.687714,1387.814697 
	C177.644257,1413.446899 177.673584,1439.078979 177.673584,1466.053711 
	C169.538300,1466.151489 161.727844,1466.281006 153.916916,1466.328857 
	C146.278534,1466.375610 138.639648,1466.339111 130.329315,1466.339111 
	C130.329315,1410.528687 130.329315,1355.060669 130.329315,1298.958496 
	C225.592972,1298.958496 321.035614,1298.958496 417.076202,1298.958496 
	C417.076202,1324.561401 417.076202,1350.002686 417.076202,1376.341675 
	C405.494263,1376.341675 394.245728,1376.341675 381.997803,1376.341675 
z"/>
<path fill="#F9F9F9" opacity="0" stroke="none" 
	d="
M1708.000244,1382.314209 
	C1830.149902,1382.314209 1951.299561,1382.314209 2073.066895,1382.314209 
	C2073.066895,1392.483032 2073.066895,1401.920776 2073.066895,1411.864868 
	C1923.451904,1411.864868 1774.097168,1411.864868 1624.191406,1411.864868 
	C1624.191406,1402.297852 1624.191406,1392.834229 1624.191406,1382.314209 
	C1651.923706,1382.314209 1679.461914,1382.314209 1708.000244,1382.314209 
z"/>
<path fill="#F9F9F9" opacity="0" stroke="none" 
	d="
M1533.644287,963.999817 
	C1533.644287,933.102661 1533.644287,903.205627 1533.644287,872.813477 
	C1543.663086,872.813477 1552.874634,872.813477 1562.127319,872.813477 
	C1564.071289,879.496399 1564.710205,1307.998413 1562.695557,1321.889648 
	C1553.555176,1321.889648 1544.330078,1321.889648 1533.644287,1321.889648 
	C1533.644287,1203.075073 1533.644287,1084.037476 1533.644287,963.999817 
z"/>
<path fill="#F9F9F9" opacity="0" stroke="none" 
	d="
M1652.015259,482.313080 
	C1742.820801,482.313080 1832.630127,482.313080 1923.065674,482.313080 
	C1923.065674,492.465027 1923.065674,501.897888 1923.065674,511.849823 
	C1823.462891,511.849823 1724.104736,511.849823 1624.192383,511.849823 
	C1624.192383,502.313446 1624.192383,492.852020 1624.192383,482.313080 
	C1633.246704,482.313080 1642.132935,482.313080 1652.015259,482.313080 
z"/>
<path fill="#F9F9F9" opacity="0" stroke="none" 
	d="
M1255.999756,1412.359253 
	C1238.371094,1412.359253 1221.742432,1412.359253 1204.377197,1412.359253 
	C1204.377197,1402.705078 1204.377197,1393.239502 1204.377197,1383.035645 
	C1293.403809,1383.035645 1382.740234,1383.035645 1472.882568,1383.035645 
	C1472.882568,1392.070190 1472.882568,1401.499512 1472.882568,1412.359253 
	C1401.101562,1412.359253 1329.050781,1412.359253 1255.999756,1412.359253 
z"/>
<path fill="#F9F9F9" opacity="0" stroke="none" 
	d="
M2286.000000,1412.359253 
	C2264.802979,1412.359253 2244.606201,1412.359253 2224.031250,1412.359253 
	C2224.031250,1402.227905 2224.031250,1393.009766 2224.031250,1383.049927 
	C2303.382324,1383.049927 2382.718262,1383.049927 2463.548340,1383.049927 
	C2463.594482,1387.437378 2463.663574,1392.258667 2463.689941,1397.080200 
	C2463.715088,1401.694214 2463.695312,1406.308472 2463.695312,1412.359253 
	C2404.454590,1412.359253 2345.727295,1412.359253 2286.000000,1412.359253 
z"/>
<path fill="#FBFBFB" opacity="0" stroke="none" 
	d="
M1555.011719,452.401733 
	C1575.279175,456.421051 1587.982666,467.776855 1592.690674,487.099915 
	C1598.404175,510.550903 1585.832764,533.699524 1562.723877,540.613159 
	C1527.148682,551.256348 1503.734375,523.078613 1503.063110,498.939240 
	C1502.423584,475.939758 1522.639526,450.071838 1550.166260,452.308868 
	C1551.489258,452.416412 1552.827881,452.330994 1555.011719,452.401733 
z"/>
<path fill="#FBFBFB" opacity="0" stroke="none" 
	d="
M2539.860840,1442.344482 
	C2518.473877,1443.286133 2504.107666,1433.313721 2496.718506,1415.256958 
	C2489.773682,1398.286987 2491.823975,1381.213623 2504.724609,1366.908081 
	C2517.614990,1352.613647 2534.071777,1349.161743 2551.927002,1354.081787 
	C2569.079590,1358.808228 2579.906494,1371.170654 2583.073975,1388.333740 
	C2588.169434,1415.946289 2571.900879,1434.802368 2552.487061,1440.798340 
	C2548.777832,1441.943970 2544.689453,1441.860840 2539.860840,1442.344482 
z"/>
<path fill="#FBFBFB" opacity="0" stroke="none" 
	d="
M2188.991699,1418.535400 
	C2178.019531,1438.035278 2161.352539,1444.821899 2140.744141,1442.195190 
	C2124.213867,1440.088257 2112.320557,1430.282959 2106.549561,1415.029419 
	C2100.025146,1397.785645 2101.968018,1380.868042 2114.945312,1366.663696 
	C2127.922852,1352.458740 2144.479004,1349.087524 2162.290039,1354.169067 
	C2179.384521,1359.046143 2189.714600,1371.596313 2193.166992,1388.756836 
	C2195.125244,1398.490723 2194.394531,1408.664795 2188.991699,1418.535400 
z"/>
<path fill="#FBFBFB" opacity="0" stroke="none" 
	d="
M1521.796875,1434.470947 
	C1494.851685,1415.678589 1497.667603,1371.694580 1527.183594,1357.304199 
	C1564.094604,1339.308105 1594.672241,1369.678223 1594.058960,1397.297119 
	C1593.645020,1415.935913 1581.163452,1435.912354 1562.367676,1440.797974 
	C1548.496948,1444.403442 1534.672363,1443.857178 1521.796875,1434.470947 
z"/>
<path fill="#FBFBFB" opacity="0" stroke="none" 
	d="
M1083.667725,1392.530640 
	C1086.385254,1369.910156 1103.544678,1353.371582 1124.457520,1352.317993 
	C1148.534424,1351.104980 1167.337891,1364.510986 1172.634766,1386.666260 
	C1177.869019,1408.560059 1167.554688,1430.869629 1146.923340,1439.166016 
	C1112.712524,1452.923340 1081.711060,1427.031372 1083.640259,1398.422119 
	C1083.751953,1396.765747 1083.661499,1395.095581 1083.667725,1392.530640 
z"/>
<path fill="#FBFBFB" opacity="0" stroke="none" 
	d="
M824.626221,1434.872192 
	C799.121826,1451.099609 766.431030,1441.338745 756.484619,1414.975220 
	C749.985291,1397.748413 751.969971,1380.775269 764.988953,1366.586548 
	C778.002991,1352.403320 794.584167,1349.102539 812.380493,1354.197876 
	C829.477173,1359.092773 840.132080,1371.638672 843.156433,1388.845093 
	C846.358765,1407.063843 841.018372,1423.091187 824.626221,1434.872192 
z"/>
<path fill="#FBFBFB" opacity="0" stroke="none" 
	d="
M537.834839,1374.536377 
	C551.358887,1399.146851 541.743347,1430.144165 515.416016,1439.774658 
	C480.971039,1452.374512 451.605927,1425.902832 453.346588,1396.676758 
	C454.483093,1377.593994 462.617035,1364.045044 479.248871,1356.395264 
	C496.153595,1348.619995 513.002686,1350.462646 527.762268,1362.575562 
	C531.539856,1365.675903 534.240784,1370.088135 537.834839,1374.536377 
z"/>
<path fill="#FBFBFB" opacity="0" stroke="none" 
	d="
M2294.654785,452.324402 
	C2320.420410,452.333649 2338.585693,465.445465 2342.923340,487.689270 
	C2348.127930,514.378052 2333.564941,535.498596 2311.260254,541.218933 
	C2275.503906,550.389160 2253.323242,522.254822 2253.081543,498.311310 
	C2252.868652,477.226654 2270.511719,453.434448 2294.654785,452.324402 
z"/>
<path fill="#FBFBFB" opacity="0" stroke="none" 
	d="
M1522.376465,760.073669 
	C1537.345703,748.905090 1563.016357,750.091614 1577.014526,761.723572 
	C1603.058228,783.365417 1598.588135,825.220093 1567.779663,838.714111 
	C1533.914551,853.546814 1502.381836,827.609314 1503.327148,798.296753 
	C1503.844849,782.244324 1509.619629,770.186401 1522.376465,760.073669 
z"/>
<path fill="#FBFBFB" opacity="0" stroke="none" 
	d="
M517.360840,541.953247 
	C508.155731,539.069824 501.005524,534.592773 494.711609,528.336914 
	C481.128540,514.836060 481.148071,489.386993 487.687408,477.091827 
	C497.165253,459.271698 514.308655,450.099701 534.765198,452.396790 
	C552.957825,454.439636 568.469971,468.564178 572.758362,486.991425 
	C578.270264,510.676025 565.253662,534.305908 541.904297,540.897522 
	C534.477295,542.994141 526.126831,541.819092 517.360840,541.953247 
z"/>
<path fill="#FBFBFB" opacity="0" stroke="none" 
	d="
M896.981567,473.314209 
	C909.912659,493.705170 904.801941,523.316589 882.130615,536.546631 
	C867.278076,545.213928 851.435120,545.496460 836.464722,537.286621 
	C821.443726,529.049194 814.660950,515.939575 813.266113,498.217804 
	C810.972168,469.074799 844.611450,438.775665 880.748230,457.979095 
	C886.885559,461.240509 891.305542,467.733673 896.981567,473.314209 
z"/>
<path fill="#FBFBFB" opacity="0" stroke="none" 
	d="
M1173.657227,497.970306 
	C1173.802002,473.804993 1189.837891,455.120636 1212.020386,452.356781 
	C1236.107544,449.355621 1257.402710,463.961487 1262.806519,487.189850 
	C1268.285522,510.741333 1255.067383,534.898071 1231.779541,541.083191 
	C1196.352295,550.492371 1171.654175,522.864868 1173.657227,497.970306 
z"/>
<path fill="#FBFBFB" opacity="0" stroke="none" 
	d="
M1961.517822,524.213074 
	C1945.186401,499.962921 1954.324951,468.028259 1978.524536,456.371979 
	C2008.714844,441.830048 2043.051270,463.465393 2043.926514,496.922791 
	C2044.358032,513.417664 2033.984497,535.293640 2011.778687,540.993286 
	C1992.446289,545.955505 1974.778931,541.869202 1961.517822,524.213074 
z"/>
<path fill="#F9F9F9" opacity="0" stroke="none" 
	d="
M1030.000244,482.311584 
	C1068.184082,482.311584 1105.367920,482.311584 1143.121094,482.311584 
	C1143.121094,492.580139 1143.121094,502.014130 1143.121094,511.905701 
	C1073.382812,511.905701 1004.018616,511.905701 934.147461,511.905701 
	C934.147461,502.214813 934.147461,492.763123 934.147461,482.311584 
	C965.985352,482.311584 997.492737,482.311584 1030.000244,482.311584 
z"/>
<path fill="#F9F9F9" opacity="0" stroke="none" 
	d="
M618.166260,482.311584 
	C673.618835,482.311584 728.088867,482.311584 783.125427,482.311584 
	C783.125427,492.587433 783.125427,502.020569 783.125427,511.908325 
	C723.372803,511.908325 664.002869,511.908325 604.135132,511.908325 
	C604.135132,502.189606 604.135132,492.740234 604.135132,482.311584 
	C608.708130,482.311584 612.945923,482.311584 618.166260,482.311584 
z"/>
<path fill="#F9F9F9" opacity="0" stroke="none" 
	d="
M910.001038,1412.359253 
	C897.704529,1412.359253 886.407654,1412.359253 874.375854,1412.359253 
	C874.375854,1402.711670 874.375854,1393.250732 874.375854,1383.044189 
	C933.391235,1383.044189 992.733826,1383.044189 1052.888672,1383.044189 
	C1052.888672,1392.069092 1052.888672,1401.494507 1052.888672,1412.359253 
	C1005.787598,1412.359253 958.394104,1412.359253 910.001038,1412.359253 
z"/>
<path fill="#F9F9F9" opacity="0" stroke="none" 
	d="
M1447.967773,482.311584 
	C1456.862671,482.311584 1464.763428,482.311584 1473.162109,482.311584 
	C1473.162109,492.410950 1473.162109,501.588684 1473.162109,510.807892 
	C1466.248413,512.772766 1311.045532,513.456299 1294.117676,511.510773 
	C1294.117676,502.114990 1294.117676,492.670471 1294.117676,482.311584 
	C1345.383667,482.311584 1396.178711,482.311584 1447.967773,482.311584 
z"/>
<path fill="#F9F9F9" opacity="0" stroke="none" 
	d="
M1533.641479,617.999939 
	C1533.641479,602.439453 1533.641479,587.878967 1533.641479,572.821655 
	C1543.618042,572.821655 1552.819824,572.821655 1562.078735,572.821655 
	C1564.086304,579.355469 1564.734619,707.646362 1562.713867,721.882080 
	C1553.338501,721.882080 1543.895142,721.882080 1533.641479,721.882080 
	C1533.641479,687.308228 1533.641479,653.154114 1533.641479,617.999939 
z"/>
<path fill="#F9F9F9" opacity="0" stroke="none" 
	d="
M610.002197,1382.311401 
	C648.169250,1382.311401 685.336975,1382.311401 723.097168,1382.311401 
	C723.097168,1392.521851 723.097168,1401.948730 723.097168,1411.873779 
	C673.433228,1411.873779 624.062927,1411.873779 574.165283,1411.873779 
	C574.165283,1402.264526 574.165283,1392.812012 574.165283,1382.311401 
	C585.928589,1382.311401 597.465759,1382.311401 610.002197,1382.311401 
z"/>
<path fill="#F9F9F9" opacity="0" stroke="none" 
	d="
M2084.097168,512.357666 
	C2080.209229,512.357666 2077.312988,512.357666 2074.169678,512.357666 
	C2074.169678,502.005463 2074.169678,492.567261 2074.169678,482.723999 
	C2123.816895,482.723999 2172.932617,482.723999 2222.872559,482.723999 
	C2222.872559,492.027466 2222.872559,501.450531 2222.872559,512.357605 
	C2177.166016,512.357605 2131.127441,512.357605 2084.097168,512.357666 
z"/>
</svg>