<svg version="1.1" id="Layer_1" xmlns="http://www.w3.org/2000/svg" xmlns:xlink="http://www.w3.org/1999/xlink" x="0px" y="0px" height="100%" viewBox="0 0 2940 2340" enable-background="new 0 0 2940 2340" xml:space="preserve">
<path class="lim" fill="#FDFDFD" opacity="0" stroke="none" d=" M2444.000000,128.333740   C2568.893555,128.333740 2692.787109,128.333740 2817.171143,128.333740   C2817.171143,274.506958 2817.171143,419.689636 2817.171143,565.601807   C2671.734619,565.601807 2526.304199,565.601807 2380.267822,565.601807   C2380.267822,420.374817 2380.267822,274.914764 2380.267822,128.333740   C2401.219238,128.333740 2422.109619,128.333740 2444.000000,128.333740  z" id="Dibujo_II"></path>
<path class="lim" fill="#FDFDFD" opacity="0" stroke="none" d=" M1000.000183,1028.335571   C1156.226440,1028.335571 1311.452637,1028.335571 1467.174072,1028.335571   C1467.174072,1124.517334 1467.174072,1219.702637 1467.174072,1315.612671   C1271.724731,1315.612671 1076.293091,1315.612671 880.261047,1315.612671   C880.261047,1220.370483 880.261047,1124.906372 880.261047,1028.335571   C919.890259,1028.335571 959.445190,1028.335571 1000.000183,1028.335571  z" id="LDS"></path>
<path class="lim" fill="#FDFDFD" opacity="0" stroke="none" d=" M2428.000000,1316.336670   C2361.689453,1316.336670 2296.378906,1316.336670 2230.367188,1316.336670   C2230.367188,1220.573853 2230.367188,1125.097900 2230.367188,1028.978027   C2425.565918,1028.978027 2621.021240,1028.978027 2817.071045,1028.978027   C2817.071045,1124.555542 2817.071045,1219.997192 2817.071045,1316.336670   C2687.480469,1316.336670 2558.240234,1316.336670 2428.000000,1316.336670  z" id="Aula_Samsung"></path>
<path class="lim" fill="#FDFDFD" opacity="0" stroke="none" d=" M129.662262,136.335938   C129.771790,133.409454 129.881058,131.446747 130.021866,128.917114   C225.735779,128.917114 321.186005,128.917114 417.150818,128.917114   C417.150818,274.468536 417.150818,419.655670 417.150818,565.587463   C321.755066,565.587463 226.318802,565.587463 129.662003,565.587463   C129.662003,423.002777 129.662003,280.151245 129.662262,136.335938  z" id="Salon_14"></path>
<path class="lim" fill="#FDFDFD" opacity="0" stroke="none" d=" M1696.000244,1028.335083   C1820.227173,1028.335083 1943.453979,1028.335083 2067.175293,1028.335083   C2067.175293,1124.517212 2067.175293,1219.701904 2067.175293,1315.613525   C1921.726318,1315.613525 1776.293579,1315.613525 1630.262329,1315.613525   C1630.262329,1220.373535 1630.262329,1124.908813 1630.262329,1028.335083   C1651.881104,1028.335083 1673.440674,1028.335083 1696.000244,1028.335083  z" id="Lab_Biologia"></path>
<path class="lim" fill="#FDFDFD" opacity="0" stroke="none" d=" M711.345581,128.332855   C715.137207,128.238831 717.730957,128.473160 717.660095,132.332214   C717.629517,133.996704 717.676941,135.662521 717.676941,137.327728   C717.677368,227.918106 717.676697,318.508484 717.676086,409.098846   C717.676086,411.048492 717.676086,412.998138 717.676086,415.639709   C621.734436,415.639709 526.349609,415.639709 430.313782,415.639709   C430.313782,320.520294 430.313782,225.105316 430.313782,128.331985   C523.529724,128.331985 616.968323,128.331985 711.345581,128.332855  z" id="Salon_13"></path>
<path class="lim" fill="#FDFDFD" opacity="0" stroke="none" d=" M823.999817,416.334656   C792.355164,416.334656 761.710632,416.334656 730.363953,416.334656   C730.363953,320.571960 730.363953,225.099808 730.363953,128.978241   C825.567200,128.978241 921.021057,128.978241 1017.070923,128.978241   C1017.070923,224.559097 1017.070923,319.998932 1017.070923,416.334656   C952.818359,416.334656 888.909119,416.334656 823.999817,416.334656  z" id="Salon_12"></path>
<path class="lim" fill="#FDFDFD" opacity="0" stroke="none" d=" M1029.664429,285.999817   C1029.664429,233.089508 1029.664429,181.179184 1029.664429,128.802521   C1125.761841,128.802521 1220.966431,128.802521 1316.167725,128.802521   C1318.105957,136.032501 1318.852661,395.973236 1316.934082,415.716919   C1221.554688,415.716919 1126.112915,415.716919 1029.664429,415.716919   C1029.664429,372.763580 1029.664429,329.881714 1029.664429,285.999817  z" id="Salon_11"></path>
<path class="lim" fill="#FDFDFD" opacity="0" stroke="none" d=" M1617.665771,160.008347   C1617.665771,245.624496 1617.665771,330.242859 1617.665771,415.597565   C1521.746338,415.597565 1426.313232,415.597565 1330.269775,415.597565   C1330.269775,320.389313 1330.269775,224.925339 1330.269775,128.895172   C1425.771362,128.895172 1521.218506,128.895172 1617.665771,128.895172   C1617.665771,139.188934 1617.665771,149.099747 1617.665771,160.008347  z" id="Salon_10"></path>
<path class="lim" fill="#FDFDFD" opacity="0" stroke="none" d=" M1994.000244,128.332062   C2018.902466,128.332062 2042.804688,128.332062 2067.183105,128.332062   C2067.183105,224.516479 2067.183105,319.698914 2067.183105,415.608368   C1971.720825,415.608368 1876.289307,415.608368 1780.258667,415.608368   C1780.258667,320.362000 1780.258667,224.901825 1780.258667,128.332062   C1851.238037,128.332062 1922.119141,128.332062 1994.000244,128.332062  z" id="Salon_09"></path>
<path class="lim" fill="#FDFDFD" opacity="0" stroke="none" d=" M2367.672607,405.717102   C2367.671875,409.599365 2367.671875,412.511627 2367.671875,415.874969   C2271.522217,415.874969 2176.301514,415.874969 2080.370605,415.874969   C2080.370605,320.591339 2080.370605,225.117188 2080.370605,128.986786   C2175.565918,128.986786 2271.020508,128.986786 2367.673340,128.986786   C2367.673340,221.001114 2367.673340,312.874084 2367.672607,405.717102  z" id="Salon_08"></path>
<path class="lim" fill="#FDFDFD" opacity="0" stroke="none" d=" M178.000168,1028.333984   C258.230286,1028.333984 337.460449,1028.333984 417.176208,1028.333984   C417.176208,1114.505371 417.176208,1199.691162 417.176208,1285.605225   C321.732727,1285.605225 226.299393,1285.605225 130.262512,1285.605225   C130.262512,1200.376099 130.262512,1114.913208 130.262512,1028.333984   C145.880142,1028.333984 161.440170,1028.333984 178.000168,1028.333984  z" id="LBD"></path>
<path class="lim" fill="#FDFDFD" opacity="0" stroke="none" d=" M602.000183,1028.332031   C640.894897,1028.332031 678.789612,1028.332031 717.178101,1028.332031   C717.178101,1104.491333 717.178101,1179.664673 717.178101,1255.587891   C671.781128,1255.587891 626.350952,1255.587891 580.222351,1255.587891   C580.054016,1253.408813 579.693176,1250.875732 579.688293,1248.341797   C579.643127,1225.015015 579.688049,1201.688110 579.645447,1178.361328   C579.625671,1167.508911 578.554565,1166.370728 567.604919,1166.355957   C525.283508,1166.298950 482.961945,1166.332275 440.640411,1166.332153   C437.361359,1166.332031 434.082306,1166.332031 430.234192,1166.332031   C430.234192,1120.332031 430.234192,1074.873169 430.234192,1028.332031   C487.245056,1028.332031 544.122620,1028.332031 602.000183,1028.332031  z" id="LNT"></path>







<path fill="#CDE0E7" opacity="0" stroke="none" d=" M646.000122,1382.306274   C922.219421,1382.306274 1197.438721,1382.306274 1473.177979,1382.306274   C1473.177979,1392.483887 1473.177979,1401.672974 1473.177979,1411.618652   C1173.749023,1411.618652 874.327393,1411.618652 574.266357,1411.618652   C574.266357,1402.391846 574.266357,1392.928101 574.266357,1382.306274   C597.886292,1382.306274 621.443176,1382.306274 646.000122,1382.306274  z" id="M1-N1"></path>
<path fill="#CDE0E6" opacity="0" stroke="none" d=" M714.000122,482.313171   C967.552979,482.313171 1220.105835,482.313171 1473.180176,482.313171   C1473.180176,492.485718 1473.180176,501.675171 1473.180176,511.625061   C1183.760254,511.625061 894.339783,511.625061 604.276062,511.625061   C604.276062,502.400482 604.276062,492.937714 604.276062,482.313171   C640.561218,482.313171 676.780640,482.313171 714.000122,482.313171  z" id="I1-J1"></path>
<path fill="#CDE0E7" opacity="0" stroke="none" d=" M2118.000000,1412.366211   C1953.023804,1412.366211 1789.047729,1412.366211 1624.349609,1412.366211   C1624.349609,1402.589355 1624.349609,1393.107544 1624.349609,1382.955078   C1903.575073,1382.955078 2183.032471,1382.955078 2463.095215,1382.955078   C2463.095215,1392.543701 2463.095215,1401.987671 2463.095215,1412.366211   C2348.152832,1412.366211 2233.576416,1412.366211 2118.000000,1412.366211  z" id="N1-O1"></path>
<path fill="#CDE0E6" opacity="0" stroke="none" d=" M2052.000000,512.363953   C1909.030396,512.363953 1767.060669,512.363953 1624.357178,512.363953   C1624.357178,502.611176 1624.357178,493.130829 1624.357178,482.972961   C1823.572510,482.972961 2023.017334,482.972961 2223.082275,482.972961   C2223.082275,492.552094 2223.082275,501.992218 2223.082275,512.363953   C2166.150879,512.363953 2109.575439,512.363953 2052.000000,512.363953  z" id="J1-K1"></path>
<path fill="#CEE0E7" opacity="0" stroke="none" d=" M1148.001953,782.300659   C1196.889526,782.300659 1244.777100,782.300659 1293.184570,782.300659   C1293.184570,792.477478 1293.184570,801.665100 1293.184570,810.865479   C1285.571655,812.868164 1110.818848,813.725220 1084.291992,811.836487   C1084.291992,742.438599 1084.291992,672.989746 1084.291992,602.924194   C1153.690918,602.924194 1223.124512,602.924194 1293.135742,602.924194   C1293.135742,612.372681 1293.135742,621.557800 1293.135742,632.228271   C1281.515625,632.518860 1269.682983,632.309265 1257.864502,632.347961   C1245.869141,632.387268 1233.873535,632.356689 1221.878052,632.356689   C1210.215820,632.356689 1198.553467,632.356689 1186.891235,632.356689   C1174.895752,632.356689 1162.900269,632.356689 1150.904785,632.356689   C1138.959595,632.356689 1127.014404,632.356628 1114.387207,632.356628   C1114.387207,682.386536 1114.387207,731.802979 1114.387207,782.300598   C1125.234985,782.300598 1136.118530,782.300598 1148.001953,782.300659  z" id="X-Z"></path>
<path fill="#CDE0E7" opacity="0" stroke="none" d=" M1932.000000,782.299316   C1949.572388,782.299316 1966.144653,782.299316 1983.162842,782.299316   C1983.162842,732.119568 1983.162842,682.933899 1983.162842,632.672974   C1973.540771,632.672974 1964.081543,632.672974 1954.134033,632.672974   C1954.134033,622.146484 1954.134033,612.693787 1954.134033,602.774536   C1973.833252,602.774536 1993.036377,602.774536 2012.978149,602.774536   C2012.978149,672.677185 2012.978149,742.468445 2012.978149,812.768311   C1943.696655,812.768311 1874.296753,812.768311 1804.266113,812.768311   C1804.266113,802.381592 1804.266113,792.918030 1804.266113,782.299316   C1846.565430,782.299316 1888.782715,782.299316 1932.000000,782.299316  z" id="Y-V"></path>
<path fill="#CDDFE6" opacity="0" stroke="none" d=" M1772.017090,629.697571   C1762.448730,629.698120 1753.876953,629.698120 1744.633667,629.698120   C1744.633667,659.828918 1744.633667,689.020020 1744.633667,718.952637   C1734.542725,718.952637 1725.114014,718.952637 1714.980713,718.952637   C1714.980713,679.661865 1714.980713,640.266235 1714.980713,600.877747   C1727.464966,598.368347 1905.979004,599.902283 1923.245850,602.725586   C1923.245850,611.841980 1923.245850,621.041016 1923.245850,631.538757   C1873.067017,632.379639 1823.044922,629.760376 1772.017090,629.697571  z" id="Y-A1"></path>
<path fill="#CEE0E7" opacity="0" stroke="none" d=" M1533.627441,1145.999756   C1533.627441,1104.424316 1533.627441,1063.848877 1533.627441,1022.788757   C1543.739868,1022.788757 1552.949463,1022.788757 1562.159180,1022.788757   C1564.113281,1029.949951 1564.874146,1302.282471 1562.868042,1322.356567   C1558.184937,1322.356567 1553.314209,1322.356567 1548.443359,1322.356567   C1543.844727,1322.356567 1539.245972,1322.356567 1533.627563,1322.356567   C1533.627563,1263.416138 1533.627563,1205.208008 1533.627441,1145.999756  z" id="L1-N1"></path>
<path fill="#CEE0E7" opacity="0" stroke="none" d=" M1563.689819,606.004517   C1563.689819,694.949707 1563.689819,782.895813 1563.689819,871.607544   C1553.746582,871.607544 1544.309448,871.607544 1534.239990,871.607544   C1534.239990,772.390198 1534.239990,672.929688 1534.239990,572.885986   C1543.746826,572.885986 1553.197266,572.885986 1563.689819,572.885986   C1563.689819,583.857666 1563.689819,594.431519 1563.689819,606.004517  z" id="J1-L1"></path>
<path fill="#E0E0E0" opacity="0" stroke="none" d=" M483.890533,506.918396   C483.721741,502.720764 483.651123,499.392517 483.659851,496.064514   C483.725128,471.177185 502.785217,452.395477 528.027588,452.327637   C553.875000,452.258179 573.299988,471.113281 573.779724,496.054260   C574.142151,514.902283 566.346924,529.161865 549.940002,537.644165   C524.741394,550.671753 491.759766,539.453064 483.890533,506.918396  z" id="I1"></path>
<path fill="#E0E0E0" opacity="0" stroke="none" d=" M1593.686035,499.688629   C1592.088989,525.113647 1573.833984,541.892944 1549.424438,542.496033   C1529.855591,542.979553 1516.421387,534.221313 1507.594971,517.533630   C1500.601074,504.310394 1501.100952,480.399963 1515.649414,465.654877   C1529.343140,451.775970 1548.368896,448.995575 1565.353394,455.026978   C1582.830078,461.233124 1595.292969,480.989258 1593.693604,496.818939   C1593.626953,497.478027 1593.685547,498.149719 1593.686035,499.688629  z" id="J1"></path>
<path fill="#E0E0E0" opacity="0" stroke="none" d=" M2496.526367,1379.320068   C2508.160400,1356.360840 2528.114502,1348.643799 2550.878906,1353.671631   C2569.538330,1357.792847 2583.489014,1378.783569 2583.994141,1395.147339   C2584.699707,1418.008057 2570.283203,1434.931274 2555.371094,1439.848755   C2529.630859,1448.336304 2504.228271,1438.624390 2495.130127,1411.414673   C2491.755859,1401.322632 2492.440674,1390.385132 2496.526367,1379.320068  z" id="O1"></path>
<path fill="#E0E0E0" opacity="0" stroke="none" d=" M1503.759277,1388.974609   C1513.407227,1348.763672 1555.682373,1344.870728 1575.899658,1360.968628   C1590.592529,1372.667847 1596.370850,1388.044556 1593.266846,1405.979370   C1590.275146,1423.265015 1579.767334,1435.721436 1562.644409,1440.690430   C1527.101929,1451.004639 1501.653931,1423.244141 1503.615479,1398.833374   C1503.854736,1395.856689 1503.649658,1392.844238 1503.759277,1388.974609  z" id="N1"></path>
<path fill="#E0E0E0" opacity="0" stroke="none" d=" M457.654388,1417.760132   C447.096466,1391.224609 456.582031,1368.405273 475.609436,1358.135254   C511.254242,1338.895996 545.076660,1367.311523 543.859802,1397.487427   C542.994934,1418.935303 529.028870,1438.035400 509.446381,1442.012329   C487.712280,1446.426392 469.732330,1438.204956 457.654388,1417.760132  z" id="M1"></path>
<path fill="#E0E0E0" opacity="0" stroke="none" d=" M2343.368164,506.550476   C2339.899902,520.614990 2332.703613,531.204773 2320.535889,537.450500   C2296.375244,549.852051 2264.446777,541.272461 2255.496582,512.097534   C2247.237793,485.175446 2260.184326,461.059784 2284.983154,454.151703   C2317.846436,444.997162 2338.507812,466.588867 2342.956543,487.864746   C2344.158203,493.611053 2343.414307,499.764099 2343.368164,506.550476  z" id="K1"></path>
<path fill="#E0E0E0" opacity="0" stroke="none" d=" M1378.786133,842.105591   C1367.349976,842.248230 1356.813477,843.380371 1346.805542,837.842041   C1328.384399,827.648132 1318.637573,805.901306 1324.550171,784.916687   C1328.928589,769.376892 1343.826904,752.738770 1367.276123,752.129639   C1392.876709,751.464539 1410.097412,770.193359 1413.193726,788.375183   C1417.580322,814.134705 1404.101196,832.780334 1384.345947,840.325867   C1382.796875,840.917419 1381.216431,841.427124 1378.786133,842.105591  z" id="X"></path>
<path fill="#E0E0E0" opacity="0" stroke="none" d=" M1748.911377,756.601318   C1781.124756,773.856628 1781.834595,817.312439 1753.829224,835.477234   C1728.752930,851.742188 1691.523560,841.084534 1684.328491,808.128540   C1680.481567,790.508545 1684.739746,774.130798 1699.479614,762.266602   C1714.300781,750.336914 1730.886963,749.416199 1748.911377,756.601318  z" id="Y"></path>
<path fill="#E0E0E0" opacity="0" stroke="none" d=" M1503.654785,947.970276   C1503.801392,923.739624 1519.818848,905.081787 1542.018433,902.367737   C1566.194946,899.412109 1587.581909,914.061646 1592.833374,937.174988   C1598.216919,960.869629 1585.103027,984.923950 1561.769775,991.098633   C1526.936890,1000.316528 1501.907227,973.778992 1503.654785,947.970276  z" id="L1"></path>
<path fill="#CDDFE6" opacity="0" stroke="none" d=" M1743.682251,876.771301   C1743.697632,905.576111 1743.697632,933.447693 1743.697632,961.835266   C1703.403320,961.835266 1663.996216,961.835266 1624.134644,961.835266   C1624.134644,952.095825 1624.134644,942.655762 1624.134644,932.521484   C1653.823853,932.521484 1683.013306,932.521484 1713.213135,932.521484   C1713.213135,912.415222 1713.213135,892.956421 1713.213135,872.439331   C1723.074341,872.439331 1731.943237,872.333069 1740.801880,872.588623   C1741.787354,872.617065 1742.713257,874.705139 1743.682251,876.771301  z" id="L1-Y"></path>
<path fill="#CDDFE6" opacity="0" stroke="none" d=" M1398.000000,962.360779   C1383.038208,962.360779 1369.076416,962.360779 1354.365967,962.360779   C1354.365967,932.649719 1354.365967,903.228638 1354.365967,873.053955   C1363.439819,873.053955 1372.867310,873.053955 1383.338135,873.053955   C1383.338135,892.334717 1383.338135,911.774414 1383.338135,932.202942   C1413.762695,932.202942 1443.181641,932.202942 1473.141968,932.202942   C1473.141968,942.369080 1473.141968,951.545105 1473.141968,962.035706   C1460.890137,962.708008 1448.399536,962.264404 1435.936890,962.343689   C1423.625000,962.421997 1411.312378,962.360779 1398.000000,962.360779  z" id="X-L1"></path>
<path fill="#CCDEE5" opacity="0" stroke="none" d=" M1353.607422,674.000244   C1353.586914,660.344177 1353.573730,647.687988 1353.524780,635.031860   C1353.522461,634.410522 1353.208252,633.790283 1352.762817,632.152832   C1347.299561,632.152832 1341.496338,632.152832 1334.988525,632.152832   C1334.988525,622.017578 1334.988525,612.881042 1334.988525,602.301392   C1342.709106,602.301392 1350.557861,602.301331 1358.406738,602.301331   C1366.362549,602.301331 1374.318359,602.301392 1382.989136,602.301392   C1382.989136,642.299500 1382.989136,681.710571 1382.989136,721.747559   C1373.541504,721.747559 1364.098267,721.747559 1353.607422,721.747559   C1353.607422,706.087646 1353.607422,690.543884 1353.607422,674.000244  z" id="X-W"></path>
</svg>