<svg version="1.1" id="Layer_1" xmlns="http://www.w3.org/2000/svg" xmlns:xlink="http://www.w3.org/1999/xlink" x="0px" y="0px" height="100%" viewBox="0 0 2940 2340" enable-background="new 0 0 2940 2340" xml:space="preserve">
<path fill="#FDFDFD" class="lim" id="" opacity="0" stroke="none" d=" M2622.000000,128.333649   C2687.563965,128.333649 2752.128174,128.333649 2817.175781,128.333649   C2817.175781,274.516083 2817.175781,419.699188 2817.175781,565.606812   C2671.726562,565.606812 2526.295654,565.606812 2380.263184,565.606812   C2380.263184,420.366211 2380.263184,274.906494 2380.263184,128.333649   C2460.568848,128.333649 2540.784424,128.333649 2622.000000,128.333649  z"/>
<path fill="#FDFDFD" class="lim" id="" opacity="0" stroke="none" d=" M1287.999756,1316.336670   C1151.692505,1316.336670 1016.385132,1316.336670 880.369629,1316.336670   C880.369629,1220.581909 880.369629,1125.109009 880.369629,1028.984985   C1075.559448,1028.984985 1271.009155,1028.984985 1467.065552,1028.984985   C1467.065552,1124.554321 1467.065552,1219.993530 1467.065552,1316.336670   C1407.487427,1316.336670 1348.243652,1316.336670 1287.999756,1316.336670  z"/>
<path fill="#FDFDFD" class="lim" id="" opacity="0" stroke="none" d=" M2817.664062,1309.575439   C2817.879883,1313.799438 2817.642578,1316.640625 2813.165771,1316.354614   C2810.842285,1316.205933 2808.500732,1316.336792 2806.167480,1316.336792   C2617.501953,1316.337524 2428.836426,1316.337524 2240.170898,1316.337646   C2236.922607,1316.337646 2233.674072,1316.337646 2230.070801,1316.337646   C2230.070801,1220.223877 2230.070801,1124.995117 2230.070801,1029.050537   C2425.516113,1029.050537 2620.953125,1029.050537 2817.664551,1029.050537   C2817.664551,1122.219360 2817.664551,1215.416260 2817.664062,1309.575439  z"/>
<path fill="#FDFDFD" class="lim" id="" opacity="0" stroke="none" d=" M353.999817,566.328796   C279.023926,566.328796 205.048004,566.328796 130.367081,566.328796   C130.367081,420.576660 130.367081,275.107727 130.367081,128.984482   C225.564377,128.984482 321.017151,128.984482 417.068085,128.984482   C417.068085,274.553833 417.068085,419.991699 417.068085,566.328796   C396.161774,566.328796 375.580811,566.328796 353.999817,566.328796  z"/>
<path fill="#FDFDFD" class="lim" id="" opacity="0" stroke="none" d=" M1794.000244,1028.334961   C1885.562378,1028.334961 1976.124512,1028.334961 2067.177734,1028.334961   C2067.177734,1124.522095 2067.177734,1219.707031 2067.177734,1315.616211   C1921.721924,1315.616211 1776.288818,1315.616211 1630.259766,1315.616211   C1630.259766,1220.369019 1630.259766,1124.904419 1630.259766,1028.334961   C1684.558838,1028.334961 1738.779541,1028.334961 1794.000244,1028.334961  z"/>
<path fill="#FDFDFD" class="lim" id="" opacity="0" stroke="none" d=" M687.991333,416.334747   C601.685120,416.334747 516.377747,416.334747 430.367371,416.334747   C430.367371,320.570282 430.367371,225.096970 430.367371,128.976562   C525.565613,128.976562 621.021484,128.976562 717.078613,128.976562   C717.078613,224.562256 717.078613,320.001648 717.078613,416.334747   C707.497009,416.334747 698.243530,416.334747 687.991333,416.334747  z"/>
<path fill="#FDFDFD" class="lim" id="" opacity="0" stroke="none" d=" M968.000122,128.331894   C984.902649,128.331894 1000.805176,128.331894 1017.179932,128.331894   C1017.179932,224.522171 1017.179932,319.707581 1017.179932,415.614380   C921.718872,415.614380 826.284851,415.614380 730.255005,415.614380   C730.255005,320.361359 730.255005,224.898895 730.255005,128.331894   C809.234192,128.331894 888.117126,128.331894 968.000122,128.331894  z"/>
<path fill="#FDFDFD" class="lim" id="" opacity="0" stroke="none" d=" M1317.493774,130.930542   C1317.646484,226.353973 1317.646484,320.856293 1317.646484,415.845337   C1221.394287,415.845337 1125.993896,415.845337 1030.128662,415.845337   C1030.128662,320.154633 1030.128662,224.747818 1030.128662,128.331421   C1033.694580,128.331421 1036.927979,128.331421 1040.161377,128.331421   C1129.087280,128.331573 1218.013306,128.312820 1306.939087,128.402710   C1310.406982,128.406219 1313.873779,129.450241 1317.493774,130.930542  z"/>
<path fill="#FDFDFD" class="lim" id="" opacity="0" stroke="none" d=" M1388.000244,128.331894   C1464.896362,128.331894 1540.792358,128.331894 1617.175049,128.331894   C1617.175049,224.511719 1617.175049,319.696777 1617.175049,415.608826   C1521.728027,415.608826 1426.294434,415.608826 1330.260010,415.608826   C1330.260010,320.370972 1330.260010,224.908035 1330.260010,128.331894   C1349.215942,128.331894 1368.108032,128.331894 1388.000244,128.331894  z"/>
<path fill="#FDFDFD" class="lim" id="" opacity="0" stroke="none" d=" M2067.673096,272.000183   C2067.673096,320.286438 2067.673096,367.572693 2067.673096,415.595947   C1971.741577,415.595947 1876.310913,415.595947 1780.269775,415.595947   C1780.269775,320.383850 1780.269775,224.922592 1780.269775,128.896011   C1875.781250,128.896011 1971.225464,128.896011 2067.673096,128.896011   C2067.673096,176.537277 2067.673096,223.768707 2067.673096,272.000183  z"/>
<path fill="#FDFDFD" class="lim" id="" opacity="0" stroke="none" d=" M2367.674072,302.000183   C2367.674072,340.288696 2367.674072,377.577209 2367.674072,415.599792   C2271.741943,415.599792 2176.309814,415.599792 2080.268555,415.599792   C2080.268555,320.395599 2080.268555,224.932175 2080.268555,128.899719   C2175.765869,128.899719 2271.212402,128.899719 2367.674072,128.899719   C2367.674072,186.539978 2367.674072,243.770065 2367.674072,302.000183  z"/>
<path fill="#FDFDFD" class="lim" id="" opacity="0" stroke="none" d=" M417.665985,1166.000244   C417.665985,1206.288696 417.665985,1245.577026 417.665985,1285.598145   C321.744781,1285.598145 226.311890,1285.598145 130.268921,1285.598145   C130.268921,1200.388672 130.268921,1114.925171 130.268921,1028.896973   C225.777756,1028.896973 321.225311,1028.896973 417.665985,1028.896973   C417.665985,1074.533936 417.665985,1119.767090 417.665985,1166.000244  z"/>
<path fill="#FDFDFD" class="lim" id="" opacity="0" stroke="none" d=" M429.661896,1151.936157   C429.661896,1110.374268 429.661896,1069.808228 429.661896,1028.790527   C525.774353,1028.790527 620.965576,1028.790527 716.157227,1028.796753   C718.130188,1036.058105 718.899963,1234.725098 716.975281,1255.694336   C671.603210,1255.694336 626.166138,1255.694336 580.043091,1255.694336   C579.916992,1252.848145 579.682251,1249.959961 579.677979,1247.071655   C579.645935,1225.410889 579.660706,1203.750000 579.658081,1182.089233   C579.656189,1166.354614 579.654297,1166.338379 564.334351,1166.335083   C523.012207,1166.326172 481.690033,1166.332275 440.367859,1166.332275   C437.110992,1166.332275 433.854095,1166.332153 429.661896,1166.332153   C429.661896,1161.407227 429.661896,1157.169678 429.661896,1151.936157  z"/>
<path fill="#FDFDFD" class="lim" id="" opacity="0" stroke="none" d=" M894.066162,866.334534   C889.085999,866.334534 885.099731,866.334534 880.386292,866.334534   C880.386292,770.630920 880.386292,675.168030 880.386292,579.017700   C925.537354,579.017700 970.980530,579.017700 1017.047607,579.017700   C1017.047607,674.511963 1017.047607,769.946228 1017.047607,866.334534   C976.199341,866.334534 935.629639,866.334534 894.066162,866.334534  z"/>
<path fill="#FDFDFD" class="lim" id="" opacity="0" stroke="none" d=" M2079.658936,809.999817   C2079.658936,732.426880 2079.658936,655.853943 2079.658936,578.808228   C2125.753662,578.808228 2170.958740,578.808228 2216.164551,578.813110   C2218.098145,586.044250 2218.848389,845.767151 2216.932861,865.710999   C2171.553955,865.710999 2126.110107,865.710999 2079.658936,865.710999   C2079.658936,847.438843 2079.658936,829.219360 2079.658936,809.999817  z"/>
<path fill="#FDFDFD" class="lim" id="" opacity="0" stroke="none" d=" M2144.000000,1028.331543   C2168.903564,1028.331543 2192.807129,1028.331543 2217.182861,1028.331543   C2217.182861,1124.512695 2217.182861,1219.698975 2217.182861,1315.614746   C2171.728760,1315.614746 2126.290771,1315.614746 2080.253418,1315.614746   C2080.253418,1220.365967 2080.253418,1124.902222 2080.253418,1028.331543   C2101.215576,1028.331543 2122.107666,1028.331543 2144.000000,1028.331543  z"/>
<path fill="#FDFDFD" class="lim" id="" opacity="0" stroke="none" d=" M1715.999756,416.337463   C1687.022095,416.337463 1659.044434,416.337463 1630.364746,416.337463   C1630.364746,320.574646 1630.364746,225.103867 1630.364746,128.979919   C1675.557617,128.979919 1721.013306,128.979919 1767.074219,128.979919   C1767.074219,224.560104 1767.074219,319.997711 1767.074219,416.337463   C1750.163208,416.337463 1733.581543,416.337463 1715.999756,416.337463  z"/>
<path fill="#FDFDFD" class="lim" id="" opacity="0" stroke="none" d=" M729.658447,1305.899902   C729.658386,1213.010864 729.658386,1121.115601 729.658386,1028.777832   C775.830688,1028.777832 821.034363,1028.777832 866.957275,1028.777832   C866.957275,1124.316406 866.957275,1219.746460 866.957275,1315.759521   C821.487915,1315.759521 776.039795,1315.759521 729.658447,1315.759521   C729.658447,1312.693970 729.658447,1309.793945 729.658447,1305.899902  z"/>
<path fill="#FCFCFC" class="lim" id="" opacity="0" stroke="none" d=" M249.999878,1376.341675   C229.004593,1376.343872 209.009079,1376.286133 189.014175,1376.372803   C178.490402,1376.418457 177.704849,1377.258667 177.687286,1387.843872   C177.644791,1413.473999 177.673492,1439.104126 177.673492,1466.060425   C169.516388,1466.156006 161.702362,1466.282227 153.887848,1466.328979   C146.252838,1466.374634 138.617340,1466.338989 130.319092,1466.338989   C130.319092,1410.508789 130.319092,1355.041870 130.319092,1298.949707   C225.614914,1298.949707 321.056580,1298.949707 417.086121,1298.949707   C417.086121,1324.582886 417.086121,1350.024902 417.086121,1376.341675   C361.477081,1376.341675 306.238495,1376.341675 249.999878,1376.341675  z"/>
<path fill="#CDE0E7" id="M1-N1" opacity="0" stroke="none" d=" M1229.999756,1412.366333   C1011.032776,1412.366333 793.065796,1412.366333 574.363220,1412.366333   C574.363220,1402.600708 574.363220,1393.119141 574.363220,1382.962646   C873.575378,1382.962646 1173.019043,1382.962646 1473.081299,1382.962646   C1473.081299,1392.552979 1473.081299,1401.994629 1473.081299,1412.366333   C1392.148438,1412.366333 1311.574097,1412.366333 1229.999756,1412.366333  z"/>
<path fill="#CDE0E6" id="I1-J1" opacity="0" stroke="none" d=" M887.999878,512.363770   C793.028137,512.363831 699.056396,512.363831 604.359314,512.363831   C604.359314,502.580780 604.359314,493.102936 604.359314,482.960419   C893.609436,482.960419 1183.049927,482.960419 1473.096924,482.960419   C1473.096924,492.584045 1473.096924,502.027191 1473.096924,512.363770   C1278.137573,512.363770 1083.568726,512.363770 887.999878,512.363770  z"/>
<path fill="#CDE0E7" id="N1-O1" opacity="0" stroke="none" d=" M2060.000000,1382.306152   C2194.899658,1382.306152 2328.799561,1382.306152 2463.198486,1382.306152   C2463.198486,1392.488037 2463.198486,1401.679810 2463.198486,1411.624512   C2183.735107,1411.624512 1904.300659,1411.624512 1623.631714,1411.624512   C1623.631714,1407.005859 1623.631714,1402.135864 1623.631714,1397.265747   C1623.631714,1392.652222 1623.631714,1388.038696 1623.631714,1382.306152   C1769.229370,1382.306152 1914.114746,1382.306152 2060.000000,1382.306152  z"/>
<path fill="#CDE0E6" id="J1-K1" opacity="0" stroke="none" d=" M1693.999756,512.364075   C1670.356201,512.364075 1647.712646,512.364075 1624.346680,512.364075   C1624.346680,502.590363 1624.346680,493.110565 1624.346680,482.963043   C1823.592407,482.963043 2023.037598,482.963043 2223.092529,482.963043   C2223.092529,492.573883 2223.092529,502.014801 2223.092529,512.364075   C2046.803345,512.364075 1870.901611,512.364075 1693.999756,512.364075  z"/>
<path fill="#CEE0E7" id="X-L1" opacity="0" stroke="none" d=" M1353.635132,957.816223   C1353.623779,909.206055 1353.623779,861.580444 1353.623779,814.420288   C1352.921265,813.719604 1352.698120,813.469421 1352.445801,813.253357   C1352.202515,813.045105 1351.948730,812.750610 1351.665771,812.705322   C1350.683228,812.548218 1349.685913,812.395935 1348.694092,812.395142   C1261.060303,812.322205 1173.426636,812.263916 1085.792847,812.189575   C1085.501343,812.189331 1085.210205,811.969788 1084.278198,811.595276   C1084.278198,795.441406 1084.278198,779.018433 1084.278198,762.155396   C1093.922974,762.155396 1103.373169,762.155396 1113.583374,762.155396   C1113.583374,768.838196 1113.583374,775.045532 1113.583374,782.237915   C1203.767700,782.237915 1293.198486,782.237915 1383.311523,782.237915   C1383.311523,832.441711 1383.311523,881.638184 1383.311523,931.885254   C1413.414795,931.885254 1442.862671,931.885254 1472.998047,931.885254   C1472.998047,942.355469 1472.998047,951.783813 1472.998047,961.866089   C1470.685181,962.032715 1468.454224,962.331543 1466.223022,962.333496   C1431.235352,962.364075 1396.247314,962.408752 1361.260376,962.255310   C1358.533081,962.243408 1354.059204,964.535217 1353.635132,957.816223  z"/>
<path fill="#CEE0E7" id="L1-Y" opacity="0" stroke="none" d=" M1713.620850,800.089844   C1713.620850,793.839111 1713.620850,788.575684 1713.620850,782.308105   C1803.902832,782.308105 1893.319214,782.308105 1983.497437,782.308105   C1983.497437,775.116272 1983.497437,768.911621 1983.497437,762.183105   C1993.724365,762.183105 2003.189819,762.183105 2013.186157,762.183105   C2013.186157,778.637573 2013.186157,794.809448 2013.186157,812.044861   C1923.714722,812.044861 1834.323120,812.044861 1743.858154,812.044861   C1743.858154,862.508484 1743.858154,911.930908 1743.858154,961.848511   C1703.341187,961.848511 1663.903076,961.848511 1624.044434,961.848511   C1624.044434,952.196533 1624.044434,942.972839 1624.044434,932.694702   C1653.524414,932.694702 1682.984009,932.694702 1713.620850,932.694702   C1713.620850,888.130432 1713.620850,844.603821 1713.620850,800.089844  z"/>
<path fill="#CEE0E7" id="L1-N1" opacity="0" stroke="none" d=" M1563.689941,1144.000000   C1563.689941,1203.614624 1563.689941,1262.229126 1563.689941,1321.601074   C1553.757080,1321.601074 1544.321411,1321.601074 1534.249512,1321.601074   C1534.249512,1222.363647 1534.249512,1122.909180 1534.249512,1022.299744   C1539.183960,1022.299744 1544.077515,1022.299744 1548.970947,1022.299744   C1553.552856,1022.299744 1558.134766,1022.299744 1563.689941,1022.299744   C1563.689941,1063.206543 1563.689941,1103.103271 1563.689941,1144.000000  z"/>
<path fill="#CEE0E7" id="J1-L1" opacity="0" stroke="none" d=" M1533.627319,737.999817   C1533.627319,682.425293 1533.627319,627.850830 1533.627319,572.792725   C1543.734131,572.792725 1552.944214,572.792725 1562.152832,572.792725   C1564.114502,579.994019 1564.859375,852.738220 1562.907227,871.726929   C1553.547485,871.726929 1544.103271,871.726929 1533.627319,871.726929   C1533.627319,827.428162 1533.627319,783.214050 1533.627319,737.999817  z"/>
<path fill="#E0E0E0" id="L1" opacity="0" stroke="none" d=" M1564.674316,904.586060   C1579.477295,911.376404 1589.182495,921.620300 1592.755249,937.022583   C1598.222046,960.590088 1585.972656,983.668518 1562.764404,990.625549   C1527.793213,1001.108826 1502.764648,973.981445 1503.426392,948.919006   C1504.273804,916.817810 1528.193970,896.990479 1559.999268,903.608154   C1561.301147,903.879028 1562.616943,904.083008 1564.674316,904.586060  z"/>
<path fill="#E0E0E0" id="Y" opacity="0" stroke="none" d=" M2037.017090,683.293091   C2051.503662,706.815979 2042.895996,740.069641 2014.943970,749.958252   C1980.488281,762.147583 1951.863770,735.644653 1953.321655,707.169800   C1954.321655,687.640015 1962.586182,673.856079 1979.691895,666.172424   C1996.279541,658.721497 2012.855835,660.538513 2027.416016,672.248596   C2030.969238,675.106140 2033.535645,679.190796 2037.017090,683.293091  z"/>
<path fill="#E0E0E0" id="X" opacity="0" stroke="none" d=" M1063.224121,736.601685   C1045.424316,714.137634 1051.969849,678.918518 1077.771973,666.958069   C1115.209961,649.603760 1145.011963,680.129089 1143.866821,706.987854   C1142.963867,728.164856 1131.621826,746.010803 1111.734985,751.063416   C1093.537109,755.686951 1076.698120,752.175659 1063.224121,736.601685  z"/>
<path fill="#E0E0E0" id="K1" opacity="0" stroke="none" d=" M2292.941895,452.345581   C2312.213867,451.107574 2327.035889,457.355072 2337.014648,473.360931   C2346.231201,488.144379 2346.616699,503.634766 2338.672607,518.787598   C2330.695068,534.004150 2317.985840,542.056458 2300.150879,542.524719   C2279.781250,543.059692 2265.114746,534.344543 2257.166992,516.323914   C2245.327881,489.480682 2260.107666,458.979462 2288.252197,453.389648   C2289.545654,453.132751 2290.805908,452.706696 2292.941895,452.345581  z"/>
<path fill="#E0E0E0" id="M1" opacity="0" stroke="none" d=" M453.878357,1406.918945   C453.710907,1402.721313 453.641479,1399.393188 453.649689,1396.065430   C453.711182,1371.184937 472.770721,1352.407227 498.026978,1352.327637   C523.829224,1352.246338 542.913818,1371.180054 543.903320,1396.052124   C544.675049,1415.450317 532.477051,1433.913086 515.491333,1439.807251   C489.681763,1448.763184 461.765717,1437.792847 453.878357,1406.918945  z"/>
<path fill="#E0E0E0" id="N1" opacity="0" stroke="none" d=" M1578.197998,1432.310913   C1557.969727,1449.305908 1525.473267,1444.342163 1511.157104,1424.231934   C1501.719849,1410.975586 1501.682007,1385.323120 1509.251343,1374.026978   C1520.439209,1357.331055 1537.945068,1349.199341 1557.210083,1352.812866   C1575.038940,1356.156738 1589.400391,1369.721313 1592.872192,1387.511230   C1596.220337,1404.667358 1591.966431,1419.768433 1578.197998,1432.310913  z"/>
<path fill="#E0E0E0" id="O1" opacity="0" stroke="none" d=" M2583.693359,1394.465820   C2585.813721,1418.024414 2569.128174,1436.280273 2553.341797,1440.540771   C2526.204834,1447.864258 2502.073975,1436.772095 2494.936523,1410.343384   C2487.006836,1380.982300 2504.689209,1357.707275 2529.648682,1352.938965   C2556.898682,1347.733154 2580.769287,1365.676880 2583.693359,1394.465820  z"/>
<path fill="#E0E0E0" id="J1" opacity="0" stroke="none" d=" M1562.061768,541.148193   C1549.356079,542.896851 1537.536621,543.778503 1526.364868,537.565063   C1508.244141,527.487000 1498.895874,506.211121 1504.467163,485.372040   C1508.728149,469.433716 1523.397583,453.348328 1545.823975,452.198273   C1573.705200,450.768494 1590.001587,471.124023 1593.079712,487.963104   C1597.958008,514.650635 1582.716553,534.529175 1562.061768,541.148193  z"/>
<path fill="#E0E0E0" id="I1" opacity="0" stroke="none" d=" M567.864868,474.517822   C581.983459,500.182373 570.471741,532.209656 543.519104,540.378662   C516.113708,548.684937 491.322449,536.124390 484.792511,509.532379   C479.245087,486.941559 486.178680,467.764404 509.196533,456.267181   C524.829285,448.458710 551.270203,449.763733 565.785278,471.406616   C566.340332,472.234222 566.905396,473.055115 567.864868,474.517822  z"/>
</svg>