<svg version="1.1" id="Layer_1" xmlns="http://www.w3.org/2000/svg" xmlns:xlink="http://www.w3.org/1999/xlink" x="0px" y="0px" height="100%" viewBox="0 0 2940 2340" enable-background="new 0 0 2940 2340" xml:space="preserve">
<path fill="#FDFDFD" class="lim" id="" opacity="0" stroke="none" d=" M2817.664307,420.000183   C2817.664307,465.663788 2817.710938,510.327454 2817.634521,554.990906   C2817.613281,567.489807 2819.607178,566.311829 2806.713623,566.314575   C2691.721436,566.338928 2576.729492,566.328247 2461.737305,566.327881   C2436.739014,566.327820 2411.740967,566.358337 2386.742676,566.307861   C2379.815674,566.293823 2379.692139,566.183655 2379.685791,559.281982   C2379.645020,515.618347 2379.663086,471.954681 2379.663086,428.291016   C2379.662598,331.964325 2379.650635,235.637650 2379.678467,139.310959   C2379.682129,126.381577 2378.546143,128.365494 2390.990723,128.361511   C2529.314453,128.317184 2667.638428,128.333374 2805.962158,128.333221   C2806.628662,128.333221 2807.295410,128.332016 2807.961914,128.332794   C2818.504150,128.345016 2817.660645,127.513519 2817.661133,138.019592   C2817.666504,231.679779 2817.664307,325.339966 2817.664307,420.000183  z"/>
<path fill="#FDFDFD" class="lim" id="" opacity="0" stroke="none" d=" M417.664734,1439.976318   C417.663666,1447.638428 417.516907,1454.308960 417.718811,1460.969116   C417.831238,1464.679077 416.756409,1466.670898 412.721680,1466.350708   C410.734528,1466.193115 408.724182,1466.330444 406.724335,1466.330444   C317.730347,1466.331177 228.736359,1466.331055 139.742371,1466.330688   C137.742508,1466.330688 135.737152,1466.229492 133.744095,1466.344482   C130.798630,1466.514282 129.494019,1465.269897 129.648499,1462.291626   C129.769150,1459.964966 129.662231,1457.626587 129.662231,1455.293457   C129.661758,1316.636108 129.652985,1177.978882 129.676712,1039.321533   C129.678925,1026.401001 128.512802,1028.370850 140.975555,1028.363403   C229.302887,1028.310181 317.630249,1028.335327 405.957611,1028.335449   C406.624237,1028.335449 407.290863,1028.334106 407.957489,1028.336548   C418.502625,1028.375488 417.660278,1027.448120 417.660706,1038.007568   C417.666107,1171.665161 417.664520,1305.322876 417.664734,1439.976318  z"/>
<path fill="#FDFDFD" class="lim" id="" opacity="0" stroke="none" d=" M558.000183,1028.335083   C657.326965,1028.335083 755.653748,1028.335083 853.980469,1028.335083   C855.647034,1028.335083 857.313721,1028.348877 858.980164,1028.333130   C868.093506,1028.246704 867.679504,1027.996460 867.678101,1037.045898   C867.663757,1127.039795 867.676147,1217.033813 867.663940,1307.027710   C867.662598,1316.986694 868.885315,1316.334473 857.681030,1316.334839   C745.021912,1316.338379 632.362793,1316.336792 519.703674,1316.337036   C492.038849,1316.337158 464.373993,1316.366821 436.709259,1316.319946   C429.808319,1316.308228 429.685699,1316.195801 429.683624,1309.264404   C429.656494,1218.270508 429.657043,1127.276611 429.684479,1036.282715   C429.686859,1028.426270 429.798065,1028.354248 438.008392,1028.348633   C477.672302,1028.321045 517.336243,1028.335571 558.000183,1028.335083  z"/>
<path fill="#FDFDFD" class="lim" id="" opacity="0" stroke="none" d=" M1115.999756,1316.337036   C1089.334839,1316.337646 1063.669922,1316.342651 1038.005005,1316.336548   C1029.332275,1316.334595 1029.657104,1317.285889 1029.658203,1308.560303   C1029.669800,1217.899780 1029.673340,1127.239136 1029.655884,1036.578613   C1029.654175,1027.634033 1029.589355,1028.325073 1037.712646,1028.325928   C1178.036499,1028.340088 1318.360352,1028.340210 1458.684204,1028.325439   C1468.549561,1028.324463 1467.669800,1028.114624 1467.669800,1037.750000   C1467.670166,1127.410645 1467.679932,1217.071167 1467.659180,1306.731812   C1467.656860,1316.721680 1469.145264,1316.338745 1457.977051,1316.338501   C1344.317993,1316.336060 1230.658936,1316.337036 1115.999756,1316.337036  z"/>
<path fill="#FDFDFD" class="lim" id="" opacity="0" stroke="none" d=" M2067.672363,1158.000244   C2067.672363,1207.663696 2067.672607,1256.327026 2067.671875,1304.990479   C2067.671875,1307.323608 2067.577393,1309.660889 2067.684326,1311.989014   C2067.815186,1314.839233 2066.716797,1316.376587 2063.717529,1316.322510   C2061.385498,1316.280396 2059.051514,1316.335938 2056.718506,1316.335938   C1917.727905,1316.337524 1778.737183,1316.337891 1639.746582,1316.338013   C1637.746704,1316.338013 1635.741577,1316.239502 1633.748169,1316.352417   C1630.808350,1316.518921 1629.479492,1315.282471 1629.651978,1312.300415   C1629.767334,1310.307373 1629.665405,1308.302002 1629.665405,1306.302124   C1629.665283,1217.308105 1629.649414,1128.314209 1629.683960,1039.320190   C1629.688965,1026.406616 1628.454224,1028.368164 1640.970703,1028.364014   C1779.294800,1028.318359 1917.618774,1028.335205 2055.942871,1028.335083   C2056.609375,1028.335083 2057.276123,1028.333984 2057.942627,1028.335327   C2068.481934,1028.355591 2067.664062,1027.506226 2067.666504,1038.008057   C2067.675537,1077.672119 2067.671631,1117.336060 2067.672363,1158.000244  z"/>
<path fill="#FDFDFD" class="lim" id="" opacity="0" stroke="none" d=" M1962.000244,128.332047   C1995.330200,128.332077 2027.660278,128.304916 2059.990234,128.352386   C2067.522217,128.363449 2067.649902,128.480118 2067.652344,136.042847   C2067.681396,227.033493 2067.680420,318.024139 2067.648193,409.014771   C2067.645508,416.208313 2067.511230,416.293549 2059.681641,416.317200   C2041.683594,416.371582 2023.685303,416.334564 2005.687134,416.334595   C1933.361206,416.334595 1861.035400,416.343689 1788.709473,416.324066   C1778.595825,416.321350 1779.678955,417.335571 1779.676392,407.252899   C1779.653320,317.595459 1779.661987,227.938004 1779.662720,138.280563   C1779.662720,136.280838 1779.717163,134.280411 1779.679810,132.281555   C1779.623413,129.282608 1781.172363,128.188004 1784.019409,128.318558   C1786.347534,128.425308 1788.684570,128.332428 1791.017700,128.332397   C1847.678467,128.331924 1904.339355,128.332031 1962.000244,128.332047  z"/>
<path fill="#FDFDFD" class="lim" id="" opacity="0" stroke="none" d=" M2079.661377,227.999847   C2079.661621,196.669144 2079.633057,166.338409 2079.682373,136.007782   C2079.694580,128.467606 2079.810303,128.353058 2087.288574,128.350815   C2177.947266,128.323547 2268.606201,128.324448 2359.264893,128.346161   C2367.533936,128.348145 2367.652344,128.438248 2367.654785,136.329224   C2367.682129,226.988022 2367.664062,317.646820 2367.682129,408.305603   C2367.683594,416.453430 2368.266602,416.350433 2359.400146,416.348419   C2268.741455,416.327789 2178.082520,416.330994 2087.423828,416.343170   C2078.673096,416.344330 2079.664551,416.639648 2079.663818,407.984314   C2079.658936,348.322815 2079.661133,288.661346 2079.661377,227.999847  z"/>
<path fill="#FDFDFD" class="lim" id="" opacity="0" stroke="none" d=" M1428.000244,128.331924   C1487.662231,128.331863 1546.324097,128.331802 1604.986084,128.331665   C1606.319336,128.331665 1607.652710,128.342270 1608.985840,128.328735   C1618.113281,128.236008 1617.676514,127.998642 1617.674927,137.040359   C1617.658813,227.366455 1617.672241,317.692566 1617.653687,408.018646   C1617.651978,416.204773 1617.575317,416.314056 1609.687744,416.316376   C1518.695068,416.343109 1427.702271,416.343658 1336.709595,416.316040   C1329.808594,416.313965 1329.683594,416.189850 1329.681396,409.261322   C1329.652588,318.268616 1329.652222,227.275925 1329.678223,136.283218   C1329.680420,128.421371 1329.790649,128.353104 1338.007568,128.344437   C1367.671753,128.313187 1397.335938,128.332016 1428.000244,128.331924  z"/>
<path fill="#FDFDFD" class="lim" id="" opacity="0" stroke="none" d=" M1029.664307,323.999817   C1029.664307,262.671082 1029.664185,202.342316 1029.664307,142.013565   C1029.664307,140.680328 1029.663940,139.347107 1029.664307,138.013870   C1029.667480,126.927864 1029.188599,128.344910 1039.275146,128.342712   C1128.601685,128.323242 1217.928223,128.331680 1307.254761,128.331985   C1308.921265,128.332001 1310.596069,128.439178 1312.252686,128.312180   C1315.907837,128.031982 1318.020752,129.248062 1317.691406,133.310211   C1317.557251,134.965607 1317.677979,136.641434 1317.677979,138.307953   C1317.678345,227.634506 1317.678101,316.961060 1317.677246,406.287598   C1317.677246,408.287445 1317.580811,410.291748 1317.683472,412.286072   C1317.842041,415.366730 1316.261719,416.418030 1313.424683,416.331177   C1311.093994,416.259796 1308.759033,416.333801 1306.425903,416.333832   C1217.765991,416.334656 1129.105957,416.359253 1040.446045,416.306030   C1028.007080,416.298584 1029.735474,418.032166 1029.693970,405.993378   C1029.600708,378.995819 1029.664429,351.997711 1029.664307,323.999817  z"/>
<path fill="#FDFDFD" class="lim" id="" opacity="0" stroke="none" d=" M417.665619,280.000183   C417.665527,323.330109 417.679382,365.660034 417.653320,407.989960   C417.648254,416.202393 417.576477,416.313690 409.716461,416.316040   C318.723785,416.343262 227.731125,416.343536 136.738449,416.316193   C129.810318,416.314117 129.683853,416.191437 129.681641,409.290161   C129.652527,318.297485 129.652328,227.304825 129.677872,136.312149   C129.680084,128.422623 129.788391,128.345718 137.978714,128.343964   C228.304764,128.324646 318.630829,128.338089 408.956879,128.319763   C418.020630,128.317932 417.682098,127.905624 417.677124,137.011398   C417.651367,184.340988 417.665436,231.670563 417.665619,280.000183  z"/>
<path fill="#FDFDFD" class="lim" id="" opacity="0" stroke="none" d=" M2738.000000,1316.337891   C2672.004883,1316.337891 2607.009521,1316.337891 2542.014404,1316.337891   C2539.681396,1316.337891 2537.322266,1316.115112 2535.020508,1316.383057   C2530.399902,1316.920898 2529.467773,1314.636353 2529.593750,1310.569824   C2529.831055,1302.911011 2529.661377,1295.239746 2529.661377,1287.573608   C2529.661133,1205.246460 2529.661621,1122.919189 2529.661865,1040.592041   C2529.661865,1038.258911 2529.760986,1035.920654 2529.642090,1033.593628   C2529.457031,1029.968018 2530.565430,1027.806030 2534.707764,1028.306885   C2536.350098,1028.505493 2538.037109,1028.334473 2539.703613,1028.334473   C2628.697021,1028.334351 2717.690186,1028.319702 2806.683594,1028.351685   C2819.186279,1028.356201 2817.640625,1027.024048 2817.645752,1039.732056   C2817.683105,1128.392090 2817.666260,1217.052246 2817.666260,1305.712280   C2817.666260,1306.712158 2817.680176,1307.712402 2817.663330,1308.712036   C2817.535645,1316.196289 2817.533936,1316.303467 2809.994629,1316.320435   C2786.329834,1316.373657 2762.664795,1316.338623 2738.000000,1316.337891  z"/>
<path fill="#FDFDFD" class="lim" id="" opacity="0" stroke="none" d=" M711.595825,416.332458   C620.964233,416.334290 531.299133,416.334503 441.633972,416.334076   C438.967377,416.334076 436.295837,416.224060 433.635437,416.350830   C430.589844,416.495941 429.495239,415.058624 429.654175,412.178864   C429.764221,410.185181 429.665283,408.180176 429.665283,406.180206   C429.664551,317.181732 429.653717,228.183243 429.676483,139.184769   C429.679688,126.703209 428.616364,128.356339 440.105194,128.351639   C529.103699,128.315186 618.102173,128.331772 707.100647,128.331955   C708.433960,128.331955 709.788879,128.487518 711.096802,128.305557   C716.504639,127.553276 717.796448,130.117828 717.766846,135.155563   C717.586548,165.820633 717.678223,196.487320 717.678345,227.153458   C717.678528,286.485779 717.678894,345.818085 717.675537,405.150421   C717.675415,407.816559 717.687317,410.484222 717.606445,413.148499   C717.500305,416.641907 714.843201,416.216553 711.595825,416.332458  z"/>
<path fill="#FDFDFD" class="lim" id="" opacity="0" stroke="none" d=" M2256.000000,1316.337769   C2200.670654,1316.337769 2146.341553,1316.337769 2092.012207,1316.337524   C2089.678955,1316.337524 2087.320068,1316.112915 2085.018066,1316.380371   C2080.395508,1316.917236 2079.468506,1314.626099 2079.593506,1310.563721   C2079.829346,1302.904785 2079.661377,1295.233643 2079.661377,1287.567505   C2079.661133,1205.240234 2079.661377,1122.913086 2079.661377,1040.585815   C2079.661377,1038.252686 2079.760010,1035.914551 2079.639648,1033.587646   C2079.452148,1029.959473 2080.561279,1027.800659 2084.704590,1028.305420   C2086.346680,1028.505371 2088.033691,1028.334595 2089.700195,1028.334473   C2178.693604,1028.334351 2267.687012,1028.320068 2356.680420,1028.350464   C2369.186035,1028.354736 2367.644531,1027.046265 2367.650635,1039.736450   C2367.692627,1128.396484 2367.673584,1217.056641 2367.674072,1305.716675   C2367.674072,1306.716553 2367.687988,1307.716797 2367.670898,1308.716431   C2367.542236,1316.188721 2367.540771,1316.306885 2359.992432,1316.317139   C2325.661621,1316.363525 2291.330811,1316.337769 2256.000000,1316.337769  z"/>
<path fill="#FDFDFD" class="lim" id="" opacity="0" stroke="none" d=" M1009.664185,416.333130   C919.368164,416.334076 830.036377,416.334473 740.704651,416.334351   C738.371338,416.334351 736.032898,416.228821 733.706055,416.350311   C730.726562,416.505798 729.484253,415.197662 729.651062,412.254272   C729.763977,410.260956 729.661804,408.255615 729.661804,406.255676   C729.661072,317.257263 729.647583,228.258835 729.675964,139.260406   C729.680054,126.373810 728.541016,128.368561 741.031250,128.360855   C829.363037,128.306305 917.694763,128.331650 1006.026550,128.331436   C1007.359863,128.331436 1008.693604,128.308792 1010.026428,128.333771   C1017.518127,128.474167 1017.643188,128.477997 1017.645630,136.082092   C1017.675293,227.080490 1017.623779,318.078949 1017.767273,409.077118   C1017.775879,414.544037 1016.408386,417.244904 1009.664185,416.333130  z"/>
<path fill="#FDFDFD" class="lim" id="" opacity="0" stroke="none" d=" M2379.658936,1211.999756   C2379.658936,1154.671143 2379.658936,1098.342529 2379.659180,1042.013916   C2379.659180,1040.680664 2379.661621,1039.347534 2379.662109,1038.014282   C2379.665283,1026.855591 2379.278564,1028.352783 2389.284668,1028.344727   C2428.614746,1028.313477 2467.944580,1028.331787 2507.274658,1028.331909   C2508.941162,1028.331909 2510.615967,1028.439697 2512.272461,1028.312378   C2515.942383,1028.030029 2518.006104,1029.283203 2517.697510,1033.329224   C2517.545898,1035.317261 2517.680176,1037.326782 2517.680176,1039.326660   C2517.680420,1128.319214 2517.680664,1217.311646 2517.680420,1306.304199   C2517.680420,1308.304077 2517.584229,1310.308472 2517.688965,1312.302612   C2517.851318,1315.394775 2516.248535,1316.438477 2513.422607,1316.333984   C2511.758545,1316.272461 2510.090088,1316.339355 2508.423584,1316.339478   C2468.427002,1316.340454 2428.430420,1316.354858 2388.433838,1316.329834   C2378.456299,1316.323608 2379.688721,1317.292725 2379.674561,1306.991943   C2379.631592,1275.661255 2379.658936,1244.330566 2379.658936,1211.999756  z"/>
<path fill="#FDFDFD" class="lim" id="" opacity="0" stroke="none" d=" M879.658325,1127.999756   C879.658081,1096.668579 879.629700,1066.337524 879.677490,1036.006348   C879.689392,1028.461304 879.802490,1028.355591 887.275513,1028.348877   C927.939270,1028.312622 968.602966,1028.315308 1009.266724,1028.348022   C1017.590881,1028.354858 1017.652039,1028.440674 1017.656921,1037.310791   C1017.680420,1079.974365 1017.668152,1122.638062 1017.668274,1165.301636   C1017.668396,1211.964966 1017.668396,1258.628174 1017.667786,1305.291504   C1017.667725,1307.624634 1017.569458,1309.962280 1017.679993,1312.289917   C1017.826355,1315.372803 1016.249695,1316.438599 1013.419189,1316.338867   C1011.754944,1316.280273 1010.086609,1316.341309 1008.420105,1316.341309   C968.756287,1316.341553 929.092468,1316.378906 889.428772,1316.316040   C878.143127,1316.298096 879.693054,1317.791016 879.682434,1305.987061   C879.629639,1246.991333 879.658325,1187.995605 879.658325,1127.999756  z"/>
<path fill="#FDFDFD" class="lim" id="" opacity="0" stroke="none" d=" M2195.954346,866.334534   C2159.297119,866.334534 2123.634033,866.339417 2087.971191,866.331055   C2079.396484,866.329041 2079.651123,867.343262 2079.652344,858.528320   C2079.663574,767.871216 2079.668457,677.214050 2079.643311,586.556946   C2079.640869,577.591736 2079.721924,578.312866 2087.734131,578.318726   C2128.063232,578.348083 2168.392334,578.318787 2208.721436,578.344116   C2217.564697,578.349670 2217.652588,578.413574 2217.654785,586.782654   C2217.676270,677.106445 2217.674561,767.430298 2217.657959,857.754089   C2217.656494,866.247009 2217.590088,866.259155 2208.947510,866.328430   C2204.948242,866.360413 2200.948242,866.334290 2195.954346,866.334534  z"/>
<path fill="#FDFDFD" class="lim" id="" opacity="0" stroke="none" d=" M879.658447,751.999817   C879.658447,697.339478 879.658264,643.679199 879.658875,590.018921   C879.658875,587.685913 879.754272,585.348816 879.648376,583.020813   C879.498230,579.718567 880.774353,578.009888 884.273682,578.319702   C885.596313,578.436829 886.938293,578.332275 888.271484,578.332275   C928.600037,578.332397 968.928528,578.315308 1009.257080,578.347961   C1017.531738,578.354614 1017.647522,578.440430 1017.649963,586.318298   C1017.677795,676.974182 1017.660278,767.630066 1017.681274,858.285950   C1017.683105,866.355835 1018.348877,866.353943 1009.415710,866.347229   C968.753906,866.316528 928.092041,866.326050 887.430237,866.341003   C878.704346,866.344238 879.664490,866.676514 879.662292,857.987427   C879.653320,822.991577 879.658508,787.995728 879.658447,751.999817  z"/>
<path fill="#FDFDFD" class="lim" id="" opacity="0" stroke="none" d=" M1629.661621,301.999817   C1629.661621,247.338623 1629.661377,193.677429 1629.661987,140.016235   C1629.661987,137.683167 1629.761841,135.345688 1629.651245,133.018066   C1629.494141,129.710815 1630.772339,128.009476 1634.269531,128.316589   C1635.592163,128.432739 1636.934204,128.328690 1638.267334,128.328690   C1678.596558,128.328705 1718.925781,128.311859 1759.255005,128.343811   C1767.536133,128.350372 1767.654907,128.434555 1767.657349,136.314240   C1767.684692,226.971664 1767.667847,317.629089 1767.681885,408.286499   C1767.683105,416.319092 1768.416870,416.361664 1759.424561,416.353821   C1718.761963,416.318359 1678.099487,416.328369 1637.436890,416.343689   C1628.678467,416.346985 1629.668945,416.635773 1629.666626,407.989075   C1629.656860,372.992676 1629.661987,337.996246 1629.661621,301.999817  z"/>
<path fill="#CDE0E6" id="P1-Q1" opacity="0" stroke="none" d=" M1467.601562,512.375366   C1082.970581,512.372009 699.305603,512.367737 315.640564,512.363586   C303.627319,512.363464 303.509460,512.362122 303.680084,500.197571   C303.758636,494.599030 301.309753,487.569580 304.836700,483.775909   C308.437439,479.902954 315.555969,482.375427 321.107056,482.374451   C701.105408,482.307220 1081.103760,482.306244 1461.102173,482.340546   C1475.560303,482.341858 1473.499634,480.346069 1473.690430,495.160706   C1473.746338,499.493256 1473.583130,503.830688 1473.721680,508.159424   C1473.843994,511.982941 1471.529541,512.495117 1467.601562,512.375366  z"/>
<path fill="#CDE0E7" id="T1-U1" opacity="0" stroke="none" d=" M1074.000000,1382.306274   C1203.991821,1382.305542 1332.983643,1382.304932 1461.975464,1382.304199   C1462.975342,1382.304199 1463.975464,1382.293945 1464.975220,1382.304443   C1473.604126,1382.394409 1473.847534,1382.401733 1473.622192,1391.027588   C1473.442505,1397.910400 1476.653076,1406.681763 1472.024414,1411.150513   C1467.867554,1415.163818 1459.296143,1412.317139 1452.685425,1412.318481   C1163.703735,1412.373657 874.722107,1412.366089 585.740479,1412.364624   C573.633972,1412.364502 573.525635,1412.356812 573.676331,1400.268433   C573.746216,1394.659668 571.279114,1387.471680 574.787170,1383.842163   C578.732666,1379.760254 586.152161,1382.374512 592.030640,1382.371460   C752.353699,1382.289795 912.676880,1382.306274 1074.000000,1382.306274  z"/>
<path fill="#CDE0E7" id="U1-V1" opacity="0" stroke="none" d=" M1852.000000,1382.306274   C2072.321045,1382.306274 2291.641846,1382.293335 2510.962891,1382.335815   C2525.609131,1382.338623 2523.644043,1380.383179 2523.604980,1395.025757   C2523.590088,1400.564087 2526.083740,1407.546265 2522.145264,1411.280884   C2518.662354,1414.583862 2511.937988,1412.320679 2506.659668,1412.321533   C2216.342773,1412.371948 1926.025757,1412.366455 1635.708740,1412.366577   C1623.627319,1412.366577 1623.395996,1412.360229 1623.729980,1400.261475   C1623.890259,1394.450439 1620.772583,1386.770752 1625.515015,1383.328247   C1629.278076,1380.596558 1636.387817,1382.330933 1642.011719,1382.328247   C1711.674438,1382.294678 1781.337280,1382.306274 1852.000000,1382.306274  z"/>
<path fill="#CDE0E6" id="Q1-R1" opacity="0" stroke="none" d=" M1896.000000,482.313110   C2001.658325,482.312775 2106.316650,482.312439 2210.974854,482.312042   C2212.308105,482.312042 2213.641357,482.299286 2214.974609,482.312836   C2223.606445,482.400604 2223.850830,482.408875 2223.623779,491.028015   C2223.442627,497.909149 2226.655273,506.676270 2222.026367,511.147156   C2217.865479,515.166077 2209.297607,512.313171 2202.687256,512.315369   C2013.369141,512.375793 1824.050903,512.376221 1634.732788,512.338074   C1621.997070,512.335510 1623.514404,514.108826 1623.755859,501.282349   C1623.871216,495.148224 1620.564575,487.018494 1625.551025,483.381958   C1629.521973,480.486053 1637.063721,482.337769 1643.020264,482.335449   C1727.013550,482.302521 1811.006714,482.313049 1896.000000,482.313110  z"/>
<path fill="#CEE0E7" id="Z-S1" opacity="0" stroke="none" d=" M1235.999756,812.363037   C1188.683960,812.363159 1142.368286,812.363342 1096.052490,812.363159   C1093.720093,812.363159 1091.364868,812.150940 1089.059937,812.401672   C1084.491577,812.898560 1083.512451,810.670654 1083.571411,806.575745   C1083.758667,793.583374 1083.859985,780.580994 1083.529175,767.594360   C1083.401245,762.568726 1085.250122,761.294800 1089.883179,761.553894   C1095.862305,761.888245 1101.879761,761.797241 1107.869873,761.584106   C1111.970703,761.438110 1114.301758,762.608826 1113.707520,767.152283   C1113.621826,767.807312 1113.687500,768.483765 1113.700806,769.149963   C1113.964844,782.301514 1113.965576,782.301575 1126.710571,782.301636   C1208.679443,782.301758 1290.648315,782.290405 1372.617188,782.314453   C1385.070190,782.318115 1383.673218,781.087891 1383.685669,793.647827   C1383.727051,835.631897 1383.701660,877.615906 1383.701782,919.599976   C1383.701782,921.265991 1383.714233,922.932190 1383.699341,924.598083   C1383.629150,932.478271 1383.205811,932.333313 1391.180298,932.319763   C1413.505127,932.281738 1435.829956,932.309631 1458.154785,932.310547   C1461.486816,932.310730 1464.824463,932.424316 1468.149536,932.270569   C1471.711914,932.105774 1473.845459,933.041504 1473.738403,937.191895   C1473.557861,944.184631 1473.625732,951.185852 1473.706909,958.182190   C1473.741577,961.162048 1472.388428,962.416260 1469.509644,962.336670   C1467.845093,962.290649 1466.177979,962.352844 1464.511963,962.352966   C1430.524902,962.355530 1396.537842,962.365906 1362.550781,962.351074   C1352.650024,962.346741 1353.635986,963.215881 1353.630249,953.092163   C1353.605835,910.108521 1353.620850,867.124817 1353.620483,824.141174   C1353.620483,821.808777 1353.520020,819.471924 1353.630371,817.144958   C1353.789062,813.799622 1352.409912,812.199402 1348.956177,812.361755   C1346.296753,812.486877 1343.626221,812.364258 1340.960571,812.364136   C1306.307007,812.362488 1271.653442,812.363037 1235.999756,812.363037  z"/>
<path fill="#CEE0E7" id="S1-A1" opacity="0" stroke="none" d=" M1632.348511,932.310547   C1656.633179,932.308655 1679.954468,932.329529 1703.275879,932.295410   C1715.022705,932.278198 1713.597900,933.121948 1713.606812,922.296326   C1713.641846,879.318359 1713.620972,836.340393 1713.623169,793.362427   C1713.623291,791.030396 1713.683472,788.697876 1713.648804,786.366516   C1713.604980,783.427490 1715.038696,782.193848 1717.929443,782.295349   C1720.591309,782.388855 1723.259277,782.302551 1725.924561,782.302490   C1807.549316,782.300598 1889.174194,782.299500 1970.798950,782.298279   C1971.798462,782.298279 1972.797852,782.296021 1973.797363,782.298645   C1984.887817,782.327881 1983.574341,782.680847 1983.624268,772.784424   C1983.680542,761.637695 1983.684814,761.539917 1994.651367,761.671265   C2000.604980,761.742493 2008.232910,759.205811 2012.082153,762.750549   C2016.485962,766.805969 2013.368896,774.710022 2013.632568,780.922424   C2013.957153,788.571289 2013.742188,796.244873 2013.694092,803.907288   C2013.641479,812.283630 2013.608521,812.285828 2004.832031,812.360596   C2003.166382,812.374817 2001.500366,812.362244 1999.834595,812.362244   C1918.542969,812.362549 1837.251221,812.362793 1755.959595,812.363586   C1753.627441,812.363586 1751.282715,812.526123 1748.966064,812.338013   C1745.139160,812.027222 1743.486206,813.549500 1743.657104,817.458313   C1743.846069,821.781128 1743.699097,826.118652 1743.698975,830.449768   C1743.698975,871.428772 1743.693848,912.407715 1743.702515,953.386719   C1743.704346,962.260620 1744.729980,962.371277 1735.311646,962.364990   C1700.662720,962.341980 1666.013794,962.340210 1631.364868,962.368042   C1623.393311,962.374390 1623.564941,962.763245 1623.623657,954.899597   C1623.660889,949.902466 1623.570801,944.904053 1623.638550,939.907532   C1623.733521,932.910950 1623.773682,932.911499 1632.348511,932.310547  z"/>
<path fill="#CEE0E7" id="S1-U1" opacity="0" stroke="none" d=" M1563.689941,1186.000000   C1563.690186,1229.326294 1563.705566,1271.652466 1563.677368,1313.978760   C1563.671753,1322.223511 1563.591431,1322.397827 1555.714478,1322.307495   C1548.766602,1322.227783 1539.771729,1325.233032 1535.401611,1321.227783   C1530.454956,1316.694458 1533.725098,1307.420410 1533.714355,1300.245850   C1533.581299,1211.260864 1533.616943,1122.275635 1533.638916,1033.290405   C1533.642090,1020.421387 1532.607544,1022.465515 1544.978882,1022.310059   C1549.643921,1022.251404 1554.312866,1022.404785 1558.975464,1022.284302   C1562.369385,1022.196533 1563.869019,1023.632080 1563.700928,1027.027588   C1563.585693,1029.354614 1563.689575,1031.692383 1563.689697,1034.025269   C1563.690308,1084.350220 1563.689941,1134.675049 1563.689941,1186.000000  z"/>
<path fill="#CEE0E7" id="Q1-S1" opacity="0" stroke="none" d=" M1533.627441,637.999817   C1533.625977,617.668884 1533.760254,598.336487 1533.531738,579.008301   C1533.471558,573.916443 1534.851685,571.618774 1540.266113,572.251343   C1547.765137,573.127502 1557.394287,569.021118 1562.297729,574.091492   C1566.722534,578.666748 1563.628418,588.064148 1563.635254,595.320557   C1563.718872,683.975769 1563.711914,772.630981 1563.662476,861.286255   C1563.655640,873.552429 1565.486816,872.377319 1552.396606,872.300903   C1546.480225,872.266418 1538.988281,874.826050 1535.057861,871.172302   C1531.036865,867.434204 1533.698730,859.848511 1533.690674,853.972168   C1533.593384,782.314819 1533.627441,710.657349 1533.627441,637.999817  z"/>
<path fill="#E0E0E0" id="S1" opacity="0" stroke="none" d=" M1503.786377,938.977051   C1513.105591,899.166626 1556.109131,893.866821 1577.475342,912.177551   C1591.330444,924.051208 1596.499512,939.407471 1593.061279,956.938721   C1589.664307,974.259705 1578.803955,986.612915 1561.739746,991.085327   C1526.726807,1000.261963 1501.957520,973.647522 1503.628418,948.836182   C1503.829346,945.853455 1503.670288,942.846436 1503.786377,938.977051  z"/>
<path fill="#E0E0E0" id="A1" opacity="0" stroke="none" d=" M1955.064941,721.878357   C1952.209473,705.572998 1952.702148,690.865845 1963.759521,677.883240   C1976.471191,662.958130 1995.945068,658.604248 2014.491821,664.719543   C2032.835205,670.767883 2043.604614,690.884827 2044.004883,705.915649   C2044.584351,727.666687 2030.115234,745.238342 2014.657349,750.126526   C1991.121460,757.569214 1965.623291,749.767334 1955.064941,721.878357  z"/>
<path fill="#E0E0E0" id="Z" opacity="0" stroke="none" d=" M1063.223999,736.601685   C1045.423584,714.136292 1051.971191,678.917908 1077.771973,666.958069   C1115.209229,649.604187 1145.012329,680.128662 1143.866821,706.987976   C1142.963745,728.164856 1131.621704,746.010681 1111.734863,751.063416   C1093.536865,755.687134 1076.698120,752.175415 1063.223999,736.601685  z"/>
<path fill="#E0E0E0" id="R1" opacity="0" stroke="none" d=" M2264.194824,527.688232   C2246.803711,507.935974 2250.673584,474.502472 2272.215820,460.175934   C2287.371338,450.096924 2303.528320,449.049896 2319.434326,457.166779   C2335.054443,465.137817 2342.963867,478.446594 2343.883789,496.512756   C2344.849365,515.474670 2331.911865,535.788086 2312.161621,540.903625   C2294.405029,545.502930 2277.784180,542.651184 2264.194824,527.688232  z"/>
<path fill="#E0E0E0" id="T1" opacity="0" stroke="none" d=" M529.757141,1364.212891   C548.844360,1382.792847 546.962341,1410.672363 533.973511,1426.419678   C521.537170,1441.497314 504.997101,1445.405884 487.179657,1441.565308   C470.006897,1437.863647 458.546906,1426.066650 454.353088,1408.791138   C449.567261,1389.076782 457.639343,1369.458496 473.690613,1358.999634   C488.025177,1349.659302 512.552063,1349.058350 527.760681,1362.369385   C528.261536,1362.807617 528.750305,1363.259766 529.757141,1364.212891  z"/>
<path fill="#E0E0E0" id="U1" opacity="0" stroke="none" d=" M1577.060303,1433.242920   C1553.220581,1451.115112 1517.160400,1443.395752 1506.452148,1414.929688   C1499.962402,1397.677490 1501.955444,1380.711670 1515.002930,1366.536499   C1528.044800,1352.367310 1544.647705,1349.098633 1562.446655,1354.202637   C1579.562744,1359.110962 1590.061768,1371.704712 1593.207886,1388.914917   C1596.326538,1405.975586 1591.320801,1421.184082 1577.060303,1433.242920  z"/>
<path fill="#E0E0E0" id="V1" opacity="0" stroke="none" d=" M2555.919922,1380.811035   C2567.222656,1356.831299 2587.577393,1348.269043 2611.232422,1353.779053   C2628.954590,1357.907104 2643.355225,1376.169434 2643.674072,1394.523315   C2644.064453,1417.000977 2633.962158,1433.998413 2614.039062,1440.178711   C2587.559570,1448.393311 2563.915527,1437.593872 2554.989014,1411.072632   C2551.839111,1401.714111 2552.375244,1391.346436 2555.919922,1380.811035  z"/>
<path fill="#E0E0E0" id="Q1" opacity="0" stroke="none" d=" M1505.081787,511.876709   C1501.929443,495.135345 1502.859985,480.001831 1514.383301,467.101929   C1527.183838,452.772400 1545.670410,448.782410 1564.518433,454.683594   C1581.043091,459.857361 1593.120361,477.711273 1593.769897,494.923920   C1594.495239,514.145264 1586.744873,528.766602 1570.040039,537.617615   C1547.490479,549.565430 1515.732056,541.682983 1505.081787,511.876709  z"/>
<path fill="#E0E0E0" id="P1" opacity="0" stroke="none" d=" M190.354248,472.663391   C206.879807,446.954102 240.941193,448.274048 256.550903,461.394897   C270.898773,473.455109 276.502899,488.848358 273.100433,506.773254   C269.813049,524.091858 258.940643,536.461609 241.854996,541.031921   C206.589844,550.465088 182.174164,523.293762 183.473526,498.880585   C183.960251,489.735474 184.377823,480.970917 190.354248,472.663391  z"/>
</svg>