<svg version="1.1" id="Layer_1" xmlns="http://www.w3.org/2000/svg" xmlns:xlink="http://www.w3.org/1999/xlink" x="0px" y="0px" height="100%" viewBox="0 0 2940 2340" enable-background="new 0 0 2940 2340" xml:space="preserve">
<path fill="#FDFDFD" class="lim" opacity="0" stroke="none" d="
M2379.661865,237.999847 
	C2379.662109,204.004456 2379.664551,171.009064 2379.660645,138.013672 
	C2379.659424,126.841827 2379.305908,128.347504 2389.284912,128.345016 
	C2475.939453,128.323471 2562.594238,128.332626 2649.248779,128.332581 
	C2701.241455,128.332550 2753.234375,128.332428 2805.227051,128.332275 
	C2807.226807,128.332275 2809.242676,128.496094 2811.222656,128.298187 
	C2815.726074,127.848076 2818.349365,129.164856 2817.694580,134.285721 
	C2817.484863,135.925171 2817.665283,137.614395 2817.665283,139.280823 
	C2817.665527,228.268402 2817.665283,317.255981 2817.664795,406.243561 
	C2817.664795,408.243286 2817.570557,410.247559 2817.674561,412.241669 
	C2817.833740,415.285583 2816.328125,416.407013 2813.461670,416.328003 
	C2810.797607,416.254547 2808.129639,416.332825 2805.463379,416.332855 
	C2714.476074,416.334076 2623.488770,416.332092 2532.501465,416.335968 
	C2517.670898,416.336609 2517.675293,416.348267 2517.676025,431.325500 
	C2517.677979,473.319641 2517.685303,515.313782 2517.670166,557.307922 
	C2517.666748,566.848694 2518.775146,566.328674 2508.395996,566.328857 
	C2469.068115,566.329346 2429.740234,566.380005 2390.412354,566.299194 
	C2378.005127,566.273682 2379.697266,568.048157 2379.691406,555.955688 
	C2379.640869,450.303741 2379.661865,344.651794 2379.661865,237.999847 
z" id="Dibujo_01"></path>
<path fill="#FDFDFD" class="lim" opacity="0" stroke="none" d="
M1218.000244,1028.334961 
	C1296.994995,1028.334961 1374.989746,1028.334961 1452.984497,1028.334961 
	C1454.651001,1028.334961 1456.317627,1028.333374 1457.984131,1028.335327 
	C1468.508667,1028.348022 1467.664673,1027.533569 1467.665649,1038.049683 
	C1467.673584,1127.710327 1467.676392,1217.370972 1467.664062,1307.031616 
	C1467.662720,1316.991943 1468.880737,1316.334473 1457.677124,1316.334839 
	C1343.351440,1316.338623 1229.025879,1316.336914 1114.700195,1316.337158 
	C1088.701904,1316.337280 1062.703735,1316.368164 1036.705444,1316.319702 
	C1029.807983,1316.306763 1029.685547,1316.195557 1029.683472,1309.260620 
	C1029.656494,1218.266724 1029.657104,1127.272827 1029.684570,1036.278931 
	C1029.686890,1028.426025 1029.798218,1028.351318 1038.012207,1028.348267 
	C1097.674805,1028.325684 1157.337524,1028.335327 1218.000244,1028.334961 
z" id="Lab_Qui_01"></path>
<path fill="#FDFDFD" class="lim" opacity="0" stroke="none" d="
M2067.672363,1086.000244 
	C2067.672363,1159.328735 2067.672607,1231.657227 2067.672363,1303.985718 
	C2067.672363,1306.318848 2067.515381,1308.664551 2067.703125,1310.982422 
	C2068.004150,1314.699219 2066.750977,1316.662354 2062.720459,1316.362671 
	C2060.400391,1316.190063 2058.056641,1316.336914 2055.723389,1316.336914 
	C1917.399414,1316.337402 1779.075317,1316.355713 1640.751343,1316.308105 
	C1627.825073,1316.303589 1629.705200,1318.154419 1629.696533,1305.307007 
	C1629.636841,1216.646240 1629.649292,1127.985596 1629.683838,1039.324829 
	C1629.688965,1026.407715 1628.451294,1028.368164 1640.965942,1028.364014 
	C1779.289917,1028.318481 1917.614014,1028.335083 2055.937988,1028.334839 
	C2056.604736,1028.334839 2057.271240,1028.333862 2057.937988,1028.335205 
	C2068.480469,1028.356812 2067.658936,1027.503418 2067.667236,1038.003418 
	C2067.679932,1053.668945 2067.671631,1069.334595 2067.672363,1086.000244 
z" id="Cubiculo"></path>
<path fill="#FDFDFD" class="lim" opacity="0" stroke="none" d="
M501.999817,1316.337158 
	C480.334534,1316.337646 459.669128,1316.377808 439.003998,1316.322021 
	C428.332520,1316.293091 429.687347,1317.567627 429.682922,1306.559692 
	C429.649750,1224.231812 429.664673,1141.904053 429.665253,1059.576172 
	C429.665314,1050.910034 429.751099,1042.242920 429.634308,1033.578369 
	C429.585327,1029.942505 430.574097,1027.846924 434.718475,1028.296509 
	C437.024261,1028.546631 439.379913,1028.335571 441.713074,1028.335571 
	C579.703857,1028.335205 717.694641,1028.319458 855.685425,1028.359131 
	C869.519409,1028.363037 867.633484,1026.642456 867.642639,1040.750488 
	C867.699707,1128.744629 867.671753,1216.738647 867.671875,1304.732788 
	C867.671875,1305.399414 867.677307,1306.066040 867.671082,1306.732666 
	C867.577515,1316.724243 869.142395,1316.338867 857.976257,1316.338623 
	C770.648743,1316.335938 683.321228,1316.337036 595.993713,1316.337036 
	C564.995728,1316.337036 533.997803,1316.337158 501.999817,1316.337158 
z" id="Lab_Qui_02"></path>
<path fill="#FDFDFD" class="lim" opacity="0" stroke="none" d="
M417.664795,1344.000244 
	C417.664795,1382.664185 417.680389,1420.328003 417.652527,1457.991943 
	C417.646423,1466.257568 417.575195,1466.319580 408.703522,1466.321045 
	C318.376801,1466.337036 228.050079,1466.328979 137.723358,1466.334473 
	C129.080246,1466.335083 129.657455,1466.959595 129.658615,1458.274414 
	C129.665237,1408.944702 129.661682,1359.614990 129.661697,1310.285278 
	C129.661728,1219.958496 129.648666,1129.631836 129.676758,1039.305054 
	C129.680771,1026.394043 128.524796,1028.370972 140.991714,1028.363403 
	C228.985245,1028.309692 316.978821,1028.335083 404.972382,1028.335205 
	C405.972290,1028.335205 406.972229,1028.333130 407.972137,1028.336548 
	C418.514069,1028.372314 417.659668,1027.459961 417.660339,1038.022095 
	C417.666992,1139.681396 417.664581,1241.340820 417.664795,1344.000244 
z" id="Salon_Profesores"></path>
<path fill="#FDFDFD" class="lim" opacity="0" stroke="none" d="
M2067.673096,210.000153 
	C2067.672852,275.326874 2067.672607,339.653595 2067.672119,403.980316 
	C2067.672119,406.313416 2067.512207,408.658722 2067.697266,410.976807 
	C2067.993408,414.689331 2066.745117,416.676422 2062.714111,416.356018 
	C2060.727051,416.198151 2058.716553,416.334381 2056.716797,416.334381 
	C1967.725952,416.334686 1878.735229,416.334717 1789.744385,416.334167 
	C1787.744629,416.334167 1785.739380,416.232300 1783.746216,416.345428 
	C1780.799072,416.512665 1779.500977,415.260681 1779.654053,412.286102 
	C1779.773926,409.959503 1779.662842,407.621246 1779.662842,405.288177 
	C1779.661499,316.630615 1779.647705,227.973068 1779.676270,139.315506 
	C1779.680420,126.377243 1778.547241,128.368027 1790.982422,128.360489 
	C1879.306763,128.306946 1967.630981,128.331985 2055.955322,128.331985 
	C2056.621826,128.331985 2057.288574,128.330841 2057.955078,128.332153 
	C2068.468262,128.352890 2067.667480,127.476479 2067.670654,138.007111 
	C2067.678467,161.671448 2067.673096,185.335800 2067.673096,210.000153 
z" id="Salon_02"></path>
<path fill="#FDFDFD" class="lim" opacity="0" stroke="none" d="
M2170.000000,128.331970 
	C2231.994873,128.331970 2292.989502,128.331940 2353.984375,128.331955 
	C2355.650879,128.331955 2357.317627,128.318298 2358.983887,128.334579 
	C2367.581787,128.418594 2367.659424,128.421265 2367.661377,137.047928 
	C2367.679688,227.373489 2367.678955,317.699066 2367.657227,408.024628 
	C2367.655273,416.213074 2367.571289,416.317780 2359.681396,416.319946 
	C2268.689209,416.344940 2177.697021,416.345032 2086.704834,416.317230 
	C2079.802734,416.315125 2079.681396,416.193085 2079.679199,409.265289 
	C2079.651855,318.273132 2079.652100,227.280960 2079.678711,136.288788 
	C2079.680908,128.425339 2079.791260,128.356003 2088.007324,128.345627 
	C2115.004883,128.311478 2142.002441,128.332291 2170.000000,128.331970 
z" id="Salon_01"></path>
<path fill="#FDFDFD" class="lim" opacity="0" stroke="none" d="
M1409.999756,416.334778 
	C1385.334961,416.334839 1361.670166,416.341125 1338.005371,416.331696 
	C1329.358643,416.328247 1329.655029,417.316162 1329.655884,408.557465 
	C1329.665649,317.898041 1329.669922,227.238632 1329.647827,136.579208 
	C1329.645630,127.630402 1329.645386,128.318100 1337.711548,128.319778 
	C1428.370972,128.338669 1519.030396,128.321045 1609.689819,128.347519 
	C1617.559937,128.349808 1617.649292,128.462860 1617.651367,136.744308 
	C1617.673340,227.070419 1617.665161,317.396545 1617.666504,407.722656 
	C1617.666626,416.175842 1618.858765,416.349518 1608.984009,416.346008 
	C1542.989258,416.322571 1476.994629,416.334412 1409.999756,416.334778 
z" id="Salon_03"></path>
<path fill="#FDFDFD" class="lim" opacity="0" stroke="none" d="
M1029.664307,373.999695 
	C1029.664307,296.005493 1029.664307,219.011307 1029.664307,142.017120 
	C1029.664307,140.683884 1029.664062,139.350662 1029.664429,138.017426 
	C1029.666992,126.929062 1029.188354,128.344803 1039.271362,128.342621 
	C1128.598022,128.323196 1217.924561,128.331619 1307.251221,128.331924 
	C1308.917725,128.331940 1310.592407,128.438965 1312.249146,128.312134 
	C1315.901245,128.032547 1318.020752,129.240997 1317.691406,133.306580 
	C1317.557251,134.961975 1317.677979,136.637787 1317.677979,138.304321 
	C1317.678345,227.630905 1317.678101,316.957489 1317.677246,406.284088 
	C1317.677246,408.283936 1317.580933,410.288239 1317.683472,412.282562 
	C1317.841675,415.359589 1316.267944,416.418121 1313.428345,416.331085 
	C1311.097656,416.259644 1308.762573,416.333954 1306.429443,416.333984 
	C1217.769531,416.334808 1129.109497,416.359314 1040.449585,416.306122 
	C1028.008301,416.298676 1029.807739,418.032013 1029.686279,405.996918 
	C1029.582031,395.665466 1029.664551,385.332184 1029.664307,373.999695 
z" id="Salon_04"></path>
<path fill="#FDFDFD" class="lim" opacity="0" stroke="none" d="
M1017.665771,172.000366 
	C1017.665771,249.994171 1017.665771,326.988068 1017.665588,403.981964 
	C1017.665588,406.315125 1017.509521,408.660675 1017.697021,410.978577 
	C1017.997253,414.689514 1016.760254,416.680328 1012.722290,416.353455 
	C1010.735779,416.192657 1008.724976,416.334045 1006.725159,416.334076 
	C917.732178,416.334686 828.739258,416.334808 739.746277,416.334473 
	C737.746460,416.334473 735.741211,416.234253 733.748047,416.347961 
	C730.806641,416.515717 729.494141,415.277863 729.648560,412.296814 
	C729.769043,409.970123 729.661682,407.631805 729.661621,405.298676 
	C729.660950,316.639038 729.646667,227.979401 729.676453,139.319763 
	C729.680847,126.394508 728.502563,128.367981 740.970459,128.360397 
	C829.296814,128.306641 917.623108,128.331589 1005.949463,128.331406 
	C1006.616089,128.331406 1007.282715,128.330063 1007.949341,128.330978 
	C1018.496460,128.345505 1017.654724,127.504463 1017.663452,138.003616 
	C1017.672607,149.002563 1017.665649,160.001511 1017.665771,172.000366 
z" id="Salon_05"></path>
<path fill="#FDFDFD" class="lim" opacity="0" stroke="none" d="
M2817.666016,1092.000244 
	C2817.666016,1163.328369 2817.666260,1233.656494 2817.666016,1303.984619 
	C2817.666016,1306.317749 2817.510498,1308.663330 2817.696777,1310.981323 
	C2817.995117,1314.691162 2816.755859,1316.686279 2812.720215,1316.364990 
	C2810.733154,1316.206787 2808.722656,1316.338379 2806.722900,1316.338379 
	C2718.062744,1316.338257 2629.402832,1316.338501 2540.742676,1316.337769 
	C2538.409424,1316.337769 2536.071289,1316.233032 2533.744385,1316.353149 
	C2530.801514,1316.505005 2529.478271,1315.278442 2529.649902,1312.298584 
	C2529.764648,1310.305420 2529.661865,1308.300171 2529.661865,1306.300293 
	C2529.661377,1217.306885 2529.647949,1128.313477 2529.676514,1039.320068 
	C2529.680908,1026.402466 2528.510254,1028.369995 2540.975342,1028.362427 
	C2629.302002,1028.309326 2717.628906,1028.334351 2805.955566,1028.334473 
	C2806.622314,1028.334473 2807.288818,1028.333008 2807.955566,1028.335571 
	C2818.500977,1028.374878 2817.654541,1027.445190 2817.662354,1038.003906 
	C2817.675537,1055.669312 2817.666016,1073.334717 2817.666016,1092.000244 
z" id="Lab_Fis_02"></path>
<path fill="#FDFDFD" class="lim" opacity="0" stroke="none" d="
M717.678467,226.000137 
	C717.678406,285.995697 717.678406,344.991241 717.677979,403.986786 
	C717.677979,406.319946 717.521301,408.665283 717.706421,410.983490 
	C718.002869,414.695251 716.759033,416.683136 712.724182,416.356323 
	C710.737549,416.195343 708.726807,416.334442 706.726929,416.334442 
	C617.733643,416.334625 528.740356,416.334534 439.747101,416.333923 
	C437.747253,416.333893 435.742065,416.233276 433.748871,416.346649 
	C430.805908,416.514038 429.497162,415.272278 429.651733,412.292847 
	C429.772430,409.966156 429.665009,407.627838 429.665009,405.294678 
	C429.664276,316.634705 429.649200,227.974731 429.680817,139.314758 
	C429.685394,126.430756 428.459625,128.366486 440.973877,128.359131 
	C529.300537,128.307281 617.627197,128.331772 705.953857,128.331863 
	C706.620483,128.331863 707.287048,128.330948 707.953674,128.331970 
	C718.442444,128.348114 717.675720,127.477135 717.677002,138.006851 
	C717.680420,167.004608 717.678345,196.002365 717.678467,226.000137 
z" id="Salon_06"></path>
<path fill="#FDFDFD" class="lim" opacity="0" stroke="none" d="
M2367.674072,1244.000244 
	C2367.674072,1265.332031 2367.724854,1285.664062 2367.653320,1305.995605 
	C2367.614746,1316.907715 2369.379150,1316.332275 2357.713623,1316.334351 
	C2310.717041,1316.342651 2263.720703,1316.338135 2216.724121,1316.337891 
	C2173.727295,1316.337769 2130.730469,1316.333496 2087.733643,1316.339722 
	C2079.072266,1316.341064 2079.657227,1316.947388 2079.657715,1308.287231 
	C2079.663330,1217.627319 2079.651611,1126.967285 2079.676514,1036.307373 
	C2079.678711,1028.422729 2079.784180,1028.347290 2087.979004,1028.345581 
	C2178.305664,1028.327515 2268.632324,1028.340454 2358.958984,1028.325806 
	C2368.096191,1028.324341 2367.678467,1027.930298 2367.676758,1037.015015 
	C2367.664307,1105.676758 2367.672363,1174.338379 2367.674072,1244.000244 
z" id="Lab_Fis_01"></path>
<path fill="#FDFDFD" class="lim" opacity="0" stroke="none" d="
M277.999817,416.334778 
	C231.003510,416.334808 185.007172,416.353821 139.010895,416.320312 
	C128.710373,416.312805 129.673798,417.540833 129.671829,407.563080 
	C129.654099,317.570312 129.661133,227.577515 129.661102,137.584732 
	C129.661102,136.251511 129.735962,134.913651 129.651138,133.585938 
	C129.419403,129.958511 130.567139,127.824333 134.710632,128.298187 
	C136.684448,128.523911 138.705841,128.332123 140.705673,128.332108 
	C229.365219,128.331650 318.024780,128.319626 406.684326,128.344788 
	C419.182861,128.348343 417.641815,127.077682 417.646881,139.738358 
	C417.682404,228.397919 417.665619,317.057495 417.665649,405.717041 
	C417.665649,406.716949 417.679962,407.717133 417.662964,408.716766 
	C417.536102,416.183807 417.534302,416.305664 409.989655,416.312866 
	C366.326447,416.354645 322.663116,416.334198 277.999817,416.334778 
z" id="Salon_07"></path>
<path fill="#FDFDFD" class="lim" opacity="0" stroke="none" d="
M2217.668457,592.255493 
	C2217.668457,680.554871 2217.668457,767.884094 2217.667969,855.213257 
	C2217.667969,857.546448 2217.571289,859.883972 2217.680908,862.211853 
	C2217.823730,865.236389 2216.361328,866.423584 2213.486816,866.324036 
	C2211.822754,866.266418 2210.154297,866.333008 2208.487793,866.333069 
	C2168.489746,866.334412 2128.491455,866.343079 2088.493408,866.328247 
	C2078.910889,866.324707 2079.663818,867.292725 2079.663086,858.049866 
	C2079.656250,767.720825 2079.651855,677.391785 2079.669678,587.062744 
	C2079.671387,578.410461 2079.743164,578.347595 2088.229004,578.342590 
	C2128.227051,578.318848 2168.225098,578.332153 2208.223145,578.333008 
	C2217.789795,578.333252 2217.778076,577.380737 2217.670410,587.285400 
	C2217.656006,588.618530 2217.668457,589.951965 2217.668457,592.255493 
z" id="Bannos_Hombres"></path>
<path fill="#FDFDFD" class="lim" opacity="0" stroke="none" d="
M879.658386,781.999817 
	C879.658386,718.007202 879.658325,655.014648 879.658325,592.022095 
	C879.658325,590.688904 879.659668,589.355774 879.658203,588.022583 
	C879.645630,576.854797 879.285339,578.352112 889.267761,578.344421 
	C928.929749,578.314026 968.591675,578.333923 1008.253662,578.331665 
	C1017.881470,578.331116 1017.679810,577.445251 1017.677979,587.314636 
	C1017.661133,677.637268 1017.660706,767.959961 1017.680847,858.282593 
	C1017.682678,866.331909 1018.375732,866.354614 1009.419312,866.347717 
	C968.757446,866.316162 928.095581,866.325989 887.433716,866.341187 
	C878.703674,866.344421 879.665833,866.673828 879.662109,857.991089 
	C879.651550,832.994019 879.658447,807.996948 879.658386,781.999817 
z" id="Bannos_Mujeres"></path>
<path fill="#FDFDFD" class="lim" opacity="0" stroke="none" d="
M906.010254,1316.340576 
	C899.345215,1316.340210 893.678833,1316.356079 888.012634,1316.335938 
	C878.763611,1316.303223 879.665100,1317.185059 879.663879,1307.570923 
	C879.653625,1227.909668 879.658081,1148.248535 879.658142,1068.587280 
	C879.658142,1057.254761 879.816895,1045.918823 879.580688,1034.591187 
	C879.485168,1030.010620 880.633484,1028.195557 885.692932,1028.219604 
	C927.689087,1028.419556 969.686951,1028.410156 1011.683350,1028.238770 
	C1016.747681,1028.218140 1017.877502,1030.176636 1017.743652,1034.730469 
	C1017.479309,1043.722046 1017.668274,1052.726929 1017.668274,1061.726318 
	C1017.668457,1142.054199 1017.668335,1222.381958 1017.668335,1302.709839 
	C1017.668335,1304.376343 1017.667542,1306.042969 1017.668213,1307.709473 
	C1017.671631,1316.030518 1018.962769,1316.374268 1009.002075,1316.360352 
	C975.004456,1316.312988 941.006714,1316.341187 906.010254,1316.340576 
z" id="Coordinacion"></path>
<path fill="#FDFDFD" class="lim" opacity="0" stroke="none" d="
M2517.681152,1295.930054 
	C2517.681152,1300.583740 2517.706787,1304.250366 2517.675781,1307.916626 
	C2517.604980,1316.264893 2517.593750,1316.325073 2508.811035,1316.330078 
	C2468.479736,1316.353516 2428.148682,1316.339966 2387.817383,1316.340820 
	C2379.237061,1316.341064 2379.652832,1317.123657 2379.653809,1308.375000 
	C2379.664551,1217.713135 2379.653076,1127.051147 2379.680176,1036.389282 
	C2379.682617,1028.424927 2379.790771,1028.350220 2387.909912,1028.344482 
	C2427.907959,1028.316650 2467.905762,1028.326294 2507.903809,1028.335327 
	C2518.424805,1028.337646 2517.679688,1027.452271 2517.679932,1037.956177 
	C2517.680664,1123.618408 2517.680908,1209.280640 2517.681152,1295.930054 
z" id="Asesoria"></path>
<path fill="#FDFDFD" class="lim" opacity="0" stroke="none" d="
M2726.000000,428.331573 
	C2754.664307,428.332367 2782.328613,428.302002 2809.992920,428.354401 
	C2817.520264,428.368652 2817.639404,428.482941 2817.647217,436.036835 
	C2817.689209,477.033325 2817.689209,518.029907 2817.647705,559.026428 
	C2817.640381,566.214111 2817.517578,566.304688 2809.685791,566.318237 
	C2784.354492,566.362122 2759.023438,566.332642 2733.692139,566.332581 
	C2668.364258,566.332336 2603.036621,566.329041 2537.708740,566.337280 
	C2529.056641,566.338379 2529.654297,566.933411 2529.655762,558.264648 
	C2529.662598,517.601440 2529.638428,476.938171 2529.676025,436.274994 
	C2529.683350,428.420837 2529.788086,428.346558 2538.015869,428.343689 
	C2600.343994,428.321960 2662.671875,428.331665 2726.000000,428.331573 
z" id="Dibujo_01"></path>
<path fill="#FDFDFD" class="lim" opacity="0" stroke="none" d="
M1767.676636,186.000153 
	C1767.676636,258.659576 1767.676514,330.318970 1767.676270,401.978394 
	C1767.676270,404.311493 1767.708740,406.645233 1767.664551,408.977539 
	C1767.528809,416.141022 1767.518311,416.216919 1760.732910,416.317352 
	C1754.068359,416.416016 1747.401245,416.337646 1740.735229,416.337585 
	C1706.405396,416.337158 1672.075562,416.332886 1637.745728,416.339569 
	C1629.127441,416.341248 1629.658081,416.997772 1629.658691,408.297882 
	C1629.665161,317.640411 1629.653198,226.982925 1629.678101,136.325439 
	C1629.680298,128.479233 1629.785522,128.355957 1636.958496,128.348694 
	C1677.954346,128.307159 1718.950195,128.306931 1759.946045,128.349640 
	C1767.521729,128.357544 1767.623169,128.477448 1767.654541,136.005417 
	C1767.722534,152.336731 1767.676147,168.668533 1767.676636,186.000153 
z" id="Bodega"></path>
<path fill="#FCFCFC" opacity="0" stroke="none" d="
M2679.656250,1405.999756 
	C2679.656494,1382.002686 2679.620850,1359.005615 2679.677246,1336.008667 
	C2679.695801,1328.462769 2679.804932,1328.353149 2687.277588,1328.345947 
	C2728.272217,1328.306396 2769.267090,1328.301270 2810.261719,1328.346802 
	C2817.461426,1328.354858 2817.632324,1328.491455 2817.641602,1335.306519 
	C2817.697510,1376.967773 2817.583740,1418.629517 2817.781738,1460.289917 
	C2817.805908,1465.340576 2815.993164,1466.421875 2811.415283,1466.408203 
	C2769.421143,1466.282837 2727.425781,1466.239258 2685.432373,1466.457886 
	C2680.172607,1466.485229 2679.526611,1464.405029 2679.575684,1459.992188 
	C2679.772461,1442.329956 2679.656494,1424.664307 2679.656250,1405.999756 
z"></path>
<path fill="#F9F9F9" opacity="0" stroke="none" d="
M1623.882080,1384.560303 
	C1626.642090,1381.218506 1629.805908,1382.372559 1632.664185,1382.371582 
	C1816.531860,1382.308594 2000.399658,1382.314331 2184.267334,1382.314697 
	C2185.932861,1382.314697 2187.600098,1382.375977 2189.263184,1382.315918 
	C2192.043213,1382.215820 2193.725586,1383.251953 2193.668213,1386.279297 
	C2193.649170,1387.278076 2193.723145,1388.279785 2193.678223,1389.276611 
	C2193.350830,1396.540771 2196.591553,1405.733032 2192.431885,1410.559448 
	C2188.087402,1415.600708 2178.660156,1412.265137 2171.495850,1412.269653 
	C1992.624512,1412.381348 1813.753174,1412.372559 1634.881836,1412.325439 
	C1621.817017,1412.321899 1623.846313,1414.203125 1623.656982,1401.484009 
	C1623.577759,1396.155884 1623.668701,1390.825439 1623.882080,1384.560303 
z"></path>
<path fill="#F9F9F9" opacity="0" stroke="none" d="
M1166.000244,1382.314819 
	C1265.242188,1382.314697 1363.484131,1382.294189 1461.726074,1382.338135 
	C1475.559448,1382.344360 1473.496826,1380.635986 1473.676270,1394.724976 
	C1473.731445,1399.053589 1473.539185,1403.389404 1473.721436,1407.710938 
	C1473.867798,1411.180298 1472.367310,1412.538086 1469.034790,1412.370117 
	C1467.041870,1412.269775 1465.039551,1412.357788 1463.041382,1412.357788 
	C1310.183594,1412.357910 1157.325806,1412.358032 1004.468018,1412.356445 
	C993.646851,1412.356323 993.645142,1412.350098 993.642334,1401.078369 
	C993.641174,1396.416016 993.730164,1391.751953 993.624756,1387.092041 
	C993.552002,1383.875854 994.578491,1382.042969 998.157532,1382.290894 
	C1000.477417,1382.451416 1002.817688,1382.315063 1005.148865,1382.315063 
	C1058.432617,1382.314697 1111.716309,1382.314819 1166.000244,1382.314819 
z"></path>
<path fill="#F9F9F9" opacity="0" stroke="none" d="
M1533.644409,1095.999756 
	C1533.644409,1014.742981 1533.617798,934.486267 1533.669189,854.229492 
	C1533.678223,840.078125 1532.065674,842.573364 1546.017456,842.327209 
	C1550.345215,842.250793 1554.678955,842.429626 1559.003662,842.290955 
	C1562.417358,842.181641 1563.882446,843.623047 1563.703491,847.016968 
	C1563.580933,849.341309 1563.692017,851.677856 1563.692017,854.008911 
	C1563.692627,1006.530090 1563.704224,1159.051270 1563.669434,1311.572388 
	C1563.666748,1323.259888 1565.504028,1322.281982 1553.187988,1322.346069 
	C1547.859863,1322.373779 1542.531128,1322.297729 1537.203613,1322.354736 
	C1534.699097,1322.381592 1533.575195,1321.287720 1533.644897,1318.787842 
	C1533.709717,1316.458740 1533.645020,1314.125977 1533.645020,1311.794922 
	C1533.644165,1240.196533 1533.644409,1168.598267 1533.644409,1095.999756 
z"></path>
<path fill="#F9F9F9" opacity="0" stroke="none" d="
M1063.999756,512.355896 
	C1004.405640,512.355896 945.811462,512.355957 887.217346,512.355957 
	C885.552734,512.355957 883.888062,512.365662 882.223511,512.354492 
	C872.775085,512.291077 873.677246,513.359131 873.644897,503.832031 
	C873.625671,498.172455 873.738586,492.510925 873.620911,486.853851 
	C873.549500,483.422241 875.021423,482.033722 878.398743,482.291748 
	C880.384521,482.443451 882.391663,482.313538 884.389160,482.313538 
	C996.916565,482.313293 1109.443970,482.313416 1221.971313,482.313538 
	C1222.637207,482.313538 1223.302979,482.312775 1223.968872,482.314240 
	C1234.464111,482.337341 1233.677734,481.474396 1233.686279,491.976746 
	C1233.689331,495.638885 1233.705444,499.301117 1233.683228,502.963104 
	C1233.623047,512.928223 1234.974365,512.351990 1223.803223,512.353088 
	C1170.868774,512.358276 1117.934326,512.355713 1063.999756,512.355896 
z"></path>
<path fill="#F9F9F9" opacity="0" stroke="none" d="
M1646.047485,482.313232 
	C1745.578857,482.313354 1844.116089,482.301727 1942.653442,482.328247 
	C1955.135620,482.331604 1953.574951,481.048889 1953.679077,493.656097 
	C1953.720337,498.649048 1953.635742,503.643036 1953.681519,508.635895 
	C1953.704346,511.114471 1952.499756,512.271851 1950.115234,512.314026 
	C1947.785522,512.355225 1945.455078,512.353882 1943.124878,512.353943 
	C1839.927002,512.356018 1736.729126,512.356079 1633.531250,512.355957 
	C1631.533813,512.355957 1629.535889,512.318665 1627.539185,512.356812 
	C1625.298218,512.399597 1623.661743,511.825836 1623.667969,509.143524 
	C1623.685425,501.487366 1623.687866,493.831055 1623.658081,486.174927 
	C1623.646240,483.132690 1625.295044,482.246399 1628.076172,482.292572 
	C1633.733887,482.386444 1639.394165,482.315979 1646.047485,482.313232 
z"></path>
<path fill="#F9F9F9" opacity="0" stroke="none" d="
M576.573425,1382.381104 
	C662.743164,1382.319946 747.954651,1382.316284 833.166199,1382.312988 
	C834.497620,1382.312866 835.851074,1382.470459 837.156616,1382.286865 
	C842.607361,1381.520264 844.102417,1384.166748 843.748108,1389.165405 
	C843.234009,1396.418457 846.554199,1405.577271 842.512024,1410.470215 
	C838.238403,1415.643311 828.790344,1412.248779 821.648376,1412.262695 
	C742.761414,1412.415894 663.874084,1412.359375 584.986816,1412.359375 
	C582.656860,1412.359375 580.323608,1412.278198 577.997742,1412.374634 
	C575.292786,1412.486572 573.555969,1411.829468 573.622864,1408.599976 
	C573.788208,1400.619995 573.745483,1392.635742 573.935974,1384.656738 
	C573.953918,1383.904541 575.030273,1383.177490 576.573425,1382.381104 
z"></path>
<path fill="#FBFBFB" opacity="0" stroke="none" d="
M2578.787109,1442.114502 
	C2567.705811,1442.119385 2557.501221,1443.477417 2547.715332,1438.268799 
	C2528.940186,1428.275879 2519.392334,1407.622559 2524.306885,1385.876831 
	C2528.838135,1365.825562 2547.785156,1351.992676 2570.270508,1352.319702 
	C2590.895020,1352.619751 2608.402344,1367.036133 2612.922119,1387.442261 
	C2617.678467,1408.916504 2607.076172,1430.233521 2587.108154,1439.217285 
	C2584.695801,1440.302612 2582.140381,1441.069092 2578.787109,1442.114502 
z"></path>
<path fill="#FBFBFB" opacity="0" stroke="none" d="
M2244.195801,1436.218628 
	C2226.931152,1424.448486 2221.445312,1408.365601 2223.773193,1388.955322 
	C2225.785889,1372.173828 2241.006836,1356.784424 2259.332520,1353.103516 
	C2284.186523,1348.111572 2307.539307,1363.075439 2312.903809,1387.431274 
	C2318.078125,1410.924072 2305.364014,1434.045044 2282.334229,1440.742554 
	C2269.709473,1444.414062 2256.670166,1444.021240 2244.195801,1436.218628 
z"></path>
<path fill="#FBFBFB" opacity="0" stroke="none" d="
M1577.589600,1362.283691 
	C1592.099243,1375.625000 1596.899048,1391.378906 1592.256592,1409.730225 
	C1587.270630,1429.439819 1570.292236,1441.802490 1549.952148,1442.492554 
	C1531.315674,1443.124878 1517.764771,1435.290405 1508.685303,1419.732544 
	C1499.598999,1404.162720 1501.038086,1378.968384 1517.522461,1363.868774 
	C1532.490967,1350.157837 1556.085083,1348.116821 1573.844116,1359.417847 
	C1574.962769,1360.130005 1575.963745,1361.026855 1577.589600,1362.283691 
z"></path>
<path fill="#FBFBFB" opacity="0" stroke="none" d="
M954.138062,1425.951416 
	C935.324829,1449.903076 897.198303,1447.003662 881.026611,1423.989990 
	C871.760986,1410.804199 871.654175,1385.817505 878.894653,1374.653564 
	C891.276001,1355.563232 907.274475,1350.153564 926.485474,1352.767212 
	C944.416931,1355.206543 958.656494,1368.991821 962.574646,1386.840332 
	C965.627808,1400.748901 963.851807,1413.890747 954.138062,1425.951416 
z"></path>
<path fill="#FBFBFB" opacity="0" stroke="none" d="
M455.107849,1411.870605 
	C452.220978,1395.563354 452.735229,1380.888794 463.804352,1367.909912 
	C476.438995,1353.095215 495.790161,1348.528442 514.483704,1354.725464 
	C532.698303,1360.763916 543.523376,1380.750244 544.022339,1395.913086 
	C544.707520,1416.734009 530.623230,1437.951172 508.971863,1441.773071 
	C485.514282,1445.913696 465.789154,1438.255737 455.107849,1411.870605 
z"></path>
<path fill="#FBFBFB" opacity="0" stroke="none" d="
M239.390991,477.149475 
	C251.253128,505.060455 238.228195,531.540833 215.382629,539.820190 
	C181.164398,552.221130 151.585800,526.062195 153.337830,496.654846 
	C154.474609,477.574249 162.608139,463.985199 179.255371,456.384155 
	C196.139038,448.675262 212.939957,450.512390 227.852097,462.512451 
	C232.578308,466.315704 235.853790,471.374512 239.390991,477.149475 
z"></path>
<path fill="#FBFBFB" opacity="0" stroke="none" d="
M498.851746,462.680573 
	C518.124268,446.312256 551.974731,448.790985 566.581421,472.652100 
	C575.928528,487.921204 576.746094,503.439178 568.538940,518.952148 
	C560.496887,534.153015 547.659119,541.563049 529.913391,542.629578 
	C506.193115,544.055176 488.936096,526.493042 485.123871,511.510468 
	C480.473083,493.232330 483.771454,476.507812 498.851746,462.680573 
z"></path>
<path fill="#FBFBFB" opacity="0" stroke="none" d="
M843.618774,504.863220 
	C841.711670,512.442200 839.429749,518.871155 835.177063,524.650330 
	C823.566223,540.429077 807.405945,544.894470 789.319641,542.011353 
	C773.079956,539.422668 761.321594,529.267517 756.040344,513.715149 
	C750.102051,496.227936 752.457703,479.481812 765.880066,465.650665 
	C778.990540,452.140900 795.321838,449.178467 812.650208,454.274750 
	C829.679993,459.283203 839.551025,471.976471 843.333679,489.078522 
	C844.388733,493.848206 843.611389,499.023193 843.618774,504.863220 
z"></path>
<path fill="#FBFBFB" opacity="0" stroke="none" d="
M1306.216309,542.342590 
	C1282.273804,541.758789 1264.332642,523.082092 1263.500732,500.197723 
	C1262.749146,479.528473 1271.401733,464.783905 1289.597290,456.089020 
	C1319.357300,441.867981 1352.985107,463.940857 1353.905884,496.865143 
	C1354.453857,516.456543 1340.280029,535.415588 1322.874268,540.889404 
	C1317.552734,542.562866 1312.379028,541.985535 1306.216309,542.342590 
z"></path>
<path fill="#FBFBFB" opacity="0" stroke="none" d="
M1513.883545,467.966248 
	C1531.023193,447.415710 1561.360962,449.360138 1575.625122,460.744202 
	C1590.328735,472.478851 1596.313721,487.719360 1593.313843,505.671112 
	C1590.423950,522.964050 1579.983643,535.499634 1562.863037,540.592163 
	C1527.219604,551.194397 1502.320435,523.212952 1503.389526,498.976379 
	C1503.895020,487.517151 1505.772705,477.278687 1513.883545,467.966248 
z"></path>
<path fill="#FBFBFB" opacity="0" stroke="none" d="
M2014.768921,453.942780 
	C2041.603271,448.096252 2058.333496,458.349762 2067.825684,474.666321 
	C2076.528564,489.626587 2076.504639,505.312073 2067.964844,520.170593 
	C2059.867676,534.259277 2047.597656,541.949036 2030.559570,542.559143 
	C2013.242798,543.179199 2000.037231,536.696533 1990.562988,522.831055 
	C1977.198975,503.272797 1981.332520,470.847260 2006.753296,457.462585 
	C2009.098511,456.227753 2011.560059,455.214233 2014.768921,453.942780 
z"></path>
<path fill="#FBFBFB" opacity="0" stroke="none" d="
M2342.513672,486.111084 
	C2346.696533,510.706696 2337.792725,530.459412 2317.556885,538.848572 
	C2291.096191,549.818481 2262.054443,538.422913 2254.847656,509.913116 
	C2248.082275,483.151398 2260.480469,461.694397 2284.359619,454.341919 
	C2311.247070,446.063171 2334.628662,459.880585 2342.513672,486.111084 
z"></path>
<path fill="#FBFBFB" opacity="0" stroke="none" d="
M1507.280518,747.923706 
	C1522.348511,723.146667 1547.949829,715.146240 1570.597290,727.585083 
	C1587.207031,736.707764 1595.933838,754.602173 1593.587036,774.725647 
	C1591.687500,791.015015 1577.895264,807.882812 1561.062012,811.354065 
	C1536.519409,816.414978 1514.956665,808.669495 1505.340210,781.753662 
	C1501.538940,771.114197 1502.151733,759.458740 1507.280518,747.923706 
z"></path>
<path fill="#F9F9F9" opacity="0" stroke="none" d="
M359.999817,512.357483 
	C333.057892,512.357605 307.115906,512.335449 281.174042,512.370789 
	C272.911774,512.382080 273.615021,512.591370 273.636932,504.796783 
	C273.653717,498.810242 273.735260,492.821960 273.619324,486.837708 
	C273.552704,483.399872 275.039459,482.034058 278.404144,482.290253 
	C280.388000,482.441284 282.393066,482.311981 284.388580,482.311951 
	C337.270203,482.311615 390.151855,482.311371 443.033478,482.312744 
	C445.361542,482.312775 447.689636,482.323242 450.017670,482.337402 
	C452.450592,482.352203 453.663452,483.613007 453.665466,486.016479 
	C453.671967,493.665588 453.650818,501.314728 453.655701,508.963837 
	C453.657379,511.584259 452.019775,512.296265 449.800873,512.326111 
	C447.473114,512.357422 445.144836,512.356140 442.816772,512.356323 
	C415.544464,512.358093 388.272156,512.357483 359.999817,512.357483 
z"></path>
<path fill="#F9F9F9" opacity="0" stroke="none" d="
M2370.021973,1382.311523 
	C2408.256836,1382.311523 2445.494629,1382.285034 2482.732666,1382.326538 
	C2495.168701,1382.340454 2493.567139,1381.048340 2493.691650,1393.696289 
	C2493.737549,1398.350586 2493.557129,1403.010864 2493.736816,1407.658691 
	C2493.868408,1411.068726 2492.512939,1412.562012 2489.122070,1412.364868 
	C2487.465576,1412.268433 2485.798340,1412.359863 2484.135986,1412.359863 
	C2440.248291,1412.360474 2396.360596,1412.372803 2352.472900,1412.350342 
	C2342.479980,1412.345215 2343.726318,1413.286621 2343.644287,1403.109375 
	C2343.609619,1398.787354 2343.592773,1394.464233 2343.648926,1390.142700 
	C2343.749023,1382.455811 2343.774170,1382.410767 2351.071045,1382.326050 
	C2357.054688,1382.256470 2363.040283,1382.311646 2370.021973,1382.311523 
z"></path>
<path fill="#F8F8F8" opacity="0" stroke="none" d="
M1540.357178,572.311890 
	C1548.489258,572.941284 1557.617432,569.211060 1562.342773,574.019104 
	C1566.626587,578.377686 1563.606201,587.312317 1563.638062,594.215393 
	C1563.775879,624.130127 1563.715454,654.045837 1563.684814,683.961182 
	C1563.676392,692.226013 1563.601318,692.502808 1555.835571,692.281433 
	C1548.650513,692.076538 1539.450562,695.446655 1534.845703,690.738525 
	C1530.703125,686.502991 1533.721924,677.463562 1533.693481,670.554016 
	C1533.569458,640.306824 1533.643677,610.058838 1533.639648,579.811096 
	C1533.639160,575.822693 1532.829224,571.240173 1540.357178,572.311890 
z"></path>
<path fill="#F8F8F8" opacity="0" stroke="none" d="
M2203.935547,512.359314 
	C2172.373291,512.359619 2141.799316,512.351501 2111.225342,512.366272 
	C2103.445068,512.370056 2103.556152,513.108459 2103.626953,504.871094 
	C2103.675537,499.221985 2103.832275,493.563324 2103.576660,487.925415 
	C2103.381104,483.619720 2104.955566,482.100555 2109.303467,482.230682 
	C2118.268311,482.498962 2127.246582,482.309967 2136.219482,482.309937 
	C2162.805420,482.309875 2189.391602,482.278412 2215.977539,482.330597 
	C2223.544189,482.345459 2223.585205,482.456757 2223.683594,489.947021 
	C2223.753662,495.263275 2223.305176,500.617401 2223.796387,505.888641 
	C2224.320801,511.519196 2221.781250,512.772522 2216.883301,512.418762 
	C2212.915771,512.132141 2208.911621,512.359741 2203.935547,512.359314 
z"></path>
<path fill="#F8F8F8" opacity="0" stroke="none" d="
M703.899292,482.309875 
	C709.533264,482.312683 714.187561,482.400024 718.837219,482.289368 
	C722.064148,482.212555 723.785339,483.276672 723.719177,486.824615 
	C723.589050,493.800659 723.566467,500.783508 723.729919,507.758148 
	C723.811768,511.249878 722.289612,512.431335 719.003845,512.378357 
	C712.691711,512.276489 706.376648,512.358521 700.062805,512.358765 
	C670.487244,512.359863 640.911682,512.342590 611.336121,512.369812 
	C603.155762,512.377319 603.597839,512.726807 603.635742,504.964417 
	C603.661621,499.647614 603.891296,494.314941 603.564270,489.018097 
	C603.253479,483.982391 604.742432,481.960052 610.208496,482.183502 
	C620.824646,482.617493 631.471069,482.309998 642.104980,482.309937 
	C662.375854,482.309814 682.646790,482.309875 703.899292,482.309875 
z"></path>
<path fill="#F8F8F8" opacity="0" stroke="none" d="
M1473.690186,501.826660 
	C1473.680420,504.772919 1473.636963,506.766174 1473.669922,508.758179 
	C1473.711426,511.270477 1472.340332,512.279663 1470.012817,512.323059 
	C1468.684570,512.347778 1467.355713,512.356079 1466.027222,512.356262 
	C1440.783936,512.359009 1415.539551,512.241577 1390.298096,512.460693 
	C1385.299316,512.504089 1383.065552,511.405762 1383.530518,505.934357 
	C1384.007080,500.328278 1383.890625,494.635468 1383.561890,489.008118 
	C1383.267334,483.965454 1384.770874,482.076324 1390.209839,482.180786 
	C1408.139282,482.525177 1426.079590,482.309631 1444.015625,482.310150 
	C1451.987183,482.310364 1459.963257,482.472717 1467.928467,482.249786 
	C1472.148071,482.131683 1474.036255,483.488556 1473.747681,487.923218 
	C1473.468018,492.222870 1473.689087,496.555145 1473.690186,501.826660 
z"></path>
</svg>