<svg version="1.1" id="Layer_1" xmlns="http://www.w3.org/2000/svg" xmlns:xlink="http://www.w3.org/1999/xlink" x="0px" y="0px" height="100%" viewBox="0 0 2940 2340" enable-background="new 0 0 2940 2340" xml:space="preserve">
<path id="" class="lim" fill="#000000" opacity="0" stroke="none" d=" M2942.000000,792.000000   C2942.000000,1309.333252 2942.000000,1825.666504 2942.000000,2342.000000   C2452.000244,2342.000000 1962.000366,2342.000000 1472.000488,2342.000000   C982.000610,2342.000000 492.000702,2342.000000 2.000602,2342.000000   C2.000401,1562.000366 2.000401,782.000793 2.000201,2.000916   C981.999451,2.000611 1961.998901,2.000611 2941.999023,2.000305   C2942.000000,265.000000 2942.000000,528.000000 2942.000000,792.000000  z"/>
<path id="" class="lim" fill="#FDFDFD" opacity="0" stroke="none" d=" M2410.009766,128.333633   C2542.332764,128.333557 2673.657471,128.333481 2804.981934,128.333344   C2806.315186,128.333344 2807.648438,128.343994 2808.981689,128.330444   C2818.123535,128.237549 2817.673584,128.008453 2817.672607,137.039291   C2817.659424,277.363220 2817.659912,417.687164 2817.671875,558.011108   C2817.672607,567.295532 2818.079346,566.324341 2807.693359,566.324951   C2689.034668,566.331665 2570.375732,566.328491 2451.717041,566.327942   C2430.051758,566.327820 2408.386719,566.362122 2386.721436,566.307617   C2379.814697,566.290222 2379.691406,566.182495 2379.685547,559.260986   C2379.646240,512.930725 2379.663330,466.600525 2379.663086,420.270294   C2379.662598,326.609894 2379.650391,232.949509 2379.677979,139.289108   C2379.681641,126.368767 2378.564941,128.516525 2391.012695,128.347672   C2397.010986,128.266281 2403.011475,128.333633 2410.009766,128.333633  z"/>
<path id="" class="lim" fill="#FDFDFD" opacity="0" stroke="none" d=" M237.999847,1466.331055   C204.002258,1466.331055 171.004684,1466.336426 138.007095,1466.327515   C129.365158,1466.325195 129.655502,1467.330811 129.656021,1458.558105   C129.664368,1317.901733 129.667618,1177.245361 129.648758,1036.588989   C129.647552,1027.678467 129.622238,1028.319824 137.708435,1028.321777   C228.368469,1028.343628 319.028503,1028.326660 409.688538,1028.355103   C417.559235,1028.357544 417.649170,1028.473022 417.650299,1036.738647   C417.669342,1177.061768 417.664093,1317.384766 417.665558,1457.707886   C417.665649,1466.071533 418.925232,1466.350220 408.987549,1466.344971   C352.324982,1466.315063 295.662415,1466.330811 237.999847,1466.331055  z"/>
<path id="" class="lim" fill="#FDFDFD" opacity="0" stroke="none" d=" M867.671875,1046.140137   C867.671936,1132.785034 867.671997,1218.448120 867.671753,1304.111328   C867.671753,1306.444580 867.501404,1308.792358 867.704590,1311.107666   C868.043091,1314.963867 866.504761,1316.655396 862.594604,1316.364990   C860.274231,1316.192749 857.930542,1316.336914 855.597290,1316.336914   C717.269592,1316.337280 578.941956,1316.355469 440.614288,1316.308350   C427.807922,1316.303955 429.705933,1318.149658 429.697021,1305.169556   C429.636108,1216.506592 429.653656,1127.843506 429.679138,1039.180542   C429.682709,1026.667603 428.622498,1028.359863 440.110840,1028.357056   C579.105164,1028.323608 718.099426,1028.335083 857.093750,1028.335083   C858.427002,1028.335083 859.781921,1028.491455 861.089783,1028.309570   C866.498474,1027.557617 868.178406,1030.113647 867.722839,1035.164795   C867.424683,1038.470703 867.669983,1041.825562 867.671875,1046.140137  z"/>
<path id="" class="lim" fill="#FDFDFD" opacity="0" stroke="none" d=" M1232.000244,1028.334961   C1306.328613,1028.334961 1379.657104,1028.334961 1452.985474,1028.334961   C1454.651978,1028.334961 1456.318604,1028.333496 1457.985107,1028.335449   C1468.509155,1028.348022 1467.664551,1027.533691 1467.665527,1038.050537   C1467.673340,1127.711182 1467.676392,1217.371826 1467.664185,1307.032471   C1467.662842,1316.993286 1468.879272,1316.334595 1457.676392,1316.334839   C1342.684082,1316.338501 1227.691895,1316.336792 1112.699585,1316.337036   C1087.367920,1316.337036 1062.036377,1316.368896 1036.704712,1316.319702   C1029.807861,1316.306274 1029.685547,1316.195557 1029.683472,1309.259888   C1029.656494,1218.265991 1029.657104,1127.272095 1029.684570,1036.278198   C1029.686890,1028.425903 1029.798340,1028.350952 1038.013062,1028.348145   C1102.342041,1028.326294 1166.671143,1028.335449 1232.000244,1028.334961  z"/>
<path id="" class="lim" fill="#FDFDFD" opacity="0" stroke="none" d=" M1719.999756,1316.337036   C1692.001587,1316.337769 1665.003418,1316.342773 1638.005249,1316.336548   C1629.337891,1316.334595 1629.656982,1317.290283 1629.658081,1308.560547   C1629.669922,1217.900024 1629.673462,1127.239380 1629.656006,1036.578857   C1629.654175,1027.631836 1629.591797,1028.325073 1637.712402,1028.325928   C1778.036255,1028.340088 1918.360229,1028.339966 2058.684082,1028.325562   C2068.545166,1028.324463 2067.669922,1028.110474 2067.669922,1037.749756   C2067.670166,1127.410400 2067.680176,1217.071045 2067.659668,1306.731689   C2067.657227,1316.723511 2069.143311,1316.338745 2057.977295,1316.338501   C1945.651489,1316.336060 1833.325684,1316.337036 1719.999756,1316.337036  z"/>
<path id="" class="lim" fill="#FDFDFD" opacity="0" stroke="none" d=" M2021.999756,416.334625   C1944.674194,416.334625 1868.348755,416.334625 1792.023193,416.334473   C1789.690063,416.334473 1787.331299,416.111267 1785.029297,416.378510   C1780.410889,416.914673 1779.236938,414.628571 1779.634521,410.563324   C1779.828247,408.582733 1779.661987,406.567047 1779.661987,404.567261   C1779.661499,316.242950 1779.643677,227.918655 1779.680420,139.594376   C1779.685913,126.421158 1778.357666,128.367691 1790.703613,128.360321   C1879.361206,128.307388 1968.018921,128.319244 2056.676514,128.346558   C2069.153809,128.350403 2067.649658,127.052437 2067.654541,139.728271   C2067.688965,228.052567 2067.672607,316.376862 2067.672363,404.701172   C2067.672363,405.701080 2067.671143,406.700958 2067.670166,407.700867   C2067.660400,416.061737 2068.934570,416.394897 2058.995605,416.347961   C2046.997192,416.291290 2034.998413,416.334595 2021.999756,416.334625  z"/>
<path id="" class="lim" fill="#FDFDFD" opacity="0" stroke="none" d=" M2216.000000,416.334656   C2173.003662,416.334839 2131.007324,416.354614 2089.010986,416.321106   C2078.712158,416.312897 2079.671631,417.548492 2079.669922,407.571472   C2079.655029,317.579285 2079.661377,227.587097 2079.661621,137.594910   C2079.661621,136.261688 2079.736328,134.923889 2079.651855,133.596146   C2079.421143,129.973679 2080.558594,127.829704 2084.705811,128.301041   C2086.679932,128.525375 2088.701172,128.332474 2090.700928,128.332458   C2179.359863,128.332031 2268.018799,128.319885 2356.677734,128.345901   C2369.133057,128.349548 2367.651611,127.072426 2367.656250,139.741470   C2367.689697,228.067139 2367.673340,316.392822 2367.673096,404.718475   C2367.673096,406.051697 2367.689697,407.385254 2367.666016,408.718079   C2367.532959,416.191681 2367.529541,416.310699 2359.987793,416.316681   C2312.325195,416.354462 2264.662598,416.335144 2216.000000,416.334656  z"/>
<path id="" class="lim" fill="#FDFDFD" opacity="0" stroke="none" d=" M1605.786987,416.334534   C1516.817505,416.334686 1428.820312,416.334778 1340.823120,416.334381   C1338.489868,416.334351 1336.151855,416.234131 1333.824585,416.350281   C1330.949097,416.493774 1329.488892,415.423248 1329.648926,412.372955   C1329.770874,410.046326 1329.661865,407.707764 1329.661743,405.374512   C1329.661011,316.710663 1329.646240,228.046814 1329.677490,139.382965   C1329.682007,126.414047 1328.457886,128.367569 1340.908325,128.360123   C1429.572144,128.307022 1518.236084,128.320419 1606.899902,128.344238   C1618.916382,128.347473 1617.649292,127.099899 1617.652466,138.955017   C1617.676636,227.952194 1617.665649,316.949371 1617.665771,405.946533   C1617.665771,406.613190 1617.671387,407.279877 1617.664551,407.946472   C1617.580078,416.074463 1617.579834,416.077911 1609.759155,416.328735   C1608.760132,416.360779 1607.759277,416.333954 1605.786987,416.334534  z"/>
<path id="" class="lim" fill="#FDFDFD" opacity="0" stroke="none" d=" M1317.678589,220.000137   C1317.678467,281.995544 1317.678467,342.990906 1317.678101,403.986298   C1317.678101,406.319458 1317.521118,408.664795 1317.706299,410.982971   C1318.002563,414.694366 1316.759888,416.683136 1312.724609,416.356293   C1310.737915,416.195343 1308.727295,416.334473 1306.727417,416.334473   C1217.734131,416.334625 1128.740845,416.334503 1039.747559,416.333893   C1037.747681,416.333893 1035.742554,416.233337 1033.749268,416.346649   C1030.806885,416.513916 1029.497070,415.273163 1029.651733,412.293243   C1029.772461,409.966583 1029.665161,407.628265 1029.665161,405.295105   C1029.664429,316.635162 1029.649414,227.975204 1029.680786,139.315247   C1029.685303,126.428963 1028.461670,128.366562 1040.973389,128.359207   C1129.300049,128.307281 1217.626709,128.331772 1305.953369,128.331879   C1306.619995,128.331879 1307.286499,128.330978 1307.953125,128.332001   C1318.444214,128.348022 1317.675537,127.478416 1317.677124,138.006393   C1317.681030,165.004303 1317.678589,192.002213 1317.678589,220.000137  z"/>
<path id="" class="lim" fill="#FDFDFD" opacity="0" stroke="none" d=" M129.660797,229.999847   C129.660980,198.002335 129.632874,167.004776 129.681656,136.007339   C129.693527,128.463440 129.809677,128.351562 137.283539,128.349350   C227.942947,128.322433 318.602356,128.323120 409.261749,128.343765   C417.529480,128.345642 417.644806,128.432556 417.647217,136.316284   C417.675049,226.975693 417.657867,317.635101 417.677856,408.294495   C417.679657,416.435150 418.311737,416.346130 409.412048,416.344391   C318.752655,416.326813 228.093246,416.330322 137.433853,416.341644   C128.683548,416.342743 129.666901,416.646576 129.665741,407.985840   C129.657822,348.990509 129.661118,289.995178 129.660797,229.999847  z"/>
<path id="" class="lim" fill="#FDFDFD" opacity="0" stroke="none" d=" M2532.589844,1028.403687   C2624.547363,1028.342529 2715.547119,1028.338379 2806.546875,1028.335693   C2808.880127,1028.335571 2811.214355,1028.397217 2813.546387,1028.345459   C2816.494141,1028.280029 2817.737061,1029.729492 2817.659912,1032.597168   C2817.597168,1034.928589 2817.665283,1037.263428 2817.665283,1039.596680   C2817.666016,1128.263062 2817.685547,1216.929565 2817.642578,1305.595947   C2817.636963,1317.249023 2819.457031,1316.327637 2807.109863,1316.329956   C2718.110107,1316.346069 2629.110352,1316.338013 2540.110596,1316.337769   C2539.443848,1316.337769 2538.777344,1316.340698 2538.110596,1316.337646   C2528.701660,1316.294922 2529.671143,1317.198975 2529.669434,1307.666504   C2529.655273,1232.666748 2529.661377,1157.666870 2529.661377,1082.667114   C2529.661621,1067.333862 2529.583740,1051.999756 2529.733398,1036.667969   C2529.760498,1033.897217 2528.321533,1030.559326 2532.589844,1028.403687  z"/>
<path id="" class="lim" fill="#FDFDFD" opacity="0" stroke="none" d=" M429.664093,277.999817   C429.664093,231.336624 429.663940,185.673416 429.664642,140.010223   C429.664673,137.677094 429.765289,135.339493 429.653900,133.011887   C429.495239,129.696243 430.788422,128.045670 434.280975,128.310730   C436.269196,128.461624 438.278534,128.331741 440.278381,128.331726   C528.938293,128.331543 617.598267,128.331711 706.258179,128.331909   C707.924744,128.331909 709.607239,128.481293 711.254761,128.304214   C715.790588,127.816719 718.346802,129.233856 717.707642,134.315613   C717.501282,135.956055 717.678162,137.644608 717.678162,139.311142   C717.678284,227.971069 717.703613,316.631012 717.648865,405.290894   C717.641174,417.714813 719.545349,416.308624 706.422668,416.314362   C617.762756,416.353333 529.102783,416.359375 440.442902,416.306091   C428.004517,416.298615 429.715973,418.032043 429.694244,405.990295   C429.617920,363.660278 429.664307,321.330017 429.664093,277.999817  z"/>
<path id="" class="lim" fill="#FDFDFD" opacity="0" stroke="none" d=" M2324.000000,1028.334229   C2337.332275,1028.335815 2349.666992,1028.478271 2361.995850,1028.263062   C2366.368408,1028.186890 2368.125244,1029.757690 2367.688965,1034.056763   C2367.521729,1035.705933 2367.671143,1037.387085 2367.671143,1039.053589   C2367.672363,1128.046997 2367.673096,1217.040405 2367.673584,1306.033813   C2367.673584,1307.700317 2367.536377,1309.379883 2367.696045,1311.030884   C2368.060791,1314.798828 2366.653809,1316.675903 2362.673096,1316.359863   C2360.685791,1316.202026 2358.675537,1316.337646 2356.675537,1316.337646   C2268.015381,1316.337769 2179.355469,1316.337769 2090.695312,1316.337158   C2088.362061,1316.337036 2086.023926,1316.228516 2083.697021,1316.349854   C2080.711670,1316.505493 2079.482666,1315.185059 2079.649170,1312.247559   C2079.762207,1310.254272 2079.661865,1308.249146 2079.661865,1306.249268   C2079.661133,1217.255859 2079.648682,1128.262329 2079.675781,1039.268921   C2079.679688,1026.374023 2078.531006,1028.372314 2091.017090,1028.363037   C2168.344727,1028.305664 2245.672363,1028.334229 2324.000000,1028.334229  z"/>
<path id="" class="lim" fill="#FDFDFD" opacity="0" stroke="none" d=" M729.660828,353.999817   C729.660828,282.672150 729.660889,212.344467 729.660889,142.016785   C729.660889,140.683563 729.661621,139.350327 729.660828,138.017105   C729.654663,126.864311 729.260132,128.346817 739.273376,128.344391   C828.932861,128.322662 918.592285,128.331146 1008.251770,128.330795   C1009.585022,128.330795 1010.925720,128.422958 1012.250000,128.314209   C1015.905029,128.014084 1018.000610,129.242401 1017.683594,133.308640   C1017.528625,135.296143 1017.665222,137.306152 1017.665222,139.305984   C1017.665649,228.298828 1017.665771,317.291687 1017.665222,406.284515   C1017.665222,408.284363 1017.570068,410.288849 1017.675537,412.282928   C1017.838501,415.365784 1016.258484,416.423370 1013.421204,416.326721   C1011.423950,416.258636 1009.422119,416.333252 1007.422302,416.333282   C918.096130,416.334534 828.770020,416.348480 739.443848,416.317108   C728.413269,416.313232 729.719482,417.651428 729.679077,406.995941   C729.613403,389.664124 729.661072,372.331909 729.660828,353.999817  z"/>
<path id="" class="lim" fill="#FDFDFD" opacity="0" stroke="none" d=" M2379.658691,1064.001953   C2379.660400,1054.003418 2379.603027,1045.003662 2379.682373,1036.005005   C2379.748779,1028.461670 2379.819092,1028.357666 2387.294189,1028.349487   C2423.624512,1028.310303 2459.955078,1028.331665 2496.285400,1028.331787   C2501.618164,1028.331787 2506.955322,1028.463379 2512.282471,1028.289062   C2515.963135,1028.168579 2517.989258,1029.301514 2517.701416,1033.338989   C2517.535889,1035.660034 2517.679932,1038.003052 2517.679932,1040.336182   C2517.680664,1128.662354 2517.705811,1216.988525 2517.652344,1305.314697   C2517.644775,1317.711060 2519.566650,1316.299927 2506.413818,1316.319702   C2467.750244,1316.377930 2429.086914,1316.391113 2390.423340,1316.311035   C2377.990234,1316.285278 2379.696045,1318.033447 2379.687744,1305.981689   C2379.632080,1225.654907 2379.658936,1145.328125 2379.658691,1064.001953  z"/>
<path id="" class="lim" fill="#FDFDFD" opacity="0" stroke="none" d=" M997.933594,1316.340576   C960.614014,1316.340332 924.282288,1316.345703 887.950500,1316.335449   C879.402466,1316.333130 879.649536,1317.337891 879.650696,1308.508179   C879.662598,1217.845459 879.668640,1127.182617 879.640625,1036.519897   C879.637817,1027.539429 879.778992,1028.313110 887.762329,1028.318726   C928.427246,1028.347290 969.092163,1028.311890 1009.757080,1028.352783   C1017.503357,1028.360596 1017.643066,1028.472412 1017.645691,1035.801636   C1017.678467,1126.797729 1017.677185,1217.793823 1017.650146,1308.789917   C1017.647949,1316.203979 1017.531067,1316.225220 1009.920837,1316.333862   C1006.255066,1316.386230 1002.587891,1316.341431 997.933594,1316.340576  z"/>
<path id="" class="lim" fill="#FDFDFD" opacity="0" stroke="none" d=" M2217.668457,855.716125   C2217.659912,858.685791 2217.613281,860.686279 2217.652588,862.685120   C2217.701660,865.194092 2216.362549,866.251099 2214.014648,866.297668   C2212.348389,866.330688 2210.681641,866.332458 2209.015137,866.332520   C2168.683594,866.334473 2128.352295,866.338928 2088.020752,866.330994   C2079.349609,866.329285 2079.652100,867.328979 2079.653076,858.577087   C2079.662354,767.914673 2079.666992,677.252197 2079.645996,586.589783   C2079.643799,577.713562 2079.588379,578.310181 2087.702148,578.316895   C2128.033691,578.350342 2168.364990,578.346130 2208.696533,578.323364   C2218.533936,578.317810 2217.670166,578.092590 2217.669922,587.758667   C2217.667236,676.754517 2217.668457,765.750366 2217.668457,855.716125  z"/>
<path id="" class="lim" fill="#FDFDFD" opacity="0" stroke="none" d=" M879.658386,845.970093   C879.658386,760.985229 879.658325,676.993835 879.658325,593.002502   C879.658325,591.335999 879.660095,589.669495 879.658142,588.002991   C879.645325,576.840149 879.295288,578.352722 889.287598,578.344788   C928.616882,578.313416 967.946167,578.332031 1007.275452,578.333313   C1009.275208,578.333374 1011.276794,578.401001 1013.274353,578.337280   C1016.075378,578.247986 1017.699402,579.328735 1017.652466,582.337402   C1017.621338,584.336548 1017.667175,586.336731 1017.667175,588.336487   C1017.668335,677.660645 1017.668213,766.984741 1017.667725,856.308899   C1017.667725,858.308716 1017.572510,860.313171 1017.678284,862.307190   C1017.843384,865.418701 1016.191895,866.423584 1013.391968,866.323181   C1012.060730,866.275452 1010.725952,866.332825 1009.392822,866.332886   C968.730347,866.334229 928.067871,866.320068 887.405396,866.346436   C879.172974,866.351746 879.606201,866.708984 879.654358,858.962341   C879.679260,854.962891 879.658508,850.963135 879.658386,845.970093  z"/>
<path id="" class="lim" fill="#FDFDFD" opacity="0" stroke="none" d=" M1702.000244,128.329178   C1722.331665,128.329575 1741.665161,128.489441 1760.992920,128.225571   C1766.252441,128.153763 1767.816895,129.871124 1767.773071,135.054672   C1767.556396,160.716873 1767.676147,186.381943 1767.676270,212.045990   C1767.676636,275.706177 1767.676392,339.366333 1767.676025,403.026520   C1767.676025,405.359619 1767.459229,407.716156 1767.713745,410.020905   C1768.225708,414.660492 1766.689819,416.645447 1761.680786,416.433472   C1753.363159,416.081512 1745.019775,416.337555 1736.687256,416.337463   C1703.690674,416.337189 1670.693970,416.330444 1637.697388,416.341064   C1629.040894,416.343872 1629.659302,416.908234 1629.659790,408.249603   C1629.664429,317.925476 1629.662231,227.601334 1629.661987,137.277206   C1629.661987,136.277313 1629.781006,135.261063 1629.644897,134.280228   C1628.945068,129.245865 1631.418457,128.169189 1636.008179,128.239624   C1651.336426,128.474854 1666.670288,128.329041 1682.002075,128.329178   C1688.334717,128.329224 1694.667480,128.329178 1702.000244,128.329178  z"/>
<path id="" class="lim" fill="#FCFCFC" opacity="0" stroke="none" d=" M2817.671143,1358.012939   C2817.671143,1392.006714 2817.688721,1425.002808 2817.658691,1457.998779   C2817.651367,1466.206055 2817.581055,1466.311035 2809.707520,1466.318359   C2768.712402,1466.356445 2727.717529,1466.356567 2686.722412,1466.317505   C2679.802734,1466.311035 2679.682617,1466.193359 2679.676025,1459.284058   C2679.636475,1417.955688 2679.630127,1376.627441 2679.683838,1335.299072   C2679.692871,1328.479614 2679.855713,1328.356201 2686.987549,1328.348633   C2727.982666,1328.305298 2768.977539,1328.303589 2809.972656,1328.343872   C2817.520508,1328.351196 2817.574463,1328.469238 2817.654297,1336.017700   C2817.728516,1343.016113 2817.670654,1350.015869 2817.671143,1358.012939  z"/>
<path fill="#CDE0E6" opacity="0" stroke="none" d=" M556.000122,482.313507   C858.323486,482.313446 1159.646851,482.304291 1460.970215,482.341125   C1475.597534,482.342926 1473.642334,480.360229 1473.616333,495.027588   C1473.606445,500.569000 1476.089111,507.547272 1472.176392,511.293396   C1468.705200,514.616699 1461.975708,512.316956 1456.700317,512.317688   C1076.379639,512.368042 696.058838,512.363586 315.738129,512.363708   C303.627502,512.363708 303.521027,512.362610 303.674622,500.295776   C303.746063,494.684357 301.278076,487.499664 304.770599,483.860321   C308.706299,479.759094 316.130646,482.388763 322.007690,482.381104   C399.671722,482.279694 477.335907,482.313507 556.000122,482.313507  z" id="P1-Q1"/>
<path fill="#CDE0E7" opacity="0" stroke="none" d=" M1242.000000,1382.306152   C1315.995361,1382.305542 1388.990845,1382.304932 1461.986206,1382.304199   C1462.986084,1382.304199 1463.986206,1382.293823 1464.985962,1382.304321   C1473.604736,1382.394775 1473.848633,1382.402100 1473.622192,1391.038208   C1473.441772,1397.920288 1476.654907,1406.695801 1472.018188,1411.157227   C1467.858276,1415.159790 1459.287109,1412.317749 1452.674927,1412.318970   C1163.693115,1412.373657 874.711426,1412.366089 585.729675,1412.364624   C573.633850,1412.364624 573.524292,1412.356812 573.676819,1400.257690   C573.747498,1394.650391 571.275757,1387.461670 574.794250,1383.836182   C578.746155,1379.764282 586.161804,1382.372803 592.041016,1382.370728   C808.360657,1382.294067 1024.680298,1382.306152 1242.000000,1382.306152  z" id="T1-U1"/>
<path fill="#CDE0E7" opacity="0" stroke="none" d=" M2282.000000,1382.306152   C2357.995850,1382.306152 2432.991455,1382.306274 2507.987305,1382.306396   C2510.320557,1382.306396 2512.654053,1382.287476 2514.987061,1382.311890   C2523.600342,1382.402344 2523.846924,1382.414551 2523.613525,1391.048584   C2523.427490,1397.927368 2526.653809,1406.705933 2521.990967,1411.156494   C2517.814453,1415.142822 2509.251221,1412.319458 2502.635742,1412.320679   C2213.651855,1412.373779 1924.668091,1412.366699 1635.684326,1412.366821   C1623.627075,1412.366821 1623.392822,1412.360107 1623.731323,1400.237061   C1623.893433,1394.429565 1620.760864,1386.750122 1625.530762,1383.312622   C1629.310913,1380.588379 1636.410400,1382.327515 1642.035889,1382.326782   C1855.023926,1382.302490 2068.011963,1382.306274 2282.000000,1382.306152  z" id="U1-V1"/>
<path fill="#CDE0E6" opacity="0" stroke="none" d=" M1828.000000,482.313049   C1956.323120,482.312714 2083.646240,482.312408 2210.969482,482.312042   C2212.302734,482.312042 2213.635742,482.299286 2214.968994,482.312805   C2223.606445,482.400299 2223.850098,482.408569 2223.624023,491.022430   C2223.443359,497.904022 2226.652344,506.669250 2222.029541,511.143585   C2217.871338,515.168213 2209.302490,512.312927 2202.692871,512.315125   C2013.374756,512.375977 1824.056641,512.376221 1634.738525,512.338074   C1621.996948,512.335510 1623.514893,514.109375 1623.755249,501.288177   C1623.870239,495.153290 1620.566772,487.023560 1625.547241,483.385773   C1629.514282,480.488068 1637.058105,482.339478 1643.014404,482.335876   C1704.342896,482.298645 1765.671509,482.313049 1828.000000,482.313049  z" id="Q1-R1"/>
<path fill="#CDE0E7" opacity="0" stroke="none" d=" M1963.981812,632.358398   C1961.008301,632.346558 1959.008301,632.307190 1957.009155,632.329834   C1954.403564,632.359436 1953.633545,630.859802 1953.642822,628.539734   C1953.671875,621.207031 1953.689087,613.873840 1953.640503,606.541382   C1953.621460,603.681335 1954.757202,602.290222 1957.767944,602.300232   C1975.100098,602.357788 1992.432739,602.338135 2009.765137,602.334412   C2012.809082,602.333740 2013.766357,604.066284 2013.695679,606.817810   C2013.635986,609.149170 2013.710449,611.483765 2013.710449,613.816895   C2013.710938,676.813965 2013.719482,739.810974 2013.700317,802.808044   C2013.696777,814.747253 2014.817383,814.083313 2003.156128,813.630249   C1939.223022,811.145996 1875.267578,812.898193 1811.325317,812.381226   C1803.502319,812.317993 1803.561890,812.905518 1803.627197,804.849731   C1803.675781,798.850403 1803.726929,792.849121 1803.623413,786.851318   C1803.564087,783.409241 1805.091431,782.061462 1808.447144,782.278687   C1810.770386,782.429138 1813.111572,782.299316 1815.444824,782.299255   C1867.442383,782.297607 1919.439941,782.296570 1971.437500,782.295410   C1973.437378,782.295349 1975.456421,782.118530 1977.433472,782.330811   C1982.173340,782.839783 1983.875488,781.019165 1983.724243,776.124756   C1983.394775,765.468872 1983.624390,754.795593 1983.624634,744.129456   C1983.625732,709.464417 1983.652954,674.799316 1983.606812,640.134338   C1983.596802,632.520752 1983.477295,632.496460 1975.955078,632.370850   C1972.289551,632.309631 1968.622192,632.359070 1963.981812,632.358398  z" id="A1-Y"/>
<path fill="#CEE0E7" opacity="0" stroke="none" d=" M1563.689941,1162.000000   C1563.689941,1212.325073 1563.690186,1261.650269 1563.689453,1310.975342   C1563.689453,1313.308228 1563.606323,1315.644165 1563.697266,1317.973389   C1563.807617,1320.803711 1562.707275,1322.394409 1559.716919,1322.329712   C1559.384033,1322.322388 1559.049927,1322.361694 1558.717529,1322.349365   C1550.770996,1322.055176 1542.796509,1322.998901 1534.870117,1321.813599   C1532.200317,1314.416626 1533.723999,1306.758789 1533.712769,1299.250000   C1533.580078,1210.598389 1533.616821,1121.946289 1533.638794,1033.294434   C1533.642090,1020.422791 1532.604980,1022.465332 1544.974854,1022.310059   C1549.639893,1022.251465 1554.308838,1022.404053 1558.971436,1022.284241   C1562.360962,1022.197144 1563.870117,1023.623718 1563.701172,1027.023560   C1563.585449,1029.350586 1563.689697,1031.688232 1563.689697,1034.021118   C1563.690308,1076.347412 1563.689941,1118.673706 1563.689941,1162.000000  z" id="S1-U1"/>
<path fill="#CEE0E7" opacity="0" stroke="none" d=" M1563.689941,816.000122   C1563.688110,833.331360 1563.549683,849.664429 1563.771729,865.992676   C1563.834473,870.602661 1562.694580,872.773804 1557.682983,872.423035   C1550.087769,871.891479 1542.435303,872.966675 1534.842285,871.832458   C1532.204224,864.430054 1533.724121,856.774536 1533.712769,849.264465   C1533.579590,760.609375 1533.617798,671.954041 1533.636353,583.298767   C1533.639038,570.424561 1532.598999,572.466797 1544.967163,572.320068   C1549.632446,572.264709 1554.301636,572.413025 1558.964355,572.292053   C1562.355347,572.204041 1563.849121,573.633118 1563.696045,577.031921   C1563.576294,579.692505 1563.688721,582.363342 1563.688721,585.029602   C1563.689941,661.686401 1563.689819,738.343262 1563.689941,816.000122  z" id="Q1-S1"/>
<path fill="#E0E0E0" opacity="0" stroke="none" d=" M186.516083,479.317200   C198.617371,455.550110 219.252899,448.441864 241.844147,453.915588   C259.126984,458.103119 273.287262,476.280914 273.682343,494.148102   C274.166321,516.032715 264.289764,533.312622 245.340302,539.807861   C219.704620,548.594849 194.298599,538.672974 185.135712,511.416412   C181.748840,501.341522 182.451340,490.386169 186.516083,479.317200  z" id="P1"/>
<path fill="#E0E0E0" opacity="0" stroke="none" d=" M1539.618042,452.976257   C1548.049072,451.859497 1555.709961,451.913177 1563.088989,454.195435   C1577.683594,458.709442 1595.986694,475.156891 1593.798096,502.408539   C1592.381714,520.045044 1577.258423,539.169434 1559.505859,541.816101   C1536.234985,545.285461 1516.948975,540.156921 1506.586792,514.884094   C1495.420410,487.649902 1510.934937,458.573395 1539.618042,452.976257  z" id="Q1"/>
<path fill="#E0E0E0" opacity="0" stroke="none" d=" M2608.788330,1442.123657   C2598.695068,1441.960327 2589.266846,1443.866455 2580.416260,1439.543823   C2556.148438,1427.690918 2549.336426,1407.350220 2555.058350,1384.025757   C2560.516602,1361.775024 2584.122314,1348.484619 2607.202148,1352.808716   C2625.897705,1356.311401 2641.499756,1372.365723 2643.645752,1390.308350   C2646.154541,1411.289551 2636.821533,1429.418457 2618.856201,1438.241455   C2615.889648,1439.698364 2612.725830,1440.754517 2608.788330,1442.123657  z" id="V1"/>
<path fill="#E0E0E0" opacity="0" stroke="none" d=" M1530.310059,1355.651978   C1555.793457,1346.817139 1576.877197,1356.005981 1587.451294,1373.959717   C1596.234009,1388.872192 1596.609131,1404.408203 1588.319336,1419.478271   C1580.237183,1434.170898 1567.761108,1441.964600 1550.345215,1442.529053   C1531.291748,1443.146729 1517.277954,1435.439697 1508.469604,1419.189209   C1497.133301,1398.275391 1503.289917,1367.997681 1530.310059,1355.651978  z" id="U1"/>
<path fill="#E0E0E0" opacity="0" stroke="none" d=" M538.289307,1419.862915   C533.040161,1428.731812 526.518494,1435.393555 517.592712,1438.928955   C492.201874,1448.986084 463.701813,1439.583130 455.389435,1411.757568   C447.479065,1385.277588 459.677246,1362.162598 484.410522,1354.213257   C510.800323,1345.731323 537.262207,1361.211914 542.801819,1387.369873   C545.110657,1398.272095 544.495178,1409.171509 538.289307,1419.862915  z" id="T1"/>
<path fill="#E0E0E0" opacity="0" stroke="none" d=" M2274.793457,458.331665   C2299.755127,445.971405 2324.475830,452.304291 2337.828613,474.707611   C2346.458008,489.185638 2346.502686,504.604218 2338.395264,519.331360   C2330.316895,534.005310 2317.956299,541.976990 2300.503418,542.545410   C2282.370850,543.136047 2268.865234,536.061707 2259.455566,521.078369   C2249.055420,504.518005 2250.868164,477.409119 2269.319580,462.244263   C2270.857666,460.979858 2272.512207,459.857025 2274.793457,458.331665  z" id="R1"/>
<path fill="#E0E0E0" opacity="0" stroke="none" d=" M1390.255371,757.343506   C1421.338013,775.080811 1421.427734,818.105591 1393.386841,835.770386   C1368.443115,851.484009 1331.911499,841.200012 1324.448608,808.571106   C1320.354980,790.673401 1324.624023,773.972351 1339.933350,761.977783   C1355.293823,749.943176 1372.106812,749.361267 1390.255371,757.343506  z" id="Z"/>
<path fill="#E0E0E0" opacity="0" stroke="none" d=" M1751.602783,758.009949   C1772.739990,772.352600 1777.318604,791.896362 1771.971191,811.304321   C1766.852539,829.882019 1749.639404,841.754089 1730.355713,842.492798   C1711.308350,843.222412 1697.602661,835.233582 1688.374146,819.229797   C1680.175537,805.011841 1681.038086,780.037964 1696.436523,764.775940   C1711.225098,750.118347 1736.659302,748.942566 1751.602783,758.009949  z" id="A1"/>
<path fill="#E0E0E0" opacity="0" stroke="none" d=" M1574.649048,984.898193   C1549.365601,1001.032959 1516.913330,991.285400 1506.856201,965.905884   C1500.037720,948.699219 1501.613403,931.807861 1514.309937,917.330994   C1527.014648,902.844849 1543.439087,899.231079 1561.424316,903.956970   C1578.713135,908.500000 1589.473511,920.719910 1592.903687,937.898804   C1596.628784,956.554077 1591.209717,972.752625 1574.649048,984.898193  z" id="S1"/>
<path fill="#CDDFE6" opacity="0" stroke="none" d=" M1374.030884,962.360840   C1368.378174,962.360291 1363.701416,962.106140 1359.065430,962.431091   C1354.524902,962.749329 1353.528564,960.741516 1353.550415,956.618469   C1353.687866,930.662598 1353.754028,904.704468 1353.514893,878.750061   C1353.464722,873.311707 1355.488281,871.893372 1360.498779,872.217041   C1366.132568,872.580811 1371.821533,872.546143 1377.460693,872.228027   C1382.232422,871.958801 1383.866333,873.680054 1383.789673,878.490173   C1383.550903,893.461243 1383.688965,908.438660 1383.710815,923.413574   C1383.725342,933.355957 1382.898926,932.276917 1392.981445,932.291138   C1417.274170,932.325378 1441.566895,932.266296 1465.859497,932.318542   C1473.541504,932.335022 1473.585205,932.441040 1473.689087,939.872437   C1473.763550,945.195862 1473.325928,950.554810 1473.801025,955.836365   C1474.305054,961.439880 1471.779053,962.461182 1466.870728,962.436279   C1436.255981,962.281189 1405.640259,962.359680 1374.030884,962.360840  z" id="Z-S1"/>
<path fill="#CDDFE6" opacity="0" stroke="none" d=" M1636.089355,962.360657   C1633.770386,962.360474 1632.438843,962.330261 1631.108887,962.365112   C1622.961426,962.578430 1623.344604,962.192444 1623.692505,954.673645   C1624.025146,947.482178 1620.523682,938.366760 1625.326660,933.632019   C1629.697632,929.323181 1638.632690,932.440125 1645.541504,932.375061   C1665.834595,932.184082 1686.130737,932.348938 1706.425171,932.271118   C1713.445190,932.244202 1713.555786,932.106262 1713.592651,925.153137   C1713.670166,910.514709 1713.648315,895.875427 1713.610596,881.236633   C1713.583740,870.819641 1713.821045,872.353638 1722.997559,872.306030   C1727.987915,872.280151 1732.988281,872.491455 1737.966187,872.240295   C1742.261108,872.023560 1743.826538,873.624695 1743.770386,877.980469   C1743.581299,892.616882 1743.701782,907.257263 1743.702759,921.896118   C1743.703613,932.875244 1743.758057,943.854797 1743.682373,954.833435   C1743.631592,962.208374 1743.548706,962.327698 1735.890015,962.339050   C1702.952515,962.388062 1670.015137,962.360413 1636.089355,962.360657  z" id="S1-A1"/>
<path fill="#CCDEE5" opacity="0" stroke="none" d=" M1383.713745,664.000122   C1383.712891,681.986877 1383.587280,698.975159 1383.794312,715.959351   C1383.849731,720.503540 1382.825317,722.745544 1377.759155,722.442139   C1370.158081,721.986938 1362.526367,722.042847 1354.907715,721.881348   C1352.106934,714.509460 1353.805908,706.856018 1353.703003,699.354431   C1353.424316,679.040771 1353.434448,658.718262 1353.726685,638.404968   C1353.802979,633.099243 1352.104858,631.625671 1346.949585,631.580688   C1334.281860,631.470215 1334.119873,631.217285 1334.360352,618.976257   C1334.462891,613.754944 1331.964233,607.253296 1335.653809,603.616760   C1339.324585,599.998718 1345.807007,602.524719 1351.038696,602.369446   C1359.691040,602.112732 1368.367310,602.562012 1377.012329,602.203003   C1382.279785,601.984314 1383.881348,603.870728 1383.809326,609.043457   C1383.558716,627.025940 1383.713257,645.014099 1383.713745,664.000122  z" id="Z-X"/>
</svg>