<svg version="1.1" id="Layer_1" xmlns="http://www.w3.org/2000/svg" xmlns:xlink="http://www.w3.org/1999/xlink" x="0px" y="0px" height="100%" viewBox="0 0 2940 2340" enable-background="new 0 0 2940 2340" xml:space="preserve">
<path fill="#FEFEFE" class="lim" id="" opacity="0" stroke="none" d=" M2817.658691,1874.000244   C2817.658691,1988.286499 2817.658691,2101.572754 2817.658691,2216.326904   C2341.742432,2216.326904 1866.320679,2216.326904 1390.284058,2216.326904   C1390.284058,1970.392944 1390.284058,1724.932373 1390.284058,1478.341431   C1394.190063,1478.341431 1398.083130,1478.341309 1401.976318,1478.341309   C1802.626099,1478.341431 2203.275879,1478.344971 2603.925781,1478.328003   C2617.361084,1478.327393 2619.872070,1481.408691 2619.749023,1462.345459   C2619.486572,1421.682251 2619.668701,1381.015991 2619.668701,1340.351074   C2619.668701,1336.728882 2619.668701,1333.106689 2619.668701,1328.912354   C2685.764404,1328.912354 2751.212891,1328.912354 2817.658691,1328.912354   C2817.658691,1510.545044 2817.658691,1691.772583 2817.658691,1874.000244  z"/>
<path fill="#FEFEFE" class="lim" id="" opacity="0" stroke="none" d=" M129.668167,1817.999756   C129.668167,1704.424805 129.668167,1591.849976 129.668167,1478.809448   C495.766022,1478.809448 860.963196,1478.809448 1226.160400,1478.813477   C1228.101196,1486.067383 1228.885498,2195.539307 1226.913940,2215.707520   C861.541138,2215.707520 496.107208,2215.707520 129.668167,2215.707520   C129.668167,2083.422607 129.668167,1951.211182 129.668167,1817.999756  z"/>
<path fill="#FDFDFD" class="lim" id="" opacity="0" stroke="none" d=" M472.000183,578.340271   C604.208496,578.340271 735.416870,578.340271 867.666809,578.340271   C867.666809,582.804932 867.666809,586.381042 867.666809,589.957092   C867.666809,681.599487 867.665527,773.241821 867.668213,864.884216   C867.668579,878.339050 867.677307,878.340332 881.533813,878.340332   C1022.829651,878.340515 1164.125488,878.340393 1305.421387,878.340332   C1309.047363,878.340332 1312.673218,878.340271 1316.978027,878.340271   C1316.978027,924.364197 1316.978027,969.792969 1316.978027,1015.777039   C921.508484,1015.777039 526.131775,1015.777039 130.210770,1015.777039   C130.210770,870.279663 130.210770,724.842712 130.210770,578.340271   C243.941238,578.340271 357.470703,578.340271 472.000183,578.340271  z"/>
<path fill="#FDFDFD" class="lim" id="" opacity="0" stroke="none" d=" M453.999817,1466.326416   C345.694336,1466.326416 238.388885,1466.326416 130.375015,1466.326416   C130.375015,1320.584351 130.375015,1175.119995 130.375015,1028.997192   C255.564102,1028.997192 381.010132,1028.997192 507.062225,1028.997192   C507.062225,1174.553467 507.062225,1319.985596 507.062225,1466.326416   C489.496552,1466.326416 472.248199,1466.326416 453.999817,1466.326416  z"/>
<path fill="#FDFDFD" class="lim" id="" opacity="0" stroke="none" d=" M142.085815,416.329834   C137.775650,416.329834 134.454086,416.329834 130.400177,416.329834   C130.400177,320.635101 130.400177,225.171524 130.400177,129.021591   C275.538849,129.021591 420.975586,129.021591 567.041138,129.021591   C567.041138,224.513794 567.041138,319.950073 567.041138,416.329803   C425.528625,416.329803 284.301514,416.329803 142.085815,416.329834  z"/>
<path fill="#FDFDFD" class="lim" id="" opacity="0" stroke="none" d=" M880.000122,1028.338989   C896.236328,1028.338989 911.472595,1028.338989 927.181519,1028.338989   C927.181519,1124.529541 927.181519,1219.713257 927.181519,1315.615479   C791.712158,1315.615479 656.280823,1315.615479 520.256592,1315.615479   C520.256592,1220.354248 520.256592,1124.893555 520.256592,1028.338989   C639.908447,1028.338989 759.454285,1028.338989 880.000122,1028.338989  z"/>
<path fill="#FDFDFD" class="lim" id="" opacity="0" stroke="none" d=" M2684.000000,1028.338379   C2728.898682,1028.338379 2772.797363,1028.338379 2817.175293,1028.338379   C2817.175293,1124.513428 2817.175293,1219.696045 2817.175293,1315.607910   C2711.725098,1315.607910 2606.295166,1315.607910 2500.264648,1315.607910   C2500.264648,1220.372314 2500.264648,1124.912598 2500.264648,1028.338379   C2561.236816,1028.338379 2622.118408,1028.338379 2684.000000,1028.338379  z"/>
<path fill="#FDFDFD" class="lim" id="" opacity="0" stroke="none" d=" M2408.000000,266.329285   C2238.363525,266.329285 2069.727051,266.329285 1900.377441,266.329285   C1900.377441,220.593048 1900.377441,175.119034 1900.377441,128.988312   C2105.568359,128.988312 2311.012695,128.988312 2517.066895,128.988312   C2517.066895,174.546005 2517.066895,219.985504 2517.066895,266.329285   C2480.824219,266.329285 2444.912109,266.329285 2408.000000,266.329285  z"/>
<path fill="#FDFDFD" class="lim" id="" opacity="0" stroke="none" d=" M2367.670166,1277.998779   C2367.670166,1290.956055 2367.670166,1302.913696 2367.670166,1315.599121   C2271.740479,1315.599121 2176.308350,1315.599121 2080.269531,1315.599121   C2080.269531,1220.381592 2080.269531,1124.920288 2080.269531,1028.897949   C2175.776123,1028.897949 2271.221680,1028.897949 2367.670166,1028.897949   C2367.670166,1111.876831 2367.670166,1194.437988 2367.670166,1277.998779  z"/>
<path fill="#FDFDFD" class="lim" id="" opacity="0" stroke="none" d=" M2307.669434,466.000183   C2307.669434,499.620667 2307.669434,532.241150 2307.669434,565.592529   C2171.743896,565.592529 2036.317261,565.592529 1900.277100,565.592529   C1900.277100,500.386810 1900.277100,434.925110 1900.277100,368.897827   C2035.783081,368.897827 2171.221924,368.897827 2307.669434,368.897827   C2307.669434,401.200653 2307.669434,433.100403 2307.669434,466.000183  z"/>
<path fill="#FDFDFD" class="lim" id="" opacity="0" stroke="none" d=" M2552.000000,566.326172   C2514.356201,566.326172 2477.712158,566.326172 2440.366699,566.326172   C2440.366699,500.578430 2440.366699,435.105255 2440.366699,368.981415   C2565.569336,368.981415 2691.019775,368.981415 2817.066895,368.981415   C2817.066895,434.560425 2817.066895,500.000702 2817.066895,566.326172   C2728.811768,566.326172 2640.906006,566.326172 2552.000000,566.326172  z"/>
<path fill="#FDFDFD" class="lim" id="" opacity="0" stroke="none" d=" M1081.978760,566.325806   C1004.343567,566.325806 927.705444,566.325806 850.366211,566.325806   C850.366211,470.565613 850.366211,375.095612 850.366211,278.981140   C935.568848,278.981140 1021.022339,278.981140 1107.073242,278.981140   C1107.073242,374.562958 1107.073242,469.998535 1107.073242,566.325806   C1098.819580,566.325806 1090.897705,566.325806 1081.978760,566.325806  z"/>
<path fill="#FDFDFD" class="lim" id="" opacity="0" stroke="none" d=" M1375.999756,1316.334351   C1330.357544,1316.334351 1285.715210,1316.334351 1240.368652,1316.334351   C1240.368652,1220.576660 1240.368652,1125.108643 1240.368652,1028.988403   C1315.561035,1028.988403 1391.011719,1028.988403 1467.066772,1028.988403   C1467.066772,1124.559326 1467.066772,1219.993896 1467.066772,1316.334351   C1436.822998,1316.334351 1406.911499,1316.334351 1375.999756,1316.334351  z"/>
<path fill="#FDFDFD" class="lim" id="" opacity="0" stroke="none" d=" M1629.667603,1209.999756   C1629.667603,1149.091431 1629.667603,1089.183105 1629.667603,1028.808350   C1705.761475,1028.808350 1780.966675,1028.808350 1856.917725,1028.808350   C1856.917725,1124.237183 1856.917725,1219.663696 1856.917725,1315.714844   C1781.548828,1315.714844 1706.108643,1315.714844 1629.667603,1315.714844   C1629.667603,1280.764648 1629.667603,1245.882324 1629.667603,1209.999756  z"/>
<path fill="#FDFDFD" class="lim" id="" opacity="0" stroke="none" d=" M2696.000000,356.334625   C2640.358398,356.334625 2585.716553,356.334625 2530.370117,356.334625   C2530.370117,280.581085 2530.370117,205.110367 2530.370117,128.985764   C2625.564941,128.985764 2721.014648,128.985764 2817.063965,128.985764   C2817.063965,204.553284 2817.063965,279.991302 2817.063965,356.334625   C2776.818359,356.334625 2736.909180,356.334625 2696.000000,356.334625  z"/>
<path fill="#FDFDFD" class="lim" id="" opacity="0" stroke="none" d=" M129.662964,458.009094   C129.662964,447.758606 129.662964,438.506409 129.662964,428.807343   C275.767670,428.807343 420.966217,428.807343 566.165039,428.810608   C568.084412,436.023163 568.752502,546.962341 566.926331,565.717468   C421.550385,565.717468 276.113251,565.717468 129.662964,565.717468   C129.662964,530.103516 129.662964,494.555450 129.662964,458.009094  z"/>
<path fill="#FDFDFD" class="lim" id="" opacity="0" stroke="none" d=" M2067.670166,1272.000000   C2067.670166,1286.956909 2067.670166,1300.913818 2067.670166,1315.601318   C2001.742798,1315.601318 1936.308960,1315.601318 1870.269897,1315.601318   C1870.269897,1220.385254 1870.269897,1124.923706 1870.269897,1028.898926   C1935.769653,1028.898926 2001.217163,1028.898926 2067.670166,1028.898926   C2067.670166,1109.880981 2067.670166,1190.440552 2067.670166,1272.000000  z"/>
<path fill="#FDFDFD" class="lim" id="" opacity="0" stroke="none" d=" M1077.676880,1281.996338   C1077.676880,1293.621216 1077.676880,1304.246826 1077.676880,1315.600586   C1031.756836,1315.600586 986.320435,1315.600586 940.271545,1315.600586   C940.271545,1220.392944 940.271545,1124.932617 940.271545,1028.903320   C985.778137,1028.903320 1031.224976,1028.903320 1077.676880,1028.903320   C1077.676880,1113.212769 1077.676880,1197.104980 1077.676880,1281.996338  z"/>
<path fill="#FDFDFD" class="lim" id="" opacity="0" stroke="none" d=" M1102.084229,1316.336304   C1097.774048,1316.336304 1094.452881,1316.336304 1090.397339,1316.336304   C1090.397339,1220.646362 1090.397339,1125.185791 1090.397339,1029.029785   C1135.533813,1029.029785 1180.973633,1029.029785 1227.044189,1029.029785   C1227.044189,1124.507812 1227.044189,1219.941650 1227.044189,1316.336304   C1185.542358,1316.336304 1144.307617,1316.336304 1102.084229,1316.336304  z"/>
<path fill="#FDFDFD" class="lim" id="" opacity="0" stroke="none" d=" M2079.662842,815.999817   C2079.662842,736.429443 2079.662842,657.859070 2079.662842,578.813965   C2125.751221,578.813965 2170.954590,578.813965 2216.158691,578.816895   C2218.099609,586.061523 2218.854248,845.589844 2216.932373,865.704590   C2171.555664,865.704590 2126.114014,865.704590 2079.662842,865.704590   C2079.662842,849.435425 2079.662842,833.217651 2079.662842,815.999817  z"/>
<path fill="#FDFDFD" class="lim" id="" opacity="0" stroke="none" d=" M890.104980,866.330566   C886.213989,866.330566 883.314148,866.330566 880.049927,866.330566   C880.049927,770.185425 880.049927,674.965820 880.049927,579.040771   C925.524353,579.040771 970.959534,579.040771 1017.031250,579.040771   C1017.031250,674.487122 1017.031250,769.917603 1017.031250,866.330566   C974.890198,866.330566 932.993103,866.330566 890.104980,866.330566  z"/>
<path fill="#FDFDFD" class="lim" id="" opacity="0" stroke="none" d=" M803.995117,278.335999   C815.569397,278.335999 826.144775,278.335999 837.183228,278.335999   C837.183228,374.515717 837.183228,469.694641 837.183228,565.601196   C791.733215,565.601196 746.298645,565.601196 700.261597,565.601196   C700.261597,470.365509 700.261597,374.908936 700.261597,278.335999   C734.560364,278.335999 768.778259,278.335999 803.995117,278.335999  z"/>
<path fill="#FDFDFD" class="lim" id="" opacity="0" stroke="none" d=" M1883.213501,128.348816   C1887.386475,128.473862 1887.675171,130.699402 1887.668091,133.204361   C1887.649170,139.862595 1887.671753,146.520966 1887.671997,153.179276   C1887.673340,187.136780 1887.672485,221.094299 1887.672485,255.051804   C1887.672485,258.335815 1887.672607,261.619812 1887.672607,265.619843   C1801.785156,265.619843 1716.419434,265.619843 1630.358887,265.619843   C1630.358887,220.596024 1630.358887,175.168137 1630.358887,128.335739   C1714.148315,128.335739 1798.215088,128.335739 1883.213501,128.348816  z"/>
<path fill="#FCFCFC" class="lim" id="" opacity="0" stroke="none" d=" M2487.673828,1098.000244   C2487.673828,1170.949097 2487.673828,1242.897827 2487.673828,1315.591553   C2451.764893,1315.591553 2416.327637,1315.591553 2380.273682,1315.591553   C2380.273682,1220.400757 2380.273682,1124.940918 2380.273682,1028.907104   C2415.764893,1028.907104 2451.213135,1028.907104 2487.673828,1028.907104   C2487.673828,1051.862427 2487.673828,1074.431274 2487.673828,1098.000244  z"/>
<path fill="#FCFCFC" class="lim" id="" opacity="0" stroke="none" d=" M1193.999756,566.329346   C1169.021851,566.329346 1145.044067,566.329346 1120.363770,566.329346   C1120.363770,520.583801 1120.363770,475.109619 1120.363770,428.983398   C1185.560303,428.983398 1251.012817,428.983398 1317.072266,428.983398   C1317.072266,474.554779 1317.072266,519.994019 1317.072266,566.329346   C1276.152222,566.329346 1235.576050,566.329346 1193.999756,566.329346  z"/>
<path fill="#FCFCFC" class="lim" id="" opacity="0" stroke="none" d=" M1316.941895,415.155640   C1314.361084,416.046570 1312.377563,416.315063 1310.394165,416.315796   C1249.152588,416.338501 1187.910889,416.334930 1126.669312,416.335419   C1124.723145,416.335449 1122.777100,416.335419 1120.247192,416.335419   C1120.247192,370.391663 1120.247192,324.966034 1120.247192,278.936279   C1185.606079,278.936279 1250.994141,278.936279 1317.539307,278.936279   C1317.539307,324.149506 1317.539307,369.278931 1316.941895,415.155640  z"/>
<path fill="#FCFCFC" class="lim" id="" opacity="0" stroke="none" d=" M2427.673828,380.335144   C2427.673828,442.562225 2427.673828,503.831512 2427.673828,565.716125   C2391.543701,565.716125 2356.095215,565.716125 2320.151367,565.716125   C2320.151367,500.168610 2320.151367,434.710724 2320.151367,368.791870   C2355.801270,368.791870 2391.009521,368.791870 2427.673828,368.791870   C2427.673828,372.347717 2427.673828,375.862518 2427.673828,380.335144  z"/>
<path fill="#FCFCFC" class="lim" id="" opacity="0" stroke="none" d=" M1859.978760,368.329346   C1869.551147,368.329376 1878.128540,368.329376 1887.175293,368.329376   C1887.175293,404.508759 1887.175293,439.694611 1887.175293,475.612946   C1841.736450,475.612946 1796.299438,475.612946 1750.260254,475.612946   C1750.260254,440.378967 1750.260254,404.912384 1750.260254,368.329346   C1786.545654,368.329346 1822.764771,368.329346 1859.978760,368.329346  z"/>
<path fill="#FBFBFB" class="lim" id="" opacity="0" stroke="none" d=" M1768.094360,488.326385   C1808.069580,488.326385 1847.055786,488.326385 1885.932007,488.326385   C1888.142334,495.697205 1888.815430,544.092529 1887.045654,565.653931   C1841.668457,565.653931 1796.227051,565.653931 1750.219727,565.653931   C1750.219727,540.305481 1750.219727,514.840759 1750.219727,488.326385   C1755.960938,488.326385 1761.533203,488.326385 1768.094360,488.326385  z"/>
<path fill="#CDE0E7" id="E-D" opacity="0" stroke="none" d=" M1413.683105,186.751663   C1413.700562,195.595398 1413.700562,203.509796 1413.700562,211.876740   C1183.419434,211.876740 954.078064,211.876740 724.191040,211.876740   C724.191040,202.221176 724.191040,192.769119 724.191040,182.310059   C727.777161,182.310059 731.013489,182.310074 734.249878,182.310074   C957.094727,182.310013 1179.939575,182.293304 1402.784302,182.456131   C1406.411865,182.458786 1411.743652,179.369461 1413.683105,186.751663  z"/>
<path fill="#CDE0E7" id="D-P" opacity="0" stroke="none" d=" M1503.694946,548.000122   C1503.694946,656.280701 1503.694946,763.561340 1503.694946,871.599792   C1493.767578,871.599792 1484.330566,871.599792 1474.252441,871.599792   C1474.252441,672.362976 1474.252441,472.912018 1474.252441,272.309052   C1479.192017,272.309052 1484.087280,272.309052 1488.982544,272.309052   C1493.564209,272.309052 1498.145996,272.309052 1503.694946,272.309052   C1503.694946,364.545685 1503.694946,455.772888 1503.694946,548.000122  z"/>
<path fill="#CEE0E7" id="Q-P" opacity="0" stroke="none" d=" M1382.007568,962.352356   C1372.366699,962.352356 1363.723755,962.352356 1354.025269,962.352356   C1354.025269,912.611877 1354.025269,863.181946 1354.025269,812.714417   C1263.565308,812.714417 1174.151489,812.714417 1084.192627,812.714417   C1084.192627,795.497070 1084.192627,779.309509 1084.192627,762.376831   C1093.386230,762.376831 1102.865479,762.376831 1113.449219,762.376831   C1113.449219,768.531250 1113.449219,774.987549 1113.449219,782.069946   C1203.720459,782.069946 1292.906250,782.069946 1381.427368,782.069946   C1382.325562,782.967896 1382.575439,783.191101 1382.792725,783.442566   C1383.002319,783.685303 1383.345093,783.957092 1383.345215,784.216248   C1383.369629,833.147766 1383.368896,882.079346 1383.368896,932.060669   C1413.587158,932.060669 1443.034058,932.060669 1473.078857,932.060669   C1473.078857,942.540466 1473.078857,951.976929 1473.078857,962.352356   C1442.811523,962.352356 1412.908569,962.352356 1382.007568,962.352356  z"/>
<path fill="#CEE0E7" id="P-U" opacity="0" stroke="none" d=" M1999.843994,812.357788   C1914.290649,812.358032 1829.720581,812.358032 1744.050293,812.358032   C1744.050293,862.313599 1744.050293,911.719788 1744.050293,961.733643   C1703.525024,961.733643 1664.096558,961.733643 1624.147217,961.733643   C1624.147217,952.152588 1624.147217,942.705078 1624.147217,932.540405   C1653.817383,932.540405 1683.034302,932.540405 1713.273926,932.540405   C1713.273926,882.392822 1713.273926,832.941833 1713.273926,782.487915   C1803.722778,782.487915 1893.150146,782.487915 1983.328613,782.487915   C1983.328613,775.312561 1983.328613,769.104797 1983.328613,762.274658   C1993.546631,762.274658 2003.020874,762.274658 2013.106323,762.274658   C2013.106323,778.440857 2013.106323,794.614014 2013.106323,812.124207   C2009.150269,812.199402 2004.988770,812.278442 1999.843994,812.357788  z"/>
<path fill="#CDE0E7" id="O-W1" opacity="0" stroke="none" d=" M2049.952637,1382.310059   C2058.189453,1382.310059 2065.436768,1382.310059 2073.173828,1382.310059   C2073.173828,1392.484253 2073.173828,1401.671631 2073.173828,1411.615967   C1923.728882,1411.615967 1774.303711,1411.615967 1624.254150,1411.615967   C1624.254150,1402.377075 1624.254150,1392.912109 1624.254150,1382.310059   C1765.884033,1382.310059 1907.423340,1382.310059 2049.952637,1382.310059  z"/>
<path fill="#CEE0E7" id="R-P" opacity="0" stroke="none" d=" M1563.643188,643.999878   C1563.643188,589.769592 1563.643188,536.539307 1563.643188,482.816528   C1588.059326,482.816528 1611.557495,482.816528 1635.706055,482.816528   C1635.706055,492.442810 1635.706055,501.882050 1635.706055,512.141174   C1622.121460,512.141174 1608.606567,512.141174 1594.045410,512.141174   C1594.045410,632.334351 1594.045410,751.728760 1594.045410,871.741760   C1583.553101,871.741760 1574.111694,871.741760 1563.643188,871.741760   C1563.643188,796.056580 1563.643188,720.528259 1563.643188,643.999878  z"/>
<path fill="#CDE0E7" id="S-T" opacity="0" stroke="none" d=" M1975.999756,332.360382   C1908.363525,332.360382 1841.727295,332.360382 1774.361572,332.360382   C1774.361572,322.589050 1774.361572,313.107239 1774.361572,302.955811   C1883.572754,302.955811 1993.020264,302.955811 2103.083984,302.955811   C2103.083984,312.543823 2103.083984,321.984619 2103.083984,332.360382   C2060.814209,332.360382 2018.907104,332.360382 1975.999756,332.360382  z"/>
<path fill="#CEE0E7" id="M-K" opacity="0" stroke="none" d=" M1323.685303,1692.000000   C1323.685303,1718.949707 1323.685303,1744.899414 1323.685303,1771.603271   C1313.746094,1771.603271 1304.316040,1771.603271 1294.246826,1771.603271   C1294.246826,1672.361084 1294.246826,1572.918945 1294.246826,1472.891846   C1303.791748,1472.891846 1313.236572,1472.891846 1323.685303,1472.891846   C1323.685303,1545.899414 1323.685303,1618.449707 1323.685303,1692.000000  z"/>
<path fill="#CEE0E7" id="P-O" opacity="0" stroke="none" d=" M1533.631958,1036.160156   C1533.631958,1031.245728 1533.631958,1027.311279 1533.631958,1022.842773   C1543.623779,1022.842773 1552.834839,1022.842773 1562.096313,1022.842773   C1564.193481,1029.876465 1565.111572,1297.792603 1563.015747,1321.652100   C1553.659302,1321.652100 1544.221924,1321.652100 1533.631958,1321.652100   C1533.631958,1226.852417 1533.631958,1131.996216 1533.631958,1036.160156  z"/>
<path fill="#CDE0E7" id="M-O" opacity="0" stroke="none" d=" M1232.928223,1411.160400   C1230.010254,1412.055298 1227.692383,1412.342163 1225.374512,1412.342773   C1141.051147,1412.365845 1056.727783,1412.362183 972.404358,1412.362183   C969.803711,1412.362183 967.203003,1412.362183 964.153625,1412.362183   C964.153625,1402.129395 964.153625,1392.678589 964.153625,1382.767212   C1053.855103,1382.767212 1143.048462,1382.767212 1233.528198,1382.767212   C1233.528198,1392.056763 1233.528198,1401.237793 1232.928223,1411.160400  z"/>
<path fill="#CEE0E7" id="E-F" opacity="0" stroke="none" d=" M618.303467,367.999878   C618.303528,335.774353 618.303528,304.548828 618.303528,272.820801   C628.499390,272.820801 637.685791,272.820801 647.623413,272.820801   C647.623413,322.278381 647.623413,371.699707 647.623413,421.746613   C638.372192,421.746613 628.910217,421.746613 618.303467,421.746613   C618.303467,404.107758 618.303467,386.553833 618.303467,367.999878  z"/>
<path fill="#CEE0E7" id="M-O" opacity="0" stroke="none" d=" M1451.956177,1412.362427   C1428.993286,1412.362427 1407.024780,1412.362427 1384.344727,1412.362427   C1384.344727,1402.572754 1384.344727,1393.094360 1384.344727,1382.952271   C1413.583008,1382.952271 1443.032593,1382.952271 1473.091064,1382.952271   C1473.091064,1392.582886 1473.091064,1402.022705 1473.091064,1412.362427   C1466.131104,1412.362427 1459.540894,1412.362427 1451.956177,1412.362427  z"/>
<path fill="#D2E3EB" id="S-R" opacity="0" stroke="none" d=" M1712.339600,407.999786   C1712.328491,417.661865 1712.323730,426.324982 1712.293335,434.988007   C1712.291138,435.632477 1712.104858,436.276306 1711.893066,437.629822   C1702.933228,437.629822 1693.842285,437.629822 1684.201904,437.629822   C1684.201904,418.131622 1684.201904,398.613739 1684.201904,378.374695   C1693.077759,378.374695 1702.166382,378.374695 1712.339600,378.374695   C1712.339600,387.891113 1712.339600,397.445953 1712.339600,407.999786  z"/>
<path fill="#E0E0E0" id="O" opacity="0" stroke="none" d=" M1528.886719,1356.275391   C1551.880859,1346.977905 1575.349487,1354.422363 1586.594360,1372.667603   C1595.973877,1387.886108 1596.736816,1403.452515 1588.545410,1418.972900   C1580.507690,1434.201782 1567.701660,1442.082153 1549.896851,1442.509155   C1530.868042,1442.965454 1516.927734,1435.154053 1508.281128,1418.782471   C1497.481567,1398.334351 1503.091431,1369.241211 1528.886719,1356.275391  z"/>
<path fill="#E0E0E0" id="W1" opacity="0" stroke="none" d=" M2179.261230,1431.317261   C2161.318848,1448.192261 2129.610352,1445.007935 2114.586670,1428.497803   C2101.837646,1414.487427 2101.076904,1389.364868 2107.677490,1377.100098   C2117.290283,1359.239258 2134.285889,1350.106201 2154.804443,1352.389526   C2173.017822,1354.416382 2188.804443,1368.557983 2192.699219,1387.097778   C2196.213623,1403.826294 2192.413086,1418.702271 2179.261230,1431.317261  z"/>
<path fill="#E0E0E0" id="M" opacity="0" stroke="none" d=" M1340.774414,1365.243164   C1355.174438,1381.247925 1358.109131,1398.947510 1349.329224,1417.453369   C1341.457397,1434.045532 1327.791382,1442.504761 1308.601318,1442.542480   C1289.852417,1442.579346 1276.643555,1434.398438 1268.130615,1418.511353   C1259.151855,1401.755005 1261.828125,1377.378906 1278.488892,1362.949219   C1294.265991,1349.284668 1318.729370,1348.388062 1335.673096,1360.894653   C1337.273804,1362.076172 1338.734497,1363.447144 1340.774414,1365.243164  z"/>
<path fill="#E0E0E0" id="F" opacity="0" stroke="none" d=" M589.428345,486.089783   C599.974487,453.149902 635.745056,441.436432 661.631958,461.645386   C677.005981,473.647308 681.146118,489.977600 677.698059,508.011780   C674.438293,525.061646 663.141296,536.993652 646.573547,541.162720   C611.024109,550.108337 587.048279,523.615295 588.346619,497.732086   C588.528015,494.116699 588.967285,490.514191 589.428345,486.089783  z"/>
<path fill="#E0E0E0" id="K" opacity="0" stroke="none" d=" M1288.249268,1888.339111   C1256.719971,1872.780640 1255.601318,1828.800293 1281.606201,1810.676025   C1296.606201,1800.221680 1312.772705,1799.063232 1328.732422,1806.794922   C1344.867676,1814.611206 1353.036499,1828.185913 1353.882690,1846.694824   C1354.810181,1866.981201 1339.996582,1886.158325 1322.918579,1890.621338   C1311.527832,1893.597900 1299.994263,1894.156006 1288.249268,1888.339111  z"/>
<path fill="#E0E0E0" id="N" opacity="0" stroke="none" d=" M924.151306,1425.962646   C905.919800,1449.552368 867.834229,1446.956299 851.592346,1424.817261   C841.980042,1411.714966 841.621338,1385.751465 848.884399,1374.638916   C861.413818,1355.468872 877.142883,1350.201904 896.499878,1352.759155   C914.380310,1355.121460 928.731628,1369.002197 932.613953,1386.840820   C935.639526,1400.743164 933.869751,1413.901611 924.151306,1425.962646  z"/>
<path fill="#E0E0E0" id="E" opacity="0" stroke="none" d=" M672.219360,221.806641   C656.446411,246.716446 622.885925,247.885284 605.178345,233.423828   C588.994141,220.206467 584.557617,201.596237 590.437927,182.205902   C595.775574,164.604721 613.390076,152.665771 632.215698,152.279922   C646.739807,151.982239 658.931213,156.684311 668.156860,168.076111   C681.633606,184.717270 681.946960,202.554413 672.219360,221.806641  z"/>
<path fill="#E0E0E0" id="D" opacity="0" stroke="none" d=" M1506.105469,155.273376   C1526.567627,165.662628 1535.886597,181.267380 1533.501831,203.424316   C1531.513184,221.901398 1520.939941,235.061249 1503.166992,240.489059   C1467.823975,251.282745 1442.873657,223.896851 1443.440186,199.326920   C1444.192139,166.721130 1468.374146,146.759583 1500.597778,153.643311   C1502.220459,153.989960 1503.816406,154.462204 1506.105469,155.273376  z"/>
<path fill="#E0E0E0" id="P" opacity="0" stroke="none" d=" M1591.006104,964.337585   C1586.129150,975.505798 1579.071655,983.697021 1568.587769,988.396667   C1534.955078,1003.473328 1502.365967,978.349304 1503.349365,948.197388   C1503.969727,929.171448 1511.235352,914.862366 1527.865845,907.042725   C1565.522583,889.336548 1595.711914,920.573853 1593.634155,946.986877   C1593.195435,952.563477 1592.147461,958.092102 1591.006104,964.337585  z"/>
<path fill="#E0E0E0" id="U" opacity="0" stroke="none" d=" M1959.505981,683.902710   C1975.708252,662.000366 2000.061768,655.557373 2021.096558,667.953369   C2038.939819,678.468506 2045.875610,694.248230 2043.500732,715.344849   C2041.662842,731.671814 2027.002441,748.548523 2010.466797,751.525513   C1987.388184,755.680359 1966.881714,750.228638 1956.185059,723.920288   C1950.941772,711.024353 1951.675537,697.174866 1959.505981,683.902710  z"/>
<path fill="#E0E0E0" id="Q" opacity="0" stroke="none" d=" M1067.258057,740.801331   C1045.175293,720.425842 1049.675659,680.701599 1077.050903,667.356140   C1113.802368,649.439758 1144.592529,679.222900 1144.066162,707.159302   C1143.738892,724.521790 1132.532837,745.407227 1112.488892,750.755066   C1096.346558,755.062012 1080.801636,753.334839 1067.258057,740.801331  z"/>
<path fill="#E0E0E0" id="R" opacity="0" stroke="none" d=" M1715.195679,540.067627   C1688.428711,547.088867 1669.979492,539.149414 1658.655640,519.711426   C1649.604980,504.175629 1651.024292,479.076050 1667.400757,463.932526   C1682.068359,450.369293 1706.994385,448.150604 1723.636963,459.233459   C1740.529053,470.482483 1747.753418,493.435638 1740.934692,513.042358   C1736.515503,525.749451 1728.097534,534.438599 1715.195679,540.067627  z"/>
<path fill="#E0E0E0" id="S" opacity="0" stroke="none" d=" M1714.278564,275.264801   C1735.509888,284.218567 1744.374390,298.454803 1743.688721,321.652954   C1743.183838,338.734314 1731.025879,355.147614 1713.078613,360.534882   C1677.771973,371.132996 1654.033936,343.898376 1653.147827,319.425079   C1652.080933,289.961884 1678.759155,266.982513 1708.733643,273.745422   C1710.348633,274.109833 1711.947876,274.544128 1714.278564,275.264801  z"/>
<path fill="#E0E0E0" id="T" opacity="0" stroke="none" d=" M2151.252930,280.983459   C2166.418457,271.612488 2181.639893,269.976685 2197.589844,276.549591   C2212.063477,282.514160 2220.620605,293.912964 2223.168457,308.629211   C2227.232910,332.108826 2216.305664,351.512146 2195.724365,359.331116   C2163.084717,371.731140 2131.848145,347.166107 2133.309814,317.733063   C2134.065674,302.515228 2139.252441,290.852509 2151.252930,280.983459  z"/>
</svg>