<svg version="1.1" id="Layer_1" xmlns="http://www.w3.org/2000/svg" xmlns:xlink="http://www.w3.org/1999/xlink" x="0px" y="0px" height="100%" viewBox="0 0 2940 2340" enable-background="new 0 0 2940 2340" xml:space="preserve">
<path id="" class="lim" fill="#FEFEFE" opacity="0" stroke="none" d=" M1389.671753,2152.000000   C1389.671753,1931.009277 1389.671753,1711.018433 1389.671631,1491.027710   C1389.671631,1490.361084 1389.667969,1489.694458 1389.671631,1489.027832   C1389.741455,1476.609253 1388.721191,1478.362915 1400.275635,1478.362183   C1801.592163,1478.337402 2202.908691,1478.341675 2604.225098,1478.342285   C2619.663818,1478.342285 2619.666992,1478.343872 2619.667725,1463.046387   C2619.669678,1421.048218 2619.654297,1379.049927 2619.680908,1337.051758   C2619.686523,1328.416748 2619.757080,1328.352173 2628.261475,1328.349365   C2688.592285,1328.329102 2748.923096,1328.326050 2809.253906,1328.350464   C2817.521973,1328.353760 2817.526855,1328.438354 2817.653809,1336.322388   C2817.680664,1337.988525 2817.658447,1339.655518 2817.658447,1341.322144   C2817.658691,1628.976685 2817.658936,1916.631348 2817.658447,2204.285889   C2817.658447,2216.322021 2817.655518,2216.326172 2805.405762,2216.326172   C2337.425293,2216.326904 1869.445068,2216.326660 1401.464722,2216.326172   C1389.678467,2216.326172 1389.675049,2216.322998 1389.672852,2204.997070   C1389.669678,2187.664795 1389.671753,2170.332275 1389.671753,2152.000000  z"/>
<path id="" class="lim" fill="#FEFEFE" opacity="0" stroke="none" d=" M1076.000244,1478.341553   C1123.664917,1478.341553 1170.329712,1478.341187 1216.994385,1478.342651   C1219.327515,1478.342651 1221.660767,1478.355591 1223.993896,1478.367310   C1226.442261,1478.379761 1227.618042,1479.657593 1227.635254,1482.062622   C1227.651978,1484.395752 1227.664307,1486.729004 1227.664307,1489.062134   C1227.665161,1728.052124 1227.664551,1967.041992 1227.663696,2206.031982   C1227.663696,2207.698486 1227.523193,2209.378174 1227.681763,2211.029053   C1228.044556,2214.803955 1226.623047,2216.650146 1222.647217,2216.353760   C1220.326904,2216.180664 1217.983154,2216.326416 1215.649902,2216.326416   C857.331665,2216.326904 499.013397,2216.333984 140.695129,2216.296875   C127.847565,2216.295410 129.701447,2218.168213 129.699158,2205.232422   C129.657150,1966.909180 129.658386,1728.585815 129.693115,1490.262573   C129.695190,1476.070557 128.061905,1478.379272 142.039383,1478.377197   C453.026306,1478.330688 764.013184,1478.341553 1076.000244,1478.341553  z"/>
<path id="" class="lim" fill="#FDFDFD" opacity="0" stroke="none" d=" M1317.671387,993.949585   C1317.106689,1001.819885 1320.633789,1010.582825 1316.070801,1015.085938   C1311.957031,1019.145813 1303.368530,1016.277832 1296.768311,1016.278809   C911.868225,1016.334717 526.968140,1016.328735 142.068100,1016.328613   C129.669128,1016.328613 129.667252,1016.327881 129.667206,1003.613098   C129.666718,865.982178 129.666809,728.351257 129.666916,590.720337   C129.666931,588.387573 129.859146,586.036011 129.630020,583.726074   C129.171158,579.100159 131.510269,577.910706 135.586777,578.307922   C137.567429,578.500916 139.582489,578.340332 141.581970,578.340332   C379.520172,578.340210 617.458374,578.330261 855.396606,578.365295   C869.369141,578.367310 867.635010,576.517395 867.642273,590.455017   C867.689880,681.431396 867.666748,772.407776 867.666809,863.384155   C867.666809,865.383606 867.622498,867.384338 867.675720,869.382385   C867.896179,877.654480 868.426392,878.159424 877.034790,878.336365   C879.033447,878.377441 881.033630,878.340454 883.033142,878.340454   C1023.663269,878.340332 1164.293457,878.340332 1304.923584,878.340332   C1305.923340,878.340332 1306.923096,878.337952 1307.922852,878.340637   C1318.460449,878.368958 1317.662598,877.467896 1317.665649,887.986450   C1317.676025,922.976807 1317.670776,957.967163 1317.671387,993.949585  z"/>
<path id="" class="lim" fill="#FDFDFD" opacity="0" stroke="none" d=" M175.999954,1466.326416   C162.667755,1466.326416 150.335510,1466.341064 138.003326,1466.321777   C128.770126,1466.307373 129.712357,1467.167236 129.666885,1457.544922   C129.663742,1456.878296 129.666397,1456.211670 129.666397,1455.545044   C129.666473,1316.890991 129.655106,1178.236938 129.685272,1039.582886   C129.688126,1026.441528 128.333435,1028.372925 140.723145,1028.367920   C259.378998,1028.320801 378.034882,1028.330078 496.690765,1028.353882   C509.177246,1028.356445 507.643768,1027.091187 507.646637,1039.764648   C507.678009,1178.418701 507.666748,1317.072754 507.667084,1455.726807   C507.667084,1456.060181 507.669739,1456.393433 507.666656,1456.726807   C507.574005,1466.713257 509.146271,1466.328003 497.970612,1466.327759   C397.979706,1466.325317 297.988770,1466.326416 197.997864,1466.326416   C190.998550,1466.326416 183.999252,1466.326416 175.999954,1466.326416  z"/>
<path id="" class="lim" fill="#FDFDFD" opacity="0" stroke="none" d=" M501.999817,416.329803   C381.011536,416.329803 261.023254,416.330139 141.034958,416.329346   C129.670395,416.329254 129.666656,416.326050 129.666504,404.577759   C129.665359,316.253052 129.647720,227.928314 129.685394,139.603638   C129.691010,126.434990 128.330048,128.368576 140.696243,128.364655   C279.349335,128.320663 418.002472,128.328842 556.655579,128.350586   C569.112854,128.352539 567.646912,127.067375 567.651550,139.728455   C567.684021,228.053162 567.668457,316.377869 567.668091,404.702576   C567.668091,405.702484 567.666809,406.702393 567.665466,407.702301   C567.654175,416.110718 568.899780,416.373444 558.993958,416.345764   C540.329407,416.293579 521.664551,416.330170 501.999817,416.329803  z"/>
<path id="" class="lim" fill="#FDFDFD" opacity="0" stroke="none" d=" M905.954224,1316.333130   C780.636658,1316.333130 656.313354,1316.333252 531.989990,1316.332520   C519.666199,1316.332520 519.665771,1316.330078 519.665771,1303.534668   C519.665588,1215.541748 519.648621,1127.548706 519.684265,1039.555786   C519.689575,1026.442627 518.326599,1028.370850 530.739624,1028.366577   C659.062683,1028.321777 787.385681,1028.323486 915.708740,1028.362183   C929.245972,1028.366211 927.636475,1026.711914 927.643311,1039.773682   C927.690002,1128.433228 927.668457,1217.092896 927.668884,1305.752441   C927.668884,1306.752319 927.683533,1307.752563 927.665955,1308.752197   C927.534912,1316.186646 927.533325,1316.214966 919.947205,1316.321655   C915.615112,1316.382568 911.281433,1316.333008 905.954224,1316.333130  z"/>
<path id="" class="lim" fill="#FDFDFD" opacity="0" stroke="none" d=" M2499.666016,1307.870605   C2499.665771,1219.225830 2499.665527,1131.566528 2499.665771,1043.907227   C2499.665771,1041.240723 2499.628418,1038.573608 2499.678223,1035.907959   C2499.817383,1028.460083 2499.832031,1028.356079 2507.404297,1028.354370   C2608.062500,1028.331421 2708.720703,1028.331909 2809.378906,1028.355469   C2817.533203,1028.357422 2817.641602,1028.455933 2817.643799,1036.435913   C2817.670410,1127.094971 2817.643555,1217.754028 2817.689453,1308.413086   C2817.693848,1317.087036 2817.495850,1316.341064 2809.285156,1316.340332   C2708.626953,1316.332153 2607.968750,1316.340332 2507.310547,1316.320801   C2500.184570,1316.319458 2500.184570,1316.234497 2499.666016,1307.870605  z"/>
<path id="" class="lim" fill="#FDFDFD" opacity="0" stroke="none" d=" M2274.000000,266.329254   C2152.342773,266.329254 2031.685669,266.329590 1911.028564,266.328735   C1899.666992,266.328644 1899.664673,266.325134 1899.664307,254.575027   C1899.663208,215.911407 1899.648438,177.247772 1899.673584,138.584167   C1899.681274,126.765038 1898.809937,128.355637 1909.720703,128.352921   C2026.378174,128.323898 2143.035645,128.334869 2259.693115,128.334869   C2342.020020,128.334869 2424.346680,128.321747 2506.673584,128.348846   C2519.136230,128.352951 2517.641846,127.063072 2517.657715,139.732727   C2517.707031,179.062897 2517.688721,218.393204 2517.664795,257.723419   C2517.659668,266.242767 2517.598389,266.315643 2508.980957,266.317780   C2430.987305,266.337250 2352.993652,266.329224 2274.000000,266.329254  z"/>
<path id="" class="lim" fill="#FDFDFD" opacity="0" stroke="none" d=" M2264.000000,1028.338257   C2296.663330,1028.338745 2328.326904,1028.311157 2359.990234,1028.360107   C2367.507812,1028.371704 2367.640137,1028.489380 2367.642822,1036.054321   C2367.676025,1127.044922 2367.677490,1218.035522 2367.649170,1309.026123   C2367.646973,1316.207886 2367.517090,1316.293335 2359.674805,1316.316284   C2341.343262,1316.370117 2323.011963,1316.333740 2304.680420,1316.333740   C2232.687988,1316.333496 2160.695312,1316.343018 2088.702881,1316.322021   C2078.622803,1316.319092 2079.677979,1317.359253 2079.675781,1307.248413   C2079.657471,1217.591064 2079.665039,1127.933594 2079.666016,1038.276245   C2079.666260,1036.276489 2079.719482,1034.275879 2079.677979,1032.277222   C2079.615479,1029.267456 2081.179443,1028.193604 2084.019531,1028.323608   C2086.347656,1028.430054 2088.684814,1028.338745 2091.017822,1028.338745   C2148.345215,1028.338379 2205.672607,1028.338257 2264.000000,1028.338257  z"/>
<path id="" class="lim" fill="#FDFDFD" opacity="0" stroke="none" d=" M2208.000000,368.334595   C2239.329834,368.335052 2269.659424,368.306763 2299.989258,368.356110   C2307.518555,368.368378 2307.644043,368.483887 2307.648438,376.048950   C2307.683594,437.041779 2307.682617,498.034576 2307.647461,559.027405   C2307.643311,566.130798 2307.515625,566.139709 2300.667725,566.319092   C2299.002441,566.362732 2297.334961,566.325928 2295.668457,566.325928   C2167.350098,566.325928 2039.031982,566.346375 1910.713745,566.294312   C1897.865723,566.289124 1899.714600,568.180603 1899.697998,555.249817   C1899.622559,496.590179 1899.664429,437.930328 1899.665894,379.270569   C1899.665894,376.937592 1899.720947,374.603973 1899.683350,372.271759   C1899.634888,369.265045 1901.199585,368.193024 1904.036621,368.322296   C1906.364746,368.428375 1908.701782,368.336121 1911.034790,368.336090   C2009.689819,368.335236 2108.344971,368.334900 2208.000000,368.334595  z"/>
<path id="" class="lim" fill="#FDFDFD" opacity="0" stroke="none" d=" M2439.664795,519.999817   C2439.664795,472.671082 2439.664551,426.342407 2439.665283,380.013733   C2439.665283,377.680664 2439.764648,375.343292 2439.655273,373.015533   C2439.499512,369.697327 2440.803711,368.072113 2444.291992,368.314819   C2446.613525,368.476379 2448.956055,368.335938 2451.289062,368.335938   C2569.610596,368.335083 2687.931885,368.334808 2806.253418,368.334412   C2806.919922,368.334412 2807.586670,368.335114 2808.253174,368.333466   C2817.944824,368.309692 2817.690918,367.501770 2817.670898,377.313782   C2817.639160,392.978790 2817.663086,408.643921 2817.663086,424.309021   C2817.662842,468.637909 2817.668945,512.966797 2817.656250,557.295654   C2817.653809,566.135498 2819.049805,566.341125 2809.404541,566.339783   C2688.750000,566.322632 2568.095459,566.324097 2447.440918,566.336914   C2438.692139,566.337891 2439.672607,566.643555 2439.666504,557.996155   C2439.657715,545.664062 2439.664551,533.331970 2439.664795,519.999817  z"/>
<path id="" class="lim" fill="#FDFDFD" opacity="0" stroke="none" d=" M1107.668945,398.000183   C1107.668945,450.994232 1107.669189,502.988251 1107.668457,554.982300   C1107.668335,557.315369 1107.573975,559.652344 1107.679810,561.980408   C1107.809448,564.829224 1106.713745,566.368164 1103.712402,566.311768   C1101.380371,566.267883 1099.046753,566.324707 1096.713745,566.324768   C1017.722778,566.325928 938.731873,566.325928 859.740906,566.325623   C857.741150,566.325562 855.735840,566.225281 853.742859,566.340515   C850.792725,566.511169 849.484924,565.255188 849.654419,562.282654   C849.768127,560.289612 849.665466,558.284363 849.665466,556.284607   C849.664795,467.294830 849.650635,378.305054 849.680847,289.315277   C849.685242,276.374939 848.516785,278.376312 860.979248,278.367218   C939.303589,278.310059 1017.627930,278.338287 1095.952271,278.338287   C1096.618896,278.338287 1097.285400,278.337128 1097.952026,278.338470   C1108.461670,278.359802 1107.664429,277.474670 1107.666260,288.012604   C1107.672485,324.341797 1107.668945,360.670959 1107.668945,398.000183  z"/>
<path id="" class="lim" fill="#FDFDFD" opacity="0" stroke="none" d=" M1467.668945,1307.649292   C1467.104004,1316.189941 1467.104004,1316.312256 1460.090820,1316.315308   C1389.093994,1316.345947 1318.097168,1316.327026 1247.100342,1316.342041   C1239.196411,1316.343750 1239.654297,1316.766235 1239.655518,1308.645996   C1239.669189,1217.983398 1239.669189,1127.320679 1239.656494,1036.658081   C1239.655151,1027.178833 1239.644531,1028.336792 1248.636108,1028.336914   C1318.633057,1028.338135 1388.629883,1028.346191 1458.626831,1028.328125   C1468.473022,1028.325562 1467.668335,1028.060303 1467.668091,1037.698242   C1467.666626,1127.360962 1467.668335,1217.023560 1467.668945,1307.649292  z"/>
<path id="" class="lim" fill="#FDFDFD" opacity="0" stroke="none" d=" M1629.667603,1235.999756   C1629.667603,1170.673096 1629.667603,1106.346558 1629.667725,1042.019897   C1629.667725,1040.686768 1629.667358,1039.353516 1629.668945,1038.020386   C1629.681885,1026.905396 1629.187866,1028.354858 1639.275513,1028.351318   C1708.601562,1028.326416 1777.927734,1028.338257 1847.253784,1028.338623   C1848.920288,1028.338623 1850.595215,1028.450562 1852.251587,1028.321777   C1855.905884,1028.037354 1858.004761,1029.238037 1857.680542,1033.311157   C1857.522461,1035.298096 1857.661865,1037.308594 1857.661865,1039.308350   C1857.662354,1128.299072 1857.662231,1217.289673 1857.661865,1306.280396   C1857.661865,1308.280151 1857.568237,1310.284546 1857.672241,1312.278687   C1857.832520,1315.355591 1856.255371,1316.425903 1853.419067,1316.334717   C1851.421631,1316.270508 1849.420044,1316.334961 1847.420288,1316.335083   C1778.094238,1316.335815 1708.768066,1316.352295 1639.442017,1316.319214   C1628.394653,1316.313965 1629.711670,1317.621826 1629.685425,1306.992554   C1629.627686,1283.661743 1629.667603,1260.330811 1629.667603,1235.999756  z"/>
<path id="" class="lim" fill="#FDFDFD" opacity="0" stroke="none" d=" M2664.000000,356.334595   C2621.671387,356.334625 2580.342529,356.355621 2539.013916,356.319855   C2528.708008,356.310944 2529.677490,357.537964 2529.674805,347.564514   C2529.656006,277.572418 2529.665039,207.580292 2529.665283,137.588181   C2529.665283,136.255005 2529.739502,134.917206 2529.654785,133.589554   C2529.422607,129.962112 2530.570801,127.828125 2534.714111,128.301804   C2536.687988,128.527451 2538.709229,128.335678 2540.708984,128.335678   C2629.365723,128.335220 2718.022461,128.323105 2806.679199,128.348480   C2819.173340,128.352051 2817.636230,127.076691 2817.643555,139.739716   C2817.683838,208.065323 2817.662598,276.390991 2817.662842,344.716614   C2817.662842,346.049805 2817.681152,347.383301 2817.658691,348.716095   C2817.532959,356.193420 2817.529785,356.311981 2809.983643,356.317749   C2761.655762,356.354736 2713.327881,356.335388 2664.000000,356.334595  z"/>
<path id="" class="lim" fill="#FDFDFD" opacity="0" stroke="none" d=" M347.999817,566.327515   C278.673187,566.327576 210.346527,566.327576 142.019882,566.327576   C139.686783,566.327576 137.327637,566.104675 135.026047,566.373901   C130.405991,566.914246 129.587662,564.622437 129.598160,560.566040   C129.706848,518.570435 129.718033,476.574280 129.588928,434.578766   C129.574783,429.978027 130.688782,427.566376 135.727814,428.300598   C137.359604,428.538361 139.055374,428.336609 140.721878,428.336609   C279.041687,428.336548 417.361481,428.319946 555.681274,428.362152   C569.527161,428.366394 567.606812,426.611694 567.639526,440.741333   C567.729919,479.737335 567.684570,518.733643 567.660156,557.729797   C567.654846,566.249573 567.591980,566.316528 558.979431,566.318726   C488.986237,566.336975 418.993042,566.328125 347.999817,566.327515  z"/>
<path id="" class="lim" fill="#FDFDFD" opacity="0" stroke="none" d=" M1869.667236,1173.999756   C1869.667358,1128.671753 1869.667480,1084.343872 1869.668579,1040.015869   C1869.668701,1037.682861 1869.772583,1035.345215 1869.660278,1033.017822   C1869.500244,1029.703369 1870.785278,1028.049805 1874.281860,1028.318237   C1876.269653,1028.470703 1878.279053,1028.337891 1880.278809,1028.337891   C1938.938354,1028.337402 1997.598022,1028.337402 2056.257568,1028.337280   C2057.924072,1028.337280 2059.606689,1028.488159 2061.253906,1028.310181   C2065.800781,1027.818970 2068.312256,1029.259277 2067.701660,1034.331665   C2067.464355,1036.302490 2067.669189,1038.326416 2067.669189,1040.326172   C2067.669678,1128.648804 2067.694824,1216.971558 2067.641357,1305.294189   C2067.633789,1317.666260 2069.567871,1316.305176 2056.411133,1316.315430   C1997.751587,1316.360718 1939.092041,1316.369751 1880.432495,1316.308472   C1867.985840,1316.295532 1869.716431,1318.009888 1869.696167,1305.984131   C1869.622681,1262.322876 1869.667236,1218.661255 1869.667236,1173.999756  z"/>
<path id="" class="lim" fill="#FDFDFD" opacity="0" stroke="none" d=" M991.999817,1316.336304   C977.001465,1316.336304 963.002991,1316.386841 949.005005,1316.319702   C938.356750,1316.268677 939.780640,1317.590576 939.671692,1306.555176   C939.619080,1301.223145 939.662537,1295.889893 939.662598,1290.557251   C939.663147,1206.900879 939.643250,1123.244507 939.685242,1039.588135   C939.691833,1026.423096 938.346985,1028.391235 950.717896,1028.365479   C989.379639,1028.284790 1028.041748,1028.313232 1066.703613,1028.349121   C1078.738281,1028.360352 1077.664917,1027.059448 1077.667114,1038.762695   C1077.683350,1128.085083 1077.676514,1217.407349 1077.675415,1306.729736   C1077.675293,1308.729248 1077.619995,1310.729614 1077.656372,1312.728271   C1077.702271,1315.254150 1076.325195,1316.271729 1073.989624,1316.302734   C1071.656982,1316.333862 1069.323853,1316.334839 1066.990845,1316.335083   C1042.327148,1316.337036 1017.663513,1316.336304 991.999817,1316.336304  z"/>
<path id="" class="lim" fill="#FDFDFD" opacity="0" stroke="none" d=" M1089.748535,1313.796265   C1089.672607,1221.486572 1089.667847,1130.162720 1089.662964,1038.838867   C1089.662842,1037.505615 1089.812622,1036.152588 1089.637695,1034.842773   C1088.921997,1029.485352 1091.357666,1028.208374 1096.461060,1028.231445   C1137.789307,1028.418945 1179.118652,1028.309570 1220.447754,1028.362305   C1227.540405,1028.371338 1227.645020,1028.528442 1227.650269,1036.515503   C1227.684692,1088.843384 1227.670532,1141.171265 1227.671143,1193.499146   C1227.671631,1232.161865 1227.588745,1270.824829 1227.769775,1309.486694   C1227.793335,1314.506470 1226.649292,1316.466675 1221.218506,1316.441772   C1178.890381,1316.246948 1136.561035,1316.330688 1094.232056,1316.332886   C1092.571777,1316.333008 1090.875488,1316.481079 1089.748535,1313.796265  z"/>
<path id="" class="lim" fill="#FDFDFD" opacity="0" stroke="none" d=" M2217.664551,686.000183   C2217.664551,742.991394 2217.664795,798.982605 2217.664307,854.973755   C2217.664307,857.306702 2217.570557,859.643677 2217.677490,861.971558   C2217.808105,864.815796 2216.722656,866.375732 2213.719727,866.311584   C2212.054443,866.276001 2210.387207,866.328735 2208.720947,866.328796   C2168.394043,866.330505 2128.066895,866.327026 2087.739990,866.333252   C2079.130615,866.334595 2079.658447,867.004578 2079.659180,858.289551   C2079.665283,767.637207 2079.653564,676.984802 2079.678955,586.332458   C2079.681152,578.487000 2079.787109,578.363831 2086.966309,578.356628   C2127.959717,578.315247 2168.953369,578.314819 2209.946777,578.358032   C2217.513428,578.365967 2217.632568,578.487427 2217.643311,586.015625   C2217.691406,619.010376 2217.664307,652.005310 2217.664551,686.000183  z"/>
<path id="" class="lim" fill="#FDFDFD" opacity="0" stroke="none" d=" M1017.664062,857.646912   C1018.207092,863.515381 1017.522949,866.509827 1011.082825,866.467834   C969.420776,866.195801 927.756104,866.317627 886.092285,866.341125   C878.735046,866.345276 879.660950,866.216370 879.661194,857.640259   C879.663391,767.646423 879.662537,677.652527 879.662537,587.658691   C879.662537,586.658752 879.754272,585.649170 879.648376,584.660583   C879.168396,580.178223 880.490784,578.195618 885.641724,578.221008   C927.637878,578.427979 969.635742,578.410950 1011.632202,578.245361   C1016.639587,578.225647 1018.160706,580.104492 1017.702209,584.706787   C1017.472107,587.016968 1017.664062,589.369141 1017.664062,591.702332   C1017.664185,680.029602 1017.664124,768.356934 1017.664062,857.646912  z"/>
<path id="" class="lim" fill="#FDFDFD" opacity="0" stroke="none" d=" M699.662537,333.999817   C699.663391,317.002289 699.825562,301.002167 699.571228,285.008698   C699.490051,279.901917 700.917053,278.185455 706.296936,278.214172   C747.955994,278.436554 789.617004,278.391144 831.276855,278.260529   C835.833923,278.246216 838.313110,279.286896 837.707458,284.340363   C837.471191,286.311432 837.675964,288.335083 837.675964,290.334778   C837.676331,378.654541 837.701843,466.974335 837.647034,555.294067   C837.639343,567.728088 839.509216,566.286499 826.407654,566.306702   C787.747070,566.366394 749.086121,566.379639 710.425598,566.298279   C698.016357,566.272156 699.702209,568.045837 699.692505,555.965759   C699.633179,482.310486 699.662659,408.655151 699.662537,333.999817  z"/>
<path id="" class="lim" fill="#FDFDFD" opacity="0" stroke="none" d=" M1832.000244,128.333191   C1848.997803,128.333618 1864.998779,128.519379 1880.990967,128.229156   C1886.256226,128.133606 1887.787598,129.882996 1887.766235,135.060135   C1887.594604,176.719727 1887.606201,218.380585 1887.762451,260.040314   C1887.779907,264.709381 1886.616089,266.985687 1881.659790,266.360870   C1880.019653,266.154053 1878.331055,266.330719 1876.664673,266.330719   C1798.010010,266.330750 1719.355347,266.330780 1640.700684,266.330078   C1638.367676,266.330048 1636.029541,266.221741 1633.703125,266.343353   C1630.717773,266.499359 1629.474976,265.177887 1629.657715,262.241638   C1629.761108,260.581879 1629.666260,258.910034 1629.666138,257.243622   C1629.665405,217.583008 1629.665283,177.922379 1629.666748,138.261765   C1629.666748,136.262131 1629.724854,134.261612 1629.681763,132.263092   C1629.616577,129.241440 1631.204224,128.194778 1634.031128,128.319778   C1636.359375,128.422745 1638.696045,128.333237 1641.029053,128.333237   C1704.352783,128.332886 1767.676392,128.333084 1832.000244,128.333191  z"/>
<path id="" class="lim" fill="#FCFCFC" opacity="0" stroke="none" d=" M2438.000000,1316.337524   C2421.002197,1316.337524 2405.004150,1316.385986 2389.006592,1316.320435   C2378.352295,1316.276855 2379.684814,1317.588623 2379.679932,1306.559570   C2379.645264,1227.570557 2379.661133,1148.581543 2379.661865,1069.592529   C2379.661865,1057.927490 2379.820312,1046.259521 2379.593506,1034.598877   C2379.504395,1030.025879 2380.644531,1028.185913 2385.708252,1028.221558   C2417.702393,1028.447266 2449.698975,1028.434692 2481.693359,1028.238647   C2486.782227,1028.207520 2487.912842,1030.224976 2487.735840,1034.754639   C2487.463135,1041.742920 2487.673340,1048.749878 2487.673584,1055.748901   C2487.674072,1138.070801 2487.673828,1220.392700 2487.673828,1302.714600   C2487.673828,1304.714355 2487.700439,1306.714478 2487.667969,1308.713623   C2487.547363,1316.188232 2487.540771,1316.278809 2479.994385,1316.317505   C2466.329834,1316.387451 2452.664795,1316.337402 2438.000000,1316.337524  z"/>
<path id="" class="lim" fill="#FCFCFC" opacity="0" stroke="none" d=" M1119.661377,477.999878   C1119.661133,463.001770 1119.840332,449.000153 1119.566162,435.007416   C1119.466187,429.900146 1120.900513,428.197693 1126.282593,428.214325   C1187.607056,428.403961 1248.932251,428.317902 1310.257324,428.357056   C1317.464111,428.361664 1317.636719,428.504303 1317.645996,435.315399   C1317.702393,476.643066 1317.696411,517.970825 1317.650513,559.298584   C1317.642822,566.163757 1317.505249,566.298828 1310.403320,566.306702   C1269.075562,566.352356 1227.747803,566.329102 1186.420044,566.329346   C1167.089355,566.329529 1147.758667,566.350281 1128.427979,566.322449   C1118.478638,566.308105 1119.691528,567.315918 1119.674927,556.989380   C1119.633179,530.992920 1119.661255,504.996368 1119.661377,477.999878  z"/>
<path id="" class="lim" fill="#FCFCFC" opacity="0" stroke="none" d=" M1317.677002,342.000183   C1317.676147,364.997375 1317.711792,386.994690 1317.653687,408.991730   C1317.634766,416.135162 1317.522949,416.302460 1310.718994,416.307465   C1249.060181,416.352722 1187.401245,416.283997 1125.742798,416.434692   C1120.957886,416.446381 1119.535645,415.153656 1119.556885,410.300598   C1119.738647,368.640015 1119.634766,326.978271 1119.688232,285.316956   C1119.697021,278.424500 1119.858765,278.350677 1127.973145,278.346802   C1178.300049,278.322754 1228.627075,278.334656 1278.953979,278.334747   C1289.619263,278.334747 1300.291992,278.568726 1310.946777,278.235596   C1316.148071,278.072937 1317.849121,279.755310 1317.774658,285.008606   C1317.509644,303.669128 1317.674805,322.335815 1317.677002,342.000183  z"/>
<path id="" class="lim" fill="#FCFCFC" opacity="0" stroke="none" d=" M2376.000000,566.330444   C2359.002441,566.331177 2343.004639,566.367310 2327.007080,566.316711   C2319.815186,566.293945 2319.684082,566.215332 2319.680420,559.570007   C2319.645996,498.245636 2319.644043,436.921265 2319.682861,375.596893   C2319.687256,368.496704 2319.828369,368.366821 2326.698486,368.355560   C2358.027344,368.304230 2389.355957,368.296478 2420.684814,368.359833   C2427.499512,368.373627 2427.645020,368.537903 2427.649658,375.736603   C2427.689209,437.060974 2427.602539,498.385559 2427.791504,559.709351   C2427.808105,565.094421 2426.092529,566.516052 2420.991943,566.423462   C2406.332275,566.157288 2391.664551,566.330139 2376.000000,566.330444  z"/>
<path id="" class="lim" fill="#FCFCFC" opacity="0" stroke="none" d=" M1828.000244,368.329376   C1846.330688,368.329773 1863.664062,368.503662 1880.989990,368.225739   C1886.247192,368.141418 1887.803955,369.867706 1887.771851,375.052521   C1887.575806,406.712769 1887.591675,438.375305 1887.765259,470.035828   C1887.790771,474.688477 1886.639038,476.452179 1881.676392,476.432739   C1839.683838,476.268311 1797.690186,476.264832 1755.697876,476.446747   C1750.844849,476.467743 1749.530151,475.042114 1749.560059,470.257233   C1749.757812,438.597015 1749.628418,406.934845 1749.689941,375.273499   C1749.703125,368.475281 1749.862061,368.365234 1757.011597,368.348755   C1780.340942,368.294952 1803.670654,368.329102 1828.000244,368.329376  z"/>
<path id="" class="lim" fill="#FBFBFB" opacity="0" stroke="none" d=" M1772.048096,488.326416   C1808.371582,488.326447 1843.701172,488.350616 1879.030762,488.310059   C1888.182007,488.299530 1887.698975,488.117249 1887.686890,497.086243   C1887.658936,517.750732 1887.716187,538.415283 1887.656372,559.079590   C1887.635864,566.153259 1887.523804,566.304993 1880.642212,566.313171   C1838.979980,566.362671 1797.317261,566.256714 1755.655884,566.443420   C1750.746582,566.465393 1749.505371,564.952759 1749.556030,560.216736   C1749.787720,538.554871 1749.611694,516.888916 1749.688110,495.224823   C1749.711914,488.468903 1749.863647,488.435638 1757.055664,488.337341   C1761.720947,488.273560 1766.387939,488.326050 1772.048096,488.326416  z"/>
<path fill="#CDE0E7" opacity="0" stroke="none" d=" M1055.999756,212.361877   C948.343689,212.361877 841.687561,212.362534 735.031494,212.360916   C723.650146,212.360748 723.455627,212.350098 723.728638,200.549637   C723.863892,194.701355 721.013367,187.326859 725.326233,183.403336   C729.108337,179.962692 736.171021,182.359283 741.769287,182.357864   C961.747498,182.302170 1181.725708,182.302124 1401.703857,182.330490   C1415.472168,182.332260 1413.535278,180.697861 1413.696533,194.749161   C1413.746216,199.081436 1413.569336,203.419632 1413.732300,207.746216   C1413.864014,211.244598 1412.248047,212.496552 1408.963867,212.369308   C1406.301636,212.266144 1403.632080,212.361237 1400.965698,212.361252   C1286.310425,212.361938 1171.655151,212.361877 1055.999756,212.361877  z" id="E-D"/>
<path fill="#CDE0E7" opacity="0" stroke="none" d=" M1473.624878,773.999817   C1473.624878,612.682007 1473.624878,452.364288 1473.624878,292.046570   C1473.624878,289.046875 1473.612427,286.047089 1473.627319,283.047455   C1473.688599,270.665222 1472.785522,272.204559 1484.237305,272.410095   C1490.437134,272.521393 1498.228638,269.528931 1502.434937,273.914337   C1506.180908,277.819916 1503.645508,285.360077 1503.647339,291.281036   C1503.705322,480.929230 1503.711182,670.577454 1503.661011,860.225647   C1503.657349,873.945923 1505.894165,872.297485 1491.475708,872.294617   C1485.889771,872.293518 1478.856201,874.669495 1475.083374,871.212891   C1471.215332,867.669128 1473.721802,860.532532 1473.691162,854.991943   C1473.543823,828.328613 1473.624878,801.664001 1473.624878,773.999817  z" id="D-P"/>
<path fill="#CEE0E7" opacity="0" stroke="none" d=" M1243.999756,812.359863   C1194.019897,812.359924 1145.039917,812.360046 1096.060059,812.360046   C1094.060913,812.360046 1092.025757,812.114624 1090.069336,812.403442   C1084.518555,813.222778 1083.547363,810.491760 1083.557007,805.577454   C1083.685059,740.271179 1083.625610,674.964600 1083.665527,609.658081   C1083.669922,602.490784 1083.820801,602.343079 1090.658325,602.339050   C1155.964844,602.300110 1221.271362,602.296387 1286.577881,602.342163   C1293.499146,602.346985 1293.566284,602.522766 1293.680176,609.635498   C1293.776245,615.631409 1293.578735,621.633118 1293.731812,627.626648   C1293.818970,631.037476 1292.443481,632.505310 1289.066895,632.357117   C1286.739258,632.254883 1284.403076,632.352905 1282.070801,632.352966   C1230.092163,632.353943 1178.113403,632.353699 1126.134766,632.353943   C1124.135620,632.353943 1122.118286,632.529846 1120.140991,632.322632   C1115.647339,631.851562 1112.989868,633.148621 1113.678711,638.260132   C1113.810791,639.241760 1113.694824,640.256775 1113.694824,641.256348   C1113.693726,685.571472 1113.678711,729.886658 1113.704956,774.201782   C1113.709595,782.207825 1113.787964,782.288940 1121.770020,782.292603   C1175.081421,782.317078 1228.392944,782.273132 1281.704346,782.324646   C1295.458374,782.337952 1293.534424,780.730591 1293.699341,794.752686   C1293.746338,798.750488 1293.467163,802.766541 1293.760254,806.743103   C1294.087769,811.184814 1292.200562,812.475159 1287.981201,812.424255   C1273.656006,812.251038 1259.327271,812.359131 1243.999756,812.359863  z" id="Q-W"/>
<path fill="#CDE0E7" opacity="0" stroke="none" d=" M1922.000000,1382.310547   C1969.327515,1382.310547 2015.654907,1382.310059 2061.982422,1382.312012   C2064.648682,1382.312134 2067.315186,1382.318726 2069.981201,1382.346680   C2072.406006,1382.371948 2073.643066,1383.645630 2073.650879,1386.045654   C2073.675293,1393.377930 2073.615967,1400.710815 2073.700439,1408.042236   C2073.733398,1410.917969 2072.601807,1412.383179 2069.644287,1412.334106   C2067.312256,1412.295532 2064.978760,1412.359375 2062.645752,1412.359375   C1919.663818,1412.361816 1776.682007,1412.362427 1633.700073,1412.362549   C1631.700317,1412.362549 1629.696533,1412.272339 1627.701782,1412.370483   C1624.733398,1412.516479 1623.580322,1411.160645 1623.617798,1408.240234   C1623.711792,1400.909058 1623.673828,1393.576050 1623.650146,1386.243774   C1623.640503,1383.237305 1625.224609,1382.180786 1628.037842,1382.293579   C1630.367065,1382.386963 1632.703125,1382.311035 1635.036133,1382.311035   C1730.357422,1382.310913 1825.678711,1382.310669 1922.000000,1382.310547  z" id="O-W1"/>
<path fill="#CEE0E7" opacity="0" stroke="none" d=" M1593.690552,546.003357   C1593.690552,651.299316 1593.690552,755.595886 1593.690796,859.892395   C1593.690796,861.891724 1593.444946,863.928162 1593.739380,865.883301   C1594.588867,871.523376 1591.728027,872.858643 1586.832520,872.383972   C1579.327393,871.656372 1571.669189,873.708740 1564.255371,871.172546   C1562.896973,864.266602 1563.693115,857.288391 1563.689331,850.352905   C1563.625244,731.394897 1563.633545,612.436829 1563.657227,493.478821   C1563.659790,480.549835 1562.497681,482.404236 1574.843750,482.342285   C1592.503662,482.253662 1610.164673,482.292358 1627.824951,482.333405   C1636.203125,482.352844 1636.507080,482.421844 1636.265137,490.149475   C1636.039917,497.344086 1639.488647,506.572571 1634.651001,511.166321   C1630.329468,515.270081 1621.316528,512.084412 1614.379028,512.323181   C1609.386597,512.495056 1604.370850,512.582947 1599.389282,512.295166   C1595.033569,512.043579 1593.520874,513.707092 1593.627563,518.015137   C1593.850464,527.006348 1593.692261,536.007080 1593.690552,546.003357  z" id="R-P"/>
<path fill="#CDE0E7" opacity="0" stroke="none" d=" M1836.000000,302.305023   C1921.320435,302.305054 2005.640747,302.305054 2089.961182,302.305054   C2091.294434,302.305054 2092.627441,302.304932 2093.960693,302.305328   C2104.419678,302.308502 2103.929932,301.543671 2103.613281,311.999603   C2103.414551,318.547119 2106.637939,326.851807 2102.079834,331.165161   C2098.040283,334.987823 2089.975830,332.306763 2083.701904,332.311127   C1984.050537,332.380463 1884.399170,332.382263 1784.747803,332.332397   C1771.959351,332.326019 1773.556274,334.070435 1773.761963,321.273956   C1773.860474,315.140625 1770.576294,307.009918 1775.541504,303.373749   C1779.500610,300.474304 1787.049927,302.359985 1793.006592,302.328583   C1807.004028,302.254822 1821.002197,302.304993 1836.000000,302.305023  z" id="S-T"/>
<path fill="#CDDFE6" opacity="0" stroke="none" d=" M1823.992676,600.303955   C1844.630493,600.303955 1864.269165,600.148926 1883.903687,600.362610   C1895.501465,600.488770 1907.090332,601.334656 1918.689087,601.570251   C1922.663818,601.651062 1923.848267,603.250549 1923.737915,606.983276   C1923.541260,613.634155 1923.597534,620.296021 1923.705933,626.950745   C1923.760742,630.314758 1922.408081,631.805176 1918.993408,631.695435   C1897.751099,631.012573 1876.458008,633.096863 1855.247559,630.524292   C1853.932251,630.364807 1852.591064,630.388794 1851.261597,630.379456   C1818.328613,630.147949 1785.395752,629.887146 1752.462524,629.723816   C1744.478149,629.684204 1744.399292,629.833496 1744.386108,637.941162   C1744.346069,662.570435 1744.404907,687.199890 1744.352783,711.829102   C1744.336548,719.545898 1744.232056,719.595886 1736.909302,719.680847   C1730.919312,719.750427 1724.925415,719.581787 1718.937622,719.712097   C1715.462891,719.787720 1714.231445,718.229187 1714.287354,714.912109   C1714.394043,708.590271 1714.301392,702.265259 1714.301392,695.941528   C1714.301392,667.318237 1714.266602,638.694946 1714.325684,610.071777   C1714.349121,598.775452 1712.704102,599.585754 1725.191284,599.650757   C1757.791748,599.820496 1790.398804,599.044617 1823.992676,600.303955  z" id="U-V"/>
<path fill="#CEE0E7" opacity="0" stroke="none" d=" M1553.644897,1022.304199   C1563.626343,1022.670471 1563.676636,1022.670471 1563.677856,1031.644775   C1563.690308,1125.640503 1563.691406,1219.636353 1563.674927,1313.632080   C1563.673340,1322.259033 1563.606689,1322.280640 1555.048218,1322.346313   C1549.715454,1322.387329 1544.366455,1322.097046 1539.053833,1322.426514   C1534.464111,1322.711060 1533.199463,1320.647095 1533.609375,1316.560669   C1533.774902,1314.910767 1533.632935,1313.230347 1533.632935,1311.563721   C1533.632446,1218.901245 1533.618286,1126.238770 1533.648438,1033.576294   C1533.652710,1020.492737 1532.397461,1022.481812 1544.706299,1022.310181   C1547.372192,1022.273010 1550.039307,1022.304504 1553.644897,1022.304199  z" id="P-O"/>
<path fill="#CEE0E7" opacity="0" stroke="none" d=" M1323.682129,1478.651978   C1323.684570,1573.581665 1323.701538,1667.569824 1323.664185,1761.557983   C1323.659546,1773.127930 1325.403198,1772.307251 1313.119141,1772.356812   C1308.119873,1772.376953 1303.114502,1772.202637 1298.123047,1772.400146   C1294.547241,1772.541748 1293.401367,1770.954346 1293.618896,1767.640869   C1293.771484,1765.318237 1293.633789,1762.976807 1293.633789,1760.643799   C1293.632812,1668.322021 1293.632812,1576.000366 1293.632690,1483.678589   C1293.632690,1482.012085 1293.764648,1480.333618 1293.611084,1478.681519   C1293.195068,1474.205322 1294.479614,1471.871582 1299.645020,1472.216797   C1305.949707,1472.638062 1312.307129,1472.457275 1318.634521,1472.277100   C1322.639771,1472.163086 1324.014038,1474.027710 1323.682129,1478.651978  z" id="M-K"/>
<path fill="#CDDFE6" opacity="0" stroke="none" d=" M963.645142,1405.871582   C963.650146,1398.889526 963.733704,1392.889404 963.632690,1386.892456   C963.575256,1383.481445 965.044250,1382.069092 968.424683,1382.288452   C970.747620,1382.439087 973.088562,1382.308594 975.421448,1382.308472   C1057.738892,1382.307129 1140.056274,1382.306396 1222.373779,1382.305908   C1224.373413,1382.305908 1226.380981,1382.421753 1228.370972,1382.284180   C1232.125732,1382.024658 1233.839844,1383.500488 1233.736938,1387.431885   C1233.562378,1394.092651 1233.500488,1400.768433 1233.754028,1407.424072   C1233.914307,1411.628174 1231.852173,1412.594727 1228.281738,1412.383057   C1226.289062,1412.264893 1224.283691,1412.363770 1222.284058,1412.363770   C1139.633301,1412.364258 1056.982666,1412.364624 974.331909,1412.363647   C971.999084,1412.363647 969.664185,1412.284058 967.333801,1412.355591   C963.114075,1412.485229 963.707458,1409.468506 963.645142,1405.871582  z" id="N-M"/>
<path fill="#E0E0E0" opacity="0" stroke="none" d=" M1309.841309,1352.332031   C1334.773315,1352.458252 1350.814331,1372.146729 1353.513672,1389.787720   C1357.064331,1412.992676 1344.862549,1433.917236 1322.889404,1440.560425   C1287.316528,1451.315308 1262.228271,1423.203125 1263.365723,1398.094482   C1264.596069,1370.936523 1281.707764,1352.619385 1309.841309,1352.332031  z" id="M"/>
<path fill="#E0E0E0" opacity="0" stroke="none" d=" M1592.542236,1386.100098   C1598.497192,1415.641479 1582.155640,1433.918335 1565.745972,1439.662842   C1538.580688,1449.172607 1511.176392,1437.276611 1504.602051,1408.950073   C1498.067505,1380.795044 1513.062134,1360.425171 1535.275146,1354.009155   C1561.155640,1346.533691 1584.178589,1359.687012 1592.542236,1386.100098  z" id="O"/>
<path fill="#E0E0E0" opacity="0" stroke="none" d=" M847.268677,1377.915527   C862.367981,1353.105957 887.943542,1345.109741 910.617371,1357.557983   C927.173706,1366.647583 935.966125,1384.669312 933.628784,1404.723999   C931.725830,1421.050903 917.879333,1437.934448 901.082947,1441.330444   C877.773560,1446.043457 856.690552,1439.967651 846.003113,1413.627441   C841.411560,1402.311157 842.213989,1390.166870 847.268677,1377.915527  z" id="N"/>
<path fill="#E0E0E0" opacity="0" stroke="none" d=" M590.980469,214.329300   C583.588562,188.906296 591.920166,171.579529 607.031128,160.406708   C631.630981,142.217880 669.833679,154.761871 677.077698,184.400192   C683.260376,209.696259 674.282166,232.359329 647.316895,240.687225   C626.372559,247.155640 603.681641,241.703171 590.980469,214.329300  z" id="E"/>
<path fill="#E0E0E0" opacity="0" stroke="none" d=" M2167.497559,1355.976807   C2201.006348,1372.479248 2202.436768,1417.307861 2173.437500,1435.725708   C2149.994873,1450.614624 2113.567627,1443.014648 2104.977051,1410.565796   C2095.395020,1374.371948 2123.629395,1347.351562 2157.292480,1352.946777   C2160.472412,1353.475342 2163.964355,1353.605713 2167.497559,1355.976807  z" id="W1"/>
<path fill="#E0E0E0" opacity="0" stroke="none" d=" M1460.030762,161.846893   C1488.336060,141.493500 1526.263306,154.995621 1532.908081,187.601395   C1538.418457,214.640762 1522.635620,234.783310 1503.146851,240.576294   C1467.708496,251.110260 1442.856323,223.820419 1443.317383,199.248856   C1443.602783,184.046478 1448.526733,172.171021 1460.030762,161.846893  z" id="D"/>
<path fill="#E0E0E0" opacity="0" stroke="none" d=" M1342.336060,1878.225342   C1320.875366,1901.771118 1278.616943,1896.550293 1266.559692,1865.206177   C1258.322266,1843.792358 1264.037476,1821.044678 1285.574707,1807.991943   C1301.451904,1798.369751 1328.994629,1799.960083 1344.148926,1818.884644   C1356.256104,1834.003906 1357.801758,1861.488525 1342.336060,1878.225342  z" id="K"/>
<path fill="#E0E0E0" opacity="0" stroke="none" d=" M1587.853760,924.525146   C1601.095459,948.453491 1592.209351,979.320374 1566.334961,989.429626   C1532.604004,1002.608643 1501.648315,977.204529 1503.359741,946.673096   C1504.430054,927.575989 1512.558472,913.967957 1529.234009,906.371155   C1546.117554,898.679443 1562.900024,900.554077 1577.852173,912.474426   C1581.803589,915.624634 1584.610840,919.780640 1587.853760,924.525146  z" id="P"/>
<path fill="#E0E0E0" opacity="0" stroke="none" d=" M1754.099854,759.611877   C1770.486938,771.709961 1776.563354,787.703552 1773.146973,806.489319   C1770.081909,823.342651 1759.770996,835.621521 1743.053345,840.564514   C1708.398315,850.811157 1685.104614,824.956665 1683.270386,801.200562   C1680.374634,763.697754 1720.670898,739.184753 1754.099854,759.611877  z" id="U"/>
<path fill="#E0E0E0" opacity="0" stroke="none" d=" M1348.875122,756.249268   C1372.442139,747.011780 1395.427734,754.121521 1407.147095,773.473450   C1416.164551,788.363770 1416.603638,803.816772 1408.566895,818.948853   C1400.504028,834.130005 1387.804688,842.143311 1369.921143,842.524170   C1350.887329,842.929504 1336.884644,835.145752 1328.283447,818.803528   C1317.611084,798.526306 1322.783325,769.538635 1348.875122,756.249268  z" id="Q"/>
<path fill="#E0E0E0" opacity="0" stroke="none" d=" M626.994019,452.409851   C640.082336,451.715729 651.492493,453.514771 661.552307,461.508362   C676.841370,473.657166 681.094055,489.824829 677.729004,507.855438   C674.544312,524.920227 663.280884,536.890259 646.734863,541.110107   C611.929260,549.987000 588.998840,524.782166 587.989380,498.931122   C587.230286,479.490723 602.214294,455.869751 626.994019,452.409851  z" id="F"/>
<path fill="#E0E0E0" opacity="0" stroke="none" d=" M1668.824219,462.652344   C1686.341675,447.936859 1713.192627,449.903137 1726.540283,461.487671   C1740.184570,473.329590 1745.840332,488.138428 1742.636230,506.016815   C1739.410400,524.015625 1728.996582,536.724609 1711.469238,541.193542   C1675.918213,550.258057 1652.594116,522.806152 1653.297729,498.603394   C1653.716309,484.205688 1658.449341,472.915375 1668.824219,462.652344  z" id="R"/>
<path fill="#E0E0E0" opacity="0" stroke="none" d=" M1729.272583,351.325806   C1712.131226,367.638184 1681.439697,364.763275 1666.802368,350.734589   C1651.112427,335.697144 1650.575195,308.669373 1658.898071,294.631531   C1671.949707,272.618195 1697.543091,269.577728 1714.418335,275.202271   C1743.760132,284.981781 1752.560669,322.520935 1734.955200,344.791321   C1733.315552,346.865540 1731.518555,348.815338 1729.272583,351.325806  z" id="S"/>
<path fill="#E0E0E0" opacity="0" stroke="none" d=" M2188.059082,273.628540   C2223.384766,280.625977 2234.238525,322.238708 2213.628418,346.715454   C2201.516602,361.099823 2185.229980,365.189667 2167.564941,361.277679   C2149.940186,357.374512 2137.550781,346.004456 2134.278564,327.992767   C2127.280273,289.469391 2157.655762,267.918640 2188.059082,273.628540  z" id="T"/>
<path fill="#CDDFE6" opacity="0" stroke="none" d=" M1743.698120,953.649170   C1743.094727,962.199463 1743.094849,962.324951 1736.102905,962.334106   C1700.835571,962.380005 1665.567749,962.264038 1630.301514,962.456116   C1625.217529,962.483765 1623.116699,961.217224 1623.534668,955.840271   C1623.971802,950.218384 1623.910889,944.517212 1623.543335,938.885010   C1623.197754,933.589294 1625.238892,932.127380 1630.402222,932.202576   C1649.362671,932.479065 1668.329712,932.313354 1687.294189,932.312561   C1692.950317,932.312378 1698.606323,932.309143 1704.262451,932.304016   C1714.489624,932.294678 1713.628418,932.799438 1713.623535,923.331055   C1713.616211,909.024475 1713.581177,894.717712 1713.642944,880.411377   C1713.677612,872.405884 1713.754761,872.390320 1721.836914,872.312622   C1725.828979,872.274231 1729.821899,872.311401 1733.814453,872.306152   C1744.284790,872.292480 1743.708252,871.501587 1743.700195,881.819275   C1743.681641,905.441772 1743.696777,929.064270 1743.698120,953.649170  z" id="P-U"/>
<path fill="#CDDFE6" opacity="0" stroke="none" d=" M1375.519287,872.306152   C1382.059204,871.482971 1383.948608,873.798279 1383.814941,879.490234   C1383.471069,894.127075 1383.685181,908.777283 1383.706299,923.422180   C1383.720581,933.363098 1382.898438,932.281311 1392.985474,932.295654   C1417.282593,932.330078 1441.579956,932.270569 1465.876953,932.323181   C1473.539429,932.339783 1473.582397,932.446960 1473.684814,939.901672   C1473.758057,945.226074 1473.314819,950.587158 1473.797607,955.868286   C1474.315308,961.531738 1471.686157,962.447083 1466.827026,962.428223   C1431.213867,962.289734 1395.598999,962.224915 1359.987305,962.490051   C1354.352661,962.531921 1353.507202,960.354370 1353.540649,955.535583   C1353.716064,930.241089 1353.586304,904.944641 1353.649292,879.649109   C1353.667114,872.475220 1353.799927,872.432678 1360.604004,872.319946   C1365.262573,872.242798 1369.923218,872.305847 1375.519287,872.306152  z" id="Q-P"/>
<path fill="#CDDFE6" opacity="0" stroke="none" d=" M618.300781,413.654175   C618.301147,369.697205 618.300903,326.703766 618.302368,283.710297   C618.302429,281.377380 618.365540,279.043335 618.311829,276.711853   C618.247314,273.909882 619.366333,272.324280 622.349243,272.332520   C629.681274,272.352722 637.014099,272.389893 644.345276,272.305389   C647.448242,272.269623 648.430725,273.884796 648.351074,276.656921   C648.312805,277.988647 648.367004,279.322784 648.367004,280.655853   C648.368408,325.315704 648.355286,369.975586 648.380432,414.635437   C648.384888,422.593414 648.760864,422.448181 640.904053,422.375641   C635.905273,422.329498 630.904846,422.427216 625.906616,422.356812   C618.897522,422.258057 618.898132,422.216858 618.300781,413.654175  z" id="E-F"/>
<path fill="#CDDFE6" opacity="0" stroke="none" d=" M1445.985962,1412.367188   C1427.327515,1412.367676 1409.665405,1412.369263 1392.003418,1412.368408   C1383.574341,1412.368042 1383.303711,1413.311646 1383.702393,1404.558350   C1384.029663,1397.371704 1380.467896,1388.207397 1385.418823,1383.545166   C1389.859253,1379.363892 1398.776001,1382.427490 1405.706787,1382.365356   C1425.033569,1382.191895 1444.362915,1382.304321 1463.691162,1382.301880   C1474.787354,1382.300537 1473.663818,1381.653687 1473.696655,1392.741455   C1473.711426,1397.740112 1473.566406,1402.742920 1473.728394,1407.736206   C1473.841675,1411.223755 1472.269043,1412.425049 1468.976196,1412.384277   C1461.645996,1412.293335 1454.313843,1412.363037 1445.985962,1412.367188  z" id="M-O"/>
<path fill="#D2E3EB" opacity="0" stroke="none" d=" M1683.670044,431.826172   C1683.669678,415.174622 1683.828003,399.509308 1683.574463,383.850708   C1683.498535,379.160126 1684.711792,377.238953 1689.677979,377.568512   C1695.650269,377.964874 1701.671997,377.786987 1707.665894,377.621063   C1711.032715,377.527863 1712.399658,378.664581 1712.375610,382.187836   C1712.257568,399.515961 1712.297607,416.845520 1712.360107,434.174255   C1712.370483,437.057098 1711.332642,438.399292 1708.325562,438.356628   C1701.328857,438.257446 1694.328979,438.259491 1687.331787,438.340973   C1683.091919,438.390381 1683.745239,435.411682 1683.670044,431.826172  z" id="S-R"/>
</svg>