<svg version="1.1" id="Layer_1" xmlns="http://www.w3.org/2000/svg" xmlns:xlink="http://www.w3.org/1999/xlink" x="0px" y="0px" height="100%" viewBox="0 0 2940 2340" enable-background="new 0 0 2940 2340" xml:space="preserve">
<path fill="#FEFEFE" class="lim" opacity="0" stroke="none" d="
M1389.671387,2005.999756 
	C1389.671387,1829.760376 1389.671387,1654.520996 1389.671387,1478.341064 
	C1394.128052,1478.341064 1397.704956,1478.340942 1401.281738,1478.340942 
	C1802.265137,1478.341064 2203.248535,1478.341309 2604.231934,1478.341919 
	C2619.663574,1478.341919 2619.666992,1478.343506 2619.667725,1463.039062 
	C2619.669678,1422.040771 2619.668457,1381.042358 2619.668457,1340.044067 
	C2619.668457,1336.459106 2619.668457,1332.874146 2619.668457,1328.817383 
	C2685.760742,1328.817383 2750.966064,1328.817383 2816.915771,1328.817383 
	C2816.915771,1624.251221 2816.915771,1919.675415 2816.915771,2215.713867 
	C2341.544189,2215.713867 1866.112671,2215.713867 1389.671387,2215.713867 
	C1389.671387,2146.093750 1389.671387,2076.546875 1389.671387,2005.999756 
z" id="Maquinas"></path>
<path fill="#66c0f4" class="lim" opacity=".7" stroke="none" d="
M724.000183,1478.341187 
	C892.228088,1478.341187 1059.455933,1478.341187 1227.173828,1478.341187 
	C1227.173828,1724.518311 1227.173828,1969.699341 1227.173828,2215.604004 
	C861.712036,2215.604004 496.285675,2215.604004 130.263367,2215.604004 
	C130.263367,1970.359131 130.263367,1724.899536 130.263367,1478.341187 
	C327.905853,1478.341187 525.453003,1478.341187 724.000183,1478.341187 
z" id="Sistemas_Digitales"></path>
<path fill="#66c0f4" class="lim" opacity="0" stroke="none" d="
M867.667114,746.000183 
	C867.667114,785.989929 867.667114,824.979675 867.667236,863.969360 
	C867.667236,865.968811 867.605408,867.970642 867.680054,869.967346 
	C867.956482,877.357849 868.584229,878.029480 875.621460,878.326538 
	C877.949951,878.424927 880.286255,878.340149 882.618958,878.340149 
	C1023.581726,878.340027 1164.544556,878.339966 1305.507324,878.339966 
	C1309.121826,878.339966 1312.736450,878.339966 1317.008789,878.339966 
	C1317.008789,924.427917 1317.008789,969.858826 1317.008789,1015.810974 
	C921.453369,1015.810974 526.073608,1015.810974 130.180054,1015.810974 
	C130.180054,870.221313 130.180054,724.786804 130.180054,578.845825 
	C375.882782,578.845825 621.283203,578.845825 867.667114,578.845825 
	C867.667114,634.553284 867.667114,689.776672 867.667114,746.000183 
z" id="Ciber_Batiz"></path>
<path fill="#66c0f4" class="lim" opacity="0" stroke="none" d="
M503.210907,1028.356079 
	C505.271729,1029.321533 507.088654,1030.099731 507.382507,1031.262817 
	C507.938599,1033.464111 507.659637,1035.886353 507.659760,1038.216797 
	C507.666718,1177.882812 507.666687,1317.548828 507.667358,1457.214844 
	C507.667389,1459.824219 507.667358,1462.433472 507.667358,1465.681641 
	C381.587799,1465.681641 256.143188,1465.681641 130.181763,1465.681641 
	C130.181763,1320.203003 130.181763,1174.745117 130.181763,1028.342651 
	C254.467987,1028.342651 378.373688,1028.342651 503.210907,1028.356079 
z" id="Prog_Sist"></path>
<path fill="#66c0f4" class="lim" opacity="0" stroke="none" d="
M258.000183,128.336517 
	C361.558868,128.336517 464.117554,128.336517 567.171082,128.336517 
	C567.171082,224.518448 567.171082,319.700592 567.171082,415.607605 
	C421.721191,415.607605 276.293884,415.607605 130.265472,415.607605 
	C130.265472,320.370270 130.265472,224.909393 130.265472,128.336517 
	C172.561157,128.336517 214.780655,128.336517 258.000183,128.336517 
z" id="Usos_Multiples"></path>
<path fill="#66c0f4" class="lim" opacity="0" stroke="none" d="
M633.999817,1316.333374 
	C595.689392,1316.333374 558.379089,1316.333374 520.366943,1316.333374 
	C520.366943,1220.567749 520.366943,1125.096558 520.366943,1028.981201 
	C655.568787,1028.981201 791.020447,1028.981201 927.071167,1028.981201 
	C927.071167,1124.562256 927.071167,1219.999634 927.071167,1316.333374 
	C829.479187,1316.333374 732.239502,1316.333374 633.999817,1316.333374 
z" id="Lab_Apli"></path>
<path fill="#FDFDFD" class="lim" opacity="0" stroke="none" d="
M2674.000000,1316.333984 
	C2615.691650,1316.333984 2558.383545,1316.333984 2500.370605,1316.333984 
	C2500.370605,1220.578125 2500.370605,1125.109131 2500.370605,1028.988403 
	C2605.576416,1028.988403 2711.026123,1028.988403 2817.069336,1028.988403 
	C2817.069336,1124.555908 2817.069336,1219.993042 2817.069336,1316.333984 
	C2769.483643,1316.333984 2722.241943,1316.333984 2674.000000,1316.333984 
z" id="CHC"></path>
<path fill="#66c0f4" class="lim" opacity="0" stroke="none" d="
M1899.663574,166.001099 
	C1899.663574,153.087433 1899.663574,141.173523 1899.663574,128.803391 
	C2105.777832,128.803391 2310.973145,128.803391 2516.164551,128.803391 
	C2518.086426,135.971207 2518.750000,247.191650 2516.921387,265.722534 
	C2311.546387,265.722534 2106.109375,265.722534 1899.663574,265.722534 
	C1899.663574,232.766754 1899.663574,199.883804 1899.663574,166.001099 
z" id="Cubiculos_Mat"></path>
<path fill="#66c0f4" class="lim" opacity="0" stroke="none" d="
M2367.667480,1038.426392 
	C2367.668457,1131.310425 2367.668457,1223.238159 2367.668457,1315.748901 
	C2271.486084,1315.748901 2176.038330,1315.748901 2080.165039,1315.748901 
	C2080.165039,1220.102783 2080.165039,1124.649780 2080.165039,1028.767456 
	C2175.868408,1028.767456 2271.072021,1028.767456 2367.082031,1028.767456 
	C2367.281006,1031.733887 2367.473633,1034.601929 2367.667480,1038.426392 
z" id="Cubiculo_02"></path>
<path fill="#66c0f4" class="lim" opacity="0" stroke="none" d="
M1940.000244,566.326233 
	C1926.355591,566.326233 1913.710815,566.326233 1900.365967,566.326233 
	C1900.365967,500.559814 1900.365967,435.089539 1900.365967,368.975281 
	C2035.590332,368.975281 2171.036377,368.975281 2307.076660,368.975281 
	C2307.076660,434.570007 2307.076660,500.008179 2307.076660,566.326233 
	C2184.805176,566.326233 2062.902588,566.326233 1940.000244,566.326233 
z" id="UDI"></path>
<path fill="#66c0f4" class="lim" opacity="0" stroke="none" d="
M2460.071289,368.334076 
	C2579.374023,368.334198 2697.689697,368.334198 2815.901123,368.334198 
	C2818.211426,375.890930 2819.132812,539.110291 2817.058105,565.630920 
	C2691.682129,565.630920 2566.248291,565.630920 2440.238525,565.630920 
	C2440.238525,500.330170 2440.238525,434.868256 2440.238525,368.333954 
	C2446.605225,368.333954 2452.844482,368.333954 2460.071289,368.334076 
z" id="Orientacion"></path>
<path fill="#66c0f4" class="lim" opacity="0" stroke="none" d="
M1107.669434,504.000183 
	C1107.669434,524.955750 1107.669434,544.911377 1107.669434,565.594788 
	C1021.737854,565.594788 936.305603,565.594788 850.267883,565.594788 
	C850.267883,470.377411 850.267883,374.916595 850.267883,278.896118 
	C935.779480,278.896118 1021.225098,278.896118 1107.669434,278.896118 
	C1107.669434,353.877991 1107.669434,428.439056 1107.669434,504.000183 
z" id="Cubiculos_ingles"></path>
<path fill="#66c0f4" class="lim" opacity="0" stroke="none" d="
M1697.999756,1316.334961 
	C1675.021729,1316.334961 1653.043701,1316.334961 1630.366943,1316.334961 
	C1630.366943,1220.572021 1630.366943,1125.100464 1630.366943,1028.982300 
	C1705.565796,1028.982300 1781.021729,1028.982300 1857.071045,1028.982300 
	C1857.071045,1124.557495 1857.071045,1219.995239 1857.071045,1316.334961 
	C1804.149780,1316.334961 1751.574829,1316.334961 1697.999756,1316.334961 
z" id="Almacen"></path>
<path fill="#66c0f4" class="lim" opacity="0" stroke="none" d="
M1467.669556,1277.998779 
	C1467.669556,1290.956177 1467.669556,1302.913818 1467.669556,1315.599609 
	C1391.742310,1315.599609 1316.309326,1315.599609 1240.268799,1315.599609 
	C1240.268799,1220.383057 1240.268799,1124.922363 1240.268799,1028.898804 
	C1315.771240,1028.898804 1391.217163,1028.898804 1467.669556,1028.898804 
	C1467.669556,1111.880005 1467.669556,1194.439575 1467.669556,1277.998779 
z" id="Bodega_Elec"></path>
<path fill="#66c0f4" class="lim" opacity="0" stroke="none" d="
M2817.662842,198.000153 
	C2817.662842,250.952606 2817.662842,302.905060 2817.662842,355.596863 
	C2721.745361,355.596863 2626.315430,355.596863 2530.274170,355.596863 
	C2530.274170,280.394745 2530.274170,204.931610 2530.274170,128.900162 
	C2625.767578,128.900162 2721.211914,128.900162 2817.662842,128.900162 
	C2817.662842,151.861877 2817.662842,174.431015 2817.662842,198.000153 
z" id="Servicios_Academicos"></path>
<path fill="#66c0f4" class="lim" opacity="0" stroke="none" d="
M219.999863,566.327881 
	C189.688995,566.327881 160.378128,566.327881 130.365448,566.327881 
	C130.365448,520.570557 130.365448,475.096222 130.365448,428.977417 
	C275.581390,428.977417 421.030518,428.977417 567.076233,428.977417 
	C567.076233,474.569000 567.076233,520.011414 567.076233,566.327881 
	C451.476593,566.327881 336.238251,566.327881 219.999863,566.327881 
z" id="Tienda"></path>
<path fill="#66c0f4" class="lim" opacity="0" stroke="none" d="
M1937.999756,1316.335327 
	C1915.021973,1316.335327 1893.044189,1316.335327 1870.367188,1316.335327 
	C1870.367188,1220.574951 1870.367188,1125.105103 1870.367188,1028.985352 
	C1935.561279,1028.985352 2001.014771,1028.985352 2067.070312,1028.985352 
	C2067.070312,1124.563965 2067.070312,1219.998901 2067.070312,1316.335327 
	C2024.152954,1316.335327 1981.576416,1316.335327 1937.999756,1316.335327 
z" id="Cubiculo_01"></path>
<path fill="#FDFDFD" class="lim" opacity="0" stroke="none" d="
M879.904785,580.587524 
	C881.967896,579.213318 883.827820,578.395325 885.689209,578.392151 
	C927.686951,578.320801 969.684875,578.335022 1011.682739,578.354370 
	C1013.289856,578.355103 1014.896912,578.568054 1017.067627,578.722046 
	C1017.067627,674.568665 1017.067627,770.008057 1017.067627,865.889526 
	C971.482483,865.889526 926.259094,865.889526 879.702332,865.889526 
	C879.702332,771.181091 879.702332,676.352173 879.904785,580.587524 
z" id="Bannps_Mujeres"></path>
<path fill="#66c0f4" class="lim" opacity="0" stroke="none" d="
M1089.662231,1261.999756 
	C1089.662231,1183.761353 1089.662231,1106.523071 1089.662231,1028.811768 
	C1135.756592,1028.811768 1180.960938,1028.811768 1227.666626,1028.811768 
	C1227.676758,1124.243408 1227.669067,1219.666870 1227.672119,1315.714478 
	C1181.555298,1315.714478 1136.112061,1315.714478 1089.662231,1315.714478 
	C1089.662231,1298.102539 1089.662231,1280.551147 1089.662231,1261.999756 
z" id="Sala_Juntas"></path>
<path fill="#66c0f4" class="lim" opacity="0" stroke="none" d="
M1077.677246,1146.000244 
	C1077.677246,1202.952637 1077.677246,1258.905029 1077.677246,1315.596313 
	C1031.765015,1315.596313 986.328796,1315.596313 940.275574,1315.596313 
	C940.275574,1220.401611 940.275574,1124.940674 940.275574,1028.906982 
	C985.768127,1028.906982 1031.215454,1028.906982 1077.677246,1028.906982 
	C1077.677246,1067.870850 1077.677246,1106.435547 1077.677246,1146.000244 
z" id="Jefatura"></path>
<path fill="#FDFDFD" class="lim" opacity="0" stroke="none" d="
M2195.928223,578.335571 
	C2203.500244,578.335571 2210.084229,578.335571 2217.149414,578.335571 
	C2217.149414,674.469604 2217.149414,769.647644 2217.149414,864.837585 
	C2209.564453,866.836487 2106.767822,867.618164 2080.278076,865.821350 
	C2080.278076,770.404968 2080.278076,674.944336 2080.278076,578.335571 
	C2118.510742,578.335571 2156.725586,578.335571 2195.928223,578.335571 
z" id="Bannos_Hombres"></path>
<path fill="#66c0f4" class="lim" opacity="0" stroke="none" d="
M699.662109,316.001038 
	C699.662109,303.085938 699.662109,291.170624 699.662109,278.804688 
	C745.779236,278.804688 790.982056,278.804688 836.931763,278.804688 
	C836.931763,374.253662 836.931763,469.676636 836.931763,565.714966 
	C791.543762,565.714966 746.101807,565.714966 699.662109,565.714966 
	C699.662109,482.747803 699.662109,399.874298 699.662109,316.001038 
z" id="Papeleria"></path>
<path fill="#66c0f4" class="lim" opacity="0" stroke="none" d="
M1714.000244,128.333191 
	C1772.227539,128.333191 1829.454834,128.333191 1887.174438,128.333191 
	C1887.174438,174.516190 1887.174438,219.699997 1887.174438,265.612610 
	C1801.729370,265.612610 1716.298096,265.612610 1630.265381,265.612610 
	C1630.265381,220.368393 1630.265381,174.905304 1630.265381,128.333191 
	C1657.889526,128.333191 1685.444824,128.333191 1714.000244,128.333191 
z" id="CAE"></path>
<path class="lim" fill="#FCFCFC" opacity="0" stroke="none" d="
M2471.875488,1316.337891 
	C2440.927246,1316.337891 2410.959473,1316.337891 2380.327148,1316.337891 
	C2380.327148,1220.501953 2380.327148,1125.034058 2380.327148,1028.949463 
	C2415.659424,1028.949463 2451.112793,1028.949463 2487.121582,1028.949463 
	C2487.121582,1124.391724 2487.121582,1219.571655 2487.121582,1316.172363 
	C2482.509033,1316.225830 2477.682617,1316.281860 2471.875488,1316.337891 
z" id="Jefatura_SalaProf"></path>
<path id="Prefectura" class="lim" fill="#66c0f4" opacity="0" stroke="none" d="
M1261.999756,416.334686 
	C1214.357300,416.334686 1167.714844,416.334686 1120.366699,416.334686 
	C1120.366699,370.587555 1120.366699,325.113281 1120.366699,278.985107 
	C1185.559326,278.985107 1251.012573,278.985107 1317.072632,278.985107 
	C1317.072632,324.552887 1317.072632,369.993530 1317.072632,416.334686 
	C1298.829590,416.334686 1280.914673,416.334686 1261.999756,416.334686 
z"></path>
<path id="Control_Asistencia" class="lim" fill="#66c0f4" opacity="0" stroke="none" d="
M1317.677124,442.254974 
	C1317.677246,483.832428 1317.677246,524.439575 1317.677246,565.688293 
	C1251.588257,565.688293 1186.144653,565.688293 1120.179565,565.688293 
	C1120.179565,520.222046 1120.179565,474.761993 1120.179565,428.817535 
	C1185.730835,428.817535 1250.939453,428.817535 1317.505127,428.817535 
	C1317.561768,432.926117 1317.619385,437.105408 1317.677124,442.254974 
z"></path>
<path id="Oficina" class="lim" fill="#66c0f4" opacity="0" stroke="none" d="
M2427.674316,504.000183 
	C2427.674316,524.955566 2427.674316,544.910889 2427.674316,565.598145 
	C2391.747314,565.598145 2356.308838,565.598145 2320.262695,565.598145 
	C2320.262695,500.390198 2320.262695,434.927429 2320.262695,368.896851 
	C2355.773438,368.896851 2391.222900,368.896851 2427.674316,368.896851 
	C2427.674316,413.872314 2427.674316,458.436218 2427.674316,504.000183 
z"></path>
<path id="Cubiculo" class="lim" fill="#66c0f4" opacity="0" stroke="none" d="
M1826.000244,368.329041 
	C1846.902100,368.329071 1866.803955,368.329071 1887.182861,368.329071 
	C1887.182861,404.523315 1887.182861,439.709290 1887.182861,475.620361 
	C1841.725220,475.620361 1796.288208,475.620361 1750.254517,475.620361 
	C1750.254517,440.368958 1750.254517,404.903229 1750.254517,368.329041 
	C1775.220947,368.329041 1800.110596,368.329041 1826.000244,368.329041 
z"></path>
<path fill="#F9F9F9" opacity="0" stroke="none" d="
M1422.000244,182.317215 
	C1439.559570,182.317215 1456.118896,182.317215 1473.173462,182.317215 
	C1473.173462,192.447815 1473.173462,201.633286 1473.173462,210.842499 
	C1466.156494,212.747314 1070.295288,213.413132 1054.147217,211.486618 
	C1054.147217,202.077332 1054.147217,192.626938 1054.147217,182.317215 
	C1176.764771,182.317215 1298.882446,182.317215 1422.000244,182.317215 
z"></path>
<path id="Oficina_2" class="lim" fill="#66c0f4" opacity="0" stroke="none" d="
M1887.679321,502.254578 
	C1887.679321,523.796387 1887.679321,544.367920 1887.679321,565.636597 
	C1841.772339,565.636597 1796.403809,565.636597 1750.344727,565.636597 
	C1750.344727,540.604980 1750.344727,515.177185 1750.344727,489.034546 
	C1795.436768,489.034546 1840.802368,489.034546 1887.507568,489.034546 
	C1887.562256,492.938690 1887.620850,497.111481 1887.679321,502.254578 
z"></path>
<path fill="#F9F9F9" opacity="0" stroke="none" d="
M1540.361328,572.319214 
	C1548.280273,572.318542 1555.242676,572.318542 1562.944336,572.318542 
	C1562.944336,672.142273 1562.944336,771.470154 1562.944336,871.537842 
	C1553.895508,873.296326 1544.398560,871.978699 1534.281860,872.292664 
	C1534.055908,869.492493 1533.674805,866.967346 1533.673950,864.442017 
	C1533.643677,770.239746 1533.648071,676.037415 1533.649780,581.835144 
	C1533.649780,579.838013 1533.647461,577.840332 1533.689819,575.843872 
	C1533.776733,571.742920 1536.812256,572.381104 1540.361328,572.319214 
z"></path>
<path fill="#F9F9F9" opacity="0" stroke="none" d="
M1652.015259,1382.317017 
	C1742.818237,1382.317017 1832.625000,1382.317017 1923.059814,1382.317017 
	C1923.059814,1392.469604 1923.059814,1401.900391 1923.059814,1411.848877 
	C1823.470825,1411.848877 1724.115112,1411.848877 1624.201172,1411.848877 
	C1624.201172,1402.311523 1624.201172,1392.850952 1624.201172,1382.317017 
	C1633.244995,1382.317017 1642.131958,1382.317017 1652.015259,1382.317017 
z"></path>
<path fill="#F9F9F9" opacity="0" stroke="none" d="
M1533.648071,1315.855957 
	C1533.647339,1217.723999 1533.647339,1120.583130 1533.647339,1022.880188 
	C1543.755005,1022.880188 1553.198486,1022.880188 1563.169189,1022.880188 
	C1563.169189,1122.599731 1563.169189,1221.937012 1563.169189,1322.333252 
	C1554.359741,1322.333252 1545.809326,1322.263794 1537.260864,1322.362305 
	C1532.948242,1322.411987 1533.754517,1319.398682 1533.648071,1315.855957 
z"></path>
<path fill="#F9F9F9" opacity="0" stroke="none" d="
M1334.000244,1382.317017 
	C1380.848755,1382.317017 1426.697388,1382.317017 1473.111816,1382.317017 
	C1473.111816,1392.586792 1473.111816,1402.022217 1473.111816,1411.909668 
	C1383.369873,1411.909668 1294.012207,1411.909668 1204.148926,1411.909668 
	C1204.148926,1402.208252 1204.148926,1392.755371 1204.148926,1382.317017 
	C1247.334351,1382.317017 1290.167236,1382.317017 1334.000244,1382.317017 
z"></path>
<path fill="#FBFBFB" opacity="0" stroke="none" d="
M1593.667725,944.465698 
	C1594.548096,965.875671 1585.534546,981.291260 1566.974976,988.993469 
	C1541.704590,999.480774 1513.865479,989.355713 1505.208862,961.278503 
	C1499.822998,943.809509 1503.459961,926.852600 1517.727295,913.815247 
	C1531.584595,901.152649 1548.241455,898.804443 1565.043701,905.117188 
	C1582.082764,911.518860 1592.142944,924.799927 1593.667725,944.465698 
z"></path>
<path fill="#FBFBFB" opacity="0" stroke="none" d="
M969.079712,242.209808 
	C953.933899,238.265961 942.677979,230.222794 937.153748,216.384842 
	C930.142334,198.821838 931.592712,181.761795 944.606628,167.079391 
	C957.369141,152.680618 973.831543,149.163040 991.741821,154.036438 
	C1008.933655,158.714325 1019.769043,171.003784 1023.000610,188.174500 
	C1028.080444,215.166321 1012.966064,234.713318 991.692566,241.019745 
	C984.912048,243.029831 977.221008,241.968597 969.079712,242.209808 
z"></path>
<path fill="#FBFBFB" opacity="0" stroke="none" d="
M588.355835,191.016693 
	C591.166016,176.043823 598.450195,164.951462 611.039673,157.832901 
	C634.614990,144.502579 665.591187,154.366272 675.303223,179.546951 
	C685.331055,205.546371 674.892944,233.858368 645.704712,241.247314 
	C609.635864,250.378098 587.037048,222.261688 588.316040,197.866150 
	C588.420471,195.874420 588.338623,193.872955 588.355835,191.016693 
z"></path>
<path fill="#FBFBFB" opacity="0" stroke="none" d="
M2334.153809,1425.965576 
	C2315.252197,1449.884033 2277.274414,1447.010010 2261.018311,1424.003174 
	C2251.739746,1410.871460 2251.812500,1385.021118 2259.412842,1373.804932 
	C2271.831055,1355.479126 2288.515869,1349.817261 2307.449219,1353.012085 
	C2325.560303,1356.068237 2340.620605,1370.954712 2343.264648,1388.691284 
	C2345.219971,1401.808105 2343.657227,1414.609497 2334.153809,1425.965576 
z"></path>
<path fill="#FBFBFB" opacity="0" stroke="none" d="
M2016.676025,1439.469971 
	C1989.094482,1448.000732 1967.353394,1438.453491 1957.723145,1417.379150 
	C1949.814453,1400.072144 1951.313965,1383.023438 1963.932983,1367.974365 
	C1976.348755,1353.167480 1992.594482,1349.371582 2010.655884,1353.802124 
	C2028.477417,1358.173706 2039.462402,1370.552368 2042.938232,1388.090454 
	C2046.974609,1408.457642 2039.787598,1427.851440 2016.676025,1439.469971 
z"></path>
<path fill="#FBFBFB" opacity="0" stroke="none" d="
M1593.661621,1397.947266 
	C1593.048218,1425.877441 1573.886108,1442.727783 1544.173828,1442.340332 
	C1520.749512,1442.034912 1503.474731,1421.875610 1503.652466,1395.053101 
	C1503.811279,1371.100464 1523.238159,1352.394653 1548.029785,1352.322754 
	C1574.269897,1352.246704 1593.337280,1370.945557 1593.661621,1397.947266 
z"></path>
<path fill="#FBFBFB" opacity="0" stroke="none" d="
M1593.652344,491.015808 
	C1594.675781,504.581085 1592.240601,516.270447 1583.925049,526.380798 
	C1571.565918,541.407715 1555.062500,545.312317 1537.218018,541.592163 
	C1520.803833,538.170227 1508.984985,527.053833 1504.980225,510.789246 
	C1498.370361,483.943329 1510.139648,461.661774 1534.459473,454.315674 
	C1563.712036,445.479675 1586.434692,462.680786 1592.586304,486.340454 
	C1592.918091,487.616333 1593.288574,488.882172 1593.652344,491.015808 
z"></path>
<path fill="#FBFBFB" opacity="0" stroke="none" d="
M1166.981323,1373.313232 
	C1181.415405,1396.483765 1173.111450,1429.926514 1144.935791,1439.925537 
	C1110.160156,1452.266846 1081.855347,1425.205811 1083.335327,1397.164185 
	C1084.365112,1377.650269 1092.635864,1363.838867 1109.723633,1356.184937 
	C1126.265015,1348.775757 1142.860840,1350.526978 1157.399902,1362.262939 
	C1160.945923,1365.125122 1163.504272,1369.211060 1166.981323,1373.313232 
z"></path>
<path fill="#FBFBFB" opacity="0" stroke="none" d="
M825.735352,1365.746094 
	C842.616516,1347.777832 871.957397,1349.343750 886.360535,1361.292969 
	C900.797119,1373.269775 906.463501,1388.622925 903.126953,1406.577148 
	C899.906128,1423.908813 889.117676,1436.276855 872.031128,1440.932739 
	C836.672119,1450.567627 812.671204,1423.261597 813.354919,1399.060059 
	C813.714600,1386.327759 816.934753,1375.634399 825.735352,1365.746094 
z"></path>
<path fill="#FBFBFB" opacity="0" stroke="none" d="
M659.614258,460.090454 
	C676.278259,472.257477 681.103271,488.658691 677.847778,507.245880 
	C675.003662,523.484436 664.796448,535.138672 649.115723,540.179504 
	C615.768921,550.899475 589.519104,527.768799 588.229065,500.433777 
	C587.358398,481.984314 594.671692,467.620483 609.999023,458.490356 
	C626.006531,448.955109 642.909668,449.705750 659.614258,460.090454 
z"></path>
<path fill="#FBFBFB" opacity="0" stroke="none" d="
M2577.831543,1374.538330 
	C2591.351562,1399.139893 2581.746094,1430.137695 2555.414062,1439.770752 
	C2520.967773,1452.372559 2491.608398,1425.892090 2493.350586,1396.676880 
	C2494.488281,1377.595459 2502.621094,1364.048462 2519.250488,1356.399170 
	C2536.153564,1348.624023 2553.001221,1350.467285 2567.759521,1362.578491 
	C2571.536865,1365.678223 2574.237549,1370.090332 2577.831543,1374.538330 
z"></path>
<path fill="#FBFBFB" opacity="0" stroke="none" d="
M588.037415,1442.340698 
	C561.537048,1442.186279 543.848633,1423.515381 543.580078,1397.023804 
	C543.381714,1377.454102 552.705017,1363.770386 569.812134,1356.155762 
	C586.366760,1348.787109 603.009888,1350.397949 617.425354,1362.277222 
	C631.497681,1373.873535 636.476257,1389.446167 633.028320,1406.959595 
	C629.711609,1423.806396 619.185120,1435.391968 602.633240,1440.680786 
	C598.335083,1442.054199 593.526611,1441.830688 588.037415,1442.340698 
z"></path>
<path fill="#FBFBFB" opacity="0" stroke="none" d="
M1591.630615,212.868256 
	C1587.298340,223.417374 1581.112793,231.613358 1571.782715,236.773132 
	C1548.002563,249.923889 1514.383301,242.226868 1505.309937,211.546173 
	C1497.496948,185.127441 1509.738892,162.057938 1534.612915,154.191086 
	C1561.052734,145.828979 1587.713013,161.397339 1592.649170,187.559357 
	C1594.131226,195.414078 1592.227661,203.907578 1591.630615,212.868256 
z"></path>
<path fill="#FBFBFB" opacity="0" stroke="none" d="
M1698.013428,272.578522 
	C1722.191772,273.043457 1737.824463,287.297729 1742.535278,306.279022 
	C1748.450073,330.110352 1736.193115,353.555481 1712.714355,360.598785 
	C1677.331421,371.213043 1652.235107,343.369507 1653.457642,319.070343 
	C1653.953369,309.217102 1655.060791,300.131622 1660.832153,291.807281 
	C1669.692749,279.027466 1682.144531,273.490753 1698.013428,272.578522 
z"></path>
<path fill="#FBFBFB" opacity="0" stroke="none" d="
M1893.664795,316.150330 
	C1892.484009,288.304810 1921.551514,264.599121 1953.809814,275.043976 
	C1974.404907,281.712341 1987.209229,301.971466 1983.306885,326.372345 
	C1979.979736,347.178009 1961.237549,362.174896 1939.383057,362.340759 
	C1919.428101,362.492218 1904.765991,353.716492 1896.715088,335.492371 
	C1894.278320,329.976501 1894.603638,323.240479 1893.664795,316.150330 
z"></path>
<path fill="#FBFBFB" opacity="0" stroke="none" d="
M2173.264160,346.567993 
	C2159.845703,331.924744 2162.003906,303.472870 2171.188232,290.969055 
	C2183.500732,274.206207 2207.613770,269.259735 2224.824951,275.350433 
	C2243.977051,282.127899 2257.360840,302.091888 2253.273193,326.518860 
	C2249.785645,347.359558 2231.109131,362.078094 2209.161865,362.391235 
	C2194.976807,362.593628 2183.244385,357.545898 2173.264160,346.567993 
z"></path>
<path fill="#FBFBFB" opacity="0" stroke="none" d="
M2518.963379,297.491211 
	C2524.690674,310.299438 2524.767822,322.405457 2520.216309,334.944946 
	C2512.316650,356.707550 2488.158203,366.762207 2466.339111,361.036224 
	C2429.723633,351.427063 2423.689209,307.003510 2446.681641,284.782104 
	C2467.222656,264.929901 2507.101318,269.632996 2518.963379,297.491211 
z"></path>
<path fill="#F9F9F9" opacity="0" stroke="none" d="
M732.000549,212.355240 
	C719.037231,212.355240 707.073914,212.355240 694.378174,212.355240 
	C694.378174,202.700714 694.378174,193.237640 694.378174,183.038483 
	C763.397278,183.038483 832.735535,183.038483 902.883301,183.038483 
	C902.883301,192.073090 902.883301,201.494537 902.883301,212.355240 
	C846.438110,212.355240 789.719299,212.355240 732.000549,212.355240 
z"></path>
<path fill="#F9F9F9" opacity="0" stroke="none" d="
M1667.870728,482.314545 
	C1673.442505,482.314545 1678.034546,482.314545 1683.641235,482.314545 
	C1683.641235,466.647705 1683.641235,451.762543 1683.641235,436.877411 
	C1683.641235,422.318542 1683.641235,407.759674 1683.641235,392.765839 
	C1693.794800,392.765839 1702.996826,392.765839 1712.945557,392.765839 
	C1712.945557,432.209473 1712.945557,471.607178 1712.945557,511.680359 
	C1683.681763,511.680359 1654.260620,511.680359 1624.237671,511.680359 
	C1624.237671,502.394226 1624.237671,492.930145 1624.237671,482.314545 
	C1638.475464,482.314545 1652.683228,482.314545 1667.870728,482.314545 
z"></path>
<path fill="#F9F9F9" opacity="0" stroke="none" d="
M643.545227,272.320129 
	C645.651428,272.808228 647.550049,273.045746 647.805481,273.823181 
	C648.406494,275.652191 648.339172,277.738892 648.339905,279.721405 
	C648.358032,325.944397 648.351562,372.167419 648.328735,418.390411 
	C648.328308,419.338684 648.080383,420.286835 647.871460,421.782440 
	C638.346252,421.782440 628.889648,421.782440 618.866211,421.782440 
	C618.866211,372.299744 618.866211,322.928986 618.866211,272.314911 
	C626.862854,272.314911 634.726868,272.314911 643.545227,272.320129 
z"></path>
<path fill="#F9F9F9" opacity="0" stroke="none" d="
M1542.268555,272.311157 
	C1549.522095,272.311371 1555.822998,272.311371 1562.003906,272.311371 
	C1564.289795,280.349701 1565.146362,388.504242 1563.247559,421.546417 
	C1553.900635,421.546417 1544.475220,421.546417 1534.338135,421.546417 
	C1534.338135,372.436523 1534.338135,322.825134 1534.338135,272.310974 
	C1536.834106,272.310974 1539.075073,272.310974 1542.268555,272.311157 
z"></path>
<path fill="#F9F9F9" opacity="0" stroke="none" d="
M2073.641602,1403.927490 
	C2073.641602,1396.375000 2073.641602,1389.802124 2073.641602,1382.786621 
	C2123.896484,1382.786621 2173.255615,1382.786621 2223.154297,1382.786621 
	C2223.154297,1392.380249 2223.154297,1401.555420 2223.154297,1410.783447 
	C2216.374512,1412.776978 2091.345947,1413.476685 2073.641602,1411.465820 
	C2073.641602,1409.354126 2073.641602,1407.130493 2073.641602,1403.927490 
z"></path>
<path fill="#F9F9F9" opacity="0" stroke="none" d="
M663.640991,1401.969727 
	C663.641052,1395.078247 663.641052,1389.169067 663.641052,1382.800781 
	C703.864441,1382.800781 743.227661,1382.800781 783.142456,1382.800781 
	C783.142456,1392.625488 783.142456,1402.051147 783.142456,1411.918579 
	C743.342834,1411.918579 703.965820,1411.918579 663.640991,1411.918579 
	C663.640991,1408.729370 663.640991,1405.840820 663.640991,1401.969727 
z"></path>
<path fill="#F9F9F9" opacity="0" stroke="none" d="
M968.001648,1412.357788 
	C956.135010,1412.357788 945.268188,1412.357788 934.173828,1412.357788 
	C934.173828,1401.993896 934.173828,1392.559204 934.173828,1382.722656 
	C973.820618,1382.722656 1012.939148,1382.722656 1052.878174,1382.722656 
	C1052.878174,1392.042603 1052.878174,1401.461182 1052.878174,1412.357788 
	C1025.147827,1412.357788 997.074646,1412.357788 968.001648,1412.357788 
z"></path>
<path fill="#F9F9F9" opacity="0" stroke="none" d="
M2133.697266,316.123444 
	C2133.697510,321.685822 2133.697510,326.297058 2133.697510,331.631958 
	C2093.837158,331.631958 2054.470215,331.631958 2014.371582,331.631958 
	C2014.371582,322.701447 2014.371582,313.244659 2014.371582,303.043884 
	C2053.405518,303.043884 2092.763428,303.043884 2133.519531,303.043884 
	C2133.575195,306.849670 2133.636230,311.010986 2133.697266,316.123444 
z"></path>
<path fill="#F9F9F9" opacity="0" stroke="none" d="
M2336.000000,302.314545 
	C2358.853760,302.314545 2380.707275,302.314545 2403.121582,302.314545 
	C2403.121582,312.579803 2403.121582,322.002838 2403.121582,331.894196 
	C2363.389893,331.894196 2324.019043,331.894196 2284.144043,331.894196 
	C2284.144043,322.215424 2284.144043,312.771667 2284.144043,302.314545 
	C2301.302734,302.314545 2318.151367,302.314545 2336.000000,302.314545 
z"></path>
<path fill="#F9F9F9" opacity="0" stroke="none" d="
M1800.009766,332.357910 
	C1790.806641,332.357941 1782.602295,332.357941 1774.161865,332.357941 
	C1774.161865,322.002808 1774.161865,312.572937 1774.161865,302.731995 
	C1803.801025,302.731995 1832.925293,302.731995 1862.872559,302.731995 
	C1862.872559,312.025299 1862.872559,321.437012 1862.872559,332.357910 
	C1842.499390,332.357910 1821.754028,332.357910 1800.009766,332.357910 
z"></path>
<path fill="#F9F9F9" opacity="0" stroke="none" d="
M2390.049072,1412.357788 
	C2384.169189,1412.357788 2379.281006,1412.357788 2374.160645,1412.357788 
	C2374.160645,1402.005493 2374.160645,1392.575439 2374.160645,1382.732910 
	C2403.799805,1382.732910 2432.925293,1382.732910 2462.873535,1382.732910 
	C2462.873535,1392.027222 2462.873535,1401.439331 2462.873535,1412.357788 
	C2439.172363,1412.357788 2415.106689,1412.357788 2390.049072,1412.357788 
z"></path>
</svg>