<svg version="1.1" id="Layer_1" xmlns="http://www.w3.org/2000/svg" xmlns:xlink="http://www.w3.org/1999/xlink" x="0px" y="0px" height="100%" viewBox="0 0 1920 1920" enable-background="new 0 0 1920 1920" xml:space="preserve">
<path id="" class="lim" fill="#FEFEFE" opacity="0" stroke="none" d=" M1470.997925,444.000000   C1470.997925,417.502167 1471.084717,391.503723 1470.900757,365.507202   C1470.874390,361.769562 1471.772339,360.897919 1475.505493,360.906738   C1532.500366,361.041351 1589.495850,361.041016 1646.490723,360.907227   C1650.216187,360.898499 1651.114014,361.759644 1651.098022,365.503082   C1650.939331,402.499329 1650.939941,439.496765 1651.097534,476.493011   C1651.113403,480.228455 1650.228027,481.102142 1646.494629,481.093323   C1589.499756,480.958679 1532.504272,480.959015 1475.509399,481.092773   C1471.784180,481.101501 1470.795898,480.252319 1470.897339,476.494690   C1471.184814,465.836639 1470.997925,455.165802 1470.997925,444.000000  z"/>
<path id="" class="lim" fill="#FEFEFE" opacity="0" stroke="none" d=" M906.248291,542.299194   C897.494629,545.014893 897.406982,545.057556 893.417053,536.859619   C882.230591,513.874756 871.120728,490.852722 859.995178,467.838287   C859.581177,466.981842 859.202148,466.076477 859.008301,465.151703   C858.435303,462.418213 854.601807,459.978363 856.640991,457.434296   C858.193054,455.497986 861.786743,455.200012 864.470154,454.168335   C884.943054,446.297272 905.415894,438.426086 925.888062,430.553101   C948.742188,421.764099 971.591919,412.963531 994.450623,404.186157   C1011.629883,397.589600 1028.879639,391.170532 1045.967651,384.346375   C1050.811279,382.412048 1052.383911,384.126862 1054.112305,388.374817   C1057.731323,397.269073 1061.985474,405.904480 1065.960205,414.654541   C1073.321411,430.859344 1080.601074,447.101807 1088.098145,463.243439   C1089.189331,465.592987 1088.848999,466.100098 1086.554810,467.051331   C1060.670532,477.783936 1034.875000,488.730316 1009.004761,499.496948   C980.037659,511.552368 951.015381,523.475098 922.024231,535.472839   C916.846497,537.615601 911.703735,539.842590 906.248291,542.299194  z"/>
<path id="" class="lim" fill="#FEFEFE" opacity="0" stroke="none" d=" M694.998230,1055.000000   C694.998169,1062.997803 694.903809,1070.497559 695.052429,1077.992432   C695.100220,1080.400879 694.386353,1081.054932 691.989807,1081.048096   C663.997986,1080.968628 636.005920,1080.969727 608.014099,1081.049561   C605.625854,1081.056274 604.941284,1080.411499 604.948242,1078.000610   C605.029297,1050.008911 605.028748,1022.016724 604.948853,994.024963   C604.942017,991.617493 605.634094,990.944397 608.021851,990.950867   C636.013611,991.026489 664.005981,991.073059 691.997009,990.913086   C695.678589,990.892090 694.991821,992.961304 694.992798,995.017029   C695.001709,1014.844666 694.998230,1034.672363 694.998230,1055.000000  z"/>
<path id="" class="lim" fill="#FEFEFE" opacity="0" stroke="none" d=" M1727.835938,811.550781   C1730.733521,824.234619 1729.287842,835.472656 1719.797974,844.703247   C1708.110596,856.071411 1683.851685,854.467346 1674.269165,840.105286   C1664.441162,825.375122 1668.722168,805.405762 1680.993774,797.096680   C1695.348877,787.376831 1718.117188,790.023987 1726.572510,809.038696   C1726.896729,809.767761 1727.324951,810.450562 1727.835938,811.550781  z"/>
<path id="" class="lim" fill="#FEFEFE" opacity="0" stroke="none" d=" M596.020996,271.962555   C606.624817,273.522278 614.342468,279.144043 620.938965,286.626099   C630.366760,297.319580 632.388306,310.176971 630.879639,323.654388   C629.597351,335.110107 623.714111,344.673462 614.704712,351.555237   C598.789185,363.712280 581.090637,365.138580 563.650574,355.670380   C549.631775,348.059570 541.759094,335.738800 540.851379,319.065399   C540.049072,304.327789 544.762756,292.181061 555.304993,282.280487   C566.743042,271.538635 580.510559,268.994171 596.020996,271.962555  z"/>
<path id="" fill="#1B7498" opacity="1" stroke="none" d=" M904.631226,1620.312988   C910.576050,1622.001465 916.196899,1623.358887 921.702576,1625.083984   C927.026306,1626.752075 929.010559,1630.606934 927.996887,1636.413330   C927.241943,1640.737671 924.205078,1642.995605 918.850342,1642.987549   C910.593750,1642.975220 903.058777,1639.628906 895.286011,1637.531982   C848.932190,1625.027100 802.637146,1612.304810 756.321045,1599.659912   C713.819580,1588.056519 671.315186,1576.463745 628.816772,1564.849243   C625.343018,1563.899902 621.778137,1563.466431 618.345276,1562.138184   C614.638916,1560.703979 612.088074,1558.439453 609.452515,1555.515869   C605.613281,1551.257080 600.889709,1547.759888 596.367676,1544.158569   C580.866943,1531.813843 565.249390,1519.615845 549.753113,1507.265503   C533.870544,1494.607300 518.100037,1481.808472 502.239899,1469.121948   C486.492920,1456.525757 470.709351,1443.975098 454.915955,1431.437012   C440.676147,1420.132324 426.348419,1408.937866 412.155273,1397.575195   C394.744568,1383.636353 377.452026,1369.550171 360.070526,1355.574707   C352.726257,1349.669678 345.344910,1343.807007 337.867035,1338.072876   C333.073486,1334.397095 331.727631,1330.446045 334.064148,1325.615356   C336.424042,1320.736206 344.630371,1318.920898 348.897430,1322.360840   C371.161591,1340.308716 393.384613,1358.307861 415.687988,1376.206909   C435.518921,1392.121704 455.409698,1407.962280 475.322449,1423.774658   C495.747803,1439.994141 516.283875,1456.074707 536.674683,1472.337280   C554.251587,1486.355713 571.682861,1500.556763 589.196594,1514.654785   C601.154785,1524.280884 613.021606,1534.028809 625.217041,1543.345703   C627.824890,1545.338013 631.626404,1545.880371 634.959412,1546.793579   C677.434448,1558.431763 719.914001,1570.053711 762.413208,1581.603027   C807.305054,1593.802490 852.219788,1605.917603 897.122253,1618.078125   C899.511597,1618.725220 901.879150,1619.452759 904.631226,1620.312988  z"/>
<path id="" fill="#1C7498" opacity="1" stroke="none" d=" M965.035278,1068.005493   C966.489075,1073.491089 967.991394,1078.552490 969.351135,1083.651978   C970.820007,1089.160889 968.269104,1094.697266 963.823425,1095.928223   C958.421265,1097.423828 952.865662,1094.557495 951.121155,1088.990723   C948.305115,1080.004395 945.719177,1070.945312 943.091980,1061.900635   C936.508728,1039.236572 929.970947,1016.559326 923.389343,993.894836   C911.835571,954.107788 900.309326,914.312622 888.683594,874.546509   C878.726135,840.486389 868.573120,806.483398 858.637756,772.416931   C846.620728,731.212769 834.786987,689.955261 822.787537,648.745972   C814.756287,621.164856 806.493286,593.651001 798.507629,566.056824   C795.971863,557.294556 800.138000,552.432800 809.062988,552.972412   C813.316345,553.229614 815.007629,556.159912 816.043518,559.595825   C821.715942,578.409180 827.356812,597.232361 832.902344,616.083435   C838.911682,636.510864 844.807251,656.971741 850.747559,677.419373   C860.924133,712.449341 871.035950,747.498352 881.291321,782.505188   C888.999207,808.816284 896.969666,835.050415 904.679199,861.361023   C916.187439,900.636230 927.533997,939.958923 939.016296,979.241821   C947.629883,1008.709961 956.348877,1038.147217 965.035278,1068.005493  z"/>
<path id="" fill="#1C7498" opacity="1" stroke="none" d=" M903.000000,1312.037842   C827.354492,1312.037720 752.208923,1312.039551 677.063416,1312.034424   C670.047729,1312.033936 667.068542,1309.457764 666.973022,1303.381592   C666.867432,1296.667847 669.834045,1293.963989 677.385803,1293.963867   C820.678833,1293.959717 963.971863,1293.962280 1107.264893,1293.959106   C1135.923462,1293.958496 1164.582397,1294.016968 1193.239990,1293.854736   C1198.026611,1293.827637 1200.793823,1296.140991 1202.438477,1300.031250   C1204.147095,1304.072388 1202.393799,1307.295654 1199.386230,1310.247803   C1197.257690,1312.337158 1194.851929,1312.033081 1192.418823,1312.034180   C1149.764160,1312.053955 1107.109497,1312.040283 1064.454834,1312.038452   C1010.803223,1312.036011 957.151611,1312.037720 903.000000,1312.037842  z"/>
<path id="" fill="#1B7499" opacity="1" stroke="none" d=" M1048.793457,140.024841   C1062.822876,141.210281 1076.419434,141.452637 1089.997559,142.093903   C1104.412354,142.774704 1118.821289,143.536270 1133.240356,144.164124   C1146.650391,144.748062 1160.051758,145.632187 1173.474731,146.147903   C1178.075317,146.324677 1182.676758,147.029007 1187.327393,147.014465   C1192.755127,146.997482 1196.839355,151.086533 1196.964844,156.380249   C1197.067993,160.733307 1192.480713,166.333679 1187.895264,165.831512   C1178.623657,164.816208 1169.313110,165.587692 1160.078125,164.520508   C1159.093384,164.406693 1158.122681,164.091278 1157.139160,164.058731   C1146.018677,163.690964 1134.880981,163.626587 1123.778809,162.962860   C1102.089966,161.666214 1080.388794,160.777496 1058.682373,159.870575   C1045.440186,159.317276 1032.199707,158.504807 1018.951538,157.878250   C997.414246,156.859680 975.885254,155.724655 954.337891,154.861893   C941.092041,154.331512 927.812256,153.775833 914.614746,152.738174   C905.696838,152.036987 896.746826,152.647034 887.828308,151.200699   C877.556274,149.534851 868.001587,153.983795 858.282959,156.473984   C826.632935,164.583633 795.015991,172.822540 763.385254,181.007401   C754.933472,183.194382 746.481934,185.382431 738.022522,187.539520   C730.676331,189.412766 725.914856,187.584625 723.937256,182.186966   C721.967896,176.811737 724.776367,171.376495 730.338257,169.941574   C752.395020,164.251053 774.467285,158.620514 796.517273,152.903870   C819.503174,146.944550 842.766052,141.832199 865.335999,134.571869   C879.272888,130.088623 892.642883,134.264328 906.229309,133.375595   C908.684143,133.214981 911.467041,133.877426 914.108887,133.981308   C931.847534,134.678680 949.607422,135.022217 967.320740,136.120239   C981.066345,136.972275 994.818176,137.450226 1008.563904,138.138290   C1021.812561,138.801468 1035.034058,140.008240 1048.793457,140.024841  z"/>
<path id="" fill="#1C7498" opacity="1" stroke="none" d=" M1591.989746,1165.000122   C1582.901855,1191.446045 1573.978516,1217.531128 1564.994751,1243.595459   C1560.252930,1257.353638 1555.392700,1271.071045 1550.612793,1284.816040   C1548.515259,1290.847900 1543.697144,1293.514526 1537.783813,1291.839111   C1533.155273,1290.527710 1530.673584,1284.901611 1532.573730,1279.047363   C1535.736572,1269.303223 1539.187256,1259.652588 1542.511719,1249.960938   C1552.698364,1220.263672 1562.842896,1190.551880 1573.078979,1160.871826   C1582.938965,1132.282471 1592.904907,1103.729614 1602.801636,1075.152832   C1612.480225,1047.205566 1622.140625,1019.251831 1631.789917,991.294250   C1641.388672,963.483215 1650.930664,935.652649 1660.564331,907.853760   C1664.566528,896.304810 1668.743896,884.816589 1672.837280,873.299255   C1674.215576,869.420898 1678.652588,866.588928 1682.348511,867.243103   C1688.063721,868.254578 1690.909912,871.268127 1691.072876,876.260437   C1691.135010,878.164307 1690.542969,879.873047 1689.954590,881.587463   C1680.299316,909.727295 1670.636597,937.864563 1660.934937,965.988464   C1651.341309,993.798462 1641.696045,1021.590637 1632.084595,1049.394531   C1622.364868,1077.511719 1612.670654,1105.637695 1602.940430,1133.751221   C1599.373413,1144.057129 1595.734741,1154.338257 1591.989746,1165.000122  z"/>
<path id="" fill="#1B7498" opacity="1" stroke="none" d=" M253.340378,1116.603516   C246.978897,1091.922485 240.752380,1067.633423 234.583725,1043.329590   C223.344925,999.049866 212.151642,954.758484 200.912781,910.478699   C198.517792,901.042725 195.994049,891.639526 193.559479,882.213440   C192.315262,877.396118 195.035172,872.235779 199.371201,871.070801   C205.561584,869.407715 210.569305,871.866150 212.013702,877.493896   C216.694382,895.730835 221.279694,913.992310 225.922546,932.238953   C237.060791,976.012878 248.227020,1019.779724 259.351349,1063.557129   C269.308289,1102.740601 279.041901,1141.982178 289.219025,1181.108276   C296.688934,1209.826538 304.252838,1238.517944 311.179474,1267.373413   C312.487946,1272.824341 309.888885,1277.881836 304.921875,1278.873657   C299.838867,1279.888794 294.296143,1277.406982 292.847595,1271.467529   C287.014404,1247.550049 280.893951,1223.701904 274.801422,1199.848145   C267.744263,1172.217407 260.605042,1144.607544 253.340378,1116.603516  z"/>
<path id="" fill="#1B7499" opacity="1" stroke="none" d=" M1229.343262,1272.404053   C1223.557373,1270.809937 1222.031006,1267.182373 1221.898438,1261.797485   C1220.096436,1188.553589 1222.134888,1115.285522 1220.761475,1042.056274   C1219.634521,981.960083 1220.631470,921.879211 1220.003906,861.795227   C1219.932495,854.963623 1222.700684,851.987000 1228.917480,851.991699   C1235.063599,851.996338 1237.786011,854.859497 1237.988403,861.156982   C1239.720459,915.074097 1238.845093,969.007446 1239.026001,1022.933960   C1239.091919,1042.588745 1239.034180,1062.243896 1239.058838,1081.898926   C1239.061157,1083.707153 1238.706299,1085.577515 1239.863037,1087.659180   C1240.886963,1089.904053 1240.996704,1091.887329 1240.996704,1093.895874   C1240.996704,1150.155273 1241.003418,1206.414551 1240.988159,1262.673950   C1240.987915,1263.837402 1241.020142,1265.008179 1240.386230,1266.567749   C1240.142944,1267.002441 1240.025269,1267.465576 1239.981323,1267.700439   C1237.494507,1272.148682 1234.583252,1273.481445 1229.343262,1272.404053  z"/>
<path id="" fill="#1C7498" opacity="1" stroke="none" d=" M1760.039307,869.080017   C1760.039062,1000.008972 1760.039062,1130.450684 1760.037476,1260.892456   C1760.037476,1264.057739 1760.146606,1267.229858 1759.977539,1270.386597   C1759.707520,1275.424072 1756.477783,1278.060669 1750.926147,1278.003906   C1745.343506,1277.946777 1742.279175,1275.293579 1741.971313,1270.216187   C1741.911011,1269.220215 1741.958740,1268.217529 1741.958740,1267.218018   C1741.957275,1133.444458 1741.955566,999.670837 1741.955933,865.897217   C1741.955933,858.007751 1744.411865,855.002441 1750.866577,854.959045   C1756.990234,854.917847 1759.994385,857.898438 1760.056885,864.094788   C1760.072021,865.593933 1760.046387,867.093445 1760.039307,869.080017  z"/>
<path id="" fill="#1C749A" opacity="1" stroke="none" d=" M1761.991699,1694.746338   C1760.177246,1703.447876 1761.230957,1711.785522 1761.055908,1720.072754   C1760.911133,1726.928223 1758.281006,1729.955811 1752.129761,1729.967285   C1746.429565,1729.977905 1742.974854,1726.315430 1742.972046,1720.064941   C1742.949463,1667.914795 1742.035034,1615.744385 1743.184326,1563.619751   C1744.557373,1501.339722 1743.186157,1439.071777 1744.171143,1376.809326   C1744.331177,1366.703735 1744.868408,1356.574219 1745.017212,1346.446899   C1745.102295,1340.655029 1748.157471,1337.952759 1754.265259,1338.001465   C1759.928833,1338.046631 1762.961182,1340.862671 1762.995605,1346.519287   C1763.078857,1360.181152 1763.022339,1373.843872 1763.021973,1387.506226   C1763.021240,1426.160645 1763.828003,1464.835938 1762.837280,1503.464966   C1761.206177,1567.072144 1762.623291,1630.672119 1761.991699,1694.746338  z"/>
<path id="" fill="#1E7398" opacity="1" stroke="none" d=" M1486.000000,834.002563   C1412.029907,834.001892 1338.559692,833.970764 1265.089722,834.075684   C1260.661011,834.082031 1257.531616,832.670166 1256.155273,828.586243   C1254.619019,824.028015 1256.683838,819.373596 1260.480225,816.933228   C1262.047607,815.925720 1263.622803,816.011536 1265.264526,816.011475   C1393.045898,816.004395 1520.827271,816.001404 1648.608643,816.011414   C1655.133301,816.011963 1657.983398,818.738159 1658.030273,824.837402   C1658.079590,831.265503 1655.269775,833.989197 1648.434082,833.990906   C1594.456055,834.004456 1540.478027,834.000854 1486.000000,834.002563  z"/>
<path id="" fill="#1B7497" opacity="1" stroke="none" d=" M1626.737793,759.262207   C1601.064697,733.600159 1576.021240,707.792053 1550.071899,682.929504   C1535.327637,668.802734 1520.957886,654.303711 1506.308350,640.089111   C1485.915649,620.301636 1466.161987,599.855591 1446.131470,579.694946   C1442.620361,576.161011 1439.076294,572.659851 1435.575195,569.116089   C1430.839966,564.323120 1430.572144,558.728271 1434.848145,554.665222   C1439.038208,550.683899 1444.659668,551.143433 1449.373047,555.853943   C1471.591309,578.059021 1493.787842,600.285767 1516.032959,622.463745   C1538.631348,644.994324 1561.269165,667.485413 1583.905396,689.978027   C1612.460449,718.351868 1641.024536,746.716492 1669.606079,775.063599   C1672.283203,777.718567 1674.810425,780.451233 1673.924072,784.577515   C1673.178345,788.049377 1671.800781,790.972656 1667.823730,792.262024   C1663.646484,793.616516 1660.276978,792.733948 1657.368042,789.856506   C1647.192749,779.790833 1637.107422,769.634094 1626.737793,759.262207  z"/>
<path id="" fill="#1C7498" opacity="1" stroke="none" d=" M1553.747314,1720.079468   C1567.320923,1722.431396 1580.453369,1724.762573 1593.611816,1726.937744   C1606.940796,1729.141113 1620.303467,1731.139648 1633.636353,1733.320068   C1648.916138,1735.818604 1664.173706,1738.453003 1679.451294,1740.965332   C1694.071533,1743.369385 1708.712036,1745.649780 1723.328369,1748.076172   C1727.809570,1748.820190 1731.759766,1754.536255 1730.973877,1758.777588   C1730.024292,1763.902344 1724.349609,1767.754761 1719.081421,1766.886475   C1690.966187,1762.252319 1662.840942,1757.679810 1634.735840,1752.985474   C1607.462646,1748.429932 1580.227661,1743.643799 1552.942383,1739.163086   C1529.352051,1735.288940 1505.696899,1731.809814 1482.103638,1727.952759   C1463.103516,1724.846436 1444.152832,1721.437744 1425.181030,1718.159058   C1423.233398,1717.822510 1421.279785,1717.880981 1419.303955,1717.297485   C1413.893066,1715.699707 1411.479614,1712.646973 1411.995117,1707.273315   C1412.443970,1702.593994 1416.564331,1698.619141 1421.541626,1699.091797   C1429.243530,1699.823242 1436.897461,1701.127441 1444.543945,1702.361694   C1461.939087,1705.169556 1479.321655,1708.057251 1496.701294,1710.960083   C1510.021851,1713.185059 1523.321411,1715.538086 1536.648682,1717.722046   C1542.180298,1718.628418 1547.759888,1719.243042 1553.747314,1720.079468  z"/>
<path id="" fill="#1B7499" opacity="1" stroke="none" d=" M1238.018188,452.000000   C1238.017822,466.323547 1238.028076,480.147125 1238.013062,493.970673   C1238.005493,500.912476 1234.623657,504.905487 1228.733032,505.000549   C1222.724487,505.097565 1218.996704,500.885864 1218.989868,493.786926   C1218.962524,465.307098 1219.811646,436.796753 1218.772339,408.354889   C1217.404175,370.923706 1219.162842,333.486206 1217.751709,296.101074   C1216.514404,263.315979 1217.537354,230.553940 1217.010864,197.786636   C1216.900391,190.907257 1219.652466,188.008759 1225.884399,188.007202   C1232.192261,188.005630 1234.738159,190.944153 1235.062378,197.600967   C1236.966064,236.678024 1234.936035,275.801941 1236.253540,314.858551   C1237.454834,350.470917 1236.169556,386.068451 1237.186035,421.650543   C1237.470093,431.595184 1237.999634,441.541260 1238.018188,452.000000  z"/>
<path id="" fill="#1B7499" opacity="1" stroke="none" d=" M1241.012451,1399.998779   C1239.368286,1440.103882 1241.020020,1479.754883 1239.786133,1519.340454   C1238.696045,1554.309692 1239.776733,1589.258667 1238.896851,1624.202148   C1238.734497,1630.648926 1238.001343,1637.097168 1237.914673,1643.579346   C1237.854492,1648.069458 1234.369141,1650.941040 1229.655762,1651.047485   C1224.927002,1651.154297 1220.440918,1647.763306 1220.009277,1643.649292   C1219.853516,1642.165527 1219.970703,1640.652710 1219.971680,1639.153076   C1219.986328,1617.157471 1219.589600,1595.152222 1220.106323,1573.168335   C1221.088257,1531.389038 1220.167725,1489.587646 1221.264404,1447.834961   C1222.082275,1416.699219 1221.403687,1385.587280 1221.978882,1354.470825   C1222.112915,1347.220215 1225.228271,1343.056274 1230.740601,1342.932739   C1238.233643,1342.764771 1240.948853,1345.390991 1240.970215,1353.008179   C1241.013550,1368.505005 1241.001709,1384.002197 1241.012451,1399.998779  z"/>
<path id="" fill="#1B7499" opacity="1" stroke="none" d=" M1768.027588,451.000000   C1768.033447,462.993439 1768.063110,474.486938 1768.036621,485.980286   C1768.020508,492.937805 1764.615356,496.926483 1758.737671,497.009796   C1752.725342,497.094971 1748.995605,492.887207 1748.988037,485.738861   C1748.956055,455.922577 1749.798462,426.078186 1748.779175,396.296844   C1747.440552,357.185638 1749.216675,318.066437 1747.737915,279.002075   C1746.805664,254.370697 1747.457153,229.773651 1747.037720,205.165482   C1746.911499,197.758026 1749.398804,195.108536 1756.047241,195.030426   C1762.034058,194.960083 1765.871582,198.832672 1765.958862,205.417542   C1766.086792,215.076996 1766.012207,224.739166 1766.016602,234.400192   C1766.025513,254.055664 1765.373901,273.737823 1766.173462,293.360992   C1767.787231,332.964020 1766.125610,372.578033 1767.281738,412.156036   C1767.655273,424.939117 1767.630493,437.722809 1768.027588,451.000000  z"/>
<path id="" fill="#1C7498" opacity="1" stroke="none" d=" M290.315735,552.375610   C283.665588,578.374634 277.173676,603.987366 270.675842,629.598633   C262.125275,663.300659 253.578110,697.003662 245.014053,730.702271   C238.675201,755.644958 232.326309,780.585022 225.947678,805.517578   C224.565765,810.919128 219.320526,813.532837 213.335464,811.934814   C209.323166,810.863586 206.479767,805.232056 207.615875,800.756104   C219.063171,755.656860 230.477203,710.549194 241.938614,665.453552   C252.941406,622.162231 263.979889,578.880005 275.027771,535.600220   C276.561768,529.590759 281.522308,527.146057 287.953247,529.090637   C291.992615,530.312073 294.552490,535.732727 293.349579,540.483459   C292.379211,544.315796 291.429962,548.153442 290.315735,552.375610  z"/>
<path id="" fill="#1B7499" opacity="1" stroke="none" d=" M1416.986572,246.000000   C1416.992310,232.501404 1416.978882,219.502777 1417.011597,206.504242   C1417.027954,199.968262 1419.768311,197.018250 1425.733521,196.974136   C1432.189575,196.926392 1434.888550,199.779007 1435.031616,206.462784   C1437.005249,298.735077 1435.603516,391.019073 1436.019653,483.296631   C1436.048828,489.744202 1433.276123,492.966431 1427.624756,493.056000   C1421.931641,493.146210 1417.952515,488.994110 1417.949585,482.815552   C1417.937622,456.985077 1418.669189,431.131317 1417.821045,405.329041   C1416.080688,352.383209 1417.601318,299.439606 1416.986572,246.000000  z"/>
<path id="" fill="#1C7499" opacity="1" stroke="none" d=" M1521.000000,516.990845   C1533.329224,516.990845 1545.158569,517.012756 1556.987793,516.987183   C1612.926392,516.866089 1668.853149,518.693176 1724.795898,518.005615   C1732.864868,517.906433 1737.217407,524.697754 1733.888184,531.913513   C1732.695557,534.498352 1730.829956,536.210144 1727.700562,536.030151   C1726.040161,535.934570 1724.369385,536.021912 1722.703369,536.021851   C1636.899536,536.017456 1551.095581,536.004272 1465.291748,536.048401   C1462.757935,536.049744 1460.344360,535.678528 1457.933594,535.067993   C1452.478027,533.686523 1450.304810,530.281921 1450.984619,524.250183   C1451.511841,519.571960 1454.607056,517.013428 1460.020752,517.004700   C1480.180542,516.972107 1500.340210,516.991150 1521.000000,516.990845  z"/>
<path id="" fill="#1C7498" opacity="1" stroke="none" d=" M254.000000,173.960464   C290.654938,173.958923 326.809906,173.955917 362.964844,173.957367   C368.711365,173.957596 373.085052,177.958694 373.015015,183.128601   C372.946411,188.189865 368.724304,192.020172 363.220581,192.020325   C272.249756,192.022934 181.278915,192.028046 90.308090,192.026047   C82.595589,192.025879 79.680626,189.173950 80.030548,182.050400   C80.300072,176.563446 83.171043,173.939880 89.052933,173.939011   C121.042625,173.934280 153.032318,173.953568 185.022018,173.959641   C207.848007,173.963974 230.674011,173.960510 254.000000,173.960464  z"/>
<path id="" fill="#1B7497" opacity="1" stroke="none" d=" M490.276611,303.303528   C482.901825,312.031525 475.774628,320.500916 468.611237,328.939575   C459.210297,340.014038 449.819763,351.097748 440.350708,362.113831   C433.454224,370.137054 426.381409,378.008789 419.489197,386.035645   C410.557648,396.437622 401.755493,406.950623 392.844696,417.370544   C385.861237,425.536743 378.757935,433.600464 371.778839,441.770325   C362.667114,452.436737 353.644867,463.179504 344.542297,473.853760   C341.532867,477.382782 338.498505,480.901947 335.286163,484.243530   C331.717377,487.955780 326.210266,488.118591 322.391998,484.875275   C318.323181,481.419159 317.499207,477.007660 321.053009,472.558899   C328.181519,463.635254 335.739655,455.054962 343.112976,446.326660   C351.875488,435.953918 360.585632,425.536530 369.402466,415.210175   C376.159119,407.296722 383.101837,399.542114 389.861206,391.630920   C398.758118,381.218018 407.510193,370.681396 416.411926,360.272644   C423.391022,352.112061 430.541077,344.097870 437.545776,335.958893   C445.963745,326.177856 454.317078,316.341156 462.681641,306.514221   C469.637695,298.342041 476.573761,290.152771 483.508545,281.962494   C485.004395,280.195801 486.745483,278.556366 487.872192,276.573425   C490.684296,271.624207 495.286346,272.972260 499.436829,273.098358   C502.969086,273.205719 504.308777,276.134766 505.466370,278.941071   C506.804047,282.183960 506.085449,285.283508 503.960510,287.813873   C499.608063,292.996918 495.006866,297.971069 490.276611,303.303528  z"/>
<path id="" fill="#1C7498" opacity="1" stroke="none" d=" M1560.000000,153.975891   C1611.976074,153.976334 1663.452026,153.976166 1714.928101,153.978149   C1720.762695,153.978378 1725.083984,157.898102 1725.006226,163.105820   C1724.930420,168.185440 1720.738892,172.027893 1715.211304,172.027939   C1628.085449,172.028702 1540.959473,172.025879 1453.833618,172.013657   C1447.078735,172.012711 1444.169312,169.490952 1443.993164,163.609100   C1443.792236,156.901413 1446.675903,153.960678 1453.549316,153.960052   C1488.866211,153.956848 1524.183105,153.969070 1560.000000,153.975891  z"/>
<path id="" fill="#1C7498" opacity="1" stroke="none" d=" M1455.710205,1484.655518   C1443.942871,1510.779175 1432.322510,1536.552246 1420.810669,1562.373535   C1418.084473,1568.488647 1415.866089,1570.224976 1410.120972,1569.986206   C1405.536621,1569.795532 1402.962036,1567.366577 1401.418091,1563.158325   C1400.478149,1560.596191 1401.451660,1558.506958 1402.347900,1556.497192   C1411.447388,1536.093628 1420.671875,1515.745850 1429.861694,1495.382690   C1440.682373,1471.405884 1451.465454,1447.412109 1462.337524,1423.458740   C1469.723267,1407.186646 1477.264038,1390.984863 1484.680420,1374.726562   C1491.136475,1360.573242 1497.463501,1346.360962 1503.955444,1332.224243   C1506.279419,1327.163330 1510.781128,1325.449341 1515.847412,1327.342529   C1520.721436,1329.164062 1523.124512,1333.833984 1521.085083,1338.982666   C1518.043091,1346.662476 1514.495483,1354.143433 1511.119263,1361.689453   C1502.339844,1381.312256 1493.555786,1400.933105 1484.736450,1420.537964   C1478.149658,1435.180054 1471.503906,1449.795898 1464.886841,1464.424438   C1461.887207,1471.055664 1458.893433,1477.689697 1455.710205,1484.655518  z"/>
<path id="" fill="#1A7599" opacity="1" stroke="none" d=" M621.422485,1304.009888   C619.340332,1308.546997 615.768250,1309.062622 611.705322,1309.060059   C531.250366,1309.009033 450.795471,1309.013916 370.340546,1309.009277   C367.175690,1309.009033 364.010254,1309.068726 360.846130,1309.024414   C354.890503,1308.941284 352.051361,1306.038818 352.030640,1300.094727   C352.009491,1294.021484 354.728302,1291.089722 360.633484,1291.014648   C366.629181,1290.938232 372.626495,1290.983154 378.623108,1290.983765   C456.079681,1290.991699 533.536255,1290.998779 610.992798,1291.013306   C620.474243,1291.015137 622.910889,1293.934814 621.422485,1304.009888  z"/>
<path id="" fill="#1B7498" opacity="1" stroke="none" d=" M1214.205566,1677.681152   C1210.462280,1683.633911 1205.434448,1684.665771 1199.312744,1683.697998   C1186.278809,1681.637695 1173.194092,1679.899780 1160.135254,1677.994873   C1147.242676,1676.114502 1134.365601,1674.126953 1121.464966,1672.304321   C1108.555908,1670.480103 1095.622803,1668.827759 1082.706665,1667.052490   C1069.961426,1665.300659 1057.222046,1663.504883 1044.484009,1661.700073   C1028.977295,1659.503052 1013.478821,1657.247803 997.968750,1655.074341   C990.115540,1653.973633 982.226318,1653.119995 974.388184,1651.925903   C968.177612,1650.979614 965.179993,1646.561768 965.972229,1640.097534   C966.570679,1635.214233 969.963074,1632.432983 976.124023,1633.079346   C987.113953,1634.232300 998.047241,1635.937378 1008.994995,1637.477295   C1021.737671,1639.269897 1034.465698,1641.167114 1047.208740,1642.956665   C1062.734985,1645.136719 1078.273071,1647.232300 1093.800781,1649.401733   C1106.870361,1651.227661 1119.929688,1653.125854 1132.998535,1654.957031   C1145.744873,1656.743042 1158.502075,1658.451172 1171.245605,1660.256348   C1182.027954,1661.783936 1192.762695,1663.756470 1203.588501,1664.819824   C1208.506958,1665.302979 1211.701050,1667.106689 1213.930176,1671.657959   C1215.575195,1673.645142 1215.424561,1675.464111 1214.205566,1677.681152  z"/>
<path id="" fill="#1C7499" opacity="1" stroke="none" d=" M1298.943848,1312.022949   C1288.118774,1312.026001 1277.783936,1312.152832 1267.453491,1311.993164   C1259.031006,1311.863037 1255.486938,1308.158569 1256.001953,1300.560669   C1256.294067,1296.250366 1259.303955,1292.899780 1263.699097,1293.026855   C1275.821777,1293.377075 1287.993896,1291.879517 1300.071777,1293.932983   C1300.557617,1294.015747 1301.070068,1293.956543 1301.569580,1293.943237   C1327.371216,1293.254517 1353.143677,1294.856445 1378.929688,1295.236816   C1394.877563,1295.471924 1410.893188,1295.091675 1426.786499,1296.241089   C1440.275146,1297.216675 1453.741699,1296.151245 1467.155762,1297.123779   C1475.950195,1297.761230 1484.719727,1297.863403 1493.508911,1297.979370   C1500.023804,1298.065430 1503.942139,1301.522339 1504.041748,1307.271118   C1504.143799,1313.157715 1500.037476,1316.926880 1493.287354,1317.007324   C1483.652222,1317.121948 1474.088501,1315.734253 1464.419312,1315.952393   C1442.792114,1316.440308 1421.164307,1315.241455 1399.554688,1314.701660   C1385.097900,1314.340454 1370.584717,1315.037231 1356.191528,1313.829346   C1341.379883,1312.586670 1326.594971,1313.494995 1311.811768,1312.958008   C1307.685059,1312.808105 1303.614380,1311.670654 1298.943848,1312.022949  z"/>
<path id="" fill="#1D7497" opacity="1" stroke="none" d=" M1238.021118,614.000000   C1238.010132,673.129395 1238.001221,731.758850 1237.986084,790.388245   C1237.984009,798.492310 1231.160278,802.741455 1224.154785,799.073853   C1220.498535,797.159668 1219.963745,793.985291 1219.967529,790.267273   C1220.019409,738.633423 1220.001709,686.999573 1219.999634,635.365662   C1219.998657,609.548706 1219.995972,583.731750 1219.991211,557.914795   C1219.989868,551.016479 1222.649536,548.012268 1228.796997,547.987244   C1235.364624,547.960510 1237.961426,550.776001 1237.972778,558.035461   C1238.001587,576.523621 1238.006470,595.011841 1238.021118,614.000000  z"/>
<path id="" fill="#1E7398" opacity="1" stroke="none" d=" M1743.998047,736.000000   C1743.998901,678.052063 1743.993408,620.604126 1744.008423,563.156189   C1744.010498,555.338562 1747.806763,551.850037 1755.081665,553.016418   C1758.914429,553.631042 1761.360718,555.865662 1761.915527,559.839783   C1762.052734,560.822327 1761.995483,561.834534 1761.995361,562.833130   C1761.991943,638.098206 1761.990112,713.363342 1761.969116,788.628418   C1761.967529,794.075867 1758.379028,797.949829 1753.412109,798.047302   C1747.937378,798.154724 1744.052612,794.467468 1744.037598,788.952393   C1743.990112,771.468384 1744.006348,753.984131 1743.998047,736.000000  z"/>
<path id="" fill="#1B7499" opacity="1" stroke="none" d=" M251.000000,1311.002563   C195.187149,1311.002686 139.874298,1311.008789 84.561447,1310.995361   C77.294754,1310.993652 73.791092,1306.940430 75.044838,1299.850098   C75.755020,1295.833740 78.189758,1293.369995 82.419800,1292.998901   C82.916069,1292.955444 83.418999,1292.991821 83.918701,1292.983154   C153.511978,1291.761963 223.112152,1292.015625 292.710968,1291.851196   C298.205292,1291.838257 301.020966,1295.610229 301.915710,1299.669678   C302.925751,1304.252319 299.630035,1308.676270 294.840668,1310.037476   C292.425018,1310.724121 290.014709,1311.052979 287.486450,1311.036987   C275.491394,1310.960938 263.495544,1311.002686 251.000000,1311.002563  z"/>
<path id="" fill="#1B7497" opacity="1" stroke="none" d=" M749.258057,469.744507   C759.246582,479.053680 769.030762,488.064850 778.212830,497.701691   C781.471008,501.121277 782.106628,505.000397 779.909546,509.101501   C777.795105,513.048157 774.209167,514.594360 769.838440,513.909363   C766.932068,513.453918 764.884583,511.390472 762.865417,509.416351   C747.420166,494.315582 732.263672,478.903717 716.435730,464.215302   C705.219849,453.806885 695.002136,442.375458 683.544495,432.290253   C672.552185,422.614594 662.992981,411.528656 652.123779,401.804718   C644.432556,394.923859 637.210876,387.605835 629.892090,380.367493   C625.016663,375.545685 624.786499,370.045898 629.108093,365.433197   C632.640747,361.662567 638.852905,362.390930 643.578979,367.026215   C659.467712,382.609650 675.080505,398.492676 691.400452,413.611633   C701.899658,423.338165 711.514099,433.948822 722.146484,443.480835   C731.447021,451.818787 740.071472,460.807434 749.258057,469.744507  z"/>
<path id="" fill="#1B7499" opacity="1" stroke="none" d=" M947.725220,1652.818970   C951.508057,1655.178711 952.958862,1658.038208 953.059570,1662.125244   C954.544678,1722.386597 953.914795,1782.657227 953.979797,1842.924438   C953.987610,1850.167358 950.507935,1854.085571 944.264282,1853.996094   C938.796631,1853.917725 935.008423,1849.349731 935.006653,1842.732788   C934.990723,1782.590942 934.994080,1722.449219 934.961670,1662.307373   C934.959656,1658.574219 935.726746,1655.383057 939.692566,1653.443359   C942.185791,1650.965454 944.747131,1651.306885 947.725220,1652.818970  z"/>
<path id="" fill="#1B7497" opacity="1" stroke="none" d=" M281.359802,485.717590   C286.369507,489.318848 287.532867,494.493774 284.555817,498.806549   C281.515991,503.210327 276.045746,504.349396 271.347046,501.586853   C245.707977,486.512756 220.056595,471.459595 194.425476,456.372009   C171.661591,442.972198 148.909454,429.552368 126.173576,416.105103   C121.202698,413.165039 119.329124,405.771881 122.303375,401.349548   C124.732498,397.737762 131.414963,396.920380 135.952286,399.587250   C159.743027,413.570526 183.591278,427.456482 207.336884,441.515900   C231.959717,456.094696 256.488037,470.833160 281.359802,485.717590  z"/>
<path id="" fill="#1B7497" opacity="1" stroke="none" d=" M1047.259277,1186.738281   C1067.885742,1207.936646 1087.786743,1229.342529 1108.416016,1250.052612   C1112.240356,1253.891968 1115.866577,1258.039429 1119.617188,1262.014526   C1123.718384,1266.361206 1123.985352,1271.281006 1120.339233,1275.273193   C1117.052368,1278.872070 1109.987915,1279.531738 1106.424316,1275.869263   C1094.981201,1264.108765 1083.889282,1252.007446 1072.529907,1240.164307   C1065.734253,1233.079102 1058.596680,1226.322266 1051.780396,1219.256226   C1037.033936,1203.969482 1022.386230,1188.587036 1007.716492,1173.226196   C1001.994263,1167.234375 996.352783,1161.165405 990.616028,1155.187622   C986.366760,1150.759888 985.651733,1145.021606 989.023926,1141.420044   C992.360779,1137.856201 1000.719360,1137.876343 1004.343262,1141.971191   C1010.851501,1149.325073 1017.860962,1156.160645 1024.779541,1163.107422   C1032.366089,1170.724854 1039.614014,1178.679932 1047.259277,1186.738281  z"/>
<path id="" fill="#1B7499" opacity="1" stroke="none" d=" M1650.001953,1300.991943   C1662.985962,1300.985596 1675.510742,1301.598267 1687.942993,1300.790161   C1699.236084,1300.056152 1710.495972,1300.111694 1721.774292,1300.038452   C1727.859253,1299.999023 1732.001709,1303.753784 1732.025635,1309.053345   C1732.052002,1314.897705 1728.184814,1318.749756 1721.950317,1318.973267   C1719.124146,1319.074585 1716.291382,1319.015747 1713.461792,1319.000000   C1684.036255,1318.836182 1654.615845,1319.775635 1625.209473,1320.357910   C1604.442383,1320.769165 1583.678223,1320.551270 1562.917969,1320.982178   C1555.830078,1321.129395 1553.010254,1318.514648 1553.000122,1312.356689   C1552.989258,1305.731079 1555.892090,1303.296509 1562.870972,1302.909790   C1585.125000,1301.676514 1607.400391,1302.366577 1629.652588,1301.796997   C1636.245850,1301.628174 1642.873657,1301.048340 1650.001953,1300.991943  z"/>
<path id="" fill="#1A7599" opacity="1" stroke="none" d=" M1343.000000,535.016968   C1315.536011,535.008789 1288.572144,535.006714 1261.608154,534.987793   C1254.843140,534.983032 1252.008057,532.284241 1251.977539,525.909302   C1251.949463,520.038452 1255.093994,516.971069 1261.336304,516.969421   C1307.108398,516.957275 1352.880493,516.960754 1398.652588,516.987854   C1405.903564,516.992126 1410.020386,522.483521 1407.786743,529.337769   C1406.440674,533.469055 1403.272339,535.049072 1398.925781,535.028687   C1380.450928,534.942017 1361.975342,535.007202 1343.000000,535.016968  z"/>
<path id="" fill="#1B7498" opacity="1" stroke="none" d=" M1274.004150,154.979614   C1288.662842,154.979614 1302.836304,154.578918 1316.978882,155.070953   C1339.756592,155.863419 1362.531616,155.989319 1385.314819,156.013321   C1391.540161,156.019867 1394.095947,159.139923 1393.980347,166.042435   C1393.887939,171.549911 1391.143433,174.018127 1385.047485,174.017853   C1345.733765,174.016098 1306.419922,173.987320 1267.106323,174.043518   C1264.574463,174.047134 1262.172363,173.632080 1259.777100,173.022964   C1254.197510,171.604095 1252.302612,168.537949 1253.003296,162.246292   C1253.530518,157.513489 1256.543091,155.060364 1262.011597,154.994568   C1265.842285,154.948456 1269.673950,154.981766 1274.004150,154.979614  z"/>
<path id="" fill="#1B7497" opacity="1" stroke="none" d=" M611.673584,235.675003   C595.960388,243.219116 580.576599,250.583588 565.172668,257.905701   C559.638489,260.536285 553.922729,259.046692 551.746338,254.510651   C549.102539,249.000519 550.961975,243.864761 556.836853,241.026077   C584.434143,227.691345 612.051331,214.397766 639.674316,201.116409   C644.740540,198.680511 649.844421,196.319626 654.970825,194.012756   C661.251160,191.186584 666.768616,192.938766 669.150330,198.415802   C671.301086,203.361847 668.460815,209.010651 662.784668,211.651169   C650.325989,217.446869 637.934875,223.387695 625.504700,229.244797   C621.018433,231.358734 616.499146,233.402710 611.673584,235.675003  z"/>
<path id="" fill="#1C749A" opacity="1" stroke="none" d=" M659.021912,1179.898193   C657.333130,1194.805176 658.885864,1209.339355 657.770752,1223.726562   C656.867126,1235.385010 657.350098,1246.988647 657.044861,1258.611572   C656.856445,1265.787842 653.024963,1270.165039 646.751770,1270.000488   C641.353210,1269.858887 638.024719,1265.361450 637.956299,1258.403442   C637.779358,1240.441406 638.792664,1222.494873 639.298706,1204.558472   C639.640198,1192.451294 639.220581,1180.304688 640.160461,1168.238892   C640.612000,1162.441284 640.849976,1156.665405 641.040100,1150.867432   C641.180115,1146.597534 645.533691,1142.942871 650.160400,1142.979370   C655.623108,1143.022461 658.898743,1145.780518 658.978455,1150.917603   C659.125732,1160.413696 659.021423,1169.913696 659.021912,1179.898193  z"/>
<path id="" fill="#1B7497" opacity="1" stroke="none" d=" M1315.233154,1703.941895   C1301.824829,1701.596191 1288.856201,1699.278442 1275.876465,1697.023926   C1271.167969,1696.206055 1266.395386,1695.723145 1261.720337,1694.757080   C1255.999390,1693.574951 1252.852783,1688.655640 1254.051758,1683.308105   C1255.148682,1678.416382 1260.225464,1675.147827 1265.519165,1676.079468   C1293.420532,1680.990112 1321.314087,1685.946167 1349.213257,1690.869263   C1353.421631,1691.611938 1357.675415,1692.122559 1361.854492,1692.997192   C1365.803589,1693.823242 1369.163940,1698.336304 1368.885132,1701.993286   C1368.489136,1707.187012 1365.051880,1710.921143 1360.096680,1710.958374   C1352.283325,1711.016968 1344.792358,1708.607422 1337.121216,1707.521362   C1329.947632,1706.505859 1322.817627,1705.182739 1315.233154,1703.941895  z"/>
<path id="" fill="#1B7499" opacity="1" stroke="none" d=" M680.986450,119.000000   C680.991516,104.837196 680.935730,91.173981 681.027405,77.511757   C681.072998,70.708069 684.638245,66.974533 690.703918,66.988365   C697.233521,67.003258 700.007263,69.776871 700.011841,76.443024   C700.026184,97.270340 700.323853,118.105438 699.815186,138.920486   C699.653992,145.516968 699.235107,152.155960 698.947327,158.778122   C698.759521,163.100647 694.821716,165.263702 688.345947,165.034637   C684.081604,164.883774 681.022644,161.844757 681.005127,157.489365   C680.954407,144.826431 680.986755,132.163147 680.986450,119.000000  z"/>
<path id="" fill="#1B7497" opacity="1" stroke="none" d=" M437.269348,212.726837   C434.060669,210.359711 431.131897,208.217789 428.188232,206.096558   C422.812134,202.222504 421.438416,196.794769 424.627136,191.967316   C427.628632,187.423279 433.210907,186.476562 438.669067,190.171936   C446.861115,195.718292 454.840454,201.582397 462.845886,207.399933   C474.444183,215.828323 485.957458,224.373810 497.567963,232.785156   C500.826782,235.146011 502.361572,238.275772 501.969635,242.120285   C501.604523,245.701630 499.255981,248.154694 495.984253,249.438110   C491.659454,251.134613 487.899536,249.459259 484.412537,246.933319   C468.786041,235.613724 453.165344,224.286118 437.269348,212.726837  z"/>
<path id="" fill="#1B7497" opacity="1" stroke="none" d=" M1834.597534,1774.321289   C1838.332031,1775.339111 1841.705322,1776.127686 1845.035767,1777.068115   C1849.454346,1778.315796 1851.580933,1782.202637 1851.005127,1787.738281   C1850.554443,1792.071777 1847.615356,1794.651611 1843.032715,1795.053589   C1835.513672,1795.713013 1828.814209,1792.369995 1821.805054,1790.701416   C1806.573364,1787.074951 1791.466553,1782.922119 1776.316284,1778.955811   C1770.143311,1777.339722 1767.851685,1774.411621 1767.968628,1768.461670   C1768.108643,1761.333618 1773.641113,1758.321411 1782.117065,1760.560913   C1799.469971,1765.146362 1816.848999,1769.632446 1834.597534,1774.321289  z"/>
<path id="" fill="#1D7497" opacity="1" stroke="none" d=" M1789.112305,817.973633   C1809.051025,817.970703 1828.505981,818.006958 1847.960571,817.928528   C1852.075806,817.911926 1855.492920,819.359070 1856.531738,823.269775   C1857.565918,827.163086 1858.106323,831.400757 1854.025757,834.616943   C1852.043823,836.179138 1850.056641,836.037170 1847.944824,836.038818   C1827.326050,836.054871 1806.707153,836.046021 1786.088379,836.042542   C1779.012451,836.041382 1775.998657,833.508850 1776.011230,827.582275   C1776.026123,820.565186 1778.718750,818.007385 1786.134033,817.969482   C1786.965454,817.965271 1787.796875,817.970886 1789.112305,817.973633  z"/>
<path id="" fill="#1D7497" opacity="1" stroke="none" d=" M1825.000000,176.038437   C1811.194580,176.032516 1797.889160,176.055542 1784.583862,176.008606   C1777.776733,175.984589 1774.983276,173.261429 1774.985474,166.859024   C1774.987549,160.850555 1777.940796,157.999985 1784.384766,157.989502   C1805.008179,157.955948 1825.631592,157.955048 1846.255005,157.977371   C1852.399292,157.984024 1854.987671,160.620529 1854.991699,166.684082   C1854.996460,173.475632 1852.721924,175.996521 1846.456055,176.027664   C1839.470825,176.062378 1832.485352,176.037399 1825.000000,176.038437  z"/>
<path id="" fill="#1C7498" opacity="1" stroke="none" d=" M1421.824463,69.519066   C1423.781616,76.137611 1423.597534,82.646156 1423.860718,88.995422   C1424.411011,102.271820 1424.027588,115.586678 1424.040161,128.885727   C1424.046143,135.074631 1421.018188,138.807419 1415.776978,139.024536   C1409.292603,139.293137 1405.225464,135.871765 1405.054443,129.368622   C1404.818604,120.397850 1404.987061,111.416420 1404.984375,102.439560   C1404.981812,93.795189 1405.060181,85.149780 1404.945312,76.506920   C1404.891968,72.496429 1405.167969,68.650963 1409.392212,66.876450   C1413.836060,65.009689 1418.132568,65.285721 1421.824463,69.519066  z"/>
<path id="" fill="#1B7498" opacity="1" stroke="none" d=" M1386.962891,1635.026001   C1386.973877,1631.704956 1386.907959,1628.875732 1387.011719,1626.052856   C1387.208862,1620.692261 1390.315796,1617.967896 1396.105347,1617.954468   C1401.459839,1617.942261 1404.947144,1620.810425 1404.982178,1625.811157   C1405.092651,1641.604492 1405.112671,1657.400024 1404.956665,1673.192627   C1404.904053,1678.520752 1401.500610,1681.110474 1395.610962,1681.015747   C1390.151611,1680.928101 1387.092163,1678.250610 1387.033203,1672.927856   C1386.895508,1660.460083 1386.972534,1647.989990 1386.962891,1635.026001  z"/>
<path id="" fill="#E3E3E3" opacity="1" stroke="none" d=" M299.394714,491.855438   C307.582062,489.530304 314.395508,490.713226 319.208557,497.804321   C322.308655,502.371674 322.043701,507.716583 320.009460,512.255798   C317.898895,516.965271 314.371246,521.238220 308.140350,520.986816   C304.312134,520.832458 300.561707,521.540588 296.956329,518.688049   C288.332794,511.865112 288.068787,498.470123 299.394714,491.855438  z"/>
<path id="" fill="#E3E3E3" opacity="1" stroke="none" d=" M1217.181396,533.653931   C1212.266235,528.727051 1212.985596,522.816223 1214.971802,517.877197   C1217.097412,512.591431 1221.293213,509.022736 1228.189209,508.775970   C1235.406372,508.517731 1239.995239,511.735199 1242.931152,517.283142   C1245.243530,521.653015 1245.134644,527.082886 1242.738892,531.459595   C1237.562622,540.916260 1222.809937,542.248291 1217.181396,533.653931  z"/>
<path id="" fill="#E3E3E3" opacity="1" stroke="none" d=" M524.943176,244.414673   C536.728699,250.505341 537.605530,265.097351 527.074585,272.308411   C522.613159,275.363373 517.080078,275.130890 512.567017,272.950165   C507.975037,270.731354 504.148438,267.230865 503.850494,260.978668   C503.558075,254.842270 505.257355,250.237091 510.001160,246.324677   C514.590454,242.539780 519.735352,244.488922 524.943176,244.414673  z"/>
<path id="" fill="#E3E3E3" opacity="1" stroke="none" d=" M706.308228,176.773193   C710.015076,180.782791 711.647949,189.132401 709.108582,193.380798   C706.134338,198.356735 702.520569,202.584381 695.563721,202.100464   C688.871643,201.634964 681.541809,197.437790 680.108765,192.342514   C678.163818,185.427322 681.607178,176.640106 687.656677,173.080841   C692.444214,170.264084 701.475342,171.950851 706.308228,176.773193  z"/>
<path id="" fill="#E3E3E3" opacity="1" stroke="none" d=" M1396.110352,1577.000244   C1403.211426,1576.999390 1410.580933,1581.667725 1411.916504,1586.730713   C1413.787354,1593.823730 1410.615479,1602.543091 1404.231567,1605.812744   C1399.767334,1608.099121 1394.359863,1608.287964 1390.094727,1605.823730   C1385.716431,1603.294189 1381.714844,1599.846924 1381.903564,1593.488281   C1382.211548,1583.118652 1386.930054,1577.078979 1396.110352,1577.000244  z"/>
<path id="" fill="#E3E3E3" opacity="1" stroke="none" d=" M948.426270,1653.121338   C945.635803,1653.138062 943.204407,1653.083618 940.317139,1653.089966   C934.572632,1651.160645 930.287598,1647.807617 929.118835,1642.186768   C927.647278,1635.109497 929.418884,1628.632690 935.972656,1624.619263   C940.535400,1621.825073 946.014587,1621.808105 950.504150,1624.042969   C955.045227,1626.303467 958.723206,1629.842529 959.172546,1636.065186   C959.788879,1644.600586 955.879333,1649.612915 948.426270,1653.121338  z"/>
<path id="" fill="#E3E3E3" opacity="1" stroke="none" d=" M389.852936,187.605148   C387.510834,179.407349 388.738739,172.601730 395.814697,167.785370   C400.377808,164.679413 405.744690,164.973648 410.261871,166.986725   C414.952820,169.077209 419.265625,172.595612 418.993591,178.843781   C418.827026,182.669510 419.475433,186.373978 416.701019,190.028885   C410.350708,198.394516 396.601990,199.155609 389.852936,187.605148  z"/>
<path id="" fill="#E3E3E3" opacity="1" stroke="none" d=" M1213.906982,1678.435547   C1213.906860,1676.290161 1213.955322,1674.566162 1214.036133,1672.408936   C1218.296997,1666.292114 1222.836426,1661.817017 1231.047119,1662.839966   C1237.694580,1663.668335 1243.987671,1669.369263 1243.994385,1676.232056   C1243.998535,1680.454102 1243.900879,1684.200317 1240.766724,1688.077393   C1234.600098,1695.705566 1221.408691,1694.893799 1215.354248,1685.922729   C1213.886719,1683.748291 1213.910278,1681.312866 1213.906982,1678.435547  z"/>
<path id="" fill="#E3E3E3" opacity="1" stroke="none" d=" M1213.999023,167.010681   C1214.009399,156.917679 1219.644287,151.975693 1230.603394,151.999680   C1239.129761,152.018341 1244.062256,158.376511 1244.001709,169.270584   C1243.958984,176.957016 1237.174316,182.066025 1227.096802,182.000351   C1219.708862,181.952194 1213.956055,175.565186 1213.999023,167.010681  z"/>
<path id="" fill="#E3E3E3" opacity="1" stroke="none" d=" M1765.153687,159.395370   C1767.294434,167.307037 1766.517700,173.975021 1759.631470,178.898956   C1754.858887,182.311523 1749.430298,182.051727 1744.729858,180.001602   C1740.042480,177.957153 1735.723145,174.421494 1736.009033,168.163361   C1736.184448,164.325745 1735.479492,160.577545 1738.300049,156.947617   C1744.886108,148.471222 1758.448486,147.965164 1765.153687,159.395370  z"/>
<path id="" fill="#E3E3E3" opacity="1" stroke="none" d=" M1405.956055,1708.235840   C1401.717529,1716.353638 1395.285278,1719.359985 1386.679810,1718.006714   C1382.355347,1717.326538 1375.976440,1710.416626 1376.030151,1705.995361   C1376.084473,1701.529663 1375.617676,1697.329224 1379.049927,1693.091919   C1385.143433,1685.569458 1398.271118,1685.832275 1404.407471,1694.871826   C1407.177856,1698.952881 1405.520508,1703.502441 1405.956055,1708.235840  z"/>
<path id="" fill="#E3E3E3" opacity="1" stroke="none" d=" M1428.915771,173.388611   C1424.909790,177.412140 1421.707520,181.175415 1415.171387,181.271530   C1403.565063,181.442230 1397.123291,170.802277 1400.335205,160.591537   C1403.467529,150.633743 1416.917603,147.402878 1424.959595,154.308762   C1431.295288,159.749298 1430.778320,166.104034 1428.915771,173.388611  z"/>
<path id="" fill="#E3E3E3" opacity="1" stroke="none" d=" M1763.917847,1767.397217   C1759.990967,1771.201050 1757.059814,1774.999878 1750.720581,1775.285156   C1739.465332,1775.791748 1732.900879,1765.949219 1735.058350,1755.033081   C1735.922363,1750.661377 1743.130981,1745.026367 1747.680420,1745.006470   C1752.223145,1744.986694 1756.413086,1744.759521 1760.379028,1748.554565   C1766.256470,1754.178711 1765.693115,1760.307373 1763.917847,1767.397217  z"/>
<path id="" fill="#E3E3E3" opacity="1" stroke="none" d=" M1415.523071,532.018677   C1411.930664,523.571533 1413.978394,515.177979 1421.085815,510.567047   C1425.571411,507.657013 1431.147705,507.806885 1435.627686,510.100250   C1440.147705,512.414001 1444.498169,515.898315 1444.024048,522.231934   C1443.748657,525.909668 1444.404663,529.483887 1441.778320,532.964600   C1435.722656,540.990723 1422.297852,542.211487 1415.523071,532.018677  z"/>
<path id="" fill="#E3E3E3" opacity="1" stroke="none" d=" M1533.222656,1323.928345   C1526.967041,1323.958374 1521.025391,1325.086304 1516.598389,1319.261963   C1513.550415,1315.251831 1511.196411,1307.398682 1513.725952,1302.942627   C1516.561890,1297.946655 1520.159546,1294.169312 1527.013428,1293.786987   C1539.083374,1293.113770 1545.300659,1303.325928 1542.782349,1314.127563   C1541.737061,1318.611450 1537.520752,1321.376465 1533.222656,1323.928345  z"/>
<path id="" fill="#E3E3E3" opacity="1" stroke="none" d=" M1744.163086,535.661987   C1739.314819,530.725952 1739.969238,524.841553 1741.963623,519.887573   C1744.092773,514.598755 1748.292114,511.222626 1755.142334,510.783936   C1769.280273,509.878479 1774.056885,524.493958 1769.962646,532.985657   C1765.447144,542.350830 1750.594360,544.785706 1744.163086,535.661987  z"/>
<path id="" fill="#E3E3E3" opacity="1" stroke="none" d=" M791.479736,511.993408   C796.204285,512.309998 800.349182,511.458069 804.469177,514.682251   C812.367493,520.863220 812.389954,533.898682 803.547546,539.978027   C798.779846,543.255981 793.361938,543.080750 788.662354,540.981201   C783.986633,538.892273 779.908447,535.352722 779.960693,529.117432   C780.042480,519.348816 783.125854,514.404358 791.479736,511.993408  z"/>
<path id="" fill="#E3E3E3" opacity="1" stroke="none" d=" M1220.426025,810.075867   C1225.561523,807.152222 1234.040894,807.199646 1237.383057,809.919556   C1243.310181,814.743103 1245.970703,822.497314 1243.836182,828.727661   C1241.727783,834.881836 1232.820923,839.165466 1224.575439,837.990723   C1219.526733,837.271423 1214.436768,829.849121 1213.873291,823.918091   C1213.301514,817.900635 1215.825806,813.834106 1220.426025,810.075867  z"/>
<path id="" fill="#E3E3E3" opacity="1" stroke="none" d=" M1764.483154,1297.981323   C1768.030396,1306.427124 1766.253052,1313.858765 1759.294434,1319.081299   C1754.862427,1322.407471 1749.398804,1322.015869 1744.838501,1320.029175   C1740.118652,1317.972900 1735.784058,1314.472656 1736.005615,1308.255493   C1736.142090,1304.429199 1735.484863,1300.679565 1738.238403,1297.029785   C1744.282349,1289.018066 1757.691162,1287.797241 1764.483154,1297.981323  z"/>
<path id="" fill="#E3E3E3" opacity="1" stroke="none" d=" M1762.608154,840.132812   C1754.400269,842.508484 1747.584229,841.262695 1742.767456,834.197815   C1739.660767,829.641235 1739.964722,824.264893 1741.993652,819.726074   C1744.088745,815.038879 1747.560547,810.720459 1753.817017,811.011475   C1757.653687,811.189941 1761.391357,810.493408 1765.030029,813.310608   C1773.688354,820.013977 1773.917114,833.600342 1762.608154,840.132812  z"/>
<path id="" fill="#E3E3E3" opacity="1" stroke="none" d=" M1239.812134,1312.654297   C1234.367188,1320.949219 1220.137085,1320.145874 1214.478516,1310.850464   C1211.732666,1306.339966 1211.738037,1300.764648 1214.129272,1296.295654   C1216.517090,1291.833618 1219.930420,1287.829590 1226.301514,1287.848877   C1231.729614,1287.865356 1236.137085,1288.717651 1239.842529,1293.127441   C1244.069458,1298.157715 1244.471924,1307.143311 1239.812134,1312.654297  z"/>
<path id="" fill="#E3E3E3" opacity="1" stroke="none" d=" M319.235779,1316.005981   C311.831665,1315.593384 306.121094,1309.494751 305.964478,1302.613037   C305.857635,1297.918213 306.033173,1293.687134 310.132935,1290.196411   C314.724518,1286.286743 322.130402,1284.113403 327.189423,1286.836426   C332.517609,1289.704346 336.437439,1293.574341 336.119293,1300.673218   C335.655365,1311.025024 330.698944,1316.019287 319.235779,1316.005981  z"/>
<path id="" fill="#E3E3E3" opacity="1" stroke="none" d=" M630.610474,1286.865356   C639.092651,1278.377563 647.581787,1278.457397 655.382690,1286.845703   C659.673401,1291.459473 659.032593,1297.236938 657.128784,1302.018066   C655.195801,1306.872192 651.392822,1311.037476 644.936401,1311.074829   C639.843262,1311.104248 635.378601,1310.768066 631.681763,1306.383667   C627.319336,1301.209961 626.366577,1292.906128 630.610474,1286.865356  z"/>
<path id="" fill="#E3E3E3" opacity="1" stroke="none" d=" M216.370178,855.883545   C207.886307,859.077637 198.869659,856.436096 195.171738,849.208923   C192.897018,844.763123 192.706390,839.338623 195.185684,835.075745   C197.730484,830.700256 201.170822,826.344727 207.547104,826.970459   C211.214233,827.330261 214.913361,826.403992 218.128586,829.524231   C227.048096,838.180359 226.769608,845.679443 216.370178,855.883545  z"/>
<path id="" fill="#E3E3E3" opacity="1" stroke="none" d=" M968.620483,1134.985107   C959.708191,1130.868530 956.108521,1123.806152 958.027527,1115.041138   C958.947876,1110.837402 966.208801,1104.997681 970.645142,1105.015503   C974.994446,1105.032959 978.945862,1104.889404 983.009827,1108.152222   C990.584290,1114.233398 989.994812,1127.495361 981.035828,1133.486572   C977.231201,1136.030640 973.054199,1134.601685 968.620483,1134.985107  z"/>
<path id="" fill="#E3E3E3" opacity="1" stroke="none" d=" M631.989014,1122.379028   C632.390015,1117.202637 631.303406,1112.598389 635.069519,1108.042480   C641.227844,1100.592651 654.481323,1100.765625 660.356873,1109.939209   C663.281128,1114.504883 663.090942,1119.912231 660.968445,1124.421753   C658.780273,1129.070679 655.173157,1132.672852 648.992859,1133.158936   C640.471313,1133.829224 635.424011,1129.920410 631.989014,1122.379028  z"/>
<path id="" fill="#000715" opacity="1" stroke="none" d=" M1240.526245,1266.898193   C1240.087891,1253.872681 1239.990967,1240.743042 1239.985474,1227.613281   C1239.966187,1181.394409 1239.978516,1135.175537 1240.022583,1088.493042   C1242.076172,1089.758911 1242.007446,1092.098145 1242.007080,1094.451050   C1241.996704,1150.373047 1242.005005,1206.295166 1241.966675,1262.217163   C1241.965576,1263.769043 1242.685181,1265.604492 1240.526245,1266.898193  z"/>
<path id="" fill="#000715" opacity="1" stroke="none" d=" M1229.044922,1272.534668   C1232.915894,1272.132446 1236.694580,1271.697998 1239.618408,1268.075195   C1240.191162,1268.531616 1240.814209,1269.281128 1240.640503,1269.699951   C1239.245728,1273.061035 1235.395874,1272.846558 1232.904907,1274.721680   C1231.602783,1275.701904 1229.752808,1274.819336 1229.044922,1272.534668  z"/>
</svg>