<svg version="1.1" id="Layer_1" xmlns="http://www.w3.org/2000/svg" xmlns:xlink="http://www.w3.org/1999/xlink" x="0px" y="0px" height="100%" viewBox="0 0 2820 2520" enable-background="new 0 0 2820 2520" xml:space="preserve">
<path id="" class="lim" fill="#FEFEFE" opacity="0" stroke="none" d=" M1413.675781,718.000183   C1413.675781,925.995422 1413.691772,1132.990601 1413.639648,1339.985718   C1413.636108,1353.996094 1415.878540,1352.303833 1401.723755,1352.307129   C1229.394531,1352.347046 1057.065186,1352.348267 884.735901,1352.302490   C871.844238,1352.299072 873.694336,1354.176147 873.692932,1341.285034   C873.654968,988.959961 873.655457,636.634827 873.687622,284.309753   C873.688965,270.097351 872.008789,272.361511 885.972107,272.357025   C1057.634766,272.301849 1229.297485,272.321106 1400.960083,272.321075   C1401.960083,272.321075 1402.959961,272.320129 1403.959961,272.321442   C1414.487061,272.335205 1413.673706,271.522705 1413.673950,282.010284   C1413.676514,427.006897 1413.675781,572.003479 1413.675781,718.000183  z"/>
<path id="" class="lim" fill="#FDFDFD" opacity="0" stroke="none" d=" M1731.438232,1372.630127   C1716.267456,1332.088135 1701.669189,1292.161987 1686.281616,1252.542480   C1683.158813,1244.501587 1684.986694,1238.881592 1689.083374,1232.372803   C1715.475952,1190.440918 1741.672241,1148.385498 1767.910400,1106.356567   C1810.873657,1037.537231 1853.912231,968.764465 1896.625854,899.790344   C1900.792603,893.061890 1905.568359,890.601379 1913.314941,889.831604   C1955.492188,885.640564 1997.606812,880.815125 2039.732910,876.117676   C2074.270508,872.266479 2108.793457,868.286438 2143.325439,864.387207   C2143.966797,864.314697 2144.640869,864.534851 2145.295410,864.620361   C2146.227783,866.647705 2144.739014,867.353821 2143.480225,868.475891   C2113.962891,894.787720 2084.625732,921.303772 2054.935059,947.418152   C2047.058960,954.345703 2043.468750,963.550903 2039.131470,972.405823   C2025.974243,999.267578 2013.113037,1026.274170 2000.109985,1053.211548   C1994.329346,1065.186768 1988.506958,1077.142090 1982.653320,1089.081909   C1981.324585,1091.791992 1980.513428,1094.491333 1980.287109,1097.595581   C1978.432739,1123.048706 1976.351562,1148.484985 1974.385498,1173.930176   C1974.206299,1176.249756 1974.347412,1178.594238 1974.347168,1180.927246   C1974.346069,1202.257446 1974.976562,1223.611206 1974.179565,1244.911621   C1973.277466,1269.019287 1976.673218,1292.595337 1980.544800,1316.196777   C1983.064331,1331.556030 1986.150024,1346.844849 1988.018677,1362.281860   C1989.710205,1376.255859 1996.932861,1387.899536 2002.455566,1400.195679   C2021.371460,1442.310425 2040.970703,1484.118042 2059.983154,1526.190308   C2062.245117,1531.195801 2065.302002,1534.182739 2070.101562,1536.283691   C2100.829834,1549.733765 2131.466064,1563.393799 2162.215820,1576.794312   C2169.878906,1580.133667 2178.357178,1580.288330 2186.491455,1581.630493   C2227.349609,1588.372803 2268.243896,1594.894653 2309.132812,1601.449829   C2312.395264,1601.972900 2315.672607,1602.224365 2319.024170,1601.699097   C2360.252930,1595.238403 2401.489014,1588.825562 2442.730469,1582.446655   C2453.538574,1580.774902 2464.347900,1579.067505 2475.202148,1577.754395   C2480.921143,1577.062500 2486.115967,1574.921997 2491.361572,1572.960449   C2512.506592,1565.053711 2533.564941,1556.915039 2554.668457,1548.897217   C2556.501709,1548.200684 2558.432861,1547.760864 2561.632324,1546.812378   C2561.632324,1550.727905 2561.949951,1553.905640 2561.580322,1557.001099   C2559.168701,1577.209351 2560.644775,1597.526733 2559.730469,1617.778320   C2558.395264,1647.346313 2558.511230,1676.973145 2557.307617,1706.525146   C2556.536621,1725.455322 2556.948730,1744.401367 2555.765625,1763.314697   C2555.192627,1772.472534 2555.675293,1772.622070 2546.565674,1775.713989   C2520.769531,1784.469238 2494.916016,1793.056152 2469.121094,1801.815063   C2393.946533,1827.341064 2318.777100,1852.883911 2243.628906,1878.487549   C2185.458252,1898.306641 2127.312500,1918.199341 2069.174316,1938.113037   C2034.924805,1949.844116 2000.718018,1961.699585 1966.477783,1973.457397   C1956.143677,1977.006226 1956.129272,1976.939087 1952.518921,1967.232178   C1924.966431,1893.154785 1897.408325,1819.079468 1869.856323,1745.001709   C1830.383667,1638.873413 1790.910889,1532.745239 1751.447998,1426.613281   C1744.850464,1408.869751 1738.303101,1391.107788 1731.438232,1372.630127  z"/>
<path id="" class="lim" fill="#FDFDFD" opacity="0" stroke="none" d=" M1863.674561,726.000183   C1863.674438,781.663635 1863.674561,836.327087 1863.673950,890.990479   C1863.673950,893.323669 1863.580322,895.660767 1863.685303,897.989075   C1863.813599,900.831970 1862.733154,902.389221 1859.724365,902.322632   C1857.725586,902.278320 1855.724976,902.330566 1853.725098,902.330566   C1730.399048,902.331177 1607.073120,902.330750 1483.747070,902.330139   C1481.747192,902.330078 1479.741821,902.230347 1477.748779,902.345337   C1474.807983,902.515137 1473.492554,901.281250 1473.647217,898.298279   C1473.767944,895.971558 1473.660889,893.633179 1473.660889,891.299988   C1473.660278,798.638855 1473.647461,705.977661 1473.675171,613.316528   C1473.679077,600.386047 1472.525391,602.366333 1484.977295,602.361633   C1607.303345,602.315369 1729.629395,602.333740 1851.955444,602.333740   C1852.622070,602.333740 1853.288696,602.332581 1853.955322,602.334045   C1864.453491,602.357727 1863.670654,601.457703 1863.672119,612.007141   C1863.677368,649.671448 1863.674561,687.335815 1863.674561,726.000183  z"/>
<path id="" fill="#187297" opacity="0" stroke="none" d=" M1148.000000,248.245422   C1307.323730,248.245438 1465.647339,248.241791 1623.971069,248.267044   C1627.620361,248.267624 1631.375122,248.114304 1634.892822,248.887619   C1639.552246,249.911942 1642.025146,253.987366 1641.696167,258.627197   C1641.365356,263.295380 1638.573853,265.817383 1632.992188,266.260132   C1630.672852,266.444092 1628.328369,266.319244 1625.995239,266.319305   C1374.677246,266.324463 1123.359131,266.328369 872.041138,266.329193   C869.374756,266.329224 866.695862,266.445557 864.044556,266.234131   C857.752869,265.732483 855.716125,263.501740 855.749451,257.476868   C855.781067,251.763092 858.234436,248.931931 864.022705,248.293503   C866.327942,248.039230 868.684082,248.245453 871.017090,248.245453   C963.011414,248.245148 1055.005737,248.245224 1148.000000,248.245422  z"/>
<path id="" fill="#1A7296" opacity="0" stroke="none" d=" M2595.102051,870.845154   C2598.624512,872.814209 2600.204834,875.150879 2600.276611,878.478271   C2600.441895,886.122498 2601.914795,893.638062 2601.903076,901.347534   C2601.843994,940.340210 2601.239746,979.364258 2602.559326,1018.318604   C2604.172363,1065.935425 2603.179688,1113.570068 2604.609375,1161.150757   C2605.979980,1206.772461 2605.216309,1252.404175 2606.577393,1297.989624   C2607.989014,1345.273926 2607.632324,1392.554810 2608.575928,1439.823364   C2608.887695,1455.430786 2609.703369,1471.061279 2609.773438,1486.697144   C2609.783936,1489.030151 2609.908936,1491.383423 2609.657715,1493.692261   C2609.122559,1498.611328 2606.311279,1501.531616 2601.371826,1502.211792   C2596.084717,1502.939819 2592.478271,1500.682129 2590.978516,1495.129028   C2590.213867,1492.298096 2590.231934,1489.206421 2590.214111,1486.230713   C2589.990723,1448.904785 2590.698486,1411.548584 2589.427734,1374.259644   C2587.793701,1326.310913 2588.950684,1278.336182 2587.380371,1230.431519   C2585.884521,1184.805298 2587.070312,1139.170898 2585.476074,1093.591431   C2583.786865,1045.306641 2584.789551,997.005371 2583.319092,948.756470   C2582.649902,926.790222 2582.688965,904.842041 2582.296875,882.888977   C2582.113525,872.629883 2583.864258,871.085693 2595.102051,870.845154  z"/>
<path id="" fill="#1A7195" opacity="0" stroke="none" d=" M2115.410645,926.158081   C2117.029541,934.940613 2112.730225,942.075623 2107.841553,949.362671   C2086.152344,981.692566 2064.840820,1014.275696 2043.253296,1046.674316   C2040.226807,1051.216187 2038.444214,1055.816772 2037.642212,1061.303589   C2031.211914,1105.303711 2024.451782,1149.255615 2017.769165,1193.218750   C2017.520874,1194.852661 2017.168335,1196.496948 2016.631470,1198.056152   C2014.712280,1203.630371 2010.863525,1206.382446 2006.426880,1205.486938   C2001.571289,1204.507080 1997.930786,1199.882080 1998.333618,1194.437622   C1998.724487,1189.154419 1999.594849,1183.900024 2000.394409,1178.654419   C2006.794800,1136.661499 2013.332275,1094.688965 2019.519287,1052.664795   C2020.280762,1047.493286 2022.053345,1043.177002 2024.861328,1038.966431   C2048.309082,1003.805969 2071.690186,968.600952 2095.108154,933.420471   C2101.813721,923.346680 2103.276123,922.858826 2115.410645,926.158081  z"/>
<path id="" fill="#1A7195" opacity="0" stroke="none" d=" M2217.175293,1550.775879   C2245.021729,1554.544312 2272.019043,1558.012573 2299.002686,1561.582886   C2313.401855,1563.488159 2327.543213,1560.897583 2341.686035,1559.076782   C2348.317139,1558.223145 2354.915527,1557.716187 2361.552246,1557.746948   C2368.307373,1557.778198 2371.706787,1560.557739 2372.133789,1565.732422   C2372.566162,1570.971558 2369.656494,1574.791504 2363.220703,1575.758545   C2352.070557,1577.434082 2340.684570,1577.786377 2329.659424,1579.997925   C2310.513672,1583.838501 2291.963379,1579.277344 2273.259277,1577.200806   C2248.853760,1574.491577 2224.528809,1571.062012 2200.168701,1567.945068   C2190.622314,1566.723511 2181.073975,1565.516113 2171.528809,1564.284912   C2169.548340,1564.029541 2167.671631,1563.571167 2165.885010,1562.502075   C2145.586182,1550.355347 2123.829590,1541.027222 2102.938721,1530.022217   C2096.464111,1526.611450 2090.055176,1523.076050 2083.571045,1519.683838   C2079.689209,1517.653076 2077.478271,1514.829102 2077.688965,1510.183838   C2077.962646,1504.145386 2080.102783,1502.004883 2086.304932,1501.726929   C2090.180420,1501.553223 2093.397705,1503.134033 2096.677979,1504.804443   C2120.096436,1516.730225 2143.552490,1528.582642 2166.944336,1540.559570   C2172.894531,1543.606201 2178.775146,1546.195312 2185.686035,1546.714966   C2195.934814,1547.485229 2206.112305,1549.203491 2217.175293,1550.775879  z"/>
<path id="" fill="#197195" opacity="0" stroke="none" d=" M1860.159058,270.307983   C1818.639771,272.385010 1778.052124,271.836121 1737.489624,272.614105   C1726.253174,272.829620 1714.957153,273.971649 1703.679321,273.679138   C1695.927856,273.478088 1692.750732,269.216980 1693.781250,262.004456   C1694.383179,257.791443 1696.935913,255.477768 1700.765991,254.533112   C1702.663940,254.065018 1704.735107,254.242706 1706.728760,254.227066   C1731.362305,254.033936 1756.016479,254.429398 1780.625244,253.552170   C1822.525391,252.058563 1864.445190,252.396606 1906.334351,251.333755   C1921.930298,250.938034 1937.546509,250.523712 1953.156494,250.249908   C1955.455933,250.209579 1957.926392,250.156250 1960.029297,250.911819   C1963.425049,252.131882 1965.107422,255.203400 1965.600098,258.625946   C1966.189941,262.725098 1964.005127,265.659332 1960.633057,267.658691   C1957.063232,269.775421 1953.058472,269.826019 1949.021362,269.841919   C1919.725830,269.957184 1890.430786,270.143738 1860.159058,270.307983  z"/>
<path id="" fill="#197093" opacity="0" stroke="none" d=" M2473.815430,1204.000000   C2473.812500,1225.325806 2473.903076,1245.652100 2473.759277,1265.976929   C2473.705566,1273.560913 2471.102539,1276.218140 2464.674072,1276.298828   C2458.537354,1276.375854 2456.135254,1274.396362 2455.795166,1268.177979   C2455.485840,1262.529541 2455.687500,1256.852539 2455.684326,1251.188110   C2455.675781,1236.193726 2456.345215,1221.164062 2455.557861,1206.211060   C2452.665283,1151.287842 2455.062988,1096.338013 2454.211914,1041.409302   C2454.160400,1038.082153 2453.980469,1034.697632 2454.481689,1031.435181   C2455.226562,1026.583008 2458.788818,1024.044067 2463.721680,1024.205444   C2468.559326,1024.363647 2472.120117,1027.141602 2472.084717,1032.208496   C2472.000732,1044.203247 2473.688477,1056.102417 2473.739014,1068.050659   C2473.929688,1113.033081 2473.815674,1158.016724 2473.815430,1204.000000  z"/>
<path id="" fill="#1A7194" opacity="0" stroke="none" d=" M2396.751465,1542.601318   C2395.946289,1536.998291 2396.605469,1532.197266 2398.031494,1527.285645   C2416.494385,1463.698242 2434.791748,1400.062744 2453.142578,1336.442749   C2454.157227,1332.924927 2454.997559,1329.320190 2456.409424,1325.962036   C2458.354980,1321.333374 2462.320557,1319.442139 2466.909668,1320.390381   C2471.573486,1321.354004 2474.091064,1324.491821 2474.232422,1329.708496   C2474.314453,1332.736694 2473.447754,1335.594482 2472.609619,1338.497681   C2453.695068,1404.028198 2434.797119,1469.563721 2416.072754,1535.148804   C2414.593018,1540.331787 2412.785889,1544.544556 2406.354248,1545.994141   C2402.105469,1547.088989 2399.572754,1545.219971 2396.751465,1542.601318  z"/>
<path id="" fill="#1A7197" opacity="0" stroke="none" d=" M1651.689209,460.000000   C1651.692017,408.003021 1651.694580,357.006073 1651.700317,306.009094   C1651.700684,303.343079 1651.541260,300.659485 1651.787842,298.014984   C1652.219238,293.387390 1655.015503,290.846222 1659.552368,290.339569   C1664.123291,289.829071 1668.286377,292.562561 1669.362671,297.014557   C1669.900146,299.237518 1669.784058,301.644073 1669.784912,303.967621   C1669.813721,379.296417 1669.831299,454.625183 1669.815308,529.953979   C1669.813477,538.742920 1667.736328,541.680298 1661.540649,542.238159   C1655.163818,542.812378 1652.275513,540.437073 1651.751465,533.993164   C1651.562866,531.674500 1651.692505,529.329224 1651.692261,526.996094   C1651.689331,504.997406 1651.689819,482.998688 1651.689209,460.000000  z"/>
<path id="" fill="#1A7195" opacity="0" stroke="none" d=" M2022.414795,1293.373291   C2024.294678,1308.087646 2026.139404,1321.902466 2027.905029,1335.727417   C2029.418823,1347.582031 2030.712402,1359.466797 2032.390259,1371.297363   C2032.849121,1374.532227 2034.209839,1377.669922 2035.380493,1380.767822   C2043.494263,1402.241699 2051.692871,1423.683594 2059.788086,1445.164551   C2060.834717,1447.942139 2061.759521,1450.839844 2062.178711,1453.762451   C2062.833984,1458.331177 2060.435547,1461.547852 2056.343750,1463.148315   C2052.213623,1464.763794 2048.354248,1463.738525 2045.651367,1460.136108   C2044.286621,1458.317139 2043.390259,1456.089233 2042.553833,1453.940308   C2033.623779,1431.002441 2024.889404,1407.986938 2015.749634,1385.133423   C2013.686523,1379.975098 2013.798096,1374.707642 2013.118408,1369.484497   C2008.534424,1334.258911 2004.118408,1299.011475 1999.667480,1263.768677   C1999.419312,1261.803589 1998.990479,1259.768433 1999.256348,1257.850586   C1999.837158,1253.661255 2001.409790,1250.223267 2006.485229,1249.731812   C2012.128906,1249.185181 2016.069092,1251.029297 2017.538574,1255.960815   C2018.574829,1259.437988 2019.052612,1263.110352 2019.492554,1266.730591   C2020.534424,1275.302002 2021.405273,1283.894165 2022.414795,1293.373291  z"/>
<path id="" fill="#1A7195" opacity="0" stroke="none" d=" M2338.624512,832.327515   C2343.645752,835.246948 2345.163574,839.088745 2343.920654,843.762268   C2342.596436,848.742249 2338.502441,849.801514 2333.941650,850.466492   C2312.942383,853.528015 2291.977783,856.824585 2270.988037,859.953186   C2255.898682,862.202148 2240.586182,863.426453 2225.760986,866.808289   C2215.866699,869.065308 2206.619629,874.229370 2197.144775,878.238037   C2183.378174,884.062317 2169.647217,889.972534 2155.947266,895.951416   C2152.817139,897.317444 2149.713135,898.444336 2146.329834,897.439453   C2139.840820,895.511902 2137.774414,887.137207 2142.490967,882.074280   C2144.582275,879.829407 2147.328613,878.575806 2150.078857,877.389832   C2172.341309,867.789978 2194.616211,858.217712 2216.881592,848.624634   C2219.631592,847.439758 2222.329834,846.206177 2225.437988,846.197815   C2244.802246,846.145935 2263.525879,840.991760 2282.642578,838.969116   C2301.083984,837.017883 2319.132080,831.955872 2338.624512,832.327515  z"/>
<path id="" fill="#1A7499" opacity="0" stroke="none" d=" M2606.307373,692.000000   C2606.127441,729.927673 2605.948242,766.855286 2605.762451,803.782959   C2605.754150,805.445374 2605.880859,807.139832 2605.610596,808.763794   C2604.791748,813.681885 2601.641846,816.196228 2596.593994,816.177490   C2591.858154,816.159973 2588.541260,813.354126 2587.851318,808.437805   C2587.530273,806.149536 2587.697021,803.788208 2587.696777,801.460022   C2587.689209,751.215454 2587.661621,700.970825 2587.712402,650.726257   C2587.722168,641.084290 2588.050293,631.442688 2588.220703,621.800720   C2588.261963,619.468506 2588.304688,617.172974 2589.449951,615.011475   C2591.432861,611.269348 2594.699707,610.060608 2598.615234,610.377258   C2602.739502,610.710693 2605.453613,612.991577 2606.046631,617.148926   C2606.419678,619.764160 2606.302490,622.457764 2606.304199,625.116333   C2606.318604,647.077576 2606.309326,669.038757 2606.307373,692.000000  z"/>
<path id="" fill="#1A7194" opacity="0" stroke="none" d=" M2586.092041,1524.983765   C2560.823242,1536.988647 2533.585693,1538.722412 2507.605469,1545.311157   C2485.105469,1551.017578 2462.219482,1555.201660 2439.503906,1560.059082   C2438.204102,1560.337036 2436.906250,1560.626831 2435.604736,1560.896729   C2427.071533,1562.667358 2421.709717,1560.244019 2420.491943,1554.070679   C2419.383301,1548.451538 2423.282959,1544.053833 2431.213623,1542.306274   C2451.959229,1537.734619 2472.721191,1533.236084 2493.481689,1528.731567   C2518.130859,1523.383057 2542.779785,1518.033325 2567.439941,1512.736328   C2577.441162,1510.588135 2579.250488,1511.401123 2585.134766,1520.317017   C2587.046875,1521.781494 2587.185791,1523.087402 2586.092041,1524.983765  z"/>
<path id="" fill="#1A7194" opacity="0" stroke="none" d=" M2380.799316,855.390381   C2389.565430,852.582642 2395.414307,855.750549 2400.672852,861.755005   C2413.576660,876.489197 2427.001953,890.754822 2441.970459,903.471008   C2444.366211,905.506165 2445.219482,908.404419 2445.919922,911.349365   C2450.448730,930.397339 2454.993652,949.441406 2459.526367,968.488403   C2459.679932,969.133545 2459.777344,969.793579 2459.872559,970.450806   C2460.970703,978.008911 2458.452881,982.780334 2452.874268,983.725220   C2447.204346,984.685547 2443.080078,981.636597 2441.215576,974.236206   C2437.325439,958.796204 2433.614258,943.307556 2430.116699,927.774170   C2428.768066,921.784668 2426.587891,916.614014 2422.133545,912.134338   C2409.257080,899.184998 2396.782715,885.836304 2383.953125,872.839294   C2379.331299,868.157532 2376.637207,863.404785 2380.799316,855.390381  z"/>
<path id="" fill="#1B7398" opacity="0" stroke="none" d=" M2593.675537,1610.000000   C2593.671143,1594.352539 2593.522461,1579.703247 2593.722900,1565.058594   C2593.824707,1557.598145 2597.593262,1554.591431 2604.482178,1555.815674   C2609.576416,1556.720947 2611.674561,1560.018677 2611.751953,1565.004517   C2611.860352,1571.989258 2612.249756,1578.971802 2612.260742,1585.955688   C2612.321045,1624.238770 2612.302490,1662.521851 2612.310547,1700.804932   C2612.310791,1701.803589 2612.347168,1702.804321 2612.296875,1703.800537   C2611.989502,1709.885742 2609.411133,1713.265869 2604.749023,1713.732300   C2600.105957,1714.196777 2595.284668,1710.155640 2594.414795,1704.843750   C2594.095215,1702.892090 2594.240234,1700.859131 2594.227295,1698.862915   C2594.038330,1669.575317 2593.858154,1640.287598 2593.675537,1610.000000  z"/>
<path id="" fill="#DBDBDB" opacity="0" stroke="none" d=" M2379.871826,855.549438   C2376.517090,855.518005 2373.229248,855.850220 2369.966064,855.688354   C2361.827393,855.284546 2356.265381,848.973389 2356.282471,840.442200   C2356.299805,831.850647 2361.874023,826.333862 2370.162354,825.498047   C2377.099121,824.798523 2382.486572,827.500671 2385.064941,833.125977   C2388.060791,839.662720 2387.725342,846.776978 2381.604980,853.052856   C2381.581543,853.844238 2381.801025,853.962280 2381.867920,853.857178   C2381.534668,854.320251 2381.084229,854.844482 2380.145508,855.611084   C2379.716309,855.904602 2379.949951,855.688171 2379.871826,855.549438  z"/>
<path id="" fill="#DBDBDB" opacity="0" stroke="none" d=" M845.071533,255.711121   C845.527588,259.068573 845.945557,261.763611 845.648926,264.377502   C844.788086,271.962555 837.985962,276.749786 828.996826,276.377075   C821.398682,276.062042 816.046082,270.848572 815.625488,263.353333   C815.193909,255.662079 818.483704,249.500763 824.367004,246.981949   C829.894409,244.615524 837.244263,246.539810 842.387756,251.795105   C843.302002,252.729156 843.940979,253.932587 845.071533,255.711121  z"/>
<path id="" fill="#DBDBDB" opacity="0" stroke="none" d=" M2585.555664,1526.273315   C2585.697998,1524.243530 2585.875488,1523.075562 2585.891602,1521.336548   C2589.043213,1515.687134 2592.513672,1511.319580 2599.670166,1511.518433   C2608.937012,1511.775879 2615.250000,1516.722168 2615.710449,1525.107422   C2616.203857,1534.092529 2610.728027,1540.995972 2602.542725,1541.706787   C2592.985840,1542.536987 2587.192871,1537.894043 2585.609375,1528.125244   C2585.557129,1527.802734 2585.594971,1527.465454 2585.555664,1526.273315  z"/>
<path id="" fill="#DBDBDB" opacity="0" stroke="none" d=" M2079.045898,1494.252441   C2073.725830,1494.010986 2069.045654,1495.518188 2064.999023,1491.712158   C2059.878174,1486.895996 2057.622070,1477.454468 2060.883789,1471.868042   C2064.739746,1465.263428 2074.146240,1462.113159 2080.818359,1465.192017   C2087.679932,1468.358398 2091.841797,1477.247925 2089.344482,1484.458130   C2087.775879,1488.987305 2084.317871,1492.171265 2079.045898,1494.252441  z"/>
<path id="" fill="#DBDBDB" opacity="0" stroke="none" d=" M2619.891113,1737.353516   C2620.270508,1742.428833 2621.370361,1746.872559 2619.304932,1750.907227   C2615.753906,1757.844116 2604.063477,1760.955444 2597.604492,1756.901001   C2589.828125,1752.019653 2587.606201,1741.173340 2592.990479,1734.375610   C2599.041504,1726.735840 2608.565674,1725.750122 2615.650391,1732.116577   C2617.123047,1733.440063 2618.315674,1735.074585 2619.891113,1737.353516  z"/>
<path id="" fill="#DBDBDB" opacity="0" stroke="none" d=" M2450.140625,1290.536743   C2459.511719,1281.267700 2468.581787,1280.899048 2475.453613,1288.868164   C2478.976562,1292.953735 2479.664551,1302.144409 2476.779785,1306.580688   C2473.008545,1312.380615 2466.266357,1315.107422 2459.436035,1313.595703   C2453.858154,1312.361206 2448.517822,1305.924438 2448.319824,1299.892456   C2448.223389,1296.948242 2447.730713,1293.855469 2450.140625,1290.536743  z"/>
<path id="" fill="#DBDBDB" opacity="0" stroke="none" d=" M2001.313965,1217.144897   C2014.610962,1208.914062 2027.672485,1219.652954 2025.791992,1231.825195   C2024.608032,1239.489014 2018.408813,1244.651123 2009.570923,1244.403320   C2001.288574,1244.171143 1996.097534,1239.002197 1995.574219,1230.922119   C1995.229614,1225.601685 1996.157104,1220.995117 2001.313965,1217.144897  z"/>
<path id="" fill="#DBDBDB" opacity="0" stroke="none" d=" M2471.464111,990.133423   C2480.712158,999.552246 2481.087402,1008.670227 2473.144531,1015.451782   C2469.021484,1018.971924 2459.866211,1019.644897 2455.426758,1016.754150   C2449.587891,1012.952209 2446.871094,1006.256348 2448.400146,999.436096   C2449.643066,993.891907 2456.120117,988.522583 2462.112061,988.337158   C2465.049805,988.246338 2468.146484,987.709045 2471.464111,990.133423  z"/>
<path id="" fill="#DBDBDB" opacity="0" stroke="none" d=" M2580.630371,848.639954   C2579.998779,842.143982 2579.820312,836.671265 2584.919434,832.357910   C2589.658691,828.348938 2597.359131,826.751038 2602.418701,829.450928   C2608.793213,832.852478 2611.955322,840.449707 2610.242188,848.247070   C2609.012939,853.840027 2602.801514,857.874512 2596.106445,858.476074   C2588.568115,859.153442 2584.416748,854.972839 2580.630371,848.639954  z"/>
<path id="" fill="#DBDBDB" opacity="0" stroke="none" d=" M1675.102295,279.479187   C1664.791748,284.134094 1659.323242,283.439331 1653.869629,277.425690   C1649.744873,272.877258 1648.831055,264.883209 1651.867554,259.909729   C1655.622681,253.759216 1662.983521,250.712479 1669.939453,252.429672   C1675.421021,253.782928 1680.059326,260.252808 1680.434448,266.540985   C1680.728027,271.463745 1679.990723,275.815369 1675.102295,279.479187  z"/>
<path id="" fill="#DBDBDB" opacity="0" stroke="none" d=" M1651.379395,564.133667   C1660.776978,555.045654 1670.953247,555.220398 1677.454102,563.962891   C1680.637695,568.244324 1680.711304,576.378174 1677.606934,580.860718   C1673.574219,586.683716 1666.966064,589.220642 1660.126831,587.571533   C1654.996826,586.334656 1649.843628,580.104797 1649.666504,574.515625   C1649.562622,571.239197 1649.022217,567.832092 1651.379395,564.133667  z"/>
<path id="" fill="#DBDBDB" opacity="0" stroke="none" d=" M2116.131348,925.924072   C2111.960205,919.819946 2110.158203,913.314148 2114.222656,906.567749   C2118.136719,900.070557 2129.185303,897.277283 2135.235596,900.787415   C2141.214600,904.256348 2144.505615,914.366211 2141.789551,920.920410   C2138.880859,927.939514 2129.778076,931.646545 2121.624023,928.948181   C2120.121338,928.450928 2118.884277,927.150940 2116.812500,926.002319   C2116.100586,925.783020 2116.047363,925.950867 2116.131348,925.924072  z"/>
<path id="" fill="#DBDBDB" opacity="0" stroke="none" d=" M2395.594727,1542.128662   C2399.048096,1543.325073 2401.691895,1544.628296 2404.976562,1546.027832   C2411.050293,1554.619507 2411.351807,1561.398560 2406.546143,1567.008423   C2402.217041,1572.062378 2393.242432,1574.234131 2387.581055,1571.597656   C2381.907471,1568.955688 2378.910645,1562.627075 2379.636963,1554.822144   C2380.206787,1548.698486 2384.906494,1543.824463 2391.794922,1542.317383   C2392.751953,1542.108154 2393.786377,1542.254028 2395.594727,1542.128662  z"/>
<path id="" fill="#000000" opacity="0" stroke="none" d=" M2380.303223,855.825012   C2379.142822,854.844238 2379.387207,854.032349 2381.195312,853.611389   C2381.586670,854.416565 2381.238525,855.080994 2380.303223,855.825012  z"/>
</svg>