<svg version="1.1" id="Layer_1" xmlns="http://www.w3.org/2000/svg" xmlns:xlink="http://www.w3.org/1999/xlink" x="0px" y="0px" height="100%" viewBox="0 0 2070 1170" enable-background="new 0 0 2070 1170" xml:space="preserve">
<path id="" class="lim" fill="#E3E3E3" opacity="0" stroke="none" d=" M721.000000,555.000000   C721.000000,450.194061 721.000000,345.888092 721.000000,241.291138   C940.966003,241.291138 1160.695557,241.291138 1380.717285,241.291138   C1380.717285,530.968994 1380.717285,820.697327 1380.717285,1110.718750   C1161.043091,1110.718750 941.314026,1110.718750 721.000000,1110.718750   C721.000000,925.675598 721.000000,740.587830 721.000000,555.000000  z"/>
<path id="" class="lim" fill="#FEFEFE" opacity="0" stroke="none" d=" M1560.999512,537.833130   C1561.487061,541.198059 1559.613281,541.020142 1557.667969,541.018372   C1529.009033,540.991516 1500.350098,540.999878 1471.344238,540.999878   C1471.344238,461.159302 1471.344238,381.423096 1471.344238,301.343201   C1650.841309,301.343201 1830.574341,301.343201 2010.657471,301.343201   C2010.657471,330.836884 2010.657471,360.574646 2010.657471,390.712830   C1861.143921,390.712830 1711.413208,390.712830 1560.999756,390.712830   C1560.999756,439.855377 1560.999756,488.601532 1560.999512,537.833130  z"/>
<path id="" fill="#18759C" opacity="0" stroke="none" d=" M1410.816895,196.104706   C1409.675415,195.215088 1408.534058,194.325485 1407.111816,192.833374   C1404.997681,187.697693 1406.030029,183.679276 1409.025513,180.013443   C1409.196289,179.971527 1409.367188,179.929596 1409.979004,179.859131   C1410.420044,179.830582 1410.842041,179.914551 1411.228760,179.977173   C1414.882812,180.030273 1418.150146,180.012573 1421.417480,180.012451   C1591.015991,180.006134 1760.614380,179.993103 1930.212891,180.039825   C1934.834595,180.041107 1939.467285,180.581390 1944.074585,181.064468   C1948.446655,181.522919 1948.894409,184.681000 1949.084961,188.330200   C1949.290161,192.259079 1947.553467,194.454422 1943.966797,194.917664   C1939.214355,195.531479 1934.399414,195.956619 1929.611206,195.958008   C1760.679199,196.006744 1591.747070,195.993484 1422.815063,196.028000   C1420.890381,196.028397 1418.965698,196.540573 1417.041016,196.813843   C1416.580933,196.854767 1416.120850,196.895691 1415.053223,196.642136   C1413.236206,196.266647 1412.026489,196.185669 1410.816895,196.104706  z"/>
<path id="" fill="#18769C" opacity="0" stroke="none" d=" M1329.016724,201.167450   C1310.659180,201.129730 1292.301514,201.092010 1273.094971,201.043823   C1271.199707,201.038574 1270.153442,201.043777 1268.672607,201.022217   C1262.787109,200.665253 1257.325073,199.931229 1251.886841,200.077042   C1231.828125,200.614929 1211.807739,199.654556 1191.678467,201.578964   C1172.049561,203.455521 1152.101685,201.975189 1132.294067,202.038620   C1130.540771,202.044235 1128.789185,202.567261 1127.036743,202.849976   C1126.599243,202.925247 1126.161865,203.000519 1125.103027,202.777954   C1124.176880,202.356140 1123.872070,202.124329 1123.566895,202.123596   C1102.369873,202.072983 1081.172729,202.015747 1059.976074,202.085220   C1058.973022,202.088501 1057.973633,203.229584 1056.626221,203.904892   C1055.343750,204.042694 1054.407593,204.116409 1052.965210,204.132507   C1030.884399,204.047989 1009.309875,204.007050 987.735474,204.030167   C986.480225,204.031509 985.225525,204.551956 983.649414,204.889694   C982.894653,204.985184 982.460999,205.021790 981.738037,204.752579   C980.975281,204.311829 980.501953,204.059555 980.028320,204.058823   C958.769226,204.025558 937.509949,203.978271 916.251404,204.081482   C914.826172,204.088379 913.406555,205.253937 911.679077,205.933914   C910.962097,206.015167 910.550354,206.043091 909.663391,206.042847   C903.305603,205.677643 897.390869,205.604416 891.553955,204.893356   C888.593933,204.532761 885.774048,203.021545 882.637207,201.820053   C882.304688,200.749969 882.225769,199.890366 882.508789,198.968857   C883.539001,198.241684 884.766907,197.593781 884.788208,196.908417   C884.982727,190.641129 889.162903,189.968887 894.014526,189.991638   C902.265381,190.030350 910.518860,190.101578 918.765625,189.912201   C920.536316,189.871567 922.282959,188.779892 924.359985,188.114304   C925.110962,188.029785 925.542725,188.003342 926.130432,188.283737   C929.149719,188.391083 932.012817,188.020172 934.876221,188.017807   C977.410950,187.982758 1019.945801,188.018951 1062.480347,187.923111   C1064.334229,187.918930 1066.185669,186.808929 1068.354004,186.145416   C1069.099121,186.036804 1069.528320,185.996811 1070.207764,186.246490   C1092.638672,186.357025 1114.819336,186.177902 1137.361206,186.158920   C1141.299438,186.211838 1144.876343,186.018570 1148.453491,186.011932   C1166.088135,185.979187 1183.723877,186.093475 1201.356689,185.913086   C1204.902100,185.876831 1208.436523,184.787704 1212.307373,184.124847   C1213.086060,184.035156 1213.533447,184.004654 1214.229614,184.260620   C1216.408203,184.365295 1218.337646,184.026382 1220.267456,184.024872   C1260.670654,183.993347 1301.073975,184.001297 1341.477173,183.997208   C1345.818115,183.996765 1348.068481,186.583694 1347.836670,190.479126   C1347.663452,193.389389 1346.038330,196.213272 1345.047607,199.059402   C1345.035522,199.043182 1345.065186,199.044830 1344.775391,199.040131   C1344.001709,199.300583 1343.518066,199.565750 1342.739502,199.902023   C1341.946533,200.272385 1341.448242,200.571625 1340.949951,200.870880   C1339.251953,200.929810 1337.553955,200.988724 1335.012207,201.032700   C1332.451294,201.067673 1330.734009,201.117569 1329.016724,201.167450  z"/>
<path id="" fill="#19759B" opacity="0" stroke="none" d=" M1836.984619,417.718323   C1837.151611,417.791931 1837.318604,417.865570 1837.750122,418.390991   C1839.608643,420.836182 1849.390503,422.202240 1853.418945,420.963501   C1854.856567,421.046295 1855.902344,421.104858 1857.055542,421.521759   C1861.453003,422.569336 1865.742920,423.258575 1870.273804,423.920685   C1870.514771,423.893585 1870.974487,423.739044 1870.974487,423.739044   C1871.141602,423.817230 1871.308838,423.895416 1871.931274,424.366577   C1883.103027,427.760834 1893.858154,430.517090 1905.140381,429.943604   C1905.140381,429.943604 1905.590332,430.000702 1906.049072,430.341919   C1911.694702,431.438568 1916.881470,432.194000 1922.068359,432.949463   C1922.068359,432.949463 1922.011597,432.991821 1922.257568,433.258484   C1924.338379,433.678101 1926.173340,433.831055 1928.276367,433.958984   C1928.712036,433.869019 1928.879517,433.804077 1929.046997,433.739105   C1929.046997,433.739105 1929.019043,433.934692 1929.072754,434.386292   C1934.133911,437.764221 1939.368408,438.997711 1945.358032,437.011108   C1946.100220,437.102905 1946.524292,437.155151 1947.035278,437.530975   C1948.422607,437.884674 1949.723145,437.914734 1951.365479,437.955627   C1952.157227,437.922729 1952.607178,437.878998 1953.057251,437.835266   C1953.057251,437.835236 1953.003174,438.007721 1953.053223,438.418335   C1954.413452,438.870331 1955.723633,438.911743 1957.398804,438.973083   C1958.492065,439.056030 1959.220215,439.119019 1960.034790,439.515564   C1962.759521,440.886993 1965.397705,441.924896 1968.292847,443.105774   C1969.001953,443.862518 1969.454224,444.476257 1969.906494,445.090027   C1969.906494,445.090057 1969.900024,445.015442 1969.896606,445.474121   C1969.948364,447.619720 1970.003662,449.306610 1970.058960,450.993530   C1969.581177,451.906982 1969.103516,452.820465 1968.037598,453.899445   C1967.040771,454.482544 1966.632202,454.900146 1966.223511,455.317719   C1966.223511,455.317688 1966.300781,455.236786 1965.867432,455.178955   C1958.448853,454.639282 1951.466064,454.117798 1944.476685,453.707489   C1942.984985,453.619934 1941.469482,453.936462 1939.644043,454.040100   C1938.898560,453.950348 1938.474121,453.887360 1937.868652,453.553436   C1936.441406,453.198730 1935.195190,453.114929 1933.630615,453.011932   C1932.893799,452.920563 1932.475220,452.848419 1931.945068,452.427002   C1928.876465,451.751221 1925.919556,451.424713 1922.638306,451.066620   C1921.887207,450.957306 1921.460449,450.879547 1920.923340,450.436432   C1915.485962,449.406830 1910.158936,448.742615 1904.831909,448.078400   C1904.831909,448.078400 1904.418945,448.009552 1904.128418,447.570435   C1898.494263,446.445618 1893.150391,445.759918 1887.806641,445.074188   C1887.806641,445.074188 1887.399658,445.058167 1887.114990,444.841675   C1886.553467,444.720917 1886.276611,444.816650 1885.999878,444.912354   C1885.555786,444.934937 1885.111694,444.957520 1884.137695,444.699097   C1883.017090,444.298798 1882.426392,444.179474 1881.835693,444.060150   C1881.835693,444.060150 1881.421509,444.016846 1881.127930,443.586304   C1873.847656,441.770844 1866.880615,440.273407 1859.863403,439.066528   C1857.628296,438.682129 1855.260254,439.069824 1852.953125,439.104218   C1852.511841,439.055908 1852.070679,439.007568 1851.101685,438.575287   C1839.675659,436.474915 1828.777222,434.758514 1817.878906,433.042145   C1809.017334,434.353577 1804.474976,426.826477 1806.225464,420.740051   C1807.692383,415.639130 1812.745361,413.129486 1818.530640,414.242096   C1823.999512,415.293854 1829.513184,416.111481 1835.559082,417.253235   C1836.110962,417.474365 1836.505493,417.747864 1836.505493,417.747864   C1836.505493,417.747864 1836.984619,417.718323 1836.984619,417.718323  z"/>
<path id="" fill="#18769B" opacity="0" stroke="none" d=" M829.054749,185.902374   C829.486694,185.937225 829.918579,185.972076 830.830811,186.313324   C836.021606,191.877792 836.283020,194.090164 833.010925,201.004364   C833.010925,201.004364 833.000000,201.000000 832.751587,201.042877   C832.170471,201.141525 831.837769,201.197296 831.056763,201.182220   C826.696716,201.718948 822.784546,202.837555 818.873413,202.834000   C808.923889,202.824921 798.975891,202.241714 789.024231,202.089630   C787.686096,202.069168 786.330200,203.209183 784.669556,203.887772   C783.718872,204.040787 783.081177,204.117874 781.939575,204.135712   C768.154724,204.051819 754.872803,204.097702 741.593994,203.917374   C739.845154,203.893616 737.937317,202.989914 736.403931,202.018799   C731.516968,198.923920 732.830139,194.422638 734.406128,189.966888   C737.281799,189.272552 739.765991,188.105576 742.262512,188.078568   C757.849182,187.909836 773.439148,188.051132 789.026489,187.917603   C790.703552,187.903244 792.371155,186.782425 794.403687,186.114975   C795.494446,186.006622 796.224670,185.958176 797.206055,186.211014   C802.340210,186.338699 807.222107,186.098999 812.106689,186.008850   C817.754822,185.904617 823.405273,185.932068 829.054749,185.902374  z"/>
<path id="" fill="#26718C" opacity="0" stroke="none" d=" M1417.499023,196.902863   C1418.965698,196.540573 1420.890381,196.028397 1422.815063,196.028000   C1591.747070,195.993484 1760.679199,196.006744 1929.611206,195.958008   C1934.399414,195.956619 1939.214355,195.531479 1943.966797,194.917664   C1947.553467,194.454422 1949.290161,192.259079 1949.084961,188.330200   C1948.894409,184.681000 1948.446655,181.522919 1944.074585,181.064468   C1939.467285,180.581390 1934.834595,180.041107 1930.212891,180.039825   C1760.614380,179.993103 1591.015991,180.006134 1421.417480,180.012451   C1418.150146,180.012573 1414.882812,180.030273 1411.304932,179.763519   C1410.994507,179.487274 1411.127197,179.053009 1411.127197,179.053009   C1415.791504,179.029419 1420.455688,178.985199 1425.119995,178.985229   C1597.071289,178.986633 1769.022461,178.989929 1940.973755,179.003860   C1949.180298,179.004532 1952.404053,182.214432 1952.066162,189.883499   C1951.894409,193.784653 1948.787109,196.900528 1944.806641,197.024368   C1941.976807,197.112396 1939.142090,197.042114 1936.309570,197.042114   C1764.691528,197.042328 1593.073486,197.042603 1421.455444,197.040573   C1420.289307,197.040558 1419.123169,197.008804 1417.499023,196.902863  z"/>
<path id="" fill="#E3E3E3" opacity="0" stroke="none" d=" M1396.580078,176.066254   C1397.559937,183.409851 1397.613892,190.148743 1390.773438,194.850815   C1385.920288,198.186783 1380.593140,198.008102 1375.878540,196.046310   C1371.143311,194.075821 1366.837524,190.547958 1367.006592,184.315323   C1367.119629,180.149567 1366.763306,176.283752 1369.860596,172.336014   C1376.659424,163.670654 1391.430054,165.106750 1396.580078,176.066254  z"/>
<path id="" fill="#E3E3E3" opacity="0" stroke="none" d=" M1763.151123,410.299896   C1768.705688,402.170624 1782.538818,402.953064 1788.236816,411.774323   C1791.231445,416.410248 1791.041260,421.726837 1789.026245,426.228973   C1786.937378,430.895935 1783.425171,434.960327 1777.192017,435.091827   C1771.898560,435.203522 1767.311768,434.709198 1763.492920,430.221252   C1758.997314,424.937836 1758.380371,416.165314 1763.151123,410.299896  z"/>
<path id="" fill="#E3E3E3" opacity="0" stroke="none" d=" M870.851379,186.302643   C875.761719,191.456375 875.113159,197.513092 872.875366,202.583435   C870.575439,207.794739 866.192505,211.199341 859.299011,211.234070   C852.078430,211.270432 847.537720,207.905258 844.955933,202.231812   C842.911194,197.738434 842.773132,192.407288 845.763855,187.770447   C851.441895,178.967026 865.286621,178.160263 870.851379,186.302643  z"/>
<path id="" fill="#2C6E87" opacity="0" stroke="none" d=" M1345.059814,199.075623   C1346.038330,196.213272 1347.663452,193.389389 1347.836670,190.479126   C1348.068481,186.583694 1345.818115,183.996765 1341.477173,183.997208   C1301.073975,184.001297 1260.670654,183.993347 1220.267456,184.024872   C1218.337646,184.026382 1216.408203,184.365295 1214.408691,184.015289   C1214.897583,183.250443 1215.456299,183.017380 1216.014893,182.784332   C1216.464355,182.821960 1216.913940,182.859589 1218.159912,182.927490   C1238.958618,182.907959 1258.960938,182.858154 1278.963135,182.808365   C1279.410522,182.837860 1279.857910,182.867340 1281.065674,182.909546   C1284.600952,182.615860 1287.374634,182.058273 1290.151123,182.044220   C1306.767578,181.960129 1323.386230,182.118729 1340.000854,181.922028   C1344.453857,181.869324 1347.664673,183.292709 1349.932861,187.027130   C1349.984863,188.083481 1350.036865,189.139832 1350.064209,190.974289   C1349.842041,195.187866 1348.976562,198.169189 1345.059814,199.075623  z"/>
<path id="" fill="#2A6F88" opacity="0" stroke="none" d=" M1068.038208,186.214020   C1066.185669,186.808929 1064.334229,187.918930 1062.480347,187.923111   C1019.945801,188.018951 977.410950,187.982758 934.876221,188.017807   C932.012817,188.020172 929.149719,188.391083 926.256042,188.059052   C926.486816,187.305115 926.747986,187.082733 927.009216,186.860352   C948.688965,186.874863 970.368774,186.889343 992.892822,186.911774   C995.175598,186.656372 996.614197,186.393021 998.052734,186.129669   C999.423340,186.059631 1000.793884,185.989609 1003.037476,185.937500   C1025.286377,186.041626 1046.662231,186.127823 1068.038208,186.214020  z"/>
<path id="" fill="#2C6E87" opacity="0" stroke="none" d=" M1127.472656,202.939240   C1128.789185,202.567261 1130.540771,202.044235 1132.294067,202.038620   C1152.101685,201.975189 1172.049561,203.455521 1191.678467,201.578964   C1211.807739,199.654556 1231.828125,200.614929 1251.886841,200.077042   C1257.325073,199.931229 1262.787109,200.665253 1268.362061,201.316391   C1266.674683,201.759918 1264.863403,201.986588 1263.052002,201.989120   C1242.930542,202.017349 1222.809082,201.986740 1202.687866,202.052933   C1200.778687,202.059204 1198.871460,202.613571 1196.963257,202.913483   C1192.937744,202.971954 1188.912109,203.030411 1183.964355,203.066162   C1167.041504,203.099106 1151.040771,203.154755 1135.040039,203.210403   C1132.662842,203.149765 1130.285767,203.089127 1127.472656,202.939240  z"/>
<path id="" fill="#000714" opacity="0" stroke="none" d=" M1350.241211,186.879578   C1347.664673,183.292709 1344.453857,181.869324 1340.000854,181.922028   C1323.386230,182.118729 1306.767578,181.960129 1290.151123,182.044220   C1287.374634,182.058273 1284.600952,182.615860 1281.398560,182.855621   C1281.958984,178.275894 1285.996460,179.764816 1288.403931,179.742844   C1306.707153,179.575592 1325.017578,179.729889 1343.317505,180.146332   C1345.943359,180.206070 1348.585327,182.097092 1351.054932,183.443115   C1351.385742,183.623337 1350.741943,185.591705 1350.241211,186.879578  z"/>
<path id="" fill="#000714" opacity="0" stroke="none" d=" M1053.471558,204.190125   C1054.407593,204.116409 1055.343750,204.042694 1057.093750,203.968536   C1078.945068,204.041397 1099.982178,204.114716 1121.019409,204.188049   C1119.343506,204.791855 1117.671509,205.907684 1115.991089,205.920334   C1098.872070,206.049240 1081.751465,205.933777 1064.632080,206.043701   C1060.351807,206.071182 1056.079468,206.782257 1051.794800,206.930054   C1050.277466,206.982391 1048.734497,206.293274 1047.500244,205.494995   C1049.688721,204.761597 1051.580078,204.475861 1053.471558,204.190125  z"/>
<path id="" fill="#000714" opacity="0" stroke="none" d=" M1197.249756,203.226135   C1198.871460,202.613571 1200.778687,202.059204 1202.687866,202.052933   C1222.809082,201.986740 1242.930542,202.017349 1263.052002,201.989120   C1264.863403,201.986588 1266.674683,201.759918 1268.796509,201.343170   C1270.153442,201.043777 1271.199707,201.038574 1272.632080,201.111511   C1269.566406,202.118149 1266.122925,203.813232 1262.661987,203.849838   C1241.261841,204.076202 1219.857544,203.930908 1198.454712,203.891296   C1198.148315,203.890732 1197.842407,203.661392 1197.249756,203.226135  z"/>
<path id="" fill="#000714" opacity="0" stroke="none" d=" M1215.917603,182.429779   C1215.456299,183.017380 1214.897583,183.250443 1214.159912,183.728821   C1213.533447,184.004654 1213.086060,184.035156 1211.846191,184.047546   C1188.695923,183.952652 1166.338379,183.875885 1143.980713,183.799133   C1145.661499,183.199524 1147.338989,182.089111 1149.023560,182.078369   C1168.311523,181.955399 1187.600464,181.996582 1206.889160,182.002960   C1209.866211,182.003937 1212.843262,182.050003 1215.917603,182.429779  z"/>
<path id="" fill="#2C6E87" opacity="0" stroke="none" d=" M1143.656250,183.867004   C1166.338379,183.875885 1188.695923,183.952652 1211.514893,184.106720   C1208.436523,184.787704 1204.902100,185.876831 1201.356689,185.913086   C1183.723877,186.093475 1166.088135,185.979187 1148.453491,186.011932   C1144.876343,186.018570 1141.299438,186.211838 1137.369263,185.939575   C1137.016113,185.560074 1137.046387,185.122116 1137.046387,185.122116   C1137.046387,185.122116 1136.965210,184.963715 1137.328857,184.951660   C1139.133301,184.653915 1140.574219,184.368225 1142.015137,184.082520   C1142.454102,184.033295 1142.892944,183.984100 1143.656250,183.867004  z"/>
<path id="" fill="#2C6E87" opacity="0" stroke="none" d=" M911.984314,205.880585   C913.406555,205.253937 914.826172,204.088379 916.251404,204.081482   C937.509949,203.978271 958.769226,204.025558 980.028320,204.058823   C980.501953,204.059555 980.975281,204.311829 981.708862,204.964905   C981.968933,205.483063 981.944153,205.911102 981.944153,205.911102   C981.514282,205.963104 981.084351,206.015106 979.891357,206.051208   C976.414246,206.086563 973.700317,206.137833 970.986328,206.189117   C967.300110,206.151230 963.613953,206.113342 959.072266,206.058456   C957.139526,206.090714 956.062317,206.139984 954.985107,206.189270   C951.298950,206.151337 947.612732,206.113388 943.013428,206.057770   C938.395691,206.089752 934.691040,206.139420 930.986389,206.189087   C927.299805,206.151215 923.613281,206.113342 919.035950,206.058197   C916.091553,205.987473 914.037964,205.934021 911.984314,205.880585  z"/>
<path id="" fill="#2C6E87" opacity="0" stroke="none" d=" M1121.377686,204.128204   C1099.982178,204.114716 1078.945068,204.041397 1057.440186,203.904419   C1057.973633,203.229584 1058.973022,202.088501 1059.976074,202.085220   C1081.172729,202.015747 1102.369873,202.072983 1123.566895,202.123596   C1123.872070,202.124329 1124.176880,202.356140 1124.770264,202.793869   C1123.951172,203.427872 1122.843628,203.748108 1121.377686,204.128204  z"/>
<path id="" fill="#000714" opacity="0" stroke="none" d=" M1068.354004,186.145416   C1046.662231,186.127823 1025.286377,186.041626 1003.445435,185.879974   C1003.997986,185.204559 1005.013794,184.084900 1006.033447,184.081268   C1026.864746,184.006882 1047.696533,184.058472 1068.528198,184.102829   C1068.836548,184.103485 1069.144409,184.330414 1069.720459,184.983292   C1069.988281,185.514832 1069.957520,185.956802 1069.957520,185.956818   C1069.528320,185.996811 1069.099121,186.036804 1068.354004,186.145416  z"/>
<path id="" fill="#000714" opacity="0" stroke="none" d=" M782.443420,204.194946   C783.081177,204.117874 783.718872,204.040787 785.134644,203.962738   C798.632812,203.976212 811.355896,204.136322 824.070679,203.880264   C826.565430,203.830032 829.027832,202.170410 831.505127,201.253052   C831.837769,201.197296 832.170471,201.141525 832.753845,201.048782   C833.253540,203.502625 832.691162,205.061615 829.637634,205.121567   C824.217041,205.227966 818.806763,205.782898 813.385986,205.978012   C802.345520,206.375381 791.302002,206.708633 780.256958,206.934509   C778.577881,206.968842 776.884094,206.286118 775.507202,205.490341   C778.026001,204.762054 780.234741,204.478500 782.443420,204.194946  z"/>
<path id="" fill="#2C6E87" opacity="0" stroke="none" d=" M794.043152,186.174896   C792.371155,186.782425 790.703552,187.903244 789.026489,187.917603   C773.439148,188.051132 757.849182,187.909836 742.262512,188.078568   C739.765991,188.105576 737.281799,189.272552 734.240356,189.801880   C733.688904,189.691193 733.357849,189.361801 733.583130,189.104172   C735.551270,187.917831 737.294189,186.989136 739.037109,186.060425   C743.045654,186.011658 747.054138,185.962906 751.985352,185.931000   C766.619690,186.023544 780.331421,186.099228 794.043152,186.174896  z"/>
<path id="" fill="#2A6F88" opacity="0" stroke="none" d=" M924.040649,188.172363   C922.282959,188.779892 920.536316,189.871567 918.765625,189.912201   C910.518860,190.101578 902.265381,190.030350 894.014526,189.991638   C889.162903,189.968887 884.982727,190.641129 884.788208,196.908417   C884.766907,197.593781 883.539001,198.241684 882.439453,198.588776   C881.926270,197.505219 881.844299,196.739838 881.762329,195.974472   C881.827759,195.232864 881.893188,194.491257 882.288086,193.209396   C884.677246,188.038071 888.859314,187.949844 893.017456,187.810257   C894.077148,187.849136 895.136780,187.888031 897.055725,187.937866   C906.623535,188.023315 915.332092,188.097839 924.040649,188.172363  z"/>
<path id="" fill="#000714" opacity="0" stroke="none" d=" M794.403687,186.114990   C780.331421,186.099228 766.619690,186.023544 752.442993,185.870621   C753.492676,185.196442 755.001221,184.100906 756.523132,184.081848   C768.147766,183.936218 779.775024,183.994904 791.401428,184.003052   C794.540833,184.005249 797.680176,184.052094 800.561523,184.508499   C799.187256,185.262283 798.071106,185.586014 796.954956,185.909729   C796.224670,185.958176 795.494446,186.006622 794.403687,186.114990  z"/>
<path id="" fill="#2C6E87" opacity="0" stroke="none" d=" M781.939575,204.135712   C780.234741,204.478500 778.026001,204.762054 775.394653,205.120209   C762.306702,205.120377 749.641479,205.045975 736.361267,204.627014   C734.096924,202.517090 732.447510,200.751740 730.798157,198.986389   C730.823792,198.547668 730.849426,198.108932 730.912292,196.952026   C731.752258,193.943176 732.555054,191.652481 733.357849,189.361786   C733.357849,189.361801 733.688904,189.691193 733.854614,189.856201   C732.830139,194.422638 731.516968,198.923920 736.403931,202.018799   C737.937317,202.989914 739.845154,203.893616 741.593994,203.917374   C754.872803,204.097702 768.154724,204.051819 781.939575,204.135712  z"/>
<path id="" fill="#2A6F88" opacity="0" stroke="none" d=" M1070.207764,186.246475   C1069.957520,185.956802 1069.988281,185.514832 1070.004883,185.294113   C1092.051025,185.045166 1114.080566,185.016937 1136.578125,185.055420   C1137.046387,185.122116 1137.016113,185.560074 1137.008057,185.779419   C1114.819336,186.177902 1092.638672,186.357025 1070.207764,186.246475  z"/>
<path id="" fill="#2C6E87" opacity="0" stroke="none" d=" M1052.965210,204.132507   C1051.580078,204.475861 1049.688721,204.761597 1047.384521,205.120819   C1027.631836,205.161743 1008.291870,205.129166 988.087402,205.081024   C986.138794,204.987244 985.054688,204.909027 983.970581,204.830826   C985.225525,204.551956 986.480225,204.031509 987.735474,204.030167   C1009.309875,204.007050 1030.884399,204.047989 1052.965210,204.132507  z"/>
<path id="" fill="#000714" opacity="0" stroke="none" d=" M1278.642700,182.555115   C1258.960938,182.858154 1238.958618,182.907959 1218.496094,182.884735   C1218.625000,182.551926 1219.214844,182.063965 1219.803467,182.065475   C1239.309814,182.115326 1258.816040,182.212021 1278.642700,182.555115  z"/>
<path id="" fill="#000714" opacity="0" stroke="none" d=" M924.359985,188.114304   C915.332092,188.097839 906.623535,188.023315 897.449829,187.878113   C897.496033,187.232803 898.003723,186.161041 898.519287,186.157227   C907.963867,186.087357 917.409241,186.145432 926.931885,186.518372   C926.747986,187.082733 926.486816,187.305115 926.100037,187.752197   C925.542725,188.003342 925.110962,188.029785 924.359985,188.114304  z"/>
<path id="" fill="#2C6E87" opacity="0" stroke="none" d=" M1904.896484,429.634857   C1893.858154,430.517090 1883.103027,427.760834 1872.194092,424.453522   C1873.064087,424.106628 1874.126587,424.065674 1875.851685,424.349609   C1879.686646,425.049957 1882.858887,425.425415 1886.031250,425.800873   C1886.465210,425.849335 1886.899292,425.897766 1887.883911,426.297241   C1891.301636,427.019531 1894.168579,427.390808 1897.035645,427.762085   C1899.574585,428.283447 1902.113525,428.804779 1904.896484,429.634857  z"/>
<path id="" fill="#2C6E87" opacity="0" stroke="none" d=" M1853.216187,439.394470   C1855.260254,439.069824 1857.628296,438.682129 1859.863403,439.066528   C1866.880615,440.273407 1873.847656,441.770844 1880.928955,443.524597   C1873.438599,442.815674 1865.851196,441.754181 1858.270508,440.647003   C1856.660889,440.411896 1855.075684,440.009857 1853.216187,439.394470  z"/>
<path id="" fill="#2C6E87" opacity="0" stroke="none" d=" M1818.135742,433.358215   C1828.777222,434.758514 1839.675659,436.474915 1850.777100,438.500244   C1842.058716,437.423645 1833.136475,436.042267 1824.216064,434.649261   C1822.271729,434.345612 1820.333618,434.000397 1818.135742,433.358215  z"/>
<path id="" fill="#000714" opacity="0" stroke="none" d=" M1135.362549,203.459839   C1151.040771,203.154755 1167.041504,203.099106 1183.502197,203.118744   C1183.373169,203.451706 1182.783569,203.935669 1182.195435,203.933975   C1166.691895,203.889679 1151.188477,203.795197 1135.362549,203.459839  z"/>
<path id="" fill="#000B1B" opacity="0" stroke="none" d=" M1932.056519,452.776306   C1932.475220,452.848419 1932.893799,452.920563 1933.666504,453.212982   C1934.020508,453.433258 1934.047852,453.840485 1934.047852,453.840515   C1933.771606,454.401062 1933.401611,455.478241 1933.232666,455.447571   C1926.713013,454.264709 1920.210449,452.987305 1913.713745,451.682159   C1913.483032,451.635773 1913.333862,451.182343 1913.463623,450.486694   C1916.198242,450.303711 1918.615967,450.552765 1921.033569,450.801819   C1921.460449,450.879547 1921.887207,450.957306 1922.888306,451.358521   C1926.327148,452.046722 1929.191895,452.411499 1932.056519,452.776306  z"/>
<path id="" fill="#2C6E87" opacity="0" stroke="none" d=" M1939.964966,454.066864   C1941.469482,453.936462 1942.984985,453.619934 1944.476685,453.707489   C1951.466064,454.117798 1958.448853,454.639282 1965.864258,455.234772   C1965.102661,456.251465 1963.910889,457.154480 1961.997803,458.053558   C1960.502197,458.115326 1959.727905,458.181000 1958.953613,458.246704   C1958.528564,458.163940 1958.103516,458.081177 1957.120361,457.684235   C1955.369019,457.302277 1954.175659,457.234558 1952.982300,457.166809   C1951.238647,456.810394 1949.494995,456.453979 1947.044556,455.943024   C1944.880249,455.599365 1943.422729,455.410248 1941.965210,455.221130   C1941.540771,455.142578 1941.116333,455.064026 1940.353271,454.739349   C1940.014526,454.493225 1939.964966,454.066864 1939.964966,454.066864  z"/>
<path id="" fill="#000714" opacity="0" stroke="none" d=" M833.373291,201.002014   C836.283020,194.090164 836.021606,191.877792 831.156738,186.305695   C834.770874,184.313568 835.723267,187.589737 837.044678,189.681702   C839.154053,193.021210 836.973938,199.954041 833.373291,201.002014  z"/>
<path id="" fill="#2A6F88" opacity="0" stroke="none" d=" M882.890808,202.030518   C885.774048,203.021545 888.593933,204.532761 891.553955,204.893356   C897.390869,205.604416 903.305603,205.677643 909.610474,206.253754   C910.032837,206.492844 909.956421,206.921326 909.956421,206.921326   C903.283203,206.963989 896.610046,207.006653 889.189209,206.948120   C887.284180,206.251007 886.126648,205.655060 884.969177,205.059113   C884.969177,205.059113 884.997559,205.002655 884.891235,204.718689   C884.153564,203.633331 883.522156,202.831924 882.890808,202.030518  z"/>
<path id="" fill="#000714" opacity="0" stroke="none" d=" M1345.047607,199.059418   C1348.976562,198.169189 1349.842041,195.187866 1350.119873,191.367004   C1353.500122,194.712402 1352.784912,198.860382 1348.408447,200.264801   C1346.177002,200.980865 1343.749512,201.085770 1341.180298,201.168900   C1341.448242,200.571625 1341.946533,200.272385 1343.041016,199.963562   C1344.113159,199.650925 1344.589111,199.347870 1345.065186,199.044815   C1345.065186,199.044830 1345.035522,199.043182 1345.047607,199.059418  z"/>
<path id="" fill="#000714" opacity="0" stroke="none" d=" M892.953247,187.450470   C888.859314,187.949844 884.677246,188.038071 882.313721,192.837250   C881.509644,192.189163 880.448425,190.783936 880.593689,190.645584   C882.599243,188.735474 884.535339,186.384048 886.987671,185.446060   C888.520813,184.859634 890.893250,186.467453 892.953247,187.450470  z"/>
<path id="" fill="#2C6E87" opacity="0" stroke="none" d=" M1945.040039,436.971527   C1939.368408,438.997711 1934.133911,437.764221 1929.041260,434.479980   C1930.345825,434.084991 1931.735229,434.047943 1933.780518,434.315063   C1935.631348,434.682495 1936.826660,434.745728 1938.021851,434.808960   C1938.448853,434.892883 1938.875732,434.976746 1939.866699,435.369080   C1941.967041,436.108826 1943.503540,436.540161 1945.040039,436.971527  z"/>
<path id="" fill="#2C6E87" opacity="0" stroke="none" d=" M797.206055,186.211014   C798.071106,185.586014 799.187256,185.262283 800.665955,184.869781   C810.184448,184.952820 819.340454,185.104599 828.775574,185.579376   C823.405273,185.932068 817.754822,185.904617 812.106689,186.008850   C807.222107,186.098999 802.340210,186.338699 797.206055,186.211014  z"/>
<path id="" fill="#000714" opacity="0" stroke="none" d=" M733.583130,189.104156   C732.555054,191.652481 731.752258,193.943176 730.868835,196.624924   C730.474670,194.914291 729.405518,192.561096 730.003967,190.762955   C731.269470,186.960892 733.926880,184.319183 738.807373,185.774246   C737.294189,186.989136 735.551270,187.917831 733.583130,189.104156  z"/>
<path id="" fill="#2C6E87" opacity="0" stroke="none" d=" M1853.026855,420.939270   C1849.390503,422.202240 1839.608643,420.836182 1838.007812,418.483917   C1838.451416,418.034088 1838.901733,417.943115 1840.067139,417.926331   C1843.864746,418.598389 1846.947388,419.196228 1850.030151,419.794067   C1850.762451,419.870270 1851.494629,419.946442 1852.606689,420.269958   C1852.986572,420.517273 1853.026855,420.939270 1853.026855,420.939270  z"/>
<path id="" fill="#2C6E87" opacity="0" stroke="none" d=" M1888.067993,445.384155   C1893.150391,445.759918 1898.494263,446.445618 1903.932373,447.496765   C1898.794312,447.139496 1893.561890,446.416809 1888.067993,445.384155  z"/>
<path id="" fill="#000B1B" opacity="0" stroke="none" d=" M1408.645264,180.010345   C1406.030029,183.679276 1404.997681,187.697693 1406.860229,192.631241   C1402.336548,189.409164 1403.010132,183.032135 1408.645264,180.010345  z"/>
<path id="" fill="#000B1B" opacity="0" stroke="none" d=" M1959.948364,439.182007   C1959.220215,439.119019 1958.492065,439.056030 1957.376831,438.758972   C1956.989746,438.524902 1956.968140,438.094879 1956.968140,438.094879   C1960.593994,433.270966 1963.176392,436.866760 1965.949951,439.613373   C1965.985352,440.022980 1965.871948,440.154449 1965.495605,440.101166   C1963.395752,439.759247 1961.671997,439.470642 1959.948364,439.182007  z"/>
<path id="" fill="#000714" opacity="0" stroke="none" d=" M931.098022,206.562805   C934.691040,206.139420 938.395691,206.089752 942.557007,206.114594   C939.278931,209.596283 935.241882,208.228882 931.098022,206.562805  z"/>
<path id="" fill="#000B1B" opacity="0" stroke="none" d=" M1945.358032,437.011108   C1943.503540,436.540161 1941.967041,436.108826 1940.189941,435.413818   C1944.255127,435.810944 1948.560913,436.471771 1952.961914,437.483948   C1952.607178,437.878998 1952.157227,437.922729 1951.113037,437.697449   C1949.328735,437.354767 1948.138672,437.281067 1946.948486,437.207367   C1946.524292,437.155151 1946.100220,437.102905 1945.358032,437.011108  z"/>
<path id="" fill="#2C6E87" opacity="0" stroke="none" d=" M1921.814697,432.646118   C1916.881470,432.194000 1911.694702,431.438568 1906.264526,430.412781   C1911.201172,430.875916 1916.381104,431.609375 1921.814697,432.646118  z"/>
<path id="" fill="#000714" opacity="0" stroke="none" d=" M730.473389,199.056061   C732.447510,200.751740 734.096924,202.517090 735.897827,204.578644   C734.708374,204.883209 732.487000,205.365112 732.189514,204.812057   C731.258301,203.081223 727.372864,202.156525 730.473389,199.056061  z"/>
<path id="" fill="#2C6E87" opacity="0" stroke="none" d=" M1920.923340,450.436432   C1918.615967,450.552765 1916.198242,450.303711 1913.375244,450.132782   C1910.418579,449.708801 1907.867188,449.206665 1905.073975,448.391479   C1910.158936,448.742615 1915.485962,449.406830 1920.923340,450.436432  z"/>
<path id="" fill="#000714" opacity="0" stroke="none" d=" M882.637207,201.820053   C883.522156,202.831924 884.153564,203.633331 884.862915,204.732697   C879.515564,203.974991 878.685730,202.093155 881.404236,196.086243   C881.844299,196.739838 881.926270,197.505219 882.077515,198.650665   C882.225769,199.890366 882.304688,200.749969 882.637207,201.820053  z"/>
<path id="" fill="#000B1B" opacity="0" stroke="none" d=" M1853.418945,420.963501   C1853.026855,420.939270 1852.986572,420.517273 1852.973267,420.305908   C1856.601685,416.987732 1859.628174,420.009155 1862.558960,421.505310   C1860.494751,421.669891 1858.721436,421.416626 1856.947998,421.163391   C1855.902344,421.104858 1854.856567,421.046295 1853.418945,420.963501  z"/>
<path id="" fill="#2C6E87" opacity="0" stroke="none" d=" M1857.055542,421.521729   C1858.721436,421.416626 1860.494751,421.669891 1862.654419,421.849670   C1863.470093,421.841827 1863.899536,421.907471 1864.836182,422.307770   C1866.236084,422.697571 1867.128662,422.752747 1868.021240,422.807892   C1868.432739,422.879211 1868.844360,422.950531 1869.616577,423.259338   C1869.977295,423.496796 1870.032837,423.947784 1870.032837,423.947784   C1865.742920,423.258575 1861.453003,422.569336 1857.055542,421.521729  z"/>
<path id="" fill="#000B1B" opacity="0" stroke="none" d=" M1885.933228,425.452423   C1882.858887,425.425415 1879.686646,425.049957 1876.250000,424.389984   C1876.411621,423.528809 1876.987427,422.393097 1877.240601,422.460907   C1880.133789,423.236023 1882.978027,424.194458 1885.933228,425.452423  z"/>
<path id="" fill="#000B1B" opacity="0" stroke="none" d=" M1896.946045,427.415710   C1894.168579,427.390808 1891.301636,427.019531 1888.209595,426.333801   C1891.181763,424.342712 1894.188232,424.276489 1896.946045,427.415710  z"/>
<path id="" fill="#000B1B" opacity="0" stroke="none" d=" M1970.451172,450.981659   C1970.003662,449.306610 1969.948364,447.619720 1969.888672,445.512909   C1970.911377,445.821838 1972.800537,446.579285 1972.777466,447.273224   C1972.735840,448.525452 1971.550659,449.739685 1970.451172,450.981659  z"/>
<path id="" fill="#000714" opacity="0" stroke="none" d=" M910.226807,207.221161   C909.956421,206.921326 910.032837,206.492844 910.085754,206.281921   C910.550354,206.043091 910.962097,206.015167 911.679077,205.933899   C914.037964,205.934021 916.091553,205.987473 918.579468,206.115021   C916.174866,206.633087 913.336060,207.077042 910.226807,207.221161  z"/>
<path id="" fill="#000B1B" opacity="0" stroke="none" d=" M1849.940063,419.446472   C1846.947388,419.196228 1843.864746,418.598389 1840.408569,417.872467   C1843.306763,418.195892 1846.578369,418.647400 1849.940063,419.446472  z"/>
<path id="" fill="#000714" opacity="0" stroke="none" d=" M971.092407,206.555573   C973.700317,206.137833 976.414246,206.086563 979.573792,206.120346   C977.317993,209.384720 974.264160,208.225662 971.092407,206.555573  z"/>
<path id="" fill="#000714" opacity="0" stroke="none" d=" M1141.969727,183.752335   C1140.574219,184.368225 1139.133301,184.653915 1137.307129,184.865356   C1138.589355,184.334778 1140.256714,183.878464 1141.969727,183.752335  z"/>
<path id="" fill="#000714" opacity="0" stroke="none" d=" M884.972473,205.441284   C886.126648,205.655060 887.284180,206.251007 888.725525,207.013504   C888.205872,207.748260 887.402344,208.316483 886.598755,208.884674   C886.057800,207.864273 885.516785,206.843857 884.972473,205.441284  z"/>
<path id="" fill="#000714" opacity="0" stroke="none" d=" M983.649414,204.889694   C985.054688,204.909027 986.138794,204.987244 987.624084,205.141602   C986.159912,205.642578 984.294556,206.067398 982.186646,206.201660   C981.944153,205.911102 981.968933,205.483063 981.998169,205.270721   C982.460999,205.021790 982.894653,204.985184 983.649414,204.889694  z"/>
<path id="" fill="#000714" opacity="0" stroke="none" d=" M1329.204346,201.463181   C1330.734009,201.117569 1332.451294,201.067673 1334.592285,201.096756   C1333.452393,204.370575 1331.434326,203.181625 1329.204346,201.463181  z"/>
<path id="" fill="#000714" opacity="0" stroke="none" d=" M997.832764,185.839081   C996.614197,186.393021 995.175598,186.656372 993.355835,186.849518   C994.520691,186.369049 996.066711,185.958771 997.832764,185.839081  z"/>
<path id="" fill="#000B1B" opacity="0" stroke="none" d=" M1969.941650,444.693878   C1969.454224,444.476257 1969.001953,443.862518 1968.165405,442.836395   C1967.144653,441.667511 1966.508301,440.911011 1965.871948,440.154480   C1965.871948,440.154449 1965.985352,440.022980 1966.043823,439.957092   C1969.083374,439.874451 1970.274414,441.431610 1969.941650,444.693878  z"/>
<path id="" fill="#000B1B" opacity="0" stroke="none" d=" M1942.052979,455.550232   C1943.422729,455.410248 1944.880249,455.599365 1946.652344,456.004181   C1945.358276,456.106354 1943.749634,455.992828 1942.052979,455.550232  z"/>
<path id="" fill="#000B1B" opacity="0" stroke="none" d=" M1958.976562,458.592712   C1959.727905,458.181000 1960.502197,458.115326 1961.658447,458.132202   C1961.567383,459.084137 1961.094238,459.953522 1960.621216,460.822906   C1960.080688,460.194855 1959.540039,459.566772 1958.976562,458.592712  z"/>
<path id="" fill="#2C6E87" opacity="0" stroke="none" d=" M1956.563232,438.064026   C1956.968140,438.094879 1956.989746,438.524902 1957.011719,438.739014   C1955.723633,438.911743 1954.413452,438.870331 1953.016357,438.500793   C1954.005737,438.126129 1955.082031,438.079651 1956.563232,438.064026  z"/>
<path id="" fill="#000714" opacity="0" stroke="none" d=" M955.061646,206.513977   C956.062317,206.139984 957.139526,206.090714 958.615845,206.115356   C957.722656,206.405746 956.430481,206.622223 955.061646,206.513977  z"/>
<path id="" fill="#000B1B" opacity="0" stroke="none" d=" M1937.945068,434.481049   C1936.826660,434.745728 1935.631348,434.682495 1934.197998,434.345947   C1935.262573,434.099457 1936.565430,434.126312 1937.945068,434.481049  z"/>
<path id="" fill="#000B1B" opacity="0" stroke="none" d=" M1953.057617,457.495911   C1954.175659,457.234558 1955.369019,457.302277 1956.797852,457.645325   C1955.733276,457.888733 1954.433228,457.856873 1953.057617,457.495911  z"/>
<path id="" fill="#2C6E87" opacity="0" stroke="none" d=" M1934.414062,453.880066   C1934.047852,453.840485 1934.020508,453.433258 1933.984619,453.232208   C1935.195190,453.114929 1936.441406,453.198730 1937.600098,453.655212   C1937.331177,454.089233 1937.150146,454.150543 1936.969238,454.211853   C1936.239502,454.114441 1935.509888,454.017029 1934.414062,453.880066  z"/>
<path id="" fill="#000B1B" opacity="0" stroke="none" d=" M1937.035034,454.523621   C1937.150146,454.150543 1937.331177,454.089233 1937.781006,453.926117   C1938.474121,453.887360 1938.898560,453.950348 1939.644043,454.040100   C1939.964966,454.066864 1940.014526,454.493225 1940.031006,454.707123   C1939.065186,454.892487 1938.083008,454.863953 1937.035034,454.523621  z"/>
<path id="" fill="#000B1B" opacity="0" stroke="none" d=" M1867.956665,422.496887   C1867.128662,422.752747 1866.236084,422.697571 1865.159180,422.354309   C1865.947266,422.106110 1866.919678,422.145996 1867.956665,422.496887  z"/>
<path id="" fill="#2C6E87" opacity="0" stroke="none" d=" M1928.008179,433.984009   C1926.173340,433.831055 1924.338379,433.678101 1922.257935,433.223083   C1923.683228,432.950012 1925.354126,432.979065 1927.489380,433.262085   C1927.953735,433.516113 1928.008179,433.983978 1928.008179,433.984009  z"/>
<path id="" fill="#26718C" opacity="0" stroke="none" d=" M1411.082764,196.362061   C1412.026489,196.185669 1413.236206,196.266647 1414.709229,196.595001   C1413.764526,196.768036 1412.556519,196.693726 1411.082764,196.362061  z"/>
<path id="" fill="#2C6E87" opacity="0" stroke="none" d=" M1882.012451,444.328918   C1882.426392,444.179474 1883.017090,444.298798 1883.806274,444.652740   C1883.399536,444.790802 1882.794434,444.694244 1882.012451,444.328918  z"/>
<path id="" fill="#2C6E87" opacity="0" stroke="none" d=" M1966.529175,455.312012   C1966.632202,454.900146 1967.040771,454.482544 1967.774292,454.061462   C1967.677856,454.474060 1967.256348,454.890137 1966.529175,455.312012  z"/>
<path id="" fill="#2C6E87" opacity="0" stroke="none" d=" M1886.250244,444.975342   C1886.276611,444.816650 1886.553467,444.720917 1886.919312,444.785278   C1886.839111,444.976318 1886.669922,445.007324 1886.250244,444.975342  z"/>
<path id="" fill="#000B1B" opacity="0" stroke="none" d=" M1836.845947,417.537781   C1836.984619,417.718323 1836.505493,417.747864 1836.505493,417.747864   C1836.505493,417.747864 1836.110962,417.474365 1835.985718,417.268555   C1836.181519,417.049255 1836.463867,417.147430 1836.845947,417.537781  z"/>
<path id="" fill="#000B1B" opacity="0" stroke="none" d=" M1928.276367,433.958984   C1928.008179,433.983978 1927.953735,433.516113 1927.906006,433.285522   C1928.192139,433.052094 1928.485718,433.159424 1928.893066,433.558014   C1928.879517,433.804077 1928.712036,433.869019 1928.276367,433.958984  z"/>
<path id="" fill="#000B1B" opacity="0" stroke="none" d=" M1410.906494,179.082123   C1411.127197,179.053009 1410.994507,179.487274 1410.918213,179.700912   C1410.842041,179.914551 1410.420044,179.830582 1410.219971,179.751602   C1410.170410,179.400909 1410.392334,179.213776 1410.906494,179.082123  z"/>
<path id="" fill="#000B1B" opacity="0" stroke="none" d=" M1870.273804,423.920685   C1870.032837,423.947784 1869.977295,423.496796 1869.929688,423.274780   C1870.201294,423.049072 1870.478516,423.155243 1870.843994,423.555176   C1870.974487,423.739044 1870.514771,423.893585 1870.273804,423.920685  z"/>
<path id="" fill="#2C6E87" opacity="0" stroke="none" d=" M1344.775391,199.040100   C1344.589111,199.347870 1344.113159,199.650925 1343.335693,199.892456   C1343.518066,199.565750 1344.001709,199.300583 1344.775391,199.040100  z"/>
<path id="" fill="#2C6E87" opacity="0" stroke="none" d=" M1931.945068,452.427032   C1929.191895,452.411499 1926.327148,452.046722 1923.212524,451.390076   C1925.919556,451.424713 1928.876465,451.751221 1931.945068,452.427032  z"/>
<path id="" fill="#2C6E87" opacity="0" stroke="none" d=" M1965.495605,440.101196   C1966.508301,440.911011 1967.144653,441.667511 1967.908569,442.693420   C1965.397705,441.924896 1962.759521,440.886993 1960.034790,439.515564   C1961.671997,439.470642 1963.395752,439.759247 1965.495605,440.101196  z"/>
<path id="" fill="#2C6E87" opacity="0" stroke="none" d=" M1947.035278,437.530975   C1948.138672,437.281067 1949.328735,437.354767 1950.771240,437.686646   C1949.723145,437.914734 1948.422607,437.884674 1947.035278,437.530975  z"/>
<path id="" fill="#2C6E87" opacity="0" stroke="none" d=" M831.056763,201.182205   C829.027832,202.170410 826.565430,203.830032 824.070679,203.880264   C811.355896,204.136322 798.632812,203.976212 785.447571,203.886780   C786.330200,203.209183 787.686096,202.069168 789.024231,202.089630   C798.975891,202.241714 808.923889,202.824921 818.873413,202.834000   C822.784546,202.837555 826.696716,201.718948 831.056763,201.182205  z"/>
</svg>