<svg version="1.1" id="Layer_1" xmlns="http://www.w3.org/2000/svg" xmlns:xlink="http://www.w3.org/1999/xlink" x="0px" y="0px" height="100%" viewBox="0 0 3420 1800" enable-background="new 0 0 3420 1800" xml:space="preserve">
<path id="" class="lim" fill="#FEFEFE" opacity="0" stroke="none" d=" M1893.192017,270.615540   C1921.048950,273.977997 1948.026978,277.133820 1975.011475,280.230927   C1983.562134,281.212280 1983.822510,281.146515 1983.622681,289.640717   C1983.020264,315.234375 1982.309814,340.837708 1981.326660,366.405701   C1980.676025,383.328217 1980.591675,400.274017 1979.704102,417.191193   C1978.449585,441.097504 1978.419434,465.058289 1977.371582,488.955078   C1976.526855,508.220856 1976.600830,527.504822 1975.537354,546.736511   C1974.325195,568.659241 1974.493896,590.613159 1973.423706,612.508362   C1972.481812,631.775696 1972.518066,651.061462 1971.486938,670.293396   C1970.311401,692.219421 1970.676758,714.182556 1969.415283,736.059875   C1968.304077,755.331726 1968.660889,774.619751 1967.485107,793.843933   C1966.733521,806.131165 1966.643799,818.400391 1966.165894,830.673340   C1966.010376,834.661316 1966.655518,837.437012 1969.641357,840.291626   C1997.306885,866.741211 2024.809326,893.361389 2052.375977,919.914734   C2064.848633,931.928894 2076.888184,944.372375 2089.510498,956.251038   C2108.909668,974.507202 2127.585205,993.529724 2146.656494,1012.136353   C2184.315430,1048.877930 2221.874512,1085.724487 2259.789795,1122.200073   C2282.585693,1144.130249 2305.358398,1166.077271 2327.871582,1188.299194   C2347.061523,1207.240967 2366.541748,1225.890991 2386.065918,1244.489014   C2389.920410,1248.160522 2392.447754,1251.954590 2392.019043,1257.422119   C2391.890625,1259.061157 2392.362061,1260.739990 2392.313965,1262.393555   C2391.377441,1294.690186 2394.181885,1326.927246 2393.748047,1359.225098   C2393.475098,1379.534058 2393.482422,1399.885010 2394.462158,1420.164062   C2396.261963,1457.414917 2395.722412,1494.686890 2396.615967,1531.934448   C2396.990479,1547.540405 2397.585938,1563.155273 2397.644775,1578.775024   C2397.689941,1590.839722 2398.826172,1589.651489 2387.150635,1589.654663   C2318.151611,1589.673950 2249.152588,1589.664307 2180.153564,1589.664307   C2143.820801,1589.664307 2107.475098,1590.294067 2071.157715,1589.549805   C1947.550781,1587.017334 1823.932739,1589.369873 1700.328491,1588.236938   C1586.012207,1587.189087 1471.683838,1589.073242 1357.388306,1587.398315   C1236.773804,1585.630981 1116.167725,1587.418213 995.566772,1586.239258   C881.251343,1585.121948 766.923523,1587.045166 652.627930,1585.388062   C532.344910,1583.644165 412.072906,1585.101562 291.799133,1584.331299   C290.799164,1584.324951 289.798157,1584.359497 288.799316,1584.325073   C281.832703,1584.084839 281.884155,1583.988892 282.892029,1576.672852   C287.413147,1543.854614 291.816711,1511.020386 296.326263,1478.200684   C301.329865,1441.784912 306.424500,1405.381592 311.427643,1368.965698   C312.510620,1361.083374 313.500031,1353.183228 314.281372,1345.266357   C314.657928,1341.450806 315.981140,1340.161987 320.039978,1340.795654   C351.788788,1345.752441 383.561554,1350.558350 415.343811,1355.297241   C443.519806,1359.498291 471.730011,1363.470581 499.902893,1367.692017   C548.063721,1374.908813 596.194946,1382.323975 644.361755,1389.499634   C681.719177,1395.064819 719.128967,1400.278564 756.484802,1405.853882   C803.993042,1412.944458 851.466614,1420.267456 898.963928,1427.431763   C909.778198,1429.062988 920.614990,1430.563721 931.467224,1431.917480   C938.792053,1432.831421 938.984619,1432.702393 940.343933,1425.684204   C947.027710,1391.176025 953.610901,1356.648193 960.232239,1322.127930   C971.287292,1264.491821 982.377441,1206.862549 993.392273,1149.218750   C1006.772095,1079.197632 1020.139587,1009.173950 1033.419678,939.133850   C1048.429810,859.969604 1063.258423,780.770935 1078.312134,701.614990   C1092.003052,629.625549 1105.916870,557.678528 1119.682861,485.703339   C1133.011841,416.012634 1146.309570,346.315918 1159.555420,276.609406   C1164.569824,250.221085 1169.385620,223.795074 1174.324097,197.392227   C1176.044434,188.195114 1176.066895,188.385895 1185.417969,189.492630   C1203.838013,191.672714 1222.293213,193.554535 1240.718384,195.693695   C1274.277100,199.589844 1307.817017,203.649536 1341.379150,207.515686   C1367.712524,210.549133 1394.078369,213.299652 1420.410400,216.344681   C1457.579712,220.642944 1494.724854,225.149094 1531.892212,229.465927   C1556.243774,232.294281 1580.622803,234.886978 1604.977539,237.689453   C1638.867676,241.589157 1672.738647,245.655548 1706.632935,249.519852   C1733.301880,252.560410 1760.004395,255.306641 1786.671997,258.358215   C1820.231567,262.198425 1853.770142,266.221436 1887.320435,270.142670   C1888.972412,270.335754 1890.649902,270.310059 1893.192017,270.615540  z"/>
<path id="" class="lim" fill="#FEFEFE" opacity="0" stroke="none" d=" M1016.209473,163.797699   C1055.582031,168.433701 1094.050415,173.003708 1132.525757,177.515900   C1136.485107,177.980255 1140.488037,178.060471 1144.465088,178.389420   C1148.613159,178.732513 1149.907104,180.334351 1148.953735,184.952179   C1144.193848,208.008728 1140.000610,231.181427 1135.428833,254.277771   C1124.291016,310.546204 1113.012939,366.786835 1101.867920,423.053864   C1088.271851,491.695221 1074.746338,560.350525 1061.205688,629.002930   C1049.464233,688.533203 1037.763672,748.071533 1026.008179,807.598938   C1016.436401,856.068604 1006.791382,904.523743 997.212769,952.991943   C985.512939,1012.193420 973.859070,1071.403931 962.165283,1130.606689   C952.525330,1179.411499 942.851257,1228.209595 933.201233,1277.012451   C926.125610,1312.795898 919.063110,1348.582153 912.004761,1384.368896   C911.811890,1385.347046 911.798218,1386.361206 911.591492,1387.335449   C910.029602,1394.696045 909.674194,1395.037720 902.509766,1393.666016   C893.718140,1391.982788 884.970154,1390.071411 876.200439,1388.272949   C837.217651,1380.277832 798.237671,1372.269165 759.249512,1364.300781   C692.968384,1350.754272 626.669861,1337.292969 560.400635,1323.688721   C480.491211,1307.283936 400.604767,1290.767090 320.707581,1274.302612   C320.382629,1274.235718 320.040131,1274.253784 319.715302,1274.186646   C309.041779,1271.979492 309.102478,1271.991333 311.241486,1261.757324   C325.420563,1193.916748 339.571045,1126.070068 353.731995,1058.225586   C368.029510,989.726624 382.320038,921.226196 396.628937,852.729553   C409.173248,792.680115 421.722595,732.631653 434.299774,672.589050   C445.790833,617.731567 457.343231,562.886963 468.829926,508.028503   C481.334381,448.309540 493.782043,388.578705 506.277130,328.857788   C517.755188,273.998016 529.261108,219.144058 540.759827,164.288589   C543.890076,149.355362 546.930725,134.402145 550.216370,119.503082   C552.484070,109.219765 551.522278,109.854332 561.320374,111.293915   C580.645447,114.133247 600.148193,115.747108 619.561707,118.003563   C652.448853,121.826065 685.316284,125.819321 718.206299,129.616684   C744.205261,132.618408 770.237915,135.328979 796.233704,138.357101   C833.395630,142.685867 870.527466,147.273209 907.691528,151.583221   C932.698547,154.483368 957.742432,157.064682 982.762939,159.850128   C993.619934,161.058777 1004.459717,162.422150 1016.209473,163.797699  z"/>
<path id="" class="lim" fill="#FEFEFE" opacity="0" stroke="none" d=" M2332.198730,305.688721   C2362.468018,308.594666 2391.820068,311.451233 2421.167725,314.351501   C2468.305420,319.009888 2515.441406,323.687683 2562.576172,328.375397   C2595.871338,331.686737 2629.166992,334.995178 2662.456299,338.365723   C2693.762695,341.535553 2725.053955,344.854797 2756.364990,347.976166   C2778.785645,350.211304 2801.219727,352.330994 2823.668457,354.260529   C2828.437256,354.670441 2830.494873,356.932587 2832.023438,361.231812   C2839.701172,382.824341 2847.753906,404.283081 2855.541260,425.837128   C2877.436035,486.437592 2899.247803,547.068054 2921.125000,607.674988   C2944.918457,673.592163 2968.712402,739.509216 2992.572754,805.402283   C3014.285156,865.363098 3036.145264,925.270447 3057.832275,985.240356   C3081.438965,1050.518921 3104.868408,1115.861450 3128.473145,1181.140747   C3150.158447,1241.111450 3172.030029,1301.014771 3193.717285,1360.984985   C3217.323730,1426.263062 3240.813965,1491.583374 3264.351562,1556.886475   C3271.783691,1577.506714 3279.243164,1598.117188 3286.606934,1618.761841   C3288.707275,1624.650391 3288.603271,1624.816528 3282.481689,1626.384155   C3262.544922,1631.489624 3242.601807,1636.572510 3222.614746,1641.475708   C3219.431396,1642.256592 3216.010498,1642.294678 3212.699463,1642.295654   C3069.703125,1642.333130 2926.707031,1642.328003 2783.710693,1642.327393   C2782.377441,1642.327393 2781.038086,1642.238281 2779.712158,1642.335449   C2775.927002,1642.612671 2774.504639,1640.980347 2774.280029,1637.124756   C2773.624512,1625.868408 2772.691650,1614.624268 2771.656006,1603.394897   C2768.644043,1570.742798 2765.444580,1538.108032 2762.486328,1505.451172   C2760.721191,1485.968872 2759.411621,1466.445312 2757.648193,1446.962769   C2754.662598,1413.976685 2751.389893,1381.016602 2748.414307,1348.029663   C2746.656982,1328.547729 2745.385010,1309.021851 2743.634766,1289.539185   C2740.701172,1256.881226 2737.557617,1224.241943 2734.515137,1191.593628   C2734.391846,1190.269165 2734.194336,1188.901978 2734.383301,1187.605835   C2736.124512,1175.659058 2729.648926,1168.104736 2721.295654,1160.812256   C2703.526123,1145.299561 2686.267334,1129.201660 2668.811035,1113.330688   C2647.417969,1093.880371 2626.010742,1074.445923 2604.658447,1054.950806   C2584.033203,1036.119507 2563.496094,1017.191284 2542.872559,998.358093   C2521.030029,978.411682 2499.112061,958.547974 2477.262695,938.609131   C2460.810547,923.595459 2444.445801,908.485962 2427.986084,893.480591   C2402.196777,869.969971 2376.316895,846.558533 2350.557129,823.015808   C2329.697510,803.951355 2308.992676,784.717163 2288.149658,765.634399   C2278.348145,756.661072 2268.479248,747.756592 2258.454346,739.035095   C2252.938721,734.236389 2249.540771,729.246155 2250.106934,721.175049   C2250.967529,708.902527 2249.949707,696.511230 2250.392334,684.194214   C2252.233398,632.948975 2251.423828,581.665955 2252.602295,530.426697   C2253.689453,483.163147 2253.295654,435.881714 2254.723877,388.655975   C2255.558594,361.049683 2254.357666,333.421844 2256.277100,305.859375   C2256.825684,297.986176 2256.965088,298.293640 2265.009033,299.164948   C2282.473633,301.056580 2299.973877,302.614685 2317.459717,304.310547   C2322.066406,304.757355 2326.672852,305.209351 2332.198730,305.688721  z"/>
<path id="" class="lim" fill="#FBFBFB" opacity="0" stroke="none" d=" M2645.372559,1290.723877   C2639.256104,1259.992920 2633.365234,1230.078369 2627.512207,1200.156372   C2626.219971,1193.550903 2626.241943,1193.389771 2632.838379,1191.623047   C2655.586914,1185.531128 2678.418945,1179.743530 2701.089355,1173.376587   C2705.850342,1172.039429 2706.913086,1173.684082 2707.839355,1177.522949   C2712.430664,1196.546997 2717.168457,1215.535767 2721.795410,1234.551514   C2724.696289,1246.474121 2727.076172,1258.544189 2730.517822,1270.305908   C2732.137939,1275.841553 2730.423340,1277.014526 2725.587402,1278.358643   C2701.308838,1285.106934 2677.152344,1292.293701 2652.926270,1299.232056   C2647.217529,1300.867065 2647.169434,1300.699097 2645.372559,1290.723877  z"/>
<path id="" fill="#197196" opacity="0" stroke="none" d=" M3066.000000,1704.323975   C3028.359375,1704.150146 2991.670166,1705.080811 2955.091797,1703.481323   C2920.796387,1701.981445 2886.542725,1702.994751 2852.279541,1702.305298   C2849.954102,1702.258545 2847.575195,1702.288574 2845.320801,1701.811768   C2839.426270,1700.565063 2837.113281,1697.055176 2837.795898,1690.905029   C2838.370117,1685.732544 2840.306152,1684.149048 2846.625244,1683.730225   C2847.620850,1683.664185 2848.623535,1683.702148 2849.623047,1683.705566   C2904.255127,1683.891113 2958.915283,1683.047607 3013.511475,1684.544556   C3072.109131,1686.150879 3130.695557,1685.544556 3189.282959,1686.252686   C3194.673584,1686.317993 3199.793457,1685.602417 3204.957275,1683.928711   C3231.532227,1675.315063 3258.173584,1666.904663 3284.807617,1658.473999   C3287.645264,1657.575806 3290.556885,1656.597778 3293.488281,1656.377319   C3298.628662,1655.990601 3301.478760,1659.246338 3302.795898,1663.785034   C3304.065674,1668.160767 3302.322754,1671.661255 3298.489014,1673.869751   C3296.506104,1675.011963 3294.174316,1675.581665 3291.960938,1676.286255   C3262.170654,1685.771240 3232.364014,1695.204590 3202.591797,1704.745117   C3199.354980,1705.782227 3196.146240,1706.230347 3192.783203,1706.177612   C3150.855957,1705.519043 3108.948730,1703.502441 3066.000000,1704.323975  z"/>
<path id="" fill="#197296" opacity="0" stroke="none" d=" M2473.791504,1470.000000   C2473.787598,1553.321777 2473.783936,1635.643555 2473.779297,1717.965332   C2473.779297,1720.298340 2473.910156,1722.641724 2473.737305,1724.962280   C2473.347656,1730.197876 2469.661133,1733.779053 2464.907959,1733.727539   C2460.219482,1733.676758 2456.326660,1730.047607 2455.811279,1724.947388   C2455.544189,1722.305786 2455.691406,1719.619995 2455.691406,1716.954102   C2455.692139,1574.973999 2455.696777,1432.994019 2455.701904,1291.013916   C2455.701904,1288.680908 2455.571045,1286.337280 2455.745361,1284.016968   C2456.192871,1278.058838 2458.122070,1276.068481 2463.514404,1275.719238   C2469.243408,1275.348267 2472.742432,1277.739014 2473.589355,1283.041870   C2474.005371,1285.647095 2473.784912,1288.360474 2473.785400,1291.024902   C2473.793213,1350.349976 2473.791504,1409.674927 2473.791504,1470.000000  z"/>
<path id="" fill="#1A7195" opacity="0" stroke="none" d=" M429.898254,335.813110   C422.568054,375.512634 415.332733,414.360168 408.091156,453.206512   C402.066284,485.525970 396.050232,517.847107 389.970459,550.156189   C389.544983,552.417297 388.914062,554.733887 387.873322,556.765747   C385.615448,561.174011 381.573578,562.795715 376.991302,561.379578   C372.650909,560.038269 370.320282,556.892822 370.402740,552.461060   C370.457520,549.517395 371.386353,546.588867 371.934601,543.655579   C382.305542,488.168915 392.704498,432.687500 403.041565,377.194550   C410.703766,336.061157 418.258118,294.907715 425.917206,253.773788   C429.077820,236.799438 432.450104,219.864410 435.583923,202.885254   C436.369080,198.631317 437.916626,195.212982 442.401825,194.025558   C449.289520,192.202118 454.869415,196.908112 454.054199,204.686996   C453.190979,212.923813 451.303314,221.056061 449.801910,229.222733   C443.798218,261.879211 437.777985,294.532654 431.738281,327.182495   C431.255280,329.793610 430.577606,332.368744 429.898254,335.813110  z"/>
<path id="" fill="#1A7195" opacity="0" stroke="none" d=" M3227.808594,1382.235107   C3223.598633,1369.486816 3219.638916,1357.487427 3215.560059,1345.528442   C3214.585449,1342.671509 3213.684814,1339.867554 3213.740234,1336.801270   C3213.822998,1332.219727 3216.028564,1329.235352 3220.370850,1327.964722   C3224.837402,1326.657715 3229.005859,1328.433594 3231.205566,1332.838989   C3232.682373,1335.797363 3233.693115,1339.004395 3234.747314,1342.155273   C3259.222412,1415.303467 3283.657959,1488.465210 3308.144287,1561.609619   C3313.841064,1578.627319 3319.696045,1595.592163 3325.481934,1612.579834   C3326.125488,1614.469116 3326.996338,1616.306519 3327.412109,1618.242920   C3328.494141,1623.285400 3325.808594,1626.621216 3321.749023,1628.811768   C3317.661621,1631.017700 3314.074951,1629.566040 3310.985596,1626.376343   C3308.790771,1624.110229 3308.104736,1621.179932 3307.157227,1618.354126   C3290.882568,1569.816284 3274.640381,1521.267334 3258.334717,1472.739746   C3248.277588,1442.809570 3238.124756,1412.911377 3227.808594,1382.235107  z"/>
<path id="" fill="#1A7195" opacity="0" stroke="none" d=" M3099.272949,1010.437500   C3098.677490,1008.725098 3098.213867,1007.789978 3098.115479,1006.817749   C3097.371338,999.469116 3099.466553,995.993958 3105.279541,994.772400   C3110.280273,993.721497 3114.031982,996.071960 3116.295898,1002.298645   C3120.952393,1015.107056 3125.439697,1027.977905 3129.898926,1040.857056   C3145.996094,1087.349121 3162.076416,1133.847046 3178.114746,1180.359497   C3186.892090,1205.815063 3195.570068,1231.304810 3204.301758,1256.776001   C3204.624756,1257.719238 3205.169678,1258.600342 3205.393311,1259.561035   C3206.805176,1265.626953 3204.702148,1270.395874 3200.010742,1271.916260   C3194.389648,1273.738159 3189.809082,1271.736816 3187.515625,1265.631226   C3182.372314,1251.940186 3177.447510,1238.162842 3172.671143,1224.338867   C3153.568848,1169.051392 3134.536865,1113.739624 3115.525879,1058.420654   C3110.125977,1042.707886 3104.886719,1026.940186 3099.272949,1010.437500  z"/>
<path id="" fill="#1A7195" opacity="0" stroke="none" d=" M3068.655273,667.366211   C3055.111328,664.691711 3042.388428,662.237366 3029.651123,659.858337   C3025.355957,659.056030 3022.160889,656.767761 3020.784668,652.696716   C3019.476807,648.827942 3021.375000,645.498901 3024.013672,642.786011   C3026.911133,639.806763 3030.324707,640.318665 3034.190918,641.107361   C3068.385254,648.082397 3102.611328,654.909668 3136.867920,661.574158   C3182.537842,670.459106 3228.244873,679.153259 3273.932617,687.945923   C3279.480469,689.013550 3285.057373,689.988342 3290.533447,691.355896   C3297.276855,693.039917 3299.488770,696.657166 3298.122070,702.944885   C3296.986572,708.169128 3293.035645,710.843018 3286.745361,709.887024   C3278.861328,708.688782 3271.042480,707.047302 3263.212402,705.510681   C3216.901123,696.422485 3170.598145,687.292603 3124.285400,678.212830   C3106.023438,674.632568 3087.742920,671.145386 3068.655273,667.366211  z"/>
<path id="" fill="#1A7195" opacity="0" stroke="none" d=" M3067.958008,872.019409   C3074.241699,892.821411 3080.402344,912.826782 3086.464844,932.861938   C3089.234863,942.015625 3084.692871,947.458069 3075.721680,946.279846   C3070.692627,945.619263 3069.391357,941.832031 3068.187744,938.065247   C3064.243408,925.723022 3060.470459,913.325562 3056.684082,900.933350   C3044.742920,861.852661 3032.851562,822.756836 3020.891602,783.682007   C3011.755127,753.831848 3002.553711,724.001587 2993.358643,694.169312   C2991.120117,686.905701 2992.837891,681.883850 2998.286377,680.079529   C3004.650146,677.972107 3009.275146,680.694153 3011.613281,688.301758   C3019.812256,714.976929 3027.864990,741.697021 3036.058838,768.373779   C3046.594238,802.674133 3057.212646,836.949036 3067.958008,872.019409  z"/>
<path id="" fill="#1A7195" opacity="0" stroke="none" d=" M347.393372,769.286011   C341.425598,800.478577 335.689758,830.844666 329.988617,861.217346   C329.109589,865.900269 328.247528,870.584045 322.705719,872.009766   C315.320892,873.909668 309.442169,868.568848 310.700867,860.734314   C312.492065,849.585693 314.661194,838.495667 316.783875,827.402710   C326.525909,776.492249 336.306274,725.589172 346.076691,674.684143   C348.643982,661.308105 351.238892,647.937317 353.791016,634.558411   C354.589905,630.370483 356.190796,626.941467 360.897095,625.989441   C367.889069,624.575073 373.045654,629.187195 372.099762,637.125366   C370.961212,646.680481 368.930847,656.135071 367.143799,665.606201   C360.673737,699.897461 354.143921,734.177490 347.393372,769.286011  z"/>
<path id="" fill="#1A7195" opacity="0" stroke="none" d=" M2982.694824,599.299561   C2984.159424,603.494690 2985.473145,606.914246 2986.517334,610.414124   C2988.738037,617.857056 2986.542480,623.292480 2980.740234,625.109375   C2975.818848,626.650513 2971.009033,623.282349 2968.377197,616.184875   C2964.219971,604.972900 2960.164795,593.722778 2956.116699,582.470642   C2940.709473,539.643799 2925.316162,496.811859 2909.931152,453.976868   C2904.988770,440.215729 2900.142578,426.419678 2895.138184,412.681122   C2893.562500,408.355682 2894.570068,404.749207 2897.803711,401.849304   C2900.808838,399.154175 2904.584961,399.082184 2908.148926,400.438812   C2911.949707,401.885498 2913.082031,405.638916 2914.341064,409.068726   C2918.236572,419.678955 2922.082520,430.307648 2925.899658,440.946381   C2944.749023,493.481232 2963.583008,546.021729 2982.694824,599.299561  z"/>
<path id="" fill="#1A7195" opacity="0" stroke="none" d=" M2233.387695,1002.691711   C2235.934082,1005.373901 2238.196777,1007.404175 2239.902832,1009.826477   C2242.492676,1013.503479 2242.221924,1017.401550 2239.425781,1020.918213   C2236.534180,1024.554810 2232.634277,1024.995605 2228.613281,1023.365417   C2226.513916,1022.514282 2224.548584,1021.071838 2222.849121,1019.535217   C2198.690430,997.691345 2174.631836,975.736633 2150.458740,953.908813   C2127.035400,932.758118 2103.500000,911.731812 2080.034668,890.627686   C2076.078369,887.069458 2072.161377,883.462219 2068.344482,879.755737   C2063.103027,874.665588 2062.318848,869.181885 2066.041016,864.845581   C2069.734131,860.543274 2075.443848,860.689514 2080.926758,865.566833   C2094.330566,877.490295 2107.627930,889.533569 2120.970459,901.525696   C2144.938477,923.067688 2168.937012,944.576416 2192.865479,966.162231   C2203.726074,975.959351 2214.434082,985.925354 2225.249023,995.773254   C2227.703857,998.008728 2230.315186,1000.072510 2233.387695,1002.691711  z"/>
<path id="" fill="#1A7195" opacity="0" stroke="none" d=" M2439.463379,1200.701416   C2442.066650,1203.358765 2444.371582,1205.337402 2446.201416,1207.685791   C2449.243408,1211.589478 2449.015869,1217.359619 2446.024414,1220.520142   C2442.566650,1224.173340 2437.998047,1224.641724 2433.379395,1221.533691   C2431.468506,1220.247681 2429.821533,1218.538574 2428.167236,1216.907593   C2408.967773,1197.980957 2389.838867,1178.982178 2370.594482,1160.101440   C2341.855713,1131.905884 2313.038818,1103.789673 2284.257324,1075.637695   C2282.829590,1074.241089 2281.347412,1072.890869 2280.017334,1071.405518   C2275.583740,1066.454102 2275.167480,1062.066650 2278.675537,1058.182251   C2281.493896,1055.061523 2288.453857,1054.550903 2292.463623,1057.357422   C2294.082031,1058.490356 2295.425781,1060.026978 2296.849365,1061.425537   C2335.307861,1099.201782 2373.619141,1137.130005 2412.321289,1174.655151   C2421.143799,1183.209473 2430.222168,1191.521851 2439.463379,1200.701416  z"/>
<path id="" fill="#1A7195" opacity="0" stroke="none" d=" M199.365967,1468.516357   C202.019135,1475.094116 200.244339,1481.100098 199.485428,1486.873657   C193.817596,1529.993286 187.765503,1573.062378 181.838287,1616.147827   C179.124634,1635.873779 176.483566,1655.610107 173.682663,1675.323608   C172.542236,1683.350220 170.247467,1685.875610 164.479156,1686.311523   C157.365692,1686.849243 153.448090,1682.772217 154.360550,1675.058838   C155.646851,1664.185059 157.406799,1653.368164 158.885666,1642.516235   C161.888763,1620.479248 164.817963,1598.432251 167.816025,1576.394653   C172.513687,1541.863892 177.150192,1507.324341 182.022476,1472.818115   C183.288773,1463.849976 190.611755,1461.875732 199.365967,1468.516357  z"/>
<path id="" fill="#1A7195" opacity="0" stroke="none" d=" M281.322815,1015.171021   C285.355713,990.370850 289.203247,966.425476 293.072479,942.483643   C293.390839,940.513977 293.641510,938.492310 294.298218,936.626709   C295.686646,932.682495 300.336823,929.846008 304.572479,930.334412   C309.226959,930.870972 311.710297,933.867859 312.080261,938.300720   C312.354858,941.590698 312.242950,944.998169 311.711578,948.256836   C306.953491,977.436890 302.005615,1006.586060 297.229156,1035.763184   C292.024414,1067.556641 286.949677,1099.371460 281.796173,1131.173340   C281.317810,1134.125122 280.833435,1137.090820 280.086182,1139.981323   C278.338074,1146.743286 275.031403,1149.042847 268.624756,1148.202026   C263.361633,1147.511353 261.287262,1145.251221 261.921356,1138.074951   C262.884735,1127.171997 264.527191,1116.312378 266.281860,1105.499390   C271.124481,1075.657104 276.174896,1045.848633 281.322815,1015.171021  z"/>
<path id="" fill="#197296" opacity="0" stroke="none" d=" M2037.676270,352.023010   C2037.705200,343.700897 2037.519897,336.364197 2037.830444,329.048584   C2038.082886,323.100616 2041.188843,320.230133 2046.422119,320.267822   C2051.553955,320.304779 2054.928955,323.315582 2055.620117,328.856079   C2055.947754,331.483551 2055.770264,334.177765 2055.770508,336.841766   C2055.777832,403.791046 2055.781006,470.740356 2055.775146,537.689636   C2055.774902,540.352295 2056.019043,543.073547 2055.564453,545.664856   C2054.730957,550.414917 2049.913574,554.085876 2045.596313,553.699036   C2041.428223,553.325500 2038.195190,549.830505 2037.746338,544.868286   C2037.507324,542.224487 2037.678467,539.542847 2037.678467,536.878296   C2037.676636,475.591370 2037.676636,414.304443 2037.676270,352.023010  z"/>
<path id="" fill="#1A7196" opacity="0" stroke="none" d=" M2055.781738,807.041504   C2055.669434,808.894226 2055.755615,809.953308 2055.428223,810.863708   C2053.029297,817.534302 2049.868896,820.153564 2045.041504,819.611816   C2039.989258,819.044861 2036.438599,814.640503 2036.231323,808.139221   C2035.934570,798.835754 2035.731934,789.523987 2035.754639,780.216431   C2035.846680,742.340027 2033.493896,704.517029 2033.497559,666.633423   C2033.499268,648.729126 2031.642456,630.825134 2032.164673,612.880371   C2032.414673,604.289734 2036.191162,600.711243 2043.578613,601.773743   C2047.343384,602.315186 2049.856201,604.241028 2050.161865,608.065979   C2050.610596,613.682800 2051.930420,619.165283 2051.866943,624.886047   C2051.726562,637.515259 2052.267090,650.150452 2052.260498,662.783081   C2052.240234,701.660889 2054.778809,740.488220 2054.435303,779.375427   C2054.356201,788.305237 2055.309814,797.244202 2055.781738,807.041504  z"/>
<path id="" fill="#1A7195" opacity="0" stroke="none" d=" M202.636993,1366.706299   C214.404739,1315.339355 225.969315,1264.785767 237.447433,1214.212524   C238.191895,1210.932251 238.504700,1207.609131 241.435425,1205.375977   C244.717026,1202.875366 248.456711,1203.268921 251.927841,1204.333008   C255.706223,1205.491333 256.235626,1208.924316 256.251770,1212.470215   C256.293304,1221.599854 253.170685,1230.152466 251.241806,1238.875244   C239.541656,1291.785889 227.488419,1344.618286 215.527115,1397.471069   C214.939941,1400.065430 214.295486,1402.675659 213.351898,1405.154419   C211.499573,1410.020508 206.789856,1412.923462 202.556351,1412.070679   C197.867294,1411.125854 194.367203,1406.232788 195.385361,1400.684814   C197.184174,1390.883057 199.573502,1381.189697 201.700256,1371.447632   C201.984222,1370.146851 202.178146,1368.826294 202.636993,1366.706299  z"/>
<path id="" fill="#1B7195" opacity="0" stroke="none" d=" M1749.330078,1718.713867   C1748.802368,1721.869263 1748.647705,1724.199463 1748.177856,1726.464355   C1747.147827,1731.427612 1743.776978,1734.332397 1739.335693,1734.302124   C1734.487061,1734.269165 1730.430664,1730.828613 1730.317627,1725.578613   C1730.045654,1712.929810 1729.168579,1700.153076 1730.542358,1687.648560   C1731.970459,1674.650513 1731.149902,1661.741211 1731.683350,1648.806763   C1731.792969,1646.149536 1731.564453,1643.419556 1732.103027,1640.851318   C1733.198730,1635.627808 1736.718262,1633.387817 1742.438232,1633.760010   C1747.933228,1634.117432 1750.086670,1635.962891 1750.229736,1641.958618   C1750.468140,1651.939819 1750.204712,1661.933838 1750.101807,1671.921997   C1749.943970,1687.234619 1749.742798,1702.546753 1749.330078,1718.713867  z"/>
<path id="" fill="#1A7094" opacity="0" stroke="none" d=" M2550.129883,1237.716309   C2556.079346,1237.706421 2561.077881,1237.511353 2566.057861,1237.732666   C2571.692627,1237.982910 2575.708496,1242.012695 2575.735596,1246.984375   C2575.762695,1251.950317 2571.827881,1256.198364 2566.085693,1256.202515   C2546.462891,1256.217163 2526.837158,1256.015015 2507.219727,1255.576294   C2502.992188,1255.481812 2498.121582,1254.758789 2496.366455,1249.957642   C2494.181885,1243.982178 2496.156738,1236.209106 2505.401855,1236.136719   C2520.027588,1236.022095 2534.599854,1236.665405 2550.129883,1237.716309  z"/>
<path id="" fill="#DBDBDB" opacity="0" stroke="none" d=" M2589.867676,1238.638672   C2599.104736,1230.152466 2606.902588,1229.867432 2613.763672,1237.161377   C2617.978027,1241.641479 2619.209229,1249.719360 2616.427734,1254.641235   C2612.851074,1260.970093 2605.122314,1264.056274 2597.498047,1262.199829   C2591.927734,1260.843506 2587.653320,1254.681885 2587.644531,1247.839355   C2587.640625,1244.886353 2587.128174,1241.791260 2589.867676,1238.638672  z"/>
<path id="" fill="#DBDBDB" opacity="0" stroke="none" d=" M465.298676,148.707367   C471.259369,154.442261 471.061005,160.848511 468.165131,166.675842   C465.136627,172.770142 459.504974,175.334641 452.313812,174.459229   C444.949738,173.562759 439.870422,168.414276 439.622009,160.667282   C439.354401,152.322678 444.041077,145.296646 450.961029,144.442764   C455.910309,143.832047 461.053711,143.598480 465.298676,148.707367  z"/>
<path id="" fill="#DBDBDB" opacity="0" stroke="none" d=" M1755.458496,1617.030273   C1745.695679,1626.170410 1737.047485,1626.194336 1730.179199,1617.720703   C1727.283936,1614.149048 1726.552734,1604.608398 1728.873169,1600.683105   C1732.188843,1595.074219 1739.935425,1592.153442 1747.193726,1593.775146   C1752.356323,1594.928589 1757.399414,1601.078003 1757.687988,1606.817139   C1757.854004,1610.117676 1758.162598,1613.515015 1755.458496,1617.030273  z"/>
<path id="" fill="#DBDBDB" opacity="0" stroke="none" d=" M2036.552856,274.131836   C2043.102295,271.414856 2048.796631,270.978729 2054.022217,275.388397   C2060.758545,281.072876 2062.020264,290.332886 2056.885254,296.643982   C2051.368408,303.424316 2041.006470,304.746552 2034.844849,299.456268   C2028.148315,293.706848 2027.371094,284.311096 2033.064209,277.410706   C2033.907471,276.388733 2034.947754,275.529297 2036.552856,274.131836  z"/>
<path id="" fill="#DBDBDB" opacity="0" stroke="none" d=" M207.037476,1424.537720   C216.068970,1434.187500 216.328049,1442.023315 208.454361,1449.117188   C204.596176,1452.593262 194.962814,1453.706543 190.686371,1451.170410   C185.122574,1447.870972 182.160370,1440.008545 183.775467,1432.826538   C185.010651,1427.333984 191.517944,1422.453003 197.810501,1422.277954   C200.824142,1422.193970 203.826752,1422.121582 207.037476,1424.537720  z"/>
<path id="" fill="#DBDBDB" opacity="0" stroke="none" d=" M2898.055908,387.150391   C2892.462891,388.668518 2887.361328,389.488892 2882.766113,387.086517   C2875.816650,383.453156 2873.097656,371.630707 2877.340088,365.279175   C2882.263916,357.907501 2892.452881,355.732666 2899.153809,360.622559   C2906.896973,366.273071 2908.282471,375.974030 2902.312256,383.205780   C2901.261475,384.478363 2899.925781,385.515686 2898.055908,387.150391  z"/>
<path id="" fill="#DBDBDB" opacity="0" stroke="none" d=" M3203.944824,1282.847900   C3209.531982,1281.368652 3214.633789,1280.506592 3219.222168,1282.922974   C3226.203125,1286.599365 3228.917969,1298.364502 3224.664062,1304.718140   C3219.725342,1312.094971 3209.513184,1314.281006 3202.855957,1309.386841   C3195.110840,1303.692749 3193.727539,1294.027100 3199.690918,1286.793335   C3200.739990,1285.520386 3202.077393,1284.484985 3203.944824,1282.847900  z"/>
<path id="" fill="#DBDBDB" opacity="0" stroke="none" d=" M2030.696045,566.698120   C2036.450684,560.788696 2042.827637,560.964417 2048.681152,563.860962   C2054.812500,566.895020 2057.352051,572.516235 2056.460693,579.698120   C2055.596680,586.659424 2050.645264,591.919983 2043.649536,592.378357   C2034.752075,592.961304 2027.356079,588.296265 2026.420410,581.033569   C2025.781982,576.076965 2025.625244,570.951294 2030.696045,566.698120  z"/>
<path id="" fill="#DBDBDB" opacity="0" stroke="none" d=" M323.902771,908.613281   C319.921143,914.266846 316.012787,918.419067 308.895844,917.809570   C301.660797,917.190002 295.191620,912.104126 294.291718,905.377869   C293.271057,897.749146 297.869873,889.648499 304.242126,887.850647   C311.288971,885.862427 320.312286,889.134460 323.295746,895.063354   C325.328888,899.103821 324.278015,903.541321 323.902771,908.613281  z"/>
<path id="" fill="#DBDBDB" opacity="0" stroke="none" d=" M2474.635742,1253.894287   C2465.144531,1262.948242 2455.018066,1262.759155 2448.533447,1254.030151   C2445.354004,1249.750244 2445.296631,1241.588745 2448.414062,1237.138306   C2452.513428,1231.286011 2459.098145,1228.759399 2465.896240,1230.430664   C2470.985107,1231.681519 2476.178467,1237.985840 2476.330322,1243.502441   C2476.420410,1246.779785 2476.968750,1250.185913 2474.635742,1253.894287  z"/>
<path id="" fill="#DBDBDB" opacity="0" stroke="none" d=" M387.475281,601.111755   C381.902313,608.083801 375.057800,607.345154 368.682526,605.456604   C363.025635,603.780945 359.847656,596.726868 360.284637,589.928894   C360.804810,581.837341 367.044067,576.280701 375.590942,576.297241   C384.174591,576.313843 390.160797,581.835327 390.335938,590.188293   C390.410645,593.749573 391.227875,597.612366 387.475281,601.111755  z"/>
<path id="" fill="#DBDBDB" opacity="0" stroke="none" d=" M250.554565,1158.135254   C257.097900,1155.439941 262.795685,1154.979614 268.018402,1159.381592   C274.762329,1165.065552 276.031830,1174.331909 270.903809,1180.616455   C265.391815,1187.371460 255.001785,1188.705566 248.873688,1183.445068   C242.165527,1177.686646 241.379288,1168.307617 247.069489,1161.413330   C247.912399,1160.392090 248.950684,1159.532227 250.554565,1158.135254  z"/>
<path id="" fill="#DBDBDB" opacity="0" stroke="none" d=" M2251.688965,1029.674683   C2257.553711,1023.755981 2264.189209,1024.364502 2269.804688,1026.979248   C2275.806152,1029.773682 2278.739746,1035.481934 2277.781982,1042.736450   C2276.759766,1050.482300 2270.301514,1055.945679 2261.761230,1055.702759   C2253.814941,1055.476685 2247.939697,1049.907715 2247.645752,1042.146729   C2247.482666,1037.845215 2247.036621,1033.377563 2251.688965,1029.674683  z"/>
<path id="" fill="#DBDBDB" opacity="0" stroke="none" d=" M2984.117676,637.375244   C2987.168457,635.365540 2989.870361,635.636658 2992.516357,635.638977   C3000.283203,635.645691 3006.553955,640.418152 3007.656006,647.113647   C3008.960449,655.038391 3004.258545,663.407776 2997.361084,665.438538   C2990.576660,667.435974 2981.647461,663.734009 2978.529541,657.631165   C2975.832764,652.352173 2978.014160,643.718933 2984.117676,637.375244  z"/>
<path id="" fill="#DBDBDB" opacity="0" stroke="none" d=" M3089.483643,985.537292   C3083.642090,981.347107 3080.757812,976.731140 3081.492676,969.873657   C3082.365479,961.727600 3088.071045,956.238281 3096.719971,956.300964   C3105.560791,956.365051 3111.623535,962.397705 3111.722900,971.229431   C3111.820557,979.906494 3106.449219,985.984558 3098.177490,986.325439   C3095.539307,986.434143 3092.881104,986.053406 3089.483643,985.537292  z"/>
<path id="" fill="#DBDBDB" opacity="0" stroke="none" d=" M2051.476074,863.702759   C2042.491577,863.164795 2035.782593,859.039917 2034.578369,853.111816   C2033.250366,846.574402 2034.370605,840.611633 2040.196045,836.188110   C2045.237549,832.359985 2054.688232,832.529724 2059.458496,836.844177   C2064.811523,841.685669 2066.580078,851.384094 2062.594971,856.630188   C2060.034424,860.001038 2057.241455,863.589905 2051.476074,863.702759  z"/>
</svg>