<svg version="1.1" id="Layer_1" xmlns="http://www.w3.org/2000/svg" xmlns:xlink="http://www.w3.org/1999/xlink" x="0px" y="0px" height="100%" viewBox="0 0 2400 1260" enable-background="new 0 0 2400 1260" xml:space="preserve">
<path id="" class="lim" fill="#FEFEFE" opacity="0" stroke="none" d=" M1494.880981,593.026245   C1502.246094,595.925659 1509.187134,598.855713 1516.201782,601.597168   C1517.285767,602.020752 1518.794434,601.857727 1519.960693,601.495789   C1535.409424,596.701965 1550.807373,591.743042 1566.278320,587.023438   C1570.176270,585.834351 1571.362061,582.602844 1573.008911,579.642395   C1575.747070,574.720459 1578.626587,569.849548 1580.952271,564.732544   C1584.017090,557.989014 1588.999390,554.043518 1596.035645,551.951843   C1603.541260,549.720703 1610.712036,546.080200 1618.328979,544.622742   C1622.269653,543.868591 1626.996094,546.144287 1631.129639,547.688171   C1641.161865,551.435120 1651.034058,555.608582 1661.030884,559.454163   C1662.229126,559.915222 1663.921875,559.752563 1665.175659,559.299133   C1672.552612,556.631226 1679.726074,553.278137 1687.256958,551.205322   C1691.637573,549.999573 1696.565918,550.525391 1701.233154,550.690430   C1705.964966,550.857788 1710.671143,551.647339 1715.401733,551.975159   C1726.065308,552.714172 1736.738159,553.318054 1747.404663,554.014893   C1751.654541,554.292480 1755.941528,554.402893 1760.130371,555.086914   C1763.495850,555.636475 1766.302856,556.696411 1768.860840,560.013611   C1779.412476,573.696106 1790.796265,586.733704 1801.579468,600.243469   C1803.452881,602.590637 1804.601074,606.004395 1804.896973,609.041138   C1806.471558,625.189880 1807.849976,641.364380 1808.838379,657.557922   C1809.031372,660.719727 1807.590454,664.177490 1806.242188,667.204346   C1799.131470,683.168152 1792.163086,699.217407 1784.258667,714.786926   C1782.694458,717.867981 1777.413696,719.384583 1773.568970,720.931335   C1754.258667,728.699890 1734.985474,736.598511 1715.407104,743.639587   C1709.520752,745.756470 1710.401611,750.392029 1709.192017,754.097656   C1707.204346,760.187012 1706.132446,766.603943 1705.033081,772.945007   C1704.212646,777.676147 1700.366943,778.546143 1696.978271,779.941589   C1687.811035,783.716675 1678.606445,787.411255 1669.317993,790.872803   C1667.618896,791.505920 1665.136353,791.531433 1663.556396,790.747253   C1653.329346,785.671631 1643.002563,780.711609 1633.219238,774.859802   C1627.273926,771.303650 1622.105469,772.005066 1616.259888,774.259460   C1603.118408,779.327515 1589.789307,783.919312 1576.735596,789.197571   C1573.752075,790.403992 1571.195923,793.301880 1569.091675,795.938843   C1560.179932,807.107178 1551.594604,818.536560 1542.650391,829.678162   C1541.555054,831.042725 1538.991333,831.941528 1537.148193,831.878662   C1523.809204,831.423584 1510.459961,830.905273 1497.168701,829.768127   C1494.950195,829.578308 1492.583984,826.580322 1490.993042,824.370972   C1484.006592,814.667969 1477.232178,804.810181 1470.530884,794.906982   C1469.843140,793.890564 1469.694458,792.050964 1470.075684,790.838623   C1475.257812,774.359375 1480.333008,757.838196 1486.009277,741.527405   C1487.779175,736.441528 1485.142822,732.692627 1483.780396,728.749695   C1479.601562,716.654785 1474.733276,704.793945 1469.933716,692.922607   C1469.307007,691.372681 1467.748657,689.705322 1466.222412,689.100952   C1460.429932,686.806641 1454.551880,684.642456 1448.551880,682.987122   C1444.206177,681.788147 1442.036377,678.697632 1440.052979,675.257629   C1435.956055,668.151611 1432.313477,660.759949 1427.854736,653.894348   C1424.709473,649.051331 1426.350098,644.366821 1427.160034,639.763123   C1429.141968,628.496399 1431.629150,617.315674 1434.101074,606.141907   C1434.386597,604.851074 1435.621826,603.302185 1436.819946,602.753662   C1448.768799,597.283875 1460.776245,591.938477 1472.845581,586.740051   C1474.326904,586.102112 1476.444336,586.024170 1477.963501,586.555054   C1483.538574,588.503418 1488.985718,590.818237 1494.880981,593.026245  z"/>
<path id="" class="lim" fill="#FEFEFE" opacity="0" stroke="none" d=" M760.939941,526.002808   C743.138916,522.999451 725.761292,520.112610 708.431396,516.963318   C690.955383,513.787476 673.552856,510.205536 656.069702,507.071625   C639.980591,504.187622 623.806274,501.781219 607.708374,498.943512   C593.881409,496.506104 580.111633,493.745056 566.309509,491.164581   C565.041382,490.927521 563.722412,490.962708 561.654053,490.817017   C562.614502,484.098755 563.511719,477.552765 564.492676,471.019379   C566.299255,458.987213 568.169556,446.964661 569.984863,434.933746   C571.028259,428.018036 571.862732,421.063965 573.201904,414.207397   C573.390991,413.239227 576.001953,411.980133 577.350952,412.129456   C584.769592,412.950714 592.145874,414.157227 599.533630,415.252533   C607.876831,416.489471 616.216003,417.753693 624.558289,418.996735   C635.157715,420.576141 645.753052,422.184082 656.360474,423.707825   C664.401306,424.862885 672.467285,425.843445 680.505798,427.013672   C690.776978,428.508850 701.026428,430.153076 711.295349,431.664062   C719.175171,432.823517 727.077393,433.830505 734.957581,434.987274   C745.878662,436.590485 756.779053,438.336609 767.706299,439.895325   C775.600220,441.021362 783.536804,441.847992 791.430176,442.977600   C801.713074,444.449219 811.967163,446.120728 822.242737,447.645142   C830.123962,448.814301 838.023804,449.858002 845.907227,451.012817   C856.829590,452.612885 867.735474,454.327148 878.665161,455.874115   C886.723022,457.014587 894.787109,458.216614 902.890198,458.881317   C906.260254,459.157776 907.359192,460.330750 907.015381,463.419739   C906.040039,472.181610 904.989563,480.936096 904.118042,489.708313   C903.307861,497.863190 902.707764,506.038818 901.982910,514.202454   C900.997559,525.300232 900.105347,536.410278 898.773071,547.466858   C898.650024,548.488037 895.515198,550.062256 893.996948,549.846313   C886.007812,548.710144 878.094910,547.046692 870.144043,545.630859   C857.570557,543.391907 844.983154,541.230957 832.410583,538.986938   C820.654358,536.888611 808.912659,534.709412 797.159363,532.594543   C786.648254,530.703308 776.128601,528.859375 765.616821,526.972107   C764.193909,526.716553 762.794556,526.330200 760.939941,526.002808  z"/>
<path id="" fill="#1A7599" opacity="0" stroke="none" d=" M1359.952637,456.867859   C1359.952759,456.867859 1360.007080,456.415405 1360.324829,455.937012   C1360.776733,454.004211 1360.910889,452.549805 1361.045044,451.095428   C1361.045044,451.095428 1361.002319,451.039581 1361.283081,450.828247   C1364.781006,445.118103 1365.330200,439.110046 1364.941284,432.922913   C1364.941284,432.922913 1364.980469,432.989563 1365.241943,432.776398   C1366.662109,428.955627 1368.126221,425.413696 1368.919434,421.727448   C1370.854370,412.735962 1372.642700,403.705414 1374.180542,394.638062   C1375.633301,386.072449 1376.691284,377.439880 1377.922974,368.836792   C1379.698242,359.440765 1381.400269,350.030151 1383.265747,340.652069   C1386.126221,326.273041 1389.099243,311.916443 1392.023926,297.550201   C1392.992432,292.792542 1397.893433,289.236908 1402.255005,290.129395   C1407.916382,291.287811 1411.572266,295.974396 1410.551147,300.992493   C1401.414307,345.897034 1392.256592,390.797333 1383.075928,435.692932   C1381.128662,445.215332 1379.063110,454.713562 1376.684814,464.770996   C1376.169678,466.528259 1376.021606,467.737427 1375.873535,468.946594   C1375.902954,469.395538 1375.932251,469.844513 1375.551758,470.715149   C1374.481079,475.113281 1373.820190,479.089661 1373.159180,483.066071   C1373.113403,483.498657 1373.067627,483.931244 1372.725830,484.886871   C1372.265869,486.214417 1372.101562,487.018921 1371.937378,487.823425   C1371.950684,488.015198 1371.963867,488.206940 1371.577881,488.768066   C1370.482544,490.580261 1369.438477,491.956726 1369.148560,493.476990   C1367.646240,501.355560 1366.257202,509.258118 1364.987915,517.177856   C1364.159058,522.350952 1363.601440,527.567505 1362.922485,532.764648   C1362.939331,532.965698 1362.956177,533.166748 1362.568115,533.760559   C1360.766235,539.106873 1359.208496,544.021973 1358.010864,549.023254   C1356.286865,556.222473 1354.592529,563.444336 1353.334106,570.733948   C1352.521362,575.441833 1352.511108,580.288147 1352.141113,585.072449   C1352.094971,585.495544 1352.048706,585.918579 1351.579956,586.746399   C1349.801392,594.799438 1348.445312,602.447815 1347.089233,610.096130   C1347.089233,610.096130 1347.103760,610.006897 1346.744385,610.070190   C1345.931274,611.431946 1345.477295,612.730347 1345.023438,614.028748   C1345.023438,614.028748 1345.000000,614.000000 1344.561768,614.000977   C1339.845947,613.800049 1335.062866,615.358032 1332.149170,610.398254   C1331.904297,609.981567 1330.610596,610.180969 1329.804199,610.094177   C1329.944580,606.593323 1329.619385,602.999146 1330.299316,599.606506   C1335.413330,574.091309 1340.711792,548.612915 1345.979736,523.128723   C1350.278320,502.334473 1354.614502,481.547974 1359.273438,460.138550   C1359.726074,458.635284 1359.839355,457.751556 1359.952637,456.867859  z"/>
<path id="" fill="#1B7498" opacity="0" stroke="none" d=" M755.026306,1170.916382   C754.853760,1170.942505 754.681152,1170.968750 754.127930,1170.741211   C753.524170,1170.234863 753.245483,1170.088013 752.911133,1170.046997   C752.911133,1170.046997 752.984985,1170.024414 752.833374,1169.786621   C752.110657,1169.372314 751.539612,1169.195923 750.968506,1169.019531   C750.968506,1169.019531 750.997986,1168.998047 750.988892,1168.589722   C750.669739,1164.109497 749.957642,1160.019409 750.142029,1155.970093   C750.431458,1149.615234 751.325806,1143.287964 751.963928,1136.949097   C751.963928,1136.949097 751.997314,1137.000000 752.274719,1136.746216   C752.682861,1134.617065 752.813599,1132.741821 752.944275,1130.866455   C752.944275,1130.866455 752.956421,1130.407227 753.285828,1129.922119   C753.766479,1127.678833 753.917725,1125.920654 754.068909,1124.162598   C754.068909,1124.162598 754.014954,1124.077637 754.439575,1123.948242   C755.557434,1117.841187 756.250671,1111.863403 756.943909,1105.885620   C758.382324,1095.431274 759.679565,1084.955078 761.292175,1074.527710   C763.735840,1058.725830 766.406067,1042.959229 768.966675,1027.175293   C771.551880,1011.239136 774.171631,995.308228 776.682495,979.360291   C779.169739,963.562256 781.520081,947.742676 783.966736,931.938171   C786.638794,914.678040 789.271973,897.411194 792.096436,880.175842   C792.954102,874.941833 797.909546,871.441467 802.903015,871.966797   C807.636536,872.464844 811.429688,876.725830 810.874451,882.203552   C809.894104,891.875488 808.398071,901.501953 806.891968,911.112061   C804.723633,924.947815 802.339355,938.749756 800.072205,952.570190   C796.790833,972.573914 793.452271,992.568726 790.288391,1012.591125   C787.741577,1028.708008 785.478760,1044.869751 782.976318,1060.993896   C780.700745,1075.655518 778.263672,1090.292114 775.913208,1104.942139   C773.591187,1119.414551 771.295959,1133.891357 768.960754,1148.361572   C768.803711,1149.334473 768.408142,1150.268921 767.654541,1151.699097   C766.790283,1153.335693 766.201111,1154.466797 766.031738,1155.657593   C765.031311,1162.693237 763.976807,1169.633789 755.026306,1170.916382  z"/>
<path id="" fill="#1B7499" opacity="0" stroke="none" d=" M1264.962646,990.878662   C1264.973511,991.344421 1264.984375,991.810120 1264.583984,992.711365   C1261.811157,1002.581116 1259.432251,1012.011169 1257.144775,1021.463379   C1257.041626,1021.889465 1257.765991,1022.515808 1258.104980,1023.048950   C1258.067749,1023.477600 1258.030640,1023.906311 1257.573486,1024.741211   C1256.385132,1029.409912 1255.616577,1033.672363 1254.848022,1037.934692   C1254.890259,1038.393188 1254.932495,1038.851807 1254.720947,1039.779053   C1254.220947,1040.471436 1254.077393,1040.748291 1254.036377,1041.078369   C1254.036377,1041.078369 1254.021240,1041.004272 1253.659424,1041.083252   C1252.512573,1046.039429 1251.727783,1050.916626 1250.942871,1055.793945   C1250.951782,1055.992920 1250.960571,1056.191895 1250.555420,1056.785889   C1249.775513,1059.828003 1249.409546,1062.475220 1249.043701,1065.122314   C1249.024170,1065.544800 1249.004761,1065.967285 1248.695435,1066.908691   C1248.247559,1068.231323 1248.089600,1069.035278 1247.931641,1069.839111   C1247.931641,1069.839111 1247.985107,1069.922974 1247.569824,1070.044922   C1245.748657,1078.048096 1244.342651,1085.929321 1242.936646,1093.810669   C1242.942993,1094.013428 1242.949341,1094.216309 1242.675781,1094.913696   C1242.281250,1095.983887 1242.166870,1096.559692 1242.052490,1097.135376   C1242.052612,1097.135376 1241.993286,1097.589233 1241.677734,1098.067627   C1241.230835,1099.994751 1241.099731,1101.443481 1240.968628,1102.892212   C1239.746460,1109.016357 1238.940796,1115.263428 1237.181274,1121.229126   C1235.532959,1126.817871 1230.101318,1128.754028 1224.253052,1126.673706   C1220.599609,1125.374268 1218.303711,1120.014893 1219.312256,1115.415405   C1224.185181,1093.190796 1229.100708,1070.975342 1233.855713,1048.725464   C1239.262207,1023.427002 1244.500000,998.092590 1249.838623,972.779602   C1253.512451,955.360291 1257.159790,937.934875 1260.965454,920.544250   C1262.727051,912.494751 1267.732300,910.231262 1275.820190,914.091919   C1276.486938,914.755798 1276.767700,914.905029 1277.107544,914.943054   C1277.107544,914.943054 1277.024536,914.971558 1277.094482,915.160767   C1277.301636,915.645996 1277.518311,915.862671 1277.814209,916.000000   C1277.814209,916.000000 1277.951904,916.431946 1277.979370,917.115540   C1277.928711,920.272339 1278.212280,922.821716 1277.710571,925.205811   C1275.380005,936.279541 1272.776123,947.295654 1270.429443,958.366150   C1270.125122,959.802002 1270.745728,961.433899 1270.937744,962.974976   C1270.957764,963.422974 1270.977905,963.870972 1270.589844,964.725830   C1265.807373,970.038513 1267.288574,976.087952 1266.930786,981.778259   C1266.936035,981.988159 1266.941162,982.198120 1266.666992,982.911255   C1266.273315,983.984253 1266.158691,984.554077 1266.044189,985.123840   C1266.044189,985.123840 1265.985840,985.580872 1265.670776,986.061523   C1265.224731,987.987610 1265.093750,989.433167 1264.962646,990.878662  z"/>
<path id="" fill="#1C7498" opacity="0" stroke="none" d=" M388.580017,401.307800   C396.992584,403.310547 405.015808,405.133972 413.021118,407.033020   C417.802795,408.167297 421.580109,413.000885 420.943756,417.010468   C420.159210,421.954071 416.199097,425.627655 410.800201,424.872192   C401.533691,423.575531 392.351318,421.581787 383.199036,419.581543   C349.083282,412.125610 314.989014,404.571075 280.897064,397.006683   C263.039917,393.044464 245.197311,389.015869 227.364395,384.946045   C223.231750,384.002869 219.686844,379.183167 220.053940,375.395050   C220.524887,370.534973 224.463104,366.425751 229.285172,367.092987   C238.727203,368.399475 248.123840,370.183472 257.440338,372.221954   C297.986145,381.093445 338.496552,390.126862 379.019348,399.103607   C382.075806,399.780701 385.128601,400.474365 388.580017,401.307800  z"/>
<path id="" fill="#1B7498" opacity="0" stroke="none" d=" M847.948669,693.814575   C847.959351,694.016235 847.970093,694.217834 847.620667,694.906311   C846.170776,703.243408 845.080994,711.093567 843.991211,718.943726   C843.998962,719.122375 844.006836,719.301086 843.640991,719.941040   C842.529297,726.316772 841.791321,732.231140 841.053345,738.145569   C841.053345,738.145569 841.019470,738.594299 840.691589,739.015747   C840.268738,740.966553 840.173767,742.495789 840.078796,744.025085   C840.045044,744.762817 840.011292,745.500549 839.557983,746.704834   C837.781067,756.832397 836.423828,766.493469 835.066528,776.154480   C835.034607,776.862427 835.002747,777.570312 834.542480,778.734436   C833.768372,782.518433 833.422668,785.846191 833.076965,789.174011   C831.939392,797.656250 831.005615,806.173035 829.578186,814.606201   C828.863892,818.825806 826.877686,822.502625 821.767395,823.012817   C817.246948,823.464050 813.162659,822.495361 811.684570,817.853516   C810.774841,814.996765 810.855652,811.604431 811.301453,808.571533   C814.413879,787.397766 817.687500,766.247131 821.010742,745.105042   C823.514282,729.177673 826.282043,713.291382 828.725464,697.355103   C831.596985,678.627014 834.223328,659.861511 837.007996,641.119934   C837.587952,637.216736 838.250366,633.313904 839.137878,629.471680   C840.109009,625.267822 845.414917,622.291626 850.209473,623.004395   C854.431458,623.632080 858.629089,628.790833 857.936401,633.214966   C855.162903,650.929749 852.182739,668.612122 848.833740,686.940186   C848.241882,689.654114 848.095276,691.734314 847.948669,693.814575  z"/>
<path id="" fill="#1B7498" opacity="0" stroke="none" d=" M2260.950439,705.878906   C2261.016357,705.555420 2261.188477,705.304749 2262.073975,705.058899   C2267.236816,702.628418 2271.902100,701.043762 2277.062012,702.957336   C2277.062012,702.957336 2277.000000,702.998779 2277.010010,703.384705   C2276.691895,708.197510 2276.363525,712.624329 2276.035156,717.051147   C2276.035156,717.051147 2276.000000,717.000427 2275.692383,717.041687   C2274.940918,717.749146 2274.497559,718.415283 2274.053955,719.081421   C2274.053955,719.081421 2274.005859,719.018738 2273.795898,719.135986   C2273.410156,719.561890 2273.234863,719.870544 2273.059570,720.179199   C2266.189209,726.137817 2259.316162,732.093445 2252.448975,738.055725   C2239.971924,748.888794 2227.474365,759.698120 2215.031738,770.570557   C2206.174072,778.310181 2197.420654,786.169495 2188.570068,793.917175   C2175.368652,805.473694 2162.175781,817.041199 2148.859131,828.464233   C2145.298584,831.518433 2139.639160,830.531006 2136.323242,826.768250   C2132.761963,822.726990 2132.856201,817.366028 2137.085449,813.413513   C2143.009521,807.877258 2149.205078,802.629395 2155.344238,797.327087   C2164.117920,789.749268 2172.970947,782.263489 2181.743652,774.684570   C2194.251221,763.879211 2206.738525,753.050293 2219.193115,742.183960   C2229.539795,733.156860 2239.827148,724.061340 2250.825439,714.947693   C2251.984863,714.235229 2252.459473,713.571228 2252.934082,712.907227   C2252.934082,712.907166 2252.988037,712.974731 2253.193115,712.873901   C2253.585693,712.486755 2253.773438,712.200439 2253.960938,711.914062   C2253.960938,711.914062 2253.974121,711.993103 2254.276855,711.949951   C2255.041260,711.253540 2255.502686,710.600281 2255.964355,709.947083   C2255.964355,709.947083 2256.000732,709.995422 2256.360840,709.990967   C2259.207031,709.725281 2261.299316,709.058899 2260.950439,705.878906  z"/>
<path id="" fill="#1C7498" opacity="0" stroke="none" d=" M2094.909912,859.946716   C2094.578369,860.012939 2094.316406,860.185059 2093.735596,860.823730   C2091.868896,862.759827 2090.390625,864.335449 2088.912109,865.911011   C2088.912109,865.910950 2089.000000,866.000000 2088.646484,866.080811   C2086.153320,868.080200 2084.013428,869.998779 2081.873779,871.917358   C2081.545898,871.998291 2081.293945,872.182739 2080.743652,872.828369   C2079.230225,874.441101 2078.091064,875.696289 2076.951904,876.951538   C2076.951904,876.951599 2077.000000,877.000000 2076.671875,877.092773   C2074.863770,878.758911 2073.383789,880.332397 2071.904053,881.905884   C2071.904053,881.905884 2072.002930,881.927856 2071.617676,881.947632   C2069.451416,883.622375 2067.670410,885.277344 2065.889648,886.932373   C2065.560059,887.002258 2065.298096,887.174866 2064.727539,887.824951   C2061.540771,891.109375 2058.730225,894.019043 2055.919922,896.928711   C2055.919922,896.928711 2056.010986,896.969543 2055.625488,896.962402   C2051.809082,900.291626 2048.378174,903.627869 2044.947388,906.964172   C2044.362183,907.447510 2043.777100,907.930847 2042.763916,908.802612   C2035.726196,915.190918 2028.993042,921.061279 2022.535278,927.220215   C2012.247314,937.032104 2002.142700,947.036377 1991.960571,956.959229   C1991.960571,956.959229 1992.000000,956.997559 1991.642822,957.000366   C1989.845093,958.329041 1988.404785,959.654846 1986.964355,960.980774   C1982.174194,965.299805 1977.497314,969.754089 1972.559326,973.896973   C1968.232666,977.526978 1962.347534,976.728943 1958.864380,972.402710   C1955.701782,968.474609 1956.760742,962.101074 1960.842041,958.554077   C1967.452515,952.809204 1974.005005,946.987732 1980.384644,940.988953   C1994.400513,927.809448 2008.223389,914.424500 2022.252686,901.259399   C2041.699097,883.010864 2061.262939,864.887390 2081.322998,846.390747   C2089.938477,844.000977 2094.846680,846.381775 2095.753662,853.163940   C2096.045898,855.348145 2095.222900,857.681580 2094.909912,859.946716  z"/>
<path id="" fill="#1C7498" opacity="0" stroke="none" d=" M1303.007324,832.951538   C1302.001831,838.396057 1300.988159,843.401978 1300.068604,848.425049   C1298.748291,855.637512 1294.412598,858.522644 1287.178711,856.920654   C1282.617676,855.910583 1280.313599,850.776428 1281.479126,844.871582   C1287.002441,816.889160 1292.441406,788.890015 1297.927124,760.900146   C1301.792969,741.175415 1305.685303,721.455933 1309.566040,701.734131   C1310.680786,696.069214 1311.579346,690.350220 1312.977051,684.755981   C1314.205688,679.838928 1318.089722,677.372620 1322.536987,678.049011   C1327.779541,678.846436 1331.497925,682.350891 1330.900269,687.412354   C1329.935669,695.579956 1328.148315,703.655457 1326.589478,711.747009   C1322.103027,735.034668 1317.568970,758.313171 1313.030396,781.590759   C1309.719604,798.571045 1306.372192,815.544189 1303.007324,832.951538  z"/>
<path id="" fill="#1A7599" opacity="0" stroke="none" d=" M1756.939209,344.851379   C1756.939209,344.851379 1756.987793,344.433411 1757.384033,344.165802   C1759.140015,340.564941 1760.499634,337.231720 1761.859131,333.898499   C1761.859253,333.898529 1761.973877,333.998779 1762.303101,333.940918   C1763.400635,331.894470 1764.168823,329.905853 1764.937134,327.917236   C1764.937134,327.917236 1764.958740,328.005035 1765.289307,327.948364   C1766.629639,326.456604 1767.829590,325.116882 1768.607422,323.565521   C1769.998047,320.791565 1771.256470,317.936035 1772.349976,315.031769   C1774.334473,309.761963 1776.157715,304.431427 1778.048218,299.126221   C1778.048218,299.126221 1778.009521,299.055511 1778.384521,298.995850   C1780.161743,297.270111 1781.564087,295.604004 1782.966431,293.937897   C1782.966431,293.937897 1783.003052,293.992615 1783.270020,293.982208   C1784.024170,293.687958 1784.511475,293.404114 1784.998779,293.120239   C1786.060669,293.097412 1787.122559,293.074554 1788.631226,293.455292   C1791.959839,297.502625 1796.242676,300.458923 1795.078613,306.087952   C1795.078613,306.087952 1795.085205,305.999512 1794.723267,306.068420   C1793.929688,307.478180 1793.497925,308.818970 1793.066284,310.159790   C1789.597168,318.013641 1786.268799,325.933380 1782.632568,333.709106   C1771.476318,357.565552 1760.172607,381.353027 1748.983032,405.193909   C1739.847534,424.657837 1730.793579,444.160004 1721.170288,463.932251   C1720.432983,464.501923 1720.228882,464.784576 1720.024902,465.067230   C1720.024902,465.067261 1720.008301,465.001526 1719.616699,465.001953   C1715.458496,465.011932 1711.692017,465.021545 1707.925415,465.031158   C1707.762085,464.978058 1707.598633,464.924957 1707.230469,464.328674   C1707.333374,458.834778 1707.640869,453.884003 1707.948242,448.933228   C1707.948242,448.933228 1707.984741,449.005157 1708.311768,448.948578   C1711.404419,442.540497 1714.169922,436.188995 1716.935547,429.837463   C1716.935425,429.837463 1716.989136,429.418884 1717.250122,429.084412   C1717.764282,428.517334 1717.905273,428.229767 1717.934204,427.887177   C1717.934204,427.887177 1717.937866,427.980530 1718.268311,427.924683   C1720.034790,424.210236 1721.470947,420.551605 1722.906982,416.892975   C1722.906982,416.892975 1722.935303,417.006226 1723.272949,416.953339   C1725.211914,414.006592 1727.432495,411.279633 1728.268066,408.179382   C1729.487671,403.653809 1734.359375,400.520813 1733.083618,395.153595   C1733.083618,395.153595 1733.037964,395.086609 1733.413574,394.996521   C1735.171509,391.577972 1736.553589,388.249542 1737.935669,384.921112   C1737.935669,384.921112 1737.963013,385.008698 1738.292725,384.949005   C1739.626221,382.531372 1740.630127,380.173431 1741.634033,377.815491   C1741.634033,377.815491 1741.736694,377.868591 1742.074219,377.707886   C1742.910156,375.622223 1743.408447,373.697235 1743.906738,371.772217   C1744.218140,371.028137 1744.529785,370.284058 1745.197998,369.152100   C1745.798340,368.549347 1745.941162,368.280731 1745.982910,367.958435   C1745.982910,367.958435 1746.001221,368.001343 1746.243408,367.837219   C1746.643555,367.095581 1746.801514,366.518097 1746.959473,365.940613   C1746.959473,365.940613 1746.996948,365.993286 1747.232422,365.826538   C1747.618896,365.073792 1747.769897,364.487762 1747.920898,363.901733   C1747.920898,363.901733 1747.954956,364.001160 1748.280029,363.937012   C1750.049438,360.221313 1751.493652,356.569733 1752.937744,352.918213   C1752.937866,352.918213 1752.975342,353.000946 1753.315918,352.928436   C1754.080688,351.516022 1754.504761,350.176147 1754.928833,348.836243   C1754.928833,348.836243 1754.974854,348.418213 1755.393555,348.149506   C1756.187866,346.871002 1756.563599,345.861206 1756.939209,344.851379  z"/>
<path id="" fill="#1A7499" opacity="0" stroke="none" d=" M502.137024,480.953278   C502.137024,480.953278 501.974030,480.538605 501.977295,479.908203   C501.963715,476.162628 502.055450,472.990265 498.113068,471.945770   C498.113068,471.945770 498.031311,471.907410 498.030212,471.495911   C496.983093,469.081573 495.937073,467.078674 494.891052,465.075806   C494.891052,465.075806 494.935242,464.988892 494.954834,464.630676   C495.060211,461.055573 494.638977,458.125732 490.899200,457.074829   C490.899200,457.074829 490.918854,457.002167 490.953918,456.639313   C490.670044,455.034363 490.456299,453.753326 490.013855,452.556915   C488.197205,447.644958 486.008789,442.848083 484.528809,437.839935   C482.782043,431.928925 486.825043,427.676575 492.732178,429.039978   C494.952545,429.552490 496.966919,430.957581 499.075195,431.955719   C499.075195,431.955719 499.014496,432.003784 499.017151,432.372986   C502.664581,441.307434 506.163147,449.939819 510.046021,458.395721   C511.164703,460.831909 513.390381,462.759735 515.108521,464.920624   C515.108521,464.920624 515.061829,465.011566 515.043945,465.368073   C514.933167,468.945038 515.372131,471.865295 519.094849,472.931641   C519.094849,472.931641 519.050842,473.012024 519.030151,473.366058   C521.111938,477.705719 523.214355,481.691315 525.316833,485.676941   C525.316833,485.676941 525.297241,485.779083 525.306641,486.093811   C528.596069,488.586060 531.876099,490.763550 535.156067,492.941040   C535.156067,492.941040 535.595764,492.988678 535.919189,493.269043   C536.457031,493.790863 536.723877,493.935883 537.043213,493.984467   C537.043213,493.984467 536.998169,493.999054 537.046997,494.324585   C539.010620,495.780151 540.925354,496.910126 542.840149,498.040131   C564.174988,513.526428 585.524597,528.992432 606.833740,544.513977   C611.809998,548.138672 612.580444,554.076721 608.888672,558.847839   C605.893616,562.718628 599.508484,563.079102 594.977600,559.747131   C573.730042,544.121887 552.459717,528.527405 531.198303,512.920959   C525.219666,508.532532 519.243652,504.140625 513.091431,499.083130   C510.420349,493.545074 508.016663,488.622894 505.363068,483.839355   C504.701935,482.647552 503.234100,481.903259 502.137024,480.953278  z"/>
<path id="" fill="#1C7499" opacity="0" stroke="none" d=" M804.586304,581.051880   C806.484131,581.403687 807.930054,581.765137 809.397827,581.968018   C814.895447,582.727844 817.197021,585.620178 817.010315,591.625183   C816.866150,596.262329 813.253479,600.172729 808.514526,599.937073   C798.594604,599.443665 788.687073,598.625366 778.790649,597.756409   C769.903992,596.976196 761.039246,595.946411 752.164246,595.032776   C739.841064,593.764099 727.521179,592.461548 715.192444,591.249573   C706.968140,590.441162 698.727844,589.797058 690.500366,589.019714   C683.925171,588.398438 677.338928,587.834900 670.794922,586.965027   C666.255249,586.361572 662.709045,581.718018 663.022278,577.390198   C663.362610,572.687866 667.412537,568.697205 672.303528,569.032959   C683.348083,569.791260 694.366577,570.925476 705.397217,571.888916   C713.468689,572.593872 721.549805,573.196228 729.613770,573.976929   C742.103516,575.186279 754.575378,576.583313 767.067871,577.761902   C779.418213,578.927124 791.784912,579.920166 804.586304,581.051880  z"/>
<path id="" fill="#1A759A" opacity="0" stroke="none" d=" M1867.044922,1065.133423   C1851.895630,1079.713013 1836.803955,1094.353394 1821.555176,1108.828247   C1817.886475,1112.310791 1812.233398,1111.955078 1809.027100,1108.632690   C1804.891602,1104.347412 1804.562256,1099.148315 1808.708008,1094.943481   C1814.045288,1089.529907 1819.735229,1084.464111 1825.950195,1079.110352   C1829.851074,1078.759888 1831.148438,1076.933228 1830.930176,1073.836792   C1831.021729,1073.528198 1831.203125,1073.287354 1832.093994,1073.059937   C1835.626587,1073.197144 1837.294556,1072.102539 1836.938110,1068.916504   C1836.938110,1068.916504 1836.995117,1068.995117 1837.341431,1068.986572   C1838.774170,1067.629639 1839.860474,1066.281128 1840.946777,1064.932617   C1840.946777,1064.932617 1841.001587,1064.982544 1841.206909,1064.874023   C1841.588989,1064.473755 1841.765747,1064.182007 1841.942505,1063.890137   C1841.942505,1063.890137 1841.958374,1063.988159 1842.302734,1063.978760   C1846.299683,1063.011475 1848.866943,1061.082397 1848.948608,1056.928711   C1848.948608,1056.928711 1848.995117,1056.995728 1849.343262,1056.989990   C1850.653442,1055.879639 1851.615723,1054.775269 1852.578003,1053.670898   C1852.578003,1053.670898 1852.654419,1053.649170 1853.061279,1053.745361   C1854.295654,1052.843140 1855.123047,1051.844849 1855.950439,1050.846680   C1856.040039,1050.548828 1856.217163,1050.318237 1856.932617,1049.966553   C1857.572876,1049.487549 1857.762695,1049.196655 1857.952393,1048.905884   C1857.952393,1048.905884 1857.973877,1048.993774 1858.317871,1048.983154   C1862.289307,1047.978271 1864.925781,1046.107300 1864.920898,1041.899048   C1864.920898,1041.899048 1864.987427,1041.965332 1865.188232,1041.869385   C1865.584351,1041.493286 1865.779663,1041.213379 1865.974854,1040.933350   C1865.974854,1040.933350 1865.988403,1040.999756 1866.344238,1040.991211   C1867.438843,1039.954102 1868.177612,1038.925415 1868.916382,1037.896851   C1868.916382,1037.896851 1868.991699,1037.993530 1869.332642,1037.979370   C1870.768799,1036.601318 1871.863892,1035.237427 1872.959106,1033.873535   C1873.007080,1033.551758 1873.160400,1033.292114 1874.023926,1033.031738   C1879.191162,1032.112915 1882.703857,1030.176270 1882.956177,1024.882202   C1883.020874,1024.564453 1883.191895,1024.321533 1883.930420,1023.971558   C1884.578369,1023.495911 1884.764893,1023.201904 1884.951416,1022.907837   C1884.951416,1022.907837 1884.960571,1022.997620 1885.316406,1022.981323   C1886.431274,1021.953552 1887.190063,1020.942017 1887.948853,1019.930420   C1887.948853,1019.930420 1887.998901,1019.995605 1888.296143,1019.955200   C1889.049072,1019.263855 1889.504883,1018.613037 1889.960815,1017.962219   C1889.960815,1017.962219 1890.000000,1018.000000 1890.365234,1017.991455   C1891.808105,1016.611572 1892.885742,1015.240112 1893.963501,1013.868713   C1894.032715,1013.561523 1894.197266,1013.319092 1895.040527,1013.065918   C1897.066650,1011.635132 1898.509277,1010.279846 1899.951904,1008.924561   C1899.951904,1008.924500 1900.001587,1008.988159 1900.346802,1008.987549   C1903.809204,1008.718323 1905.146484,1006.962830 1904.932007,1003.911072   C1904.932007,1003.911072 1904.977173,1004.000000 1905.302002,1003.961426   C1907.406128,1002.789368 1909.381836,1001.874084 1910.928223,1000.481873   C1915.681763,996.201904 1918.466553,995.811707 1922.484375,999.231873   C1925.831543,1002.081055 1925.765381,1005.092896 1922.495483,1010.077087   C1921.739502,1011.229553 1921.520996,1012.734802 1921.055298,1014.077759   C1921.055298,1014.077759 1921.017334,1013.997925 1920.678833,1014.006592   C1916.885254,1017.323975 1913.430298,1020.632690 1909.975342,1023.941406   C1909.975342,1023.941406 1909.952271,1024.003418 1909.578369,1024.026367   C1908.162720,1024.560913 1906.912354,1024.853882 1906.111816,1025.618164   C1899.070557,1032.339722 1892.025269,1039.062134 1885.176514,1045.977539   C1883.147461,1048.026123 1881.738892,1050.688965 1880.046143,1053.070435   C1880.046021,1053.070435 1880.005005,1053.004272 1879.667358,1053.011230   C1876.306030,1056.116821 1873.282349,1059.215576 1870.258667,1062.314331   C1870.258667,1062.314331 1870.189941,1062.214233 1869.934570,1062.282227   C1869.463013,1062.916382 1869.246826,1063.482666 1869.030640,1064.048828   C1869.030640,1064.048828 1869.000000,1064.000000 1868.711182,1064.022705   C1867.963135,1064.408203 1867.504028,1064.770752 1867.044922,1065.133423  z"/>
<path id="" fill="#18759B" opacity="0" stroke="none" d=" M1611.195801,990.086426   C1611.138428,990.516602 1611.081177,990.946716 1610.686768,992.003784   C1610.305420,997.260803 1610.261230,1001.890991 1610.216919,1006.521118   C1608.520630,1010.839722 1604.991821,1012.954834 1600.088745,1011.926270   C1596.425903,1011.157715 1593.054321,1009.270081 1593.045776,1004.879883   C1592.986572,974.615906 1593.048706,944.351746 1593.101929,914.087708   C1593.102783,913.646057 1593.491943,913.205078 1594.296265,912.286499   C1595.260132,910.121521 1595.930176,908.436462 1595.945557,906.745483   C1596.038940,896.352356 1595.772583,885.952026 1596.066040,875.566467   C1596.218628,870.167053 1598.798096,867.745972 1602.650024,868.093811   C1608.508545,868.622864 1610.002808,870.288086 1610.003174,876.306519   C1610.005371,912.376709 1609.988403,948.446960 1610.057739,984.516968   C1610.061279,986.374207 1610.799561,988.229980 1611.195801,990.086426  z"/>
<path id="" fill="#1A7599" opacity="0" stroke="none" d=" M1596.986572,1150.981445   C1596.978882,1124.373535 1596.969238,1098.262329 1596.964844,1072.151123   C1596.963623,1064.958130 1599.687134,1061.933838 1606.109619,1061.968140   C1612.316162,1062.001221 1614.995239,1064.939941 1614.998657,1071.847900   C1615.012695,1101.119019 1615.011353,1130.390137 1615.000122,1159.661255   C1614.997925,1165.266113 1611.295776,1169.042969 1605.917725,1169.013672   C1600.641235,1168.984863 1597.024414,1165.126587 1596.985352,1159.461182   C1596.967041,1156.800293 1596.984985,1154.139282 1596.986572,1150.981445  z"/>
<path id="" fill="#E3E3E3" opacity="0" stroke="none" d=" M1337.902832,643.621948   C1340.984497,651.807190 1338.787231,661.208740 1331.616943,664.454285   C1327.491333,666.321655 1321.364502,666.303528 1317.105347,664.647278   C1312.584839,662.889526 1308.361694,658.802856 1308.956543,652.447388   C1309.299805,648.780457 1308.423096,645.084534 1311.498535,641.869141   C1320.078613,632.898682 1327.496338,633.176636 1337.902832,643.621948  z"/>
<path id="" fill="#E3E3E3" opacity="0" stroke="none" d=" M1261.998657,884.231567   C1262.356812,876.900818 1268.513916,871.215393 1275.367920,870.937683   C1280.541382,870.728088 1284.919556,871.459656 1288.495117,875.833069   C1292.055420,880.187866 1293.506226,889.954468 1290.512695,894.005249   C1285.791626,900.393982 1276.020142,903.525208 1270.199585,899.999512   C1264.621094,896.620605 1260.543579,892.018433 1261.998657,884.231567  z"/>
<path id="" fill="#E3E3E3" opacity="0" stroke="none" d=" M825.580139,850.935791   C819.390320,862.769470 804.466125,863.802979 797.879333,852.888123   C795.660278,849.210999 795.768066,842.895630 797.203430,838.581543   C798.754761,833.919250 802.738220,829.754822 808.984253,829.965942   C813.370117,830.114197 817.313232,829.997253 821.250977,833.396973   C827.090881,838.438843 825.999756,844.469177 825.580139,850.935791  z"/>
<path id="" fill="#E3E3E3" opacity="0" stroke="none" d=" M2126.202148,830.722412   C2134.390625,836.178345 2132.581787,851.778320 2122.753418,856.016113   C2113.138184,860.162048 2100.756836,854.361023 2100.854492,842.902222   C2100.898438,837.757324 2102.091064,833.821594 2105.982910,830.331604   C2111.213623,825.640991 2120.594238,825.463623 2126.202148,830.722412  z"/>
<path id="" fill="#E3E3E3" opacity="0" stroke="none" d=" M1600.776489,826.066833   C1608.006836,825.381592 1614.334961,825.827393 1618.820068,832.178101   C1622.253784,837.040161 1622.021362,842.433838 1620.054321,847.171387   C1618.078979,851.929016 1614.427490,856.400208 1608.212646,855.909302   C1604.447266,855.611816 1600.046631,855.426941 1597.155640,853.424255   C1586.971436,846.369141 1588.868286,832.113831 1600.776489,826.066833  z"/>
<path id="" fill="#E3E3E3" opacity="0" stroke="none" d=" M1698.106689,474.998474   C1705.160156,475.003082 1712.628174,479.723175 1713.948486,484.730408   C1715.806641,491.776611 1712.698730,501.151642 1706.182007,503.623962   C1701.988647,505.214844 1696.148926,505.360901 1692.093384,503.660095   C1687.419312,501.699951 1683.556274,497.545471 1683.862915,490.966583   C1684.320435,481.149475 1689.207764,475.013306 1698.106689,474.998474  z"/>
<path id="" fill="#E3E3E3" opacity="0" stroke="none" d=" M621.510620,571.034912   C617.936157,562.516235 619.683350,553.735779 627.176331,549.800171   C631.092407,547.743347 637.252197,547.759216 641.563965,549.251099   C646.215515,550.860535 650.450134,554.871582 650.020874,561.186584   C649.759888,565.026062 650.658997,568.907349 647.386353,572.244568   C638.896851,580.901367 631.423157,580.742310 621.510620,571.034912  z"/>
<path id="" fill="#E3E3E3" opacity="0" stroke="none" d=" M2312.000488,687.773865   C2311.645996,695.132324 2305.521973,700.824707 2298.624268,701.048157   C2293.678955,701.208374 2289.713379,700.341309 2285.769531,696.578064   C2278.850098,689.975647 2280.901367,675.430115 2290.928711,671.680481   C2300.699463,668.026794 2312.738281,674.104004 2312.005859,685.340271   C2311.962891,686.000916 2312.000244,686.666870 2312.000488,687.773865  z"/>
<path id="" fill="#E3E3E3" opacity="0" stroke="none" d=" M841.181152,605.653931   C836.266418,600.727051 836.987244,594.817566 838.971008,589.877075   C841.095093,584.586792 845.295532,581.019836 852.188232,580.774780   C859.400391,580.518433 864.469666,583.612305 866.761658,589.330811   C868.399658,593.417542 868.439392,599.471863 866.558228,603.380371   C861.883850,613.092163 846.810913,614.235901 841.181152,605.653931  z"/>
<path id="" fill="#E3E3E3" opacity="0" stroke="none" d=" M453.889648,438.998474   C441.179718,440.234161 435.092316,428.251953 438.391632,418.408722   C441.713074,408.499420 455.032806,405.671387 463.127747,412.348389   C470.559723,418.478485 470.000641,431.779388 460.829102,437.521698   C459.052521,438.634064 456.518951,438.537384 453.889648,438.998474  z"/>
<path id="" fill="#E3E3E3" opacity="0" stroke="none" d=" M1412.589111,269.129089   C1404.394531,271.491150 1397.593628,270.261444 1392.776855,263.184021   C1389.662842,258.608704 1389.978882,253.250107 1391.999023,248.714523   C1394.095215,244.008514 1397.605225,239.718964 1403.866089,240.007675   C1407.848999,240.191345 1411.614746,239.635773 1415.421997,242.622467   C1423.606567,249.043182 1423.693970,262.965637 1412.589111,269.129089  z"/>
<path id="" fill="#E3E3E3" opacity="0" stroke="none" d=" M1789.178955,278.656189   C1784.280518,273.736877 1784.976440,267.834747 1786.953735,262.895050   C1789.073975,257.598083 1793.270020,254.013306 1800.163452,253.765427   C1807.365845,253.506439 1812.441528,256.598938 1814.747070,262.310211   C1816.391235,266.383087 1816.438477,272.422119 1814.572510,276.329956   C1809.936768,286.037811 1794.922241,287.290741 1789.178955,278.656189  z"/>
<path id="" fill="#E3E3E3" opacity="0" stroke="none" d=" M1590.515381,1047.020020   C1586.912109,1038.748901 1588.755737,1029.615234 1596.169067,1025.784546   C1600.117432,1023.744385 1606.262939,1023.734375 1610.578735,1025.228638   C1615.244141,1026.843872 1619.649780,1030.934082 1618.935547,1037.199707   C1618.526367,1040.789917 1618.299805,1044.825195 1616.509155,1047.753906   C1611.255981,1056.345947 1597.345093,1057.215210 1590.515381,1047.020020  z"/>
<path id="" fill="#E3E3E3" opacity="0" stroke="none" d=" M1927.861328,976.394531   C1931.769897,970.234741 1936.626709,967.130066 1944.016846,967.867004   C1950.719116,968.535461 1956.857422,974.309448 1957.036499,981.151123   C1957.163818,986.016418 1956.444458,990.022949 1952.786255,994.067993   C1946.653320,1000.849243 1931.600342,999.564209 1927.943970,989.136353   C1926.651123,985.448669 1927.742310,980.925171 1927.861328,976.394531  z"/>
<path id="" fill="#2C6D85" opacity="0" stroke="none" d=" M1611.485352,989.776245   C1610.799561,988.229980 1610.061279,986.374207 1610.057739,984.516968   C1609.988403,948.446960 1610.005371,912.376709 1610.003174,876.306519   C1610.002808,870.288086 1608.508545,868.622864 1602.650024,868.093811   C1598.798096,867.745972 1596.218628,870.167053 1596.066040,875.566467   C1595.772583,885.952026 1596.038940,896.352356 1595.945557,906.745483   C1595.930176,908.436462 1595.260132,910.121521 1594.508789,911.919861   C1594.058716,899.375732 1593.898560,886.720520 1593.970459,874.066650   C1594.000854,868.724609 1597.484253,865.811157 1603.080688,865.883911   C1608.599365,865.955627 1612.049561,868.820923 1612.052368,873.571045   C1612.074463,911.714722 1612.056763,949.858337 1612.037964,988.002014   C1612.037720,988.490112 1611.866455,988.978088 1611.485352,989.776245  z"/>
<path id="" fill="#010C19" opacity="0" stroke="none" d=" M1992.329102,956.971069   C2002.142700,947.036377 2012.247314,937.032104 2022.535278,927.220215   C2028.993042,921.061279 2035.726196,915.190918 2042.648926,909.067261   C2039.787842,912.966675 2036.962891,917.338501 2033.366943,920.940796   C2025.825928,928.494995 2018.019043,935.800903 2010.051636,942.906555   C2004.498901,947.858887 1998.498169,952.308594 1992.329102,956.971069  z"/>
<path id="" fill="#2C6D85" opacity="0" stroke="none" d=" M1377.606689,369.084473   C1376.691284,377.439880 1375.633301,386.072449 1374.180542,394.638062   C1372.642700,403.705414 1370.854370,412.735962 1368.919434,421.727448   C1368.126221,425.413696 1366.662109,428.955627 1365.203613,432.770935   C1367.029175,421.795532 1369.117920,410.605408 1371.290283,399.431488   C1373.242676,389.389130 1375.286743,379.364563 1377.606689,369.084473  z"/>
<path id="" fill="#2C6D85" opacity="0" stroke="none" d=" M1880.353638,1052.933960   C1881.738892,1050.688965 1883.147461,1048.026123 1885.176514,1045.977539   C1892.025269,1039.062134 1899.070557,1032.339722 1906.111816,1025.618164   C1906.912354,1024.853882 1908.162720,1024.560913 1909.554932,1024.003174   C1903.020996,1031.072632 1896.198364,1038.249512 1889.221313,1045.272827   C1886.549805,1047.961792 1883.524902,1050.299561 1880.353638,1052.933960  z"/>
<path id="" fill="#2C6D85" opacity="0" stroke="none" d=" M1352.445435,584.838867   C1352.511108,580.288147 1352.521362,575.441833 1353.334106,570.733948   C1354.592529,563.444336 1356.286865,556.222473 1358.010864,549.023254   C1359.208496,544.021973 1360.766235,539.106873 1362.527832,534.060547   C1359.511719,550.846924 1356.130737,567.726074 1352.445435,584.838867  z"/>
<path id="" fill="#2C6D85" opacity="0" stroke="none" d=" M499.037964,431.592224   C496.966919,430.957581 494.952545,429.552490 492.732178,429.039978   C486.825043,427.676575 482.782043,431.928925 484.528809,437.839935   C486.008789,442.848083 488.197205,447.644958 490.013855,452.556915   C490.456299,453.753326 490.670044,455.034363 490.956543,456.675720   C488.004303,451.225830 484.706848,445.528107 482.282013,439.480530   C480.274384,434.473541 482.510925,429.570038 486.623322,427.705719   C491.397034,425.541626 495.929016,426.831573 499.037964,431.592224  z"/>
<path id="" fill="#2C6D85" opacity="0" stroke="none" d=" M1271.185059,962.677246   C1270.745728,961.433899 1270.125122,959.802002 1270.429443,958.366150   C1272.776123,947.295654 1275.380005,936.279541 1277.710571,925.205811   C1278.212280,922.821716 1277.928711,920.272339 1278.023438,917.337891   C1278.641968,919.437256 1280.155029,922.176453 1279.693970,924.528625   C1277.210449,937.198608 1274.236938,949.772461 1271.185059,962.677246  z"/>
<path id="" fill="#2C6D85" opacity="0" stroke="none" d=" M1921.371094,1013.940918   C1921.520996,1012.734802 1921.739502,1011.229553 1922.495483,1010.077087   C1925.765381,1005.092896 1925.831543,1002.081055 1922.484375,999.231873   C1918.466553,995.811707 1915.681763,996.201904 1910.928223,1000.481873   C1909.381836,1001.874084 1907.406128,1002.789368 1905.264160,1003.928955   C1907.550659,1001.305664 1909.866455,998.163208 1912.930298,996.171936   C1917.106079,993.457886 1922.423950,994.935120 1925.270508,998.742188   C1927.996582,1002.388184 1927.548096,1007.695312 1924.167847,1011.388550   C1923.389893,1012.238464 1922.516479,1013.001221 1921.371094,1013.940918  z"/>
<path id="" fill="#2C6D85" opacity="0" stroke="none" d=" M1363.212402,532.520752   C1363.601440,527.567505 1364.159058,522.350952 1364.987915,517.177856   C1366.257202,509.258118 1367.646240,501.355560 1369.148560,493.476990   C1369.438477,491.956726 1370.482544,490.580261 1371.536743,489.053406   C1369.447632,501.654633 1367.002075,514.340210 1364.551880,527.024841   C1364.213257,528.777710 1363.852539,530.526245 1363.212402,532.520752  z"/>
<path id="" fill="#2C6D85" opacity="0" stroke="none" d=" M515.059265,464.558716   C513.390381,462.759735 511.164703,460.831909 510.046021,458.395721   C506.163147,449.939819 502.664581,441.307434 499.033447,432.337891   C501.221527,435.961517 503.531250,439.923309 505.539703,444.032379   C508.800293,450.703125 511.863464,457.470337 515.059265,464.558716  z"/>
<path id="" fill="#010C19" opacity="0" stroke="none" d=" M2095.271729,859.910645   C2095.222900,857.681580 2096.045898,855.348145 2095.753662,853.163940   C2094.846680,846.381775 2089.938477,844.000977 2081.466797,846.091064   C2081.804688,845.270081 2082.466309,843.791260 2083.298096,843.688538   C2090.410156,842.809753 2090.419434,842.884338 2098.367188,847.143494   C2097.493652,851.212402 2096.563477,855.543518 2095.271729,859.910645  z"/>
<path id="" fill="#2C6D85" opacity="0" stroke="none" d=" M1777.793823,299.348999   C1776.157715,304.431427 1774.334473,309.761963 1772.349976,315.031769   C1771.256470,317.936035 1769.998047,320.791565 1768.607422,323.565521   C1767.829590,325.116882 1766.629639,326.456604 1765.258667,327.914978   C1766.005005,325.041565 1766.964355,322.077179 1768.249756,319.261627   C1771.263306,312.660461 1774.432861,306.130493 1777.793823,299.348999  z"/>
<path id="" fill="#2C6D85" opacity="0" stroke="none" d=" M751.633911,1137.175293   C751.325806,1143.287964 750.431458,1149.615234 750.142029,1155.970093   C749.957642,1160.019409 750.669739,1164.109497 750.981201,1168.605713   C746.382568,1165.808716 747.802979,1161.009033 748.216736,1156.807495   C748.857605,1150.300537 750.237366,1143.866455 751.633911,1137.175293  z"/>
<path id="" fill="#2C6D85" opacity="0" stroke="none" d=" M1258.383545,1022.787415   C1257.765991,1022.515808 1257.041626,1021.889465 1257.144775,1021.463379   C1259.432251,1012.011169 1261.811157,1002.581116 1264.528931,993.056763   C1262.810669,1002.819824 1260.736328,1012.672913 1258.383545,1022.787415  z"/>
<path id="" fill="#2C6D85" opacity="0" stroke="none" d=" M835.382141,775.892883   C836.423828,766.493469 837.781067,756.832397 839.510010,747.071045   C838.794556,754.587646 837.713684,762.205383 836.616455,769.820862   C836.336792,771.761475 836.005310,773.694702 835.382141,775.892883  z"/>
<path id="" fill="#2C6D85" opacity="0" stroke="none" d=" M755.442383,1170.985107   C763.976807,1169.633789 765.031311,1162.693237 766.031738,1155.657593   C766.201111,1154.466797 766.790283,1153.335693 767.556152,1152.092773   C767.416504,1155.734009 767.237061,1159.542847 766.324341,1163.166870   C764.626892,1169.906494 762.941406,1170.987549 755.442383,1170.985107  z"/>
<path id="" fill="#2C6D85" opacity="0" stroke="none" d=" M1732.835205,395.386047   C1734.359375,400.520813 1729.487671,403.653809 1728.268066,408.179382   C1727.432495,411.279633 1725.211914,414.006592 1723.240356,416.904877   C1726.109131,409.812347 1729.347900,402.715424 1732.835205,395.386047  z"/>
<path id="" fill="#2C6D85" opacity="0" stroke="none" d=" M502.176025,481.305847   C503.234100,481.903259 504.701935,482.647552 505.363068,483.839355   C508.016663,488.622894 510.420349,493.545074 512.925537,498.791687   C511.623627,497.858795 509.940491,496.757843 509.072235,495.202087   C506.608246,490.787018 504.477234,486.186127 502.176025,481.305847  z"/>
<path id="" fill="#2C6D85" opacity="0" stroke="none" d=" M1716.642334,430.027161   C1714.169922,436.188995 1711.404419,442.540497 1708.281250,448.922150   C1710.732178,442.707153 1713.540649,436.462006 1716.642334,430.027161  z"/>
<path id="" fill="#2C6D85" opacity="0" stroke="none" d=" M844.253296,718.650024   C845.080994,711.093567 846.170776,703.243408 847.573303,695.205444   C846.762512,702.797119 845.638916,710.576721 844.253296,718.650024  z"/>
<path id="" fill="#2C6D85" opacity="0" stroke="none" d=" M1347.412354,609.871887   C1348.445312,602.447815 1349.801392,594.799438 1351.517456,587.059509   C1350.496704,594.527832 1349.116089,602.087708 1347.412354,609.871887  z"/>
<path id="" fill="#010C19" opacity="0" stroke="none" d=" M2045.319092,906.977417   C2048.378174,903.627869 2051.809082,900.291626 2055.585938,896.931274   C2055.685059,898.953796 2055.438232,901.000366 2055.258057,902.492981   C2051.863525,904.088806 2048.777100,905.539734 2045.319092,906.977417  z"/>
<path id="" fill="#2C6D85" opacity="0" stroke="none" d=" M1243.206665,1093.551758   C1244.342651,1085.929321 1245.748657,1078.048096 1247.525269,1070.067017   C1246.422852,1077.742554 1244.949829,1085.517700 1243.206665,1093.551758  z"/>
<path id="" fill="#2C6D85" opacity="0" stroke="none" d=" M1329.868164,610.458618   C1330.610596,610.180969 1331.904297,609.981567 1332.149170,610.398254   C1335.062866,615.358032 1339.845947,613.800049 1344.576172,614.012268   C1339.310791,618.137085 1332.866577,616.771301 1329.868164,610.458618  z"/>
<path id="" fill="#2C6D85" opacity="0" stroke="none" d=" M1910.327637,1023.972290   C1913.430298,1020.632690 1916.885254,1017.323975 1920.712524,1014.035278   C1917.616455,1017.371277 1914.148315,1020.687256 1910.327637,1023.972290  z"/>
<path id="" fill="#2C6D85" opacity="0" stroke="none" d=" M1707.635132,449.081299   C1707.640869,453.884003 1707.333374,458.834778 1707.034668,464.161041   C1701.374268,459.329315 1704.691284,454.285583 1707.635132,449.081299  z"/>
<path id="" fill="#2C6D85" opacity="0" stroke="none" d=" M2276.912842,702.618591   C2271.902100,701.043762 2267.236816,702.628418 2262.292725,704.978333   C2266.137207,699.350891 2271.090576,698.455505 2276.912842,702.618591  z"/>
<path id="" fill="#2C6D85" opacity="0" stroke="none" d=" M1267.202881,981.525635   C1267.288574,976.087952 1265.807373,970.038513 1270.529785,965.057434   C1269.743286,970.412415 1268.609131,975.842773 1267.202881,981.525635  z"/>
<path id="" fill="#2C6D85" opacity="0" stroke="none" d=" M1795.418457,305.850830   C1796.242676,300.458923 1791.959839,297.502625 1789.023926,293.527679   C1795.182983,294.490112 1796.687744,297.242645 1795.418457,305.850830  z"/>
<path id="" fill="#2C6D85" opacity="0" stroke="none" d=" M756.626099,1106.138062   C756.250671,1111.863403 755.557434,1117.841187 754.484741,1123.926025   C754.839600,1118.152344 755.573975,1112.271362 756.626099,1106.138062  z"/>
<path id="" fill="#2C6D85" opacity="0" stroke="none" d=" M2276.365723,716.908752   C2276.363525,712.624329 2276.691895,708.197510 2277.031250,703.354248   C2281.496094,707.251343 2281.381836,711.811462 2276.365723,716.908752  z"/>
<path id="" fill="#2C6D85" opacity="0" stroke="none" d=" M1870.598999,1062.282227   C1873.282349,1059.215576 1876.306030,1056.116821 1879.699829,1053.032715   C1877.026489,1056.114868 1873.982910,1059.182617 1870.598999,1062.282227  z"/>
<path id="" fill="#2C6D85" opacity="0" stroke="none" d=" M1364.617310,433.153381   C1365.330200,439.110046 1364.781006,445.118103 1361.314331,450.812103   C1362.140991,445.132843 1363.217163,439.258362 1364.617310,433.153381  z"/>
<path id="" fill="#2C6D85" opacity="0" stroke="none" d=" M841.363647,737.878906   C841.791321,732.231140 842.529297,726.316772 843.593506,720.205200   C843.171204,725.876099 842.422546,731.744202 841.363647,737.878906  z"/>
<path id="" fill="#2C6D85" opacity="0" stroke="none" d=" M1251.205322,1055.543945   C1251.727783,1050.916626 1252.512573,1046.039429 1253.691162,1041.103760   C1253.212524,1045.794922 1252.340088,1050.544556 1251.205322,1055.543945  z"/>
<path id="" fill="#010C19" opacity="0" stroke="none" d=" M2056.291748,896.957275   C2058.730225,894.019043 2061.540771,891.109375 2064.652344,888.052612   C2064.261719,892.823547 2061.042236,895.433838 2056.291748,896.957275  z"/>
<path id="" fill="#2C6D85" opacity="0" stroke="none" d=" M525.276245,485.322357   C523.214355,481.691315 521.111938,477.705719 519.040649,473.322174   C521.126465,476.938782 523.181030,480.953278 525.276245,485.322357  z"/>
<path id="" fill="#2C6D85" opacity="0" stroke="none" d=" M1255.122314,1037.660889   C1255.616577,1033.672363 1256.385132,1029.409912 1257.507324,1025.057373   C1257.039673,1029.107056 1256.218140,1033.246948 1255.122314,1037.660889  z"/>
<path id="" fill="#2C6D85" opacity="0" stroke="none" d=" M1882.640625,1024.992310   C1882.703857,1030.176270 1879.191162,1032.112915 1874.239502,1032.949219   C1876.675171,1030.320557 1879.500122,1027.711426 1882.640625,1024.992310  z"/>
<path id="" fill="#2C6D85" opacity="0" stroke="none" d=" M535.035583,492.622803   C531.876099,490.763550 528.596069,488.586060 525.272583,486.054565   C528.457703,487.901917 531.686401,490.103271 535.035583,492.622803  z"/>
<path id="" fill="#2C6D85" opacity="0" stroke="none" d=" M1722.600586,417.059814   C1721.470947,420.551605 1720.034790,424.210236 1718.235596,427.891205   C1719.346436,424.351257 1720.820190,420.788940 1722.600586,417.059814  z"/>
<path id="" fill="#2C6D85" opacity="0" stroke="none" d=" M1708.064941,465.400513   C1711.692017,465.021545 1715.458496,465.011932 1719.643677,465.022461   C1716.283569,468.120483 1712.299805,467.855377 1708.064941,465.400513  z"/>
<path id="" fill="#2C6D85" opacity="0" stroke="none" d=" M1373.440918,482.806274   C1373.820190,479.089661 1374.481079,475.113281 1375.496582,471.048767   C1375.141724,474.822601 1374.432129,478.684540 1373.440918,482.806274  z"/>
<path id="" fill="#2C6D85" opacity="0" stroke="none" d=" M1761.584473,334.105103   C1760.499634,337.231720 1759.140015,340.564941 1757.446777,343.964905   C1758.511963,340.791687 1759.910889,337.551697 1761.584473,334.105103  z"/>
<path id="" fill="#2C6D85" opacity="0" stroke="none" d=" M1752.639160,353.102783   C1751.493652,356.569733 1750.049438,360.221313 1748.243164,363.899475   C1749.367676,360.379883 1750.854248,356.833649 1752.639160,353.102783  z"/>
<path id="" fill="#010C19" opacity="0" stroke="none" d=" M2082.268799,871.944092   C2084.013428,869.998779 2086.153320,868.080200 2088.601562,866.037292   C2088.875732,870.043640 2086.704102,871.970459 2082.268799,871.944092  z"/>
<path id="" fill="#2C6D85" opacity="0" stroke="none" d=" M1737.629395,385.093079   C1736.553589,388.249542 1735.171509,391.577972 1733.451538,394.982147   C1734.516846,391.793610 1735.920044,388.529327 1737.629395,385.093079  z"/>
<path id="" fill="#2C6D85" opacity="0" stroke="none" d=" M1848.635742,1057.046143   C1848.866943,1061.082397 1846.299683,1063.011475 1842.270264,1063.941162   C1844.036499,1061.663208 1846.179810,1059.413330 1848.635742,1057.046143  z"/>
<path id="" fill="#2C6D85" opacity="0" stroke="none" d=" M1864.614624,1042.028809   C1864.925781,1046.107300 1862.289307,1047.978271 1858.286377,1048.950684   C1860.043213,1046.671997 1862.175781,1044.415161 1864.614624,1042.028809  z"/>
<path id="" fill="#010C19" opacity="0" stroke="none" d=" M2066.287598,886.958252   C2067.670410,885.277344 2069.451416,883.622375 2071.568848,881.927246   C2072.175049,885.644165 2070.181885,887.084106 2066.287598,886.958252  z"/>
<path id="" fill="#2C6D85" opacity="0" stroke="none" d=" M519.061768,472.573181   C515.372131,471.865295 514.933167,468.945038 515.053223,465.318054   C516.396484,467.345947 517.712585,469.780334 519.061768,472.573181  z"/>
<path id="" fill="#2C6D85" opacity="0" stroke="none" d=" M498.159363,472.298706   C502.055450,472.990265 501.963715,476.162628 501.957245,479.686279   C500.691223,477.613770 499.448456,475.132721 498.159363,472.298706  z"/>
<path id="" fill="#2C6D85" opacity="0" stroke="none" d=" M490.933838,457.429688   C494.638977,458.125732 495.060211,461.055573 494.947754,464.678741   C493.603577,462.651520 492.286041,460.218018 490.933838,457.429688  z"/>
<path id="" fill="#2C6D85" opacity="0" stroke="none" d=" M833.365479,788.898804   C833.422668,785.846191 833.768372,782.518433 834.492065,779.085205   C834.464722,782.194336 834.059387,785.408936 833.365479,788.898804  z"/>
<path id="" fill="#2C6D85" opacity="0" stroke="none" d=" M1782.612549,293.963013   C1781.564087,295.604004 1780.161743,297.270111 1778.421631,298.980438   C1779.475464,297.345825 1780.867065,295.666962 1782.612549,293.963013  z"/>
<path id="" fill="#2C6D85" opacity="0" stroke="none" d=" M1741.352295,377.983826   C1740.630127,380.173431 1739.626221,382.531372 1738.262695,384.914246   C1738.958740,382.676819 1740.014648,380.414490 1741.352295,377.983826  z"/>
<path id="" fill="#2C6D85" opacity="0" stroke="none" d=" M1610.502075,1006.163696   C1610.261230,1001.890991 1610.305420,997.260803 1610.623413,992.323120   C1610.860474,996.612488 1610.823853,1001.209412 1610.502075,1006.163696  z"/>
<path id="" fill="#010C19" opacity="0" stroke="none" d=" M2089.293457,865.934692   C2090.390625,864.335449 2091.868896,862.759827 2093.641846,861.044434   C2094.145996,863.963745 2092.822021,865.729736 2089.293457,865.934692  z"/>
<path id="" fill="#2C6D85" opacity="0" stroke="none" d=" M1830.627930,1073.972534   C1831.148438,1076.933228 1829.851074,1078.759888 1826.239014,1078.952637   C1827.342529,1077.324707 1828.833984,1075.716553 1830.627930,1073.972534  z"/>
<path id="" fill="#2C6D85" opacity="0" stroke="none" d=" M2260.630615,705.964966   C2261.299316,709.058899 2259.207031,709.725281 2256.335938,709.974487   C2257.404297,708.658569 2258.857422,707.354797 2260.630615,705.964966  z"/>
<path id="" fill="#010C19" opacity="0" stroke="none" d=" M2072.285156,881.934753   C2073.383789,880.332397 2074.863770,878.758911 2076.647705,877.068665   C2077.110596,879.979980 2075.791748,881.744263 2072.285156,881.934753  z"/>
<path id="" fill="#2C6D85" opacity="0" stroke="none" d=" M1904.633789,1004.044006   C1905.146484,1006.962830 1903.809204,1008.718323 1900.311401,1008.968323   C1901.399048,1007.358704 1902.867310,1005.767822 1904.633789,1004.044006  z"/>
<path id="" fill="#2C6D85" opacity="0" stroke="none" d=" M1249.350098,1064.888428   C1249.409546,1062.475220 1249.775513,1059.828003 1250.517334,1057.082275   C1250.481079,1059.540527 1250.068848,1062.097412 1249.350098,1064.888428  z"/>
<path id="" fill="#010C19" opacity="0" stroke="none" d=" M1987.333374,960.987549   C1988.404785,959.654846 1989.845093,958.329041 1991.623291,956.979248   C1990.541382,958.301636 1989.121948,959.648010 1987.333374,960.987549  z"/>
<path id="" fill="#2C6D85" opacity="0" stroke="none" d=" M1899.630615,1008.999146   C1898.509277,1010.279846 1897.066650,1011.635132 1895.246094,1012.976990   C1896.348633,1011.666931 1897.828979,1010.370361 1899.630615,1008.999146  z"/>
<path id="" fill="#2C6D85" opacity="0" stroke="none" d=" M542.621338,497.805969   C540.925354,496.910126 539.010620,495.780151 537.058105,494.303680   C538.814453,495.162079 540.608459,496.366943 542.621338,497.805969  z"/>
<path id="" fill="#2C6D85" opacity="0" stroke="none" d=" M1764.628418,328.071991   C1764.168823,329.905853 1763.400635,331.894470 1762.242310,333.890656   C1762.674805,332.007751 1763.497192,330.117249 1764.628418,328.071991  z"/>
<path id="" fill="#010C19" opacity="0" stroke="none" d=" M2077.355225,876.970581   C2078.091064,875.696289 2079.230225,874.441101 2080.662109,873.053101   C2081.171143,875.283325 2081.001709,877.343567 2077.355225,876.970581  z"/>
<path id="" fill="#2C6D85" opacity="0" stroke="none" d=" M494.937134,465.427948   C495.937073,467.078674 496.983093,469.081573 498.056580,471.459229   C497.050385,469.816040 496.016815,467.798065 494.937134,465.427948  z"/>
<path id="" fill="#2C6D85" opacity="0" stroke="none" d=" M1836.627930,1069.027832   C1837.294556,1072.102539 1835.626587,1073.197144 1832.312500,1072.988403   C1833.380127,1071.693848 1834.848877,1070.416626 1836.627930,1069.027832  z"/>
<path id="" fill="#2C6D85" opacity="0" stroke="none" d=" M1893.666748,1014.002563   C1892.885742,1015.240112 1891.808105,1016.611572 1890.346558,1017.971191   C1891.098633,1016.685120 1892.234375,1015.410767 1893.666748,1014.002563  z"/>
<path id="" fill="#2C6D85" opacity="0" stroke="none" d=" M1872.667969,1034.016602   C1871.863892,1035.237427 1870.768799,1036.601318 1869.284668,1037.941162   C1870.056274,1036.664673 1871.216553,1035.412231 1872.667969,1034.016602  z"/>
<path id="" fill="#2C6D85" opacity="0" stroke="none" d=" M1840.650635,1065.056641   C1839.860474,1066.281128 1838.774170,1067.629639 1837.302368,1068.957642   C1838.062744,1067.685059 1839.208618,1066.432861 1840.650635,1065.056641  z"/>
<path id="" fill="#2C6D85" opacity="0" stroke="none" d=" M1852.277344,1053.731812   C1851.615723,1054.775269 1850.653442,1055.879639 1849.310059,1056.966064   C1849.944702,1055.896240 1850.960693,1054.844482 1852.277344,1053.731812  z"/>
<path id="" fill="#2C6D85" opacity="0" stroke="none" d=" M1855.617676,1050.887207   C1855.123047,1051.844849 1854.295654,1052.843140 1853.073730,1053.707520   C1853.547607,1052.691650 1854.416260,1051.809692 1855.617676,1050.887207  z"/>
<path id="" fill="#2C6D85" opacity="0" stroke="none" d=" M1743.626953,372.011719   C1743.408447,373.697235 1742.910156,375.622223 1742.050903,377.655029   C1742.242310,375.925629 1742.794678,374.088409 1743.626953,372.011719  z"/>
<path id="" fill="#2C6D85" opacity="0" stroke="none" d=" M840.380371,743.794067   C840.173767,742.495789 840.268738,740.966553 840.614929,739.227295   C840.804749,740.532654 840.743347,742.047852 840.380371,743.794067  z"/>
<path id="" fill="#2C6D85" opacity="0" stroke="none" d=" M848.211243,693.541565   C848.095276,691.734314 848.241882,689.654114 848.655273,687.300537   C848.772644,689.107727 848.623230,691.188110 848.211243,693.541565  z"/>
<path id="" fill="#2C6D85" opacity="0" stroke="none" d=" M1376.119995,468.692444   C1376.021606,467.737427 1376.169678,466.528259 1376.589355,465.160492   C1376.696167,466.147339 1376.531250,467.292816 1376.119995,468.692444  z"/>
<path id="" fill="#2C6D85" opacity="0" stroke="none" d=" M1345.308105,613.860657   C1345.477295,612.730347 1345.931274,611.431946 1346.761230,610.112183   C1346.622437,611.291443 1346.107544,612.492004 1345.308105,613.860657  z"/>
<path id="" fill="#2C6D85" opacity="0" stroke="none" d=" M752.656372,1131.140625   C752.813599,1132.741821 752.682861,1134.617065 752.244812,1136.740967   C752.081116,1135.131226 752.224731,1133.273071 752.656372,1131.140625  z"/>
<path id="" fill="#2C6D85" opacity="0" stroke="none" d=" M753.809326,1124.430176   C753.917725,1125.920654 753.766479,1127.678833 753.355225,1129.703125   C753.246765,1128.212158 753.398315,1126.454956 753.809326,1124.430176  z"/>
<path id="" fill="#2C6D85" opacity="0" stroke="none" d=" M1868.632202,1038.023193   C1868.177612,1038.925415 1867.438843,1039.954102 1866.317749,1040.970093   C1866.739624,1040.021606 1867.543823,1039.085571 1868.632202,1038.023193  z"/>
<path id="" fill="#2C6D85" opacity="0" stroke="none" d=" M1793.334961,309.956055   C1793.497925,308.818970 1793.929688,307.478180 1794.742676,306.108276   C1794.617188,307.303589 1794.110352,308.527985 1793.334961,309.956055  z"/>
<path id="" fill="#2C6D85" opacity="0" stroke="none" d=" M1887.650879,1020.028870   C1887.190063,1020.942017 1886.431274,1021.953552 1885.290039,1022.944763   C1885.722778,1021.992065 1886.537842,1021.059692 1887.650879,1020.028870  z"/>
<path id="" fill="#2C6D85" opacity="0" stroke="none" d=" M1754.655273,349.034424   C1754.504761,350.176147 1754.080688,351.516022 1753.280273,352.900452   C1753.396484,351.707520 1753.889160,350.470032 1754.655273,349.034424  z"/>
<path id="" fill="#2C6D85" opacity="0" stroke="none" d=" M1360.811768,451.374786   C1360.910889,452.549805 1360.776733,454.004211 1360.391357,455.719055   C1360.286133,454.537750 1360.432251,453.095947 1360.811768,451.374786  z"/>
<path id="" fill="#2C6D85" opacity="0" stroke="none" d=" M1265.196899,990.603271   C1265.093750,989.433167 1265.224731,987.987610 1265.604858,986.282227   C1265.713013,987.457520 1265.572021,988.892639 1265.196899,990.603271  z"/>
<path id="" fill="#2C6D85" opacity="0" stroke="none" d=" M1756.658203,345.008514   C1756.563599,345.861206 1756.187866,346.871002 1755.470947,347.954041   C1755.545776,347.073395 1755.961548,346.119507 1756.658203,345.008514  z"/>
<path id="" fill="#2C6D85" opacity="0" stroke="none" d=" M1241.205322,1102.617432   C1241.099731,1101.443481 1241.230835,1099.994751 1241.612549,1098.286987   C1241.722656,1099.466187 1241.582397,1100.904419 1241.205322,1102.617432  z"/>
<path id="" fill="#2C6D85" opacity="0" stroke="none" d=" M2255.664551,710.016785   C2255.502686,710.600281 2255.041260,711.253540 2254.245117,711.925354   C2254.395508,711.324829 2254.880127,710.705627 2255.664551,710.016785  z"/>
<path id="" fill="#2C6D85" opacity="0" stroke="none" d=" M2274.328613,718.968872   C2274.497559,718.415283 2274.940918,717.749146 2275.718262,717.057983   C2275.569092,717.640747 2275.085938,718.248535 2274.328613,718.968872  z"/>
<path id="" fill="#2C6D85" opacity="0" stroke="none" d=" M2252.659668,713.024048   C2252.459473,713.571228 2251.984863,714.235229 2251.165039,714.907898   C2251.341309,714.324707 2251.863281,713.732849 2252.659668,713.024048  z"/>
<path id="" fill="#2C6D85" opacity="0" stroke="none" d=" M1889.685303,1018.065796   C1889.504883,1018.613037 1889.049072,1019.263855 1888.261719,1019.932617   C1888.423340,1019.356873 1888.916504,1018.763184 1889.685303,1018.065796  z"/>
<path id="" fill="#2C6D85" opacity="0" stroke="none" d=" M1359.660400,457.063843   C1359.839355,457.751556 1359.726074,458.635284 1359.365967,459.747070   C1359.202148,459.070007 1359.285156,458.164886 1359.660400,457.063843  z"/>
<path id="" fill="#2C6D85" opacity="0" stroke="none" d=" M1372.169922,487.608032   C1372.101562,487.018921 1372.265869,486.214417 1372.669067,485.208130   C1372.739624,485.801819 1372.571045,486.597260 1372.169922,487.608032  z"/>
<path id="" fill="#2C6D85" opacity="0" stroke="none" d=" M1248.164551,1069.625977   C1248.089600,1069.035278 1248.247559,1068.231323 1248.638428,1067.220581   C1248.713379,1067.813477 1248.555420,1068.613159 1248.164551,1069.625977  z"/>
<path id="" fill="#2C6D85" opacity="0" stroke="none" d=" M751.135193,1169.266357   C751.539612,1169.195923 752.110657,1169.372314 752.823853,1169.823975   C752.411316,1169.904053 751.856567,1169.708740 751.135193,1169.266357  z"/>
<path id="" fill="#2C6D85" opacity="0" stroke="none" d=" M1746.699707,366.101105   C1746.801514,366.518097 1746.643555,367.095581 1746.220947,367.831543   C1746.117432,367.413879 1746.278687,366.837738 1746.699707,366.101105  z"/>
<path id="" fill="#2C6D85" opacity="0" stroke="none" d=" M1747.650635,364.055725   C1747.769897,364.487762 1747.618896,365.073792 1747.200439,365.821747   C1747.082153,365.392334 1747.231201,364.801025 1747.650635,364.055725  z"/>
<path id="" fill="#2C6D85" opacity="0" stroke="none" d=" M1266.319702,984.969177   C1266.158691,984.554077 1266.273315,983.984253 1266.610596,983.221130   C1266.753906,983.623352 1266.674561,984.218933 1266.319702,984.969177  z"/>
<path id="" fill="#2C6D85" opacity="0" stroke="none" d=" M1784.692871,293.063232   C1784.511475,293.404114 1784.024170,293.687958 1783.240356,293.967773   C1783.424927,293.644592 1783.906006,293.325409 1784.692871,293.063232  z"/>
<path id="" fill="#2C6D85" opacity="0" stroke="none" d=" M1869.311157,1063.932373   C1869.246826,1063.482666 1869.463013,1062.916382 1869.994995,1062.288696   C1870.070923,1062.756714 1869.831299,1063.286255 1869.311157,1063.932373  z"/>
<path id="" fill="#2C6D85" opacity="0" stroke="none" d=" M1867.352051,1065.113770   C1867.504028,1064.770752 1867.963135,1064.408203 1868.735352,1064.038330   C1868.585449,1064.385498 1868.122437,1064.739868 1867.352051,1065.113770  z"/>
<path id="" fill="#2C6D85" opacity="0" stroke="none" d=" M1242.329346,1096.978149   C1242.166870,1096.559692 1242.281250,1095.983887 1242.621338,1095.213135   C1242.766846,1095.619141 1242.686646,1096.219971 1242.329346,1096.978149  z"/>
<path id="" fill="#2C6D85" opacity="0" stroke="none" d=" M752.997437,1170.292969   C753.245483,1170.088013 753.524170,1170.234863 753.870483,1170.693237   C753.690430,1170.779175 753.387085,1170.659180 752.997437,1170.292969  z"/>
<path id="" fill="#2C6D85" opacity="0" stroke="none" d=" M1841.688232,1063.973633   C1841.765747,1064.182007 1841.588989,1064.473755 1841.170654,1064.866455   C1841.097412,1064.664062 1841.265747,1064.360596 1841.688232,1063.973633  z"/>
<path id="" fill="#2C6D85" opacity="0" stroke="none" d=" M1857.694336,1048.988647   C1857.762695,1049.196655 1857.572876,1049.487549 1857.134766,1049.874756   C1857.069580,1049.671265 1857.252930,1049.371338 1857.694336,1048.988647  z"/>
<path id="" fill="#2C6D85" opacity="0" stroke="none" d=" M1865.718384,1041.006104   C1865.779663,1041.213379 1865.584351,1041.493286 1865.142090,1041.860840   C1865.083984,1041.658569 1865.272949,1041.368652 1865.718384,1041.006104  z"/>
<path id="" fill="#2C6D85" opacity="0" stroke="none" d=" M1254.282593,1040.993408   C1254.077393,1040.748291 1254.220947,1040.471436 1254.667969,1040.121094   C1254.755493,1040.298950 1254.642212,1040.603638 1254.282593,1040.993408  z"/>
<path id="" fill="#2C6D85" opacity="0" stroke="none" d=" M1884.699707,1022.999878   C1884.764893,1023.201904 1884.578369,1023.495911 1884.141357,1023.885010   C1884.076782,1023.684021 1884.262451,1023.387939 1884.699707,1022.999878  z"/>
<path id="" fill="#2C6D85" opacity="0" stroke="none" d=" M1277.831665,915.744263   C1277.518311,915.862671 1277.301636,915.645996 1277.113037,915.121033   C1277.324097,915.090881 1277.586670,915.289734 1277.831665,915.744263  z"/>
<path id="" fill="#2C6D85" opacity="0" stroke="none" d=" M1277.023926,914.695923   C1276.767700,914.905029 1276.486938,914.755798 1276.146729,914.284180   C1276.332153,914.198303 1276.636230,914.323547 1277.023926,914.695923  z"/>
<path id="" fill="#2C6D85" opacity="0" stroke="none" d=" M2273.305664,720.063904   C2273.234863,719.870544 2273.410156,719.561890 2273.834717,719.142883   C2273.906494,719.337891 2273.729004,719.643188 2273.305664,720.063904  z"/>
<path id="" fill="#2C6D85" opacity="0" stroke="none" d=" M2253.710449,712.000488   C2253.773438,712.200439 2253.585693,712.486755 2253.151123,712.863770   C2253.089600,712.665222 2253.274902,712.376038 2253.710449,712.000488  z"/>
<path id="" fill="#2C6D85" opacity="0" stroke="none" d=" M536.954956,493.750916   C536.723877,493.935883 536.457031,493.790863 536.124512,493.351227   C536.383911,493.060150 536.670654,493.181580 536.954956,493.750916  z"/>
<path id="" fill="#2C6D85" opacity="0" stroke="none" d=" M1720.284912,464.993713   C1720.228882,464.784576 1720.432983,464.501923 1720.890747,464.134033   C1720.944702,464.339264 1720.744873,464.629761 1720.284912,464.993713  z"/>
<path id="" fill="#2C6D85" opacity="0" stroke="none" d=" M1717.679688,427.974609   C1717.905273,428.229767 1717.764282,428.517334 1717.304443,428.880524   C1717.207031,428.694763 1717.316162,428.378418 1717.679688,427.974609  z"/>
<path id="" fill="#2C6D85" opacity="0" stroke="none" d=" M1745.746582,368.042664   C1745.941162,368.280731 1745.798340,368.549347 1745.357178,368.885986   C1745.276733,368.714111 1745.393555,368.420502 1745.746582,368.042664  z"/>
</svg>