<svg version="1.1" id="Layer_1" xmlns="http://www.w3.org/2000/svg" xmlns:xlink="http://www.w3.org/1999/xlink" x="0px" y="0px" height="100%" viewBox="0 0 2070 2220" enable-background="new 0 0 2070 2220" xml:space="preserve">
<path id="" class="lim" fill="#FDFDFD" opacity="0" stroke="none" d=" M455.506531,865.536621   C416.828644,887.034607 378.783936,908.151550 340.815887,929.405518   C335.876526,932.170532 330.949493,932.673279 325.474945,931.872253   C305.162445,928.900330 284.809357,926.207153 264.486694,923.303040   C239.255692,919.697510 214.043732,915.959045 188.816086,912.329834   C168.491470,909.406006 148.172943,906.425842 127.808350,903.808044   C124.361908,903.364990 122.390900,901.914185 120.661888,899.315002   C102.420296,871.892212 84.203079,844.453003 65.835983,817.114563   C63.793995,814.075195 63.643471,810.988403 63.649261,807.649597   C63.676430,791.991211 63.662540,776.332886 63.662563,760.674500   C63.662712,662.060181 63.662655,563.445862 63.662663,464.831512   C63.662663,462.832581 63.867592,460.808136 63.622955,458.839600   C62.957008,453.480804 65.325691,451.770874 70.456802,452.260803   C74.418564,452.639069 78.445358,452.336121 82.443237,452.336121   C222.702133,452.336090 362.961121,452.393799 503.219696,452.178101   C510.816284,452.166412 516.381042,454.086273 521.433533,459.776520   C528.494995,467.729431 538.039124,474.009125 543.258850,482.916382   C548.456055,491.785004 549.628662,503.013763 552.555847,513.210571   C568.850098,569.971191 585.143127,626.732178 601.430359,683.494812   C602.992126,688.937744 603.796570,694.422363 603.752136,700.162415   C603.561157,724.814514 603.509155,749.470764 603.781128,774.121338   C603.849487,780.312073 602.560120,783.980408 596.430420,787.327881   C549.496887,812.958862 502.879303,839.168457 455.506531,865.536621  z"/>
<path id="" class="lim" fill="#FDFDFD" opacity="0" stroke="none" d=" M1278.477661,996.509644   C1210.802856,1040.833130 1143.739624,1084.773071 1076.672363,1128.706909   C1048.566528,1147.118286 1020.453125,1165.518188 992.338928,1183.916992   C990.390442,1185.192139 988.268677,1186.242798 986.468323,1187.696167   C982.501343,1190.898560 979.843567,1190.455933 976.989075,1185.913086   C971.328674,1176.904541 965.065979,1168.276001 959.103333,1159.455933   C934.881409,1123.625854 910.676636,1087.784302 886.475952,1051.939941   C885.358521,1050.285034 884.586243,1048.326904 883.229919,1046.917236   C879.515808,1043.056641 881.374756,1040.800293 884.992004,1038.386597   C896.333496,1030.818359 907.548828,1023.061157 918.822144,1015.390442   C953.753418,991.622131 988.703857,967.881897 1023.619812,944.091003   C1098.119995,893.328552 1172.587402,842.517761 1247.101318,791.775269   C1276.524414,771.738770 1306.032837,751.827698 1335.513184,731.875671   C1337.156006,730.763916 1338.899658,729.801453 1340.500854,728.827576   C1343.650391,730.280762 1344.628296,733.289612 1346.245972,735.712341   C1378.217407,783.595093 1410.138184,831.511719 1442.090088,879.407471   C1447.023560,886.802795 1447.671021,885.671936 1439.368164,891.109741   C1394.838745,920.274109 1350.327637,949.466431 1305.807861,978.645508   C1296.906494,984.479736 1287.994751,990.298096 1278.477661,996.509644  z"/>
<path id="" class="lim" fill="#FBFBFB" opacity="0" stroke="none" d=" M1342.566284,1106.467529   C1312.194458,1126.901611 1282.436157,1146.952881 1252.678711,1167.005493   C1251.575195,1167.749146 1250.500488,1168.536987 1249.379883,1169.253540   C1243.406006,1173.072998 1243.360718,1173.099976 1239.203857,1167.755859   C1233.501465,1160.424561 1227.847900,1153.054932 1222.212891,1145.671509   C1210.940430,1130.901733 1199.694824,1116.111328 1187.799561,1100.490723   C1249.493652,1060.348267 1310.936523,1020.369324 1373.097656,979.923035   C1390.178223,1003.793274 1406.947876,1027.229004 1424.310669,1051.493652   C1397.068481,1069.824341 1370.124268,1087.954712 1342.566284,1106.467529  z"/>
<path id="" class="lim" fill="#FBFBFB" opacity="0" stroke="none" d=" M1800.451904,374.949005   C1785.556641,363.027893 1771.259277,351.663727 1756.911255,340.363647   C1753.469116,337.652649 1750.767334,334.571747 1748.950317,330.445526   C1741.460327,313.435730 1733.769531,296.513336 1726.011475,279.623596   C1724.283325,275.861511 1722.945435,272.262451 1724.725220,268.184082   C1733.595337,247.858032 1742.452881,227.526459 1751.592163,206.560837   C1759.408447,210.894638 1764.987915,216.960327 1771.211792,222.089218   C1788.115723,236.019501 1804.668701,250.374786 1821.504028,264.389526   C1826.494385,268.543640 1829.951782,273.274811 1832.208496,279.522461   C1843.031006,309.483551 1854.312134,339.278900 1865.395996,369.145813   C1866.178223,371.253571 1867.414795,373.314453 1866.642090,376.387360   C1844.853271,375.819916 1822.936890,377.367645 1800.451904,374.949005  z"/>
<path id="" class="lim" fill="#FBFBFB" opacity="0" stroke="none" d=" M1751.112549,942.754822   C1736.355713,934.340210 1722.329346,926.120056 1708.049438,918.366760   C1701.704468,914.921814 1701.557861,914.992981 1704.833618,908.760681   C1724.438477,871.459473 1744.213867,834.247559 1763.690674,796.879761   C1766.085938,792.284302 1768.048950,791.347900 1772.698486,793.927490   C1793.293457,805.353394 1813.988159,816.607117 1834.829224,827.576538   C1839.587891,830.081238 1838.707764,832.770447 1837.080322,836.426697   C1824.140869,865.495911 1811.244263,894.584290 1798.374512,923.684448   C1794.085327,933.382935 1789.958984,943.153564 1785.652954,952.844482   C1784.604370,955.204651 1784.050537,958.007629 1780.863037,959.470825   C1771.307129,954.112183 1761.523438,948.625732 1751.112549,942.754822  z"/>
<path id="" class="lim" fill="#FBFBFB" opacity="0" stroke="none" d=" M1539.238770,1011.473938   C1562.677612,1010.615234 1585.467529,1009.313477 1608.256958,1008.002808   C1608.918335,1007.964783 1609.571777,1007.793823 1610.233154,1007.748535   C1620.521729,1007.043213 1621.509521,1007.897217 1621.657715,1018.366455   C1621.935181,1037.972900 1621.691284,1057.598633 1622.511230,1077.180786   C1622.996460,1088.765869 1623.889771,1100.331665 1623.651245,1111.937500   C1623.597778,1114.544434 1624.296021,1117.272217 1622.831177,1119.650757   C1612.357300,1122.226807 1601.698120,1121.523071 1591.144531,1122.040161   C1571.942139,1122.981201 1552.727417,1123.708008 1533.510620,1124.294189   C1525.801514,1124.529297 1525.603638,1124.250488 1525.693726,1117.110229   C1526.079102,1086.551514 1523.382080,1056.042725 1524.158447,1024.520142   C1524.272705,1014.024414 1531.357056,1012.440735 1539.238770,1011.473938  z"/>
<path id="" class="lim" fill="#FAFAFA" opacity="0" stroke="none" d=" M1248.030151,1408.171509   C1264.026489,1399.229858 1279.372314,1390.618530 1294.636353,1381.864502   C1297.477783,1380.234863 1299.823853,1378.851929 1301.983154,1382.661621   C1313.250488,1402.539551 1324.564941,1422.390869 1336.149292,1442.754761   C1325.968262,1448.875244 1316.325684,1454.680542 1306.674927,1460.472168   C1288.160645,1471.582886 1269.659546,1482.715698 1251.113770,1493.773438   C1245.439697,1497.156616 1245.088867,1497.091675 1242.039551,1491.542603   C1231.963135,1473.206177 1222.117798,1454.741699 1211.889038,1436.491455   C1209.376221,1432.008301 1209.843506,1429.556396 1214.409302,1427.081299   C1225.497681,1421.070312 1236.383789,1414.686279 1248.030151,1408.171509  z"/>
<path id="" class="lim" fill="#FAFAFA" opacity="0" stroke="none" d=" M783.061584,1176.370361   C792.491516,1172.880981 801.474792,1173.291870 810.434326,1174.019043   C830.053833,1175.611816 847.020874,1198.378540 846.944092,1216.202026   C846.859619,1235.795166 831.204041,1256.592407 806.780945,1259.593018   C783.989563,1262.393188 761.605713,1247.204102 757.077576,1225.710938   C752.952576,1206.130981 761.026123,1187.522339 783.061584,1176.370361  z"/>
<path id="" fill="#1A7195" opacity="0" stroke="none" d=" M340.000000,398.213623   C359.315125,398.208984 377.707581,397.155701 395.923279,398.499054   C413.565643,399.800110 431.149139,399.110413 448.747009,399.687988   C453.481232,399.843414 457.964386,399.025513 462.471069,397.679474   C484.129303,391.210632 505.820312,384.851440 527.503723,378.467041   C530.055481,377.715729 532.594299,376.815796 535.205200,376.391724   C540.488525,375.533661 544.645569,378.195892 545.977295,382.977661   C547.392700,388.059875 545.619629,392.348511 540.808105,394.485657   C537.785706,395.828064 534.551331,396.724670 531.365234,397.662201   C510.633026,403.762787 489.814880,409.585358 469.188080,416.022095   C462.258209,418.184601 455.440460,417.830566 448.479492,417.823242   C407.187256,417.779938 365.871948,418.671753 324.607544,417.595306   C246.740036,415.564026 168.871307,415.901642 90.998840,415.773254   C87.302879,415.767151 83.671677,415.638062 80.237747,414.131165   C75.389725,412.003662 73.605682,408.822479 74.304932,403.878540   C74.975143,399.140015 78.204689,397.152588 82.419769,396.357269   C84.032860,396.052887 85.739891,396.217743 87.404129,396.217438   C112.712318,396.212799 138.057922,395.329803 163.321152,396.396210   C221.875046,398.867920 280.449280,396.985168 340.000000,398.213623  z"/>
<path id="" fill="#1A7094" opacity="0" stroke="none" d=" M902.435181,1703.379517   C903.581421,1693.087891 905.070679,1691.698242 915.121155,1691.680786   C947.109314,1691.625366 979.128418,1692.573608 1011.079407,1691.484253   C1076.013794,1689.270264 1140.947144,1690.732910 1205.877930,1690.274902   C1215.394165,1690.207764 1224.247681,1687.180176 1233.273438,1685.114624   C1266.984375,1677.399902 1300.582153,1669.189209 1334.199707,1661.070312   C1337.469849,1660.280518 1340.709229,1659.721558 1344.055176,1659.720459   C1351.232178,1659.717773 1353.523682,1661.253784 1354.222412,1666.515259   C1355.032471,1672.616333 1352.487549,1676.331055 1345.976196,1678.017090   C1339.215942,1679.767578 1332.393311,1681.277710 1325.595947,1682.884155   C1289.683838,1691.371216 1253.759155,1699.805908 1217.874268,1708.406738   C1213.602051,1709.430664 1209.383911,1709.827759 1205.039429,1709.826782   C1108.741333,1709.805054 1012.443298,1709.807861 916.145264,1709.818359   C910.820496,1709.818848 905.198975,1710.638916 902.435181,1703.379517  z"/>
<path id="" fill="#1A7195" opacity="0" stroke="none" d=" M1426.118286,1743.904297   C1413.101562,1726.999634 1400.476807,1710.689453 1387.896851,1694.344849   C1386.082397,1691.987549 1384.088623,1689.680786 1383.762207,1686.503784   C1383.354126,1682.531006 1384.380249,1679.085815 1388.032959,1677.132690   C1391.790283,1675.123657 1395.772339,1674.737549 1399.127075,1677.990845   C1401.265381,1680.064453 1403.121216,1682.453857 1404.945068,1684.823853   C1443.699585,1735.175537 1482.412964,1785.558716 1521.173340,1835.905762   C1554.245361,1878.864258 1587.366333,1921.785278 1620.466553,1964.722046   C1621.890015,1966.568481 1623.536011,1968.281738 1624.711182,1970.273438   C1627.669312,1975.287231 1626.689941,1980.714478 1622.539185,1983.548584   C1618.011475,1986.640015 1613.044556,1986.175049 1609.214111,1981.617798   C1604.081421,1975.510742 1599.342529,1969.071533 1594.468018,1962.748901   C1556.089111,1912.966675 1517.699585,1863.192505 1479.352783,1813.385498   C1461.697998,1790.454590 1444.131226,1767.455811 1426.118286,1743.904297  z"/>
<path id="" fill="#1A7195" opacity="0" stroke="none" d=" M1029.732910,1354.538574   C1022.042480,1346.105591 1022.396423,1342.186401 1031.613770,1335.898193   C1051.964844,1322.014160 1072.485962,1308.379761 1092.934082,1294.637817   C1146.001099,1258.975220 1199.038696,1223.269043 1252.144653,1187.664307   C1274.540771,1172.648926 1297.063232,1157.821533 1319.563721,1142.962158   C1325.135986,1139.282227 1329.976807,1139.879028 1333.593384,1144.417847   C1337.163696,1148.898560 1336.552734,1154.050049 1330.797363,1158.166260   C1317.799927,1167.462158 1304.506104,1176.348389 1291.244629,1185.269775   C1237.917603,1221.144531 1184.573120,1256.993530 1131.202148,1292.802856   C1102.174316,1312.279175 1073.084106,1331.662231 1044.011475,1351.071411   C1039.898804,1353.817017 1035.993896,1357.420044 1029.732910,1354.538574  z"/>
<path id="" fill="#1A7195" opacity="0" stroke="none" d=" M812.363037,921.895264   C812.263916,907.815857 812.333679,907.922058 826.322510,898.729126   C859.428406,876.973083 892.420227,855.043457 925.533203,833.298218   C977.551758,799.137512 1029.636597,765.077759 1081.681030,730.956604   C1089.472534,725.848450 1097.145386,720.558472 1104.968750,715.500610   C1112.113159,710.881653 1117.233521,711.310425 1120.605591,716.355164   C1123.725342,721.022217 1121.533691,728.161133 1115.204956,732.247864   C1069.350586,761.857666 1023.811951,791.956299 978.183594,821.915771   C928.942444,854.247437 879.657043,886.512329 830.551514,919.048523   C824.748230,922.893677 819.438232,924.677368 812.363037,921.895264  z"/>
<path id="" fill="#1A7195" opacity="0" stroke="none" d=" M1154.569580,695.473511   C1153.091431,685.779480 1158.794678,680.586304 1166.551392,675.440186   C1224.557373,636.957458 1282.279907,598.047424 1340.078735,559.252258   C1374.098633,536.417786 1408.094482,513.547546 1442.104004,490.697479   C1443.760620,489.584534 1445.349365,488.314362 1447.133057,487.457672   C1452.001709,485.119568 1456.664062,486.261169 1459.572876,490.173859   C1462.716553,494.402954 1461.540283,498.490692 1458.766357,502.079742   C1457.201050,504.105042 1454.696411,505.454834 1452.495850,506.931274   C1386.387939,551.285950 1320.261963,595.613586 1254.146240,639.956543   C1227.308350,657.956299 1200.401733,675.855957 1173.723511,694.089478   C1167.496582,698.345337 1161.774292,699.523438 1154.569580,695.473511  z"/>
<path id="" fill="#1A7194" opacity="0" stroke="none" d=" M555.843262,1862.065674   C557.376892,1871.753052 551.927307,1875.787231 544.771179,1879.346802   C473.186798,1914.952271 401.680725,1950.715210 330.159668,1986.447998   C303.935516,1999.549927 277.732635,2012.694214 251.512589,2025.804321   C249.130356,2026.995605 246.779434,2028.343994 244.264282,2029.155518   C238.871918,2030.895386 234.264481,2029.067017 232.393692,2024.774780   C230.317215,2020.010620 231.802979,2014.426025 236.581192,2011.937866   C250.168015,2004.862915 263.915558,1998.095825 277.618622,1991.245117   C364.305420,1947.906372 451.017456,1904.618164 537.633301,1861.138306   C542.392334,1858.749390 546.937988,1857.877075 552.822144,1858.546631   C554.993469,1859.007446 555.591614,1860.100220 555.843262,1862.065674  z"/>
<path id="" fill="#1A7195" opacity="0" stroke="none" d=" M603.954102,574.162720   C590.524475,524.920593 577.281494,476.473022 564.033508,428.026794   C562.805054,423.534210 561.209900,419.111176 560.380798,414.547607   C559.246582,408.304413 561.805115,403.803101 566.556396,402.509491   C572.088745,401.003204 576.697144,403.334503 578.758850,409.873688   C582.157471,420.653137 584.940735,431.628296 587.914124,442.539795   C599.374268,484.596558 610.791443,526.665039 622.253906,568.721191   C637.125549,623.285767 652.035034,677.840088 666.881653,732.411499   C667.573975,734.956238 668.180420,737.623962 668.183472,740.235229   C668.189331,745.176697 665.233582,748.713562 660.661560,749.418762   C656.232849,750.101990 652.726318,748.194397 650.775269,744.272400   C649.460266,741.628906 648.839966,738.620972 648.051575,735.737061   C633.401428,682.147461 618.772705,628.551941 603.954102,574.162720  z"/>
<path id="" fill="#1A7195" opacity="0" stroke="none" d=" M978.410034,597.938354   C978.623413,596.181396 977.812317,594.204956 977.656189,592.252441   C977.242188,587.073608 979.074280,583.669739 983.937256,581.027832   C1025.177002,558.623230 1066.305298,536.012817 1107.422974,513.384155   C1135.995850,497.659454 1164.524048,481.852936 1192.997070,465.948578   C1195.970947,464.287415 1199.048340,463.170074 1202.251099,462.366577   C1228.067017,455.890198 1253.913452,449.535522 1279.725342,443.043182   C1283.650024,442.056030 1287.560913,441.583862 1291.583008,441.667114   C1295.378540,441.745667 1297.956909,443.650543 1299.186035,447.075714   C1300.549561,450.875397 1299.513306,454.119141 1296.499146,456.983002   C1293.102051,460.210602 1288.690308,460.648682 1284.587280,461.708344   C1265.903320,466.533783 1247.299194,471.847565 1228.385986,475.555481   C1209.709717,479.216919 1193.299072,487.505951 1176.976196,496.567780   C1137.112183,518.698669 1097.121338,540.600586 1057.203857,562.635193   C1036.513306,574.056396 1015.816589,585.468445 995.242310,597.096375   C989.799988,600.172241 984.653198,600.661316 978.410034,597.938354  z"/>
<path id="" fill="#197195" opacity="0" stroke="none" d=" M174.276001,1546.323242   C145.417938,1548.380371 117.469566,1548.087524 89.533096,1548.285278   C86.871407,1548.304199 84.164993,1548.474854 81.556305,1548.073975   C77.045944,1547.380981 74.574547,1544.542236 74.280869,1539.924438   C73.971916,1535.066406 76.382141,1531.212280 81.053207,1530.316406   C84.608841,1529.634277 88.337914,1529.741211 91.991882,1529.704956   C130.580414,1529.321411 169.162735,1528.214722 207.733185,1527.312622   C235.658035,1526.659546 263.618469,1526.810913 291.507446,1525.520142   C321.769806,1524.119507 352.040985,1524.442627 382.280609,1523.405151   C394.550995,1522.984375 406.828949,1522.347778 419.119904,1522.244751   C421.116089,1522.227905 423.141266,1522.142944 425.104309,1522.426758   C429.297974,1523.032959 431.465729,1525.888794 432.111633,1529.809814   C432.817413,1534.094360 431.776245,1537.826172 427.416595,1539.780029   C423.713989,1541.439453 419.795410,1541.861450 415.732483,1541.875244   C394.087952,1541.949097 372.413788,1541.495972 350.806763,1542.477417   C318.885620,1543.927246 286.920288,1543.206177 255.045425,1544.643555   C228.431458,1545.843506 201.836807,1545.616943 174.276001,1546.323242  z"/>
<path id="" fill="#1A7195" opacity="0" stroke="none" d=" M678.000366,335.996033   C752.136841,315.133392 825.478210,294.434937 898.821899,273.744415   C900.735840,273.204529 902.652344,272.465546 904.605713,272.315857   C909.043579,271.975739 912.445740,273.717682 913.918884,278.159973   C915.525085,283.003571 913.768005,287.997253 909.507324,290.135315   C907.152466,291.317047 904.528870,292.012085 901.972778,292.737244   C829.952454,313.168610 757.925903,333.577637 685.899231,353.986084   C658.055237,361.875549 630.209351,369.758301 602.361206,377.633148   C599.477417,378.448608 596.610901,379.413147 593.669312,379.917999   C587.472290,380.981689 583.146667,378.500916 581.938721,373.493469   C580.462524,367.373779 582.535278,363.316711 588.928040,361.440308   C611.272156,354.881897 633.681396,348.545715 656.069824,342.138641   C663.108765,340.124268 670.159973,338.152557 678.000366,335.996033  z"/>
<path id="" fill="#1A7195" opacity="0" stroke="none" d=" M584.677673,1848.026611   C583.097534,1840.103271 585.431580,1834.697998 593.691650,1830.892456   C610.303650,1823.239502 626.253418,1814.159180 642.559998,1805.831177   C679.632751,1786.897095 716.769104,1768.087402 753.854614,1749.178223   C782.633972,1734.504150 811.372131,1719.749146 840.138794,1705.050049   C843.077454,1703.548340 845.857117,1701.811646 849.407349,1701.655518   C854.012390,1701.453003 857.237671,1703.291382 858.993835,1707.341309   C860.839417,1711.597656 859.153381,1715.214355 855.794067,1717.933716   C853.745117,1719.592285 851.347534,1720.873047 848.982483,1722.080200   C805.383179,1744.333496 761.733948,1766.489014 718.160217,1788.792114   C679.627869,1808.514771 641.110291,1828.268921 602.751465,1848.325317   C596.432434,1851.629395 591.044373,1852.395508 584.677673,1848.026611  z"/>
<path id="" fill="#1A7195" opacity="0" stroke="none" d=" M1354.546143,162.243073   C1365.821655,162.234955 1376.150024,162.124664 1386.474854,162.265182   C1394.514893,162.374619 1397.864746,165.266800 1397.846436,171.571548   C1397.829468,177.405716 1393.602783,181.327454 1386.690796,181.804855   C1384.701538,181.942276 1382.694702,181.811829 1380.696045,181.824722   C1355.052246,181.990189 1329.407837,182.321442 1303.765015,182.224060   C1296.535522,182.196609 1289.998901,184.620972 1283.369263,186.545715   C1231.631348,201.566513 1179.977905,216.877853 1128.281250,232.041260   C1122.236206,233.814331 1116.284180,236.120377 1109.866943,236.287491   C1103.518799,236.452820 1100.896851,234.863373 1099.872314,230.363312   C1098.608032,224.809921 1100.605225,220.389053 1106.165649,218.439850   C1113.687866,215.802933 1121.410400,213.730682 1129.069458,211.492828   C1178.865356,196.943283 1228.733887,182.636093 1278.411621,167.694214   C1288.493408,164.661835 1298.408081,163.634369 1308.767578,163.588593   C1323.712646,163.522552 1338.724487,164.908813 1354.546143,162.243073  z"/>
<path id="" fill="#1A7195" opacity="0" stroke="none" d=" M511.955078,238.150635   C498.209106,188.663116 484.667603,139.963928 471.050293,91.285942   C470.137604,88.023399 469.666107,84.767731 469.806976,81.433212   C470.043732,75.829170 472.328125,72.968506 477.081085,72.338585   C481.932465,71.695595 485.882355,73.354103 487.398651,78.176788   C490.388458,87.686050 493.039581,97.304283 495.711853,106.910530   C516.743958,182.516815 537.753967,258.129272 558.745789,333.746765   C559.989319,338.226440 561.384888,342.712036 562.056152,347.290710   C562.973206,353.545929 560.729919,357.029236 555.924133,358.130463   C549.596069,359.580566 545.548645,357.655853 543.645813,351.340637   C539.616699,337.968292 535.954224,324.484772 532.197815,311.031097   C525.490417,287.008209 518.824768,262.973633 511.955078,238.150635  z"/>
<path id="" fill="#1A7195" opacity="0" stroke="none" d=" M731.736694,749.699280   C722.953735,754.574707 714.840210,759.146484 706.679871,763.633179   C704.071045,765.067566 701.446472,766.327026 698.264099,766.405212   C693.736328,766.516541 690.316040,764.993774 688.795410,760.690491   C687.192627,756.154480 688.175659,752.009888 692.471130,749.375305   C697.854675,746.073425 703.397583,743.028076 708.908875,739.938293   C781.420105,699.286682 853.936646,658.644409 926.459839,618.014221   C928.779419,616.714661 931.085693,615.288696 933.570679,614.408875   C938.713379,612.588257 943.272339,613.793274 945.230896,617.121033   C947.570190,621.095764 946.457947,627.472473 942.557983,630.593933   C940.237793,632.450928 937.589294,633.930603 934.983582,635.393250   C869.155457,672.344360 803.312256,709.268738 737.479126,746.211121   C735.740173,747.186951 734.083191,748.308838 731.736694,749.699280  z"/>
<path id="" fill="#1A7195" opacity="0" stroke="none" d=" M1555.353638,546.538696   C1536.412964,532.899658 1518.061157,519.665527 1499.736572,506.393860   C1498.124268,505.226196 1496.542725,503.948242 1495.200806,502.488281   C1491.576294,498.545288 1491.278442,494.583435 1494.117798,490.798859   C1497.044922,486.897217 1502.225098,485.553864 1506.537109,487.714417   C1508.012085,488.453461 1509.349365,489.486267 1510.696411,490.458588   C1530.394775,504.677490 1550.071411,518.926819 1569.790649,533.116821   C1572.550293,535.102722 1574.663818,537.632080 1576.663452,540.297302   C1592.645264,561.600220 1608.528931,582.977722 1624.656494,604.169678   C1628.187744,608.809814 1630.327637,613.850769 1631.761475,619.362610   C1639.383301,648.658936 1647.044678,677.945007 1654.650513,707.245422   C1655.314575,709.803406 1656.044556,712.433167 1656.094360,715.041931   C1656.179810,719.532227 1653.806396,722.719482 1649.440674,723.866150   C1645.204224,724.978821 1641.351807,723.860413 1639.007446,719.973389   C1637.659058,717.737732 1636.798950,715.125671 1636.128784,712.575439   C1629.197021,686.197266 1622.239258,659.825073 1615.534302,633.388794   C1613.033813,623.529175 1608.560059,614.973816 1602.282715,606.928467   C1589.386230,590.400024 1577.076538,573.411804 1564.634399,556.532471   C1562.044800,553.019409 1559.272949,549.746399 1555.353638,546.538696  z"/>
<path id="" fill="#1A7195" opacity="0" stroke="none" d=" M1100.790283,269.165649   C1097.912598,266.831787 1095.307861,265.236969 1093.758667,262.562042   C1090.274170,256.545532 1093.651489,250.391998 1100.630859,249.692535   C1105.303345,249.224258 1108.957153,251.091965 1112.534546,253.759140   C1156.807251,286.767456 1201.105713,319.741516 1245.412476,352.703949   C1267.561157,369.181549 1289.746948,385.609344 1311.897827,402.084076   C1314.297729,403.869019 1316.717896,405.667664 1318.880371,407.721558   C1322.506836,411.165955 1322.697144,415.371643 1320.521118,419.595184   C1318.593628,423.336029 1313.828979,424.873047 1309.150513,423.146667   C1306.711182,422.246552 1304.461426,420.656494 1302.344727,419.083801   C1260.694702,388.138000 1219.078857,357.146393 1177.451904,326.169586   C1152.098389,307.302673 1126.737915,288.444855 1100.790283,269.165649  z"/>
<path id="" fill="#1A7195" opacity="0" stroke="none" d=" M510.715881,1531.401367   C538.645142,1536.686523 565.847229,1541.261719 592.773254,1547.108521   C605.081970,1549.781372 616.635742,1547.334229 628.307495,1545.358887   C663.985291,1539.320435 699.562744,1532.690186 735.194702,1526.377563   C738.117065,1525.859863 741.176575,1525.706299 744.136902,1525.906860   C748.766663,1526.220459 751.327209,1529.185059 751.947021,1533.610962   C752.558044,1537.974487 751.028259,1541.634644 746.822815,1543.415283   C744.098145,1544.568970 741.111328,1545.239502 738.176086,1545.739136   C702.179871,1551.864990 666.169922,1557.910645 630.169067,1564.009277   C627.550476,1564.452881 624.966064,1565.111206 622.378967,1565.725220   C609.833435,1568.702026 597.615723,1567.491211 584.990723,1564.873291   C551.508118,1557.930176 517.799255,1552.079590 484.190308,1545.741943   C481.263947,1545.189941 478.207458,1544.671997 475.570374,1543.396484   C471.660980,1541.505371 469.607910,1538.146973 470.522461,1533.568848   C471.476654,1528.791992 474.684540,1525.981201 479.499908,1525.785522   C481.148254,1525.718506 482.839966,1525.893677 484.464539,1526.204956   C492.943390,1527.829712 501.407013,1529.534058 510.715881,1531.401367  z"/>
<path id="" fill="#1A7195" opacity="0" stroke="none" d=" M1537.361572,1414.088745   C1537.440063,1415.119141 1538.022705,1416.280151 1538.810303,1417.379395   C1542.202881,1422.113770 1541.078735,1426.516602 1538.411255,1431.250488   C1531.872803,1442.854248 1525.735840,1454.683228 1519.310791,1466.351807   C1496.029907,1508.632202 1472.625732,1550.844727 1449.429565,1593.171387   C1442.931152,1605.029297 1432.777222,1613.831055 1424.484131,1624.180176   C1418.252686,1631.956787 1411.637817,1639.489258 1404.597046,1646.533936   C1399.085083,1652.048462 1392.545288,1650.314819 1389.236084,1643.389648   C1387.359375,1639.461792 1388.753296,1636.315918 1391.257446,1633.336792   C1396.821045,1626.717529 1401.901978,1619.604980 1408.048096,1613.579346   C1425.439453,1596.529053 1437.228149,1575.762085 1448.754395,1554.702637   C1471.288208,1513.530762 1494.034180,1472.475098 1516.672729,1431.360718   C1518.117798,1428.736450 1519.443359,1426.043335 1520.742310,1423.342651   C1523.968872,1416.634277 1528.820679,1412.893799 1537.361572,1414.088745  z"/>
<path id="" fill="#1A7195" opacity="0" stroke="none" d=" M1700.507324,1156.016113   C1704.205200,1162.225342 1701.376465,1166.899048 1698.653687,1171.515747   C1681.757202,1200.165527 1664.807373,1228.783813 1647.904175,1257.429443   C1624.579346,1296.957886 1601.281250,1336.502075 1577.968872,1376.037842   C1576.786377,1378.043335 1575.736572,1380.152466 1574.348877,1382.006714   C1571.026001,1386.447266 1564.545654,1387.757568 1560.200073,1385.037354   C1555.979858,1382.395630 1554.795654,1377.155396 1557.875732,1371.795288   C1566.159912,1357.379272 1574.689331,1343.104004 1583.140991,1328.784302   C1615.265259,1274.356079 1647.395508,1219.931396 1679.532837,1165.510864   C1680.885498,1163.220093 1682.281738,1160.951660 1683.742554,1158.728638   C1688.725220,1151.146240 1691.629883,1150.564575 1700.507324,1156.016113  z"/>
<path id="" fill="#1A7195" opacity="0" stroke="none" d=" M973.449768,1377.322510   C975.742798,1375.846680 977.328979,1374.553223 979.135376,1373.763428   C984.926147,1371.231934 989.062195,1372.440674 992.002686,1377.289795   C994.461182,1381.343994 993.676453,1385.993164 989.196716,1389.604736   C984.543091,1393.356567 979.505371,1396.642090 974.558289,1400.018188   C918.214966,1438.469727 861.859802,1476.903809 805.492859,1515.320801   C803.299438,1516.815796 801.085388,1518.402954 798.657043,1519.404297   C794.263489,1521.216064 789.508240,1519.681152 787.137756,1516.110352   C784.815735,1512.612549 785.191589,1507.429932 788.514954,1504.245605   C791.139954,1501.730469 794.174377,1499.601318 797.192993,1497.544556   C836.516113,1470.750488 875.884033,1444.022095 915.208069,1417.229370   C934.454834,1404.115845 953.633972,1390.903198 973.449768,1377.322510  z"/>
<path id="" fill="#1A7195" opacity="0" stroke="none" d=" M1543.310547,453.313538   C1532.224365,458.872589 1521.806396,464.099670 1511.360718,469.270874   C1508.392700,470.740265 1505.485840,472.286957 1501.968628,472.340210   C1497.454468,472.408539 1493.956421,470.843750 1492.618042,466.460907   C1491.373901,462.386688 1492.118408,458.430206 1495.909424,455.786133   C1497.807007,454.462708 1499.958862,453.489075 1502.040771,452.447266   C1563.104736,421.890594 1624.174072,391.344757 1685.243774,360.799622   C1688.507202,359.167328 1691.649048,357.359558 1695.590820,357.701965   C1699.294800,358.023682 1702.018921,359.657928 1703.423828,362.963593   C1704.966187,366.592407 1704.537842,370.068420 1701.628784,373.094818   C1699.235840,375.584442 1696.124756,376.784180 1693.159180,378.269196   C1643.430176,403.168976 1593.699097,428.064178 1543.310547,453.313538  z"/>
<path id="" fill="#1A7195" opacity="0" stroke="none" d=" M1484.220215,187.869751   C1474.444458,186.635422 1465.546509,185.561523 1456.692505,184.202698   C1450.203735,183.206879 1447.657471,180.241013 1447.675171,174.436050   C1447.692993,168.582840 1450.037109,165.976761 1456.099609,165.727875   C1466.468628,165.302170 1476.604004,167.660248 1486.831055,168.797882   C1505.314575,170.853928 1523.722900,173.579315 1542.176025,175.919342   C1548.134521,176.674911 1553.412720,178.230774 1558.775513,181.595703   C1566.296509,186.314835 1575.001709,189.183945 1583.282837,192.647293   C1608.760498,203.302597 1634.280273,213.857483 1659.774292,224.473923   C1661.923828,225.369064 1664.115601,226.248154 1666.093628,227.453430   C1671.074585,230.488632 1672.855347,234.823013 1671.134155,239.133484   C1669.041870,244.373474 1663.797119,246.977386 1658.074829,244.833862   C1648.418823,241.216904 1638.895264,237.230499 1629.404663,233.191330   C1600.320190,220.813217 1571.238770,208.425812 1542.250854,195.824463   C1536.228882,193.206635 1529.839600,193.778900 1523.671265,192.686890   C1510.936890,190.432465 1497.981567,189.427155 1484.220215,187.869751  z"/>
<path id="" fill="#1A7195" opacity="0" stroke="none" d=" M1841.951660,928.784241   C1842.938110,933.824707 1841.032471,937.341309 1839.093384,940.864319   C1820.021362,975.515747 1800.962158,1010.174133 1781.891479,1044.826172   C1769.711914,1066.957031 1757.521240,1089.081909 1745.330688,1111.206787   C1743.564941,1114.411255 1742.006714,1117.762451 1739.939697,1120.761230   C1736.570801,1125.649048 1732.332642,1126.834961 1727.979370,1124.567749   C1722.727295,1121.832397 1721.040405,1116.919189 1723.470337,1111.090698   C1724.235718,1109.254761 1725.249023,1107.516846 1726.214722,1105.770264   C1753.401245,1056.604248 1780.601562,1007.445923 1807.785522,958.278503   C1813.252441,948.390686 1818.500610,938.378174 1824.146118,928.594177   C1829.171143,919.885742 1834.804932,919.815002 1841.951660,928.784241  z"/>
<path id="" fill="#1A7195" opacity="0" stroke="none" d=" M1901.768799,578.627075   C1902.231934,598.829529 1903.751831,618.019897 1905.639771,637.186646   C1906.368896,644.590210 1903.568481,649.250488 1897.916138,650.177002   C1891.152954,651.285522 1886.720459,647.581055 1886.220703,640.075562   C1885.293823,626.156006 1884.509033,612.226868 1883.698364,598.299744   C1882.984497,586.035461 1882.642334,573.737549 1881.480469,561.516785   C1880.953247,555.970703 1879.290527,550.411865 1877.374390,545.138123   C1865.108154,511.377106 1852.623047,477.695648 1840.222290,443.983459   C1837.169922,435.685242 1838.283325,430.832825 1843.691284,428.584290   C1850.281494,425.844147 1855.194580,428.606018 1858.495117,437.506042   C1864.506836,453.717194 1870.181030,470.053253 1876.154419,486.278961   C1883.391846,505.938751 1890.685547,525.579529 1898.187012,545.139526   C1900.545532,551.289246 1899.724854,557.618103 1900.163696,563.859863   C1900.490356,568.508484 1900.654053,573.139038 1901.768799,578.627075  z"/>
<path id="" fill="#1A7195" opacity="0" stroke="none" d=" M371.337128,937.356384   C391.050354,922.551392 410.181366,908.162964 429.303467,893.762573   C431.142670,892.377502 432.658630,890.588318 435.151611,890.149780   C439.747772,889.341431 443.911346,889.681274 446.408936,894.249512   C448.734985,898.503906 448.486511,902.657043 444.710480,906.007507   C441.485718,908.868835 438.071686,911.529724 434.628662,914.130066   C408.361420,933.968262 382.109894,953.828003 355.746002,973.537231   C350.041718,977.801697 345.606659,982.775879 342.209473,989.133118   C331.864594,1008.491699 321.101410,1027.627563 310.415039,1046.802368   C305.541443,1055.547119 300.758423,1057.723389 294.814392,1054.228394   C289.409363,1051.050293 288.805969,1045.849121 293.381195,1037.605225   C305.485291,1015.795654 317.817657,994.112366 329.851196,972.264221   C332.015045,968.335449 334.808685,965.242493 338.263977,962.596130   C349.084595,954.309082 359.921783,946.043579 371.337128,937.356384  z"/>
<path id="" fill="#1A7194" opacity="0" stroke="none" d=" M1566.221558,971.363770   C1567.933716,955.618347 1578.874268,945.451843 1586.155029,933.482361   C1596.350342,916.721313 1607.382324,900.442078 1618.647339,884.370972   C1623.788330,877.036743 1626.543335,869.265686 1627.833496,860.592957   C1631.837891,833.674377 1636.027832,806.783203 1640.203491,779.890381   C1640.609497,777.275391 1641.272705,774.677917 1642.065552,772.150391   C1643.493042,767.599426 1647.096313,766.157593 1651.426025,766.397339   C1656.065430,766.654297 1659.280029,769.954346 1659.816162,774.710205   C1660.538574,781.117615 1658.478394,787.260132 1657.606567,793.473999   C1653.872070,820.091553 1649.654297,846.641907 1645.528687,873.203613   C1644.657227,878.814331 1642.426392,883.725830 1639.132812,888.596802   C1621.990723,913.947937 1605.188477,939.532959 1588.591797,965.245605   C1584.638428,971.370667 1580.130615,975.328613 1571.939941,975.249268   C1568.321045,976.278748 1566.954834,974.526611 1566.221558,971.363770  z"/>
<path id="" fill="#1A7195" opacity="0" stroke="none" d=" M362.621460,1427.295410   C371.298706,1441.698486 385.051270,1449.888062 396.541595,1460.372437   C409.063416,1471.797607 422.040955,1482.723511 434.823486,1493.862915   C437.950043,1496.587769 440.706207,1499.603638 439.325043,1504.144531   C437.094116,1511.479248 429.066132,1513.889771 424.342438,1509.718994   C417.859863,1503.994995 410.950592,1498.755859 404.439636,1493.062500   C389.167694,1479.708374 374.224487,1465.970581 358.074799,1453.653687   C356.452271,1452.416138 355.163849,1451.005249 354.028625,1449.324097   C334.280121,1420.079102 314.467316,1390.877441 294.733765,1361.622314   C289.001099,1353.123657 289.330719,1347.388184 295.467285,1343.610474   C300.582428,1340.461426 305.279480,1342.510864 310.748810,1350.573608   C327.944183,1375.922363 345.077271,1401.313232 362.621460,1427.295410  z"/>
<path id="" fill="#1A7194" opacity="0" stroke="none" d=" M279.325073,1086.002197   C283.959534,1092.637085 284.153168,1099.020020 282.890350,1106.350586   C277.082550,1140.064209 271.891998,1173.884277 266.485901,1207.667114   C265.505798,1213.791504 267.754425,1219.533813 268.862274,1225.358276   C273.270447,1248.533691 278.128845,1271.623535 282.537598,1294.798828   C284.128632,1303.162354 279.293121,1307.674561 271.232056,1306.167236   C266.538025,1305.289429 264.864288,1302.085938 264.024475,1297.790161   C259.433716,1274.308472 255.484863,1250.662231 249.766541,1227.454346   C246.283173,1213.317017 248.250839,1199.941040 250.421463,1186.248169   C254.997757,1157.380127 259.718628,1128.533813 264.058990,1099.630371   C265.130005,1092.498413 267.731781,1087.666870 276.034119,1086.526001   C277.293091,1085.449951 278.088440,1085.250244 279.325073,1086.002197  z"/>
<path id="" fill="#1A7195" opacity="0" stroke="none" d=" M1540.291260,1011.318848   C1533.866211,1014.063904 1528.618042,1017.323303 1524.360840,1023.018188   C1514.938599,1027.172485 1507.917847,1033.971069 1500.093140,1039.475220   C1461.229248,1066.813965 1422.513672,1094.365356 1383.914673,1122.076782   C1378.884644,1125.687988 1373.928101,1126.948486 1367.265747,1125.736084   C1364.963013,1125.130859 1364.331421,1123.941895 1364.080811,1121.812500   C1363.431519,1114.335815 1366.848145,1110.016968 1372.155884,1106.272583   C1421.802856,1071.248779 1471.360474,1036.098267 1520.944702,1000.985535   C1522.569824,999.834656 1524.412109,998.904114 1525.796265,997.515137   C1530.868164,992.425781 1536.579224,991.438721 1544.692139,994.871826   C1544.682495,1000.587769 1546.880127,1007.192688 1540.291260,1011.318848  z"/>
<path id="" fill="#1A7194" opacity="0" stroke="none" d=" M657.433167,778.674072   C658.770691,789.206543 652.452271,794.551453 643.474854,799.343750   C601.472290,821.765320 559.794800,844.795532 517.978271,867.566284   C511.837860,870.910034 505.489716,873.877014 499.395660,877.299561   C494.720428,879.925293 490.115723,880.799927 484.420044,878.145264   C482.028595,878.373047 481.045197,877.522217 480.374695,875.472046   C481.769867,865.640625 488.083618,861.353943 495.698120,857.256897   C543.869568,831.338440 591.888672,805.133789 639.769592,778.682312   C646.008667,775.235535 651.094666,776.581116 657.433167,778.674072  z"/>
<path id="" fill="#1A7195" opacity="0" stroke="none" d=" M1905.788818,747.594482   C1904.618286,764.400696 1903.438110,780.260071 1902.296387,796.122314   C1902.153320,798.112183 1902.307983,800.175659 1901.081055,801.881836   C1890.825195,816.143066 1886.911499,833.265320 1879.861816,848.970337   C1875.644287,858.365784 1871.980347,868.009094 1868.024170,877.522949   C1867.260010,879.360596 1866.486938,881.243774 1865.385498,882.882385   C1862.331909,887.424622 1857.721802,888.916687 1853.296265,887.015869   C1848.783447,885.077515 1846.561768,880.900085 1848.142090,875.428345   C1849.702271,870.025940 1852.045654,864.838135 1854.205933,859.622681   C1862.471802,839.667969 1870.506470,819.609619 1879.223389,799.852905   C1884.192383,788.590576 1885.035034,776.813721 1885.639160,764.922668   C1886.666016,744.709106 1887.669922,724.498413 1889.569092,704.342224   C1889.823242,701.644226 1890.021118,698.944641 1892.398926,697.183655   C1895.434937,694.935303 1898.583618,693.447937 1902.538086,695.284058   C1906.324341,697.042175 1908.159302,699.967041 1908.163208,703.915710   C1908.168823,709.563843 1908.477295,715.326721 1907.497314,720.834290   C1905.968750,729.424194 1906.486450,738.058167 1905.788818,747.594482  z"/>
<path id="" fill="#1B7194" opacity="0" stroke="none" d=" M110.001587,1059.689453   C157.264023,1059.689453 203.526764,1059.688721 249.789505,1059.692017   C252.451920,1059.692261 255.139572,1059.497192 257.771423,1059.789673   C262.909180,1060.360352 265.551117,1063.312866 265.744171,1068.252686   C265.937897,1073.209961 263.453308,1076.671265 258.632812,1077.581909   C256.374634,1078.008545 253.991989,1077.834473 251.665756,1077.834717   C195.751083,1077.840576 139.836395,1077.833374 83.921722,1077.826782   C82.257660,1077.826660 80.583908,1077.919800 78.931236,1077.777344   C72.398636,1077.213745 69.811478,1074.549561 69.743042,1068.446533   C69.672592,1062.165283 71.857063,1059.893921 79.048813,1059.745728   C89.029305,1059.539673 99.017181,1059.691040 110.001587,1059.689453  z"/>
<path id="" fill="#1A7195" opacity="0" stroke="none" d=" M962.126343,128.045395   C966.056030,113.454163 969.831726,99.669136 973.642822,85.893883   C974.170288,83.987389 974.594482,81.971634 975.551819,80.281281   C977.631470,76.609123 981.201660,75.834038 985.056396,76.387115   C989.139709,76.972977 991.694763,79.384789 992.134094,83.573631   C992.517883,87.232208 992.272034,90.898277 991.310303,94.468445   C978.171936,143.241501 965.023743,192.011902 951.855896,240.777023   C951.337708,242.696182 950.799683,244.654648 949.925171,246.423904   C947.926819,250.466827 944.425354,252.131744 940.055603,251.618958   C935.767883,251.115814 932.649170,247.300919 932.242432,242.566895   C932.008362,239.841568 932.871094,237.326355 933.563843,234.751312   C943.058533,199.458237 952.516541,164.155243 962.126343,128.045395  z"/>
<path id="" fill="#1A7195" opacity="0" stroke="none" d=" M787.880005,942.901489   C786.796204,951.198120 781.985718,955.435364 775.754456,959.305603   C749.014526,975.913818 722.577148,993.008179 695.911987,1009.738098   C690.101196,1013.383850 685.702393,1017.575745 683.514709,1024.410278   C680.693420,1033.224243 676.862549,1041.711914 673.577637,1050.382202   C671.599121,1055.604126 668.861145,1059.898804 662.263550,1061.253052   C660.621155,1063.091675 659.200073,1063.256470 657.108765,1062.126221   C657.311035,1059.854736 656.995544,1058.492920 655.767151,1057.038452   C652.849182,1053.583374 653.130310,1049.521729 654.626099,1045.692749   C660.075745,1031.743652 665.748352,1017.881897 671.279663,1003.964417   C672.175903,1001.709229 673.417664,999.944031 675.606323,998.733826   C703.580566,983.265808 729.912903,965.148743 756.987854,948.228882   C760.939331,945.759460 764.895203,943.296631 768.826111,940.794800   C772.601440,938.392090 776.590820,937.002014 781.993408,938.051025   C785.815063,937.923706 787.314453,939.591675 787.880005,942.901489  z"/>
<path id="" fill="#1A7195" opacity="0" stroke="none" d=" M764.950989,1162.754395   C764.304138,1164.574585 764.388672,1166.280151 764.165955,1167.917725   C763.418518,1173.412964 760.045898,1176.239624 754.681152,1176.231201   C744.359497,1176.215088 733.333618,1178.141724 723.876587,1175.182373   C708.403076,1170.340210 693.400574,1161.872559 682.648926,1149.977783   C672.121216,1138.330688 665.425964,1123.171997 657.354431,1109.375610   C654.116272,1103.840698 655.453857,1097.928223 659.716919,1095.058105   C664.381104,1091.917969 670.211487,1093.439575 674.106628,1099.531250   C680.743958,1109.911499 687.143860,1120.452881 693.328064,1131.109497   C696.275513,1136.188599 699.936707,1140.174561 705.214417,1142.797852   C707.885193,1144.125366 710.495361,1145.712646 712.821350,1147.572266   C722.962646,1155.680298 734.718018,1158.094360 747.319580,1157.740479   C753.346497,1157.571045 759.340454,1157.530151 764.950989,1162.754395  z"/>
<path id="" fill="#1A7094" opacity="0" stroke="none" d=" M1365.751221,1643.625488   C1354.637085,1645.557373 1349.417480,1639.596924 1345.691406,1629.161011   C1335.462646,1600.513916 1324.236572,1572.219971 1313.185669,1543.871826   C1310.900757,1538.010498 1312.109253,1532.927979 1315.227783,1526.707764   C1316.413696,1526.297729 1317.138428,1527.536011 1317.796753,1527.501709   C1326.435303,1527.050293 1329.762329,1532.509644 1332.433472,1539.561646   C1343.338135,1568.351562 1354.461914,1597.058838 1365.641235,1625.743530   C1367.927490,1631.609863 1368.700562,1637.219849 1365.751221,1643.625488  z"/>
<path id="" fill="#1A7195" opacity="0" stroke="none" d=" M165.793762,2030.264771   C139.076736,2026.064209 113.241646,2021.965210 87.412766,2017.827271   C84.478317,2017.357178 81.518791,2016.872803 78.676407,2016.036377   C73.598717,2014.542358 71.101349,2010.541748 71.745728,2005.459839   C72.314606,2000.973267 75.457787,1998.179565 80.655838,1997.777222   C87.702965,1997.231689 94.504311,1999.281128 101.340492,2000.331177   C128.505096,2004.503784 155.573257,2009.302612 182.688675,2013.800049   C185.717636,2014.302368 188.595413,2014.903076 190.559906,2017.485718   C193.031113,2020.734619 192.742310,2024.403687 191.574432,2027.932739   C190.495102,2031.194336 187.643478,2032.152100 184.429718,2032.260742   C178.419693,2032.463989 172.509872,2031.781982 165.793762,2030.264771  z"/>
<path id="" fill="#1A7094" opacity="0" stroke="none" d=" M1705.635986,235.420334   C1706.116455,229.158142 1707.982422,224.521362 1711.310913,220.009323   C1719.402344,209.040405 1727.182617,197.813660 1734.511719,186.322983   C1738.023804,180.816849 1742.477173,177.760452 1748.639771,176.338974   C1759.327759,173.873688 1769.899658,170.887711 1780.619507,168.582458   C1788.415161,166.906021 1792.886719,169.350357 1794.120605,174.991440   C1795.366821,180.687805 1793.309937,184.720932 1787.506592,186.396393   C1778.252075,189.068192 1768.945923,191.683258 1759.509277,193.554596   C1754.070068,194.633270 1750.619141,197.407120 1747.709229,201.756653   C1741.236694,211.430954 1734.181763,220.738617 1728.127930,230.661606   C1724.307861,236.923340 1719.641968,240.534592 1711.758301,241.110321   C1708.873779,242.329361 1707.499146,240.897659 1705.892700,238.877869   C1705.407715,237.681259 1705.348511,236.971054 1705.635986,235.420334  z"/>
<path id="" fill="#1B7194" opacity="0" stroke="none" d=" M1460.561279,471.137939   C1455.149658,474.920349 1450.296143,475.810303 1444.161865,474.327545   C1416.699341,467.689117 1389.083496,461.684875 1361.526855,455.434723   C1359.582153,454.993652 1357.584106,454.618744 1355.757690,453.859741   C1351.470825,452.078186 1349.328979,447.906677 1350.101074,443.322754   C1350.863525,438.795593 1354.205811,435.891754 1359.274292,435.885132   C1361.901123,435.881683 1364.567017,436.427979 1367.150146,437.013763   C1394.709229,443.263702 1422.210815,449.780121 1449.839844,455.701538   C1455.967773,457.014862 1459.327637,459.852905 1461.168213,466.189941   C1462.266724,468.171021 1461.889893,469.462799 1460.561279,471.137939  z"/>
<path id="" fill="#1A7194" opacity="0" stroke="none" d=" M1032.278564,238.192535   C1035.719971,237.525711 1038.296265,236.854736 1040.907104,236.371033   C1049.206787,234.833435 1054.247070,237.010391 1055.603638,242.631729   C1057.140869,249.000702 1053.368408,253.692108 1045.135010,255.544418   C1041.572266,256.345947 1037.979248,257.013702 1034.401123,257.747101   C1012.946533,262.144409 991.494507,266.553802 970.035217,270.927643   C967.438354,271.456940 964.813538,272.065765 962.183167,272.169464   C956.458984,272.395233 952.842468,269.688690 951.927002,264.888123   C950.904541,259.526520 953.510559,255.337280 959.426453,253.919968   C968.459473,251.755875 977.594177,250.018860 986.674561,248.049316   C1001.597534,244.812500 1016.511536,241.534622 1032.278564,238.192535  z"/>
<path id="" fill="#1A7194" opacity="0" stroke="none" d=" M1728.428223,365.232971   C1737.322266,362.822479 1745.343140,364.861633 1753.479126,368.685242   C1769.430420,376.181885 1785.796509,382.795166 1801.986450,389.784882   C1804.429810,390.839783 1806.945435,391.779083 1809.258911,393.073242   C1815.389648,396.502533 1817.266357,401.210419 1814.659668,406.096405   C1811.910767,411.248901 1807.137695,412.926392 1801.105225,410.392944   C1787.914429,404.853210 1774.795532,399.141327 1761.669678,393.448242   C1753.732422,390.005524 1745.842163,386.454651 1737.921509,382.973572   C1727.920410,378.578125 1727.503662,377.864868 1728.428223,365.232971  z"/>
<path id="" fill="#1A7195" opacity="0" stroke="none" d=" M1921.009521,335.904297   C1920.825684,338.178070 1921.140869,339.554047 1922.331299,341.020081   C1925.505127,344.928864 1924.882446,349.151520 1922.482300,353.085999   C1915.372681,364.740051 1908.100830,376.295105 1900.904297,387.896240   C1899.231445,390.593170 1896.392578,391.797394 1893.862305,393.336823   C1887.035278,397.490295 1880.139526,401.532227 1873.225098,405.539154   C1871.515625,406.529755 1869.705933,407.516815 1867.813477,407.989746   C1862.519531,409.312836 1858.246216,407.741089 1856.514526,404.143463   C1854.366089,399.679565 1855.754028,393.971924 1860.268433,391.012329   C1866.112671,387.180878 1872.057129,383.422394 1878.285767,380.281677   C1883.927002,377.437256 1887.713501,373.224182 1890.823975,367.914124   C1895.535156,359.871460 1900.714478,352.103821 1905.468140,344.084900   C1907.843384,340.078186 1910.920288,337.504913 1916.122803,336.534546   C1917.791748,334.875946 1919.127930,334.742462 1921.009521,335.904297  z"/>
<path id="" fill="#1A7195" opacity="0" stroke="none" d=" M875.574585,1110.029541   C878.073547,1119.981445 872.805176,1125.538452 864.478638,1130.286377   C848.874573,1139.183594 833.766113,1148.949829 818.444031,1158.342407   C817.027954,1159.210449 815.614929,1160.118408 814.103821,1160.790527   C808.404114,1163.325439 803.459045,1162.217163 800.878906,1157.927979   C798.182190,1153.444824 799.666016,1147.244507 804.467834,1144.002319   C808.049316,1141.584229 811.855713,1139.500610 815.549011,1137.246826   C830.030701,1128.409180 844.571655,1119.666138 858.952087,1110.666626   C864.316895,1107.309082 869.412781,1106.735352 875.574585,1110.029541  z"/>
<path id="" fill="#1B7194" opacity="0" stroke="none" d=" M1445.041260,133.012726   C1443.188232,138.492249 1441.961670,143.374252 1439.993286,147.936249   C1437.647095,153.374023 1433.593994,155.289886 1428.888550,153.999695   C1423.851318,152.618500 1421.015259,148.089737 1422.576294,142.175522   C1425.206787,132.208801 1428.498779,122.417610 1431.462402,112.537552   C1434.999634,100.745972 1438.354980,88.898003 1442.041992,77.153831   C1444.141235,70.467049 1446.656372,69.092583 1453.007812,69.716125   C1457.854492,70.191933 1460.109009,72.794693 1460.244629,77.534149   C1460.360352,81.582947 1459.523926,85.427422 1458.330078,89.290192   C1453.910400,103.590401 1449.655762,117.941551 1445.041260,133.012726  z"/>
<path id="" fill="#1A7397" opacity="0" stroke="none" d=" M1807.681885,108.002769   C1807.850220,97.049484 1807.827026,87.087067 1808.252441,77.143837   C1808.551270,70.160744 1811.745483,67.537392 1818.299927,67.728012   C1823.025513,67.865463 1825.820190,69.987534 1826.179810,74.806580   C1826.352417,77.119263 1826.321777,79.451012 1826.303223,81.773483   C1826.136719,102.680809 1825.954590,123.587997 1825.769653,144.495178   C1825.755005,146.154327 1825.867188,147.842239 1825.606934,149.466583   C1824.697998,155.140900 1821.454834,157.967041 1816.300049,157.768768   C1811.067871,157.567505 1808.147705,154.703705 1807.767822,148.833755   C1807.489502,144.535706 1807.687866,140.206406 1807.685303,135.891022   C1807.680176,126.927956 1807.682617,117.964897 1807.681885,108.002769  z"/>
<path id="" fill="#1A7094" opacity="0" stroke="none" d=" M1915.766602,201.051086   C1914.803101,195.285034 1916.704834,191.381042 1920.503906,188.006256   C1935.676270,174.528809 1950.769653,160.962494 1965.923218,147.463852   C1966.902588,146.591446 1968.099609,145.929520 1969.270386,145.311874   C1974.220947,142.700500 1978.951050,143.402939 1981.833740,147.116104   C1984.723389,150.838196 1984.566162,155.837570 1980.880615,159.750198   C1977.007324,163.862411 1972.856079,167.738235 1968.603271,171.462585   C1957.354126,181.314209 1945.811523,190.838211 1934.753052,200.896561   C1930.723389,204.561752 1926.670654,206.537415 1920.507080,205.826309   C1916.420654,206.356064 1916.143799,203.893372 1915.766602,201.051086  z"/>
<path id="" fill="#1B7194" opacity="0" stroke="none" d=" M1913.046875,223.988678   C1920.699707,226.403275 1923.229614,231.274063 1923.932129,238.332367   C1925.374146,252.821152 1927.623169,267.228241 1929.414795,281.684479   C1929.903076,285.623932 1930.318604,289.639252 1930.100708,293.582916   C1929.810181,298.837402 1926.765015,301.779755 1922.148682,302.192352   C1917.142212,302.639832 1912.926758,299.949707 1911.906616,294.851349   C1910.415527,287.399902 1909.079834,279.877716 1908.361450,272.320709   C1907.326904,261.437592 1905.956299,250.616486 1904.208374,239.831924   C1903.558472,235.822342 1904.059814,231.901794 1905.851562,227.392197   C1907.264526,223.739212 1909.777588,223.593414 1913.046875,223.988678  z"/>
<path id="" fill="#1A7094" opacity="0" stroke="none" d=" M1709.808105,290.449188   C1711.006104,298.502716 1712.117188,305.687866 1713.196777,312.877777   C1713.589600,315.494049 1714.109741,318.113129 1714.220581,320.745697   C1714.520874,327.866760 1711.782837,331.525146 1706.011108,332.064758   C1700.657471,332.565338 1697.153442,329.859497 1695.742432,323.595459   C1694.580933,318.439178 1693.842896,313.186768 1692.940796,307.972870   C1691.419434,299.180023 1689.780762,290.404480 1688.449341,281.582733   C1687.388672,274.555878 1690.487793,269.376709 1695.902954,268.396606   C1701.731689,267.341736 1706.544434,271.551636 1707.828491,278.834839   C1708.459961,282.416626 1709.082153,286.000061 1709.808105,290.449188  z"/>
<path id="" fill="#1A7094" opacity="0" stroke="none" d=" M1831.379028,180.439270   C1838.090088,173.034348 1841.709351,171.855927 1849.954468,175.148224   C1860.426636,179.329758 1870.827515,183.701538 1881.155762,188.226974   C1886.901855,190.744675 1889.120972,195.295578 1887.531128,200.086014   C1886.124756,204.323837 1881.294800,207.884949 1876.377930,206.050323   C1860.727783,200.210770 1843.756836,196.896057 1830.454346,184.261810   C1829.262817,182.651230 1829.795166,181.583344 1831.379028,180.439270  z"/>
<path id="" fill="#1A7094" opacity="0" stroke="none" d=" M1980.569336,364.214233   C1975.872192,366.635315 1972.200562,365.446259 1968.706055,363.161407   C1958.989136,356.808197 1949.264526,350.465454 1939.622437,343.999908   C1936.495605,341.903229 1934.230103,339.065582 1934.085693,334.264618   C1933.085571,330.169952 1934.523560,327.855865 1937.957031,325.995941   C1944.919678,324.822174 1950.161011,326.873657 1955.207275,330.496582   C1962.139648,335.473358 1969.377808,340.024902 1976.494263,344.744629   C1980.406860,347.339508 1983.880737,350.267822 1985.207764,355.773621   C1986.936279,360.460541 1983.764404,362.065704 1980.569336,364.214233  z"/>
<path id="" fill="#DBDBDB" opacity="0" stroke="none" d=" M865.250244,1708.113037   C864.648926,1705.453735 864.282227,1703.474121 864.308167,1701.499634   C864.398621,1694.621826 869.219421,1687.976929 875.050720,1686.484497   C882.092712,1684.682129 890.869690,1688.572998 893.679565,1694.742798   C896.386963,1700.687500 894.220520,1709.267334 888.897827,1713.679443   C884.388733,1717.417236 875.061218,1717.626953 870.419067,1713.882446   C868.630188,1712.439819 867.237915,1710.505493 865.250244,1708.113037  z"/>
<path id="" fill="#DBDBDB" opacity="0" stroke="none" d=" M226.099945,2021.090088   C226.169785,2027.102905 227.337158,2032.213501 222.945389,2036.875000   C218.098373,2042.019531 212.346161,2042.980957 206.598770,2041.195679   C201.200546,2039.518677 197.136658,2035.393677 196.218781,2028.992432   C195.185013,2021.782837 198.203873,2016.609619 203.910583,2012.943237   C210.363297,2008.797729 219.166122,2011.904663 226.099945,2021.090088  z"/>
<path id="" fill="#DBDBDB" opacity="0" stroke="none" d=" M1699.165527,1129.293945   C1708.295898,1121.211060 1717.483276,1121.441528 1723.871338,1129.321411   C1726.849609,1132.995483 1727.468750,1142.212036 1725.009766,1146.267456   C1721.484253,1152.081299 1714.723633,1154.987915 1707.813232,1153.660522   C1702.953979,1152.727295 1696.913208,1147.140747 1696.442261,1142.262085   C1696.037354,1138.066650 1695.290283,1133.534790 1699.165527,1129.293945  z"/>
<path id="" fill="#DBDBDB" opacity="0" stroke="none" d=" M766.095154,1164.103516   C765.770508,1163.395386 766.022095,1162.880005 765.829956,1162.673828   C765.842468,1158.533081 764.793091,1154.442749 766.398376,1150.690796   C769.043518,1144.508301 777.830627,1140.714478 784.850647,1142.438965   C791.845215,1144.157227 796.687378,1152.089233 795.696838,1160.205933   C794.863770,1167.031494 788.713684,1171.757690 781.367371,1172.532715   C774.350464,1173.272949 770.282349,1169.535889 766.095154,1164.103516  z"/>
<path id="" fill="#DBDBDB" opacity="0" stroke="none" d=" M1641.752686,2016.371338   C1633.486450,2017.333862 1628.725342,2013.369507 1626.080566,2007.187866   C1623.446167,2001.031006 1626.007812,1993.593506 1631.177368,1989.281250   C1637.170532,1984.281982 1645.983032,1985.055420 1651.718750,1991.083984   C1657.045288,1996.682617 1657.505859,2005.287231 1652.622559,2010.895386   C1649.993042,2013.915527 1647.224976,2016.922119 1641.752686,2016.371338  z"/>
<path id="" fill="#DBDBDB" opacity="0" stroke="none" d=" M1538.096680,1413.864990   C1535.358398,1409.238770 1530.771606,1405.884644 1531.425293,1399.178833   C1532.309692,1390.106323 1537.326416,1384.337524 1546.322388,1384.271729   C1555.671143,1384.203369 1561.792358,1390.352173 1561.722656,1399.741333   C1561.656128,1408.694824 1556.018555,1414.256348 1546.751465,1414.370850   C1544.446045,1414.399414 1542.135986,1414.068604 1538.949951,1413.813232   C1538.071899,1413.723511 1538.010498,1413.900635 1538.096680,1413.864990  z"/>
<path id="" fill="#DBDBDB" opacity="0" stroke="none" d=" M1365.985107,1644.322266   C1372.416992,1644.734619 1379.137329,1642.555420 1384.438232,1648.713257   C1389.458862,1654.545898 1390.224121,1663.749268 1385.298950,1669.297363   C1379.832520,1675.455566 1369.940063,1676.539551 1364.042969,1671.626953   C1357.287354,1665.999023 1355.895264,1657.126709 1360.912842,1650.511230   C1362.288696,1648.697144 1364.205566,1647.293579 1366.001709,1645.033203   C1366.129028,1644.364990 1365.930786,1644.205933 1365.985107,1644.322266  z"/>
<path id="" fill="#DBDBDB" opacity="0" stroke="none" d=" M446.299164,1511.676025   C449.100708,1509.902344 451.487610,1510.256958 453.790527,1510.298828   C460.831207,1510.426636 467.283325,1515.397949 468.334412,1521.409668   C469.705780,1529.253418 465.941803,1537.472412 459.888336,1539.852417   C453.471161,1542.375488 444.522217,1539.602783 440.375580,1533.807007   C436.759033,1528.752075 437.405396,1520.804565 441.965240,1515.461426   C443.037354,1514.205200 444.384918,1513.184204 446.299164,1511.676025  z"/>
<path id="" fill="#DBDBDB" opacity="0" stroke="none" d=" M282.743286,1310.291382   C296.080811,1310.753052 301.382202,1316.379639 300.367615,1328.142212   C299.748138,1335.323364 294.094269,1340.206177 286.196533,1340.380737   C277.875977,1340.564575 271.306641,1335.685547 270.318115,1328.587891   C269.064178,1319.583984 271.772522,1315.327271 282.743286,1310.291382  z"/>
<path id="" fill="#DBDBDB" opacity="0" stroke="none" d=" M755.372192,1514.126465   C764.599182,1505.242676 774.113220,1505.128418 780.779053,1513.219971   C784.570923,1517.822876 784.961060,1526.042847 781.616943,1530.870117   C777.580566,1536.697021 770.953674,1539.236206 764.126038,1537.572144   C758.644287,1536.236084 753.722412,1529.738647 753.628357,1523.519043   C753.583496,1520.552124 753.217712,1517.502319 755.372192,1514.126465  z"/>
<path id="" fill="#DBDBDB" opacity="0" stroke="none" d=" M1316.322876,1525.103638   C1315.719971,1525.651001 1315.227417,1525.457520 1315.227417,1525.457520   C1315.227417,1525.457520 1314.732788,1525.645020 1314.616455,1525.880127   C1310.205200,1526.422729 1305.783447,1527.220093 1301.694458,1525.574341   C1295.363159,1523.025879 1291.678589,1513.307373 1293.914307,1506.011475   C1295.782104,1499.915771 1303.148926,1495.610596 1310.574219,1496.275024   C1317.630127,1496.906616 1323.021118,1502.874878 1323.782837,1510.051270   C1324.464600,1516.474854 1321.584473,1520.845947 1316.322876,1525.103638  z"/>
<path id="" fill="#DBDBDB" opacity="0" stroke="none" d=" M1020.257385,1356.956177   C1020.075378,1361.690430 1021.326416,1365.784302 1019.017517,1369.466064   C1015.322388,1375.358154 1004.946411,1378.525757 998.728333,1375.658813   C992.317688,1372.702881 988.318115,1362.914795 990.732361,1356.090210   C993.237305,1349.009277 1003.019348,1344.129883 1010.436523,1346.693726   C1014.966614,1348.259521 1018.171753,1351.685547 1020.257385,1356.956177  z"/>
<path id="" fill="#DCDBDC" opacity="0" stroke="none" d=" M1460.106567,472.400452   C1460.578369,470.303162 1461.141357,469.029144 1461.678101,467.248901   C1465.440308,463.114014 1468.579956,459.058929 1475.031616,459.448273   C1484.187622,460.000854 1489.932129,464.346527 1490.388672,472.650848   C1490.880249,481.592682 1486.133545,488.520905 1478.732666,489.663605   C1469.553223,491.080963 1462.056885,486.047150 1460.317993,477.211395   C1460.064697,475.924133 1460.227417,474.554962 1460.106567,472.400452  z"/>
<path id="" fill="#DBDBDB" opacity="0" stroke="none" d=" M1429.102539,156.264099   C1436.209351,159.420258 1440.827759,163.439926 1440.481689,171.483078   C1440.092773,180.522964 1435.420288,186.025406 1426.857300,186.367401   C1417.343872,186.747391 1410.872803,181.617691 1410.269287,173.217453   C1409.621948,164.209991 1414.801880,157.443451 1423.313843,156.307373   C1424.952881,156.088638 1426.641235,156.238235 1429.102539,156.264099  z"/>
<path id="" fill="#DCDBDC" opacity="0" stroke="none" d=" M1831.909058,179.384277   C1831.243652,181.189987 1830.512451,182.164108 1829.738525,183.584488   C1820.812012,192.273956 1812.255859,193.008087 1805.458862,186.110428   C1801.803101,182.400391 1800.181274,173.122009 1802.389771,168.552567   C1805.126953,162.889328 1812.092651,159.435135 1819.100952,160.265686   C1825.062012,160.972137 1830.672241,166.374023 1831.661987,172.584518   C1831.972534,174.534058 1831.796631,176.561111 1831.909058,179.384277  z"/>
<path id="" fill="#DBDBDB" opacity="0" stroke="none" d=" M1087.458740,249.858566   C1080.904419,252.558487 1075.203125,253.004776 1069.973755,248.613541   C1063.220825,242.942825 1061.961914,233.675995 1067.108765,227.372757   C1072.654541,220.581284 1083.002808,219.254822 1089.124634,224.550934   C1095.836792,230.357712 1096.633789,239.686737 1090.962280,246.598206   C1090.122559,247.621628 1089.073853,248.473709 1087.458740,249.858566  z"/>
<path id="" fill="#DBDBDB" opacity="0" stroke="none" d=" M947.894470,262.533386   C951.057129,270.308655 950.712280,276.767181 944.521912,282.131470   C939.869751,286.162781 931.870972,287.152893 926.949646,284.128296   C920.688599,280.280365 917.756287,272.298523 919.923279,265.002502   C921.427917,259.936676 927.586853,256.107666 933.686157,255.528336   C939.717224,254.955490 943.912781,257.460754 947.894470,262.533386  z"/>
<path id="" fill="#DBDBDB" opacity="0" stroke="none" d=" M1729.073975,363.597595   C1728.464478,364.187836 1728.057617,364.212036 1728.129150,364.320709   C1722.207397,367.317749 1716.116699,368.047852 1710.481079,363.944397   C1703.512817,358.870667 1701.928345,349.261353 1706.612427,342.864166   C1711.600464,336.051941 1721.309692,333.988464 1727.655273,338.253571   C1735.660889,343.634583 1736.148315,352.748138 1732.366943,360.089600   C1731.783569,361.222382 1730.593140,362.042603 1729.073975,363.597595  z"/>
<path id="" fill="#DBDBDB" opacity="0" stroke="none" d=" M578.393555,377.738464   C575.928406,388.653107 570.299988,392.861206 560.825623,391.708344   C553.206665,390.781281 547.871643,383.818390 548.272522,375.325043   C548.625732,367.841034 554.045288,362.120636 561.264099,361.612183   C570.531311,360.959442 576.650208,364.977997 578.304077,372.916382   C578.570618,374.195770 578.376404,375.571136 578.393555,377.738464  z"/>
<path id="" fill="#DBDBDB" opacity="0" stroke="none" d=" M1831.355713,394.116821   C1836.436646,393.689240 1840.882324,392.683533 1844.914673,394.726013   C1851.843140,398.235504 1854.961792,409.953278 1850.914062,416.415222   C1846.055908,424.171173 1835.186157,426.379608 1828.363770,420.996948   C1820.706543,414.955902 1819.734253,405.487488 1826.126221,398.364685   C1827.448608,396.891083 1829.080078,395.695007 1831.355713,394.116821  z"/>
<path id="" fill="#DBDBDB" opacity="0" stroke="none" d=" M1341.718262,444.500763   C1341.215210,453.433441 1337.081177,460.174713 1331.135132,461.396118   C1324.618164,462.734802 1318.651245,461.669708 1314.203491,455.841156   C1310.048096,450.395905 1310.512817,440.975525 1315.524780,435.853424   C1320.489258,430.779938 1330.246948,429.712158 1335.404053,433.997009   C1338.426636,436.508392 1341.662720,439.136353 1341.718262,444.500763  z"/>
<path id="" fill="#DCDBDC" opacity="0" stroke="none" d=" M1363.480469,1120.619385   C1364.718384,1122.353027 1365.289307,1123.592163 1366.151367,1125.249268   C1366.263306,1129.309448 1366.738159,1133.138184 1365.763550,1136.553223   C1363.939209,1142.946411 1355.108398,1147.076538 1347.760498,1145.642334   C1340.696655,1144.263428 1335.518555,1136.404663 1336.295410,1128.241577   C1336.968506,1121.166626 1342.874512,1115.973877 1350.354370,1115.598999   C1355.210571,1115.355713 1359.665771,1115.840210 1363.480469,1120.619385  z"/>
<path id="" fill="#DBDBDB" opacity="0" stroke="none" d=" M977.682495,597.993469   C977.481262,604.807495 979.270325,611.851501 972.579224,617.146851   C966.788391,621.729736 957.381470,621.834595 951.947815,616.600525   C946.492188,611.345215 945.748474,601.572388 950.381958,596.024231   C955.701904,589.654114 964.491638,587.953064 970.698792,592.355652   C972.815308,593.856873 974.451111,596.036011 976.978943,598.022827   C977.651367,598.140259 977.794861,597.943909 977.682495,597.993469  z"/>
<path id="" fill="#DBDBDB" opacity="0" stroke="none" d=" M1891.694336,687.036499   C1884.664429,683.020813 1881.339966,677.862854 1882.258301,670.251221   C1883.197754,662.463745 1889.471680,657.414673 1898.390015,657.619202   C1906.621704,657.807983 1912.023926,662.985840 1912.383789,671.031189   C1912.937988,683.419495 1907.224731,688.096863 1891.694336,687.036499  z"/>
<path id="" fill="#DBDBDB" opacity="0" stroke="none" d=" M1643.348755,757.891235   C1638.200439,754.015259 1633.821411,750.653198 1634.178345,743.864563   C1634.561035,736.586487 1639.254150,729.658325 1645.643799,728.344971   C1652.921753,726.849060 1661.476074,731.056335 1663.870117,737.309082   C1666.374146,743.849243 1663.526001,752.931580 1657.716064,756.742188   C1653.448364,759.541138 1648.713013,758.191284 1643.348755,757.891235  z"/>
<path id="" fill="#DBDBDB" opacity="0" stroke="none" d=" M876.315186,1110.002441   C876.759399,1103.582642 874.566956,1096.870850 880.724792,1091.556641   C886.889954,1086.236084 896.255249,1085.798340 902.038574,1091.414551   C907.512390,1096.730225 908.255554,1106.430664 903.613342,1111.968750   C897.700684,1119.022461 888.655762,1120.066772 881.780273,1114.385620   C880.267090,1113.135132 879.046143,1111.531128 877.017578,1109.972412   C876.344543,1109.854980 876.203369,1110.051514 876.315186,1110.002441  z"/>
<path id="" fill="#DCDBDC" opacity="0" stroke="none" d=" M655.741333,1061.571289   C657.893677,1061.700073 659.181763,1061.860107 661.115601,1061.877441   C666.041992,1065.326172 670.635925,1068.376709 670.510376,1075.211304   C670.335022,1084.751587 665.608521,1091.142456 657.203491,1091.719116   C648.126282,1092.341919 641.073364,1086.912476 640.292725,1078.701294   C639.345459,1068.737061 644.317200,1062.908081 655.741333,1061.571289  z"/>
<path id="" fill="#DBDBDB" opacity="0" stroke="none" d=" M280.547791,1086.489868   C278.998657,1086.305786 278.322876,1086.061523 277.112305,1085.908691   C272.769409,1082.004761 267.759460,1078.999268 268.150482,1072.139282   C268.532166,1065.443359 271.767609,1059.426147 277.496674,1057.012573   C283.113953,1054.646118 289.963226,1056.552368 294.770386,1061.096313   C300.052582,1066.089233 299.356232,1072.401245 297.550598,1077.799194   C295.932892,1082.635498 291.771637,1086.778564 285.416229,1086.402954   C284.089691,1086.324463 282.753082,1086.416138 280.547791,1086.489868  z"/>
<path id="" fill="#DBDBDB" opacity="0" stroke="none" d=" M1858.832520,914.697266   C1849.639160,922.796997 1840.434570,922.575317 1834.110718,914.692810   C1831.152832,911.005920 1830.534912,901.759827 1832.976807,897.726501   C1836.560791,891.806519 1844.529297,888.642212 1851.165283,890.503967   C1856.164062,891.906372 1861.432251,898.362427 1861.677124,903.726135   C1861.842529,907.347046 1862.272827,911.126892 1858.832520,914.697266  z"/>
<path id="" fill="#DBDBDB" opacity="0" stroke="none" d=" M658.848145,778.738037   C658.186951,778.341614 658.154175,778.496521 658.231628,778.514099   C657.636597,771.709961 655.594604,764.770874 662.089355,759.170044   C667.852295,754.200256 677.186035,753.960876 682.748779,759.161072   C688.899231,764.910645 689.842468,773.557007 684.987732,779.684387   C679.674927,786.389954 670.356201,788.022278 663.812134,783.268127   C662.218140,782.110107 660.935303,780.523804 658.848145,778.738037  z"/>
<path id="" fill="#DBDBDB" opacity="0" stroke="none" d=" M1153.137451,695.270874   C1153.797974,695.668884 1153.828979,695.515930 1153.752686,695.498474   C1154.297974,702.289490 1156.459595,709.243958 1149.920410,714.846191   C1144.137451,719.800354 1134.825928,720.034180 1129.250610,714.831787   C1123.094360,709.087280 1122.161743,700.445312 1127.038086,694.328918   C1132.418213,687.580505 1141.652100,685.952454 1148.184448,690.726379   C1149.775635,691.889221 1151.054565,693.479248 1153.137451,695.270874  z"/>
<path id="" fill="#DCDBDC" opacity="0" stroke="none" d=" M1938.562866,325.067627   C1937.248413,328.029877 1935.814453,330.153870 1934.214844,332.895538   C1930.798340,335.870911 1927.165894,336.801910 1922.308716,336.452759   C1920.236694,336.260132 1919.038330,336.034393 1917.229736,335.898315   C1913.606812,333.011047 1909.495728,330.669067 1908.620972,326.256195   C1907.354736,319.868561 1908.216309,313.975952 1913.883545,309.374329   C1918.880859,305.316956 1924.546631,305.025818 1929.621704,307.276855   C1935.081055,309.698486 1939.319946,314.186005 1938.408691,321.268250   C1938.283936,322.237762 1938.425293,323.241547 1938.562866,325.067627  z"/>
<path id="" fill="#DCDBDC" opacity="0" stroke="none" d=" M556.435303,1863.254883   C555.258545,1861.561768 554.730835,1860.410278 553.919800,1858.881592   C553.760559,1854.888062 553.174744,1851.066895 554.147339,1847.695312   C556.647644,1839.027954 569.827393,1835.110962 577.134460,1840.651245   C579.463684,1842.417358 581.666992,1844.497925 583.474731,1847.734375   C584.004700,1848.185059 584.016235,1848.042725 583.945007,1848.048096   C583.128601,1852.534180 584.859985,1857.281128 581.853760,1861.552368   C575.898743,1870.013428 565.941650,1871.012085 556.435303,1863.254883  z"/>
<path id="" fill="#DCDBDC" opacity="0" stroke="none" d=" M788.388062,944.083252   C786.388062,941.942932 785.099609,940.281616 783.333435,938.376709   C782.676025,937.154358 782.465088,936.180176 782.321655,935.196167   C781.200012,927.502625 783.478088,921.022827 790.632751,917.658508   C798.009888,914.189636 804.820312,916.065125 810.955078,922.341675   C811.687927,922.331970 811.856140,922.103027 811.737793,922.182983   C811.874695,925.518677 812.353577,928.775146 812.342834,932.030029   C812.312378,941.235596 806.948242,946.363342 797.564453,946.357056   C794.627747,946.355103 791.583069,946.750366 788.388062,944.083252  z"/>
<path id="" fill="#DBDBDB" opacity="0" stroke="none" d=" M1980.010010,365.157410   C1981.703857,362.081116 1983.516846,359.775818 1985.477295,356.893005   C1992.461182,352.353760 1999.246948,351.463379 2005.654785,357.067871   C2010.202515,361.045197 2012.050659,369.896637 2009.693359,375.183624   C2007.062012,381.085175 1999.433228,384.813354 1992.269653,383.698761   C1986.140991,382.745148 1981.080688,376.935669 1980.294556,369.888214   C1980.148315,368.578430 1980.179565,367.248840 1980.010010,365.157410  z"/>
<path id="" fill="#DBDBDB" opacity="0" stroke="none" d=" M1706.472900,235.778442   C1707.569458,238.084625 1708.910767,239.714890 1710.727539,241.502106   C1712.920410,244.762970 1712.485474,248.163162 1712.338501,251.447586   C1711.980835,259.444275 1706.437134,264.310120 1697.905029,264.381531   C1688.991211,264.456116 1682.848877,259.320587 1682.280151,251.317902   C1681.690430,243.019547 1686.936890,235.323563 1694.234741,234.405350   C1697.473633,233.997849 1700.891724,233.791779 1704.940186,234.835266   C1705.773926,234.591614 1705.933472,234.310120 1705.811890,234.203369   C1706.032715,234.431915 1706.375244,234.767212 1706.472900,235.778442  z"/>
<path id="" fill="#DBDBDB" opacity="0" stroke="none" d=" M479.825684,874.210388   C481.195587,875.751648 481.953796,876.735962 483.200562,877.802734   C484.551056,884.754395 486.279572,891.713257 479.624268,897.106445   C475.480804,900.464294 466.442413,901.748108 461.954224,899.171692   C455.910614,895.702393 452.761749,888.164673 454.444000,881.193726   C455.761749,875.733154 462.321533,870.561035 468.280579,870.273987   C472.335815,870.078674 476.292603,870.187134 479.825684,874.210388  z"/>
<path id="" fill="#DBDBDB" opacity="0" stroke="none" d=" M1914.133057,223.709900   C1911.586548,224.945618 1909.741577,226.508652 1906.712646,226.435028   C1894.764648,225.826706 1890.512451,221.628311 1889.443970,212.703827   C1888.176880,202.121460 1898.269897,193.009872 1910.469116,197.096649   C1911.971069,197.599808 1913.226440,198.838867 1915.270874,200.066025   C1916.852661,202.049042 1917.759766,203.702972 1919.179688,205.605637   C1919.885498,212.163467 1920.736816,218.669174 1914.133057,223.709900  z"/>
<path id="" fill="#DCDBDC" opacity="0" stroke="none" d=" M1565.657471,970.198303   C1566.925781,972.874573 1569.135620,973.701599 1570.820312,975.533752   C1572.678223,981.163086 1573.852295,986.774292 1570.531616,991.866882   C1565.695679,999.283264 1557.782959,1000.498047 1547.132324,995.575073   C1546.322998,995.392212 1546.174683,995.592957 1546.220825,995.708862   C1545.676025,995.494690 1545.148071,995.085022 1544.422119,994.157043   C1544.151489,993.731079 1544.345581,993.909668 1544.456055,993.839600   C1542.389893,987.794983 1540.352051,981.733887 1544.050903,975.684937   C1548.490234,968.424866 1553.928345,966.979858 1565.657471,970.198303  z"/>
<path id="" fill="#000001" opacity="0" stroke="none" d=" M1544.078369,994.407227   C1545.121826,993.371521 1545.903809,993.637329 1546.394775,995.134888   C1545.318726,996.170349 1544.574463,995.893982 1544.078369,994.407227  z"/>
<path id="" fill="#000001" opacity="0" stroke="none" d=" M1706.534180,236.110199   C1705.839966,236.129669 1705.452026,235.804962 1705.377197,234.788452   C1706.746460,234.189651 1707.541138,234.462769 1706.534180,236.110199  z"/>
</svg>