<svg version="1.1" id="Layer_1" xmlns="http://www.w3.org/2000/svg" xmlns:xlink="http://www.w3.org/1999/xlink" x="0px" y="0px" height="100%" viewBox="0 0 2070 2220" enable-background="new 0 0 2070 2220" xml:space="preserve">
<path fill="#FDFDFD" opacity="1.000000" stroke="none" d=" M527.506348,825.536621   C465.017639,860.258789 403.166260,894.607361 341.389160,929.088989   C336.141296,932.018127 330.980286,932.685608 325.133148,931.835815   C295.644165,927.549927 266.117188,923.526794 236.614609,919.333435   C210.722305,915.653259 184.845840,911.862000 158.960083,908.135742   C148.470078,906.625793 137.933441,905.383606 127.509804,903.509155   C124.973610,903.053040 122.026932,901.104126 120.576698,898.957947   C102.323242,871.944397 84.177635,844.854553 66.408607,817.521545   C64.275948,814.241089 63.788906,809.418213 63.773834,805.305725   C63.599239,757.665039 63.662575,710.023376 63.662640,662.382019   C63.662731,596.416992 63.662693,530.452026 63.662704,464.487000   C63.662704,460.847504 63.662708,457.208008 63.662708,452.932617   C66.683769,452.710968 69.238686,452.359924 71.793663,452.359467   C216.383606,452.333282 360.973572,452.364899 505.563416,452.231140   C511.300598,452.225830 515.778503,453.406311 519.520203,457.938354   C522.475830,461.518188 525.769531,464.944275 529.406738,467.812653   C540.601929,476.641571 546.045105,488.350311 549.805359,501.934052   C566.533264,562.362061 584.059326,622.568726 601.091431,682.913391   C602.687988,688.569824 603.503479,694.626282 603.558289,700.507446   C603.812561,727.815186 603.670837,755.126648 603.670837,783.029297   C578.503967,797.084229 553.333557,811.141113 527.506348,825.536621  z"/>
<path fill="#FDFDFD" opacity="1.000000" stroke="none" d=" M1176.865234,1062.855469   C1111.476562,1105.762085 1046.669067,1148.236206 980.895691,1191.343384   C947.195679,1141.579224 913.880310,1092.383179 879.766846,1042.008545   C1033.357666,937.438477 1186.693237,833.042236 1341.094360,727.920471   C1376.330811,780.753540 1411.273560,833.146301 1446.753418,886.344238   C1356.587769,945.296448 1267.017090,1003.859741 1176.865234,1062.855469  z"/>
<path fill="#FBFBFB" opacity="1.000000" stroke="none" d=" M1289.863770,1033.930664   C1317.789795,1015.881409 1345.080444,998.179199 1373.133179,979.982666   C1390.156616,1003.767212 1406.921021,1027.189941 1424.309814,1051.484985   C1364.067261,1092.050659 1304.129150,1132.411499 1243.424316,1173.288452   C1224.875244,1149.050537 1206.784302,1125.411011 1187.822266,1100.633301   C1221.790527,1078.406006 1255.509521,1056.341797 1289.863770,1033.930664  z"/>
<path fill="#FBFBFB" opacity="1.000000" stroke="none" d=" M1754.724365,208.222992   C1777.959473,227.708054 1800.647095,246.631866 1823.102661,265.826996   C1826.256104,268.522583 1829.220581,272.188019 1830.668945,276.011902   C1842.895386,308.290466 1854.750854,340.709534 1866.697754,373.093719   C1866.916016,373.685608 1866.887207,374.368713 1867.074829,375.758850   C1864.600220,375.954712 1862.140503,376.311035 1859.679565,376.318146   C1842.691406,376.367249 1825.703003,376.323853 1808.714600,376.357483   C1804.680542,376.365479 1801.271851,375.873474 1797.759399,372.936401   C1784.262207,361.650513 1770.183350,351.062500 1756.605957,339.869019   C1753.424561,337.246185 1750.663696,333.598969 1748.898315,329.861481   C1741.102051,313.356232 1733.792358,296.621765 1726.182495,280.027222   C1724.323486,275.973480 1722.948975,272.172791 1724.944580,267.667664   C1733.276489,248.858093 1741.432495,229.970734 1749.702881,211.133789   C1750.510620,209.294357 1750.430054,205.991425 1754.724365,208.222992  z"/>
<path fill="#FBFBFB" opacity="1.000000" stroke="none" d=" M1740.869873,840.689941   C1749.640747,823.919006 1758.011841,807.771606 1766.728149,790.958374   C1791.138916,804.153137 1814.694092,816.885498 1838.115479,829.545532   C1837.133911,837.532593 1786.500366,952.667175 1780.938965,959.604919   C1754.801758,944.813049 1728.610107,929.990417 1701.783691,914.808472   C1714.876465,889.935486 1727.673340,865.624512 1740.869873,840.689941  z"/>
<path fill="#FBFBFB" opacity="1.000000" stroke="none" d=" M1539.887329,1011.917908   C1562.677368,1010.614868 1585.465942,1009.284973 1608.258911,1008.036499   C1611.868164,1007.838806 1615.497314,1008.008728 1620.402832,1008.008728   C1622.985596,1026.681763 1621.283936,1045.530640 1622.257690,1064.220581   C1623.220215,1082.692383 1623.403931,1101.204834 1623.952759,1120.528320   C1590.797607,1122.003784 1558.786865,1123.428345 1526.804443,1124.851562   C1526.223755,1122.889771 1525.739990,1121.998657 1525.725708,1121.099976   C1525.215820,1089.226440 1524.750122,1057.352173 1524.480469,1023.976013   C1529.751099,1018.955261 1534.819214,1015.436584 1539.887329,1011.917908  z"/>
<path fill="#1A7094" opacity="1.000000" stroke="none" d=" M1164.000000,1709.824341   C1081.396240,1709.819580 999.792358,1709.815552 918.188538,1709.809082   C915.524048,1709.808960 912.834839,1710.011841 910.200378,1709.724121   C905.051270,1709.162109 902.393982,1706.189331 902.239075,1701.259644   C902.088074,1696.451172 904.697571,1692.979492 909.465332,1691.956421   C911.069946,1691.612183 912.776062,1691.686035 914.436829,1691.668701   C917.767151,1691.634033 921.098328,1691.688477 924.428955,1691.671143   C1017.977844,1691.186890 1111.527954,1690.837158 1205.073730,1689.997192   C1214.557129,1689.912109 1224.114136,1687.298096 1233.464966,1685.119629   C1267.132935,1677.276245 1300.719116,1669.082397 1334.361450,1661.128052   C1337.886475,1660.294678 1341.576782,1659.822266 1345.194946,1659.795776   C1351.484619,1659.749756 1353.624268,1661.589355 1354.237061,1666.648926   C1354.890747,1672.047485 1352.762573,1676.196167 1347.793457,1677.591553   C1340.117554,1679.746948 1332.301392,1681.406372 1324.538574,1683.250244   C1290.266235,1691.390137 1256.059448,1699.826782 1221.672852,1707.452637   C1212.389526,1709.511353 1202.569092,1709.375610 1192.975830,1709.746704   C1183.663452,1710.106934 1174.326294,1709.824585 1164.000000,1709.824341  z"/>
<path fill="#1A7194" opacity="1.000000" stroke="none" d=" M234.000000,417.789246   C194.666916,417.791290 156.333801,417.821411 118.000771,417.775665   C108.623016,417.764465 105.270035,414.804749 105.687325,407.534576   C105.958778,402.805359 108.199814,400.036102 113.021713,399.782562   C116.346786,399.607727 119.685013,399.651398 123.017365,399.651245   C230.683334,399.646362 338.349396,399.700226 446.015076,399.520447   C452.540192,399.509552 459.239258,398.287201 465.553772,396.534576   C487.994446,390.306061 510.388672,383.876160 532.618896,376.940369   C540.966003,374.336060 547.065979,379.992004 546.283936,387.327179   C545.763245,392.210419 542.604736,394.193207 538.615662,395.406006   C529.062805,398.310516 519.460144,401.051025 509.882782,403.875275   C496.477234,407.828400 483.192963,412.278412 469.626648,415.566162   C462.332123,417.334015 454.558502,417.691071 446.998718,417.709412   C383.332825,417.863922 319.666412,417.792694 256.000153,417.789429   C249.000107,417.789093 242.000046,417.789398 234.000000,417.789246  z"/>
<path fill="#FAFAFA" opacity="1.000000" stroke="none" d=" M1330.005127,1431.794678   C1332.103638,1435.593628 1333.858276,1438.753052 1336.107178,1442.802490   C1306.094727,1460.828735 1276.342163,1478.698975 1245.383667,1497.293335   C1233.181030,1475.012207 1221.305054,1453.327393 1208.796021,1430.486816   C1239.063354,1413.304810 1268.926880,1396.352295 1299.628662,1378.923828   C1309.869629,1396.734375 1319.765381,1413.944702 1330.005127,1431.794678  z"/>
<path fill="#1A7195" opacity="1.000000" stroke="none" d=" M1466.956543,1797.045410   C1440.559448,1762.727783 1414.563354,1729.005371 1388.606934,1695.252441   C1386.994385,1693.155396 1385.311646,1690.973755 1384.330811,1688.559570   C1382.510254,1684.078369 1384.157715,1679.459473 1387.879272,1677.168091   C1391.655396,1674.843140 1396.420288,1675.290649 1399.744141,1678.569214   C1401.629517,1680.429321 1403.234009,1682.589966 1404.856689,1684.698486   C1443.603271,1735.052368 1482.297485,1785.446777 1521.081543,1835.771606   C1553.771118,1878.187988 1586.564209,1920.524536 1619.301758,1962.903931   C1621.132080,1965.273315 1623.065796,1967.594604 1624.613892,1970.143311   C1627.645996,1975.135254 1626.748413,1980.614380 1622.685669,1983.476685   C1618.178467,1986.652100 1613.154785,1986.273071 1609.319580,1981.741821   C1604.166748,1975.653320 1599.438599,1969.203491 1594.564575,1962.880981   C1556.187134,1913.097900 1517.815186,1863.310669 1479.451172,1813.517334   C1475.390869,1808.247559 1471.393188,1802.929321 1466.956543,1797.045410  z"/>
<path fill="#1A7195" opacity="1.000000" stroke="none" d=" M1262.408447,1204.419312   C1218.456787,1234.052490 1175.109375,1263.294189 1131.705933,1292.452515   C1102.407715,1312.134766 1073.040405,1331.713989 1043.682983,1351.307861   C1034.797607,1357.238159 1029.689575,1357.011475 1025.671997,1350.683594   C1022.215759,1345.239868 1024.191772,1340.817993 1033.160034,1334.808716   C1069.394043,1310.529541 1105.711548,1286.374756 1141.918213,1262.054932   C1186.427124,1232.158447 1230.834473,1202.110840 1275.332031,1172.197510   C1289.977173,1162.352295 1304.748047,1152.693604 1319.499268,1143.007080   C1325.123901,1139.313599 1329.892578,1139.845337 1333.545410,1144.357300   C1337.166504,1148.830322 1336.599609,1154.006470 1330.856812,1158.119019   C1317.864014,1167.423462 1304.549316,1176.281250 1291.301514,1185.225830   C1281.917969,1191.561401 1272.430054,1197.742310 1262.408447,1204.419312  z"/>
<path fill="#197195" opacity="1.000000" stroke="none" d=" M811.687866,922.331665   C812.265869,907.815063 812.335815,907.921448 826.321228,898.730713   C859.424683,876.976440 892.414001,855.048645 925.524353,833.304993   C977.538757,799.146790 1029.620483,765.091003 1081.658569,730.968811   C1089.171021,726.042847 1096.557007,720.923645 1104.077881,716.011169   C1111.897095,710.903870 1117.161621,711.077942 1120.568237,716.346436   C1124.066895,721.756958 1122.254883,727.118835 1114.981812,731.935913   C1086.957886,750.496399 1058.905151,769.013489 1030.829468,787.495728   C997.194702,809.637451 963.538086,831.746094 929.867920,853.833984   C896.752319,875.557983 863.526855,897.116150 830.552551,919.052002   C824.754822,922.908936 819.437073,924.675720 812.446899,921.780151   C811.856018,922.102722 811.687866,922.331665 811.687866,922.331665  z"/>
<path fill="#1A7195" opacity="1.000000" stroke="none" d=" M1153.798096,695.668945   C1153.091431,685.779480 1158.794678,680.586243 1166.551392,675.440247   C1224.557495,636.957520 1282.280151,598.047791 1340.078735,559.252502   C1374.098633,536.417908 1408.094482,513.547607 1442.104004,490.697571   C1443.760498,489.584595 1445.349243,488.314423 1447.132935,487.457794   C1452.001709,485.119537 1456.663452,486.260986 1459.572754,490.173828   C1462.717041,494.402893 1461.540771,498.490601 1458.766357,502.079620   C1457.200806,504.104889 1454.696533,505.454895 1452.495972,506.931366   C1386.387939,551.285950 1320.261841,595.613586 1254.146240,639.956482   C1227.308350,657.956238 1200.401733,675.855774 1173.723389,694.089355   C1167.496582,698.345215 1161.774414,699.523376 1154.585205,695.397156   C1153.829102,695.516113 1153.798096,695.668945 1153.798096,695.668945  z"/>
<path fill="#1A7194" opacity="1.000000" stroke="none" d=" M555.786255,1862.713135   C557.376953,1871.752808 551.927490,1875.787109 544.771362,1879.346680   C473.186951,1914.952148 401.680756,1950.714844 330.159698,1986.447754   C303.935608,1999.549683 277.732697,2012.694092 251.512604,2025.804077   C249.130341,2026.995361 246.779495,2028.343994 244.264374,2029.155640   C238.872116,2030.895508 234.264465,2029.067017 232.393753,2024.774780   C230.317200,2020.010498 231.802933,2014.425903 236.581177,2011.937744   C250.168106,2004.863037 263.915710,1998.095947 277.618713,1991.245239   C364.305603,1947.906616 451.017578,1904.618042 537.633545,1861.138184   C542.392517,1858.749268 546.938171,1857.877075 553.105652,1858.923828   C554.730957,1860.410278 555.258606,1861.561646 555.786255,1862.713135  z"/>
<path fill="#1A7195" opacity="1.000000" stroke="none" d=" M642.440979,715.544678   C624.644531,650.244324 607.081055,585.720398 589.485107,521.205383   C580.121399,486.873505 570.687866,452.560638 561.337952,418.225037   C560.733582,416.005798 560.311340,413.669617 560.268250,411.379089   C560.184021,406.898560 562.227478,403.548492 566.751343,402.530853   C571.388855,401.487640 575.536743,402.648315 577.678040,407.290924   C579.202087,410.595032 580.344727,414.114563 581.302429,417.634583   C606.283325,509.450439 631.214111,601.279846 656.163757,693.104187   C659.741394,706.271118 663.396545,719.416992 666.951477,732.589905   C667.554321,734.823486 668.127075,737.136353 668.196899,739.428406   C668.363953,744.907837 665.361267,748.639771 660.481140,749.497620   C656.424133,750.210876 652.081970,747.777527 650.298523,743.191895   C648.858398,739.488892 648.038330,735.543884 646.958374,731.701904   C645.518066,726.578369 644.092407,721.450745 642.440979,715.544678  z"/>
<path fill="#1A7195" opacity="1.000000" stroke="none" d=" M977.651489,598.140015   C977.660339,596.176819 977.803467,594.203186 977.652100,592.252441   C977.250366,587.072876 979.074646,583.669678 983.937561,581.027832   C1025.177368,558.623291 1066.305542,536.012695 1107.423218,513.384094   C1135.995972,497.659424 1164.482544,481.778046 1193.060059,466.061951   C1195.934937,464.480896 1199.080566,463.194031 1202.257446,462.391327   C1228.062134,455.871216 1253.889771,449.439575 1279.750732,443.146698   C1283.586548,442.213318 1287.622681,441.965393 1291.585693,441.732117   C1295.368042,441.509460 1297.956543,443.650421 1299.185669,447.075775   C1300.549194,450.875488 1299.929321,454.718475 1296.385376,456.818573   C1292.754028,458.970520 1288.678101,460.637238 1284.584717,461.699219   C1265.906250,466.545197 1247.299072,471.847443 1228.385864,475.555359   C1209.709717,479.216827 1193.298950,487.505981 1176.976196,496.567780   C1137.112427,518.698669 1097.121338,540.600647 1057.203979,562.635254   C1036.513428,574.056458 1015.816711,585.468445 995.242371,597.096252   C989.800171,600.172058 984.653381,600.661560 978.481873,597.840088   C977.794922,597.943726 977.651489,598.140015 977.651489,598.140015  z"/>
<path fill="#1A7195" opacity="1.000000" stroke="none" d=" M749.960327,335.875610   C698.579163,350.326447 648.000000,364.643005 597.414001,378.935760   C595.501343,379.476166 593.537537,380.044739 591.573120,380.152191   C586.526367,380.428314 582.931091,377.789551 581.921997,373.377716   C580.582275,367.520355 582.457031,363.420990 588.081604,361.684387   C600.796936,357.758575 613.596191,354.098114 626.402954,350.476868   C660.982971,340.699066 695.589233,331.014313 730.176697,321.263000   C786.867798,305.279999 843.543518,289.242340 900.247864,273.306549   C910.184814,270.513977 916.183716,275.609131 914.070923,284.606354   C912.964111,289.319702 909.239014,290.628723 905.338318,291.757172   C893.515137,295.177612 881.682800,298.566711 869.843384,301.930634   C830.151794,313.208313 790.455627,324.469696 749.960327,335.875610  z"/>
<path fill="#FAFAFA" opacity="1.000000" stroke="none" d=" M816.733521,1257.366211   C797.499451,1262.462402 781.317993,1258.957520 767.539612,1245.118286   C756.861267,1234.392700 754.199097,1221.183594 756.930786,1207.385864   C760.332764,1190.202148 776.642883,1173.917725 797.385559,1173.541870   C812.325806,1173.271240 824.826660,1176.609985 835.944092,1187.952637   C850.826477,1203.136597 851.333252,1236.645996 828.808350,1250.884888   C825.178528,1253.179321 821.276184,1255.042847 816.733521,1257.366211  z"/>
<path fill="#197296" opacity="1.000000" stroke="none" d=" M148.000900,1524.239136   C237.587997,1524.061279 326.175354,1523.882690 414.762726,1523.708374   C417.760132,1523.702515 420.777985,1523.524536 423.750458,1523.805908   C428.846344,1524.288330 431.771912,1527.275879 432.171204,1531.956543   C432.630737,1537.343994 430.194122,1540.800049 424.534302,1541.773315   C420.958771,1542.388184 417.239349,1542.297607 413.584381,1542.299194   C352.301453,1542.325195 291.017853,1542.143921 229.735825,1542.379395   C193.146286,1542.519897 156.559311,1543.307251 119.970924,1543.784302   C116.975151,1543.823364 113.943794,1543.979614 110.987656,1543.610962   C105.149269,1542.882812 102.354996,1539.832031 102.264885,1534.632202   C102.166862,1528.976440 105.215508,1525.322388 111.040764,1524.415649   C112.996986,1524.111084 115.028564,1524.258301 117.025795,1524.255127   C127.017570,1524.239624 137.009369,1524.242554 148.000900,1524.239136  z"/>
<path fill="#1A7195" opacity="1.000000" stroke="none" d=" M583.854370,1848.160278   C582.943665,1839.540894 586.312195,1834.212280 594.533020,1830.373047   C611.116577,1822.628174 627.141968,1813.693848 643.452759,1805.358032   C695.355225,1778.833008 747.281738,1752.354980 799.201782,1725.864136   C813.148987,1718.748047 827.063232,1711.564575 841.093506,1704.615845   C843.985657,1703.183350 847.271973,1702.284790 850.476013,1701.809204   C854.688721,1701.183838 857.996765,1703.740234 858.826172,1707.422241   C859.463684,1710.251953 858.700073,1714.168457 857.039246,1716.534546   C855.271301,1719.052979 851.852173,1720.585571 848.917419,1722.086060   C805.322205,1744.375488 761.656738,1766.527588 718.071655,1788.836670   C679.529175,1808.564575 640.995850,1828.313599 602.635864,1848.392212   C596.252319,1851.733398 590.894348,1852.230225 584.560303,1847.905029   C583.895569,1848.001465 583.854370,1848.160278 583.854370,1848.160278  z"/>
<path fill="#1A7195" opacity="1.000000" stroke="none" d=" M1102.233032,220.665253   C1111.632324,217.208664 1120.390503,214.078735 1129.298828,211.460022   C1178.774658,196.916153 1228.362427,182.745941 1277.725952,167.832947   C1288.148438,164.684250 1298.395264,163.697754 1309.083618,163.605240   C1333.034546,163.397949 1356.981323,162.710297 1380.930054,162.232208   C1383.261963,162.185654 1385.603394,162.116928 1387.927246,162.264587   C1394.540039,162.684799 1397.593994,165.434296 1397.853638,171.033524   C1398.087280,176.071182 1394.491577,180.590759 1389.207642,181.640335   C1387.596924,181.960251 1385.887329,181.813812 1384.222656,181.826065   C1360.899902,181.997772 1337.573975,182.448990 1314.255737,182.195999   C1303.465332,182.078949 1293.140137,183.505417 1282.834473,186.560577   C1231.157715,201.880264 1179.430054,217.028839 1127.710205,232.202576   C1122.927246,233.605789 1118.137451,235.170670 1113.237915,235.954102   C1101.075684,237.898804 1097.525146,233.232010 1102.233032,220.665253  z"/>
<path fill="#1A7195" opacity="1.000000" stroke="none" d=" M922.502258,620.429321   C926.966370,618.042053 930.609070,615.480957 934.656799,614.205750   C938.411072,613.023010 942.725159,612.893494 945.274536,617.217102   C947.441528,620.892151 946.614685,627.131897 943.220642,629.993225   C940.702087,632.116455 937.780457,633.813171 934.890564,635.436829   C869.369263,672.249023 803.825378,709.021179 738.291870,745.811768   C728.143494,751.509033 718.062317,757.327271 707.866455,762.937500   C705.288696,764.355896 702.475403,765.652161 699.617493,766.185303   C695.035583,767.040161 690.977112,765.858032 688.900269,761.053040   C686.955322,756.553284 688.284119,752.063110 693.003235,749.060608   C698.047302,745.851257 703.351135,743.046448 708.572510,740.120117   C752.662842,715.409912 796.751221,690.696228 840.858887,666.016968   C867.841431,650.919678 894.856812,635.881348 922.502258,620.429321  z"/>
<path fill="#1A7195" opacity="1.000000" stroke="none" d=" M1511.128662,490.739441   C1530.298828,504.657135 1548.914062,518.104858 1567.390503,531.740295   C1570.815308,534.267883 1574.165649,537.184143 1576.726318,540.548279   C1592.854980,561.737549 1608.879517,583.009949 1624.612671,604.493408   C1627.666626,608.663513 1630.083862,613.668701 1631.433838,618.657104   C1639.427856,648.196106 1647.034790,677.840027 1654.723145,707.461365   C1655.386230,710.016113 1656.078247,712.663391 1656.079102,715.267822   C1656.080566,719.764221 1653.615356,722.884583 1649.221558,723.921692   C1644.963257,724.926819 1641.146118,723.741516 1638.890381,719.781921   C1637.594849,717.507751 1636.757080,714.905640 1636.085938,712.353210   C1629.151001,685.977234 1622.314575,659.575378 1615.398804,633.194275   C1613.198608,624.801147 1610.093628,616.953064 1604.625488,609.890930   C1590.974976,592.260681 1577.960938,574.138428 1564.376831,556.455322   C1560.996582,552.054993 1556.790527,548.077576 1552.331177,544.755066   C1535.254761,532.031982 1517.917603,519.658936 1500.688599,507.140350   C1499.342529,506.162323 1498.015991,505.139374 1496.790405,504.016998   C1491.782593,499.430847 1490.908447,495.252502 1493.984863,490.962830   C1497.097046,486.623260 1502.383057,485.746918 1508.033569,488.678894   C1508.913574,489.135529 1509.697388,489.777771 1511.128662,490.739441  z"/>
<path fill="#1A7195" opacity="1.000000" stroke="none" d=" M1294.560791,389.459534   C1301.594971,394.585144 1308.158325,399.143829 1314.517822,403.971008   C1322.054443,409.691711 1323.885010,415.745361 1319.892700,420.648804   C1316.298950,425.062775 1309.888306,424.741821 1302.927246,419.584961   C1287.426514,408.101868 1271.989502,396.532837 1256.517578,385.010712   C1205.024292,346.662811 1153.518188,308.331909 1102.054443,269.944366   C1099.147461,267.775970 1096.002930,265.560425 1093.969238,262.664368   C1089.939453,256.926056 1093.451660,250.483078 1100.423584,249.700699   C1105.491455,249.132019 1109.317261,251.374588 1113.157471,254.247055   C1140.859131,274.968201 1168.629272,295.597839 1196.371704,316.264435   C1228.917480,340.509216 1261.457153,364.762115 1294.560791,389.459534  z"/>
<path fill="#1A7195" opacity="1.000000" stroke="none" d=" M752.078735,1535.703369   C750.847229,1543.892456 744.614441,1544.478271 739.218750,1545.503418   C726.828247,1547.857422 714.336914,1549.675537 701.900513,1551.793579   C672.766113,1556.755005 643.560303,1561.354614 614.555359,1566.986084   C604.888367,1568.862915 596.064148,1566.910278 586.992676,1565.220215   C552.714355,1558.833862 518.468384,1552.273438 484.214020,1545.758911   C482.259247,1545.387085 480.302124,1544.954834 478.406311,1544.359131   C472.302521,1542.441284 469.478760,1538.530884 470.508087,1533.589355   C471.717529,1527.783081 475.587738,1525.014038 482.452362,1526.032471   C491.317139,1527.347412 500.101135,1529.217163 508.908417,1530.907837   C538.266235,1536.543701 567.631958,1542.140015 596.967041,1547.892456   C607.794373,1550.015747 618.185364,1547.054077 628.579102,1545.290039   C664.260620,1539.233521 699.843628,1532.599243 735.484802,1526.301514   C746.446289,1524.364868 749.013489,1525.848267 752.078735,1535.703369  z"/>
<path fill="#1A7195" opacity="1.000000" stroke="none" d=" M1538.071777,1413.723755   C1538.317017,1414.943115 1538.220337,1416.395020 1538.864868,1417.342651   C1542.139282,1422.156860 1541.078735,1426.516602 1538.411011,1431.250732   C1531.872437,1442.854248 1525.735474,1454.683350 1519.310425,1466.351929   C1496.029541,1508.632202 1473.102417,1551.116211 1449.116821,1592.993408   C1442.602783,1604.366699 1432.985107,1614.000977 1424.511963,1624.200806   C1418.139404,1631.871704 1411.638062,1639.489380 1404.597046,1646.534058   C1399.085449,1652.048828 1392.545044,1650.314697 1389.236328,1643.389404   C1387.359741,1639.461792 1388.753174,1636.315796 1391.257446,1633.336548   C1396.821167,1626.717407 1401.901733,1619.604370 1408.047974,1613.579102   C1425.440063,1596.529297 1437.228149,1575.761963 1448.754272,1554.702515   C1471.288086,1513.530884 1494.033936,1472.475220 1516.672607,1431.360840   C1518.117554,1428.736694 1519.443359,1426.043457 1520.742188,1423.342896   C1523.968628,1416.634399 1528.820190,1412.893677 1537.330566,1414.177490   C1538.010254,1413.901001 1538.071777,1413.723755 1538.071777,1413.723755  z"/>
<path fill="#1A7195" opacity="1.000000" stroke="none" d=" M1589.752686,1317.700317   C1619.866943,1266.631714 1649.619995,1216.196655 1679.383545,1165.768066   C1680.736084,1163.476318 1682.146118,1161.216431 1683.595459,1158.984497   C1687.869751,1152.402588 1692.430298,1150.564087 1697.465454,1153.343628   C1702.786255,1156.280884 1703.854370,1161.861938 1699.978271,1168.968628   C1695.997681,1176.266724 1691.665771,1183.374390 1687.440308,1190.537598   C1650.931519,1252.428467 1614.413818,1314.313965 1577.889038,1376.195557   C1576.537109,1378.486206 1575.308716,1380.901489 1573.633667,1382.938965   C1570.548340,1386.691650 1563.987183,1387.512939 1560.054810,1384.926392   C1556.175659,1382.374756 1554.875977,1377.392456 1557.484741,1372.505371   C1561.084717,1365.761719 1565.129761,1359.254395 1569.024048,1352.669312   C1575.797729,1341.215088 1582.602051,1329.778931 1589.752686,1317.700317  z"/>
<path fill="#1A7195" opacity="1.000000" stroke="none" d=" M541.251953,342.788391   C527.268311,290.996948 513.559937,239.958878 499.796631,188.935654   C494.170441,168.078308 488.416870,147.255356 482.743347,126.410728   C481.870300,123.203171 480.876282,120.001129 480.358856,116.730011   C479.362762,110.432915 481.688324,105.979652 486.366821,104.531662   C491.737366,102.869507 496.273315,105.371773 498.760620,111.620804   C499.863556,114.391762 500.657379,117.298485 501.426971,120.187408   C509.897369,151.983978 518.285278,183.802597 526.794312,215.588776   C538.136902,257.959808 549.579590,300.304047 560.927917,342.673553   C561.608826,345.215515 562.231750,347.886047 562.186768,350.484711   C562.104797,355.221405 558.779236,358.951141 554.324158,359.399109   C549.992798,359.834686 546.278076,358.066315 544.484314,354.086700   C543.000610,350.794891 542.462341,347.076904 541.251953,342.788391  z"/>
<path fill="#1A7195" opacity="1.000000" stroke="none" d=" M789.693115,1518.518066   C784.123718,1510.026611 784.124939,1507.300537 791.016235,1502.198120   C801.167419,1494.681641 811.739319,1487.729858 822.183533,1480.613281   C869.469238,1448.393188 916.776062,1416.204346 964.065369,1383.989746   C968.736206,1380.807861 973.164734,1377.230347 978.019226,1374.368408   C983.925476,1370.885986 988.658386,1372.038330 991.866272,1377.042236   C994.624817,1381.345215 993.639343,1386.146240 988.644836,1390.053101   C983.934204,1393.738159 978.925659,1397.049805 973.980103,1400.426025   C926.451172,1432.875732 878.908875,1465.305664 831.367737,1497.737305   C822.023560,1504.111938 812.659058,1510.456665 803.321533,1516.840942   C799.318665,1519.577759 795.237366,1521.624268 789.693115,1518.518066  z"/>
<path fill="#1A7195" opacity="1.000000" stroke="none" d=" M1669.974609,389.948486   C1616.871582,416.466095 1564.468994,442.722748 1512.010376,468.867371   C1508.809937,470.462433 1505.238037,471.619141 1501.712036,472.176361   C1497.233032,472.884064 1493.778076,470.624054 1492.546143,466.237732   C1491.394287,462.136139 1492.258179,458.225189 1496.093872,455.635254   C1497.739746,454.523895 1499.577881,453.686890 1501.362915,452.793579   C1562.723755,422.085236 1624.085327,391.378021 1685.466675,360.710571   C1687.819946,359.534790 1690.295288,358.342651 1692.845093,357.876038   C1697.827271,356.964417 1702.054443,359.166412 1703.550049,363.168701   C1705.288696,367.821838 1703.946045,371.748047 1699.939819,374.554932   C1697.776978,376.070282 1695.311401,377.165924 1692.942993,378.373718   C1685.526367,382.156342 1678.090698,385.902222 1669.974609,389.948486  z"/>
<path fill="#1A7195" opacity="1.000000" stroke="none" d=" M1664.812988,245.277557   C1660.587036,244.779572 1656.857666,244.536331 1653.602295,243.166351   C1616.548584,227.572479 1579.684937,211.518524 1542.467651,196.329559   C1535.020874,193.290405 1526.329590,193.149643 1518.160522,192.060822   C1497.791748,189.345993 1477.373169,186.996353 1457.029053,184.115433   C1454.099976,183.700638 1450.478271,181.827347 1448.896484,179.473572   C1444.640137,173.140762 1448.957397,165.571533 1456.727173,165.828003   C1465.993286,166.133865 1475.253662,167.207291 1484.468750,168.338455   C1504.550537,170.803497 1524.634888,173.295502 1544.641235,176.290787   C1549.317261,176.990860 1553.730835,179.637878 1558.187256,181.568909   C1566.711060,185.262283 1575.114868,189.237442 1583.681885,192.825134   C1609.116699,203.476517 1634.607178,213.994553 1660.072388,224.573441   C1661.299927,225.083435 1662.510132,225.642273 1663.699829,226.235458   C1673.767334,231.254684 1674.330933,237.070999 1664.812988,245.277557  z"/>
<path fill="#1A7195" opacity="1.000000" stroke="none" d=" M1835.475098,922.398376   C1843.418579,928.481995 1844.185181,931.090515 1839.791504,939.405701   C1831.715698,954.689087 1823.395142,969.844666 1815.058838,984.988647   C1797.746582,1016.439026 1780.360596,1047.848755 1762.998047,1079.271484   C1755.601685,1092.657227 1748.386230,1106.148315 1740.709473,1119.371338   C1736.069824,1127.363159 1728.644409,1127.862793 1723.960815,1121.059326   C1721.072021,1116.863159 1722.293457,1112.951172 1724.517090,1108.928101   C1730.790039,1097.578857 1736.880249,1086.128784 1743.149658,1074.777710   C1767.099976,1031.415283 1791.090454,988.074890 1815.071655,944.729492   C1818.127563,939.205994 1821.345337,933.767639 1824.251343,928.166992   C1826.511597,923.810852 1829.775757,921.675171 1835.475098,922.398376  z"/>
<path fill="#1A7195" opacity="1.000000" stroke="none" d=" M1902.052856,648.421143   C1889.940430,651.440918 1886.788696,649.053284 1886.152100,637.843811   C1884.720581,612.634583 1883.335327,587.420166 1881.522705,562.237244   C1881.123413,556.688416 1879.539307,551.075562 1877.627930,545.809082   C1865.368042,512.027649 1852.859863,478.336456 1840.453857,444.607971   C1839.654053,442.433411 1838.680664,440.239594 1838.391968,437.977631   C1837.820923,433.506348 1839.814453,430.189362 1844.020020,428.478760   C1848.303955,426.736206 1853.305542,427.950836 1855.596802,431.556458   C1857.186035,434.057526 1858.304199,436.904083 1859.337646,439.705200   C1872.350464,474.973145 1885.324951,510.255219 1898.243774,545.557678   C1899.028198,547.701233 1899.558472,550.028076 1899.703125,552.301697   C1901.306152,577.499756 1902.791382,602.705383 1904.367432,627.905212   C1904.532104,630.541443 1905.115112,633.149170 1905.432129,635.778809   C1905.956909,640.131958 1906.362061,644.478149 1902.052856,648.421143  z"/>
<path fill="#1A7194" opacity="1.000000" stroke="none" d=" M1566.364624,970.661926   C1567.933228,955.616455 1578.875488,945.450989 1586.155762,933.481445   C1596.350708,916.720276 1607.383179,900.441406 1618.648071,884.370361   C1623.788940,877.036133 1626.543579,869.264832 1627.833618,860.592285   C1631.838135,833.673889 1636.027832,806.782898 1640.203491,779.890259   C1640.609497,777.275269 1641.272217,774.677612 1642.065186,772.150146   C1643.492798,767.599243 1647.096558,766.157715 1651.426025,766.397339   C1656.065552,766.654053 1659.789917,769.971619 1659.689941,774.705811   C1659.557617,780.979248 1658.643799,787.262329 1657.711426,793.488220   C1653.730957,820.071838 1649.654663,846.641357 1645.528809,873.202881   C1644.657227,878.813354 1642.426880,883.724854 1639.133057,888.595825   C1621.990967,913.946716 1605.189087,939.531677 1588.592529,965.244202   C1584.639404,971.368896 1580.133545,975.329834 1571.451172,975.096069   C1569.009521,973.807190 1567.687134,972.234558 1566.364624,970.661926  z"/>
<path fill="#1A7195" opacity="1.000000" stroke="none" d=" M410.461670,932.445679   C391.318970,946.903198 372.585541,960.726562 354.219574,975.022095   C349.912262,978.374756 346.073425,982.878723 343.347351,987.617188   C332.236328,1006.930664 321.650024,1026.545776 310.842041,1046.034180   C309.714478,1048.067261 308.602325,1050.164673 307.130676,1051.940308   C303.636780,1056.155762 299.159485,1056.858887 294.709839,1054.169556   C290.840790,1051.831299 289.380127,1047.772339 290.904022,1042.911377   C291.495148,1041.025757 292.456024,1039.230103 293.426880,1037.493286   C305.435211,1016.010376 317.341705,994.468323 329.624878,973.143311   C332.035309,968.958557 335.410645,964.948059 339.230988,962.017334   C369.565186,938.747498 400.137299,915.788147 430.571045,892.647522   C434.728424,889.486389 439.084503,888.618103 443.504303,891.173096   C447.347015,893.394348 448.882690,897.551147 447.354980,901.570007   C446.256378,904.460144 443.727203,907.128540 441.212982,909.101746   C431.277130,916.899170 421.095490,924.383362 410.461670,932.445679  z"/>
<path fill="#1A7195" opacity="1.000000" stroke="none" d=" M345.532318,1402.428467   C352.517517,1412.639526 358.201355,1423.054932 365.898285,1431.672363   C375.139496,1442.018799 385.959839,1450.985352 396.344147,1460.272461   C408.980988,1471.574341 421.872070,1482.592041 434.662323,1493.722168   C437.776428,1496.431885 440.506500,1499.332031 439.403442,1503.946045   C437.775055,1510.757324 430.392670,1513.883911 424.622528,1509.707642   C418.436005,1505.230225 412.732300,1500.077759 406.888397,1495.136475   C390.384430,1481.181641 373.899658,1467.203857 357.463257,1453.169678   C355.980225,1451.903442 354.762512,1450.257446 353.657104,1448.627930   C334.031250,1419.701660 314.414642,1390.768921 294.861755,1361.793335   C289.051605,1353.183228 289.278778,1347.603516 295.286987,1343.724854   C300.536285,1340.336304 305.357574,1342.553711 311.191589,1351.222900   C322.531921,1368.073853 333.815491,1384.963013 345.532318,1402.428467  z"/>
<path fill="#1A7194" opacity="1.000000" stroke="none" d=" M279.681702,1086.549316   C284.417877,1092.938965 283.970734,1099.734985 282.672424,1107.298218   C276.948578,1140.643188 271.574554,1174.055542 266.740967,1207.539673   C265.879120,1213.509888 267.882416,1219.992065 269.063446,1226.141602   C273.444519,1248.953247 278.161224,1271.700806 282.482666,1294.523315   C284.148376,1303.320190 278.827423,1308.172241 270.554626,1306.031250   C265.936310,1304.836060 264.729614,1301.323975 263.922363,1297.123779   C260.038971,1276.919067 256.815063,1256.533203 251.713181,1236.633057   C246.974762,1218.150513 247.689636,1200.368652 251.257950,1181.826416   C256.520416,1154.480713 260.080139,1126.802246 264.108337,1099.228027   C265.085266,1092.540405 267.808105,1088.015137 275.826782,1086.125000   C277.845734,1085.888062 278.763733,1086.218628 279.681702,1086.549316  z"/>
<path fill="#1A7195" opacity="1.000000" stroke="none" d=" M1540.283936,1011.324890   C1534.819214,1015.436584 1529.751099,1018.955261 1524.360352,1023.017578   C1516.035889,1028.836914 1507.877808,1033.892212 1500.058105,1039.425659   C1461.270630,1066.873413 1422.513550,1094.365234 1383.914673,1122.076538   C1378.884399,1125.687988 1373.928101,1126.948120 1366.974487,1125.317627   C1365.289429,1123.592285 1364.718750,1122.353516 1364.148193,1121.114868   C1363.428711,1114.311890 1366.875610,1109.999268 1372.197876,1106.245605   C1421.989868,1071.128784 1471.690918,1035.882568 1521.416748,1000.671875   C1523.046143,999.518127 1524.830811,998.519043 1526.249512,997.144775   C1531.129150,992.417847 1536.559570,991.465027 1543.376709,994.154907   C1544.059692,993.994019 1544.028931,993.842407 1544.010010,994.485901   C1544.713623,995.406372 1545.436157,995.683350 1546.080322,995.950562   C1546.002075,995.940796 1546.028809,995.785217 1546.028809,995.785217   C1545.358276,1001.165405 1546.417725,1007.164673 1540.283936,1011.324890  z"/>
<path fill="#1A7194" opacity="1.000000" stroke="none" d=" M658.187195,778.341858   C658.770569,789.206665 652.452271,794.551514 643.474854,799.343750   C601.472351,821.765137 559.794922,844.795288 517.978577,867.566040   C511.838135,870.909668 505.490082,873.876770 499.395966,877.299255   C494.720825,879.924988 490.116180,880.799927 483.931702,878.062927   C481.953857,876.735901 481.195496,875.751404 480.437134,874.766907   C481.770172,865.640503 488.083862,861.353760 495.698303,857.256775   C543.869690,831.338379 591.888916,805.133850 639.769714,778.682373   C646.008911,775.235596 651.094788,776.581421 657.416992,778.751709   C658.154480,778.496704 658.187195,778.341858 658.187195,778.341858  z"/>
<path fill="#1A7195" opacity="1.000000" stroke="none" d=" M1907.593506,721.286377   C1907.019531,727.816772 1906.493164,733.422729 1906.105957,739.038208   C1904.806152,757.887451 1903.570923,776.741150 1902.264893,795.589966   C1902.128784,797.554260 1902.256470,799.848511 1901.301270,801.397705   C1887.238647,824.206421 1880.426758,850.169250 1869.412964,874.294495   C1868.446411,876.411621 1867.645996,878.613342 1866.561401,880.666382   C1863.101562,887.215576 1858.146118,889.391907 1852.867554,886.803711   C1847.957642,884.396301 1846.245117,879.566467 1848.789307,873.050842   C1853.503418,860.978088 1858.596924,849.053345 1863.538330,837.069458   C1869.745605,822.015564 1876.677856,807.207092 1881.880493,791.813843   C1884.677856,783.537292 1884.921509,774.290527 1885.600098,765.426636   C1887.170288,744.918579 1888.049805,724.356140 1889.736328,703.859192   C1890.427368,695.461182 1899.041016,691.442078 1904.573853,696.644348   C1906.673218,698.618286 1907.757324,702.370544 1908.032837,705.426880   C1908.477295,710.356750 1907.868530,715.381531 1907.593506,721.286377  z"/>
<path fill="#1A7195" opacity="1.000000" stroke="none" d=" M787.677368,943.604614   C786.798706,951.211731 781.969116,955.446533 775.734192,959.319336   C748.963623,975.947998 722.498962,993.068481 695.792297,1009.801453   C689.945068,1013.464905 685.645630,1017.739929 683.455261,1024.556641   C680.620667,1033.378418 676.761902,1041.866577 673.512390,1050.561523   C671.530701,1055.864380 668.555908,1059.908081 661.468994,1061.481812   C659.097961,1061.887817 657.848267,1061.714355 656.598633,1061.541016   C656.309204,1060.051392 655.924133,1058.572876 655.749207,1057.069946   C655.307739,1053.277588 653.642517,1049.002197 654.804138,1045.756836   C659.847473,1031.666260 665.650146,1017.843079 671.386047,1004.009460   C672.212524,1002.016418 673.851379,999.973206 675.667053,998.835205   C702.719421,981.879333 729.866455,965.074463 756.987122,948.227478   C760.945251,945.768677 764.667358,942.779602 768.893982,940.948059   C772.690674,939.302979 777.031067,938.912720 782.471680,938.294617   C785.100342,940.281799 786.388855,941.943176 787.677368,943.604614  z"/>
<path fill="#1A7194" opacity="1.000000" stroke="none" d=" M247.679382,1077.842773   C203.453903,1077.841797 160.187042,1077.844849 116.920166,1077.830444   C114.261734,1077.829468 111.531387,1078.050171 108.960724,1077.536255   C104.357079,1076.616089 101.957008,1072.842285 102.288445,1067.849365   C102.595131,1063.228882 104.976830,1060.420898 109.623940,1059.884766   C111.927162,1059.619019 114.275879,1059.704834 116.604034,1059.704346   C161.867844,1059.693604 207.131638,1059.692383 252.395447,1059.695312   C254.391312,1059.695435 256.418121,1059.541504 258.376923,1059.827026   C263.174438,1060.526367 266.168365,1064.001587 266.202850,1068.598511   C266.237030,1073.152954 263.266785,1076.985229 258.606537,1077.626709   C255.335724,1078.076782 251.964417,1077.796753 247.679382,1077.842773  z"/>
<path fill="#1A7195" opacity="1.000000" stroke="none" d=" M955.693848,229.618713   C954.424316,234.247437 952.932617,238.017548 952.289307,241.927261   C951.076355,249.298813 944.664673,252.970245 939.515137,251.377014   C934.307556,249.765793 932.064392,244.779922 933.942688,237.379227   C937.783936,222.244919 941.960632,207.195923 945.975098,192.105408   C952.127319,168.978622 958.229126,145.838333 964.442810,122.728096   C965.123901,120.195068 966.058594,117.601845 967.469543,115.420662   C970.260071,111.106743 974.700134,110.919937 979.051208,112.187126   C983.193726,113.393593 984.835327,117.037636 984.097168,120.873634   C982.532227,129.006989 980.478577,137.057877 978.346985,145.068542   C970.913574,173.003754 963.361572,200.907440 955.693848,229.618713  z"/>
<path fill="#1A7195" opacity="1.000000" stroke="none" d=" M765.770386,1163.395386   C765.240784,1164.903564 764.478088,1166.373413 764.223572,1167.926636   C763.327026,1173.398682 760.046021,1176.239502 754.681152,1176.231079   C744.359558,1176.214844 734.038330,1175.889648 723.716980,1175.692627   C709.865540,1167.267578 696.014099,1158.842529 682.162720,1150.417603   C673.868958,1136.751221 665.426147,1123.172119 657.354675,1109.375732   C654.116333,1103.840454 655.453674,1097.928711 659.716980,1095.058350   C664.381104,1091.918091 670.211365,1093.439697 674.106567,1099.531372   C680.743835,1109.911621 687.143799,1120.453003 693.328003,1131.109619   C696.275391,1136.188599 699.936584,1140.174683 705.214233,1142.797974   C707.885071,1144.125488 710.495483,1145.712524 712.821411,1147.572144   C722.962524,1155.680664 734.717834,1158.094482 747.319336,1157.740356   C753.346436,1157.570923 759.340027,1157.531006 765.076599,1162.496582   C766.021851,1162.880005 765.770447,1163.395386 765.770386,1163.395386  z"/>
<path fill="#1A7094" opacity="1.000000" stroke="none" d=" M1705.774170,234.591354   C1706.116211,229.157776 1707.982422,224.521118 1711.310791,220.009003   C1719.402344,209.040115 1727.182739,197.813400 1734.511963,186.322800   C1738.024048,180.816559 1742.477295,177.760178 1748.639893,176.338745   C1759.327881,173.873459 1769.899780,170.887436 1780.619629,168.582153   C1788.415039,166.905792 1792.886841,169.350372 1794.120850,174.991287   C1795.367065,180.687881 1793.310181,184.721008 1787.506836,186.396408   C1778.252441,189.068192 1768.946289,191.683334 1759.509766,193.554764   C1754.070435,194.633453 1750.619751,197.407028 1747.709717,201.756790   C1741.237427,211.431229 1734.182129,220.738724 1728.128174,230.661682   C1724.307983,236.923172 1719.642578,240.535141 1711.283081,240.952698   C1708.911011,239.714249 1707.569824,238.084366 1706.534546,236.110260   C1706.457153,235.209534 1706.073853,234.653030 1705.812012,234.203217   C1705.933594,234.309906 1705.774170,234.591354 1705.774170,234.591354  z"/>
<path fill="#1A7194" opacity="1.000000" stroke="none" d=" M1460.015381,471.573608   C1455.150635,474.918518 1450.297607,475.809052 1444.162964,474.326202   C1416.700684,467.687897 1389.085205,461.683746 1361.528809,455.433655   C1359.584106,454.992615 1357.586060,454.617798 1355.759644,453.859009   C1351.472046,452.077728 1349.329956,447.906891 1350.102173,443.322906   C1350.864868,438.795990 1354.207764,435.892334 1359.276245,435.886414   C1361.902954,435.883362 1364.568848,436.430298 1367.151855,437.016052   C1394.710815,443.265869 1422.212036,449.781830 1449.840942,455.703156   C1455.969238,457.016571 1459.327515,459.856445 1461.192871,466.699341   C1461.140259,469.029877 1460.577881,470.301758 1460.015381,471.573608  z"/>
<path fill="#1A7194" opacity="1.000000" stroke="none" d=" M991.107178,247.246170   C1008.137695,243.487350 1024.337891,239.873154 1040.580200,236.459503   C1049.542114,234.575974 1054.655884,237.030243 1055.711548,243.285492   C1056.790649,249.679382 1053.023682,253.891541 1044.481812,255.669891   C1019.138184,260.946198 993.787781,266.189880 968.435486,271.424255   C966.810242,271.759857 965.153503,272.007538 963.499146,272.125885   C956.955994,272.594116 953.113342,270.268860 952.006714,265.196869   C950.872681,259.999084 953.816101,254.642105 960.030518,253.584915   C970.171570,251.859756 980.211731,249.542160 991.107178,247.246170  z"/>
<path fill="#1A7194" opacity="1.000000" stroke="none" d=" M1728.464844,364.187653   C1737.322632,362.822571 1745.343506,364.861694 1753.479492,368.685303   C1769.430542,376.181915 1785.796753,382.795319 1801.986450,389.785034   C1804.429932,390.839905 1806.945435,391.779205 1809.258911,393.073334   C1815.389893,396.502930 1817.266724,401.210449 1814.659912,406.096649   C1811.911255,411.248871 1807.137329,412.926392 1801.105103,410.392975   C1787.914307,404.853180 1774.795654,399.141266 1761.669800,393.448151   C1753.732544,390.005524 1745.842285,386.454651 1737.921631,382.973572   C1727.920044,378.578003 1727.503906,377.865479 1728.224731,365.245148   C1728.057495,364.211975 1728.464844,364.187653 1728.464844,364.187653  z"/>
<path fill="#1A7194" opacity="1.000000" stroke="none" d=" M1921.441772,336.487061   C1921.753174,337.987762 1921.647949,339.776794 1922.451050,340.937317   C1925.314453,345.074768 1924.885010,349.154510 1922.484863,353.088745   C1915.375244,364.743469 1908.249634,376.394501 1900.785645,387.821930   C1899.250610,390.172058 1896.364258,391.777649 1893.854004,393.326416   C1887.053467,397.522186 1880.140015,401.537079 1873.225220,405.544159   C1871.515991,406.534729 1869.705811,407.521179 1867.813232,407.993591   C1862.517944,409.315399 1858.244019,407.744019 1856.512207,404.148193   C1854.363281,399.686554 1855.749756,393.971832 1860.260498,391.013611   C1866.104248,387.181213 1872.049072,383.422394 1878.277710,380.281342   C1883.918701,377.436798 1887.707886,373.226410 1890.818604,367.915558   C1895.529663,359.872314 1900.708618,352.103882 1905.462891,344.084839   C1907.837769,340.078979 1910.912842,337.501862 1916.728271,336.443298   C1919.038574,336.034576 1920.240112,336.260803 1921.441772,336.487061  z"/>
<path fill="#1A7194" opacity="1.000000" stroke="none" d=" M127.785110,2008.160645   C144.445282,2010.153931 160.212692,2012.101074 175.973587,2014.099731   C179.247253,2014.514893 182.507919,2015.059692 185.754730,2015.653320   C191.107498,2016.632202 192.526581,2020.342163 192.248383,2025.203125   C191.955582,2030.318848 189.658524,2033.487915 184.275421,2033.505493   C176.694092,2033.530396 169.090424,2032.553711 161.529205,2031.710205   C144.748001,2029.837891 127.988441,2027.772095 111.217697,2025.805298   C103.081917,2024.851074 99.999992,2022.288086 99.712715,2016.147461   C99.414658,2009.776123 101.766609,2006.450317 108.138718,2006.374023   C114.381256,2006.299316 120.639000,2007.494629 127.785110,2008.160645  z"/>
<path fill="#1A7195" opacity="1.000000" stroke="none" d=" M876.344299,1109.855347   C878.073730,1119.982056 872.804504,1125.538696 864.478210,1130.286499   C848.874390,1139.183960 833.765869,1148.949829 818.443848,1158.342285   C817.027771,1159.210449 815.614807,1160.118286 814.103699,1160.790405   C808.404114,1163.325439 803.458679,1162.217041 800.878845,1157.927856   C798.182312,1153.444580 799.666077,1147.244507 804.468079,1144.002319   C808.049438,1141.584229 811.856018,1139.500732 815.549316,1137.246948   C830.030823,1128.409180 844.571838,1119.666382 858.952087,1110.666748   C864.317078,1107.309082 869.412659,1106.735718 875.503784,1110.128052   C876.203186,1110.051880 876.344299,1109.855347 876.344299,1109.855347  z"/>
<path fill="#1B7194" opacity="1.000000" stroke="none" d=" M1915.944092,200.398285   C1914.257690,193.829041 1918.156128,189.516785 1922.392822,185.726334   C1936.501099,173.103867 1950.795532,160.689011 1965.044678,148.224304   C1968.370728,145.314713 1971.993896,143.037308 1978.090332,144.108398   C1981.498291,146.666443 1983.552490,148.909698 1985.606812,151.152985   C1982.226562,155.855484 1979.516479,161.286133 1975.343262,165.127029   C1961.553833,177.818726 1947.146851,189.836777 1933.182129,202.342545   C1929.587402,205.561661 1925.704102,206.132660 1919.992310,205.579117   C1917.758057,203.706375 1916.851074,202.052322 1915.944092,200.398285  z"/>
<path fill="#1B7194" opacity="1.000000" stroke="none" d=" M1913.724976,224.336426   C1920.695435,226.408386 1923.233276,231.274536 1923.935425,238.332474   C1925.376831,252.822037 1927.626953,267.229767 1929.418701,281.686768   C1929.906982,285.626434 1930.321533,289.642120 1930.103149,293.585999   C1929.812256,298.839417 1926.765991,301.782166 1922.149292,302.195068   C1917.143066,302.642761 1912.924927,299.952545 1911.904663,294.855438   C1910.412964,287.403687 1909.328735,279.862335 1908.299194,272.327972   C1906.821411,261.511902 1905.305176,250.689911 1904.320801,239.823715   C1903.974365,235.998535 1905.145142,232.035919 1906.483765,227.178162   C1909.471191,225.592331 1911.598145,224.964386 1913.724976,224.336426  z"/>
<path fill="#1A7094" opacity="1.000000" stroke="none" d=" M1713.222900,312.946442   C1713.746704,316.423584 1714.223145,319.058136 1714.240112,321.695648   C1714.281494,328.167938 1711.534302,331.522797 1706.056274,332.059479   C1700.696899,332.584534 1697.160645,329.884155 1695.749878,323.641724   C1694.584961,318.486938 1693.855713,313.233063 1692.953613,308.019623   C1691.432007,299.227692 1689.794678,290.453064 1688.455811,281.633209   C1687.386841,274.591400 1690.446777,269.413055 1695.850708,268.401459   C1701.667603,267.312561 1706.626465,271.514099 1707.803711,278.783844   C1709.600586,289.878632 1711.252808,300.996887 1713.222900,312.946442  z"/>
<path fill="#1A7094" opacity="1.000000" stroke="none" d=" M1831.975098,180.216614   C1838.086670,173.036911 1841.708374,171.855621 1849.946411,175.144302   C1860.414429,179.323257 1870.810181,183.695007 1881.134766,188.217285   C1886.898071,190.741653 1889.112061,195.252731 1887.537231,200.056900   C1886.046997,204.603119 1880.795776,208.133331 1875.430542,205.957718   C1860.248169,199.801086 1843.452271,196.750198 1830.501099,183.810944   C1830.512939,182.164215 1831.244019,181.190430 1831.975098,180.216614  z"/>
<path fill="#1B7194" opacity="1.000000" stroke="none" d=" M1938.679321,325.900940   C1944.915283,324.828949 1950.159058,326.873535 1955.205811,330.497589   C1962.137939,335.475616 1969.654541,339.668762 1976.377808,344.896423   C1979.795898,347.554016 1982.026245,351.739166 1985.066284,356.351715   C1983.524414,359.775391 1981.709961,362.081055 1979.895508,364.386780   C1975.876831,366.627930 1972.204590,365.447174 1968.708618,363.160980   C1958.991699,356.806641 1949.113770,350.670288 1939.724854,343.861176   C1937.099365,341.957153 1935.949341,338.018921 1934.250244,333.644592   C1935.811768,330.150543 1937.245605,328.025757 1938.679321,325.900940  z"/>
<path fill="#1B7194" opacity="1.000000" stroke="none" d=" M1808.148926,148.889938   C1808.138916,135.387924 1808.189697,122.777023 1808.130127,110.166649   C1808.107910,105.454979 1809.233032,101.315857 1814.296997,100.109673   C1820.439209,98.646606 1826.484985,100.141876 1826.356934,108.699539   C1826.168213,121.307068 1826.396240,133.920258 1826.330322,146.530426   C1826.293823,153.525650 1824.048706,157.091080 1819.407104,158.114151   C1814.152710,159.272308 1811.404785,157.235336 1808.148926,148.889938  z"/>
<path fill="#1A7094" opacity="1.000000" stroke="none" d=" M1429.724854,109.905029   C1430.985962,106.771324 1431.702515,104.108101 1433.311157,102.194901   C1436.013672,98.980652 1439.806274,99.389870 1443.443726,100.525543   C1447.203247,101.699326 1448.795654,104.620155 1448.242798,108.230148   C1446.642944,118.675919 1444.752075,129.077682 1442.917969,139.486572   C1442.458740,142.092941 1442.023560,144.744904 1441.158325,147.230072   C1439.132690,153.049362 1435.225586,155.301331 1429.693970,154.169998   C1424.747925,153.158417 1421.745850,148.618576 1422.858154,142.774094   C1424.899048,132.048889 1427.319336,121.395859 1429.724854,109.905029  z"/>
<path fill="#DBDBDB" opacity="1.000000" stroke="none" d=" M1723.009033,1148.569824   C1717.213013,1155.037842 1710.666016,1155.329468 1704.326172,1152.142334   C1698.251953,1149.089355 1695.386475,1143.621460 1696.237427,1136.412964   C1697.162598,1128.573486 1703.285889,1123.475830 1712.195312,1123.630981   C1720.485107,1123.775391 1726.354614,1128.911987 1726.246216,1136.824829   C1726.194824,1140.565674 1724.527832,1144.284546 1723.009033,1148.569824  z"/>
<path fill="#DBDBDB" opacity="1.000000" stroke="none" d=" M876.315063,1110.002930   C876.759460,1103.583008 874.566711,1096.871216 880.724487,1091.556885   C886.889709,1086.236084 896.255066,1085.798218 902.038452,1091.414429   C907.512390,1096.730103 908.255798,1106.430542 903.613647,1111.968750   C897.701111,1119.022583 888.655640,1120.067017 881.780273,1114.385864   C880.267029,1113.135376 879.046021,1111.531250 877.017395,1109.972656   C876.344299,1109.855347 876.203186,1110.051880 876.315063,1110.002930  z"/>
<path fill="#DCDCDC" opacity="1.000000" stroke="none" d=" M1363.480957,1120.620117   C1364.718750,1122.353516 1365.289429,1123.592285 1366.151367,1125.248901   C1366.263184,1129.308960 1366.737915,1133.137695 1365.763672,1136.552856   C1363.939819,1142.945923 1355.108276,1147.076660 1347.760620,1145.642334   C1340.696411,1144.263428 1335.518311,1136.404663 1336.295288,1128.241211   C1336.968750,1121.165894 1342.874268,1115.973999 1350.354980,1115.598999   C1355.211426,1115.355591 1359.666260,1115.841064 1363.480957,1120.620117  z"/>
<path fill="#DBDBDB" opacity="1.000000" stroke="none" d=" M1538.096558,1413.865479   C1535.358765,1409.238770 1530.771118,1405.884888 1531.425049,1399.178955   C1532.309570,1390.106323 1537.326172,1384.337769 1546.322266,1384.271851   C1555.670898,1384.203369 1561.792603,1390.352417 1561.722778,1399.741455   C1561.656250,1408.694824 1556.018311,1414.256592 1546.751343,1414.371094   C1544.445801,1414.399536 1542.135864,1414.068726 1538.949829,1413.813477   C1538.071777,1413.723755 1538.010254,1413.901001 1538.096558,1413.865479  z"/>
<path fill="#DBDBDB" opacity="1.000000" stroke="none" d=" M766.095032,1164.103516   C765.770447,1163.395386 766.021851,1162.880005 765.829712,1162.673828   C765.874756,1158.534912 765.292480,1154.319824 766.529480,1150.731812   C768.710876,1144.404663 777.830811,1140.714355 784.850708,1142.438843   C791.845459,1144.157227 796.687561,1152.089111 795.696899,1160.206055   C794.863831,1167.031738 788.713745,1171.757690 781.367310,1172.532593   C774.350464,1173.272827 770.282227,1169.536011 766.095032,1164.103516  z"/>
<path fill="#DBDBDB" opacity="1.000000" stroke="none" d=" M300.381409,1324.249756   C301.370392,1332.532715 297.424316,1337.293213 291.188843,1339.888306   C284.680695,1342.596924 276.792450,1339.721802 272.578735,1334.096680   C268.581665,1328.760864 269.394989,1320.189453 274.390594,1315.002319   C279.514679,1309.681763 287.965881,1308.192017 293.334442,1312.170776   C297.011292,1314.895630 300.945679,1317.853638 300.381409,1324.249756  z"/>
<path fill="#DBDBDB" opacity="1.000000" stroke="none" d=" M995.801941,1349.581787   C1002.947754,1345.047119 1009.384521,1344.371338 1015.513855,1349.951294   C1021.209229,1355.136108 1022.388611,1365.007446 1017.980774,1370.551880   C1013.246521,1376.506958 1003.317810,1378.566162 997.479736,1374.803833   C990.341675,1370.203735 987.931458,1361.284546 991.974976,1353.873291   C992.748413,1352.455688 994.143005,1351.376953 995.801941,1349.581787  z"/>
<path fill="#DBDBDB" opacity="1.000000" stroke="none" d=" M1634.285400,742.334656   C1638.283936,727.749451 1650.321777,723.334595 1659.742554,732.198547   C1664.293945,736.481140 1666.445190,745.333008 1663.501953,750.435486   C1660.106934,756.321411 1655.009033,759.364929 1647.731934,758.478149   C1641.388428,757.705200 1636.118164,753.702942 1634.396240,747.119812   C1634.068481,745.867432 1634.306641,744.467041 1634.285400,742.334656  z"/>
<path fill="#DBDBDB" opacity="1.000000" stroke="none" d=" M1312.819702,1496.439697   C1319.776245,1499.954834 1324.284912,1504.223145 1323.776245,1512.172974   C1323.239258,1520.564331 1317.726807,1526.242554 1309.213745,1526.400635   C1299.945801,1526.572876 1294.136230,1521.794556 1293.621216,1513.575928   C1292.990356,1503.507202 1297.954468,1497.081665 1307.043335,1496.297852   C1308.695801,1496.155273 1310.372559,1496.293823 1312.819702,1496.439697  z"/>
<path fill="#DBDBDB" opacity="1.000000" stroke="none" d=" M761.884460,1536.718994   C755.947815,1532.677490 752.770752,1528.182251 753.517578,1521.278809   C754.175964,1515.192505 758.201599,1509.149536 763.381531,1507.847656   C770.755920,1505.994263 777.783997,1508.512451 781.784546,1514.441406   C785.059570,1519.294800 784.384583,1527.351685 780.608459,1532.109619   C775.753174,1538.226929 769.450623,1538.583740 761.884460,1536.718994  z"/>
<path fill="#DBDBDB" opacity="1.000000" stroke="none" d=" M444.980530,1512.532959   C451.017731,1509.424072 456.547913,1509.037964 461.678284,1512.378174   C468.769196,1516.994873 470.929199,1528.046509 466.298004,1534.260620   C461.158295,1541.157104 450.493347,1542.870361 444.250702,1537.802368   C436.664764,1531.643433 435.891266,1522.955811 442.258331,1515.149048   C442.887451,1514.377808 443.655579,1513.719849 444.980530,1512.532959  z"/>
<path fill="#DBDBDB" opacity="1.000000" stroke="none" d=" M93.867363,1522.283936   C100.459099,1528.261353 99.633064,1535.230103 96.878258,1541.195801   C94.262207,1546.860962 88.621063,1549.279663 81.786346,1548.494873   C74.513687,1547.659912 68.772873,1542.426392 68.292290,1535.177002   C67.777847,1527.416870 72.687332,1519.526367 79.372284,1518.524902   C84.212746,1517.799805 89.458771,1517.199951 93.867363,1522.283936  z"/>
<path fill="#DBDBDB" opacity="1.000000" stroke="none" d=" M1370.739014,1644.300781   C1384.064819,1644.779297 1389.400879,1650.431030 1388.382080,1662.139160   C1387.759888,1669.289917 1382.049927,1674.213257 1374.199341,1674.368164   C1365.854004,1674.532959 1359.281860,1669.660522 1358.304443,1662.584229   C1357.063843,1653.603271 1359.841309,1649.243896 1370.739014,1644.300781  z"/>
<path fill="#DBDBDB" opacity="1.000000" stroke="none" d=" M871.904114,1715.124634   C861.950195,1705.398193 861.544006,1696.271362 870.113708,1689.244507   C874.718018,1685.468750 883.080322,1685.055542 887.782837,1688.371094   C893.715271,1692.553833 896.139954,1699.644165 894.111511,1706.877075   C892.663940,1712.038818 886.699890,1716.285889 880.452637,1716.332886   C877.825134,1716.352661 875.193787,1715.862915 871.904114,1715.124634  z"/>
<path fill="#DBDBDB" opacity="1.000000" stroke="none" d=" M1646.641602,2015.873291   C1641.596191,2015.855835 1636.905640,2016.625977 1633.168701,2015.084351   C1625.954712,2012.108276 1623.016235,2000.086060 1627.096436,1993.591431   C1631.969482,1985.834839 1642.796265,1983.628540 1649.639404,1988.997559   C1657.256958,1994.973999 1658.245483,2004.570557 1651.884277,2011.642822   C1650.561279,2013.113647 1648.921265,2014.299316 1646.641602,2015.873291  z"/>
<path fill="#DBDBDB" opacity="1.000000" stroke="none" d=" M88.097527,2024.706177   C81.784813,2025.975586 76.311279,2026.782715 71.497246,2022.232056   C65.054008,2016.141357 64.056206,2007.239258 69.518967,2000.923218   C75.295341,1994.244629 85.434319,1993.342163 91.601135,1998.957886   C98.051895,2004.832397 98.482559,2014.457153 92.517586,2021.012695   C91.408844,2022.231079 90.032822,2023.206421 88.097527,2024.706177  z"/>
<path fill="#DBDBDB" opacity="1.000000" stroke="none" d=" M196.270447,2027.681641   C195.420471,2019.357544 199.854675,2014.838989 205.824249,2012.119629   C211.823944,2009.386719 219.504181,2012.041748 223.720139,2017.160645   C227.794724,2022.107666 227.533524,2031.495728 223.185287,2036.377563   C217.959702,2042.244629 209.214798,2043.960571 203.501724,2039.752075   C199.793091,2037.020508 196.084549,2033.894531 196.270447,2027.681641  z"/>
<path fill="#DBDBDB" opacity="1.000000" stroke="none" d=" M549.273315,369.881622   C553.304993,363.923706 557.809753,360.781952 564.714844,361.529633   C570.809021,362.189514 576.822998,366.170532 578.161316,371.385071   C580.033447,378.679382 577.487427,385.774994 571.555176,389.795746   C567.140198,392.788116 559.025452,392.471313 554.645081,389.240814   C548.106445,384.418671 547.098083,377.934906 549.273315,369.881622  z"/>
<path fill="#DBDBDB" opacity="1.000000" stroke="none" d=" M1832.390381,81.908844   C1830.650879,93.409927 1825.355957,97.468582 1814.627197,96.364143   C1807.296265,95.609474 1802.116089,89.190399 1802.271606,81.053177   C1802.431152,72.714432 1808.280273,66.633217 1816.468018,66.293266   C1826.027222,65.896385 1831.226196,70.719933 1832.390381,81.908844  z"/>
<path fill="#DBDBDB" opacity="1.000000" stroke="none" d=" M1454.497803,68.432037   C1460.261841,72.667267 1463.275757,77.210266 1462.513428,84.105675   C1461.611572,92.262299 1455.954102,97.761070 1447.308838,97.723526   C1438.521606,97.685364 1432.382568,91.593025 1432.280029,82.809074   C1432.178833,74.144814 1437.571411,68.013779 1445.790649,67.672287   C1448.430664,67.562607 1451.090210,67.924370 1454.497803,68.432037  z"/>
<path fill="#DBDBDB" opacity="1.000000" stroke="none" d=" M470.694397,74.691826   C476.443420,68.744202 482.848053,68.972542 488.681976,71.851532   C494.805359,74.873360 497.342407,80.513176 496.455322,87.702217   C495.602020,94.617569 490.631500,99.920097 483.662598,100.372551   C474.578522,100.962318 467.384064,96.439796 466.434570,89.035324   C465.800262,84.088997 465.577209,78.937340 470.694397,74.691826  z"/>
<path fill="#DBDBDB" opacity="1.000000" stroke="none" d=" M985.073425,103.624329   C971.441040,103.477104 964.897949,96.956833 966.295532,85.768051   C967.239868,78.208092 973.980042,73.263031 982.847534,73.624252   C990.581238,73.939270 995.709717,79.027695 996.423096,86.509384   C997.233154,95.004883 993.597046,100.483643 985.073425,103.624329  z"/>
<path fill="#DBDBDB" opacity="1.000000" stroke="none" d=" M1411.670044,164.288986   C1415.847656,158.451111 1420.551392,155.489288 1427.338745,156.169357   C1435.128418,156.949814 1440.471558,163.122009 1440.387451,171.910736   C1440.306030,180.415817 1435.396118,185.888153 1427.420044,186.363297   C1414.148315,187.153900 1408.707520,179.941757 1411.670044,164.288986  z"/>
<path fill="#DCDCDC" opacity="1.000000" stroke="none" d=" M1831.909302,179.384918   C1831.244019,181.190430 1830.512939,182.164215 1829.739014,183.584137   C1820.805664,192.279312 1812.249390,193.010223 1805.450195,186.101608   C1801.800415,182.393051 1800.183228,173.088928 1802.396729,168.532349   C1805.149780,162.865021 1812.286133,159.296204 1819.116455,160.170883   C1825.018188,160.926620 1830.681763,166.427765 1831.661865,172.582230   C1831.972534,174.532730 1831.796753,176.560684 1831.909302,179.384918  z"/>
<path fill="#DBDBDB" opacity="1.000000" stroke="none" d=" M1075.179688,251.546936   C1067.685059,247.926285 1063.412720,243.082565 1064.231445,234.831329   C1064.987549,227.212082 1070.714844,221.791031 1078.778931,221.631668   C1087.563477,221.458069 1093.568726,225.997452 1094.373047,233.419144   C1095.386230,242.768143 1090.744507,250.291199 1082.944092,251.589905   C1080.674438,251.967773 1078.291992,251.669525 1075.179688,251.546936  z"/>
<path fill="#DBDBDB" opacity="1.000000" stroke="none" d=" M919.754517,275.046875   C920.330444,270.085419 919.930420,265.295013 921.931885,261.935272   C926.286255,254.625839 937.511780,253.132614 943.708557,258.127380   C951.359009,264.293823 952.268799,273.903046 945.851868,280.765991   C939.165161,287.917480 930.258972,287.947906 923.215393,280.709290   C921.865845,279.322388 920.971680,277.492279 919.754517,275.046875  z"/>
<path fill="#DBDBDB" opacity="1.000000" stroke="none" d=" M1729.074463,363.597504   C1728.464844,364.187653 1728.057495,364.211975 1728.129028,364.320801   C1722.207275,367.317749 1716.116577,368.048157 1710.480835,363.944550   C1703.512695,358.870697 1701.928101,349.261292 1706.612305,342.864075   C1711.600220,336.051788 1721.309692,333.987976 1727.655273,338.253387   C1735.659058,343.633362 1736.149536,352.742615 1732.367310,360.089417   C1731.784058,361.222229 1730.593628,362.042511 1729.074463,363.597504  z"/>
<path fill="#DBDBDB" opacity="1.000000" stroke="none" d=" M72.284622,407.914124   C73.435020,399.427765 77.780113,393.478577 83.438293,392.457581   C90.125969,391.250824 95.921631,392.785278 100.161819,398.627594   C103.888100,403.761749 103.317734,413.077850 98.784912,417.856354   C93.779289,423.133331 84.197266,424.466797 78.915329,420.262543   C75.281914,417.370422 71.659187,414.178528 72.284622,407.914124  z"/>
<path fill="#DBDBDB" opacity="1.000000" stroke="none" d=" M1826.684204,419.302551   C1820.660278,413.572571 1820.998413,407.158752 1823.845093,401.338104   C1826.847534,395.199371 1832.487305,392.649414 1839.679932,393.549530   C1846.632690,394.419708 1851.940063,399.387817 1852.390259,406.332550   C1852.970825,415.288666 1848.370239,422.583405 1841.031128,423.558746   C1836.075073,424.217346 1830.943726,424.377869 1826.684204,419.302551  z"/>
<path fill="#DBDBDB" opacity="1.000000" stroke="none" d=" M1341.712646,449.247223   C1336.846436,459.926605 1333.121948,462.442200 1324.434326,461.699036   C1316.562866,461.025665 1311.451050,454.687103 1311.622437,445.812744   C1311.782715,437.519257 1316.927979,432.001099 1324.849976,431.626587   C1336.181763,431.090851 1341.264893,436.160309 1341.712646,449.247223  z"/>
<path fill="#DBDBDB" opacity="1.000000" stroke="none" d=" M977.682617,597.993286   C977.481384,604.807312 979.270508,611.851440 972.579529,617.146912   C966.788513,621.730164 957.381714,621.834900 951.947815,616.600708   C946.492126,611.345459 945.748291,601.572510 950.381836,596.024292   C955.701477,589.654358 964.491943,587.953003 970.698792,592.355347   C972.815430,593.856628 974.451172,596.035828 976.979065,598.022583   C977.651489,598.140015 977.794922,597.943726 977.682617,597.993286  z"/>
<path fill="#DBDBDB" opacity="1.000000" stroke="none" d=" M280.554138,1086.489380   C278.763733,1086.218628 277.845734,1085.888062 276.440186,1085.565796   C274.566193,1084.157349 273.095764,1082.812622 271.808594,1081.310791   C267.552399,1076.344727 266.749725,1068.959106 269.842041,1063.971313   C273.830109,1057.538696 281.814697,1054.428955 288.672668,1056.637085   C294.088379,1058.380859 298.324036,1064.718018 298.385071,1071.168701   C298.485779,1081.809448 293.744354,1086.076294 280.554138,1086.489380  z"/>
<path fill="#DBDBDB" opacity="1.000000" stroke="none" d=" M74.623955,1055.863159   C80.972260,1052.822144 86.851448,1052.147095 92.193161,1055.783447   C99.300507,1060.621704 100.871300,1071.450439 95.821877,1077.718506   C90.303635,1084.568359 81.021248,1086.083252 74.594101,1081.182861   C66.905296,1075.320557 65.821793,1066.266479 71.910843,1058.534058   C72.524948,1057.754272 73.298157,1057.099609 74.623955,1055.863159  z"/>
<path fill="#DBDBDB" opacity="1.000000" stroke="none" d=" M1831.594727,904.262573   C1834.043945,893.384155 1839.732422,889.130798 1849.164551,890.287903   C1856.756348,891.219238 1862.088379,898.186218 1861.713623,906.684814   C1861.385376,914.132751 1855.961792,919.836304 1848.702515,920.367188   C1839.423462,921.045776 1833.318726,917.037537 1831.689087,909.085876   C1831.426392,907.804565 1831.614990,906.430786 1831.594727,904.262573  z"/>
<path fill="#DBDBDB" opacity="1.000000" stroke="none" d=" M658.848328,778.738281   C658.187195,778.341858 658.154480,778.496704 658.231934,778.514282   C657.636047,771.710022 655.594543,764.770996 662.089111,759.170044   C667.852051,754.200073 677.185974,753.960632 682.748779,759.160889   C688.899231,764.910645 689.842651,773.556824 684.987976,779.684265   C679.675232,786.389893 670.356262,788.022522 663.812195,783.268433   C662.218140,782.110474 660.935364,780.524109 658.848328,778.738281  z"/>
<path fill="#DBDBDB" opacity="1.000000" stroke="none" d=" M1153.137695,695.270874   C1153.798096,695.668945 1153.829102,695.516113 1153.752808,695.498657   C1154.298462,702.289734 1156.459473,709.244080 1149.920288,714.846252   C1144.137451,719.800476 1134.825684,720.034363 1129.250366,714.831848   C1123.094238,709.087341 1122.161743,700.445251 1127.038086,694.328796   C1132.418457,687.580017 1141.651733,685.952148 1148.184570,690.726379   C1149.775757,691.889160 1151.054810,693.479187 1153.137695,695.270874  z"/>
<path fill="#DBDBDB" opacity="1.000000" stroke="none" d=" M1910.120117,681.380737   C1900.574341,690.124329 1891.279297,689.899292 1884.808472,681.403442   C1881.494141,677.051880 1881.196045,668.983215 1884.184570,664.513245   C1888.162354,658.563660 1895.152710,656.015625 1902.552368,657.817932   C1907.697632,659.071045 1912.378784,665.129028 1912.291016,671.197571   C1912.244751,674.391541 1911.223022,677.571472 1910.120117,681.380737  z"/>
<path fill="#DCDCDC" opacity="1.000000" stroke="none" d=" M1460.106567,472.397217   C1460.577881,470.301758 1461.140259,469.029877 1461.676270,467.252686   C1465.437500,463.117798 1468.575928,459.060333 1475.028198,459.448486   C1484.186035,459.999390 1489.931641,464.345001 1490.388672,472.649323   C1490.880859,481.592346 1486.134155,488.520813 1478.732300,489.663513   C1469.552002,491.080811 1462.055054,486.045898 1460.317749,477.208893   C1460.064697,475.921417 1460.227417,474.552216 1460.106567,472.397217  z"/>
<path fill="#DCDCDC" opacity="1.000000" stroke="none" d=" M1938.561035,325.062988   C1937.245605,328.025757 1935.811768,330.150543 1934.212280,332.893127   C1930.426880,334.480530 1926.807129,335.450134 1922.314575,336.453369   C1920.240112,336.260803 1919.038574,336.034576 1917.225098,335.897339   C1913.913818,332.748657 1909.951904,329.902222 1908.799927,326.184998   C1906.895996,320.041473 1908.218018,313.973846 1913.884521,309.373688   C1918.881104,305.317413 1924.546387,305.025848 1929.620483,307.276367   C1935.078491,309.697144 1939.319580,314.182434 1938.408691,321.264282   C1938.283936,322.233704 1938.425049,323.237274 1938.561035,325.062988  z"/>
<path fill="#DCDCDC" opacity="1.000000" stroke="none" d=" M655.735352,1061.571777   C657.848267,1061.714355 659.097961,1061.887817 660.991028,1062.007812   C665.697693,1065.584351 670.741882,1068.118652 670.541138,1075.132935   C670.265808,1084.748535 665.705322,1091.117065 657.259583,1091.718628   C648.174438,1092.365723 641.089905,1086.943359 640.293335,1078.732910   C639.325989,1068.761230 644.301392,1062.915039 655.735352,1061.571777  z"/>
<path fill="#DCDCDC" opacity="1.000000" stroke="none" d=" M556.435242,1863.254639   C555.258606,1861.561646 554.730957,1860.410278 553.919922,1858.881714   C554.250000,1854.033081 553.559387,1848.761841 555.719910,1845.239136   C562.370239,1834.395874 574.823547,1835.755371 583.226196,1847.864746   C583.854370,1848.160278 583.895569,1848.001465 583.813843,1848.020142   C583.092957,1852.531250 583.655029,1857.702148 581.576416,1861.381348   C576.502136,1870.363525 565.944458,1871.013672 556.435242,1863.254639  z"/>
<path fill="#DCDCDC" opacity="1.000000" stroke="none" d=" M1980.013672,365.157654   C1981.709961,362.081055 1983.524414,359.775391 1985.486084,356.891510   C1992.469482,352.357635 1999.253174,351.466003 2005.657837,357.073364   C2010.199829,361.049988 2012.047485,369.905701 2009.690063,375.186615   C2007.056885,381.085754 1999.428223,384.811920 1992.267822,383.696533   C1986.143311,382.742523 1981.081787,376.930389 1980.296753,369.887543   C1980.150757,368.578033 1980.182251,367.248749 1980.013672,365.157654  z"/>
<path fill="#DBDBDB" opacity="1.000000" stroke="none" d=" M1706.228638,236.454498   C1707.569824,238.084366 1708.911011,239.714249 1710.727295,241.501144   C1711.595825,244.921707 1712.401123,248.197830 1712.301636,251.446259   C1712.056885,259.444794 1706.437378,264.310059 1697.905518,264.381622   C1688.991455,264.456390 1682.848389,259.320679 1682.279785,251.318069   C1681.689941,243.019165 1686.933472,235.284393 1694.236328,234.423569   C1697.455933,234.044052 1700.812378,234.824814 1704.940430,234.835083   C1705.774170,234.591354 1705.933594,234.309906 1705.499023,234.895203   C1705.452393,235.805161 1705.840576,236.129837 1706.228638,236.454498  z"/>
<path fill="#DBDBDB" opacity="1.000000" stroke="none" d=" M479.825409,874.210022   C481.195496,875.751404 481.953857,876.735901 483.200867,877.802856   C484.551025,884.754700 486.279633,891.713806 479.624329,897.106873   C475.480835,900.464539 466.442200,901.748169 461.954132,899.171753   C455.910370,895.702271 452.761597,888.164795 454.443817,881.193787   C455.761536,875.733276 462.321259,870.560974 468.280273,870.273926   C472.335480,870.078552 476.292328,870.186707 479.825409,874.210022  z"/>
<path fill="#DBDBDB" opacity="1.000000" stroke="none" d=" M1914.140625,223.700195   C1911.598145,224.964386 1909.471191,225.592331 1906.703369,226.433258   C1894.766602,225.826965 1890.511963,221.620590 1889.442993,212.696915   C1888.177368,202.131271 1898.264771,193.006241 1910.470215,197.097015   C1911.971802,197.600281 1913.226807,198.839355 1915.270020,200.067856   C1916.851074,202.052322 1917.758057,203.706375 1919.177734,205.609192   C1919.888916,212.163177 1920.739502,218.662994 1914.140625,223.700195  z"/>
<path fill="#DCDCDC" opacity="1.000000" stroke="none" d=" M788.388794,944.083618   C786.388855,941.943176 785.100342,940.281799 783.333984,938.376587   C782.676453,937.154114 782.465271,936.180054 782.321777,935.196045   C781.200073,927.502502 783.478210,921.022827 790.632874,917.658508   C798.009888,914.189636 804.820312,916.065247 810.955078,922.341553   C811.687866,922.331665 811.856018,922.102722 811.737549,922.182678   C811.874512,925.518311 812.353333,928.774780 812.342651,932.029602   C812.312500,941.234985 806.945435,946.485168 797.566895,946.282715   C794.733643,946.221497 791.921814,945.163818 788.388794,944.083618  z"/>
<path fill="#DCDCDC" opacity="1.000000" stroke="none" d=" M1986.465576,151.534622   C1983.552490,148.909698 1981.498291,146.666443 1978.893921,144.174377   C1978.262451,137.345398 1977.195435,130.630966 1983.560059,125.720467   C1988.383545,121.998894 1996.266968,120.901245 2001.157227,123.961212   C2007.368042,127.847565 2010.256958,135.856140 2008.056274,143.086655   C2006.501343,148.195587 2000.568115,152.248856 1994.259644,152.345215   C1991.950684,152.380508 1989.636230,152.069382 1986.465576,151.534622  z"/>
<path fill="#DBDBDB" opacity="1.000000" stroke="none" d=" M1565.658936,970.196899   C1567.687134,972.234558 1569.009521,973.807190 1570.822144,975.531982   C1572.452148,981.477661 1574.109131,987.335815 1569.886719,992.654724   C1564.639282,999.264954 1558.227661,1000.245850 1546.831787,995.965637   C1546.028809,995.785217 1546.002075,995.940796 1545.935913,995.420898   C1545.256104,994.548096 1544.642578,994.195251 1544.028931,993.842407   C1544.028931,993.842407 1544.059692,993.994019 1544.135986,993.982178   C1542.547852,988.367310 1540.740845,982.674866 1543.357544,976.965759   C1547.015747,968.983704 1553.697266,966.864319 1565.658936,970.196899  z"/>
<path fill="#000101" opacity="1.000000" stroke="none" d=" M1544.010010,994.485901   C1544.642578,994.195251 1545.256104,994.548096 1546.014160,995.430664   C1545.436157,995.683350 1544.713623,995.406372 1544.010010,994.485901  z"/>
<path fill="#000101" opacity="1.000000" stroke="none" d=" M1706.534546,236.110291   C1705.840576,236.129837 1705.452393,235.805161 1705.377441,234.788513   C1706.073853,234.653030 1706.457153,235.209534 1706.534546,236.110291  z"/>
</svg>